  0
SECTION
  2
HEADER
  9
$ACADVER
  1
AC1014
  9
$ACADMAINTVER
 70
     9
  9
$DWGCODEPAGE
  3
ANSI_1252
  9
$INSBASE
 10
0.0
 20
0.0
 30
0.0
  9
$EXTMIN
 10
1.000000000000000E+20
 20
1.000000000000000E+20
 30
1.000000000000000E+20
  9
$EXTMAX
 10
-1.000000000000000E+20
 20
-1.000000000000000E+20
 30
-1.000000000000000E+20
  9
$LIMMIN
 10
0.0
 20
0.0
  9
$LIMMAX
 10
12.0
 20
9.0
  9
$ORTHOMODE
 70
     0
  9
$REGENMODE
 70
     1
  9
$FILLMODE
 70
     1
  9
$QTEXTMODE
 70
     0
  9
$MIRRTEXT
 70
     1
  9
$DRAGMODE
 70
     2
  9
$LTSCALE
 40
1.0
  9
$OSMODE
 70
    37
  9
$ATTMODE
 70
     1
  9
$TEXTSIZE
 40
0.2
  9
$TRACEWID
 40
0.05
  9
$TEXTSTYLE
  7
STANDARD
  9
$CLAYER
  8
0
  9
$CELTYPE
  6
BYLAYER
  9
$CECOLOR
 62
   256
  9
$CELTSCALE
 40
1.0
  9
$DELOBJ
 70
     1
  9
$DISPSILH
 70
     0
  9
$DIMSCALE
 40
1.0
  9
$DIMASZ
 40
0.18
  9
$DIMEXO
 40
0.0625
  9
$DIMDLI
 40
0.38
  9
$DIMRND
 40
0.0
  9
$DIMDLE
 40
0.0
  9
$DIMEXE
 40
0.18
  9
$DIMTP
 40
0.0
  9
$DIMTM
 40
0.0
  9
$DIMTXT
 40
0.18
  9
$DIMCEN
 40
0.09
  9
$DIMTSZ
 40
0.0
  9
$DIMTOL
 70
     0
  9
$DIMLIM
 70
     0
  9
$DIMTIH
 70
     1
  9
$DIMTOH
 70
     1
  9
$DIMSE1
 70
     0
  9
$DIMSE2
 70
     0
  9
$DIMTAD
 70
     0
  9
$DIMZIN
 70
     0
  9
$DIMBLK
  1

  9
$DIMASO
 70
     1
  9
$DIMSHO
 70
     1
  9
$DIMPOST
  1

  9
$DIMAPOST
  1

  9
$DIMALT
 70
     0
  9
$DIMALTD
 70
     2
  9
$DIMALTF
 40
25.4
  9
$DIMLFAC
 40
1.0
  9
$DIMTOFL
 70
     0
  9
$DIMTVP
 40
0.0
  9
$DIMTIX
 70
     0
  9
$DIMSOXD
 70
     0
  9
$DIMSAH
 70
     0
  9
$DIMBLK1
  1

  9
$DIMBLK2
  1

  9
$DIMSTYLE
  2
STANDARD
  9
$DIMCLRD
 70
     0
  9
$DIMCLRE
 70
     0
  9
$DIMCLRT
 70
     0
  9
$DIMTFAC
 40
1.0
  9
$DIMGAP
 40
0.09
  9
$DIMJUST
 70
     0
  9
$DIMSD1
 70
     0
  9
$DIMSD2
 70
     0
  9
$DIMTOLJ
 70
     1
  9
$DIMTZIN
 70
     0
  9
$DIMALTZ
 70
     0
  9
$DIMALTTZ
 70
     0
  9
$DIMFIT
 70
     3
  9
$DIMUPT
 70
     0
  9
$DIMUNIT
 70
     2
  9
$DIMDEC
 70
     4
  9
$DIMTDEC
 70
     4
  9
$DIMALTU
 70
     2
  9
$DIMALTTD
 70
     2
  9
$DIMTXSTY
  7
STANDARD
  9
$DIMAUNIT
 70
     0
  9
$LUNITS
 70
     2
  9
$LUPREC
 70
     4
  9
$SKETCHINC
 40
0.1
  9
$FILLETRAD
 40
0.5
  9
$AUNITS
 70
     0
  9
$AUPREC
 70
     0
  9
$MENU
  1
.
  9
$ELEVATION
 40
0.0
  9
$PELEVATION
 40
0.0
  9
$THICKNESS
 40
0.0
  9
$LIMCHECK
 70
     0
  9
$CHAMFERA
 40
0.0
  9
$CHAMFERB
 40
0.0
  9
$CHAMFERC
 40
0.0
  9
$CHAMFERD
 40
0.0
  9
$SKPOLY
 70
     0
  9
$TDCREATE
 40
2456893.890003889
  9
$TDUPDATE
 40
2456893.890004063
  9
$TDINDWG
 40
0.0000000116
  9
$TDUSRTIMER
 40
0.0000000116
  9
$USRTIMER
 70
     1
  9
$ANGBASE
 50
0.0
  9
$ANGDIR
 70
     0
  9
$PDMODE
 70
     0
  9
$PDSIZE
 40
0.0
  9
$PLINEWID
 40
0.0
  9
$COORDS
 70
     1
  9
$SPLFRAME
 70
     0
  9
$SPLINETYPE
 70
     6
  9
$SPLINESEGS
 70
     8
  9
$ATTDIA
 70
     0
  9
$ATTREQ
 70
     1
  9
$HANDLING
 70
     1
  9
$HANDSEED
  5
443
  9
$SURFTAB1
 70
     6
  9
$SURFTAB2
 70
     6
  9
$SURFTYPE
 70
     6
  9
$SURFU
 70
     6
  9
$SURFV
 70
     6
  9
$UCSNAME
  2

  9
$UCSORG
 10
0.0
 20
0.0
 30
0.0
  9
$UCSXDIR
 10
1.0
 20
0.0
 30
0.0
  9
$UCSYDIR
 10
0.0
 20
1.0
 30
0.0
  9
$PUCSNAME
  2

  9
$PUCSORG
 10
0.0
 20
0.0
 30
0.0
  9
$PUCSXDIR
 10
1.0
 20
0.0
 30
0.0
  9
$PUCSYDIR
 10
0.0
 20
1.0
 30
0.0
  9
$USERI1
 70
     0
  9
$USERI2
 70
     0
  9
$USERI3
 70
     0
  9
$USERI4
 70
     0
  9
$USERI5
 70
     0
  9
$USERR1
 40
0.0
  9
$USERR2
 40
0.0
  9
$USERR3
 40
0.0
  9
$USERR4
 40
0.0
  9
$USERR5
 40
0.0
  9
$WORLDVIEW
 70
     1
  9
$SHADEDGE
 70
     3
  9
$SHADEDIF
 70
    70
  9
$TILEMODE
 70
     1
  9
$MAXACTVP
 70
    64
  9
$PINSBASE
 10
0.0
 20
0.0
 30
0.0
  9
$PLIMCHECK
 70
     0
  9
$PEXTMIN
 10
1.000000000000000E+20
 20
1.000000000000000E+20
 30
1.000000000000000E+20
  9
$PEXTMAX
 10
-1.000000000000000E+20
 20
-1.000000000000000E+20
 30
-1.000000000000000E+20
  9
$PLIMMIN
 10
0.0
 20
0.0
  9
$PLIMMAX
 10
12.0
 20
9.0
  9
$UNITMODE
 70
     0
  9
$VISRETAIN
 70
     1
  9
$PLINEGEN
 70
     0
  9
$PSLTSCALE
 70
     1
  9
$TREEDEPTH
 70
  3020
  9
$PICKSTYLE
 70
     1
  9
$CMLSTYLE
  2
STANDARD
  9
$CMLJUST
 70
     0
  9
$CMLSCALE
 40
1.0
  9
$PROXYGRAPHICS
 70
     1
  9
$MEASUREMENT
 70
     0
  0
ENDSEC
  0
SECTION
  2
CLASSES
  0
CLASS
  1
ACDBDICTIONARYWDFLT
  2
AcDbDictionaryWithDefault
  3
ObjectDBX Classes
 90
        0
280
     0
281
     0
  0
CLASS
  1
VISUALSTYLE
  2
AcDbVisualStyle
  3
ObjectDBX Classes
 90
     4095
280
     0
281
     0
  0
CLASS
  1
MATERIAL
  2
AcDbMaterial
  3
ObjectDBX Classes
 90
     1153
280
     0
281
     0
  0
CLASS
  1
SCALE
  2
AcDbScale
  3
ObjectDBX Classes
 90
     1153
280
     0
281
     0
  0
CLASS
  1
SUN
  2
AcDbSun
  3
SCENEOE
 90
     1153
280
     0
281
     0
  0
CLASS
  1
DICTIONARYVAR
  2
AcDbDictionaryVar
  3
ObjectDBX Classes
 90
        0
280
     0
281
     0
  0
CLASS
  1
XRECORD
  2
AcDbXrecord
  3
ObjectDBX Classes
 90
        0
280
     0
281
     0
  0
CLASS
  1
LWPOLYLINE
  2
AcDbPolyline
  3
ObjectDBX Classes
 90
        0
280
     0
281
     1
  0
CLASS
  1
HATCH
  2
AcDbHatch
  3
ObjectDBX Classes
 90
        0
280
     0
281
     1
  0
CLASS
  1
ACDBPLACEHOLDER
  2
AcDbPlaceHolder
  3
ObjectDBX Classes
 90
        0
280
     0
281
     0
  0
CLASS
  1
LAYOUT
  2
AcDbLayout
  3
ObjectDBX Classes
 90
        0
280
     0
281
     0
  0
ENDSEC
  0
SECTION
  2
TABLES
  0
TABLE
  2
VPORT
  5
8
102
{ACAD_XDICTIONARY
360
439
102
}
330
0
100
AcDbSymbolTable
 70
     1
  0
VPORT
  5
29
330
8
100
AcDbSymbolTableRecord
100
AcDbViewportTableRecord
  2
*ACTIVE
 70
     0
 10
0.0
 20
0.0
 11
1.0
 21
1.0
 12
0.0
 22
0.0
 13
0.0
 23
0.0
 14
0.5
 24
0.5
 15
0.5
 25
0.5
 16
0.0
 26
0.0
 36
1.0
 17
0.0
 27
0.0
 37
-1000.0
 40
154.6583144873902
 41
2.199770378874856
 42
50.0
 43
328.0682939492877
 44
428.9123592713518
 50
0.0
 51
0.0
 71
     0
 72
   100
 73
     1
 74
     3
 75
     0
 76
     0
 77
     0
 78
     0
  0
ENDTAB
  0
TABLE
  2
LTYPE
  5
5
330
0
100
AcDbSymbolTable
 70
     1
  0
LTYPE
  5
14
330
5
100
AcDbSymbolTableRecord
100
AcDbLinetypeTableRecord
  2
BYBLOCK
 70
     0
  3

 72
    65
 73
     0
 40
0.0
  0
LTYPE
  5
15
330
5
100
AcDbSymbolTableRecord
100
AcDbLinetypeTableRecord
  2
BYLAYER
 70
     0
  3

 72
    65
 73
     0
 40
0.0
  0
LTYPE
  5
16
330
5
100
AcDbSymbolTableRecord
100
AcDbLinetypeTableRecord
  2
CONTINUOUS
 70
     0
  3
Solid line
 72
    65
 73
     0
 40
0.0
  0
ENDTAB
  0
TABLE
  2
LAYER
  5
2
330
0
100
AcDbSymbolTable
 70
     3
  0
LAYER
  5
10
330
2
100
AcDbSymbolTableRecord
100
AcDbLayerTableRecord
  2
0
 70
     0
 62
     7
  6
CONTINUOUS
  0
LAYER
  5
6A
330
2
100
AcDbSymbolTableRecord
100
AcDbLayerTableRecord
  2
PROFILEEDGES
 70
     0
 62
     7
  6
CONTINUOUS
  0
LAYER
  5
6B
330
2
100
AcDbSymbolTableRecord
100
AcDbLayerTableRecord
  2
SECTIONCUTEDGES
 70
     0
 62
     7
  6
CONTINUOUS
  0
ENDTAB
  0
TABLE
  2
STYLE
  5
3
330
0
100
AcDbSymbolTable
 70
     1
  0
STYLE
  5
11
330
3
100
AcDbSymbolTableRecord
100
AcDbTextStyleTableRecord
  2
STANDARD
 70
     0
 40
0.0
 41
1.0
 50
0.0
 71
     0
 42
0.2
  3
txt
  4

  0
ENDTAB
  0
TABLE
  2
VIEW
  5
6
330
0
100
AcDbSymbolTable
 70
     0
  0
ENDTAB
  0
TABLE
  2
UCS
  5
7
330
0
100
AcDbSymbolTable
 70
     0
  0
ENDTAB
  0
TABLE
  2
APPID
  5
9
330
0
100
AcDbSymbolTable
 70
     1
  0
APPID
  5
12
330
9
100
AcDbSymbolTableRecord
100
AcDbRegAppTableRecord
  2
ACAD
 70
     0
  0
ENDTAB
  0
TABLE
  2
DIMSTYLE
  5
A
330
0
100
AcDbSymbolTable
 70
     1
  0
DIMSTYLE
105
27
330
A
100
AcDbSymbolTableRecord
100
AcDbDimStyleTableRecord
  2
STANDARD
 70
     0
  3

  4

  5

  6

  7

 40
1.0
 41
0.18
 42
0.0625
 43
0.38
 44
0.18
 45
0.0
 46
0.0
 47
0.0
 48
0.0
140
0.18
141
0.09
142
0.0
143
25.4
144
1.0
145
0.0
146
1.0
147
0.09
 71
     0
 72
     0
 73
     1
 74
     1
 75
     0
 76
     0
 77
     0
 78
     0
170
     0
171
     2
172
     0
173
     0
174
     0
175
     0
176
     0
177
     0
178
     0
270
     2
271
     4
272
     4
273
     2
274
     2
340
11
275
     0
280
     0
281
     0
282
     0
283
     1
284
     0
285
     0
286
     0
287
     3
288
     0
  0
ENDTAB
  0
TABLE
  2
BLOCK_RECORD
  5
1
330
0
100
AcDbSymbolTable
 70
     1
  0
BLOCK_RECORD
  5
1F
330
1
100
AcDbSymbolTableRecord
100
AcDbBlockTableRecord
  2
*MODEL_SPACE
  0
BLOCK_RECORD
  5
1B
330
1
100
AcDbSymbolTableRecord
100
AcDbBlockTableRecord
  2
*PAPER_SPACE
  0
ENDTAB
  0
ENDSEC
  0
SECTION
  2
BLOCKS
  0
BLOCK
  5
20
330
1F
100
AcDbEntity
  8
0
100
AcDbBlockBegin
  2
*MODEL_SPACE
 70
     0
 10
0.0
 20
0.0
 30
0.0
  3
*MODEL_SPACE
  1

  0
ENDBLK
  5
21
330
1F
100
AcDbEntity
  8
0
100
AcDbBlockEnd
  0
BLOCK
  5
1C
330
1B
100
AcDbEntity
 67
     1
  8
0
100
AcDbBlockBegin
  2
*PAPER_SPACE
 70
     0
 10
0.0
 20
0.0
 30
0.0
  3
*PAPER_SPACE
  1

  0
ENDBLK
  5
1D
330
1B
100
AcDbEntity
 67
     1
  8
0
100
AcDbBlockEnd
  0
ENDSEC
  0
SECTION
  2
ENTITIES
  0
LINE
  5
6C
330
1F
100
AcDbEntity
  8
0
100
AcDbLine
 10
-11.64133221205983
 20
45.71010281524213
 30
0.0
 11
-11.67968734284454
 21
45.00021850940713
 31
0.0
  0
LINE
  5
6D
330
1F
100
AcDbEntity
  8
0
100
AcDbLine
 10
-11.67968734284454
 20
45.00021850940713
 30
0.0
 11
-11.79475273519866
 21
44.33267156105032
 31
0.0
  0
LINE
  5
6E
330
1F
100
AcDbEntity
  8
0
100
AcDbLine
 10
-11.79475273519866
 20
44.33267156105032
 30
0.0
 11
-11.9865283891222
 21
43.70746197017171
 31
0.0
  0
LINE
  5
6F
330
1F
100
AcDbEntity
  8
0
100
AcDbLine
 10
-11.9865283891222
 20
43.70746197017171
 30
0.0
 11
-12.25501430461516
 21
43.12458973677131
 31
0.0
  0
LINE
  5
70
330
1F
100
AcDbEntity
  8
0
100
AcDbLine
 10
-12.25501430461516
 20
43.12458973677131
 30
0.0
 11
-12.59476111883381
 21
42.59495358653657
 31
0.0
  0
LINE
  5
71
330
1F
100
AcDbEntity
  8
0
100
AcDbLine
 10
-12.59476111883381
 20
42.59495358653657
 30
0.0
 11
-13.00031946893441
 21
42.12945224515494
 31
0.0
  0
LINE
  5
72
330
1F
100
AcDbEntity
  8
0
100
AcDbLine
 10
-13.00031946893441
 20
42.12945224515494
 30
0.0
 11
-13.47168935491697
 21
41.72808571262645
 31
0.0
  0
LINE
  5
73
330
1F
100
AcDbEntity
  8
0
100
AcDbLine
 10
-13.47168935491697
 20
41.72808571262645
 30
0.0
 11
-14.00887077678149
 21
41.39085398895106
 31
0.0
  0
LINE
  5
74
330
1F
100
AcDbEntity
  8
0
100
AcDbLine
 10
-14.00887077678149
 20
41.39085398895106
 30
0.0
 11
-14.60075541796191
 21
41.12383520960834
 31
0.0
  0
LINE
  5
75
330
1F
100
AcDbEntity
  8
0
100
AcDbLine
 10
-14.60075541796191
 20
41.12383520960834
 30
0.0
 11
-15.23623496189216
 21
40.93310751007782
 31
0.0
  0
LINE
  5
76
330
1F
100
AcDbEntity
  8
0
100
AcDbLine
 10
-15.23623496189216
 20
40.93310751007782
 30
0.0
 11
-15.91530940857224
 21
40.81867089035951
 31
0.0
  0
LINE
  5
77
330
1F
100
AcDbEntity
  8
0
100
AcDbLine
 10
-15.91530940857224
 20
40.81867089035951
 30
0.0
 11
-16.63797875800215
 21
40.7805253504534
 31
0.0
  0
LINE
  5
78
330
1F
100
AcDbEntity
  8
0
100
AcDbLine
 10
-16.63797875800215
 20
40.7805253504534
 30
0.0
 11
-20.70907198402496
 21
40.7805253504534
 31
0.0
  0
LINE
  5
79
330
1F
100
AcDbEntity
  8
0
100
AcDbLine
 10
-20.70907198402496
 20
40.7805253504534
 30
0.0
 11
-20.70907198402496
 21
50.39823158787795
 31
0.0
  0
LINE
  5
7A
330
1F
100
AcDbEntity
  8
0
100
AcDbLine
 10
-20.70907198402496
 20
50.39823158787795
 30
0.0
 11
-16.72516856350182
 21
50.39823158787795
 31
0.0
  0
LINE
  5
7B
330
1F
100
AcDbEntity
  8
0
100
AcDbLine
 10
-16.72516856350182
 20
50.39823158787795
 30
0.0
 11
-15.5336444186326
 21
50.32497957580551
 31
0.0
  0
LINE
  5
7C
330
1F
100
AcDbEntity
  8
0
100
AcDbLine
 10
-15.5336444186326
 20
50.32497957580551
 30
0.0
 11
-14.50099015974595
 21
50.10522353958821
 31
0.0
  0
LINE
  5
7D
330
1F
100
AcDbEntity
  8
0
100
AcDbLine
 10
-14.50099015974595
 20
50.10522353958821
 30
0.0
 11
-13.62720578684185
 21
49.73896347922604
 31
0.0
  0
LINE
  5
7E
330
1F
100
AcDbEntity
  8
0
100
AcDbLine
 10
-13.62720578684185
 20
49.73896347922604
 30
0.0
 11
-12.91229129992032
 21
49.226199394719
 31
0.0
  0
LINE
  5
7F
330
1F
100
AcDbEntity
  8
0
100
AcDbLine
 10
-12.91229129992032
 20
49.226199394719
 30
0.0
 11
-12.35624669898136
 21
48.56693128606708
 31
0.0
  0
LINE
  5
80
330
1F
100
AcDbEntity
  8
0
100
AcDbLine
 10
-12.35624669898136
 20
48.56693128606708
 30
0.0
 11
-11.95907198402495
 21
47.7611591532703
 31
0.0
  0
LINE
  5
81
330
1F
100
AcDbEntity
  8
0
100
AcDbLine
 10
-11.95907198402495
 20
47.7611591532703
 30
0.0
 11
-11.72076715505111
 21
46.80888299632866
 31
0.0
  0
LINE
  5
82
330
1F
100
AcDbEntity
  8
0
100
AcDbLine
 10
-11.72076715505111
 20
46.80888299632866
 30
0.0
 11
-11.64133221205983
 21
45.71010281524213
 31
0.0
  0
LINE
  5
83
330
1F
100
AcDbEntity
  8
0
100
AcDbLine
 10
-14.71980303700953
 20
45.6832751827807
 30
0.0
 11
-14.79106393573521
 21
46.35228926728774
 31
0.0
  0
LINE
  5
84
330
1F
100
AcDbEntity
  8
0
100
AcDbLine
 10
-14.79106393573521
 20
46.35228926728774
 30
0.0
 11
-15.00484663191228
 21
46.95088081658351
 31
0.0
  0
LINE
  5
85
330
1F
100
AcDbEntity
  8
0
100
AcDbLine
 10
-15.00484663191228
 20
46.95088081658351
 30
0.0
 11
-15.35109076336768
 21
47.45054547117775
 31
0.0
  0
LINE
  5
86
330
1F
100
AcDbEntity
  8
0
100
AcDbLine
 10
-15.35109076336768
 20
47.45054547117775
 30
0.0
 11
-15.81973596792838
 21
47.82277887158016
 31
0.0
  0
LINE
  5
87
330
1F
100
AcDbEntity
  8
0
100
AcDbLine
 10
-15.81973596792838
 20
47.82277887158016
 30
0.0
 11
-16.39653006584923
 21
48.05416720156004
 31
0.0
  0
LINE
  5
88
330
1F
100
AcDbEntity
  8
0
100
AcDbLine
 10
-16.39653006584923
 20
48.05416720156004
 30
0.0
 11
-17.06722087738511
 21
48.13129664488667
 31
0.0
  0
LINE
  5
89
330
1F
100
AcDbEntity
  8
0
100
AcDbLine
 10
-17.06722087738511
 20
48.13129664488667
 30
0.0
 11
-17.81168767818994
 21
48.13129664488667
 31
0.0
  0
LINE
  5
8A
330
1F
100
AcDbEntity
  8
0
100
AcDbLine
 10
-17.81168767818994
 20
48.13129664488667
 30
0.0
 11
-17.81168767818994
 21
43.04746029344469
 31
0.0
  0
LINE
  5
8B
330
1F
100
AcDbEntity
  8
0
100
AcDbLine
 10
-17.81168767818994
 20
43.04746029344469
 30
0.0
 11
-17.00015179623153
 21
43.04746029344469
 31
0.0
  0
LINE
  5
8C
330
1F
100
AcDbEntity
  8
0
100
AcDbLine
 10
-17.00015179623153
 20
43.04746029344469
 30
0.0
 11
-16.50656527711684
 21
43.09210315058755
 31
0.0
  0
LINE
  5
8D
330
1F
100
AcDbEntity
  8
0
100
AcDbLine
 10
-16.50656527711684
 20
43.09210315058755
 30
0.0
 11
-16.06537647765339
 21
43.22603172201612
 31
0.0
  0
LINE
  5
8E
330
1F
100
AcDbEntity
  8
0
100
AcDbLine
 10
-16.06537647765339
 20
43.22603172201612
 30
0.0
 11
-15.67658539784119
 21
43.4492460077304
 31
0.0
  0
LINE
  5
8F
330
1F
100
AcDbEntity
  8
0
100
AcDbLine
 10
-15.67658539784119
 20
43.4492460077304
 30
0.0
 11
-15.34019203768022
 21
43.7617460077304
 31
0.0
  0
LINE
  5
90
330
1F
100
AcDbEntity
  8
0
100
AcDbLine
 10
-15.34019203768022
 20
43.7617460077304
 30
0.0
 11
-15.06877184988679
 21
44.14969872402818
 31
0.0
  0
LINE
  5
91
330
1F
100
AcDbEntity
  8
0
100
AcDbLine
 10
-15.06877184988679
 20
44.14969872402818
 30
0.0
 11
-14.8749002871772
 21
44.59927115863583
 31
0.0
  0
LINE
  5
92
330
1F
100
AcDbEntity
  8
0
100
AcDbLine
 10
-14.8749002871772
 20
44.59927115863583
 30
0.0
 11
-14.75857734955145
 21
45.11046331155334
 31
0.0
  0
LINE
  5
93
330
1F
100
AcDbEntity
  8
0
100
AcDbLine
 10
-14.75857734955145
 20
45.11046331155334
 30
0.0
 11
-14.71980303700953
 21
45.6832751827807
 31
0.0
  0
LINE
  5
94
330
1F
100
AcDbEntity
  8
0
100
AcDbLine
 10
-7.523290629229515
 20
49.49950590041987
 30
0.0
 11
-7.633116249618516
 21
48.95289288901812
 31
0.0
  0
LINE
  5
95
330
1F
100
AcDbEntity
  8
0
100
AcDbLine
 10
-7.633116249618516
 20
48.95289288901812
 30
0.0
 11
-7.962593110785517
 21
48.52029731557748
 31
0.0
  0
LINE
  5
96
330
1F
100
AcDbEntity
  8
0
100
AcDbLine
 10
-7.962593110785517
 20
48.52029731557748
 30
0.0
 11
-8.471479764038369
 21
48.23860717473241
 31
0.0
  0
LINE
  5
97
330
1F
100
AcDbEntity
  8
0
100
AcDbLine
 10
-8.471479764038369
 20
48.23860717473241
 30
0.0
 11
-9.119534760684914
 21
48.14471046111738
 31
0.0
  0
LINE
  5
98
330
1F
100
AcDbEntity
  8
0
100
AcDbLine
 10
-9.119534760684914
 20
48.14471046111738
 30
0.0
 11
-9.754175941100742
 21
48.24196062879009
 31
0.0
  0
LINE
  5
99
330
1F
100
AcDbEntity
  8
0
100
AcDbLine
 10
-9.754175941100742
 20
48.24196062879009
 30
0.0
 11
-10.26306259435359
 21
48.5337111318082
 31
0.0
  0
LINE
  5
9A
330
1F
100
AcDbEntity
  8
0
100
AcDbLine
 10
-10.26306259435359
 20
48.5337111318082
 30
0.0
 11
-10.59756963660711
 21
48.96966015930652
 31
0.0
  0
LINE
  5
9B
330
1F
100
AcDbEntity
  8
0
100
AcDbLine
 10
-10.59756963660711
 20
48.96966015930652
 30
0.0
 11
-10.70907198402495
 21
49.49950590041987
 31
0.0
  0
LINE
  5
9C
330
1F
100
AcDbEntity
  8
0
100
AcDbLine
 10
-10.70907198402495
 20
49.49950590041987
 30
0.0
 11
-10.60092309066479
 21
50.03354345910532
 31
0.0
  0
LINE
  5
9D
330
1F
100
AcDbEntity
  8
0
100
AcDbLine
 10
-10.60092309066479
 20
50.03354345910532
 30
0.0
 11
-10.27647641058431
 21
50.4552403068585
 31
0.0
  0
LINE
  5
9E
330
1F
100
AcDbEntity
  8
0
100
AcDbLine
 10
-10.27647641058431
 20
50.4552403068585
 30
0.0
 11
-9.770943211389138
 21
50.7293851760738
 31
0.0
  0
LINE
  5
9F
330
1F
100
AcDbEntity
  8
0
100
AcDbLine
 10
-9.770943211389138
 20
50.7293851760738
 30
0.0
 11
-9.119534760684914
 21
50.82076679914555
 31
0.0
  0
LINE
  5
A0
330
1F
100
AcDbEntity
  8
0
100
AcDbLine
 10
-9.119534760684914
 20
50.82076679914555
 30
0.0
 11
-8.471479764038369
 21
50.7293851760738
 31
0.0
  0
LINE
  5
A1
330
1F
100
AcDbEntity
  8
0
100
AcDbLine
 10
-8.471479764038369
 20
50.7293851760738
 30
0.0
 11
-7.962593110785517
 21
50.4552403068585
 31
0.0
  0
LINE
  5
A2
330
1F
100
AcDbEntity
  8
0
100
AcDbLine
 10
-7.962593110785517
 20
50.4552403068585
 30
0.0
 11
-7.633116249618516
 21
50.03354345910532
 31
0.0
  0
LINE
  5
A3
330
1F
100
AcDbEntity
  8
0
100
AcDbLine
 10
-7.633116249618516
 20
50.03354345910532
 30
0.0
 11
-7.523290629229515
 21
49.49950590041987
 31
0.0
  0
LINE
  5
A4
330
1F
100
AcDbEntity
  8
0
100
AcDbLine
 10
-10.54810618925634
 20
40.7805253504534
 30
0.0
 11
-10.54810618925634
 21
47.64839926058083
 31
0.0
  0
LINE
  5
A5
330
1F
100
AcDbEntity
  8
0
100
AcDbLine
 10
-10.54810618925634
 20
47.64839926058083
 30
0.0
 11
-7.690963332113484
 21
47.64839926058083
 31
0.0
  0
LINE
  5
A6
330
1F
100
AcDbEntity
  8
0
100
AcDbLine
 10
-7.690963332113484
 20
47.64839926058083
 30
0.0
 11
-7.690963332113484
 21
40.7805253504534
 31
0.0
  0
LINE
  5
A7
330
1F
100
AcDbEntity
  8
0
100
AcDbLine
 10
-7.690963332113484
 20
40.7805253504534
 30
0.0
 11
-10.54810618925634
 21
40.7805253504534
 31
0.0
  0
LINE
  5
A8
330
1F
100
AcDbEntity
  8
0
100
AcDbLine
 10
-2.506523358941116
 20
40.7805253504534
 30
0.0
 11
-2.506523358941116
 21
41.82680301644938
 31
0.0
  0
LINE
  5
A9
330
1F
100
AcDbEntity
  8
0
100
AcDbLine
 10
-2.506523358941116
 20
41.82680301644938
 30
0.0
 11
-2.533350991402552
 21
41.82680301644938
 31
0.0
  0
LINE
  5
AA
330
1F
100
AcDbEntity
  8
0
100
AcDbLine
 10
-2.533350991402552
 20
41.82680301644938
 30
0.0
 11
-2.920674935064523
 21
41.2956997300644
 31
0.0
  0
LINE
  5
AB
330
1F
100
AcDbEntity
  8
0
100
AcDbLine
 10
-2.920674935064523
 20
41.2956997300644
 30
0.0
 11
-3.39854213828384
 21
40.91634023978942
 31
0.0
  0
LINE
  5
AC
330
1F
100
AcDbEntity
  8
0
100
AcDbLine
 10
-3.39854213828384
 20
40.91634023978942
 30
0.0
 11
-3.9669526010605
 21
40.68872454562443
 31
0.0
  0
LINE
  5
AD
330
1F
100
AcDbEntity
  8
0
100
AcDbLine
 10
-3.9669526010605
 20
40.68872454562443
 30
0.0
 11
-4.625906323394504
 21
40.61285264756943
 31
0.0
  0
LINE
  5
AE
330
1F
100
AcDbEntity
  8
0
100
AcDbLine
 10
-4.625906323394504
 20
40.61285264756943
 30
0.0
 11
-5.085748711053794
 21
40.64890227868949
 31
0.0
  0
LINE
  5
AF
330
1F
100
AcDbEntity
  8
0
100
AcDbLine
 10
-5.085748711053794
 20
40.64890227868949
 30
0.0
 11
-5.492774197304632
 21
40.75705117204965
 31
0.0
  0
LINE
  5
B0
330
1F
100
AcDbEntity
  8
0
100
AcDbLine
 10
-5.492774197304632
 20
40.75705117204965
 30
0.0
 11
-5.846982782147021
 21
40.93729932764992
 31
0.0
  0
LINE
  5
B1
330
1F
100
AcDbEntity
  8
0
100
AcDbLine
 10
-5.846982782147021
 20
40.93729932764992
 30
0.0
 11
-6.148374465580956
 21
41.18964674549029
 31
0.0
  0
LINE
  5
B2
330
1F
100
AcDbEntity
  8
0
100
AcDbLine
 10
-6.148374465580956
 20
41.18964674549029
 30
0.0
 11
-6.388984794219452
 21
41.5023563363689
 31
0.0
  0
LINE
  5
B3
330
1F
100
AcDbEntity
  8
0
100
AcDbLine
 10
-6.388984794219452
 20
41.5023563363689
 30
0.0
 11
-6.560849314675522
 21
41.86369101108386
 31
0.0
  0
LINE
  5
B4
330
1F
100
AcDbEntity
  8
0
100
AcDbLine
 10
-6.560849314675522
 20
41.86369101108386
 30
0.0
 11
-6.663968026949164
 21
42.27365076963516
 31
0.0
  0
LINE
  5
B5
330
1F
100
AcDbEntity
  8
0
100
AcDbLine
 10
-6.663968026949164
 20
42.27365076963516
 30
0.0
 11
-6.698340931040379
 21
42.73223561202282
 31
0.0
  0
LINE
  5
B6
330
1F
100
AcDbEntity
  8
0
100
AcDbLine
 10
-6.698340931040379
 20
42.73223561202282
 30
0.0
 11
-6.659461823059158
 21
43.21198913314959
 31
0.0
  0
LINE
  5
B7
330
1F
100
AcDbEntity
  8
0
100
AcDbLine
 10
-6.659461823059158
 20
43.21198913314959
 30
0.0
 11
-6.542824499115495
 21
43.63850657111068
 31
0.0
  0
LINE
  5
B8
330
1F
100
AcDbEntity
  8
0
100
AcDbLine
 10
-6.542824499115495
 20
43.63850657111068
 30
0.0
 11
-6.348428959209391
 21
44.01178792590612
 31
0.0
  0
LINE
  5
B9
330
1F
100
AcDbEntity
  8
0
100
AcDbLine
 10
-6.348428959209391
 20
44.01178792590612
 30
0.0
 11
-6.076275203340847
 21
44.3318331975359
 31
0.0
  0
LINE
  5
BA
330
1F
100
AcDbEntity
  8
0
100
AcDbLine
 10
-6.076275203340847
 20
44.3318331975359
 30
0.0
 11
-5.726363231509863
 21
44.59864238600002
 31
0.0
  0
LINE
  5
BB
330
1F
100
AcDbEntity
  8
0
100
AcDbLine
 10
-5.726363231509863
 20
44.59864238600002
 30
0.0
 11
-5.298693043716436
 21
44.81221549129847
 31
0.0
  0
LINE
  5
BC
330
1F
100
AcDbEntity
  8
0
100
AcDbLine
 10
-5.298693043716436
 20
44.81221549129847
 30
0.0
 11
-4.210078020242257
 21
45.07965345239841
 31
0.0
  0
LINE
  5
BD
330
1F
100
AcDbEntity
  8
0
100
AcDbLine
 10
-4.210078020242257
 20
45.07965345239841
 30
0.0
 11
-2.506523358941116
 21
45.30098142020525
 31
0.0
  0
LINE
  5
BE
330
1F
100
AcDbEntity
  8
0
100
AcDbLine
 10
-2.506523358941116
 20
45.30098142020525
 30
0.0
 11
-2.581976075238904
 21
45.60614573945408
 31
0.0
  0
LINE
  5
BF
330
1F
100
AcDbEntity
  8
0
100
AcDbLine
 10
-2.581976075238904
 20
45.60614573945408
 30
0.0
 11
-2.808334224132265
 21
45.85094788566467
 31
0.0
  0
LINE
  5
C0
330
1F
100
AcDbEntity
  8
0
100
AcDbLine
 10
-2.808334224132265
 20
45.85094788566467
 30
0.0
 11
-3.162123627217443
 21
46.01191368043329
 31
0.0
  0
LINE
  5
C1
330
1F
100
AcDbEntity
  8
0
100
AcDbLine
 10
-3.162123627217443
 20
46.01191368043329
 30
0.0
 11
-3.619870106090682
 21
46.06556894535615
 31
0.0
  0
LINE
  5
C2
330
1F
100
AcDbEntity
  8
0
100
AcDbLine
 10
-3.619870106090682
 20
46.06556894535615
 30
0.0
 11
-4.204628657398528
 21
46.02448913314958
 31
0.0
  0
LINE
  5
C3
330
1F
100
AcDbEntity
  8
0
100
AcDbLine
 10
-4.204628657398528
 20
46.02448913314958
 30
0.0
 11
-4.805316115480349
 21
45.90124969652986
 31
0.0
  0
LINE
  5
C4
330
1F
100
AcDbEntity
  8
0
100
AcDbLine
 10
-4.805316115480349
 20
45.90124969652986
 30
0.0
 11
-6.054477751965934
 21
45.40829195005099
 31
0.0
  0
LINE
  5
C5
330
1F
100
AcDbEntity
  8
0
100
AcDbLine
 10
-6.054477751965934
 20
45.40829195005099
 30
0.0
 11
-6.054477751965934
 21
47.26610549800538
 31
0.0
  0
LINE
  5
C6
330
1F
100
AcDbEntity
  8
0
100
AcDbLine
 10
-6.054477751965934
 20
47.26610549800538
 30
0.0
 11
-5.427381843179884
 21
47.48575673878339
 31
0.0
  0
LINE
  5
C7
330
1F
100
AcDbEntity
  8
0
100
AcDbLine
 10
-5.427381843179884
 20
47.48575673878339
 30
0.0
 11
-4.659440863971299
 21
47.66181307681155
 31
0.0
  0
LINE
  5
C8
330
1F
100
AcDbEntity
  8
0
100
AcDbLine
 10
-4.659440863971299
 20
47.66181307681155
 30
0.0
 11
-3.224162527284511
 21
47.81607196346481
 31
0.0
  0
LINE
  5
C9
330
1F
100
AcDbEntity
  8
0
100
AcDbLine
 10
-3.224162527284511
 20
47.81607196346481
 30
0.0
 11
-2.40906360038981
 21
47.7693331975359
 31
0.0
  0
LINE
  5
CA
330
1F
100
AcDbEntity
  8
0
100
AcDbLine
 10
-2.40906360038981
 20
47.7693331975359
 30
0.0
 11
-1.714269837814357
 21
47.62911689974918
 31
0.0
  0
LINE
  5
CB
330
1F
100
AcDbEntity
  8
0
100
AcDbLine
 10
-1.714269837814357
 20
47.62911689974918
 30
0.0
 11
-1.139781239558152
 21
47.39542307010464
 31
0.0
  0
LINE
  5
CC
330
1F
100
AcDbEntity
  8
0
100
AcDbLine
 10
-1.139781239558152
 20
47.39542307010464
 30
0.0
 11
-0.6855978056211978
 21
47.0682517086023
 31
0.0
  0
LINE
  5
CD
330
1F
100
AcDbEntity
  8
0
100
AcDbLine
 10
-0.6855978056211978
 20
47.0682517086023
 30
0.0
 11
-0.3408208103160335
 21
46.63167390846816
 31
0.0
  0
LINE
  5
CE
330
1F
100
AcDbEntity
  8
0
100
AcDbLine
 10
-0.3408208103160335
 20
46.63167390846816
 30
0.0
 11
-0.094551527955201
 21
46.06976076292825
 31
0.0
  0
LINE
  5
CF
330
1F
100
AcDbEntity
  8
0
100
AcDbLine
 10
-0.094551527955201
 20
46.06976076292825
 30
0.0
 11
0.0532100414612968
 21
45.38251227198258
 31
0.0
  0
LINE
  5
D0
330
1F
100
AcDbEntity
  8
0
100
AcDbLine
 10
0.0532100414612968
 20
45.38251227198258
 30
0.0
 11
0.1024638979334628
 21
44.56992843563113
 31
0.0
  0
LINE
  5
D1
330
1F
100
AcDbEntity
  8
0
100
AcDbLine
 10
0.1024638979334628
 20
44.56992843563113
 30
0.0
 11
0.1024638979334628
 21
40.7805253504534
 31
0.0
  0
LINE
  5
D2
330
1F
100
AcDbEntity
  8
0
100
AcDbLine
 10
0.1024638979334628
 20
40.7805253504534
 30
0.0
 11
-2.506523358941116
 21
40.7805253504534
 31
0.0
  0
LINE
  5
D3
330
1F
100
AcDbEntity
  8
0
100
AcDbLine
 10
-4.19666420401154
 20
43.11452937459827
 30
0.0
 11
-4.15223093774729
 21
42.8579901391858
 31
0.0
  0
LINE
  5
D4
330
1F
100
AcDbEntity
  8
0
100
AcDbLine
 10
-4.15223093774729
 20
42.8579901391858
 30
0.0
 11
-4.018931138954532
 21
42.65175271463852
 31
0.0
  0
LINE
  5
D5
330
1F
100
AcDbEntity
  8
0
100
AcDbLine
 10
-4.018931138954532
 20
42.65175271463852
 30
0.0
 11
-3.803471715748629
 21
42.51593782530249
 31
0.0
  0
LINE
  5
D6
330
1F
100
AcDbEntity
  8
0
100
AcDbLine
 10
-3.803471715748629
 20
42.51593782530249
 30
0.0
 11
-3.512559576244941
 21
42.47066619552383
 31
0.0
  0
LINE
  5
D7
330
1F
100
AcDbEntity
  8
0
100
AcDbLine
 10
-3.512559576244941
 20
42.47066619552383
 30
0.0
 11
-3.105953271751313
 21
42.55450254696581
 31
0.0
  0
LINE
  5
D8
330
1F
100
AcDbEntity
  8
0
100
AcDbLine
 10
-3.105953271751313
 20
42.55450254696581
 30
0.0
 11
-2.784860045728509
 21
42.80601160129176
 31
0.0
  0
LINE
  5
D9
330
1F
100
AcDbEntity
  8
0
100
AcDbLine
 10
-2.784860045728509
 20
42.80601160129176
 30
0.0
 11
-2.576107530637966
 21
43.18830536386722
 31
0.0
  0
LINE
  5
DA
330
1F
100
AcDbEntity
  8
0
100
AcDbLine
 10
-2.576107530637966
 20
43.18830536386722
 30
0.0
 11
-2.506523358941116
 21
43.6644958400577
 31
0.0
  0
LINE
  5
DB
330
1F
100
AcDbEntity
  8
0
100
AcDbLine
 10
-2.506523358941116
 20
43.6644958400577
 30
0.0
 11
-2.506523358941116
 21
43.92606525655669
 31
0.0
  0
LINE
  5
DC
330
1F
100
AcDbEntity
  8
0
100
AcDbLine
 10
-2.506523358941116
 20
43.92606525655669
 30
0.0
 11
-3.472318127552788
 21
43.79192709424952
 31
0.0
  0
LINE
  5
DD
330
1F
100
AcDbEntity
  8
0
100
AcDbLine
 10
-3.472318127552788
 20
43.79192709424952
 30
0.0
 11
-3.789219536003494
 21
43.70431810699264
 31
0.0
  0
LINE
  5
DE
330
1F
100
AcDbEntity
  8
0
100
AcDbLine
 10
-3.789219536003494
 20
43.70431810699264
 30
0.0
 11
-4.015577684896852
 21
43.56221549129847
 31
0.0
  0
LINE
  5
DF
330
1F
100
AcDbEntity
  8
0
100
AcDbLine
 10
-4.015577684896852
 20
43.56221549129847
 30
0.0
 11
-4.151392574232871
 21
43.36561924716702
 31
0.0
  0
LINE
  5
E0
330
1F
100
AcDbEntity
  8
0
100
AcDbLine
 10
-4.151392574232871
 20
43.36561924716702
 30
0.0
 11
-4.19666420401154
 21
43.11452937459827
 31
0.0
  0
LINE
  5
E1
330
1F
100
AcDbEntity
  8
0
100
AcDbLine
 10
10.29696423327887
 20
40.7805253504534
 30
0.0
 11
10.29696423327887
 21
44.7376011385151
 31
0.0
  0
LINE
  5
E2
330
1F
100
AcDbEntity
  8
0
100
AcDbLine
 10
10.29696423327887
 20
44.7376011385151
 30
0.0
 11
10.25253096701462
 21
45.17103507547017
 31
0.0
  0
LINE
  5
E3
330
1F
100
AcDbEntity
  8
0
100
AcDbLine
 10
10.25253096701462
 20
45.17103507547017
 30
0.0
 11
10.11923116822186
 21
45.47871448526226
 31
0.0
  0
LINE
  5
E4
330
1F
100
AcDbEntity
  8
0
100
AcDbLine
 10
10.11923116822186
 20
45.47871448526226
 30
0.0
 11
9.885327747698721
 21
45.6623160949202
 31
0.0
  0
LINE
  5
E5
330
1F
100
AcDbEntity
  8
0
100
AcDbLine
 10
9.885327747698721
 20
45.6623160949202
 30
0.0
 11
9.539083616243325
 21
45.72351663147285
 31
0.0
  0
LINE
  5
E6
330
1F
100
AcDbEntity
  8
0
100
AcDbLine
 10
9.539083616243325
 20
45.72351663147285
 30
0.0
 11
9.186970940186987
 21
45.64890227868949
 31
0.0
  0
LINE
  5
E7
330
1F
100
AcDbEntity
  8
0
100
AcDbLine
 10
9.186970940186987
 20
45.64890227868949
 30
0.0
 11
8.922048069630312
 21
45.42505922033939
 31
0.0
  0
LINE
  5
E8
330
1F
100
AcDbEntity
  8
0
100
AcDbLine
 10
8.922048069630312
 20
45.42505922033939
 30
0.0
 11
8.756052093775182
 21
45.06875472671095
 31
0.0
  0
LINE
  5
E9
330
1F
100
AcDbEntity
  8
0
100
AcDbLine
 10
8.756052093775182
 20
45.06875472671095
 30
0.0
 11
8.700720101823473
 21
44.59675606809257
 31
0.0
  0
LINE
  5
EA
330
1F
100
AcDbEntity
  8
0
100
AcDbLine
 10
8.700720101823473
 20
44.59675606809257
 30
0.0
 11
8.700720101823473
 21
40.7805253504534
 31
0.0
  0
LINE
  5
EB
330
1F
100
AcDbEntity
  8
0
100
AcDbLine
 10
8.700720101823473
 20
40.7805253504534
 30
0.0
 11
5.843577244680611
 21
40.7805253504534
 31
0.0
  0
LINE
  5
EC
330
1F
100
AcDbEntity
  8
0
100
AcDbLine
 10
5.843577244680611
 20
40.7805253504534
 30
0.0
 11
5.843577244680611
 21
44.67053205736152
 31
0.0
  0
LINE
  5
ED
330
1F
100
AcDbEntity
  8
0
100
AcDbLine
 10
5.843577244680611
 20
44.67053205736152
 30
0.0
 11
5.798724796659145
 21
45.13121280853523
 31
0.0
  0
LINE
  5
EE
330
1F
100
AcDbEntity
  8
0
100
AcDbLine
 10
5.798724796659145
 20
45.13121280853523
 30
0.0
 11
5.664167452594764
 21
45.46027048794502
 31
0.0
  0
LINE
  5
EF
330
1F
100
AcDbEntity
  8
0
100
AcDbLine
 10
5.664167452594764
 20
45.46027048794502
 30
0.0
 11
5.439905212487453
 21
45.6577050955909
 31
0.0
  0
LINE
  5
F0
330
1F
100
AcDbEntity
  8
0
100
AcDbLine
 10
5.439905212487453
 20
45.6577050955909
 30
0.0
 11
5.125938076337221
 21
45.72351663147285
 31
0.0
  0
LINE
  5
F1
330
1F
100
AcDbEntity
  8
0
100
AcDbLine
 10
5.125938076337221
 20
45.72351663147285
 30
0.0
 11
4.74364431376177
 21
45.64722555166065
 31
0.0
  0
LINE
  5
F2
330
1F
100
AcDbEntity
  8
0
100
AcDbLine
 10
4.74364431376177
 20
45.64722555166065
 30
0.0
 11
4.468661081032058
 21
45.41835231222403
 31
0.0
  0
LINE
  5
F3
330
1F
100
AcDbEntity
  8
0
100
AcDbLine
 10
4.468661081032058
 20
45.41835231222403
 30
0.0
 11
4.302665105176925
 21
45.04695727533603
 31
0.0
  0
LINE
  5
F4
330
1F
100
AcDbEntity
  8
0
100
AcDbLine
 10
4.302665105176925
 20
45.04695727533603
 30
0.0
 11
4.247333113225216
 21
44.5431008031697
 31
0.0
  0
LINE
  5
F5
330
1F
100
AcDbEntity
  8
0
100
AcDbLine
 10
4.247333113225216
 20
44.5431008031697
 30
0.0
 11
4.247333113225216
 21
40.7805253504534
 31
0.0
  0
LINE
  5
F6
330
1F
100
AcDbEntity
  8
0
100
AcDbLine
 10
4.247333113225216
 20
40.7805253504534
 30
0.0
 11
1.390190256082357
 21
40.7805253504534
 31
0.0
  0
LINE
  5
F7
330
1F
100
AcDbEntity
  8
0
100
AcDbLine
 10
1.390190256082357
 20
40.7805253504534
 30
0.0
 11
1.390190256082357
 21
47.64839926058083
 31
0.0
  0
LINE
  5
F8
330
1F
100
AcDbEntity
  8
0
100
AcDbLine
 10
1.390190256082357
 20
47.64839926058083
 30
0.0
 11
4.247333113225216
 21
47.64839926058083
 31
0.0
  0
LINE
  5
F9
330
1F
100
AcDbEntity
  8
0
100
AcDbLine
 10
4.247333113225216
 20
47.64839926058083
 30
0.0
 11
4.247333113225216
 21
46.56188014589271
 31
0.0
  0
LINE
  5
FA
330
1F
100
AcDbEntity
  8
0
100
AcDbLine
 10
4.247333113225216
 20
46.56188014589271
 30
0.0
 11
4.274160745686649
 21
46.56188014589271
 31
0.0
  0
LINE
  5
FB
330
1F
100
AcDbEntity
  8
0
100
AcDbLine
 10
4.274160745686649
 20
46.56188014589271
 30
0.0
 11
4.787239216511597
 21
47.1487346059866
 31
0.0
  0
LINE
  5
FC
330
1F
100
AcDbEntity
  8
0
100
AcDbLine
 10
4.787239216511597
 20
47.1487346059866
 30
0.0
 11
5.582007828181617
 21
47.63163199029244
 31
0.0
  0
LINE
  5
FD
330
1F
100
AcDbEntity
  8
0
100
AcDbLine
 10
5.582007828181617
 20
47.63163199029244
 30
0.0
 11
6.043107761112541
 21
47.76996197017171
 31
0.0
  0
LINE
  5
FE
330
1F
100
AcDbEntity
  8
0
100
AcDbLine
 10
6.043107761112541
 20
47.76996197017171
 30
0.0
 11
6.541095688677933
 21
47.81607196346481
 31
0.0
  0
LINE
  5
FF
330
1F
100
AcDbEntity
  8
0
100
AcDbLine
 10
6.541095688677933
 20
47.81607196346481
 30
0.0
 11
7.214301590757072
 21
47.7439727012247
 31
0.0
  0
LINE
  5
100
330
1F
100
AcDbEntity
  8
0
100
AcDbLine
 10
7.214301590757072
 20
47.7439727012247
 30
0.0
 11
7.771813327846275
 21
47.52767491450437
 31
0.0
  0
LINE
  5
101
330
1F
100
AcDbEntity
  8
0
100
AcDbLine
 10
7.771813327846275
 20
47.52767491450437
 30
0.0
 11
8.230398170233933
 21
47.15544151410196
 31
0.0
  0
LINE
  5
102
330
1F
100
AcDbEntity
  8
0
100
AcDbLine
 10
8.230398170233933
 20
47.15544151410196
 30
0.0
 11
8.606823388208447
 21
46.61553541081557
 31
0.0
  0
LINE
  5
103
330
1F
100
AcDbEntity
  8
0
100
AcDbLine
 10
8.606823388208447
 20
46.61553541081557
 30
0.0
 11
9.029358599476051
 21
47.12609879109726
 31
0.0
  0
LINE
  5
104
330
1F
100
AcDbEntity
  8
0
100
AcDbLine
 10
9.029358599476051
 20
47.12609879109726
 30
0.0
 11
9.572618156820118
 21
47.50420073610062
 31
0.0
  0
LINE
  5
105
330
1F
100
AcDbEntity
  8
0
100
AcDbLine
 10
9.572618156820118
 20
47.50420073610062
 30
0.0
 11
10.20977442777921
 21
47.73810415662376
 31
0.0
  0
LINE
  5
106
330
1F
100
AcDbEntity
  8
0
100
AcDbLine
 10
10.20977442777921
 20
47.73810415662376
 30
0.0
 11
10.91399977989188
 21
47.81607196346481
 31
0.0
  0
LINE
  5
107
330
1F
100
AcDbEntity
  8
0
100
AcDbLine
 10
10.91399977989188
 20
47.81607196346481
 30
0.0
 11
11.42246725138752
 21
47.77205787895777
 31
0.0
  0
LINE
  5
108
330
1F
100
AcDbEntity
  8
0
100
AcDbLine
 10
11.42246725138752
 20
47.77205787895777
 30
0.0
 11
11.86805745930167
 21
47.64001562543663
 31
0.0
  0
LINE
  5
109
330
1F
100
AcDbEntity
  8
0
100
AcDbLine
 10
11.86805745930167
 20
47.64001562543663
 30
0.0
 11
12.25077040363433
 21
47.41994520290142
 31
0.0
  0
LINE
  5
10A
330
1F
100
AcDbEntity
  8
0
100
AcDbLine
 10
12.25077040363433
 20
47.41994520290142
 30
0.0
 11
12.57060608438551
 21
47.11184661135213
 31
0.0
  0
LINE
  5
10B
330
1F
100
AcDbEntity
  8
0
100
AcDbLine
 10
12.57060608438551
 20
47.11184661135213
 30
0.0
 11
12.82295350222589
 21
46.72075003187527
 31
0.0
  0
LINE
  5
10C
330
1F
100
AcDbEntity
  8
0
100
AcDbLine
 10
12.82295350222589
 20
46.72075003187527
 30
0.0
 11
13.00320165782616
 21
46.25168564555737
 31
0.0
  0
LINE
  5
10D
330
1F
100
AcDbEntity
  8
0
100
AcDbLine
 10
13.00320165782616
 20
46.25168564555737
 30
0.0
 11
13.11135055118632
 21
45.70465345239841
 31
0.0
  0
LINE
  5
10E
330
1F
100
AcDbEntity
  8
0
100
AcDbLine
 10
13.11135055118632
 20
45.70465345239841
 30
0.0
 11
13.14740018230637
 21
45.07965345239841
 31
0.0
  0
LINE
  5
10F
330
1F
100
AcDbEntity
  8
0
100
AcDbLine
 10
13.14740018230637
 20
45.07965345239841
 30
0.0
 11
13.14740018230637
 21
40.7805253504534
 31
0.0
  0
LINE
  5
110
330
1F
100
AcDbEntity
  8
0
100
AcDbLine
 10
13.14740018230637
 20
40.7805253504534
 30
0.0
 11
10.29696423327887
 21
40.7805253504534
 31
0.0
  0
LINE
  5
111
330
1F
100
AcDbEntity
  8
0
100
AcDbLine
 10
22.08100179196432
 20
44.33518665159358
 30
0.0
 11
22.01539984696096
 21
43.51317122570491
 31
0.0
  0
LINE
  5
112
330
1F
100
AcDbEntity
  8
0
100
AcDbLine
 10
22.01539984696096
 20
43.51317122570491
 30
0.0
 11
21.8185940119509
 21
42.78421414991685
 31
0.0
  0
LINE
  5
113
330
1F
100
AcDbEntity
  8
0
100
AcDbLine
 10
21.8185940119509
 20
42.78421414991685
 30
0.0
 11
21.49058428693413
 21
42.14831542422939
 31
0.0
  0
LINE
  5
114
330
1F
100
AcDbEntity
  8
0
100
AcDbLine
 10
21.49058428693413
 20
42.14831542422939
 30
0.0
 11
21.03137067191066
 21
41.60547504864254
 31
0.0
  0
LINE
  5
115
330
1F
100
AcDbEntity
  8
0
100
AcDbLine
 10
21.03137067191066
 20
41.60547504864254
 30
0.0
 11
20.45436698311119
 21
41.17120274817306
 31
0.0
  0
LINE
  5
116
330
1F
100
AcDbEntity
  8
0
100
AcDbLine
 10
20.45436698311119
 20
41.17120274817306
 30
0.0
 11
19.77298703676646
 21
40.86100824783771
 31
0.0
  0
LINE
  5
117
330
1F
100
AcDbEntity
  8
0
100
AcDbLine
 10
19.77298703676646
 20
40.86100824783771
 30
0.0
 11
18.98723083287645
 21
40.6748915476365
 31
0.0
  0
LINE
  5
118
330
1F
100
AcDbEntity
  8
0
100
AcDbLine
 10
18.98723083287645
 20
40.6748915476365
 30
0.0
 11
18.09709837144118
 21
40.61285264756943
 31
0.0
  0
LINE
  5
119
330
1F
100
AcDbEntity
  8
0
100
AcDbLine
 10
18.09709837144118
 20
40.61285264756943
 30
0.0
 11
17.21325363636405
 21
40.67342441148627
 31
0.0
  0
LINE
  5
11A
330
1F
100
AcDbEntity
  8
0
100
AcDbLine
 10
17.21325363636405
 20
40.67342441148627
 30
0.0
 11
16.43294679531777
 21
40.85513970323677
 31
0.0
  0
LINE
  5
11B
330
1F
100
AcDbEntity
  8
0
100
AcDbLine
 10
16.43294679531777
 20
40.85513970323677
 30
0.0
 11
15.75617784830234
 21
41.15799852282095
 31
0.0
  0
LINE
  5
11C
330
1F
100
AcDbEntity
  8
0
100
AcDbLine
 10
15.75617784830234
 20
41.15799852282095
 30
0.0
 11
15.18294679531777
 21
41.58200087023878
 31
0.0
  0
LINE
  5
11D
330
1F
100
AcDbEntity
  8
0
100
AcDbLine
 10
15.18294679531777
 20
41.58200087023878
 30
0.0
 11
14.72666745259476
 21
42.11247538398795
 31
0.0
  0
LINE
  5
11E
330
1F
100
AcDbEntity
  8
0
100
AcDbLine
 10
14.72666745259476
 20
42.11247538398795
 30
0.0
 11
14.40075363636405
 21
42.73475070256608
 31
0.0
  0
LINE
  5
11F
330
1F
100
AcDbEntity
  8
0
100
AcDbLine
 10
14.40075363636405
 20
42.73475070256608
 30
0.0
 11
14.20520534662561
 21
43.44882682597319
 31
0.0
  0
LINE
  5
120
330
1F
100
AcDbEntity
  8
0
100
AcDbLine
 10
14.20520534662561
 20
43.44882682597319
 30
0.0
 11
14.14002258337947
 21
44.25470375420927
 31
0.0
  0
LINE
  5
121
330
1F
100
AcDbEntity
  8
0
100
AcDbLine
 10
14.14002258337947
 20
44.25470375420927
 30
0.0
 11
14.26242365648477
 21
45.27583051477266
 31
0.0
  0
LINE
  5
122
330
1F
100
AcDbEntity
  8
0
100
AcDbLine
 10
14.26242365648477
 20
45.27583051477266
 30
0.0
 11
14.62962687580067
 21
46.15275875085582
 31
0.0
  0
LINE
  5
123
330
1F
100
AcDbEntity
  8
0
100
AcDbLine
 10
14.62962687580067
 20
46.15275875085582
 30
0.0
 11
15.22318824400992
 21
46.86369101108385
 31
0.0
  0
LINE
  5
124
330
1F
100
AcDbEntity
  8
0
100
AcDbLine
 10
15.22318824400992
 20
46.86369101108385
 30
0.0
 11
16.0246637637953
 21
47.38682984408184
 31
0.0
  0
LINE
  5
125
330
1F
100
AcDbEntity
  8
0
100
AcDbLine
 10
16.0246637637953
 20
47.38682984408184
 30
0.0
 11
16.99884216755117
 21
47.70876143361907
 31
0.0
  0
LINE
  5
126
330
1F
100
AcDbEntity
  8
0
100
AcDbLine
 10
16.99884216755117
 20
47.70876143361907
 30
0.0
 11
18.11051218767189
 21
47.81607196346481
 31
0.0
  0
LINE
  5
127
330
1F
100
AcDbEntity
  8
0
100
AcDbLine
 10
18.11051218767189
 20
47.81607196346481
 30
0.0
 11
19.24984820376847
 21
47.70373125253255
 31
0.0
  0
LINE
  5
128
330
1F
100
AcDbEntity
  8
0
100
AcDbLine
 10
19.24984820376847
 20
47.70373125253255
 30
0.0
 11
20.2265416980676
 21
47.36670911973577
 31
0.0
  0
LINE
  5
129
330
1F
100
AcDbEntity
  8
0
100
AcDbLine
 10
20.2265416980676
 20
47.36670911973577
 30
0.0
 11
21.01795685567994
 21
46.83015647050706
 31
0.0
  0
LINE
  5
12A
330
1F
100
AcDbEntity
  8
0
100
AcDbLine
 10
21.01795685567994
 20
46.83015647050706
 30
0.0
 11
21.60145786171616
 21
46.11922421027902
 31
0.0
  0
LINE
  5
12B
330
1F
100
AcDbEntity
  8
0
100
AcDbLine
 10
21.60145786171616
 20
46.11922421027902
 30
0.0
 11
21.96111580940228
 21
45.27415378774381
 31
0.0
  0
LINE
  5
12C
330
1F
100
AcDbEntity
  8
0
100
AcDbLine
 10
21.96111580940228
 20
45.27415378774381
 30
0.0
 11
22.08100179196432
 21
44.33518665159358
 31
0.0
  0
LINE
  5
12D
330
1F
100
AcDbEntity
  8
0
100
AcDbLine
 10
19.1836174861293
 20
44.32177283536286
 30
0.0
 11
19.11654840497571
 21
44.93503574616098
 31
0.0
  0
LINE
  5
12E
330
1F
100
AcDbEntity
  8
0
100
AcDbLine
 10
19.11654840497571
 20
44.93503574616098
 30
0.0
 11
18.91534116151495
 21
45.37308068244536
 31
0.0
  0
LINE
  5
12F
330
1F
100
AcDbEntity
  8
0
100
AcDbLine
 10
18.91534116151495
 20
45.37308068244536
 30
0.0
 11
18.57999575574701
 21
45.63590764421598
 31
0.0
  0
LINE
  5
130
330
1F
100
AcDbEntity
  8
0
100
AcDbLine
 10
18.57999575574701
 20
45.63590764421598
 30
0.0
 11
18.11051218767189
 21
45.72351663147285
 31
0.0
  0
LINE
  5
131
330
1F
100
AcDbEntity
  8
0
100
AcDbLine
 10
18.11051218767189
 20
45.72351663147285
 30
0.0
 11
17.64102861959678
 21
45.63171582664388
 31
0.0
  0
LINE
  5
132
330
1F
100
AcDbEntity
  8
0
100
AcDbLine
 10
17.64102861959678
 20
45.63171582664388
 30
0.0
 11
17.30568321382883
 21
45.35631341215696
 31
0.0
  0
LINE
  5
133
330
1F
100
AcDbEntity
  8
0
100
AcDbLine
 10
17.30568321382883
 20
45.35631341215696
 30
0.0
 11
17.10447597036807
 21
44.89730938801209
 31
0.0
  0
LINE
  5
134
330
1F
100
AcDbEntity
  8
0
100
AcDbLine
 10
17.10447597036807
 20
44.89730938801209
 30
0.0
 11
17.03740688921448
 21
44.25470375420927
 31
0.0
  0
LINE
  5
135
330
1F
100
AcDbEntity
  8
0
100
AcDbLine
 10
17.03740688921448
 20
44.25470375420927
 30
0.0
 11
17.10531433388249
 21
43.57688685280083
 31
0.0
  0
LINE
  5
136
330
1F
100
AcDbEntity
  8
0
100
AcDbLine
 10
17.10531433388249
 20
43.57688685280083
 30
0.0
 11
17.30903666788652
 21
43.09273192322335
 31
0.0
  0
LINE
  5
137
330
1F
100
AcDbEntity
  8
0
100
AcDbLine
 10
17.30903666788652
 20
43.09273192322335
 30
0.0
 11
17.64857389122655
 21
42.80223896547687
 31
0.0
  0
LINE
  5
138
330
1F
100
AcDbEntity
  8
0
100
AcDbLine
 10
17.64857389122655
 20
42.80223896547687
 30
0.0
 11
18.12392600390261
 21
42.70540797956139
 31
0.0
  0
LINE
  5
139
330
1F
100
AcDbEntity
  8
0
100
AcDbLine
 10
18.12392600390261
 20
42.70540797956139
 30
0.0
 11
18.58754102737679
 21
42.80643078304897
 31
0.0
  0
LINE
  5
13A
330
1F
100
AcDbEntity
  8
0
100
AcDbLine
 10
18.58754102737679
 20
42.80643078304897
 30
0.0
 11
18.91869461557263
 21
43.10949919351175
 31
0.0
  0
LINE
  5
13B
330
1F
100
AcDbEntity
  8
0
100
AcDbLine
 10
18.91869461557263
 20
43.10949919351175
 30
0.0
 11
19.11738676849014
 21
43.61461321094971
 31
0.0
  0
LINE
  5
13C
330
1F
100
AcDbEntity
  8
0
100
AcDbLine
 10
19.11738676849014
 20
43.61461321094971
 30
0.0
 11
19.1836174861293
 21
44.32177283536286
 31
0.0
  0
LINE
  5
13D
330
1F
100
AcDbEntity
  8
0
100
AcDbLine
 10
27.60078717090462
 20
40.7805253504534
 30
0.0
 11
27.60078717090462
 21
44.52968698693898
 31
0.0
  0
LINE
  5
13E
330
1F
100
AcDbEntity
  8
0
100
AcDbLine
 10
27.60078717090462
 20
44.52968698693898
 30
0.0
 11
27.55300045058269
 21
45.07713836185515
 31
0.0
  0
LINE
  5
13F
330
1F
100
AcDbEntity
  8
0
100
AcDbLine
 10
27.55300045058269
 20
45.07713836185515
 30
0.0
 11
27.4096402896169
 21
45.44517994468546
 31
0.0
  0
LINE
  5
140
330
1F
100
AcDbEntity
  8
0
100
AcDbLine
 10
27.4096402896169
 20
45.44517994468546
 30
0.0
 11
27.15896959880536
 21
45.65393245977601
 31
0.0
  0
LINE
  5
141
330
1F
100
AcDbEntity
  8
0
100
AcDbLine
 10
27.15896959880536
 20
45.65393245977601
 30
0.0
 11
26.7892512889462
 21
45.72351663147285
 31
0.0
  0
LINE
  5
142
330
1F
100
AcDbEntity
  8
0
100
AcDbLine
 10
26.7892512889462
 20
45.72351663147285
 30
0.0
 11
26.46061279129363
 21
45.65141736923275
 31
0.0
  0
LINE
  5
143
330
1F
100
AcDbEntity
  8
0
100
AcDbLine
 10
26.46061279129363
 20
45.65141736923275
 30
0.0
 11
26.21245719102534
 21
45.43511958251243
 31
0.0
  0
LINE
  5
144
330
1F
100
AcDbEntity
  8
0
100
AcDbLine
 10
26.21245719102534
 20
45.43511958251243
 30
0.0
 11
26.05652157734326
 21
45.10648108485984
 31
0.0
  0
LINE
  5
145
330
1F
100
AcDbEntity
  8
0
100
AcDbLine
 10
26.05652157734326
 20
45.10648108485984
 30
0.0
 11
26.00454303944922
 21
44.69735968982295
 31
0.0
  0
LINE
  5
146
330
1F
100
AcDbEntity
  8
0
100
AcDbLine
 10
26.00454303944922
 20
44.69735968982295
 30
0.0
 11
26.00454303944922
 21
40.7805253504534
 31
0.0
  0
LINE
  5
147
330
1F
100
AcDbEntity
  8
0
100
AcDbLine
 10
26.00454303944922
 20
40.7805253504534
 30
0.0
 11
23.14740018230637
 21
40.7805253504534
 31
0.0
  0
LINE
  5
148
330
1F
100
AcDbEntity
  8
0
100
AcDbLine
 10
23.14740018230637
 20
40.7805253504534
 30
0.0
 11
23.14740018230637
 21
47.64839926058083
 31
0.0
  0
LINE
  5
149
330
1F
100
AcDbEntity
  8
0
100
AcDbLine
 10
23.14740018230637
 20
47.64839926058083
 30
0.0
 11
26.00454303944922
 21
47.64839926058083
 31
0.0
  0
LINE
  5
14A
330
1F
100
AcDbEntity
  8
0
100
AcDbLine
 10
26.00454303944922
 20
47.64839926058083
 30
0.0
 11
26.00454303944922
 21
46.57529396212342
 31
0.0
  0
LINE
  5
14B
330
1F
100
AcDbEntity
  8
0
100
AcDbLine
 10
26.00454303944922
 20
46.57529396212342
 30
0.0
 11
26.03137067191066
 21
46.57529396212342
 31
0.0
  0
LINE
  5
14C
330
1F
100
AcDbEntity
  8
0
100
AcDbLine
 10
26.03137067191066
 20
46.57529396212342
 30
0.0
 11
26.43210843180335
 21
47.09927115863583
 31
0.0
  0
LINE
  5
14D
330
1F
100
AcDbEntity
  8
0
100
AcDbLine
 10
26.43210843180335
 20
47.09927115863583
 30
0.0
 11
26.95021708371482
 21
47.4907869198699
 31
0.0
  0
LINE
  5
14E
330
1F
100
AcDbEntity
  8
0
100
AcDbLine
 10
26.95021708371482
 20
47.4907869198699
 30
0.0
 11
27.55216208706828
 21
47.73475070256608
 31
0.0
  0
LINE
  5
14F
330
1F
100
AcDbEntity
  8
0
100
AcDbLine
 10
27.55216208706828
 20
47.73475070256608
 30
0.0
 11
28.20440890128691
 21
47.81607196346481
 31
0.0
  0
LINE
  5
150
330
1F
100
AcDbEntity
  8
0
100
AcDbLine
 10
28.20440890128691
 20
47.81607196346481
 30
0.0
 11
28.73257791537142
 21
47.77163869720055
 31
0.0
  0
LINE
  5
151
330
1F
100
AcDbEntity
  8
0
100
AcDbLine
 10
28.73257791537142
 20
47.77163869720055
 30
0.0
 11
29.19032439424467
 21
47.6383388984078
 31
0.0
  0
LINE
  5
152
330
1F
100
AcDbEntity
  8
0
100
AcDbLine
 10
29.19032439424467
 20
47.6383388984078
 30
0.0
 11
29.57764833790664
 21
47.41617256708653
 31
0.0
  0
LINE
  5
153
330
1F
100
AcDbEntity
  8
0
100
AcDbLine
 10
29.57764833790664
 20
47.41617256708653
 30
0.0
 11
29.89454974635735
 21
47.10513970323677
 31
0.0
  0
LINE
  5
154
330
1F
100
AcDbEntity
  8
0
100
AcDbLine
 10
29.89454974635735
 20
47.10513970323677
 30
0.0
 11
30.14102861959678
 21
46.7052403068585
 31
0.0
  0
LINE
  5
155
330
1F
100
AcDbEntity
  8
0
100
AcDbLine
 10
30.14102861959678
 20
46.7052403068585
 30
0.0
 11
30.31708495762495
 21
46.21647437795173
 31
0.0
  0
LINE
  5
156
330
1F
100
AcDbEntity
  8
0
100
AcDbLine
 10
30.31708495762495
 20
46.21647437795173
 30
0.0
 11
30.42271876044184
 21
45.63884191651645
 31
0.0
  0
LINE
  5
157
330
1F
100
AcDbEntity
  8
0
100
AcDbLine
 10
30.42271876044184
 20
45.63884191651645
 30
0.0
 11
30.45793002804748
 21
44.97234292255266
 31
0.0
  0
LINE
  5
158
330
1F
100
AcDbEntity
  8
0
100
AcDbLine
 10
30.45793002804748
 20
44.97234292255266
 30
0.0
 11
30.45793002804748
 21
40.7805253504534
 31
0.0
  0
LINE
  5
159
330
1F
100
AcDbEntity
  8
0
100
AcDbLine
 10
30.45793002804748
 20
40.7805253504534
 30
0.0
 11
27.60078717090462
 21
40.7805253504534
 31
0.0
  0
LINE
  5
15A
330
1F
100
AcDbEntity
  8
0
100
AcDbLine
 10
36.3331815371018
 20
40.7805253504534
 30
0.0
 11
36.3331815371018
 21
41.57864741618111
 31
0.0
  0
LINE
  5
15B
330
1F
100
AcDbEntity
  8
0
100
AcDbLine
 10
36.3331815371018
 20
41.57864741618111
 30
0.0
 11
36.30635390464037
 21
41.57864741618111
 31
0.0
  0
LINE
  5
15C
330
1F
100
AcDbEntity
  8
0
100
AcDbLine
 10
36.30635390464037
 20
41.57864741618111
 30
0.0
 11
35.91232305286304
 21
41.177071292774
 31
0.0
  0
LINE
  5
15D
330
1F
100
AcDbEntity
  8
0
100
AcDbLine
 10
35.91232305286304
 20
41.177071292774
 30
0.0
 11
35.41433512529765
 21
40.87106861001075
 31
0.0
  0
LINE
  5
15E
330
1F
100
AcDbEntity
  8
0
100
AcDbLine
 10
35.41433512529765
 20
40.87106861001075
 30
0.0
 11
34.86772211389591
 21
40.67740663817976
 31
0.0
  0
LINE
  5
15F
330
1F
100
AcDbEntity
  8
0
100
AcDbLine
 10
34.86772211389591
 20
40.67740663817976
 30
0.0
 11
34.32781601060952
 21
40.61285264756943
 31
0.0
  0
LINE
  5
160
330
1F
100
AcDbEntity
  8
0
100
AcDbLine
 10
34.32781601060952
 20
40.61285264756943
 30
0.0
 11
33.50118958539154
 21
40.72100154092959
 31
0.0
  0
LINE
  5
161
330
1F
100
AcDbEntity
  8
0
100
AcDbLine
 10
33.50118958539154
 20
40.72100154092959
 30
0.0
 11
32.77852023596164
 21
41.04544822101008
 31
0.0
  0
LINE
  5
162
330
1F
100
AcDbEntity
  8
0
100
AcDbLine
 10
32.77852023596164
 20
41.04544822101008
 30
0.0
 11
32.19250413938217
 21
41.56439523643596
 31
0.0
  0
LINE
  5
163
330
1F
100
AcDbEntity
  8
0
100
AcDbLine
 10
32.19250413938217
 20
41.56439523643596
 30
0.0
 11
31.77583747271549
 21
42.25604513583234
 31
0.0
  0
LINE
  5
164
330
1F
100
AcDbEntity
  8
0
100
AcDbLine
 10
31.77583747271549
 20
42.25604513583234
 30
0.0
 11
31.5268435089328
 21
43.10446901242523
 31
0.0
  0
LINE
  5
165
330
1F
100
AcDbEntity
  8
0
100
AcDbLine
 10
31.5268435089328
 20
43.10446901242523
 30
0.0
 11
31.44384552100523
 21
44.09373795944066
 31
0.0
  0
LINE
  5
166
330
1F
100
AcDbEntity
  8
0
100
AcDbLine
 10
31.44384552100523
 20
44.09373795944066
 30
0.0
 11
31.54277241570676
 21
45.12492508217708
 31
0.0
  0
LINE
  5
167
330
1F
100
AcDbEntity
  8
0
100
AcDbLine
 10
31.54277241570676
 20
45.12492508217708
 30
0.0
 11
31.83955309981139
 21
46.03203440477936
 31
0.0
  0
LINE
  5
168
330
1F
100
AcDbEntity
  8
0
100
AcDbLine
 10
31.83955309981139
 20
46.03203440477936
 30
0.0
 11
32.31574357600187
 21
46.78320811369954
 31
0.0
  0
LINE
  5
169
330
1F
100
AcDbEntity
  8
0
100
AcDbLine
 10
32.31574357600187
 20
46.78320811369954
 30
0.0
 11
32.95289984696096
 21
47.34658839538969
 31
0.0
  0
LINE
  5
16A
330
1F
100
AcDbEntity
  8
0
100
AcDbLine
 10
32.95289984696096
 20
47.34658839538969
 30
0.0
 11
33.7141339180542
 21
47.69870107144602
 31
0.0
  0
LINE
  5
16B
330
1F
100
AcDbEntity
  8
0
100
AcDbLine
 10
33.7141339180542
 20
47.69870107144602
 30
0.0
 11
34.56255779464708
 21
47.81607196346481
 31
0.0
  0
LINE
  5
16C
330
1F
100
AcDbEntity
  8
0
100
AcDbLine
 10
34.56255779464708
 20
47.81607196346481
 30
0.0
 11
35.34391259008638
 21
47.69534761738835
 31
0.0
  0
LINE
  5
16D
330
1F
100
AcDbEntity
  8
0
100
AcDbLine
 10
35.34391259008638
 20
47.69534761738835
 30
0.0
 11
35.96765504481475
 21
47.37006257379345
 31
0.0
  0
LINE
  5
16E
330
1F
100
AcDbEntity
  8
0
100
AcDbLine
 10
35.96765504481475
 20
47.37006257379345
 30
0.0
 11
36.30635390464037
 21
46.96429463281424
 31
0.0
  0
LINE
  5
16F
330
1F
100
AcDbEntity
  8
0
100
AcDbLine
 10
36.30635390464037
 20
46.96429463281424
 30
0.0
 11
36.3331815371018
 21
46.96429463281424
 31
0.0
  0
LINE
  5
170
330
1F
100
AcDbEntity
  8
0
100
AcDbLine
 10
36.3331815371018
 20
46.96429463281424
 30
0.0
 11
36.3331815371018
 21
50.94819805333738
 31
0.0
  0
LINE
  5
171
330
1F
100
AcDbEntity
  8
0
100
AcDbLine
 10
36.3331815371018
 20
50.94819805333738
 30
0.0
 11
39.19032439424466
 21
50.94819805333738
 31
0.0
  0
LINE
  5
172
330
1F
100
AcDbEntity
  8
0
100
AcDbLine
 10
39.19032439424466
 20
50.94819805333738
 30
0.0
 11
39.19032439424466
 21
40.7805253504534
 31
0.0
  0
LINE
  5
173
330
1F
100
AcDbEntity
  8
0
100
AcDbLine
 10
39.19032439424466
 20
40.7805253504534
 30
0.0
 11
36.3331815371018
 21
40.7805253504534
 31
0.0
  0
LINE
  5
174
330
1F
100
AcDbEntity
  8
0
100
AcDbLine
 10
36.39354371014004
 20
44.42237645709324
 30
0.0
 11
36.32563626547202
 21
44.97066619552383
 31
0.0
  0
LINE
  5
175
330
1F
100
AcDbEntity
  8
0
100
AcDbLine
 10
36.32563626547202
 20
44.97066619552383
 30
0.0
 11
36.121913931468
 21
45.38146431758955
 31
0.0
  0
LINE
  5
176
330
1F
100
AcDbEntity
  8
0
100
AcDbLine
 10
36.121913931468
 20
45.38146431758955
 30
0.0
 11
35.80249743247403
 21
45.63800355300203
 31
0.0
  0
LINE
  5
177
330
1F
100
AcDbEntity
  8
0
100
AcDbLine
 10
35.80249743247403
 20
45.63800355300203
 30
0.0
 11
35.38750749283621
 21
45.72351663147285
 31
0.0
  0
LINE
  5
178
330
1F
100
AcDbEntity
  8
0
100
AcDbLine
 10
35.38750749283621
 20
45.72351663147285
 30
0.0
 11
34.96748737211186
 21
45.61704446514153
 31
0.0
  0
LINE
  5
179
330
1F
100
AcDbEntity
  8
0
100
AcDbLine
 10
34.96748737211186
 20
45.61704446514153
 30
0.0
 11
34.63298032985834
 21
45.29762796614757
 31
0.0
  0
LINE
  5
17A
330
1F
100
AcDbEntity
  8
0
100
AcDbLine
 10
34.63298032985834
 20
45.29762796614757
 30
0.0
 11
34.41416745259475
 21
44.80047840209659
 31
0.0
  0
LINE
  5
17B
330
1F
100
AcDbEntity
  8
0
100
AcDbLine
 10
34.41416745259475
 20
44.80047840209659
 30
0.0
 11
34.34122982684023
 21
44.16080704059425
 31
0.0
  0
LINE
  5
17C
330
1F
100
AcDbEntity
  8
0
100
AcDbLine
 10
34.34122982684023
 20
44.16080704059425
 30
0.0
 11
34.40410709042173
 21
43.52406995139237
 31
0.0
  0
LINE
  5
17D
330
1F
100
AcDbEntity
  8
0
100
AcDbLine
 10
34.40410709042173
 20
43.52406995139237
 30
0.0
 11
34.5927388811662
 21
43.0692577448196
 31
0.0
  0
LINE
  5
17E
330
1F
100
AcDbEntity
  8
0
100
AcDbLine
 10
34.5927388811662
 20
43.0692577448196
 30
0.0
 11
34.90712519907364
 21
42.79637042087594
 31
0.0
  0
LINE
  5
17F
330
1F
100
AcDbEntity
  8
0
100
AcDbLine
 10
34.90712519907364
 20
42.79637042087594
 30
0.0
 11
35.34726604414406
 21
42.70540797956139
 31
0.0
  0
LINE
  5
180
330
1F
100
AcDbEntity
  8
0
100
AcDbLine
 10
35.34726604414406
 20
42.70540797956139
 30
0.0
 11
35.77566980001261
 21
42.80349651074851
 31
0.0
  0
LINE
  5
181
330
1F
100
AcDbEntity
  8
0
100
AcDbLine
 10
35.77566980001261
 20
42.80349651074851
 30
0.0
 11
36.10850011523729
 21
43.09776210430988
 31
0.0
  0
LINE
  5
182
330
1F
100
AcDbEntity
  8
0
100
AcDbLine
 10
36.10850011523729
 20
43.09776210430988
 30
0.0
 11
36.32228281141435
 21
43.57982112510129
 31
0.0
  0
LINE
  5
183
330
1F
100
AcDbEntity
  8
0
100
AcDbLine
 10
36.32228281141435
 20
43.57982112510129
 30
0.0
 11
36.39354371014004
 21
44.24128993797856
 31
0.0
  0
LINE
  5
184
330
1F
100
AcDbEntity
  8
0
100
AcDbLine
 10
36.39354371014004
 20
44.24128993797856
 30
0.0
 11
36.39354371014004
 21
44.42237645709324
 31
0.0
  0
LINE
  5
185
330
1F
100
AcDbEntity
  8
0
100
AcDbLine
 10
-52.47345513237846
 20
73.46269938151035
 30
0.0
 11
52.47345513237846
 21
73.46269938151035
 31
0.0
  0
LINE
  5
186
330
1F
100
AcDbEntity
  8
0
100
AcDbLine
 10
0.0000000000000902
 20
31.48403862847227
 30
0.0
 11
-13.11836378309455
 21
29.48403862847227
 31
0.0
  0
LINE
  5
187
330
1F
100
AcDbEntity
  8
0
100
AcDbLine
 10
-13.11836378309455
 20
29.48403862847227
 30
0.0
 11
0.0000000000000902
 21
27.48403862847227
 31
0.0
  0
LINE
  5
188
330
1F
100
AcDbEntity
  8
0
100
AcDbLine
 10
0.0000000000000902
 20
27.48403862847227
 30
0.0
 11
13.11836378309473
 21
29.48403862847227
 31
0.0
  0
LINE
  5
189
330
1F
100
AcDbEntity
  8
0
100
AcDbLine
 10
13.11836378309473
 20
29.48403862847227
 30
0.0
 11
0.0000000000000902
 21
31.48403862847227
 31
0.0
  0
LINE
  5
18A
330
1F
100
AcDbEntity
  8
0
100
AcDbLine
 10
19.67754567464196
 20
29.48403862847227
 30
0.0
 11
32.79590945773641
 21
31.48403862847227
 31
0.0
  0
LINE
  5
18B
330
1F
100
AcDbEntity
  8
0
100
AcDbLine
 10
32.79590945773641
 20
31.48403862847227
 30
0.0
 11
45.91427324083105
 21
29.48403862847227
 31
0.0
  0
LINE
  5
18C
330
1F
100
AcDbEntity
  8
0
100
AcDbLine
 10
45.91427324083105
 20
29.48403862847227
 30
0.0
 11
32.79590945773641
 21
27.48403862847227
 31
0.0
  0
LINE
  5
18D
330
1F
100
AcDbEntity
  8
0
100
AcDbLine
 10
32.79590945773641
 20
27.48403862847227
 30
0.0
 11
19.67754567464196
 21
29.48403862847227
 31
0.0
  0
LINE
  5
18E
330
1F
100
AcDbEntity
  8
0
100
AcDbLine
 10
-19.67754567464196
 20
29.48403862847227
 30
0.0
 11
-32.79590945773659
 21
31.48403862847227
 31
0.0
  0
LINE
  5
18F
330
1F
100
AcDbEntity
  8
0
100
AcDbLine
 10
-32.79590945773659
 20
31.48403862847227
 30
0.0
 11
-45.91427324083114
 21
29.48403862847227
 31
0.0
  0
LINE
  5
190
330
1F
100
AcDbEntity
  8
0
100
AcDbLine
 10
-45.91427324083114
 20
29.48403862847227
 30
0.0
 11
-32.79590945773659
 21
27.48403862847227
 31
0.0
  0
LINE
  5
191
330
1F
100
AcDbEntity
  8
0
100
AcDbLine
 10
-32.79590945773659
 20
27.48403862847227
 30
0.0
 11
-19.67754567464196
 21
29.48403862847227
 31
0.0
  0
LINE
  5
192
330
1F
100
AcDbEntity
  8
0
100
AcDbLine
 10
-29.51631851196289
 20
26.56473862847227
 30
0.0
 11
-16.39795472886825
 21
28.56473862847231
 31
0.0
  0
LINE
  5
193
330
1F
100
AcDbEntity
  8
0
100
AcDbLine
 10
-16.39795472886825
 20
28.56473862847231
 30
0.0
 11
-3.279590945773614
 21
26.56473862847227
 31
0.0
  0
LINE
  5
194
330
1F
100
AcDbEntity
  8
0
100
AcDbLine
 10
-3.279590945773614
 20
26.56473862847227
 30
0.0
 11
-16.39795472886825
 21
24.56473862847228
 31
0.0
  0
LINE
  5
195
330
1F
100
AcDbEntity
  8
0
100
AcDbLine
 10
-16.39795472886825
 20
24.56473862847228
 30
0.0
 11
-29.51631851196289
 21
26.56473862847227
 31
0.0
  0
LINE
  5
196
330
1F
100
AcDbEntity
  8
0
100
AcDbLine
 10
16.39795472886834
 20
28.56473862847231
 30
0.0
 11
29.51631851196298
 21
26.56473862847227
 31
0.0
  0
LINE
  5
197
330
1F
100
AcDbEntity
  8
0
100
AcDbLine
 10
29.51631851196298
 20
26.56473862847227
 30
0.0
 11
16.39795472886834
 21
24.56473862847228
 31
0.0
  0
LINE
  5
198
330
1F
100
AcDbEntity
  8
0
100
AcDbLine
 10
16.39795472886834
 20
24.56473862847228
 30
0.0
 11
3.279590945773704
 21
26.56473862847227
 31
0.0
  0
LINE
  5
199
330
1F
100
AcDbEntity
  8
0
100
AcDbLine
 10
3.279590945773704
 20
26.56473862847227
 30
0.0
 11
16.39795472886834
 21
28.56473862847231
 31
0.0
  0
LINE
  5
19A
330
1F
100
AcDbEntity
  8
0
100
AcDbLine
 10
36.07550040351039
 20
26.56473862847227
 30
0.0
 11
49.19386418660485
 21
28.56473862847231
 31
0.0
  0
LINE
  5
19B
330
1F
100
AcDbEntity
  8
0
100
AcDbLine
 10
49.19386418660485
 20
28.56473862847231
 30
0.0
 11
52.47345513237846
 21
28.06473862847231
 31
0.0
  0
LINE
  5
19C
330
1F
100
AcDbEntity
  8
0
100
AcDbLine
 10
49.19386418660485
 20
24.56473862847228
 30
0.0
 11
36.07550040351039
 21
26.56473862847227
 31
0.0
  0
LINE
  5
19D
330
1F
100
AcDbEntity
  8
0
100
AcDbLine
 10
-32.79590945773659
 20
22.06473862847228
 30
0.0
 11
-19.67754567464196
 21
24.06473862847228
 31
0.0
  0
LINE
  5
19E
330
1F
100
AcDbEntity
  8
0
100
AcDbLine
 10
-45.91427324083114
 20
24.06473862847228
 30
0.0
 11
-32.79590945773659
 21
22.06473862847228
 31
0.0
  0
LINE
  5
19F
330
1F
100
AcDbEntity
  8
0
100
AcDbLine
 10
-32.79590945773659
 20
26.06473862847228
 30
0.0
 11
-45.91427324083114
 21
24.06473862847228
 31
0.0
  0
LINE
  5
1A0
330
1F
100
AcDbEntity
  8
0
100
AcDbLine
 10
-19.67754567464196
 20
24.06473862847228
 30
0.0
 11
-32.79590945773659
 21
26.06473862847228
 31
0.0
  0
LINE
  5
1A1
330
1F
100
AcDbEntity
  8
0
100
AcDbLine
 10
32.79590945773641
 20
22.06473862847228
 30
0.0
 11
19.67754567464196
 21
24.06473862847228
 31
0.0
  0
LINE
  5
1A2
330
1F
100
AcDbEntity
  8
0
100
AcDbLine
 10
19.67754567464196
 20
24.06473862847228
 30
0.0
 11
32.79590945773641
 21
26.06473862847228
 31
0.0
  0
LINE
  5
1A3
330
1F
100
AcDbEntity
  8
0
100
AcDbLine
 10
32.79590945773641
 20
26.06473862847228
 30
0.0
 11
45.91427324083105
 21
24.06473862847228
 31
0.0
  0
LINE
  5
1A4
330
1F
100
AcDbEntity
  8
0
100
AcDbLine
 10
45.91427324083105
 20
24.06473862847228
 30
0.0
 11
32.79590945773641
 21
22.06473862847228
 31
0.0
  0
LINE
  5
1A5
330
1F
100
AcDbEntity
  8
0
100
AcDbLine
 10
13.11836378309473
 20
24.06473862847228
 30
0.0
 11
0.0000000000000902
 21
26.06473862847228
 31
0.0
  0
LINE
  5
1A6
330
1F
100
AcDbEntity
  8
0
100
AcDbLine
 10
0.0000000000000902
 20
22.06473862847228
 30
0.0
 11
13.11836378309473
 21
24.06473862847228
 31
0.0
  0
LINE
  5
1A7
330
1F
100
AcDbEntity
  8
0
100
AcDbLine
 10
-13.11836378309455
 20
24.06473862847228
 30
0.0
 11
0.0000000000000902
 21
22.06473862847228
 31
0.0
  0
LINE
  5
1A8
330
1F
100
AcDbEntity
  8
0
100
AcDbLine
 10
0.0000000000000902
 20
26.06473862847228
 30
0.0
 11
-13.11836378309455
 21
24.06473862847228
 31
0.0
  0
LINE
  5
1A9
330
1F
100
AcDbEntity
  8
0
100
AcDbLine
 10
-16.39795472886825
 20
19.14543862847229
 30
0.0
 11
-29.51631851196289
 21
21.14543862847228
 31
0.0
  0
LINE
  5
1AA
330
1F
100
AcDbEntity
  8
0
100
AcDbLine
 10
-29.51631851196289
 20
21.14543862847228
 30
0.0
 11
-16.39795472886825
 21
23.14543862847231
 31
0.0
  0
LINE
  5
1AB
330
1F
100
AcDbEntity
  8
0
100
AcDbLine
 10
-16.39795472886825
 20
23.14543862847231
 30
0.0
 11
-3.279590945773614
 21
21.14543862847228
 31
0.0
  0
LINE
  5
1AC
330
1F
100
AcDbEntity
  8
0
100
AcDbLine
 10
-3.279590945773614
 20
21.14543862847228
 30
0.0
 11
-16.39795472886825
 21
19.14543862847229
 31
0.0
  0
LINE
  5
1AD
330
1F
100
AcDbEntity
  8
0
100
AcDbLine
 10
32.79590945773641
 20
16.64543862847229
 30
0.0
 11
19.67754567464196
 21
18.64543862847229
 31
0.0
  0
LINE
  5
1AE
330
1F
100
AcDbEntity
  8
0
100
AcDbLine
 10
19.67754567464196
 20
18.64543862847229
 30
0.0
 11
32.79590945773641
 21
20.64543862847228
 31
0.0
  0
LINE
  5
1AF
330
1F
100
AcDbEntity
  8
0
100
AcDbLine
 10
32.79590945773641
 20
20.64543862847228
 30
0.0
 11
45.91427324083105
 21
18.64543862847229
 31
0.0
  0
LINE
  5
1B0
330
1F
100
AcDbEntity
  8
0
100
AcDbLine
 10
45.91427324083105
 20
18.64543862847229
 30
0.0
 11
32.79590945773641
 21
16.64543862847229
 31
0.0
  0
LINE
  5
1B1
330
1F
100
AcDbEntity
  8
0
100
AcDbLine
 10
13.11836378309473
 20
18.64543862847229
 30
0.0
 11
0.0000000000000902
 21
20.64543862847228
 31
0.0
  0
LINE
  5
1B2
330
1F
100
AcDbEntity
  8
0
100
AcDbLine
 10
0.0000000000000902
 20
16.64543862847229
 30
0.0
 11
13.11836378309473
 21
18.64543862847229
 31
0.0
  0
LINE
  5
1B3
330
1F
100
AcDbEntity
  8
0
100
AcDbLine
 10
-13.11836378309455
 20
18.64543862847229
 30
0.0
 11
0.0000000000000902
 21
16.64543862847229
 31
0.0
  0
LINE
  5
1B4
330
1F
100
AcDbEntity
  8
0
100
AcDbLine
 10
0.0000000000000902
 20
20.64543862847228
 30
0.0
 11
-13.11836378309455
 21
18.64543862847229
 31
0.0
  0
LINE
  5
1B5
330
1F
100
AcDbEntity
  8
0
100
AcDbLine
 10
3.279590945773704
 20
21.14543862847228
 30
0.0
 11
16.39795472886834
 21
23.14543862847231
 31
0.0
  0
LINE
  5
1B6
330
1F
100
AcDbEntity
  8
0
100
AcDbLine
 10
16.39795472886834
 20
23.14543862847231
 30
0.0
 11
29.51631851196298
 21
21.14543862847228
 31
0.0
  0
LINE
  5
1B7
330
1F
100
AcDbEntity
  8
0
100
AcDbLine
 10
29.51631851196298
 20
21.14543862847228
 30
0.0
 11
16.39795472886834
 21
19.14543862847229
 31
0.0
  0
LINE
  5
1B8
330
1F
100
AcDbEntity
  8
0
100
AcDbLine
 10
16.39795472886834
 20
19.14543862847229
 30
0.0
 11
3.279590945773704
 21
21.14543862847228
 31
0.0
  0
LINE
  5
1B9
330
1F
100
AcDbEntity
  8
0
100
AcDbLine
 10
-32.79590945773659
 20
16.64543862847229
 30
0.0
 11
-19.67754567464196
 21
18.64543862847229
 31
0.0
  0
LINE
  5
1BA
330
1F
100
AcDbEntity
  8
0
100
AcDbLine
 10
-45.91427324083114
 20
18.64543862847229
 30
0.0
 11
-32.79590945773659
 21
16.64543862847229
 31
0.0
  0
LINE
  5
1BB
330
1F
100
AcDbEntity
  8
0
100
AcDbLine
 10
-32.79590945773659
 20
20.64543862847228
 30
0.0
 11
-45.91427324083114
 21
18.64543862847229
 31
0.0
  0
LINE
  5
1BC
330
1F
100
AcDbEntity
  8
0
100
AcDbLine
 10
-19.67754567464196
 20
18.64543862847229
 30
0.0
 11
-32.79590945773659
 21
20.64543862847228
 31
0.0
  0
LINE
  5
1BD
330
1F
100
AcDbEntity
  8
0
100
AcDbLine
 10
-49.19386418660485
 20
19.14543862847229
 30
0.0
 11
-52.47345513237846
 21
19.64543862847229
 31
0.0
  0
LINE
  5
1BE
330
1F
100
AcDbEntity
  8
0
100
AcDbLine
 10
-49.19386418660485
 20
23.14543862847231
 30
0.0
 11
-36.0755004035102
 21
21.14543862847228
 31
0.0
  0
LINE
  5
1BF
330
1F
100
AcDbEntity
  8
0
100
AcDbLine
 10
-36.0755004035102
 20
21.14543862847228
 30
0.0
 11
-49.19386418660485
 21
19.14543862847229
 31
0.0
  0
LINE
  5
1C0
330
1F
100
AcDbEntity
  8
0
100
AcDbLine
 10
36.07550040351039
 20
21.14543862847228
 30
0.0
 11
49.19386418660485
 21
23.14543862847231
 31
0.0
  0
LINE
  5
1C1
330
1F
100
AcDbEntity
  8
0
100
AcDbLine
 10
49.19386418660485
 20
23.14543862847231
 30
0.0
 11
52.47345513237846
 21
22.64543862847231
 31
0.0
  0
LINE
  5
1C2
330
1F
100
AcDbEntity
  8
0
100
AcDbLine
 10
49.19386418660485
 20
19.14543862847229
 30
0.0
 11
36.07550040351039
 21
21.14543862847228
 31
0.0
  0
LINE
  5
1C3
330
1F
100
AcDbEntity
  8
0
100
AcDbLine
 10
-16.39795472886825
 20
13.7261386284723
 30
0.0
 11
-29.51631851196289
 21
15.72613862847229
 31
0.0
  0
LINE
  5
1C4
330
1F
100
AcDbEntity
  8
0
100
AcDbLine
 10
-29.51631851196289
 20
15.72613862847229
 30
0.0
 11
-16.39795472886825
 21
17.72613862847232
 31
0.0
  0
LINE
  5
1C5
330
1F
100
AcDbEntity
  8
0
100
AcDbLine
 10
-16.39795472886825
 20
17.72613862847232
 30
0.0
 11
-3.279590945773614
 21
15.72613862847229
 31
0.0
  0
LINE
  5
1C6
330
1F
100
AcDbEntity
  8
0
100
AcDbLine
 10
-3.279590945773614
 20
15.72613862847229
 30
0.0
 11
-16.39795472886825
 21
13.7261386284723
 31
0.0
  0
LINE
  5
1C7
330
1F
100
AcDbEntity
  8
0
100
AcDbLine
 10
32.79590945773641
 20
11.2261386284723
 30
0.0
 11
19.67754567464196
 21
13.2261386284723
 31
0.0
  0
LINE
  5
1C8
330
1F
100
AcDbEntity
  8
0
100
AcDbLine
 10
19.67754567464196
 20
13.2261386284723
 30
0.0
 11
32.79590945773641
 21
15.22613862847229
 31
0.0
  0
LINE
  5
1C9
330
1F
100
AcDbEntity
  8
0
100
AcDbLine
 10
32.79590945773641
 20
15.22613862847229
 30
0.0
 11
45.91427324083105
 21
13.2261386284723
 31
0.0
  0
LINE
  5
1CA
330
1F
100
AcDbEntity
  8
0
100
AcDbLine
 10
45.91427324083105
 20
13.2261386284723
 30
0.0
 11
32.79590945773641
 21
11.2261386284723
 31
0.0
  0
LINE
  5
1CB
330
1F
100
AcDbEntity
  8
0
100
AcDbLine
 10
36.07550040351039
 20
15.72613862847229
 30
0.0
 11
49.19386418660485
 21
17.72613862847232
 31
0.0
  0
LINE
  5
1CC
330
1F
100
AcDbEntity
  8
0
100
AcDbLine
 10
49.19386418660485
 20
17.72613862847232
 30
0.0
 11
52.47345513237846
 21
17.22613862847232
 31
0.0
  0
LINE
  5
1CD
330
1F
100
AcDbEntity
  8
0
100
AcDbLine
 10
49.19386418660485
 20
13.7261386284723
 30
0.0
 11
36.07550040351039
 21
15.72613862847229
 31
0.0
  0
LINE
  5
1CE
330
1F
100
AcDbEntity
  8
0
100
AcDbLine
 10
-49.19386418660485
 20
13.7261386284723
 30
0.0
 11
-52.47345513237846
 21
14.22613862847228
 31
0.0
  0
LINE
  5
1CF
330
1F
100
AcDbEntity
  8
0
100
AcDbLine
 10
-49.19386418660485
 20
17.72613862847232
 30
0.0
 11
-36.0755004035102
 21
15.72613862847229
 31
0.0
  0
LINE
  5
1D0
330
1F
100
AcDbEntity
  8
0
100
AcDbLine
 10
-36.0755004035102
 20
15.72613862847229
 30
0.0
 11
-49.19386418660485
 21
13.7261386284723
 31
0.0
  0
LINE
  5
1D1
330
1F
100
AcDbEntity
  8
0
100
AcDbLine
 10
3.279590945773704
 20
15.72613862847229
 30
0.0
 11
16.39795472886834
 21
17.72613862847232
 31
0.0
  0
LINE
  5
1D2
330
1F
100
AcDbEntity
  8
0
100
AcDbLine
 10
16.39795472886834
 20
17.72613862847232
 30
0.0
 11
29.51631851196298
 21
15.72613862847229
 31
0.0
  0
LINE
  5
1D3
330
1F
100
AcDbEntity
  8
0
100
AcDbLine
 10
29.51631851196298
 20
15.72613862847229
 30
0.0
 11
16.39795472886834
 21
13.7261386284723
 31
0.0
  0
LINE
  5
1D4
330
1F
100
AcDbEntity
  8
0
100
AcDbLine
 10
16.39795472886834
 20
13.7261386284723
 30
0.0
 11
3.279590945773704
 21
15.72613862847229
 31
0.0
  0
LINE
  5
1D5
330
1F
100
AcDbEntity
  8
0
100
AcDbLine
 10
13.11836378309473
 20
13.2261386284723
 30
0.0
 11
0.0000000000000902
 21
15.22613862847229
 31
0.0
  0
LINE
  5
1D6
330
1F
100
AcDbEntity
  8
0
100
AcDbLine
 10
0.0000000000000902
 20
11.2261386284723
 30
0.0
 11
13.11836378309473
 21
13.2261386284723
 31
0.0
  0
LINE
  5
1D7
330
1F
100
AcDbEntity
  8
0
100
AcDbLine
 10
-13.11836378309455
 20
13.2261386284723
 30
0.0
 11
0.0000000000000902
 21
11.2261386284723
 31
0.0
  0
LINE
  5
1D8
330
1F
100
AcDbEntity
  8
0
100
AcDbLine
 10
0.0000000000000902
 20
15.22613862847229
 30
0.0
 11
-13.11836378309455
 21
13.2261386284723
 31
0.0
  0
LINE
  5
1D9
330
1F
100
AcDbEntity
  8
0
100
AcDbLine
 10
-32.79590945773659
 20
11.2261386284723
 30
0.0
 11
-19.67754567464196
 21
13.2261386284723
 31
0.0
  0
LINE
  5
1DA
330
1F
100
AcDbEntity
  8
0
100
AcDbLine
 10
-45.91427324083114
 20
13.2261386284723
 30
0.0
 11
-32.79590945773659
 21
11.2261386284723
 31
0.0
  0
LINE
  5
1DB
330
1F
100
AcDbEntity
  8
0
100
AcDbLine
 10
-32.79590945773659
 20
15.22613862847229
 30
0.0
 11
-45.91427324083114
 21
13.2261386284723
 31
0.0
  0
LINE
  5
1DC
330
1F
100
AcDbEntity
  8
0
100
AcDbLine
 10
-19.67754567464196
 20
13.2261386284723
 30
0.0
 11
-32.79590945773659
 21
15.22613862847229
 31
0.0
  0
LINE
  5
1DD
330
1F
100
AcDbEntity
  8
0
100
AcDbLine
 10
36.07550040351039
 20
10.3068386284723
 30
0.0
 11
49.19386418660485
 21
12.30683862847233
 31
0.0
  0
LINE
  5
1DE
330
1F
100
AcDbEntity
  8
0
100
AcDbLine
 10
49.19386418660485
 20
12.30683862847233
 30
0.0
 11
52.47345513237846
 21
11.80683862847233
 31
0.0
  0
LINE
  5
1DF
330
1F
100
AcDbEntity
  8
0
100
AcDbLine
 10
49.19386418660485
 20
8.306838628472304
 30
0.0
 11
36.07550040351039
 21
10.3068386284723
 31
0.0
  0
LINE
  5
1E0
330
1F
100
AcDbEntity
  8
0
100
AcDbLine
 10
-32.79590945773659
 20
5.80683862847231
 30
0.0
 11
-19.67754567464196
 21
7.806838628472305
 31
0.0
  0
LINE
  5
1E1
330
1F
100
AcDbEntity
  8
0
100
AcDbLine
 10
-45.91427324083114
 20
7.806838628472305
 30
0.0
 11
-32.79590945773659
 21
5.80683862847231
 31
0.0
  0
LINE
  5
1E2
330
1F
100
AcDbEntity
  8
0
100
AcDbLine
 10
-32.79590945773659
 20
9.806838628472303
 30
0.0
 11
-45.91427324083114
 21
7.806838628472305
 31
0.0
  0
LINE
  5
1E3
330
1F
100
AcDbEntity
  8
0
100
AcDbLine
 10
-19.67754567464196
 20
7.806838628472305
 30
0.0
 11
-32.79590945773659
 21
9.806838628472303
 31
0.0
  0
LINE
  5
1E4
330
1F
100
AcDbEntity
  8
0
100
AcDbLine
 10
3.279590945773704
 20
10.3068386284723
 30
0.0
 11
16.39795472886834
 21
12.30683862847233
 31
0.0
  0
LINE
  5
1E5
330
1F
100
AcDbEntity
  8
0
100
AcDbLine
 10
16.39795472886834
 20
12.30683862847233
 30
0.0
 11
29.51631851196298
 21
10.3068386284723
 31
0.0
  0
LINE
  5
1E6
330
1F
100
AcDbEntity
  8
0
100
AcDbLine
 10
29.51631851196298
 20
10.3068386284723
 30
0.0
 11
16.39795472886834
 21
8.306838628472304
 31
0.0
  0
LINE
  5
1E7
330
1F
100
AcDbEntity
  8
0
100
AcDbLine
 10
16.39795472886834
 20
8.306838628472304
 30
0.0
 11
3.279590945773704
 21
10.3068386284723
 31
0.0
  0
LINE
  5
1E8
330
1F
100
AcDbEntity
  8
0
100
AcDbLine
 10
13.11836378309473
 20
7.806838628472305
 30
0.0
 11
0.0000000000000902
 21
9.806838628472303
 31
0.0
  0
LINE
  5
1E9
330
1F
100
AcDbEntity
  8
0
100
AcDbLine
 10
0.0000000000000902
 20
5.80683862847231
 30
0.0
 11
13.11836378309473
 21
7.806838628472305
 31
0.0
  0
LINE
  5
1EA
330
1F
100
AcDbEntity
  8
0
100
AcDbLine
 10
-13.11836378309455
 20
7.806838628472305
 30
0.0
 11
0.0000000000000902
 21
5.80683862847231
 31
0.0
  0
LINE
  5
1EB
330
1F
100
AcDbEntity
  8
0
100
AcDbLine
 10
0.0000000000000902
 20
9.806838628472303
 30
0.0
 11
-13.11836378309455
 21
7.806838628472305
 31
0.0
  0
LINE
  5
1EC
330
1F
100
AcDbEntity
  8
0
100
AcDbLine
 10
-16.39795472886825
 20
8.306838628472304
 30
0.0
 11
-29.51631851196289
 21
10.3068386284723
 31
0.0
  0
LINE
  5
1ED
330
1F
100
AcDbEntity
  8
0
100
AcDbLine
 10
-29.51631851196289
 20
10.3068386284723
 30
0.0
 11
-16.39795472886825
 21
12.30683862847233
 31
0.0
  0
LINE
  5
1EE
330
1F
100
AcDbEntity
  8
0
100
AcDbLine
 10
-16.39795472886825
 20
12.30683862847233
 30
0.0
 11
-3.279590945773614
 21
10.3068386284723
 31
0.0
  0
LINE
  5
1EF
330
1F
100
AcDbEntity
  8
0
100
AcDbLine
 10
-3.279590945773614
 20
10.3068386284723
 30
0.0
 11
-16.39795472886825
 21
8.306838628472304
 31
0.0
  0
LINE
  5
1F0
330
1F
100
AcDbEntity
  8
0
100
AcDbLine
 10
-49.19386418660485
 20
8.306838628472304
 30
0.0
 11
-52.47345513237846
 21
8.806838628472304
 31
0.0
  0
LINE
  5
1F1
330
1F
100
AcDbEntity
  8
0
100
AcDbLine
 10
-49.19386418660485
 20
12.30683862847233
 30
0.0
 11
-36.0755004035102
 21
10.3068386284723
 31
0.0
  0
LINE
  5
1F2
330
1F
100
AcDbEntity
  8
0
100
AcDbLine
 10
-36.0755004035102
 20
10.3068386284723
 30
0.0
 11
-49.19386418660485
 21
8.306838628472304
 31
0.0
  0
LINE
  5
1F3
330
1F
100
AcDbEntity
  8
0
100
AcDbLine
 10
32.79590945773641
 20
5.80683862847231
 30
0.0
 11
19.67754567464196
 21
7.806838628472305
 31
0.0
  0
LINE
  5
1F4
330
1F
100
AcDbEntity
  8
0
100
AcDbLine
 10
19.67754567464196
 20
7.806838628472305
 30
0.0
 11
32.79590945773641
 21
9.806838628472303
 31
0.0
  0
LINE
  5
1F5
330
1F
100
AcDbEntity
  8
0
100
AcDbLine
 10
32.79590945773641
 20
9.806838628472303
 30
0.0
 11
45.91427324083105
 21
7.806838628472305
 31
0.0
  0
LINE
  5
1F6
330
1F
100
AcDbEntity
  8
0
100
AcDbLine
 10
45.91427324083105
 20
7.806838628472305
 30
0.0
 11
32.79590945773641
 21
5.80683862847231
 31
0.0
  0
LINE
  5
1F7
330
1F
100
AcDbEntity
  8
0
100
AcDbLine
 10
3.279590945773704
 20
4.88753862847231
 30
0.0
 11
16.39795472886834
 21
6.88753862847234
 31
0.0
  0
LINE
  5
1F8
330
1F
100
AcDbEntity
  8
0
100
AcDbLine
 10
16.39795472886834
 20
6.88753862847234
 30
0.0
 11
29.51631851196298
 21
4.88753862847231
 31
0.0
  0
LINE
  5
1F9
330
1F
100
AcDbEntity
  8
0
100
AcDbLine
 10
29.51631851196298
 20
4.88753862847231
 30
0.0
 11
16.39795472886834
 21
2.887538628472313
 31
0.0
  0
LINE
  5
1FA
330
1F
100
AcDbEntity
  8
0
100
AcDbLine
 10
16.39795472886834
 20
2.887538628472313
 30
0.0
 11
3.279590945773704
 21
4.88753862847231
 31
0.0
  0
LINE
  5
1FB
330
1F
100
AcDbEntity
  8
0
100
AcDbLine
 10
-16.39795472886825
 20
2.887538628472313
 30
0.0
 11
-29.51631851196289
 21
4.88753862847231
 31
0.0
  0
LINE
  5
1FC
330
1F
100
AcDbEntity
  8
0
100
AcDbLine
 10
-29.51631851196289
 20
4.88753862847231
 30
0.0
 11
-16.39795472886825
 21
6.88753862847234
 31
0.0
  0
LINE
  5
1FD
330
1F
100
AcDbEntity
  8
0
100
AcDbLine
 10
-16.39795472886825
 20
6.88753862847234
 30
0.0
 11
-3.279590945773614
 21
4.88753862847231
 31
0.0
  0
LINE
  5
1FE
330
1F
100
AcDbEntity
  8
0
100
AcDbLine
 10
-3.279590945773614
 20
4.88753862847231
 30
0.0
 11
-16.39795472886825
 21
2.887538628472313
 31
0.0
  0
LINE
  5
1FF
330
1F
100
AcDbEntity
  8
0
100
AcDbLine
 10
-32.79590945773659
 20
0.3875386284723181
 30
0.0
 11
-19.67754567464196
 21
2.387538628472314
 31
0.0
  0
LINE
  5
200
330
1F
100
AcDbEntity
  8
0
100
AcDbLine
 10
-45.91427324083114
 20
2.387538628472314
 30
0.0
 11
-32.79590945773659
 21
0.3875386284723181
 31
0.0
  0
LINE
  5
201
330
1F
100
AcDbEntity
  8
0
100
AcDbLine
 10
-32.79590945773659
 20
4.387538628472311
 30
0.0
 11
-45.91427324083114
 21
2.387538628472314
 31
0.0
  0
LINE
  5
202
330
1F
100
AcDbEntity
  8
0
100
AcDbLine
 10
-19.67754567464196
 20
2.387538628472314
 30
0.0
 11
-32.79590945773659
 21
4.387538628472311
 31
0.0
  0
LINE
  5
203
330
1F
100
AcDbEntity
  8
0
100
AcDbLine
 10
13.11836378309473
 20
2.387538628472314
 30
0.0
 11
0.0000000000000902
 21
4.387538628472311
 31
0.0
  0
LINE
  5
204
330
1F
100
AcDbEntity
  8
0
100
AcDbLine
 10
0.0000000000000902
 20
0.3875386284723181
 30
0.0
 11
13.11836378309473
 21
2.387538628472314
 31
0.0
  0
LINE
  5
205
330
1F
100
AcDbEntity
  8
0
100
AcDbLine
 10
-13.11836378309455
 20
2.387538628472314
 30
0.0
 11
0.0000000000000902
 21
0.3875386284723181
 31
0.0
  0
LINE
  5
206
330
1F
100
AcDbEntity
  8
0
100
AcDbLine
 10
0.0000000000000902
 20
4.387538628472311
 30
0.0
 11
-13.11836378309455
 21
2.387538628472314
 31
0.0
  0
LINE
  5
207
330
1F
100
AcDbEntity
  8
0
100
AcDbLine
 10
-49.19386418660485
 20
2.887538628472313
 30
0.0
 11
-52.47345513237846
 21
3.387538628472301
 31
0.0
  0
LINE
  5
208
330
1F
100
AcDbEntity
  8
0
100
AcDbLine
 10
-49.19386418660485
 20
6.88753862847234
 30
0.0
 11
-36.0755004035102
 21
4.88753862847231
 31
0.0
  0
LINE
  5
209
330
1F
100
AcDbEntity
  8
0
100
AcDbLine
 10
-36.0755004035102
 20
4.88753862847231
 30
0.0
 11
-49.19386418660485
 21
2.887538628472313
 31
0.0
  0
LINE
  5
20A
330
1F
100
AcDbEntity
  8
0
100
AcDbLine
 10
36.07550040351039
 20
4.88753862847231
 30
0.0
 11
49.19386418660485
 21
6.88753862847234
 31
0.0
  0
LINE
  5
20B
330
1F
100
AcDbEntity
  8
0
100
AcDbLine
 10
49.19386418660485
 20
6.88753862847234
 30
0.0
 11
52.47345513237846
 21
6.387538628472341
 31
0.0
  0
LINE
  5
20C
330
1F
100
AcDbEntity
  8
0
100
AcDbLine
 10
49.19386418660485
 20
2.887538628472313
 30
0.0
 11
36.07550040351039
 21
4.88753862847231
 31
0.0
  0
LINE
  5
20D
330
1F
100
AcDbEntity
  8
0
100
AcDbLine
 10
32.79590945773641
 20
0.3875386284723181
 30
0.0
 11
19.67754567464196
 21
2.387538628472314
 31
0.0
  0
LINE
  5
20E
330
1F
100
AcDbEntity
  8
0
100
AcDbLine
 10
19.67754567464196
 20
2.387538628472314
 30
0.0
 11
32.79590945773641
 21
4.387538628472311
 31
0.0
  0
LINE
  5
20F
330
1F
100
AcDbEntity
  8
0
100
AcDbLine
 10
32.79590945773641
 20
4.387538628472311
 30
0.0
 11
45.91427324083105
 21
2.387538628472314
 31
0.0
  0
LINE
  5
210
330
1F
100
AcDbEntity
  8
0
100
AcDbLine
 10
45.91427324083105
 20
2.387538628472314
 30
0.0
 11
32.79590945773641
 21
0.3875386284723181
 31
0.0
  0
LINE
  5
211
330
1F
100
AcDbEntity
  8
0
100
AcDbLine
 10
36.07550040351039
 20
-0.5317613715276814
 30
0.0
 11
49.19386418660485
 21
1.468238628472349
 31
0.0
  0
LINE
  5
212
330
1F
100
AcDbEntity
  8
0
100
AcDbLine
 10
49.19386418660485
 20
1.468238628472349
 30
0.0
 11
52.47345513237846
 21
0.9682386284723496
 31
0.0
  0
LINE
  5
213
330
1F
100
AcDbEntity
  8
0
100
AcDbLine
 10
49.19386418660485
 20
-2.531761371527678
 30
0.0
 11
36.07550040351039
 21
-0.5317613715276814
 31
0.0
  0
LINE
  5
214
330
1F
100
AcDbEntity
  8
0
100
AcDbLine
 10
3.279590945773704
 20
-0.5317613715276814
 30
0.0
 11
16.39795472886834
 21
1.468238628472349
 31
0.0
  0
LINE
  5
215
330
1F
100
AcDbEntity
  8
0
100
AcDbLine
 10
16.39795472886834
 20
1.468238628472349
 30
0.0
 11
29.51631851196298
 21
-0.5317613715276814
 31
0.0
  0
LINE
  5
216
330
1F
100
AcDbEntity
  8
0
100
AcDbLine
 10
29.51631851196298
 20
-0.5317613715276814
 30
0.0
 11
16.39795472886834
 21
-2.531761371527678
 31
0.0
  0
LINE
  5
217
330
1F
100
AcDbEntity
  8
0
100
AcDbLine
 10
16.39795472886834
 20
-2.531761371527678
 30
0.0
 11
3.279590945773704
 21
-0.5317613715276814
 31
0.0
  0
LINE
  5
218
330
1F
100
AcDbEntity
  8
0
100
AcDbLine
 10
-16.39795472886825
 20
-2.531761371527678
 30
0.0
 11
-29.51631851196289
 21
-0.5317613715276814
 31
0.0
  0
LINE
  5
219
330
1F
100
AcDbEntity
  8
0
100
AcDbLine
 10
-29.51631851196289
 20
-0.5317613715276814
 30
0.0
 11
-16.39795472886825
 21
1.468238628472349
 31
0.0
  0
LINE
  5
21A
330
1F
100
AcDbEntity
  8
0
100
AcDbLine
 10
-16.39795472886825
 20
1.468238628472349
 30
0.0
 11
-3.279590945773614
 21
-0.5317613715276814
 31
0.0
  0
LINE
  5
21B
330
1F
100
AcDbEntity
  8
0
100
AcDbLine
 10
-3.279590945773614
 20
-0.5317613715276814
 30
0.0
 11
-16.39795472886825
 21
-2.531761371527678
 31
0.0
  0
LINE
  5
21C
330
1F
100
AcDbEntity
  8
0
100
AcDbLine
 10
-32.79590945773659
 20
-5.031761371527673
 30
0.0
 11
-19.67754567464196
 21
-3.031761371527677
 31
0.0
  0
LINE
  5
21D
330
1F
100
AcDbEntity
  8
0
100
AcDbLine
 10
-45.91427324083114
 20
-3.031761371527677
 30
0.0
 11
-32.79590945773659
 21
-5.031761371527673
 31
0.0
  0
LINE
  5
21E
330
1F
100
AcDbEntity
  8
0
100
AcDbLine
 10
-32.79590945773659
 20
-1.031761371527681
 30
0.0
 11
-45.91427324083114
 21
-3.031761371527677
 31
0.0
  0
LINE
  5
21F
330
1F
100
AcDbEntity
  8
0
100
AcDbLine
 10
-19.67754567464196
 20
-3.031761371527677
 30
0.0
 11
-32.79590945773659
 21
-1.031761371527681
 31
0.0
  0
LINE
  5
220
330
1F
100
AcDbEntity
  8
0
100
AcDbLine
 10
13.11836378309473
 20
-3.031761371527677
 30
0.0
 11
0.0000000000000902
 21
-1.031761371527681
 31
0.0
  0
LINE
  5
221
330
1F
100
AcDbEntity
  8
0
100
AcDbLine
 10
0.0000000000000902
 20
-5.031761371527673
 30
0.0
 11
13.11836378309473
 21
-3.031761371527677
 31
0.0
  0
LINE
  5
222
330
1F
100
AcDbEntity
  8
0
100
AcDbLine
 10
-13.11836378309455
 20
-3.031761371527677
 30
0.0
 11
0.0000000000000902
 21
-5.031761371527673
 31
0.0
  0
LINE
  5
223
330
1F
100
AcDbEntity
  8
0
100
AcDbLine
 10
0.0000000000000902
 20
-1.031761371527681
 30
0.0
 11
-13.11836378309455
 21
-3.031761371527677
 31
0.0
  0
LINE
  5
224
330
1F
100
AcDbEntity
  8
0
100
AcDbLine
 10
-49.19386418660485
 20
-2.531761371527678
 30
0.0
 11
-52.47345513237846
 21
-2.031761371527679
 31
0.0
  0
LINE
  5
225
330
1F
100
AcDbEntity
  8
0
100
AcDbLine
 10
-49.19386418660485
 20
1.468238628472349
 30
0.0
 11
-36.0755004035102
 21
-0.5317613715276814
 31
0.0
  0
LINE
  5
226
330
1F
100
AcDbEntity
  8
0
100
AcDbLine
 10
-36.0755004035102
 20
-0.5317613715276814
 30
0.0
 11
-49.19386418660485
 21
-2.531761371527678
 31
0.0
  0
LINE
  5
227
330
1F
100
AcDbEntity
  8
0
100
AcDbLine
 10
32.79590945773641
 20
-5.031761371527673
 30
0.0
 11
19.67754567464196
 21
-3.031761371527677
 31
0.0
  0
LINE
  5
228
330
1F
100
AcDbEntity
  8
0
100
AcDbLine
 10
19.67754567464196
 20
-3.031761371527677
 30
0.0
 11
32.79590945773641
 21
-1.031761371527681
 31
0.0
  0
LINE
  5
229
330
1F
100
AcDbEntity
  8
0
100
AcDbLine
 10
32.79590945773641
 20
-1.031761371527681
 30
0.0
 11
45.91427324083105
 21
-3.031761371527677
 31
0.0
  0
LINE
  5
22A
330
1F
100
AcDbEntity
  8
0
100
AcDbLine
 10
45.91427324083105
 20
-3.031761371527677
 30
0.0
 11
32.79590945773641
 21
-5.031761371527673
 31
0.0
  0
LINE
  5
22B
330
1F
100
AcDbEntity
  8
0
100
AcDbLine
 10
36.07550040351039
 20
-5.951061371527673
 30
0.0
 11
49.19386418660485
 21
-3.951061371527643
 31
0.0
  0
LINE
  5
22C
330
1F
100
AcDbEntity
  8
0
100
AcDbLine
 10
49.19386418660485
 20
-3.951061371527643
 30
0.0
 11
52.47345513237846
 21
-4.451061371527642
 31
0.0
  0
LINE
  5
22D
330
1F
100
AcDbEntity
  8
0
100
AcDbLine
 10
49.19386418660485
 20
-7.951061371527669
 30
0.0
 11
36.07550040351039
 21
-5.951061371527673
 31
0.0
  0
LINE
  5
22E
330
1F
100
AcDbEntity
  8
0
100
AcDbLine
 10
-16.39795472886825
 20
-7.951061371527669
 30
0.0
 11
-29.51631851196289
 21
-5.951061371527673
 31
0.0
  0
LINE
  5
22F
330
1F
100
AcDbEntity
  8
0
100
AcDbLine
 10
-29.51631851196289
 20
-5.951061371527673
 30
0.0
 11
-16.39795472886825
 21
-3.951061371527643
 31
0.0
  0
LINE
  5
230
330
1F
100
AcDbEntity
  8
0
100
AcDbLine
 10
-16.39795472886825
 20
-3.951061371527643
 30
0.0
 11
-3.279590945773614
 21
-5.951061371527673
 31
0.0
  0
LINE
  5
231
330
1F
100
AcDbEntity
  8
0
100
AcDbLine
 10
-3.279590945773614
 20
-5.951061371527673
 30
0.0
 11
-16.39795472886825
 21
-7.951061371527669
 31
0.0
  0
LINE
  5
232
330
1F
100
AcDbEntity
  8
0
100
AcDbLine
 10
13.11836378309473
 20
-8.451061371527668
 30
0.0
 11
0.0000000000000902
 21
-6.451061371527672
 31
0.0
  0
LINE
  5
233
330
1F
100
AcDbEntity
  8
0
100
AcDbLine
 10
0.0000000000000902
 20
-10.45106137152766
 30
0.0
 11
13.11836378309473
 21
-8.451061371527668
 31
0.0
  0
LINE
  5
234
330
1F
100
AcDbEntity
  8
0
100
AcDbLine
 10
-13.11836378309455
 20
-8.451061371527668
 30
0.0
 11
0.0000000000000902
 21
-10.45106137152766
 31
0.0
  0
LINE
  5
235
330
1F
100
AcDbEntity
  8
0
100
AcDbLine
 10
0.0000000000000902
 20
-6.451061371527672
 30
0.0
 11
-13.11836378309455
 21
-8.451061371527668
 31
0.0
  0
LINE
  5
236
330
1F
100
AcDbEntity
  8
0
100
AcDbLine
 10
3.279590945773704
 20
-5.951061371527673
 30
0.0
 11
16.39795472886834
 21
-3.951061371527643
 31
0.0
  0
LINE
  5
237
330
1F
100
AcDbEntity
  8
0
100
AcDbLine
 10
16.39795472886834
 20
-3.951061371527643
 30
0.0
 11
29.51631851196298
 21
-5.951061371527673
 31
0.0
  0
LINE
  5
238
330
1F
100
AcDbEntity
  8
0
100
AcDbLine
 10
29.51631851196298
 20
-5.951061371527673
 30
0.0
 11
16.39795472886834
 21
-7.951061371527669
 31
0.0
  0
LINE
  5
239
330
1F
100
AcDbEntity
  8
0
100
AcDbLine
 10
16.39795472886834
 20
-7.951061371527669
 30
0.0
 11
3.279590945773704
 21
-5.951061371527673
 31
0.0
  0
LINE
  5
23A
330
1F
100
AcDbEntity
  8
0
100
AcDbLine
 10
-32.79590945773659
 20
-10.45106137152766
 30
0.0
 11
-19.67754567464196
 21
-8.451061371527668
 31
0.0
  0
LINE
  5
23B
330
1F
100
AcDbEntity
  8
0
100
AcDbLine
 10
-45.91427324083114
 20
-8.451061371527668
 30
0.0
 11
-32.79590945773659
 21
-10.45106137152766
 31
0.0
  0
LINE
  5
23C
330
1F
100
AcDbEntity
  8
0
100
AcDbLine
 10
-32.79590945773659
 20
-6.451061371527672
 30
0.0
 11
-45.91427324083114
 21
-8.451061371527668
 31
0.0
  0
LINE
  5
23D
330
1F
100
AcDbEntity
  8
0
100
AcDbLine
 10
-19.67754567464196
 20
-8.451061371527668
 30
0.0
 11
-32.79590945773659
 21
-6.451061371527672
 31
0.0
  0
LINE
  5
23E
330
1F
100
AcDbEntity
  8
0
100
AcDbLine
 10
32.79590945773641
 20
-10.45106137152766
 30
0.0
 11
19.67754567464196
 21
-8.451061371527668
 31
0.0
  0
LINE
  5
23F
330
1F
100
AcDbEntity
  8
0
100
AcDbLine
 10
19.67754567464196
 20
-8.451061371527668
 30
0.0
 11
32.79590945773641
 21
-6.451061371527672
 31
0.0
  0
LINE
  5
240
330
1F
100
AcDbEntity
  8
0
100
AcDbLine
 10
32.79590945773641
 20
-6.451061371527672
 30
0.0
 11
45.91427324083105
 21
-8.451061371527668
 31
0.0
  0
LINE
  5
241
330
1F
100
AcDbEntity
  8
0
100
AcDbLine
 10
45.91427324083105
 20
-8.451061371527668
 30
0.0
 11
32.79590945773641
 21
-10.45106137152766
 31
0.0
  0
LINE
  5
242
330
1F
100
AcDbEntity
  8
0
100
AcDbLine
 10
-49.19386418660485
 20
-7.951061371527669
 30
0.0
 11
-52.47345513237846
 21
-7.451061371527681
 31
0.0
  0
LINE
  5
243
330
1F
100
AcDbEntity
  8
0
100
AcDbLine
 10
-49.19386418660485
 20
-3.951061371527643
 30
0.0
 11
-36.0755004035102
 21
-5.951061371527673
 31
0.0
  0
LINE
  5
244
330
1F
100
AcDbEntity
  8
0
100
AcDbLine
 10
-36.0755004035102
 20
-5.951061371527673
 30
0.0
 11
-49.19386418660485
 21
-7.951061371527669
 31
0.0
  0
LINE
  5
245
330
1F
100
AcDbEntity
  8
0
100
AcDbLine
 10
-16.39795472886825
 20
-13.37036137152766
 30
0.0
 11
-29.51631851196289
 21
-11.37036137152766
 31
0.0
  0
LINE
  5
246
330
1F
100
AcDbEntity
  8
0
100
AcDbLine
 10
-29.51631851196289
 20
-11.37036137152766
 30
0.0
 11
-16.39795472886825
 21
-9.370361371527634
 31
0.0
  0
LINE
  5
247
330
1F
100
AcDbEntity
  8
0
100
AcDbLine
 10
-16.39795472886825
 20
-9.370361371527634
 30
0.0
 11
-3.279590945773614
 21
-11.37036137152766
 31
0.0
  0
LINE
  5
248
330
1F
100
AcDbEntity
  8
0
100
AcDbLine
 10
-3.279590945773614
 20
-11.37036137152766
 30
0.0
 11
-16.39795472886825
 21
-13.37036137152766
 31
0.0
  0
LINE
  5
249
330
1F
100
AcDbEntity
  8
0
100
AcDbLine
 10
13.11836378309473
 20
-13.87036137152766
 30
0.0
 11
0.0000000000000902
 21
-11.87036137152766
 31
0.0
  0
LINE
  5
24A
330
1F
100
AcDbEntity
  8
0
100
AcDbLine
 10
0.0000000000000902
 20
-15.87036137152766
 30
0.0
 11
13.11836378309473
 21
-13.87036137152766
 31
0.0
  0
LINE
  5
24B
330
1F
100
AcDbEntity
  8
0
100
AcDbLine
 10
-13.11836378309455
 20
-13.87036137152766
 30
0.0
 11
0.0000000000000902
 21
-15.87036137152766
 31
0.0
  0
LINE
  5
24C
330
1F
100
AcDbEntity
  8
0
100
AcDbLine
 10
0.0000000000000902
 20
-11.87036137152766
 30
0.0
 11
-13.11836378309455
 21
-13.87036137152766
 31
0.0
  0
LINE
  5
24D
330
1F
100
AcDbEntity
  8
0
100
AcDbLine
 10
36.07550040351039
 20
-11.37036137152766
 30
0.0
 11
49.19386418660485
 21
-9.370361371527634
 31
0.0
  0
LINE
  5
24E
330
1F
100
AcDbEntity
  8
0
100
AcDbLine
 10
49.19386418660485
 20
-9.370361371527634
 30
0.0
 11
52.47345513237846
 21
-9.870361371527643
 31
0.0
  0
LINE
  5
24F
330
1F
100
AcDbEntity
  8
0
100
AcDbLine
 10
49.19386418660485
 20
-13.37036137152766
 30
0.0
 11
36.07550040351039
 21
-11.37036137152766
 31
0.0
  0
LINE
  5
250
330
1F
100
AcDbEntity
  8
0
100
AcDbLine
 10
3.279590945773704
 20
-11.37036137152766
 30
0.0
 11
16.39795472886834
 21
-9.370361371527634
 31
0.0
  0
LINE
  5
251
330
1F
100
AcDbEntity
  8
0
100
AcDbLine
 10
16.39795472886834
 20
-9.370361371527634
 30
0.0
 11
29.51631851196298
 21
-11.37036137152766
 31
0.0
  0
LINE
  5
252
330
1F
100
AcDbEntity
  8
0
100
AcDbLine
 10
29.51631851196298
 20
-11.37036137152766
 30
0.0
 11
16.39795472886834
 21
-13.37036137152766
 31
0.0
  0
LINE
  5
253
330
1F
100
AcDbEntity
  8
0
100
AcDbLine
 10
16.39795472886834
 20
-13.37036137152766
 30
0.0
 11
3.279590945773704
 21
-11.37036137152766
 31
0.0
  0
LINE
  5
254
330
1F
100
AcDbEntity
  8
0
100
AcDbLine
 10
32.79590945773641
 20
-15.87036137152766
 30
0.0
 11
19.67754567464196
 21
-13.87036137152766
 31
0.0
  0
LINE
  5
255
330
1F
100
AcDbEntity
  8
0
100
AcDbLine
 10
19.67754567464196
 20
-13.87036137152766
 30
0.0
 11
32.79590945773641
 21
-11.87036137152766
 31
0.0
  0
LINE
  5
256
330
1F
100
AcDbEntity
  8
0
100
AcDbLine
 10
32.79590945773641
 20
-11.87036137152766
 30
0.0
 11
45.91427324083105
 21
-13.87036137152766
 31
0.0
  0
LINE
  5
257
330
1F
100
AcDbEntity
  8
0
100
AcDbLine
 10
45.91427324083105
 20
-13.87036137152766
 30
0.0
 11
32.79590945773641
 21
-15.87036137152766
 31
0.0
  0
LINE
  5
258
330
1F
100
AcDbEntity
  8
0
100
AcDbLine
 10
-49.19386418660485
 20
-13.37036137152766
 30
0.0
 11
-52.47345513237846
 21
-12.87036137152766
 31
0.0
  0
LINE
  5
259
330
1F
100
AcDbEntity
  8
0
100
AcDbLine
 10
-49.19386418660485
 20
-9.370361371527634
 30
0.0
 11
-36.0755004035102
 21
-11.37036137152766
 31
0.0
  0
LINE
  5
25A
330
1F
100
AcDbEntity
  8
0
100
AcDbLine
 10
-36.0755004035102
 20
-11.37036137152766
 30
0.0
 11
-49.19386418660485
 21
-13.37036137152766
 31
0.0
  0
LINE
  5
25B
330
1F
100
AcDbEntity
  8
0
100
AcDbLine
 10
-32.79590945773659
 20
-15.87036137152766
 30
0.0
 11
-19.67754567464196
 21
-13.87036137152766
 31
0.0
  0
LINE
  5
25C
330
1F
100
AcDbEntity
  8
0
100
AcDbLine
 10
-45.91427324083114
 20
-13.87036137152766
 30
0.0
 11
-32.79590945773659
 21
-15.87036137152766
 31
0.0
  0
LINE
  5
25D
330
1F
100
AcDbEntity
  8
0
100
AcDbLine
 10
-32.79590945773659
 20
-11.87036137152766
 30
0.0
 11
-45.91427324083114
 21
-13.87036137152766
 31
0.0
  0
LINE
  5
25E
330
1F
100
AcDbEntity
  8
0
100
AcDbLine
 10
-19.67754567464196
 20
-13.87036137152766
 30
0.0
 11
-32.79590945773659
 21
-11.87036137152766
 31
0.0
  0
LINE
  5
25F
330
1F
100
AcDbEntity
  8
0
100
AcDbLine
 10
13.11836378309473
 20
-19.28966137152765
 30
0.0
 11
0.0000000000000902
 21
-17.28966137152765
 31
0.0
  0
LINE
  5
260
330
1F
100
AcDbEntity
  8
0
100
AcDbLine
 10
0.0000000000000902
 20
-21.28966137152765
 30
0.0
 11
13.11836378309473
 21
-19.28966137152765
 31
0.0
  0
LINE
  5
261
330
1F
100
AcDbEntity
  8
0
100
AcDbLine
 10
-13.11836378309455
 20
-19.28966137152765
 30
0.0
 11
0.0000000000000902
 21
-21.28966137152765
 31
0.0
  0
LINE
  5
262
330
1F
100
AcDbEntity
  8
0
100
AcDbLine
 10
0.0000000000000902
 20
-17.28966137152765
 30
0.0
 11
-13.11836378309455
 21
-19.28966137152765
 31
0.0
  0
LINE
  5
263
330
1F
100
AcDbEntity
  8
0
100
AcDbLine
 10
3.279590945773704
 20
-16.78966137152765
 30
0.0
 11
16.39795472886834
 21
-14.78966137152763
 31
0.0
  0
LINE
  5
264
330
1F
100
AcDbEntity
  8
0
100
AcDbLine
 10
16.39795472886834
 20
-14.78966137152763
 30
0.0
 11
29.51631851196298
 21
-16.78966137152765
 31
0.0
  0
LINE
  5
265
330
1F
100
AcDbEntity
  8
0
100
AcDbLine
 10
29.51631851196298
 20
-16.78966137152765
 30
0.0
 11
16.39795472886834
 21
-18.78966137152765
 31
0.0
  0
LINE
  5
266
330
1F
100
AcDbEntity
  8
0
100
AcDbLine
 10
16.39795472886834
 20
-18.78966137152765
 30
0.0
 11
3.279590945773704
 21
-16.78966137152765
 31
0.0
  0
LINE
  5
267
330
1F
100
AcDbEntity
  8
0
100
AcDbLine
 10
32.79590945773641
 20
-21.28966137152765
 30
0.0
 11
19.67754567464196
 21
-19.28966137152765
 31
0.0
  0
LINE
  5
268
330
1F
100
AcDbEntity
  8
0
100
AcDbLine
 10
19.67754567464196
 20
-19.28966137152765
 30
0.0
 11
32.79590945773641
 21
-17.28966137152765
 31
0.0
  0
LINE
  5
269
330
1F
100
AcDbEntity
  8
0
100
AcDbLine
 10
32.79590945773641
 20
-17.28966137152765
 30
0.0
 11
45.91427324083105
 21
-19.28966137152765
 31
0.0
  0
LINE
  5
26A
330
1F
100
AcDbEntity
  8
0
100
AcDbLine
 10
45.91427324083105
 20
-19.28966137152765
 30
0.0
 11
32.79590945773641
 21
-21.28966137152765
 31
0.0
  0
LINE
  5
26B
330
1F
100
AcDbEntity
  8
0
100
AcDbLine
 10
-49.19386418660485
 20
-18.78966137152765
 30
0.0
 11
-52.47345513237846
 21
-18.28966137152766
 31
0.0
  0
LINE
  5
26C
330
1F
100
AcDbEntity
  8
0
100
AcDbLine
 10
-49.19386418660485
 20
-14.78966137152763
 30
0.0
 11
-36.0755004035102
 21
-16.78966137152765
 31
0.0
  0
LINE
  5
26D
330
1F
100
AcDbEntity
  8
0
100
AcDbLine
 10
-36.0755004035102
 20
-16.78966137152765
 30
0.0
 11
-49.19386418660485
 21
-18.78966137152765
 31
0.0
  0
LINE
  5
26E
330
1F
100
AcDbEntity
  8
0
100
AcDbLine
 10
-32.79590945773659
 20
-21.28966137152765
 30
0.0
 11
-19.67754567464196
 21
-19.28966137152765
 31
0.0
  0
LINE
  5
26F
330
1F
100
AcDbEntity
  8
0
100
AcDbLine
 10
-45.91427324083114
 20
-19.28966137152765
 30
0.0
 11
-32.79590945773659
 21
-21.28966137152765
 31
0.0
  0
LINE
  5
270
330
1F
100
AcDbEntity
  8
0
100
AcDbLine
 10
-32.79590945773659
 20
-17.28966137152765
 30
0.0
 11
-45.91427324083114
 21
-19.28966137152765
 31
0.0
  0
LINE
  5
271
330
1F
100
AcDbEntity
  8
0
100
AcDbLine
 10
-19.67754567464196
 20
-19.28966137152765
 30
0.0
 11
-32.79590945773659
 21
-17.28966137152765
 31
0.0
  0
LINE
  5
272
330
1F
100
AcDbEntity
  8
0
100
AcDbLine
 10
36.07550040351039
 20
-16.78966137152765
 30
0.0
 11
49.19386418660485
 21
-14.78966137152763
 31
0.0
  0
LINE
  5
273
330
1F
100
AcDbEntity
  8
0
100
AcDbLine
 10
49.19386418660485
 20
-14.78966137152763
 30
0.0
 11
52.47345513237846
 21
-15.28966137152762
 31
0.0
  0
LINE
  5
274
330
1F
100
AcDbEntity
  8
0
100
AcDbLine
 10
49.19386418660485
 20
-18.78966137152765
 30
0.0
 11
36.07550040351039
 21
-16.78966137152765
 31
0.0
  0
LINE
  5
275
330
1F
100
AcDbEntity
  8
0
100
AcDbLine
 10
-16.39795472886825
 20
-18.78966137152765
 30
0.0
 11
-29.51631851196289
 21
-16.78966137152765
 31
0.0
  0
LINE
  5
276
330
1F
100
AcDbEntity
  8
0
100
AcDbLine
 10
-29.51631851196289
 20
-16.78966137152765
 30
0.0
 11
-16.39795472886825
 21
-14.78966137152763
 31
0.0
  0
LINE
  5
277
330
1F
100
AcDbEntity
  8
0
100
AcDbLine
 10
-16.39795472886825
 20
-14.78966137152763
 30
0.0
 11
-3.279590945773614
 21
-16.78966137152765
 31
0.0
  0
LINE
  5
278
330
1F
100
AcDbEntity
  8
0
100
AcDbLine
 10
-3.279590945773614
 20
-16.78966137152765
 30
0.0
 11
-16.39795472886825
 21
-18.78966137152765
 31
0.0
  0
LINE
  5
279
330
1F
100
AcDbEntity
  8
0
100
AcDbLine
 10
36.07550040351039
 20
-22.20896137152765
 30
0.0
 11
49.19386418660485
 21
-20.20896137152761
 31
0.0
  0
LINE
  5
27A
330
1F
100
AcDbEntity
  8
0
100
AcDbLine
 10
49.19386418660485
 20
-20.20896137152761
 30
0.0
 11
52.47345513237846
 21
-20.70896137152761
 31
0.0
  0
LINE
  5
27B
330
1F
100
AcDbEntity
  8
0
100
AcDbLine
 10
49.19386418660485
 20
-24.20896137152764
 30
0.0
 11
36.07550040351039
 21
-22.20896137152765
 31
0.0
  0
LINE
  5
27C
330
1F
100
AcDbEntity
  8
0
100
AcDbLine
 10
13.11836378309473
 20
-24.70896137152764
 30
0.0
 11
0.0000000000000902
 21
-22.70896137152765
 31
0.0
  0
LINE
  5
27D
330
1F
100
AcDbEntity
  8
0
100
AcDbLine
 10
0.0000000000000902
 20
-26.70896137152764
 30
0.0
 11
13.11836378309473
 21
-24.70896137152764
 31
0.0
  0
LINE
  5
27E
330
1F
100
AcDbEntity
  8
0
100
AcDbLine
 10
-13.11836378309455
 20
-24.70896137152764
 30
0.0
 11
0.0000000000000902
 21
-26.70896137152764
 31
0.0
  0
LINE
  5
27F
330
1F
100
AcDbEntity
  8
0
100
AcDbLine
 10
0.0000000000000902
 20
-22.70896137152765
 30
0.0
 11
-13.11836378309455
 21
-24.70896137152764
 31
0.0
  0
LINE
  5
280
330
1F
100
AcDbEntity
  8
0
100
AcDbLine
 10
3.279590945773704
 20
-22.20896137152765
 30
0.0
 11
16.39795472886834
 21
-20.20896137152761
 31
0.0
  0
LINE
  5
281
330
1F
100
AcDbEntity
  8
0
100
AcDbLine
 10
16.39795472886834
 20
-20.20896137152761
 30
0.0
 11
29.51631851196298
 21
-22.20896137152765
 31
0.0
  0
LINE
  5
282
330
1F
100
AcDbEntity
  8
0
100
AcDbLine
 10
29.51631851196298
 20
-22.20896137152765
 30
0.0
 11
16.39795472886834
 21
-24.20896137152764
 31
0.0
  0
LINE
  5
283
330
1F
100
AcDbEntity
  8
0
100
AcDbLine
 10
16.39795472886834
 20
-24.20896137152764
 30
0.0
 11
3.279590945773704
 21
-22.20896137152765
 31
0.0
  0
LINE
  5
284
330
1F
100
AcDbEntity
  8
0
100
AcDbLine
 10
32.79590945773641
 20
-26.70896137152764
 30
0.0
 11
19.67754567464196
 21
-24.70896137152764
 31
0.0
  0
LINE
  5
285
330
1F
100
AcDbEntity
  8
0
100
AcDbLine
 10
19.67754567464196
 20
-24.70896137152764
 30
0.0
 11
32.79590945773641
 21
-22.70896137152765
 31
0.0
  0
LINE
  5
286
330
1F
100
AcDbEntity
  8
0
100
AcDbLine
 10
32.79590945773641
 20
-22.70896137152765
 30
0.0
 11
45.91427324083105
 21
-24.70896137152764
 31
0.0
  0
LINE
  5
287
330
1F
100
AcDbEntity
  8
0
100
AcDbLine
 10
45.91427324083105
 20
-24.70896137152764
 30
0.0
 11
32.79590945773641
 21
-26.70896137152764
 31
0.0
  0
LINE
  5
288
330
1F
100
AcDbEntity
  8
0
100
AcDbLine
 10
-49.19386418660485
 20
-24.20896137152764
 30
0.0
 11
-52.47345513237846
 21
-23.70896137152764
 31
0.0
  0
LINE
  5
289
330
1F
100
AcDbEntity
  8
0
100
AcDbLine
 10
-49.19386418660485
 20
-20.20896137152761
 30
0.0
 11
-36.0755004035102
 21
-22.20896137152765
 31
0.0
  0
LINE
  5
28A
330
1F
100
AcDbEntity
  8
0
100
AcDbLine
 10
-36.0755004035102
 20
-22.20896137152765
 30
0.0
 11
-49.19386418660485
 21
-24.20896137152764
 31
0.0
  0
LINE
  5
28B
330
1F
100
AcDbEntity
  8
0
100
AcDbLine
 10
-32.79590945773659
 20
-26.70896137152764
 30
0.0
 11
-19.67754567464196
 21
-24.70896137152764
 31
0.0
  0
LINE
  5
28C
330
1F
100
AcDbEntity
  8
0
100
AcDbLine
 10
-45.91427324083114
 20
-24.70896137152764
 30
0.0
 11
-32.79590945773659
 21
-26.70896137152764
 31
0.0
  0
LINE
  5
28D
330
1F
100
AcDbEntity
  8
0
100
AcDbLine
 10
-32.79590945773659
 20
-22.70896137152765
 30
0.0
 11
-45.91427324083114
 21
-24.70896137152764
 31
0.0
  0
LINE
  5
28E
330
1F
100
AcDbEntity
  8
0
100
AcDbLine
 10
-19.67754567464196
 20
-24.70896137152764
 30
0.0
 11
-32.79590945773659
 21
-22.70896137152765
 31
0.0
  0
LINE
  5
28F
330
1F
100
AcDbEntity
  8
0
100
AcDbLine
 10
-16.39795472886825
 20
-24.20896137152764
 30
0.0
 11
-29.51631851196289
 21
-22.20896137152765
 31
0.0
  0
LINE
  5
290
330
1F
100
AcDbEntity
  8
0
100
AcDbLine
 10
-29.51631851196289
 20
-22.20896137152765
 30
0.0
 11
-16.39795472886825
 21
-20.20896137152761
 31
0.0
  0
LINE
  5
291
330
1F
100
AcDbEntity
  8
0
100
AcDbLine
 10
-16.39795472886825
 20
-20.20896137152761
 30
0.0
 11
-3.279590945773614
 21
-22.20896137152765
 31
0.0
  0
LINE
  5
292
330
1F
100
AcDbEntity
  8
0
100
AcDbLine
 10
-3.279590945773614
 20
-22.20896137152765
 30
0.0
 11
-16.39795472886825
 21
-24.20896137152764
 31
0.0
  0
LINE
  5
293
330
1F
100
AcDbEntity
  8
0
100
AcDbLine
 10
-16.39795472886825
 20
-29.62826137152764
 30
0.0
 11
-29.51631851196289
 21
-27.62826137152764
 31
0.0
  0
LINE
  5
294
330
1F
100
AcDbEntity
  8
0
100
AcDbLine
 10
-29.51631851196289
 20
-27.62826137152764
 30
0.0
 11
-16.39795472886825
 21
-25.62826137152761
 31
0.0
  0
LINE
  5
295
330
1F
100
AcDbEntity
  8
0
100
AcDbLine
 10
-16.39795472886825
 20
-25.62826137152761
 30
0.0
 11
-3.279590945773614
 21
-27.62826137152764
 31
0.0
  0
LINE
  5
296
330
1F
100
AcDbEntity
  8
0
100
AcDbLine
 10
-3.279590945773614
 20
-27.62826137152764
 30
0.0
 11
-16.39795472886825
 21
-29.62826137152764
 31
0.0
  0
LINE
  5
297
330
1F
100
AcDbEntity
  8
0
100
AcDbLine
 10
36.07550040351039
 20
-27.62826137152764
 30
0.0
 11
49.19386418660485
 21
-25.62826137152761
 31
0.0
  0
LINE
  5
298
330
1F
100
AcDbEntity
  8
0
100
AcDbLine
 10
49.19386418660485
 20
-25.62826137152761
 30
0.0
 11
52.47345513237846
 21
-26.1282613715276
 31
0.0
  0
LINE
  5
299
330
1F
100
AcDbEntity
  8
0
100
AcDbLine
 10
49.19386418660485
 20
-29.62826137152764
 30
0.0
 11
36.07550040351039
 21
-27.62826137152764
 31
0.0
  0
LINE
  5
29A
330
1F
100
AcDbEntity
  8
0
100
AcDbLine
 10
13.11836378309473
 20
-30.12826137152763
 30
0.0
 11
0.0000000000000902
 21
-28.12826137152764
 31
0.0
  0
LINE
  5
29B
330
1F
100
AcDbEntity
  8
0
100
AcDbLine
 10
0.0000000000000902
 20
-32.12826137152763
 30
0.0
 11
13.11836378309473
 21
-30.12826137152763
 31
0.0
  0
LINE
  5
29C
330
1F
100
AcDbEntity
  8
0
100
AcDbLine
 10
-13.11836378309455
 20
-30.12826137152763
 30
0.0
 11
0.0000000000000902
 21
-32.12826137152763
 31
0.0
  0
LINE
  5
29D
330
1F
100
AcDbEntity
  8
0
100
AcDbLine
 10
0.0000000000000902
 20
-28.12826137152764
 30
0.0
 11
-13.11836378309455
 21
-30.12826137152763
 31
0.0
  0
LINE
  5
29E
330
1F
100
AcDbEntity
  8
0
100
AcDbLine
 10
-32.79590945773659
 20
-32.12826137152763
 30
0.0
 11
-19.67754567464196
 21
-30.12826137152763
 31
0.0
  0
LINE
  5
29F
330
1F
100
AcDbEntity
  8
0
100
AcDbLine
 10
-45.91427324083114
 20
-30.12826137152763
 30
0.0
 11
-32.79590945773659
 21
-32.12826137152763
 31
0.0
  0
LINE
  5
2A0
330
1F
100
AcDbEntity
  8
0
100
AcDbLine
 10
-32.79590945773659
 20
-28.12826137152764
 30
0.0
 11
-45.91427324083114
 21
-30.12826137152763
 31
0.0
  0
LINE
  5
2A1
330
1F
100
AcDbEntity
  8
0
100
AcDbLine
 10
-19.67754567464196
 20
-30.12826137152763
 30
0.0
 11
-32.79590945773659
 21
-28.12826137152764
 31
0.0
  0
LINE
  5
2A2
330
1F
100
AcDbEntity
  8
0
100
AcDbLine
 10
32.79590945773641
 20
-32.12826137152763
 30
0.0
 11
19.67754567464196
 21
-30.12826137152763
 31
0.0
  0
LINE
  5
2A3
330
1F
100
AcDbEntity
  8
0
100
AcDbLine
 10
19.67754567464196
 20
-30.12826137152763
 30
0.0
 11
32.79590945773641
 21
-28.12826137152764
 31
0.0
  0
LINE
  5
2A4
330
1F
100
AcDbEntity
  8
0
100
AcDbLine
 10
32.79590945773641
 20
-28.12826137152764
 30
0.0
 11
45.91427324083105
 21
-30.12826137152763
 31
0.0
  0
LINE
  5
2A5
330
1F
100
AcDbEntity
  8
0
100
AcDbLine
 10
45.91427324083105
 20
-30.12826137152763
 30
0.0
 11
32.79590945773641
 21
-32.12826137152763
 31
0.0
  0
LINE
  5
2A6
330
1F
100
AcDbEntity
  8
0
100
AcDbLine
 10
3.279590945773704
 20
-27.62826137152764
 30
0.0
 11
16.39795472886834
 21
-25.62826137152761
 31
0.0
  0
LINE
  5
2A7
330
1F
100
AcDbEntity
  8
0
100
AcDbLine
 10
16.39795472886834
 20
-25.62826137152761
 30
0.0
 11
29.51631851196298
 21
-27.62826137152764
 31
0.0
  0
LINE
  5
2A8
330
1F
100
AcDbEntity
  8
0
100
AcDbLine
 10
29.51631851196298
 20
-27.62826137152764
 30
0.0
 11
16.39795472886834
 21
-29.62826137152764
 31
0.0
  0
LINE
  5
2A9
330
1F
100
AcDbEntity
  8
0
100
AcDbLine
 10
16.39795472886834
 20
-29.62826137152764
 30
0.0
 11
3.279590945773704
 21
-27.62826137152764
 31
0.0
  0
LINE
  5
2AA
330
1F
100
AcDbEntity
  8
0
100
AcDbLine
 10
-49.19386418660485
 20
-29.62826137152764
 30
0.0
 11
-52.47345513237846
 21
-29.12826137152763
 31
0.0
  0
LINE
  5
2AB
330
1F
100
AcDbEntity
  8
0
100
AcDbLine
 10
-49.19386418660485
 20
-25.62826137152761
 30
0.0
 11
-36.0755004035102
 21
-27.62826137152764
 31
0.0
  0
LINE
  5
2AC
330
1F
100
AcDbEntity
  8
0
100
AcDbLine
 10
-36.0755004035102
 20
-27.62826137152764
 30
0.0
 11
-49.19386418660485
 21
-29.62826137152764
 31
0.0
  0
LINE
  5
2AD
330
1F
100
AcDbEntity
  8
0
100
AcDbLine
 10
-16.39795472886825
 20
-35.04756137152763
 30
0.0
 11
-29.51631851196289
 21
-33.04756137152763
 31
0.0
  0
LINE
  5
2AE
330
1F
100
AcDbEntity
  8
0
100
AcDbLine
 10
-29.51631851196289
 20
-33.04756137152763
 30
0.0
 11
-16.39795472886825
 21
-31.0475613715276
 31
0.0
  0
LINE
  5
2AF
330
1F
100
AcDbEntity
  8
0
100
AcDbLine
 10
-16.39795472886825
 20
-31.0475613715276
 30
0.0
 11
-3.279590945773614
 21
-33.04756137152763
 31
0.0
  0
LINE
  5
2B0
330
1F
100
AcDbEntity
  8
0
100
AcDbLine
 10
-3.279590945773614
 20
-33.04756137152763
 30
0.0
 11
-16.39795472886825
 21
-35.04756137152763
 31
0.0
  0
LINE
  5
2B1
330
1F
100
AcDbEntity
  8
0
100
AcDbLine
 10
-49.19386418660485
 20
-35.04756137152763
 30
0.0
 11
-52.47345513237846
 21
-34.54756137152763
 31
0.0
  0
LINE
  5
2B2
330
1F
100
AcDbEntity
  8
0
100
AcDbLine
 10
-49.19386418660485
 20
-31.0475613715276
 30
0.0
 11
-36.0755004035102
 21
-33.04756137152763
 31
0.0
  0
LINE
  5
2B3
330
1F
100
AcDbEntity
  8
0
100
AcDbLine
 10
-36.0755004035102
 20
-33.04756137152763
 30
0.0
 11
-49.19386418660485
 21
-35.04756137152763
 31
0.0
  0
LINE
  5
2B4
330
1F
100
AcDbEntity
  8
0
100
AcDbLine
 10
32.79590945773641
 20
-37.54756137152762
 30
0.0
 11
19.67754567464196
 21
-35.54756137152762
 31
0.0
  0
LINE
  5
2B5
330
1F
100
AcDbEntity
  8
0
100
AcDbLine
 10
19.67754567464196
 20
-35.54756137152762
 30
0.0
 11
32.79590945773641
 21
-33.54756137152763
 31
0.0
  0
LINE
  5
2B6
330
1F
100
AcDbEntity
  8
0
100
AcDbLine
 10
32.79590945773641
 20
-33.54756137152763
 30
0.0
 11
45.91427324083105
 21
-35.54756137152762
 31
0.0
  0
LINE
  5
2B7
330
1F
100
AcDbEntity
  8
0
100
AcDbLine
 10
45.91427324083105
 20
-35.54756137152762
 30
0.0
 11
32.79590945773641
 21
-37.54756137152762
 31
0.0
  0
LINE
  5
2B8
330
1F
100
AcDbEntity
  8
0
100
AcDbLine
 10
36.07550040351039
 20
-33.04756137152763
 30
0.0
 11
49.19386418660485
 21
-31.0475613715276
 31
0.0
  0
LINE
  5
2B9
330
1F
100
AcDbEntity
  8
0
100
AcDbLine
 10
49.19386418660485
 20
-31.0475613715276
 30
0.0
 11
52.47345513237846
 21
-31.54756137152759
 31
0.0
  0
LINE
  5
2BA
330
1F
100
AcDbEntity
  8
0
100
AcDbLine
 10
49.19386418660485
 20
-35.04756137152763
 30
0.0
 11
36.07550040351039
 21
-33.04756137152763
 31
0.0
  0
LINE
  5
2BB
330
1F
100
AcDbEntity
  8
0
100
AcDbLine
 10
13.11836378309473
 20
-35.54756137152762
 30
0.0
 11
0.0000000000000902
 21
-33.54756137152763
 31
0.0
  0
LINE
  5
2BC
330
1F
100
AcDbEntity
  8
0
100
AcDbLine
 10
0.0000000000000902
 20
-37.54756137152762
 30
0.0
 11
13.11836378309473
 21
-35.54756137152762
 31
0.0
  0
LINE
  5
2BD
330
1F
100
AcDbEntity
  8
0
100
AcDbLine
 10
-13.11836378309455
 20
-35.54756137152762
 30
0.0
 11
0.0000000000000902
 21
-37.54756137152762
 31
0.0
  0
LINE
  5
2BE
330
1F
100
AcDbEntity
  8
0
100
AcDbLine
 10
0.0000000000000902
 20
-33.54756137152763
 30
0.0
 11
-13.11836378309455
 21
-35.54756137152762
 31
0.0
  0
LINE
  5
2BF
330
1F
100
AcDbEntity
  8
0
100
AcDbLine
 10
-32.79590945773659
 20
-37.54756137152762
 30
0.0
 11
-19.67754567464196
 21
-35.54756137152762
 31
0.0
  0
LINE
  5
2C0
330
1F
100
AcDbEntity
  8
0
100
AcDbLine
 10
-45.91427324083114
 20
-35.54756137152762
 30
0.0
 11
-32.79590945773659
 21
-37.54756137152762
 31
0.0
  0
LINE
  5
2C1
330
1F
100
AcDbEntity
  8
0
100
AcDbLine
 10
-32.79590945773659
 20
-33.54756137152763
 30
0.0
 11
-45.91427324083114
 21
-35.54756137152762
 31
0.0
  0
LINE
  5
2C2
330
1F
100
AcDbEntity
  8
0
100
AcDbLine
 10
-19.67754567464196
 20
-35.54756137152762
 30
0.0
 11
-32.79590945773659
 21
-33.54756137152763
 31
0.0
  0
LINE
  5
2C3
330
1F
100
AcDbEntity
  8
0
100
AcDbLine
 10
3.279590945773704
 20
-33.04756137152763
 30
0.0
 11
16.39795472886834
 21
-31.0475613715276
 31
0.0
  0
LINE
  5
2C4
330
1F
100
AcDbEntity
  8
0
100
AcDbLine
 10
16.39795472886834
 20
-31.0475613715276
 30
0.0
 11
29.51631851196298
 21
-33.04756137152763
 31
0.0
  0
LINE
  5
2C5
330
1F
100
AcDbEntity
  8
0
100
AcDbLine
 10
29.51631851196298
 20
-33.04756137152763
 30
0.0
 11
16.39795472886834
 21
-35.04756137152763
 31
0.0
  0
LINE
  5
2C6
330
1F
100
AcDbEntity
  8
0
100
AcDbLine
 10
16.39795472886834
 20
-35.04756137152763
 30
0.0
 11
3.279590945773704
 21
-33.04756137152763
 31
0.0
  0
LINE
  5
2C7
330
1F
100
AcDbEntity
  8
0
100
AcDbLine
 10
36.07550040351039
 20
-38.46686137152762
 30
0.0
 11
49.19386418660485
 21
-36.46686137152759
 31
0.0
  0
LINE
  5
2C8
330
1F
100
AcDbEntity
  8
0
100
AcDbLine
 10
49.19386418660485
 20
-36.46686137152759
 30
0.0
 11
52.47345513237846
 21
-36.96686137152758
 31
0.0
  0
LINE
  5
2C9
330
1F
100
AcDbEntity
  8
0
100
AcDbLine
 10
49.19386418660485
 20
-40.46686137152761
 30
0.0
 11
36.07550040351039
 21
-38.46686137152762
 31
0.0
  0
LINE
  5
2CA
330
1F
100
AcDbEntity
  8
0
100
AcDbLine
 10
-32.79590945773659
 20
-42.96686137152761
 30
0.0
 11
-19.67754567464196
 21
-40.96686137152761
 31
0.0
  0
LINE
  5
2CB
330
1F
100
AcDbEntity
  8
0
100
AcDbLine
 10
-45.91427324083114
 20
-40.96686137152761
 30
0.0
 11
-32.79590945773659
 21
-42.96686137152761
 31
0.0
  0
LINE
  5
2CC
330
1F
100
AcDbEntity
  8
0
100
AcDbLine
 10
-32.79590945773659
 20
-38.96686137152762
 30
0.0
 11
-45.91427324083114
 21
-40.96686137152761
 31
0.0
  0
LINE
  5
2CD
330
1F
100
AcDbEntity
  8
0
100
AcDbLine
 10
-19.67754567464196
 20
-40.96686137152761
 30
0.0
 11
-32.79590945773659
 21
-38.96686137152762
 31
0.0
  0
LINE
  5
2CE
330
1F
100
AcDbEntity
  8
0
100
AcDbLine
 10
3.279590945773704
 20
-38.46686137152762
 30
0.0
 11
16.39795472886834
 21
-36.46686137152759
 31
0.0
  0
LINE
  5
2CF
330
1F
100
AcDbEntity
  8
0
100
AcDbLine
 10
16.39795472886834
 20
-36.46686137152759
 30
0.0
 11
29.51631851196298
 21
-38.46686137152762
 31
0.0
  0
LINE
  5
2D0
330
1F
100
AcDbEntity
  8
0
100
AcDbLine
 10
29.51631851196298
 20
-38.46686137152762
 30
0.0
 11
16.39795472886834
 21
-40.46686137152761
 31
0.0
  0
LINE
  5
2D1
330
1F
100
AcDbEntity
  8
0
100
AcDbLine
 10
16.39795472886834
 20
-40.46686137152761
 30
0.0
 11
3.279590945773704
 21
-38.46686137152762
 31
0.0
  0
LINE
  5
2D2
330
1F
100
AcDbEntity
  8
0
100
AcDbLine
 10
13.11836378309473
 20
-40.96686137152761
 30
0.0
 11
0.0000000000000902
 21
-38.96686137152762
 31
0.0
  0
LINE
  5
2D3
330
1F
100
AcDbEntity
  8
0
100
AcDbLine
 10
0.0000000000000902
 20
-42.96686137152761
 30
0.0
 11
13.11836378309473
 21
-40.96686137152761
 31
0.0
  0
LINE
  5
2D4
330
1F
100
AcDbEntity
  8
0
100
AcDbLine
 10
-13.11836378309455
 20
-40.96686137152761
 30
0.0
 11
0.0000000000000902
 21
-42.96686137152761
 31
0.0
  0
LINE
  5
2D5
330
1F
100
AcDbEntity
  8
0
100
AcDbLine
 10
0.0000000000000902
 20
-38.96686137152762
 30
0.0
 11
-13.11836378309455
 21
-40.96686137152761
 31
0.0
  0
LINE
  5
2D6
330
1F
100
AcDbEntity
  8
0
100
AcDbLine
 10
32.79590945773641
 20
-42.96686137152761
 30
0.0
 11
19.67754567464196
 21
-40.96686137152761
 31
0.0
  0
LINE
  5
2D7
330
1F
100
AcDbEntity
  8
0
100
AcDbLine
 10
19.67754567464196
 20
-40.96686137152761
 30
0.0
 11
32.79590945773641
 21
-38.96686137152762
 31
0.0
  0
LINE
  5
2D8
330
1F
100
AcDbEntity
  8
0
100
AcDbLine
 10
32.79590945773641
 20
-38.96686137152762
 30
0.0
 11
45.91427324083105
 21
-40.96686137152761
 31
0.0
  0
LINE
  5
2D9
330
1F
100
AcDbEntity
  8
0
100
AcDbLine
 10
45.91427324083105
 20
-40.96686137152761
 30
0.0
 11
32.79590945773641
 21
-42.96686137152761
 31
0.0
  0
LINE
  5
2DA
330
1F
100
AcDbEntity
  8
0
100
AcDbLine
 10
-16.39795472886825
 20
-40.46686137152761
 30
0.0
 11
-29.51631851196289
 21
-38.46686137152762
 31
0.0
  0
LINE
  5
2DB
330
1F
100
AcDbEntity
  8
0
100
AcDbLine
 10
-29.51631851196289
 20
-38.46686137152762
 30
0.0
 11
-16.39795472886825
 21
-36.46686137152759
 31
0.0
  0
LINE
  5
2DC
330
1F
100
AcDbEntity
  8
0
100
AcDbLine
 10
-16.39795472886825
 20
-36.46686137152759
 30
0.0
 11
-3.279590945773614
 21
-38.46686137152762
 31
0.0
  0
LINE
  5
2DD
330
1F
100
AcDbEntity
  8
0
100
AcDbLine
 10
-3.279590945773614
 20
-38.46686137152762
 30
0.0
 11
-16.39795472886825
 21
-40.46686137152761
 31
0.0
  0
LINE
  5
2DE
330
1F
100
AcDbEntity
  8
0
100
AcDbLine
 10
-49.19386418660485
 20
-40.46686137152761
 30
0.0
 11
-52.47345513237846
 21
-39.96686137152764
 31
0.0
  0
LINE
  5
2DF
330
1F
100
AcDbEntity
  8
0
100
AcDbLine
 10
-49.19386418660485
 20
-36.46686137152759
 30
0.0
 11
-36.0755004035102
 21
-38.46686137152762
 31
0.0
  0
LINE
  5
2E0
330
1F
100
AcDbEntity
  8
0
100
AcDbLine
 10
-36.0755004035102
 20
-38.46686137152762
 30
0.0
 11
-49.19386418660485
 21
-40.46686137152761
 31
0.0
  0
LINE
  5
2E1
330
1F
100
AcDbEntity
  8
0
100
AcDbLine
 10
-49.19386418660485
 20
-45.88616137152761
 30
0.0
 11
-52.47345513237846
 21
-45.38616137152762
 31
0.0
  0
LINE
  5
2E2
330
1F
100
AcDbEntity
  8
0
100
AcDbLine
 10
-49.19386418660485
 20
-41.88616137152758
 30
0.0
 11
-36.0755004035102
 21
-43.88616137152761
 31
0.0
  0
LINE
  5
2E3
330
1F
100
AcDbEntity
  8
0
100
AcDbLine
 10
-36.0755004035102
 20
-43.88616137152761
 30
0.0
 11
-49.19386418660485
 21
-45.88616137152761
 31
0.0
  0
LINE
  5
2E4
330
1F
100
AcDbEntity
  8
0
100
AcDbLine
 10
36.07550040351039
 20
-43.88616137152761
 30
0.0
 11
49.19386418660485
 21
-41.88616137152758
 31
0.0
  0
LINE
  5
2E5
330
1F
100
AcDbEntity
  8
0
100
AcDbLine
 10
49.19386418660485
 20
-41.88616137152758
 30
0.0
 11
52.47345513237846
 21
-42.38616137152756
 31
0.0
  0
LINE
  5
2E6
330
1F
100
AcDbEntity
  8
0
100
AcDbLine
 10
49.19386418660485
 20
-45.88616137152761
 30
0.0
 11
36.07550040351039
 21
-43.88616137152761
 31
0.0
  0
LINE
  5
2E7
330
1F
100
AcDbEntity
  8
0
100
AcDbLine
 10
-32.79590945773659
 20
-48.38616137152761
 30
0.0
 11
-19.67754567464196
 21
-46.38616137152761
 31
0.0
  0
LINE
  5
2E8
330
1F
100
AcDbEntity
  8
0
100
AcDbLine
 10
-45.91427324083114
 20
-46.38616137152761
 30
0.0
 11
-32.79590945773659
 21
-48.38616137152761
 31
0.0
  0
LINE
  5
2E9
330
1F
100
AcDbEntity
  8
0
100
AcDbLine
 10
-32.79590945773659
 20
-44.38616137152761
 30
0.0
 11
-45.91427324083114
 21
-46.38616137152761
 31
0.0
  0
LINE
  5
2EA
330
1F
100
AcDbEntity
  8
0
100
AcDbLine
 10
-19.67754567464196
 20
-46.38616137152761
 30
0.0
 11
-32.79590945773659
 21
-44.38616137152761
 31
0.0
  0
LINE
  5
2EB
330
1F
100
AcDbEntity
  8
0
100
AcDbLine
 10
3.279590945773704
 20
-43.88616137152761
 30
0.0
 11
16.39795472886834
 21
-41.88616137152758
 31
0.0
  0
LINE
  5
2EC
330
1F
100
AcDbEntity
  8
0
100
AcDbLine
 10
16.39795472886834
 20
-41.88616137152758
 30
0.0
 11
29.51631851196298
 21
-43.88616137152761
 31
0.0
  0
LINE
  5
2ED
330
1F
100
AcDbEntity
  8
0
100
AcDbLine
 10
29.51631851196298
 20
-43.88616137152761
 30
0.0
 11
16.39795472886834
 21
-45.88616137152761
 31
0.0
  0
LINE
  5
2EE
330
1F
100
AcDbEntity
  8
0
100
AcDbLine
 10
16.39795472886834
 20
-45.88616137152761
 30
0.0
 11
3.279590945773704
 21
-43.88616137152761
 31
0.0
  0
LINE
  5
2EF
330
1F
100
AcDbEntity
  8
0
100
AcDbLine
 10
13.11836378309473
 20
-46.38616137152761
 30
0.0
 11
0.0000000000000902
 21
-44.38616137152761
 31
0.0
  0
LINE
  5
2F0
330
1F
100
AcDbEntity
  8
0
100
AcDbLine
 10
0.0000000000000902
 20
-48.38616137152761
 30
0.0
 11
13.11836378309473
 21
-46.38616137152761
 31
0.0
  0
LINE
  5
2F1
330
1F
100
AcDbEntity
  8
0
100
AcDbLine
 10
-13.11836378309455
 20
-46.38616137152761
 30
0.0
 11
0.0000000000000902
 21
-48.38616137152761
 31
0.0
  0
LINE
  5
2F2
330
1F
100
AcDbEntity
  8
0
100
AcDbLine
 10
0.0000000000000902
 20
-44.38616137152761
 30
0.0
 11
-13.11836378309455
 21
-46.38616137152761
 31
0.0
  0
LINE
  5
2F3
330
1F
100
AcDbEntity
  8
0
100
AcDbLine
 10
32.79590945773641
 20
-48.38616137152761
 30
0.0
 11
19.67754567464196
 21
-46.38616137152761
 31
0.0
  0
LINE
  5
2F4
330
1F
100
AcDbEntity
  8
0
100
AcDbLine
 10
19.67754567464196
 20
-46.38616137152761
 30
0.0
 11
32.79590945773641
 21
-44.38616137152761
 31
0.0
  0
LINE
  5
2F5
330
1F
100
AcDbEntity
  8
0
100
AcDbLine
 10
32.79590945773641
 20
-44.38616137152761
 30
0.0
 11
45.91427324083105
 21
-46.38616137152761
 31
0.0
  0
LINE
  5
2F6
330
1F
100
AcDbEntity
  8
0
100
AcDbLine
 10
45.91427324083105
 20
-46.38616137152761
 30
0.0
 11
32.79590945773641
 21
-48.38616137152761
 31
0.0
  0
LINE
  5
2F7
330
1F
100
AcDbEntity
  8
0
100
AcDbLine
 10
-16.39795472886825
 20
-45.88616137152761
 30
0.0
 11
-29.51631851196289
 21
-43.88616137152761
 31
0.0
  0
LINE
  5
2F8
330
1F
100
AcDbEntity
  8
0
100
AcDbLine
 10
-29.51631851196289
 20
-43.88616137152761
 30
0.0
 11
-16.39795472886825
 21
-41.88616137152758
 31
0.0
  0
LINE
  5
2F9
330
1F
100
AcDbEntity
  8
0
100
AcDbLine
 10
-16.39795472886825
 20
-41.88616137152758
 30
0.0
 11
-3.279590945773614
 21
-43.88616137152761
 31
0.0
  0
LINE
  5
2FA
330
1F
100
AcDbEntity
  8
0
100
AcDbLine
 10
-3.279590945773614
 20
-43.88616137152761
 30
0.0
 11
-16.39795472886825
 21
-45.88616137152761
 31
0.0
  0
LINE
  5
2FB
330
1F
100
AcDbEntity
  8
0
100
AcDbLine
 10
-49.19386418660485
 20
-51.3054613715276
 30
0.0
 11
-52.47345513237846
 21
-50.8054613715276
 31
0.0
  0
LINE
  5
2FC
330
1F
100
AcDbEntity
  8
0
100
AcDbLine
 10
-49.19386418660485
 20
-47.30546137152757
 30
0.0
 11
-36.0755004035102
 21
-49.3054613715276
 31
0.0
  0
LINE
  5
2FD
330
1F
100
AcDbEntity
  8
0
100
AcDbLine
 10
-36.0755004035102
 20
-49.3054613715276
 30
0.0
 11
-49.19386418660485
 21
-51.3054613715276
 31
0.0
  0
LINE
  5
2FE
330
1F
100
AcDbEntity
  8
0
100
AcDbLine
 10
13.11836378309473
 20
-51.8054613715276
 30
0.0
 11
0.0000000000000902
 21
-49.8054613715276
 31
0.0
  0
LINE
  5
2FF
330
1F
100
AcDbEntity
  8
0
100
AcDbLine
 10
0.0000000000000902
 20
-53.80546137152759
 30
0.0
 11
13.11836378309473
 21
-51.8054613715276
 31
0.0
  0
LINE
  5
300
330
1F
100
AcDbEntity
  8
0
100
AcDbLine
 10
-13.11836378309455
 20
-51.8054613715276
 30
0.0
 11
0.0000000000000902
 21
-53.80546137152759
 31
0.0
  0
LINE
  5
301
330
1F
100
AcDbEntity
  8
0
100
AcDbLine
 10
0.0000000000000902
 20
-49.8054613715276
 30
0.0
 11
-13.11836378309455
 21
-51.8054613715276
 31
0.0
  0
LINE
  5
302
330
1F
100
AcDbEntity
  8
0
100
AcDbLine
 10
32.79590945773641
 20
-53.80546137152759
 30
0.0
 11
19.67754567464196
 21
-51.8054613715276
 31
0.0
  0
LINE
  5
303
330
1F
100
AcDbEntity
  8
0
100
AcDbLine
 10
19.67754567464196
 20
-51.8054613715276
 30
0.0
 11
32.79590945773641
 21
-49.8054613715276
 31
0.0
  0
LINE
  5
304
330
1F
100
AcDbEntity
  8
0
100
AcDbLine
 10
32.79590945773641
 20
-49.8054613715276
 30
0.0
 11
45.91427324083105
 21
-51.8054613715276
 31
0.0
  0
LINE
  5
305
330
1F
100
AcDbEntity
  8
0
100
AcDbLine
 10
45.91427324083105
 20
-51.8054613715276
 30
0.0
 11
32.79590945773641
 21
-53.80546137152759
 31
0.0
  0
LINE
  5
306
330
1F
100
AcDbEntity
  8
0
100
AcDbLine
 10
36.07550040351039
 20
-49.3054613715276
 30
0.0
 11
49.19386418660485
 21
-47.30546137152757
 31
0.0
  0
LINE
  5
307
330
1F
100
AcDbEntity
  8
0
100
AcDbLine
 10
49.19386418660485
 20
-47.30546137152757
 30
0.0
 11
52.47345513237846
 21
-47.80546137152756
 31
0.0
  0
LINE
  5
308
330
1F
100
AcDbEntity
  8
0
100
AcDbLine
 10
49.19386418660485
 20
-51.3054613715276
 30
0.0
 11
36.07550040351039
 21
-49.3054613715276
 31
0.0
  0
LINE
  5
309
330
1F
100
AcDbEntity
  8
0
100
AcDbLine
 10
-16.39795472886825
 20
-51.3054613715276
 30
0.0
 11
-29.51631851196289
 21
-49.3054613715276
 31
0.0
  0
LINE
  5
30A
330
1F
100
AcDbEntity
  8
0
100
AcDbLine
 10
-29.51631851196289
 20
-49.3054613715276
 30
0.0
 11
-16.39795472886825
 21
-47.30546137152757
 31
0.0
  0
LINE
  5
30B
330
1F
100
AcDbEntity
  8
0
100
AcDbLine
 10
-16.39795472886825
 20
-47.30546137152757
 30
0.0
 11
-3.279590945773614
 21
-49.3054613715276
 31
0.0
  0
LINE
  5
30C
330
1F
100
AcDbEntity
  8
0
100
AcDbLine
 10
-3.279590945773614
 20
-49.3054613715276
 30
0.0
 11
-16.39795472886825
 21
-51.3054613715276
 31
0.0
  0
LINE
  5
30D
330
1F
100
AcDbEntity
  8
0
100
AcDbLine
 10
-32.79590945773659
 20
-53.80546137152759
 30
0.0
 11
-19.67754567464196
 21
-51.8054613715276
 31
0.0
  0
LINE
  5
30E
330
1F
100
AcDbEntity
  8
0
100
AcDbLine
 10
-45.91427324083114
 20
-51.8054613715276
 30
0.0
 11
-32.79590945773659
 21
-53.80546137152759
 31
0.0
  0
LINE
  5
30F
330
1F
100
AcDbEntity
  8
0
100
AcDbLine
 10
-32.79590945773659
 20
-49.8054613715276
 30
0.0
 11
-45.91427324083114
 21
-51.8054613715276
 31
0.0
  0
LINE
  5
310
330
1F
100
AcDbEntity
  8
0
100
AcDbLine
 10
-19.67754567464196
 20
-51.8054613715276
 30
0.0
 11
-32.79590945773659
 21
-49.8054613715276
 31
0.0
  0
LINE
  5
311
330
1F
100
AcDbEntity
  8
0
100
AcDbLine
 10
3.279590945773704
 20
-49.3054613715276
 30
0.0
 11
16.39795472886834
 21
-47.30546137152757
 31
0.0
  0
LINE
  5
312
330
1F
100
AcDbEntity
  8
0
100
AcDbLine
 10
16.39795472886834
 20
-47.30546137152757
 30
0.0
 11
29.51631851196298
 21
-49.3054613715276
 31
0.0
  0
LINE
  5
313
330
1F
100
AcDbEntity
  8
0
100
AcDbLine
 10
29.51631851196298
 20
-49.3054613715276
 30
0.0
 11
16.39795472886834
 21
-51.3054613715276
 31
0.0
  0
LINE
  5
314
330
1F
100
AcDbEntity
  8
0
100
AcDbLine
 10
16.39795472886834
 20
-51.3054613715276
 30
0.0
 11
3.279590945773704
 21
-49.3054613715276
 31
0.0
  0
LINE
  5
315
330
1F
100
AcDbEntity
  8
0
100
AcDbLine
 10
36.07550040351039
 20
-54.72476137152759
 30
0.0
 11
49.19386418660485
 21
-52.72476137152756
 31
0.0
  0
LINE
  5
316
330
1F
100
AcDbEntity
  8
0
100
AcDbLine
 10
49.19386418660485
 20
-52.72476137152756
 30
0.0
 11
52.47345513237846
 21
-53.22476137152756
 31
0.0
  0
LINE
  5
317
330
1F
100
AcDbEntity
  8
0
100
AcDbLine
 10
49.19386418660485
 20
-56.72476137152759
 30
0.0
 11
36.07550040351039
 21
-54.72476137152759
 31
0.0
  0
LINE
  5
318
330
1F
100
AcDbEntity
  8
0
100
AcDbLine
 10
-16.39795472886825
 20
-56.72476137152759
 30
0.0
 11
-29.51631851196289
 21
-54.72476137152759
 31
0.0
  0
LINE
  5
319
330
1F
100
AcDbEntity
  8
0
100
AcDbLine
 10
-29.51631851196289
 20
-54.72476137152759
 30
0.0
 11
-16.39795472886825
 21
-52.72476137152756
 31
0.0
  0
LINE
  5
31A
330
1F
100
AcDbEntity
  8
0
100
AcDbLine
 10
-16.39795472886825
 20
-52.72476137152756
 30
0.0
 11
-3.279590945773614
 21
-54.72476137152759
 31
0.0
  0
LINE
  5
31B
330
1F
100
AcDbEntity
  8
0
100
AcDbLine
 10
-3.279590945773614
 20
-54.72476137152759
 30
0.0
 11
-16.39795472886825
 21
-56.72476137152759
 31
0.0
  0
LINE
  5
31C
330
1F
100
AcDbEntity
  8
0
100
AcDbLine
 10
3.279590945773704
 20
-54.72476137152759
 30
0.0
 11
16.39795472886834
 21
-52.72476137152756
 31
0.0
  0
LINE
  5
31D
330
1F
100
AcDbEntity
  8
0
100
AcDbLine
 10
16.39795472886834
 20
-52.72476137152756
 30
0.0
 11
29.51631851196298
 21
-54.72476137152759
 31
0.0
  0
LINE
  5
31E
330
1F
100
AcDbEntity
  8
0
100
AcDbLine
 10
29.51631851196298
 20
-54.72476137152759
 30
0.0
 11
16.39795472886834
 21
-56.72476137152759
 31
0.0
  0
LINE
  5
31F
330
1F
100
AcDbEntity
  8
0
100
AcDbLine
 10
16.39795472886834
 20
-56.72476137152759
 30
0.0
 11
3.279590945773704
 21
-54.72476137152759
 31
0.0
  0
LINE
  5
320
330
1F
100
AcDbEntity
  8
0
100
AcDbLine
 10
-32.79590945773659
 20
-59.22476137152758
 30
0.0
 11
-19.67754567464196
 21
-57.22476137152759
 31
0.0
  0
LINE
  5
321
330
1F
100
AcDbEntity
  8
0
100
AcDbLine
 10
-45.91427324083114
 20
-57.22476137152759
 30
0.0
 11
-32.79590945773659
 21
-59.22476137152758
 31
0.0
  0
LINE
  5
322
330
1F
100
AcDbEntity
  8
0
100
AcDbLine
 10
-32.79590945773659
 20
-55.22476137152759
 30
0.0
 11
-45.91427324083114
 21
-57.22476137152759
 31
0.0
  0
LINE
  5
323
330
1F
100
AcDbEntity
  8
0
100
AcDbLine
 10
-19.67754567464196
 20
-57.22476137152759
 30
0.0
 11
-32.79590945773659
 21
-55.22476137152759
 31
0.0
  0
LINE
  5
324
330
1F
100
AcDbEntity
  8
0
100
AcDbLine
 10
32.79590945773641
 20
-59.22476137152758
 30
0.0
 11
19.67754567464196
 21
-57.22476137152759
 31
0.0
  0
LINE
  5
325
330
1F
100
AcDbEntity
  8
0
100
AcDbLine
 10
19.67754567464196
 20
-57.22476137152759
 30
0.0
 11
32.79590945773641
 21
-55.22476137152759
 31
0.0
  0
LINE
  5
326
330
1F
100
AcDbEntity
  8
0
100
AcDbLine
 10
32.79590945773641
 20
-55.22476137152759
 30
0.0
 11
45.91427324083105
 21
-57.22476137152759
 31
0.0
  0
LINE
  5
327
330
1F
100
AcDbEntity
  8
0
100
AcDbLine
 10
45.91427324083105
 20
-57.22476137152759
 30
0.0
 11
32.79590945773641
 21
-59.22476137152758
 31
0.0
  0
LINE
  5
328
330
1F
100
AcDbEntity
  8
0
100
AcDbLine
 10
-49.19386418660485
 20
-56.72476137152759
 30
0.0
 11
-52.47345513237846
 21
-56.2247613715276
 31
0.0
  0
LINE
  5
329
330
1F
100
AcDbEntity
  8
0
100
AcDbLine
 10
-49.19386418660485
 20
-52.72476137152756
 30
0.0
 11
-36.0755004035102
 21
-54.72476137152759
 31
0.0
  0
LINE
  5
32A
330
1F
100
AcDbEntity
  8
0
100
AcDbLine
 10
-36.0755004035102
 20
-54.72476137152759
 30
0.0
 11
-49.19386418660485
 21
-56.72476137152759
 31
0.0
  0
LINE
  5
32B
330
1F
100
AcDbEntity
  8
0
100
AcDbLine
 10
13.11836378309473
 20
-57.22476137152759
 30
0.0
 11
0.0000000000000902
 21
-55.22476137152759
 31
0.0
  0
LINE
  5
32C
330
1F
100
AcDbEntity
  8
0
100
AcDbLine
 10
0.0000000000000902
 20
-59.22476137152758
 30
0.0
 11
13.11836378309473
 21
-57.22476137152759
 31
0.0
  0
LINE
  5
32D
330
1F
100
AcDbEntity
  8
0
100
AcDbLine
 10
-13.11836378309455
 20
-57.22476137152759
 30
0.0
 11
0.0000000000000902
 21
-59.22476137152758
 31
0.0
  0
LINE
  5
32E
330
1F
100
AcDbEntity
  8
0
100
AcDbLine
 10
0.0000000000000902
 20
-55.22476137152759
 30
0.0
 11
-13.11836378309455
 21
-57.22476137152759
 31
0.0
  0
LINE
  5
32F
330
1F
100
AcDbEntity
  8
0
100
AcDbLine
 10
13.11836378309473
 20
-62.64406137152758
 30
0.0
 11
0.0000000000000902
 21
-60.64406137152758
 31
0.0
  0
LINE
  5
330
330
1F
100
AcDbEntity
  8
0
100
AcDbLine
 10
0.0000000000000902
 20
-64.64406137152757
 30
0.0
 11
13.11836378309473
 21
-62.64406137152758
 31
0.0
  0
LINE
  5
331
330
1F
100
AcDbEntity
  8
0
100
AcDbLine
 10
-13.11836378309455
 20
-62.64406137152758
 30
0.0
 11
0.0000000000000902
 21
-64.64406137152757
 31
0.0
  0
LINE
  5
332
330
1F
100
AcDbEntity
  8
0
100
AcDbLine
 10
0.0000000000000902
 20
-60.64406137152758
 30
0.0
 11
-13.11836378309455
 21
-62.64406137152758
 31
0.0
  0
LINE
  5
333
330
1F
100
AcDbEntity
  8
0
100
AcDbLine
 10
-49.19386418660485
 20
-62.14406137152758
 30
0.0
 11
-52.47345513237846
 21
-61.64406137152759
 31
0.0
  0
LINE
  5
334
330
1F
100
AcDbEntity
  8
0
100
AcDbLine
 10
-49.19386418660485
 20
-58.14406137152756
 30
0.0
 11
-36.0755004035102
 21
-60.14406137152758
 31
0.0
  0
LINE
  5
335
330
1F
100
AcDbEntity
  8
0
100
AcDbLine
 10
-36.0755004035102
 20
-60.14406137152758
 30
0.0
 11
-49.19386418660485
 21
-62.14406137152758
 31
0.0
  0
LINE
  5
336
330
1F
100
AcDbEntity
  8
0
100
AcDbLine
 10
32.79590945773641
 20
-64.64406137152757
 30
0.0
 11
19.67754567464196
 21
-62.64406137152758
 31
0.0
  0
LINE
  5
337
330
1F
100
AcDbEntity
  8
0
100
AcDbLine
 10
19.67754567464196
 20
-62.64406137152758
 30
0.0
 11
32.79590945773641
 21
-60.64406137152758
 31
0.0
  0
LINE
  5
338
330
1F
100
AcDbEntity
  8
0
100
AcDbLine
 10
32.79590945773641
 20
-60.64406137152758
 30
0.0
 11
45.91427324083105
 21
-62.64406137152758
 31
0.0
  0
LINE
  5
339
330
1F
100
AcDbEntity
  8
0
100
AcDbLine
 10
45.91427324083105
 20
-62.64406137152758
 30
0.0
 11
32.79590945773641
 21
-64.64406137152757
 31
0.0
  0
LINE
  5
33A
330
1F
100
AcDbEntity
  8
0
100
AcDbLine
 10
36.07550040351039
 20
-60.14406137152758
 30
0.0
 11
49.19386418660485
 21
-58.14406137152756
 31
0.0
  0
LINE
  5
33B
330
1F
100
AcDbEntity
  8
0
100
AcDbLine
 10
49.19386418660485
 20
-58.14406137152756
 30
0.0
 11
52.47345513237846
 21
-58.64406137152754
 31
0.0
  0
LINE
  5
33C
330
1F
100
AcDbEntity
  8
0
100
AcDbLine
 10
49.19386418660485
 20
-62.14406137152758
 30
0.0
 11
36.07550040351039
 21
-60.14406137152758
 31
0.0
  0
LINE
  5
33D
330
1F
100
AcDbEntity
  8
0
100
AcDbLine
 10
-16.39795472886825
 20
-62.14406137152758
 30
0.0
 11
-29.51631851196289
 21
-60.14406137152758
 31
0.0
  0
LINE
  5
33E
330
1F
100
AcDbEntity
  8
0
100
AcDbLine
 10
-29.51631851196289
 20
-60.14406137152758
 30
0.0
 11
-16.39795472886825
 21
-58.14406137152756
 31
0.0
  0
LINE
  5
33F
330
1F
100
AcDbEntity
  8
0
100
AcDbLine
 10
-16.39795472886825
 20
-58.14406137152756
 30
0.0
 11
-3.279590945773614
 21
-60.14406137152758
 31
0.0
  0
LINE
  5
340
330
1F
100
AcDbEntity
  8
0
100
AcDbLine
 10
-3.279590945773614
 20
-60.14406137152758
 30
0.0
 11
-16.39795472886825
 21
-62.14406137152758
 31
0.0
  0
LINE
  5
341
330
1F
100
AcDbEntity
  8
0
100
AcDbLine
 10
3.279590945773704
 20
-60.14406137152758
 30
0.0
 11
16.39795472886834
 21
-58.14406137152756
 31
0.0
  0
LINE
  5
342
330
1F
100
AcDbEntity
  8
0
100
AcDbLine
 10
16.39795472886834
 20
-58.14406137152756
 30
0.0
 11
29.51631851196298
 21
-60.14406137152758
 31
0.0
  0
LINE
  5
343
330
1F
100
AcDbEntity
  8
0
100
AcDbLine
 10
29.51631851196298
 20
-60.14406137152758
 30
0.0
 11
16.39795472886834
 21
-62.14406137152758
 31
0.0
  0
LINE
  5
344
330
1F
100
AcDbEntity
  8
0
100
AcDbLine
 10
16.39795472886834
 20
-62.14406137152758
 30
0.0
 11
3.279590945773704
 21
-60.14406137152758
 31
0.0
  0
LINE
  5
345
330
1F
100
AcDbEntity
  8
0
100
AcDbLine
 10
-32.79590945773659
 20
-64.64406137152757
 30
0.0
 11
-19.67754567464196
 21
-62.64406137152758
 31
0.0
  0
LINE
  5
346
330
1F
100
AcDbEntity
  8
0
100
AcDbLine
 10
-45.91427324083114
 20
-62.64406137152758
 30
0.0
 11
-32.79590945773659
 21
-64.64406137152757
 31
0.0
  0
LINE
  5
347
330
1F
100
AcDbEntity
  8
0
100
AcDbLine
 10
-32.79590945773659
 20
-60.64406137152758
 30
0.0
 11
-45.91427324083114
 21
-62.64406137152758
 31
0.0
  0
LINE
  5
348
330
1F
100
AcDbEntity
  8
0
100
AcDbLine
 10
-19.67754567464196
 20
-62.64406137152758
 30
0.0
 11
-32.79590945773659
 21
-60.64406137152758
 31
0.0
  0
LINE
  5
349
330
1F
100
AcDbEntity
  8
0
100
AcDbLine
 10
36.07550040351039
 20
-65.56336137152758
 30
0.0
 11
49.19386418660485
 21
-63.56336137152755
 31
0.0
  0
LINE
  5
34A
330
1F
100
AcDbEntity
  8
0
100
AcDbLine
 10
49.19386418660485
 20
-63.56336137152755
 30
0.0
 11
52.47345513237846
 21
-64.06336137152753
 31
0.0
  0
LINE
  5
34B
330
1F
100
AcDbEntity
  8
0
100
AcDbLine
 10
49.19386418660485
 20
-67.56336137152758
 30
0.0
 11
36.07550040351039
 21
-65.56336137152758
 31
0.0
  0
LINE
  5
34C
330
1F
100
AcDbEntity
  8
0
100
AcDbLine
 10
32.79590945773641
 20
-70.06336137152756
 30
0.0
 11
19.67754567464196
 21
-68.06336137152758
 31
0.0
  0
LINE
  5
34D
330
1F
100
AcDbEntity
  8
0
100
AcDbLine
 10
19.67754567464196
 20
-68.06336137152758
 30
0.0
 11
32.79590945773641
 21
-66.06336137152758
 31
0.0
  0
LINE
  5
34E
330
1F
100
AcDbEntity
  8
0
100
AcDbLine
 10
32.79590945773641
 20
-66.06336137152758
 30
0.0
 11
45.91427324083105
 21
-68.06336137152758
 31
0.0
  0
LINE
  5
34F
330
1F
100
AcDbEntity
  8
0
100
AcDbLine
 10
45.91427324083105
 20
-68.06336137152758
 30
0.0
 11
32.79590945773641
 21
-70.06336137152756
 31
0.0
  0
LINE
  5
350
330
1F
100
AcDbEntity
  8
0
100
AcDbLine
 10
13.11836378309473
 20
-68.06336137152758
 30
0.0
 11
0.0000000000000902
 21
-66.06336137152758
 31
0.0
  0
LINE
  5
351
330
1F
100
AcDbEntity
  8
0
100
AcDbLine
 10
0.0000000000000902
 20
-70.06336137152756
 30
0.0
 11
13.11836378309473
 21
-68.06336137152758
 31
0.0
  0
LINE
  5
352
330
1F
100
AcDbEntity
  8
0
100
AcDbLine
 10
-13.11836378309455
 20
-68.06336137152758
 30
0.0
 11
0.0000000000000902
 21
-70.06336137152756
 31
0.0
  0
LINE
  5
353
330
1F
100
AcDbEntity
  8
0
100
AcDbLine
 10
0.0000000000000902
 20
-66.06336137152758
 30
0.0
 11
-13.11836378309455
 21
-68.06336137152758
 31
0.0
  0
LINE
  5
354
330
1F
100
AcDbEntity
  8
0
100
AcDbLine
 10
-49.19386418660485
 20
-67.56336137152758
 30
0.0
 11
-52.47345513237846
 21
-67.06336137152758
 31
0.0
  0
LINE
  5
355
330
1F
100
AcDbEntity
  8
0
100
AcDbLine
 10
-49.19386418660485
 20
-63.56336137152755
 30
0.0
 11
-36.0755004035102
 21
-65.56336137152758
 31
0.0
  0
LINE
  5
356
330
1F
100
AcDbEntity
  8
0
100
AcDbLine
 10
-36.0755004035102
 20
-65.56336137152758
 30
0.0
 11
-49.19386418660485
 21
-67.56336137152758
 31
0.0
  0
LINE
  5
357
330
1F
100
AcDbEntity
  8
0
100
AcDbLine
 10
-32.79590945773659
 20
-70.06336137152756
 30
0.0
 11
-19.67754567464196
 21
-68.06336137152758
 31
0.0
  0
LINE
  5
358
330
1F
100
AcDbEntity
  8
0
100
AcDbLine
 10
-45.91427324083114
 20
-68.06336137152758
 30
0.0
 11
-32.79590945773659
 21
-70.06336137152756
 31
0.0
  0
LINE
  5
359
330
1F
100
AcDbEntity
  8
0
100
AcDbLine
 10
-32.79590945773659
 20
-66.06336137152758
 30
0.0
 11
-45.91427324083114
 21
-68.06336137152758
 31
0.0
  0
LINE
  5
35A
330
1F
100
AcDbEntity
  8
0
100
AcDbLine
 10
-19.67754567464196
 20
-68.06336137152758
 30
0.0
 11
-32.79590945773659
 21
-66.06336137152758
 31
0.0
  0
LINE
  5
35B
330
1F
100
AcDbEntity
  8
0
100
AcDbLine
 10
-16.39795472886825
 20
-67.56336137152758
 30
0.0
 11
-29.51631851196289
 21
-65.56336137152758
 31
0.0
  0
LINE
  5
35C
330
1F
100
AcDbEntity
  8
0
100
AcDbLine
 10
-29.51631851196289
 20
-65.56336137152758
 30
0.0
 11
-16.39795472886825
 21
-63.56336137152755
 31
0.0
  0
LINE
  5
35D
330
1F
100
AcDbEntity
  8
0
100
AcDbLine
 10
-16.39795472886825
 20
-63.56336137152755
 30
0.0
 11
-3.279590945773614
 21
-65.56336137152758
 31
0.0
  0
LINE
  5
35E
330
1F
100
AcDbEntity
  8
0
100
AcDbLine
 10
-3.279590945773614
 20
-65.56336137152758
 30
0.0
 11
-16.39795472886825
 21
-67.56336137152758
 31
0.0
  0
LINE
  5
35F
330
1F
100
AcDbEntity
  8
0
100
AcDbLine
 10
3.279590945773704
 20
-65.56336137152758
 30
0.0
 11
16.39795472886834
 21
-63.56336137152755
 31
0.0
  0
LINE
  5
360
330
1F
100
AcDbEntity
  8
0
100
AcDbLine
 10
16.39795472886834
 20
-63.56336137152755
 30
0.0
 11
29.51631851196298
 21
-65.56336137152758
 31
0.0
  0
LINE
  5
361
330
1F
100
AcDbEntity
  8
0
100
AcDbLine
 10
29.51631851196298
 20
-65.56336137152758
 30
0.0
 11
16.39795472886834
 21
-67.56336137152758
 31
0.0
  0
LINE
  5
362
330
1F
100
AcDbEntity
  8
0
100
AcDbLine
 10
16.39795472886834
 20
-67.56336137152758
 30
0.0
 11
3.279590945773704
 21
-65.56336137152758
 31
0.0
  0
LINE
  5
363
330
1F
100
AcDbEntity
  8
0
100
AcDbLine
 10
49.19386418660485
 20
-68.98266137152754
 30
0.0
 11
52.47345513237846
 21
-69.48266137152753
 31
0.0
  0
LINE
  5
364
330
1F
100
AcDbEntity
  8
0
100
AcDbLine
 10
49.19386418660485
 20
-72.98266137152757
 30
0.0
 11
36.07550040351039
 21
-70.98266137152757
 31
0.0
  0
LINE
  5
365
330
1F
100
AcDbEntity
  8
0
100
AcDbLine
 10
32.79590945773641
 20
-71.48266137152757
 30
0.0
 11
45.78333891739086
 21
-73.46269938151035
 31
0.0
  0
LINE
  5
366
330
1F
100
AcDbEntity
  8
0
100
AcDbLine
 10
36.07550040351039
 20
-70.98266137152757
 30
0.0
 11
49.19386418660485
 21
-68.98266137152754
 31
0.0
  0
LINE
  5
367
330
1F
100
AcDbEntity
  8
0
100
AcDbLine
 10
-16.39795472886825
 20
-72.98266137152757
 30
0.0
 11
-29.51631851196289
 21
-70.98266137152757
 31
0.0
  0
LINE
  5
368
330
1F
100
AcDbEntity
  8
0
100
AcDbLine
 10
-36.0755004035102
 20
-70.98266137152757
 30
0.0
 11
-49.19386418660485
 21
-72.98266137152757
 31
0.0
  0
LINE
  5
369
330
1F
100
AcDbEntity
  8
0
100
AcDbLine
 10
-49.19386418660485
 20
-68.98266137152754
 30
0.0
 11
-36.0755004035102
 21
-70.98266137152757
 31
0.0
  0
LINE
  5
36A
330
1F
100
AcDbEntity
  8
0
100
AcDbLine
 10
-29.51631851196289
 20
-70.98266137152757
 30
0.0
 11
-16.39795472886825
 21
-68.98266137152754
 31
0.0
  0
LINE
  5
36B
330
1F
100
AcDbEntity
  8
0
100
AcDbLine
 10
-49.19386418660485
 20
-72.98266137152757
 30
0.0
 11
-52.47345513237846
 21
-72.48266137152756
 31
0.0
  0
LINE
  5
36C
330
1F
100
AcDbEntity
  8
0
100
AcDbLine
 10
-16.39795472886825
 20
-68.98266137152754
 30
0.0
 11
-3.279590945773614
 21
-70.98266137152757
 31
0.0
  0
LINE
  5
36D
330
1F
100
AcDbEntity
  8
0
100
AcDbLine
 10
-32.79590945773659
 20
-71.48266137152757
 30
0.0
 11
-45.78333891739104
 21
-73.46269938151035
 31
0.0
  0
LINE
  5
36E
330
1F
100
AcDbEntity
  8
0
100
AcDbLine
 10
0.0000000000000902
 20
-71.48266137152757
 30
0.0
 11
-12.98742945965445
 21
-73.46269938151035
 31
0.0
  0
LINE
  5
36F
330
1F
100
AcDbEntity
  8
0
100
AcDbLine
 10
16.39795472886834
 20
-68.98266137152754
 30
0.0
 11
29.51631851196298
 21
-70.98266137152757
 31
0.0
  0
LINE
  5
370
330
1F
100
AcDbEntity
  8
0
100
AcDbLine
 10
3.279590945773704
 20
-70.98266137152757
 30
0.0
 11
16.39795472886834
 21
-68.98266137152754
 31
0.0
  0
LINE
  5
371
330
1F
100
AcDbEntity
  8
0
100
AcDbLine
 10
16.39795472886834
 20
-72.98266137152757
 30
0.0
 11
3.279590945773704
 21
-70.98266137152757
 31
0.0
  0
LINE
  5
372
330
1F
100
AcDbEntity
  8
0
100
AcDbLine
 10
-3.279590945773614
 20
-70.98266137152757
 30
0.0
 11
-16.39795472886825
 21
-72.98266137152757
 31
0.0
  0
LINE
  5
373
330
1F
100
AcDbEntity
  8
0
100
AcDbLine
 10
29.51631851196298
 20
-70.98266137152757
 30
0.0
 11
16.39795472886834
 21
-72.98266137152757
 31
0.0
  0
LINE
  5
374
330
1F
100
AcDbEntity
  8
0
100
AcDbLine
 10
-49.19386418660485
 20
24.56473862847228
 30
0.0
 11
-52.47345513237846
 21
25.06473862847228
 31
0.0
  0
LINE
  5
375
330
1F
100
AcDbEntity
  8
0
100
AcDbLine
 10
-49.19386418660485
 20
28.56473862847231
 30
0.0
 11
-36.0755004035102
 21
26.56473862847227
 31
0.0
  0
LINE
  5
376
330
1F
100
AcDbEntity
  8
0
100
AcDbLine
 10
-36.0755004035102
 20
26.56473862847227
 30
0.0
 11
-49.19386418660485
 21
24.56473862847228
 31
0.0
  0
LINE
  5
377
330
1F
100
AcDbEntity
  8
0
100
AcDbLine
 10
-16.39795472886825
 20
29.98403862847227
 30
0.0
 11
-26.23672756618918
 21
31.48403862847227
 31
0.0
  0
LINE
  5
378
330
1F
100
AcDbEntity
  8
0
100
AcDbLine
 10
-49.19386418660485
 20
29.98403862847227
 30
0.0
 11
-52.47345513237846
 21
30.48403862847227
 31
0.0
  0
LINE
  5
379
330
1F
100
AcDbEntity
  8
0
100
AcDbLine
 10
16.39795472886834
 20
29.98403862847227
 30
0.0
 11
6.559181891547318
 21
31.48403862847227
 31
0.0
  0
LINE
  5
37A
330
1F
100
AcDbEntity
  8
0
100
AcDbLine
 10
49.19386418660485
 20
29.98403862847227
 30
0.0
 11
39.355091349284
 21
31.48403862847227
 31
0.0
  0
LINE
  5
37B
330
1F
100
AcDbEntity
  8
0
100
AcDbLine
 10
-52.47345513237846
 20
22.6454386284723
 30
0.0
 11
-49.19386418660485
 21
23.14543862847231
 31
0.0
  0
LINE
  5
37C
330
1F
100
AcDbEntity
  8
0
100
AcDbLine
 10
-52.47345513237846
 20
17.22613862847232
 30
0.0
 11
-49.19386418660485
 21
17.72613862847232
 31
0.0
  0
LINE
  5
37D
330
1F
100
AcDbEntity
  8
0
100
AcDbLine
 10
-52.47345513237846
 20
11.80683862847232
 30
0.0
 11
-49.19386418660485
 21
12.30683862847233
 31
0.0
  0
LINE
  5
37E
330
1F
100
AcDbEntity
  8
0
100
AcDbLine
 10
-52.47345513237846
 20
6.387538628472329
 30
0.0
 11
-49.19386418660485
 21
6.88753862847234
 31
0.0
  0
LINE
  5
37F
330
1F
100
AcDbEntity
  8
0
100
AcDbLine
 10
-52.47345513237846
 20
0.9682386284723384
 30
0.0
 11
-49.19386418660485
 21
1.468238628472349
 31
0.0
  0
LINE
  5
380
330
1F
100
AcDbEntity
  8
0
100
AcDbLine
 10
-52.47345513237846
 20
-4.451061371527653
 30
0.0
 11
-49.19386418660485
 21
-3.951061371527643
 31
0.0
  0
LINE
  5
381
330
1F
100
AcDbEntity
  8
0
100
AcDbLine
 10
-52.47345513237846
 20
-9.870361371527643
 30
0.0
 11
-49.19386418660485
 21
-9.370361371527634
 31
0.0
  0
LINE
  5
382
330
1F
100
AcDbEntity
  8
0
100
AcDbLine
 10
-52.47345513237846
 20
-15.28966137152764
 30
0.0
 11
-49.19386418660485
 21
-14.78966137152763
 31
0.0
  0
LINE
  5
383
330
1F
100
AcDbEntity
  8
0
100
AcDbLine
 10
-52.47345513237846
 20
-20.70896137152763
 30
0.0
 11
-49.19386418660485
 21
-20.20896137152761
 31
0.0
  0
LINE
  5
384
330
1F
100
AcDbEntity
  8
0
100
AcDbLine
 10
-52.47345513237846
 20
-26.12826137152762
 30
0.0
 11
-49.19386418660485
 21
-25.62826137152761
 31
0.0
  0
LINE
  5
385
330
1F
100
AcDbEntity
  8
0
100
AcDbLine
 10
-52.47345513237846
 20
-31.5475613715276
 30
0.0
 11
-49.19386418660485
 21
-31.0475613715276
 31
0.0
  0
LINE
  5
386
330
1F
100
AcDbEntity
  8
0
100
AcDbLine
 10
-52.47345513237846
 20
-36.96686137152761
 30
0.0
 11
-49.19386418660485
 21
-36.46686137152759
 31
0.0
  0
LINE
  5
387
330
1F
100
AcDbEntity
  8
0
100
AcDbLine
 10
-52.47345513237846
 20
-42.38616137152759
 30
0.0
 11
-49.19386418660485
 21
-41.88616137152758
 31
0.0
  0
LINE
  5
388
330
1F
100
AcDbEntity
  8
0
100
AcDbLine
 10
-52.47345513237846
 20
-47.80546137152758
 30
0.0
 11
-49.19386418660485
 21
-47.30546137152757
 31
0.0
  0
LINE
  5
389
330
1F
100
AcDbEntity
  8
0
100
AcDbLine
 10
-52.47345513237846
 20
-53.22476137152758
 30
0.0
 11
-49.19386418660485
 21
-52.72476137152756
 31
0.0
  0
LINE
  5
38A
330
1F
100
AcDbEntity
  8
0
100
AcDbLine
 10
-52.47345513237846
 20
-58.64406137152756
 30
0.0
 11
-49.19386418660485
 21
-58.14406137152756
 31
0.0
  0
LINE
  5
38B
330
1F
100
AcDbEntity
  8
0
100
AcDbLine
 10
-52.47345513237846
 20
-64.06336137152756
 30
0.0
 11
-49.19386418660485
 21
-63.56336137152755
 31
0.0
  0
LINE
  5
38C
330
1F
100
AcDbEntity
  8
0
100
AcDbLine
 10
-52.47345513237846
 20
-69.48266137152754
 30
0.0
 11
-49.19386418660485
 21
-68.98266137152754
 31
0.0
  0
LINE
  5
38D
330
1F
100
AcDbEntity
  8
0
100
AcDbLine
 10
-52.47345513237846
 20
28.06473862847229
 30
0.0
 11
-49.19386418660485
 21
28.56473862847231
 31
0.0
  0
LINE
  5
38E
330
1F
100
AcDbEntity
  8
0
100
AcDbLine
 10
-52.47345513237846
 20
-2.031761371527679
 30
0.0
 11
-52.47345513237846
 21
-4.451061371527653
 31
0.0
  0
LINE
  5
38F
330
1F
100
AcDbEntity
  8
0
100
AcDbLine
 10
-52.47345513237846
 20
3.387538628472301
 30
0.0
 11
-52.47345513237846
 21
0.9682386284723384
 31
0.0
  0
LINE
  5
390
330
1F
100
AcDbEntity
  8
0
100
AcDbLine
 10
-52.47345513237846
 20
14.22613862847228
 30
0.0
 11
-52.47345513237846
 21
11.80683862847232
 31
0.0
  0
LINE
  5
391
330
1F
100
AcDbEntity
  8
0
100
AcDbLine
 10
-52.47345513237846
 20
19.64543862847229
 30
0.0
 11
-52.47345513237846
 21
17.22613862847232
 31
0.0
  0
LINE
  5
392
330
1F
100
AcDbEntity
  8
0
100
AcDbLine
 10
-52.47345513237846
 20
-23.70896137152764
 30
0.0
 11
-52.47345513237846
 21
-26.12826137152762
 31
0.0
  0
LINE
  5
393
330
1F
100
AcDbEntity
  8
0
100
AcDbLine
 10
-52.47345513237846
 20
8.806838628472304
 30
0.0
 11
-52.47345513237846
 21
6.387538628472329
 31
0.0
  0
LINE
  5
394
330
1F
100
AcDbEntity
  8
0
100
AcDbLine
 10
-52.47345513237846
 20
30.48403862847227
 30
0.0
 11
-52.47345513237846
 21
28.06473862847229
 31
0.0
  0
LINE
  5
395
330
1F
100
AcDbEntity
  8
0
100
AcDbLine
 10
-52.47345513237846
 20
-12.87036137152766
 30
0.0
 11
-52.47345513237846
 21
-15.28966137152764
 31
0.0
  0
LINE
  5
396
330
1F
100
AcDbEntity
  8
0
100
AcDbLine
 10
-52.47345513237846
 20
-7.451061371527681
 30
0.0
 11
-52.47345513237846
 21
-9.870361371527643
 31
0.0
  0
LINE
  5
397
330
1F
100
AcDbEntity
  8
0
100
AcDbLine
 10
-52.47345513237846
 20
25.06473862847228
 30
0.0
 11
-52.47345513237846
 21
22.6454386284723
 31
0.0
  0
LINE
  5
398
330
1F
100
AcDbEntity
  8
0
100
AcDbLine
 10
-52.47345513237846
 20
-39.96686137152764
 30
0.0
 11
-52.47345513237846
 21
-42.38616137152759
 31
0.0
  0
LINE
  5
399
330
1F
100
AcDbEntity
  8
0
100
AcDbLine
 10
-52.47345513237846
 20
-29.12826137152763
 30
0.0
 11
-52.47345513237846
 21
-31.5475613715276
 31
0.0
  0
LINE
  5
39A
330
1F
100
AcDbEntity
  8
0
100
AcDbLine
 10
-52.47345513237846
 20
-18.28966137152766
 30
0.0
 11
-52.47345513237846
 21
-20.70896137152763
 31
0.0
  0
LINE
  5
39B
330
1F
100
AcDbEntity
  8
0
100
AcDbLine
 10
-52.47345513237846
 20
-50.8054613715276
 30
0.0
 11
-52.47345513237846
 21
-53.22476137152758
 31
0.0
  0
LINE
  5
39C
330
1F
100
AcDbEntity
  8
0
100
AcDbLine
 10
-52.47345513237846
 20
-45.38616137152762
 30
0.0
 11
-52.47345513237846
 21
-47.80546137152758
 31
0.0
  0
LINE
  5
39D
330
1F
100
AcDbEntity
  8
0
100
AcDbLine
 10
-52.47345513237846
 20
-34.54756137152763
 30
0.0
 11
-52.47345513237846
 21
-36.96686137152761
 31
0.0
  0
LINE
  5
39E
330
1F
100
AcDbEntity
  8
0
100
AcDbLine
 10
-52.47345513237846
 20
-56.2247613715276
 30
0.0
 11
-52.47345513237846
 21
-58.64406137152756
 31
0.0
  0
LINE
  5
39F
330
1F
100
AcDbEntity
  8
0
100
AcDbLine
 10
-52.47345513237846
 20
-61.64406137152759
 30
0.0
 11
-52.47345513237846
 21
-64.06336137152756
 31
0.0
  0
LINE
  5
3A0
330
1F
100
AcDbEntity
  8
0
100
AcDbLine
 10
-52.47345513237846
 20
-72.48266137152756
 30
0.0
 11
-52.47345513237846
 21
-73.46269938151035
 31
0.0
  0
LINE
  5
3A1
330
1F
100
AcDbEntity
  8
0
100
AcDbLine
 10
-52.47345513237846
 20
-67.06336137152758
 30
0.0
 11
-52.47345513237846
 21
-69.48266137152754
 31
0.0
  0
LINE
  5
3A2
330
1F
100
AcDbEntity
  8
0
100
AcDbLine
 10
52.47345513237846
 20
25.06473862847227
 30
0.0
 11
49.19386418660485
 21
24.56473862847228
 31
0.0
  0
LINE
  5
3A3
330
1F
100
AcDbEntity
  8
0
100
AcDbLine
 10
52.47345513237846
 20
19.64543862847227
 30
0.0
 11
49.19386418660485
 21
19.14543862847229
 31
0.0
  0
LINE
  5
3A4
330
1F
100
AcDbEntity
  8
0
100
AcDbLine
 10
52.47345513237846
 20
14.22613862847228
 30
0.0
 11
49.19386418660485
 21
13.7261386284723
 31
0.0
  0
LINE
  5
3A5
330
1F
100
AcDbEntity
  8
0
100
AcDbLine
 10
52.47345513237846
 20
8.806838628472292
 30
0.0
 11
49.19386418660485
 21
8.306838628472304
 31
0.0
  0
LINE
  5
3A6
330
1F
100
AcDbEntity
  8
0
100
AcDbLine
 10
52.47345513237846
 20
3.387538628472301
 30
0.0
 11
49.19386418660485
 21
2.887538628472313
 31
0.0
  0
LINE
  5
3A7
330
1F
100
AcDbEntity
  8
0
100
AcDbLine
 10
52.47345513237846
 20
-2.03176137152769
 30
0.0
 11
49.19386418660485
 21
-2.531761371527678
 31
0.0
  0
LINE
  5
3A8
330
1F
100
AcDbEntity
  8
0
100
AcDbLine
 10
52.47345513237846
 20
-7.451061371527681
 30
0.0
 11
49.19386418660485
 21
-7.951061371527669
 31
0.0
  0
LINE
  5
3A9
330
1F
100
AcDbEntity
  8
0
100
AcDbLine
 10
52.47345513237846
 20
-12.87036137152767
 30
0.0
 11
49.19386418660485
 21
-13.37036137152766
 31
0.0
  0
LINE
  5
3AA
330
1F
100
AcDbEntity
  8
0
100
AcDbLine
 10
52.47345513237846
 20
-18.28966137152766
 30
0.0
 11
49.19386418660485
 21
-18.78966137152765
 31
0.0
  0
LINE
  5
3AB
330
1F
100
AcDbEntity
  8
0
100
AcDbLine
 10
52.47345513237846
 20
-23.70896137152765
 30
0.0
 11
49.19386418660485
 21
-24.20896137152764
 31
0.0
  0
LINE
  5
3AC
330
1F
100
AcDbEntity
  8
0
100
AcDbLine
 10
52.47345513237846
 20
-29.12826137152765
 30
0.0
 11
49.19386418660485
 21
-29.62826137152764
 31
0.0
  0
LINE
  5
3AD
330
1F
100
AcDbEntity
  8
0
100
AcDbLine
 10
52.47345513237846
 20
-34.54756137152764
 30
0.0
 11
49.19386418660485
 21
-35.04756137152763
 31
0.0
  0
LINE
  5
3AE
330
1F
100
AcDbEntity
  8
0
100
AcDbLine
 10
52.47345513237846
 20
-39.96686137152763
 30
0.0
 11
49.19386418660485
 21
-40.46686137152761
 31
0.0
  0
LINE
  5
3AF
330
1F
100
AcDbEntity
  8
0
100
AcDbLine
 10
52.47345513237846
 20
-45.38616137152761
 30
0.0
 11
49.19386418660485
 21
-45.88616137152761
 31
0.0
  0
LINE
  5
3B0
330
1F
100
AcDbEntity
  8
0
100
AcDbLine
 10
52.47345513237846
 20
-50.8054613715276
 30
0.0
 11
49.19386418660485
 21
-51.3054613715276
 31
0.0
  0
LINE
  5
3B1
330
1F
100
AcDbEntity
  8
0
100
AcDbLine
 10
52.47345513237846
 20
-56.2247613715276
 30
0.0
 11
49.19386418660485
 21
-56.72476137152759
 31
0.0
  0
LINE
  5
3B2
330
1F
100
AcDbEntity
  8
0
100
AcDbLine
 10
52.47345513237846
 20
-61.64406137152761
 30
0.0
 11
49.19386418660485
 21
-62.14406137152758
 31
0.0
  0
LINE
  5
3B3
330
1F
100
AcDbEntity
  8
0
100
AcDbLine
 10
52.47345513237846
 20
-67.06336137152759
 30
0.0
 11
49.19386418660485
 21
-67.56336137152758
 31
0.0
  0
LINE
  5
3B4
330
1F
100
AcDbEntity
  8
0
100
AcDbLine
 10
52.47345513237846
 20
-72.48266137152757
 30
0.0
 11
49.19386418660485
 21
-72.98266137152757
 31
0.0
  0
LINE
  5
3B5
330
1F
100
AcDbEntity
  8
0
100
AcDbLine
 10
52.47345513237846
 20
30.48403862847227
 30
0.0
 11
49.19386418660485
 21
29.98403862847227
 31
0.0
  0
LINE
  5
3B6
330
1F
100
AcDbEntity
  8
0
100
AcDbLine
 10
52.47345513237846
 20
-67.06336137152759
 30
0.0
 11
52.47345513237846
 21
-69.48266137152753
 31
0.0
  0
LINE
  5
3B7
330
1F
100
AcDbEntity
  8
0
100
AcDbLine
 10
52.47345513237846
 20
-61.64406137152761
 30
0.0
 11
52.47345513237846
 21
-64.06336137152753
 31
0.0
  0
LINE
  5
3B8
330
1F
100
AcDbEntity
  8
0
100
AcDbLine
 10
52.47345513237846
 20
-56.2247613715276
 30
0.0
 11
52.47345513237846
 21
-58.64406137152754
 31
0.0
  0
LINE
  5
3B9
330
1F
100
AcDbEntity
  8
0
100
AcDbLine
 10
52.47345513237846
 20
-29.12826137152765
 30
0.0
 11
52.47345513237846
 21
-31.54756137152759
 31
0.0
  0
LINE
  5
3BA
330
1F
100
AcDbEntity
  8
0
100
AcDbLine
 10
52.47345513237846
 20
-12.87036137152767
 30
0.0
 11
52.47345513237846
 21
-15.28966137152762
 31
0.0
  0
LINE
  5
3BB
330
1F
100
AcDbEntity
  8
0
100
AcDbLine
 10
52.47345513237846
 20
-2.03176137152769
 30
0.0
 11
52.47345513237846
 21
-4.451061371527642
 31
0.0
  0
LINE
  5
3BC
330
1F
100
AcDbEntity
  8
0
100
AcDbLine
 10
52.47345513237846
 20
3.387538628472301
 30
0.0
 11
52.47345513237846
 21
0.9682386284723496
 31
0.0
  0
LINE
  5
3BD
330
1F
100
AcDbEntity
  8
0
100
AcDbLine
 10
52.47345513237846
 20
8.806838628472292
 30
0.0
 11
52.47345513237846
 21
6.387538628472341
 31
0.0
  0
LINE
  5
3BE
330
1F
100
AcDbEntity
  8
0
100
AcDbLine
 10
52.47345513237846
 20
14.22613862847228
 30
0.0
 11
52.47345513237846
 21
11.80683862847233
 31
0.0
  0
LINE
  5
3BF
330
1F
100
AcDbEntity
  8
0
100
AcDbLine
 10
52.47345513237846
 20
19.64543862847227
 30
0.0
 11
52.47345513237846
 21
17.22613862847232
 31
0.0
  0
LINE
  5
3C0
330
1F
100
AcDbEntity
  8
0
100
AcDbLine
 10
52.47345513237846
 20
25.06473862847227
 30
0.0
 11
52.47345513237846
 21
22.64543862847231
 31
0.0
  0
LINE
  5
3C1
330
1F
100
AcDbEntity
  8
0
100
AcDbLine
 10
52.47345513237846
 20
30.48403862847227
 30
0.0
 11
52.47345513237846
 21
28.06473862847231
 31
0.0
  0
LINE
  5
3C2
330
1F
100
AcDbEntity
  8
0
100
AcDbLine
 10
52.47345513237846
 20
-72.48266137152757
 30
0.0
 11
52.47345513237846
 21
-73.46269938151035
 31
0.0
  0
LINE
  5
3C3
330
1F
100
AcDbEntity
  8
0
100
AcDbLine
 10
52.47345513237846
 20
-50.8054613715276
 30
0.0
 11
52.47345513237846
 21
-53.22476137152756
 31
0.0
  0
LINE
  5
3C4
330
1F
100
AcDbEntity
  8
0
100
AcDbLine
 10
52.47345513237846
 20
-45.38616137152761
 30
0.0
 11
52.47345513237846
 21
-47.80546137152756
 31
0.0
  0
LINE
  5
3C5
330
1F
100
AcDbEntity
  8
0
100
AcDbLine
 10
52.47345513237846
 20
-39.96686137152763
 30
0.0
 11
52.47345513237846
 21
-42.38616137152756
 31
0.0
  0
LINE
  5
3C6
330
1F
100
AcDbEntity
  8
0
100
AcDbLine
 10
52.47345513237846
 20
-34.54756137152764
 30
0.0
 11
52.47345513237846
 21
-36.96686137152758
 31
0.0
  0
LINE
  5
3C7
330
1F
100
AcDbEntity
  8
0
100
AcDbLine
 10
52.47345513237846
 20
-23.70896137152765
 30
0.0
 11
52.47345513237846
 21
-26.1282613715276
 31
0.0
  0
LINE
  5
3C8
330
1F
100
AcDbEntity
  8
0
100
AcDbLine
 10
52.47345513237846
 20
-18.28966137152766
 30
0.0
 11
52.47345513237846
 21
-20.70896137152761
 31
0.0
  0
LINE
  5
3C9
330
1F
100
AcDbEntity
  8
0
100
AcDbLine
 10
52.47345513237846
 20
-7.451061371527681
 30
0.0
 11
52.47345513237846
 21
-9.870361371527643
 31
0.0
  0
LINE
  5
3CA
330
1F
100
AcDbEntity
  8
0
100
AcDbLine
 10
-52.47345513237846
 20
-73.46269938151035
 30
0.0
 11
-45.78333891739104
 21
-73.46269938151035
 31
0.0
  0
LINE
  5
3CB
330
1F
100
AcDbEntity
  8
0
100
AcDbLine
 10
19.80847999808215
 20
-73.46269938151035
 30
0.0
 11
32.79590945773641
 21
-71.48266137152757
 31
0.0
  0
LINE
  5
3CC
330
1F
100
AcDbEntity
  8
0
100
AcDbLine
 10
12.98742945965454
 20
-73.46269938151035
 30
0.0
 11
0.0000000000000902
 21
-71.48266137152757
 31
0.0
  0
LINE
  5
3CD
330
1F
100
AcDbEntity
  8
0
100
AcDbLine
 10
-19.80847999808206
 20
-73.46269938151035
 30
0.0
 11
-32.79590945773659
 21
-71.48266137152757
 31
0.0
  0
LINE
  5
3CE
330
1F
100
AcDbEntity
  8
0
100
AcDbLine
 10
12.98742945965454
 20
-73.46269938151035
 30
0.0
 11
19.80847999808215
 21
-73.46269938151035
 31
0.0
  0
LINE
  5
3CF
330
1F
100
AcDbEntity
  8
0
100
AcDbLine
 10
-19.80847999808206
 20
-73.46269938151035
 30
0.0
 11
-12.98742945965445
 21
-73.46269938151035
 31
0.0
  0
LINE
  5
3D0
330
1F
100
AcDbEntity
  8
0
100
AcDbLine
 10
45.78333891739086
 20
-73.46269938151035
 30
0.0
 11
52.47345513237846
 21
-73.46269938151035
 31
0.0
  0
LINE
  5
3D1
330
1F
100
AcDbEntity
  8
0
100
AcDbLine
 10
-52.47345513237846
 20
73.46269938151035
 30
0.0
 11
-52.47345513237846
 21
31.48403862847227
 31
0.0
  0
LINE
  5
3D2
330
1F
100
AcDbEntity
  8
0
100
AcDbLine
 10
52.47345513237846
 20
73.46269938151035
 30
0.0
 11
52.47345513237846
 21
31.48403862847227
 31
0.0
  0
LINE
  5
3D3
330
1F
100
AcDbEntity
  8
0
100
AcDbLine
 10
-6.559181891547318
 20
31.48403862847227
 30
0.0
 11
-16.39795472886825
 21
29.98403862847227
 31
0.0
  0
LINE
  5
3D4
330
1F
100
AcDbEntity
  8
0
100
AcDbLine
 10
26.23672756618937
 20
31.48403862847227
 30
0.0
 11
16.39795472886834
 21
29.98403862847227
 31
0.0
  0
LINE
  5
3D5
330
1F
100
AcDbEntity
  8
0
100
AcDbLine
 10
-39.35509134928382
 20
31.48403862847227
 30
0.0
 11
-49.19386418660485
 21
29.98403862847227
 31
0.0
  0
LINE
  5
3D6
330
1F
100
AcDbEntity
  8
0
100
AcDbLine
 10
-39.35509134928382
 20
31.48403862847227
 30
0.0
 11
-52.47345513237846
 21
31.48403862847227
 31
0.0
  0
LINE
  5
3D7
330
1F
100
AcDbEntity
  8
0
100
AcDbLine
 10
-26.23672756618918
 20
31.48403862847227
 30
0.0
 11
-6.559181891547318
 21
31.48403862847227
 31
0.0
  0
LINE
  5
3D8
330
1F
100
AcDbEntity
  8
0
100
AcDbLine
 10
6.559181891547318
 20
31.48403862847227
 30
0.0
 11
26.23672756618937
 21
31.48403862847227
 31
0.0
  0
LINE
  5
3D9
330
1F
100
AcDbEntity
  8
0
100
AcDbLine
 10
39.355091349284
 20
31.48403862847227
 30
0.0
 11
52.47345513237846
 21
31.48403862847227
 31
0.0
  0
LINE
  5
3DA
330
1F
100
AcDbEntity
  8
0
100
AcDbLine
 10
-27.57454733668224
 20
46.14626525080032
 30
0.0
 11
-36.74393608261374
 21
44.74831823583079
 31
0.0
  0
LINE
  5
3DB
330
1F
100
AcDbEntity
  8
0
100
AcDbLine
 10
-36.74393608261374
 20
47.54421226577008
 30
0.0
 11
-27.57454733668224
 21
46.14626525080032
 31
0.0
  0
LINE
  5
3DC
330
1F
100
AcDbEntity
  8
0
100
AcDbLine
 10
-48.20567201502807
 20
46.78883159623116
 30
0.0
 11
-39.03628326909675
 21
48.18677861120088
 31
0.0
  0
LINE
  5
3DD
330
1F
100
AcDbEntity
  8
0
100
AcDbLine
 10
-45.91332482854524
 20
46.14626525080032
 30
0.0
 11
-36.74393608261374
 21
47.54421226577008
 31
0.0
  0
LINE
  5
3DE
330
1F
100
AcDbEntity
  8
0
100
AcDbLine
 10
-25.28220015019905
 20
45.79677849705791
 30
0.0
 11
-34.45158889613037
 21
44.39883148208833
 31
0.0
  0
LINE
  5
3DF
330
1F
100
AcDbEntity
  8
0
100
AcDbLine
 10
-36.74393608261374
 20
44.74831823583079
 30
0.0
 11
-45.91332482854524
 21
46.14626525080032
 31
0.0
  0
LINE
  5
3E0
330
1F
100
AcDbEntity
  8
0
100
AcDbLine
 10
-39.03628326909675
 20
44.39883148208833
 30
0.0
 11
-48.20567201502807
 21
45.79677849705791
 31
0.0
  0
LINE
  5
3E1
330
1F
100
AcDbEntity
  8
0
100
AcDbLine
 10
-34.45158889613037
 20
48.18677861120088
 30
0.0
 11
-25.28220015019905
 21
46.78883159623116
 31
0.0
  0
LINE
  5
3E2
330
1F
100
AcDbEntity
  8
0
100
AcDbLine
 10
-41.28316925175431
 20
66.08284130066276
 30
0.0
 11
-41.39140735306327
 21
66.4939517686678
 31
0.0
  0
LINE
  5
3E3
330
1F
100
AcDbEntity
  8
0
100
AcDbLine
 10
-41.39140735306327
 20
66.4939517686678
 30
0.0
 11
-41.55238014638132
 21
66.88741722241134
 31
0.0
  0
LINE
  5
3E4
330
1F
100
AcDbEntity
  8
0
100
AcDbLine
 10
-42.31994965339278
 20
67.89681403615967
 30
0.0
 11
-42.65608890859617
 21
68.15707871795412
 31
0.0
  0
LINE
  5
3E5
330
1F
100
AcDbEntity
  8
0
100
AcDbLine
 10
-46.90756978702778
 20
67.61620486049601
 30
0.0
 11
-47.16783446882226
 21
67.28006560529265
 31
0.0
  0
LINE
  5
3E6
330
1F
100
AcDbEntity
  8
0
100
AcDbLine
 10
-43.04873729147752
 20
62.54162439551318
 30
0.0
 11
-42.67964915499815
 21
62.75257759171664
 31
0.0
  0
LINE
  5
3E7
330
1F
100
AcDbEntity
  8
0
100
AcDbLine
 10
-41.22951782637723
 20
65.66112003248524
 30
0.0
 11
-41.28316925175431
 21
66.08284130066276
 31
0.0
  0
LINE
  5
3E8
330
1F
100
AcDbEntity
  8
0
100
AcDbLine
 10
-41.77907579593469
 20
63.64533315772802
 30
0.0
 11
-41.56491269160988
 21
64.01256805288945
 31
0.0
  0
LINE
  5
3E9
330
1F
100
AcDbEntity
  8
0
100
AcDbLine
 10
-41.28869726623535
 20
64.81476625684442
 30
0.0
 11
-41.23137106769512
 21
65.23600373195694
 31
0.0
  0
LINE
  5
3EA
330
1F
100
AcDbEntity
  8
0
100
AcDbLine
 10
-41.56491269160988
 20
64.01256805288945
 30
0.0
 11
-41.4005155548469
 21
64.40461509713592
 31
0.0
  0
LINE
  5
3EB
330
1F
100
AcDbEntity
  8
0
100
AcDbLine
 10
-44.70015078193185
 20
62.22061531682701
 30
0.0
 11
-44.27503448140352
 21
62.2187620755091
 31
0.0
  0
LINE
  5
3EC
330
1F
100
AcDbEntity
  8
0
100
AcDbLine
 10
-46.29082135616078
 20
62.76832004506655
 30
0.0
 11
-45.9235864609994
 21
62.55415694074173
 31
0.0
  0
LINE
  5
3ED
330
1F
100
AcDbEntity
  8
0
100
AcDbLine
 10
-42.65608890859617
 20
68.15707871795412
 30
0.0
 11
-43.02332380375756
 21
68.37124182227895
 31
0.0
  0
LINE
  5
3EE
330
1F
100
AcDbEntity
  8
0
100
AcDbLine
 10
-41.55238014638132
 20
66.88741722241134
 30
0.0
 11
-41.76333334258475
 21
67.25650535889068
 31
0.0
  0
LINE
  5
3EF
330
1F
100
AcDbEntity
  8
0
100
AcDbLine
 10
-45.9235864609994
 20
62.55415694074173
 30
0.0
 11
-45.5315394167529
 21
62.38975980397877
 31
0.0
  0
LINE
  5
3F0
330
1F
100
AcDbEntity
  8
0
100
AcDbLine
 10
-41.4005155548469
 20
64.40461509713592
 30
0.0
 11
-41.28869726623535
 21
64.81476625684442
 31
0.0
  0
LINE
  5
3F1
330
1F
100
AcDbEntity
  8
0
100
AcDbLine
 10
-47.16783446882226
 20
67.28006560529265
 30
0.0
 11
-47.38199757314706
 21
66.91283071013123
 31
0.0
  0
LINE
  5
3F2
330
1F
100
AcDbEntity
  8
0
100
AcDbLine
 10
-46.26726110975879
 20
68.17282117130402
 30
0.0
 11
-46.60565672862821
 21
67.91549703988944
 31
0.0
  0
LINE
  5
3F3
330
1F
100
AcDbEntity
  8
0
100
AcDbLine
 10
-42.34125353612873
 20
63.00990172313124
 30
0.0
 11
-42.03934047772917
 21
63.30919390252463
 31
0.0
  0
LINE
  5
3F4
330
1F
100
AcDbEntity
  8
0
100
AcDbLine
 10
-45.5315394167529
 20
62.38975980397877
 30
0.0
 11
-45.12138825704437
 21
62.2779415153672
 31
0.0
  0
LINE
  5
3F5
330
1F
100
AcDbEntity
  8
0
100
AcDbLine
 10
-42.67964915499815
 20
62.75257759171664
 30
0.0
 11
-42.34125353612873
 21
63.00990172313124
 31
0.0
  0
LINE
  5
3F6
330
1F
100
AcDbEntity
  8
0
100
AcDbLine
 10
-46.92625279075759
 20
63.3304977852606
 30
0.0
 11
-46.62696061136417
 21
63.02858472686101
 31
0.0
  0
LINE
  5
3F7
330
1F
100
AcDbEntity
  8
0
100
AcDbLine
 10
-42.03934047772917
 20
63.30919390252463
 30
0.0
 11
-41.77907579593469
 21
63.64533315772802
 31
0.0
  0
LINE
  5
3F8
330
1F
100
AcDbEntity
  8
0
100
AcDbLine
 10
-47.71553919706182
 20
65.68939503106371
 30
0.0
 11
-47.71739243837971
 21
65.26427873053544
 31
0.0
  0
LINE
  5
3F9
330
1F
100
AcDbEntity
  8
0
100
AcDbLine
 10
-44.27503448140352
 20
62.2187620755091
 30
0.0
 11
-43.85331321322602
 21
62.27241350088617
 31
0.0
  0
LINE
  5
3FA
330
1F
100
AcDbEntity
  8
0
100
AcDbLine
 10
-45.50470751953591
 20
68.5447471608256
 30
0.0
 11
-45.89817297327943
 21
68.3837743675075
 31
0.0
  0
LINE
  5
3FB
330
1F
100
AcDbEntity
  8
0
100
AcDbLine
 10
-43.41537084800405
 20
68.53563895904192
 30
0.0
 11
-43.82552200771258
 21
68.6474572476535
 31
0.0
  0
LINE
  5
3FC
330
1F
100
AcDbEntity
  8
0
100
AcDbLine
 10
-47.65821299852169
 20
66.11063250617626
 30
0.0
 11
-47.71553919706182
 21
65.68939503106371
 31
0.0
  0
LINE
  5
3FD
330
1F
100
AcDbEntity
  8
0
100
AcDbLine
 10
-43.44220274522105
 20
62.38065160219509
 30
0.0
 11
-43.04873729147752
 21
62.54162439551318
 31
0.0
  0
LINE
  5
3FE
330
1F
100
AcDbEntity
  8
0
100
AcDbLine
 10
-47.39453011837563
 20
64.03798154060934
 30
0.0
 11
-47.1835769221722
 21
63.66889340413
 31
0.0
  0
LINE
  5
3FF
330
1F
100
AcDbEntity
  8
0
100
AcDbLine
 10
-44.67187578335343
 20
68.70663668751158
 30
0.0
 11
-45.09359705153092
 21
68.65298526213451
 31
0.0
  0
LINE
  5
400
330
1F
100
AcDbEntity
  8
0
100
AcDbLine
 10
-42.02065747399935
 20
67.59490097776008
 30
0.0
 11
-42.31994965339278
 21
67.89681403615967
 31
0.0
  0
LINE
  5
401
330
1F
100
AcDbEntity
  8
0
100
AcDbLine
 10
-41.23137106769512
 20
65.23600373195694
 30
0.0
 11
-41.22951782637723
 21
65.66112003248524
 31
0.0
  0
LINE
  5
402
330
1F
100
AcDbEntity
  8
0
100
AcDbLine
 10
-46.62696061136417
 20
63.02858472686101
 30
0.0
 11
-46.29082135616078
 21
62.76832004506655
 31
0.0
  0
LINE
  5
403
330
1F
100
AcDbEntity
  8
0
100
AcDbLine
 10
-43.85331321322602
 20
62.27241350088617
 30
0.0
 11
-43.44220274522105
 21
62.38065160219509
 31
0.0
  0
LINE
  5
404
330
1F
100
AcDbEntity
  8
0
100
AcDbLine
 10
-47.55550291169368
 20
64.43144699435288
 30
0.0
 11
-47.39453011837563
 21
64.03798154060934
 31
0.0
  0
LINE
  5
405
330
1F
100
AcDbEntity
  8
0
100
AcDbLine
 10
-47.71739243837971
 20
65.26427873053544
 30
0.0
 11
-47.66374101300264
 21
64.84255746235789
 31
0.0
  0
LINE
  5
406
330
1F
100
AcDbEntity
  8
0
100
AcDbLine
 10
-47.66374101300264
 20
64.84255746235789
 30
0.0
 11
-47.55550291169368
 21
64.43144699435288
 31
0.0
  0
LINE
  5
407
330
1F
100
AcDbEntity
  8
0
100
AcDbLine
 10
-43.02332380375756
 20
68.37124182227895
 30
0.0
 11
-43.41537084800405
 21
68.53563895904192
 31
0.0
  0
LINE
  5
408
330
1F
100
AcDbEntity
  8
0
100
AcDbLine
 10
-47.1835769221722
 20
63.66889340413
 30
0.0
 11
-46.92625279075759
 21
63.3304977852606
 31
0.0
  0
LINE
  5
409
330
1F
100
AcDbEntity
  8
0
100
AcDbLine
 10
-43.82552200771258
 20
68.6474572476535
 30
0.0
 11
-44.24675948282511
 21
68.70478344619367
 31
0.0
  0
LINE
  5
40A
330
1F
100
AcDbEntity
  8
0
100
AcDbLine
 10
-41.76333334258475
 20
67.25650535889068
 30
0.0
 11
-42.02065747399935
 21
67.59490097776008
 31
0.0
  0
LINE
  5
40B
330
1F
100
AcDbEntity
  8
0
100
AcDbLine
 10
-45.09359705153092
 20
68.65298526213451
 30
0.0
 11
-45.50470751953591
 21
68.5447471608256
 31
0.0
  0
LINE
  5
40C
330
1F
100
AcDbEntity
  8
0
100
AcDbLine
 10
-45.89817297327943
 20
68.3837743675075
 30
0.0
 11
-46.26726110975879
 21
68.17282117130402
 31
0.0
  0
LINE
  5
40D
330
1F
100
AcDbEntity
  8
0
100
AcDbLine
 10
-45.12138825704437
 20
62.2779415153672
 30
0.0
 11
-44.70015078193185
 21
62.22061531682701
 31
0.0
  0
LINE
  5
40E
330
1F
100
AcDbEntity
  8
0
100
AcDbLine
 10
-46.60565672862821
 20
67.91549703988944
 30
0.0
 11
-46.90756978702778
 21
67.61620486049601
 31
0.0
  0
LINE
  5
40F
330
1F
100
AcDbEntity
  8
0
100
AcDbLine
 10
-47.54639470991005
 20
66.52078366588476
 30
0.0
 11
-47.65821299852169
 21
66.11063250617626
 31
0.0
  0
LINE
  5
410
330
1F
100
AcDbEntity
  8
0
100
AcDbLine
 10
-44.24675948282511
 20
68.70478344619367
 30
0.0
 11
-44.67187578335343
 21
68.70663668751158
 31
0.0
  0
LINE
  5
411
330
1F
100
AcDbEntity
  8
0
100
AcDbLine
 10
-47.38199757314706
 20
66.91283071013123
 30
0.0
 11
-47.54639470991005
 21
66.52078366588476
 31
0.0
  0
ENDSEC
  0
SECTION
  2
OBJECTS
  0
DICTIONARY
  5
C
330
0
100
AcDbDictionary
  3
ACAD_GROUP
350
D
  3
ACAD_LAYOUT
350
1A
  3
ACAD_MATERIAL
350
43
  3
ACAD_MLEADERSTYLE
350
434
  3
ACAD_MLINESTYLE
350
17
  3
ACAD_PLOTSETTINGS
350
19
  3
ACAD_SCALELIST
350
47
  3
ACAD_VISUALSTYLE
350
2A
  3
ACDBHEADERROUNDTRIPXREC
350
412
  3
ACDBVARIABLEDICTIONARY
350
432
  0
DICTIONARY
  5
439
330
8
100
AcDbDictionary
280
     1
  3
ACAD_XREC_ROUNDTRIP
360
43A
  0
DICTIONARY
  5
D
102
{ACAD_REACTORS
330
C
102
}
330
C
100
AcDbDictionary
  0
DICTIONARY
  5
1A
102
{ACAD_REACTORS
330
C
102
}
330
C
100
AcDbDictionary
  0
DICTIONARY
  5
43
102
{ACAD_REACTORS
330
C
102
}
330
C
100
AcDbDictionary
  3
BYBLOCK
350
45
  3
BYLAYER
350
44
  3
GLOBAL
350
46
  0
DICTIONARY
  5
434
102
{ACAD_REACTORS
330
C
102
}
330
C
100
AcDbDictionary
  0
DICTIONARY
  5
17
102
{ACAD_REACTORS
330
C
102
}
330
C
100
AcDbDictionary
  3
STANDARD
350
18
  0
DICTIONARY
  5
19
102
{ACAD_REACTORS
330
C
102
}
330
C
100
AcDbDictionary
  0
DICTIONARY
  5
47
102
{ACAD_REACTORS
330
C
102
}
330
C
100
AcDbDictionary
  3
A0
350
48
  3
A1
350
49
  3
A2
350
4A
  3
A3
350
4B
  3
A4
350
4C
  3
A5
350
4D
  3
A6
350
4E
  3
A7
350
4F
  3
A8
350
50
  3
A9
350
51
  3
B0
350
52
  3
B1
350
53
  3
B2
350
54
  3
B3
350
55
  3
B4
350
56
  3
B5
350
57
  3
B6
350
58
  3
B7
350
59
  3
B8
350
5A
  3
B9
350
5B
  3
C0
350
5C
  3
C1
350
5D
  3
C2
350
5E
  3
C3
350
5F
  3
C4
350
60
  3
C5
350
61
  3
C6
350
62
  3
C7
350
63
  3
C8
350
64
  3
C9
350
65
  3
D0
350
66
  3
D1
350
67
  3
D2
350
68
  0
DICTIONARY
  5
2A
102
{ACAD_REACTORS
330
C
102
}
330
C
100
AcDbDictionary
  3
2DWIREFRAME
350
2F
  3
BASIC
350
32
  3
BRIGHTEN
350
36
  3
COLORCHANGE
350
3A
  3
CONCEPTUAL
350
34
  3
DIM
350
35
  3
EDGECOLOROFF
350
3D
  3
FACEPATTERN
350
39
  3
FLAT
350
2B
  3
FLATWITHEDGES
350
2C
  3
GOURAUD
350
2D
  3
GOURAUDWITHEDGES
350
2E
  3
HIDDEN
350
31
  3
JITTEROFF
350
3B
  3
LINEPATTERN
350
38
  3
OVERHANGOFF
350
3C
  3
REALISTIC
350
33
  3
SHADED
350
42
  3
SHADED_WITH_EDGES
350
41
  3
SHADES_OF_GRAY
350
3E
  3
SKETCHY
350
3F
  3
THICKEN
350
37
  3
WIREFRAME
350
30
  3
X-RAY
350
40
  0
DICTIONARY
  5
412
102
{ACAD_REACTORS
330
C
102
}
330
C
100
AcDbDictionary
  3
CEPSNTYPE
350
41B
  3
DIMSTYLEDATA
350
431
  3
FINGERPRINTGUID
350
41C
  3
HYPERLINKBASE
350
415
  3
INSUNITS
350
41A
  3
LAYOUTDICT
350
417
  3
LWETCUNION
350
419
  3
PLOTSETDICT
350
418
  3
PSVPSCALE
350
41E
  3
PUCSBASE
350
421
  3
PUCSORGBACK
350
427
  3
PUCSORGBOTTOM
350
423
  3
PUCSORGFRONT
350
426
  3
PUCSORGLEFT
350
424
  3
PUCSORGRIGHT
350
425
  3
PUCSORGTOP
350
422
  3
PUCSORTHOREF
350
41F
  3
PUCSORTHOVIEW
350
420
  3
STYLESHEET
350
416
  3
TSTACKALIGN
350
413
  3
TSTACKSIZE
350
414
  3
UCSBASE
350
42A
  3
UCSORGBACK
350
430
  3
UCSORGBOTTOM
350
42C
  3
UCSORGFRONT
350
42F
  3
UCSORGLEFT
350
42D
  3
UCSORGRIGHT
350
42E
  3
UCSORGTOP
350
42B
  3
UCSORTHOREF
350
428
  3
UCSORTHOVIEW
350
429
  3
VERSIONGUID
350
41D
  0
DICTIONARY
  5
432
102
{ACAD_REACTORS
330
C
102
}
330
C
100
AcDbDictionary
  3
CANNOSCALE
350
43B
  3
DIMASSOC
350
437
  3
HIDETEXT
350
438
  3
MSLTSCALE
350
43C
  0
XRECORD
  5
43A
102
{ACAD_REACTORS
330
439
102
}
330
439
100
AcDbXrecord
102
VTR_0.000_0.000_1.000_1.000_GRIDDISPLAY
 70
     3
102
VTR_0.000_0.000_1.000_1.000_GRIDMAJOR
 70
     5
102
VTR_0.000_0.000_1.000_1.000_DEFAULTLIGHTING
280
     1
102
VTR_0.000_0.000_1.000_1.000_DEFAULTLIGHTINGTYPE
 70
     1
102
VTR_0.000_0.000_1.000_1.000_BRIGHTNESS
141
0.0
102
VTR_0.000_0.000_1.000_1.000_CONTRAST
142
0.0
  0
MATERIAL
  5
45
102
{ACAD_REACTORS
330
43
102
}
102
{ACAD_XDICTIONARY
360
43F
102
}
330
43
100
AcDbMaterial
  1
BYBLOCK
  0
MATERIAL
  5
44
102
{ACAD_REACTORS
330
43
102
}
102
{ACAD_XDICTIONARY
360
43D
102
}
330
43
100
AcDbMaterial
  1
BYLAYER
  0
MATERIAL
  5
46
102
{ACAD_REACTORS
330
43
102
}
102
{ACAD_XDICTIONARY
360
441
102
}
330
43
100
AcDbMaterial
  1
GLOBAL
  0
MLINESTYLE
  5
18
102
{ACAD_REACTORS
330
17
102
}
330
17
100
AcDbMlineStyle
  2
Standard
 70
     0
  3

 62
   256
 51
90.0
 52
90.0
 71
     2
 49
0.5
 62
   256
  6
BYLAYER
 49
-0.5
 62
   256
  6
BYLAYER
  0
ACAD_PROXY_OBJECT
  5
48
102
{ACAD_REACTORS
330
47
102
}
330
47
100
AcDbProxyObject
 90
      499
 91
      503
 93
       41
310
903313A31580
  0
ACAD_PROXY_OBJECT
  5
49
102
{ACAD_REACTORS
330
47
102
}
330
47
100
AcDbProxyObject
 90
      499
 91
      503
 93
      105
310
903313A324000000000000004000
  0
ACAD_PROXY_OBJECT
  5
4A
102
{ACAD_REACTORS
330
47
102
}
330
47
100
AcDbProxyObject
 90
      499
 91
      503
 93
      105
310
903313A344000000000000104000
  0
ACAD_PROXY_OBJECT
  5
4B
102
{ACAD_REACTORS
330
47
102
}
330
47
100
AcDbProxyObject
 90
      499
 91
      503
 93
      105
310
903313A354000000000000144000
  0
ACAD_PROXY_OBJECT
  5
4C
102
{ACAD_REACTORS
330
47
102
}
330
47
100
AcDbProxyObject
 90
      499
 91
      503
 93
      105
310
903313A384000000000000204000
  0
ACAD_PROXY_OBJECT
  5
4D
102
{ACAD_REACTORS
330
47
102
}
330
47
100
AcDbProxyObject
 90
      499
 91
      503
 93
      113
310
904313A31304000000000000244000
  0
ACAD_PROXY_OBJECT
  5
4E
102
{ACAD_REACTORS
330
47
102
}
330
47
100
AcDbProxyObject
 90
      499
 91
      503
 93
      113
310
904313A31364000000000000304000
  0
ACAD_PROXY_OBJECT
  5
4F
102
{ACAD_REACTORS
330
47
102
}
330
47
100
AcDbProxyObject
 90
      499
 91
      503
 93
      113
310
904313A32304000000000000344000
  0
ACAD_PROXY_OBJECT
  5
50
102
{ACAD_REACTORS
330
47
102
}
330
47
100
AcDbProxyObject
 90
      499
 91
      503
 93
      113
310
904313A333040000000000003E4000
  0
ACAD_PROXY_OBJECT
  5
51
102
{ACAD_REACTORS
330
47
102
}
330
47
100
AcDbProxyObject
 90
      499
 91
      503
 93
      113
310
904313A34304000000000000444000
  0
ACAD_PROXY_OBJECT
  5
52
102
{ACAD_REACTORS
330
47
102
}
330
47
100
AcDbProxyObject
 90
      499
 91
      503
 93
      113
310
904313A35304000000000000494000
  0
ACAD_PROXY_OBJECT
  5
53
102
{ACAD_REACTORS
330
47
102
}
330
47
100
AcDbProxyObject
 90
      499
 91
      503
 93
      121
310
905313A3130304000000000000594000
  0
ACAD_PROXY_OBJECT
  5
54
102
{ACAD_REACTORS
330
47
102
}
330
47
100
AcDbProxyObject
 90
      499
 91
      503
 93
      105
310
903323A310000000000000010100
  0
ACAD_PROXY_OBJECT
  5
55
102
{ACAD_REACTORS
330
47
102
}
330
47
100
AcDbProxyObject
 90
      499
 91
      503
 93
      105
310
903343A310000000000000410100
  0
ACAD_PROXY_OBJECT
  5
56
102
{ACAD_REACTORS
330
47
102
}
330
47
100
AcDbProxyObject
 90
      499
 91
      503
 93
      105
310
903383A310000000000000810100
  0
ACAD_PROXY_OBJECT
  5
57
102
{ACAD_REACTORS
330
47
102
}
330
47
100
AcDbProxyObject
 90
      499
 91
      503
 93
      113
310
90431303A310000000000000910100
  0
ACAD_PROXY_OBJECT
  5
58
102
{ACAD_REACTORS
330
47
102
}
330
47
100
AcDbProxyObject
 90
      499
 91
      503
 93
      121
310
9053130303A310000000000001650100
  0
ACAD_PROXY_OBJECT
  5
59
102
{ACAD_REACTORS
330
47
102
}
330
47
100
AcDbProxyObject
 90
      499
 91
      503
 93
      257
310
90E312F31323822203D2031272D3022000000000000200FC000000000000284000
  0
ACAD_PROXY_OBJECT
  5
5A
102
{ACAD_REACTORS
330
47
102
}
330
47
100
AcDbProxyObject
 90
      499
 91
      503
 93
      249
310
90D312F363422203D2031272D3022000000000000240FC000000000000284000
  0
ACAD_PROXY_OBJECT
  5
5B
102
{ACAD_REACTORS
330
47
102
}
330
47
100
AcDbProxyObject
 90
      499
 91
      503
 93
      249
310
90D312F333222203D2031272D3022000000000000280FC000000000000284000
  0
ACAD_PROXY_OBJECT
  5
5C
102
{ACAD_REACTORS
330
47
102
}
330
47
100
AcDbProxyObject
 90
      499
 91
      503
 93
      249
310
90D312F313622203D2031272D30220000000000002C0FC000000000000284000
  0
ACAD_PROXY_OBJECT
  5
5D
102
{ACAD_REACTORS
330
47
102
}
330
47
100
AcDbProxyObject
 90
      499
 91
      503
 93
      249
310
90D332F333222203D2031272D30220000000000002E0FC000000000000284000
  0
ACAD_PROXY_OBJECT
  5
5E
102
{ACAD_REACTORS
330
47
102
}
330
47
100
AcDbProxyObject
 90
      499
 91
      503
 93
      241
310
90C312F3822203D2031272D3022000000000000300FC000000000000284000
  0
ACAD_PROXY_OBJECT
  5
5F
102
{ACAD_REACTORS
330
47
102
}
330
47
100
AcDbProxyObject
 90
      499
 91
      503
 93
      249
310
90D332F313622203D2031272D3022000000000000320FC000000000000284000
  0
ACAD_PROXY_OBJECT
  5
60
102
{ACAD_REACTORS
330
47
102
}
330
47
100
AcDbProxyObject
 90
      499
 91
      503
 93
      241
310
90C312F3422203D2031272D3022000000000000340FC000000000000284000
  0
ACAD_PROXY_OBJECT
  5
61
102
{ACAD_REACTORS
330
47
102
}
330
47
100
AcDbProxyObject
 90
      499
 91
      503
 93
      241
310
90C332F3822203D2031272D3022000000000000360FC000000000000284000
  0
ACAD_PROXY_OBJECT
  5
62
102
{ACAD_REACTORS
330
47
102
}
330
47
100
AcDbProxyObject
 90
      499
 91
      503
 93
      241
310
90C312F3222203D2031272D3022000000000000380FC000000000000284000
  0
ACAD_PROXY_OBJECT
  5
63
102
{ACAD_REACTORS
330
47
102
}
330
47
100
AcDbProxyObject
 90
      499
 91
      503
 93
      241
310
90C332F3422203D2031272D30220000000000003A0FC000000000000284000
  0
ACAD_PROXY_OBJECT
  5
64
102
{ACAD_REACTORS
330
47
102
}
330
47
100
AcDbProxyObject
 90
      499
 91
      503
 93
      161
310
90A3122203D2031272D30224000000000000284000
  0
ACAD_PROXY_OBJECT
  5
65
102
{ACAD_REACTORS
330
47
102
}
330
47
100
AcDbProxyObject
 90
      499
 91
      503
 93
      257
310
90E312D312F3222203D2031272D30220000000000003E0FC000000000000284000
  0
ACAD_PROXY_OBJECT
  5
66
102
{ACAD_REACTORS
330
47
102
}
330
47
100
AcDbProxyObject
 90
      499
 91
      503
 93
      225
310
90A3322203D2031272D302200000000000002100000000000000284000
  0
ACAD_PROXY_OBJECT
  5
67
102
{ACAD_REACTORS
330
47
102
}
330
47
100
AcDbProxyObject
 90
      499
 91
      503
 93
      225
310
90A3622203D2031272D302200000000000006100000000000000284000
  0
ACAD_PROXY_OBJECT
  5
68
102
{ACAD_REACTORS
330
47
102
}
330
47
100
AcDbProxyObject
 90
      499
 91
      503
 93
      249
310
90D31272D3022203D2031272D30220000000000000A100000000000000284000
  0
ACAD_PROXY_OBJECT
  5
2F
102
{ACAD_REACTORS
330
2A
102
}
330
2A
100
AcDbProxyObject
 90
      499
 91
      501
 93
      436
310
42CC9915DA5C99599C985B595049028333333333333E33F0000000000000F90107901411070040501600405405064090741402480A0340
1001
ACAD
1000
AcDbSavedByObjectVersion
1070
     0
  0
ACAD_PROXY_OBJECT
  5
32
102
{ACAD_REACTORS
330
2A
102
}
330
2A
100
AcDbProxyObject
 90
      499
 91
      501
 93
      388
310
4150985CDA58D07406404333333333333E33F0000000000000F90107A41107004050150841D405064090741402480A0350
1001
ACAD
1000
AcDbSavedByObjectVersion
1070
     0
  0
ACAD_PROXY_OBJECT
  5
36
102
{ACAD_REACTORS
330
2A
102
}
330
2A
100
AcDbProxyObject
 90
      499
 91
      501
 93
      428
310
42109C9A59DA1D195B90C409028333333333333E33F0000000000000F9010790141107004050150841D405064090741402480A029950
1001
ACAD
1000
AcDbSavedByObjectVersion
1070
     0
  0
ACAD_PROXY_OBJECT
  5
3A
102
{ACAD_REACTORS
330
2A
102
}
330
2A
100
AcDbProxyObject
 90
      499
 91
      501
 93
      452
310
42D0DBDB1BDC90DA185B99D95104090240C333333333333E33F0000000000000F90108901411070040501508421405064090741402480A0350
1001
ACAD
1000
AcDbSavedByObjectVersion
1070
     0
  0
ACAD_PROXY_OBJECT
  5
34
102
{ACAD_REACTORS
330
2A
102
}
330
2A
100
AcDbProxyObject
 90
      499
 91
      501
 93
      500
310
4290DBDB98D95C1D1D585B10940D028333333333333E33F0000000000000F90107902409070040501000000000018199010841D405064090740C02480A0340
1001
ACAD
1000
AcDbSavedByObjectVersion
1070
     0
  0
ACAD_PROXY_OBJECT
  5
35
102
{ACAD_REACTORS
330
2A
102
}
330
2A
100
AcDbProxyObject
 90
      499
 91
      501
 93
      412
310
40D11A5B50B409028333333333333E33F0000000000000F9010790141107004050150841D405064090741402480A02677FFFFFD0
1001
ACAD
1000
AcDbSavedByObjectVersion
1070
     0
  0
ACAD_PROXY_OBJECT
  5
3D
102
{ACAD_REACTORS
330
2A
102
}
330
2A
100
AcDbProxyObject
 90
      499
 91
      501
 93
      452
310
43115919D950DBDB1BDC93D999916409028333333333333E33F0000000000000F9010790141107004050150841D405064090741402480A0350
1001
ACAD
1000
AcDbSavedByObjectVersion
1070
     0
  0
ACAD_PROXY_OBJECT
  5
39
102
{ACAD_REACTORS
330
2A
102
}
330
2A
100
AcDbProxyObject
 90
      499
 91
      501
 93
      444
310
42D19858D95C185D1D195C9B90F409028333333333333E33F0000000000000F9010790141107004050150841D405064090741402480A0350
1001
ACAD
1000
AcDbSavedByObjectVersion
1070
     0
  0
ACAD_PROXY_OBJECT
  5
2B
102
{ACAD_REACTORS
330
2A
102
}
330
2A
100
AcDbProxyObject
 90
      499
 91
      501
 93
      380
310
41119B185D240901404333333333333E33F0000000000000F9010740A907004050150841D405064090741402480A1B50
1001
ACAD
1000
AcDbSavedByObjectVersion
1070
     0
  0
ACAD_PROXY_OBJECT
  5
2C
102
{ACAD_REACTORS
330
2A
102
}
330
2A
100
AcDbProxyObject
 90
      499
 91
      501
 93
      468
310
43519B185D15DA5D1A115919D95CD0140901404333333333333E33F0000000000000F90107409019070040501600405405064090741402480A1B50
1001
ACAD
1000
AcDbSavedByObjectVersion
1070
     0
  0
ACAD_PROXY_OBJECT
  5
2D
102
{ACAD_REACTORS
330
2A
102
}
330
2A
100
AcDbProxyObject
 90
      499
 91
      501
 93
      404
310
41D1DBDD5C985D5910240902404333333333333E33F0000000000000F9010740A9070040501641D405064090741402480A1B50
1001
ACAD
1000
AcDbSavedByObjectVersion
1070
     0
  0
ACAD_PROXY_OBJECT
  5
2E
102
{ACAD_REACTORS
330
2A
102
}
330
2A
100
AcDbProxyObject
 90
      499
 91
      501
 93
      492
310
4411DBDD5C985D5915DA5D1A115919D95CD0340902404333333333333E33F0000000000000F90107409019070040501600405405064090741402480A1B50
1001
ACAD
1000
AcDbSavedByObjectVersion
1070
     0
  0
ACAD_PROXY_OBJECT
  5
31
102
{ACAD_REACTORS
330
2A
102
}
330
2A
100
AcDbProxyObject
 90
      499
 91
      501
 93
      476
310
41921A5919195B90640502408333333333333E33F0000000000000F901079024090700405020000000000001110200405405064090740C02480A0340
1001
ACAD
1000
AcDbSavedByObjectVersion
1070
     0
  0
ACAD_PROXY_OBJECT
  5
3B
102
{ACAD_REACTORS
330
2A
102
}
330
2A
100
AcDbProxyObject
 90
      499
 91
      501
 93
      428
310
42529A5D1D195C93D999914409028333333333333E33F0000000000000F9010790141107004050150A41D405064090741402480A0350
1001
ACAD
1000
AcDbSavedByObjectVersion
1070
     0
  0
ACAD_PROXY_OBJECT
  5
38
102
{ACAD_REACTORS
330
2A
102
}
330
2A
100
AcDbProxyObject
 90
      499
 91
      501
 93
      444
310
42D31A5B995C185D1D195C9B90E409028333333333333E33F0000000000000F9010790141107004050750841D405064090741402483A0350
1001
ACAD
1000
AcDbSavedByObjectVersion
1070
     0
  0
ACAD_PROXY_OBJECT
  5
3C
102
{ACAD_REACTORS
330
2A
102
}
330
2A
100
AcDbProxyObject
 90
      499
 91
      501
 93
      444
310
42D3DD995C9A185B99D3D999915409028333333333333E33F0000000000000F9010790141107004050150941D405064090741402480A0350
1001
ACAD
1000
AcDbSavedByObjectVersion
1070
     0
  0
ACAD_PROXY_OBJECT
  5
33
102
{ACAD_REACTORS
330
2A
102
}
330
2A
100
AcDbProxyObject
 90
      499
 91
      501
 93
      428
310
425499585B1A5CDD1A58D08409038333333333333E33F0000000000000F9010740A907004050150800405405064090740C02480A1B40
1001
ACAD
1000
AcDbSavedByObjectVersion
1070
     0
  0
ACAD_PROXY_OBJECT
  5
42
102
{ACAD_REACTORS
330
2A
102
}
330
2A
100
AcDbProxyObject
 90
      499
 91
      501
 93
      420
310
4194DA1859195911B40902404333333333333E33F0000000000000F9010740A41107004050150800405405064090840C02480A0B40
1001
ACAD
1000
AcDbSavedByObjectVersion
1070
     0
  0
ACAD_PROXY_OBJECT
  5
41
102
{ACAD_REACTORS
330
2A
102
}
330
2A
100
AcDbProxyObject
 90
      499
 91
      501
 93
      516
310
4454DA18591959081DDA5D1A08195919D95CD1A40902404333333333333E33F0000000000000F901074090142907004050250800405405064090740C02480A0B40
1001
ACAD
1000
AcDbSavedByObjectVersion
1070
     0
  0
ACAD_PROXY_OBJECT
  5
3E
102
{ACAD_REACTORS
330
2A
102
}
330
2A
100
AcDbProxyObject
 90
      499
 91
      501
 93
      532
310
4394DA1859195CC81BD98811DC985E5174090240C333333333333E33F0000000000000F901079024090741D01000000000000111010841D405064090740C02480A0340
1001
ACAD
1000
AcDbSavedByObjectVersion
1070
     0
  0
ACAD_PROXY_OBJECT
  5
3F
102
{ACAD_REACTORS
330
2A
102
}
330
2A
100
AcDbProxyObject
 90
      499
 91
      501
 93
      476
310
41D4DAD95D18DA1E51840502408333333333333E33F0000000000000F901079024090741D01000000000000111010B41D405064090741802480A0340
1001
ACAD
1000
AcDbSavedByObjectVersion
1070
     0
  0
ACAD_PROXY_OBJECT
  5
37
102
{ACAD_REACTORS
330
2A
102
}
330
2A
100
AcDbProxyObject
 90
      499
 91
      501
 93
      412
310
41D51A1A58DAD95B90D409028333333333333E33F0000000000000F9010790141107004050150C41D405064090741402480A0350
1001
ACAD
1000
AcDbSavedByObjectVersion
1070
     0
  0
ACAD_PROXY_OBJECT
  5
30
102
{ACAD_REACTORS
330
2A
102
}
330
2A
100
AcDbProxyObject
 90
      499
 91
      501
 93
      420
310
4255DA5C99599C985B595059028333333333333E33F0000000000000F90107901411070040501600405405064090740C02480A0340
1001
ACAD
1000
AcDbSavedByObjectVersion
1070
     0
  0
ACAD_PROXY_OBJECT
  5
40
102
{ACAD_REACTORS
330
2A
102
}
330
2A
100
AcDbProxyObject
 90
      499
 91
      501
 93
      404
310
41560B54985E51940902404000000000000E03F0000000000000F9010740501907004050150841D405064090740C02480A1B40
1001
ACAD
1000
AcDbSavedByObjectVersion
1070
     0
  0
XRECORD
  5
41B
102
{ACAD_REACTORS
330
412
102
}
330
412
100
AcDbXrecord
 90
        0
  0
XRECORD
  5
431
102
{ACAD_REACTORS
330
412
102
}
330
412
100
AcDbXrecord
1000
DSTYLE
1002
{
1070
   340
340
11
1002
}
  0
XRECORD
  5
41C
102
{ACAD_REACTORS
330
412
102
}
330
412
100
AcDbXrecord
  1
{52E2DFD0-2992-4E4F-9ECF-138AB9C71E37}
  0
XRECORD
  5
415
102
{ACAD_REACTORS
330
412
102
}
330
412
100
AcDbXrecord
  1

  0
XRECORD
  5
41A
102
{ACAD_REACTORS
330
412
102
}
330
412
100
AcDbXrecord
 90
        1
  0
XRECORD
  5
417
102
{ACAD_REACTORS
330
412
102
}
330
412
100
AcDbXrecord
340
1A
  0
XRECORD
  5
419
102
{ACAD_REACTORS
330
412
102
}
330
412
100
AcDbXrecord
 90
    10781
  0
XRECORD
  5
418
102
{ACAD_REACTORS
330
412
102
}
330
412
100
AcDbXrecord
340
19
  0
XRECORD
  5
41E
102
{ACAD_REACTORS
330
412
102
}
330
412
100
AcDbXrecord
 40
0.0
  0
XRECORD
  5
421
102
{ACAD_REACTORS
330
412
102
}
330
412
100
AcDbXrecord
340
0
  0
XRECORD
  5
427
102
{ACAD_REACTORS
330
412
102
}
330
412
100
AcDbXrecord
 10
0.0
 20
0.0
 30
0.0
  0
XRECORD
  5
423
102
{ACAD_REACTORS
330
412
102
}
330
412
100
AcDbXrecord
 10
0.0
 20
0.0
 30
0.0
  0
XRECORD
  5
426
102
{ACAD_REACTORS
330
412
102
}
330
412
100
AcDbXrecord
 10
0.0
 20
0.0
 30
0.0
  0
XRECORD
  5
424
102
{ACAD_REACTORS
330
412
102
}
330
412
100
AcDbXrecord
 10
0.0
 20
0.0
 30
0.0
  0
XRECORD
  5
425
102
{ACAD_REACTORS
330
412
102
}
330
412
100
AcDbXrecord
 10
0.0
 20
0.0
 30
0.0
  0
XRECORD
  5
422
102
{ACAD_REACTORS
330
412
102
}
330
412
100
AcDbXrecord
 10
0.0
 20
0.0
 30
0.0
  0
XRECORD
  5
41F
102
{ACAD_REACTORS
330
412
102
}
330
412
100
AcDbXrecord
340
0
  0
XRECORD
  5
420
102
{ACAD_REACTORS
330
412
102
}
330
412
100
AcDbXrecord
 70
     0
  0
XRECORD
  5
416
102
{ACAD_REACTORS
330
412
102
}
330
412
100
AcDbXrecord
  1

  0
XRECORD
  5
413
102
{ACAD_REACTORS
330
412
102
}
330
412
100
AcDbXrecord
 90
        1
  0
XRECORD
  5
414
102
{ACAD_REACTORS
330
412
102
}
330
412
100
AcDbXrecord
 90
       70
  0
XRECORD
  5
42A
102
{ACAD_REACTORS
330
412
102
}
330
412
100
AcDbXrecord
340
0
  0
XRECORD
  5
430
102
{ACAD_REACTORS
330
412
102
}
330
412
100
AcDbXrecord
 10
0.0
 20
0.0
 30
0.0
  0
XRECORD
  5
42C
102
{ACAD_REACTORS
330
412
102
}
330
412
100
AcDbXrecord
 10
0.0
 20
0.0
 30
0.0
  0
XRECORD
  5
42F
102
{ACAD_REACTORS
330
412
102
}
330
412
100
AcDbXrecord
 10
0.0
 20
0.0
 30
0.0
  0
XRECORD
  5
42D
102
{ACAD_REACTORS
330
412
102
}
330
412
100
AcDbXrecord
 10
0.0
 20
0.0
 30
0.0
  0
XRECORD
  5
42E
102
{ACAD_REACTORS
330
412
102
}
330
412
100
AcDbXrecord
 10
0.0
 20
0.0
 30
0.0
  0
XRECORD
  5
42B
102
{ACAD_REACTORS
330
412
102
}
330
412
100
AcDbXrecord
 10
0.0
 20
0.0
 30
0.0
  0
XRECORD
  5
428
102
{ACAD_REACTORS
330
412
102
}
330
412
100
AcDbXrecord
340
0
  0
XRECORD
  5
429
102
{ACAD_REACTORS
330
412
102
}
330
412
100
AcDbXrecord
 70
     0
  0
XRECORD
  5
41D
102
{ACAD_REACTORS
330
412
102
}
330
412
100
AcDbXrecord
  1
{FAEB1C32-E019-11D5-929B-00C0DF256EC4}
  0
DICTIONARYVAR
  5
43B
102
{ACAD_REACTORS
330
432
102
}
330
432
100
DictionaryVariables
280
     0
  1
1:1
  0
DICTIONARYVAR
  5
437
102
{ACAD_REACTORS
330
432
102
}
330
432
100
DictionaryVariables
280
     0
  1
2
  0
DICTIONARYVAR
  5
438
102
{ACAD_REACTORS
330
432
102
}
330
432
100
DictionaryVariables
280
     0
  1
1
  0
DICTIONARYVAR
  5
43C
102
{ACAD_REACTORS
330
432
102
}
330
432
100
DictionaryVariables
280
     0
  1
1
  0
DICTIONARY
  5
43F
330
45
100
AcDbDictionary
280
     1
  3
ACAD_XREC_ROUNDTRIP
360
440
  0
DICTIONARY
  5
43D
330
44
100
AcDbDictionary
280
     1
  3
ACAD_XREC_ROUNDTRIP
360
43E
  0
DICTIONARY
  5
441
330
46
100
AcDbDictionary
280
     1
  3
ACAD_XREC_ROUNDTRIP
360
442
  0
XRECORD
  5
440
102
{ACAD_REACTORS
330
43F
102
}
330
43F
100
AcDbXrecord
102
MATERIAL
148
0.0
149
0.0
149
0.0
 93
        0
 94
      127
282
     0
 72
     1
 77
     1
171
     1
175
     1
179
     1
273
     0
  0
XRECORD
  5
43E
102
{ACAD_REACTORS
330
43D
102
}
330
43D
100
AcDbXrecord
102
MATERIAL
148
0.0
149
0.0
149
0.0
 93
        0
 94
      127
282
     0
 72
     1
 77
     1
171
     1
175
     1
179
     1
273
     0
  0
XRECORD
  5
442
102
{ACAD_REACTORS
330
441
102
}
330
441
100
AcDbXrecord
102
MATERIAL
148
0.0
149
0.0
149
0.0
 93
        0
 94
      127
282
     0
 72
     1
 77
     1
171
     1
175
     1
179
     1
273
     0
  0
ENDSEC
  0
EOF
