  0
SECTION
  2
HEADER
  9
$ACADVER
  1
AC1014
  9
$ACADMAINTVER
 70
     9
  9
$DWGCODEPAGE
  3
ANSI_1252
  9
$INSBASE
 10
0.0
 20
0.0
 30
0.0
  9
$EXTMIN
 10
1.000000000000000E+20
 20
1.000000000000000E+20
 30
1.000000000000000E+20
  9
$EXTMAX
 10
-1.000000000000000E+20
 20
-1.000000000000000E+20
 30
-1.000000000000000E+20
  9
$LIMMIN
 10
0.0
 20
0.0
  9
$LIMMAX
 10
12.0
 20
9.0
  9
$ORTHOMODE
 70
     0
  9
$REGENMODE
 70
     1
  9
$FILLMODE
 70
     1
  9
$QTEXTMODE
 70
     0
  9
$MIRRTEXT
 70
     1
  9
$DRAGMODE
 70
     2
  9
$LTSCALE
 40
1.0
  9
$OSMODE
 70
    37
  9
$ATTMODE
 70
     1
  9
$TEXTSIZE
 40
0.2
  9
$TRACEWID
 40
0.05
  9
$TEXTSTYLE
  7
STANDARD
  9
$CLAYER
  8
0
  9
$CELTYPE
  6
BYLAYER
  9
$CECOLOR
 62
   256
  9
$CELTSCALE
 40
1.0
  9
$DELOBJ
 70
     1
  9
$DISPSILH
 70
     0
  9
$DIMSCALE
 40
1.0
  9
$DIMASZ
 40
0.18
  9
$DIMEXO
 40
0.0625
  9
$DIMDLI
 40
0.38
  9
$DIMRND
 40
0.0
  9
$DIMDLE
 40
0.0
  9
$DIMEXE
 40
0.18
  9
$DIMTP
 40
0.0
  9
$DIMTM
 40
0.0
  9
$DIMTXT
 40
0.18
  9
$DIMCEN
 40
0.09
  9
$DIMTSZ
 40
0.0
  9
$DIMTOL
 70
     0
  9
$DIMLIM
 70
     0
  9
$DIMTIH
 70
     1
  9
$DIMTOH
 70
     1
  9
$DIMSE1
 70
     0
  9
$DIMSE2
 70
     0
  9
$DIMTAD
 70
     0
  9
$DIMZIN
 70
     0
  9
$DIMBLK
  1

  9
$DIMASO
 70
     1
  9
$DIMSHO
 70
     1
  9
$DIMPOST
  1

  9
$DIMAPOST
  1

  9
$DIMALT
 70
     0
  9
$DIMALTD
 70
     2
  9
$DIMALTF
 40
25.4
  9
$DIMLFAC
 40
1.0
  9
$DIMTOFL
 70
     0
  9
$DIMTVP
 40
0.0
  9
$DIMTIX
 70
     0
  9
$DIMSOXD
 70
     0
  9
$DIMSAH
 70
     0
  9
$DIMBLK1
  1

  9
$DIMBLK2
  1

  9
$DIMSTYLE
  2
STANDARD
  9
$DIMCLRD
 70
     0
  9
$DIMCLRE
 70
     0
  9
$DIMCLRT
 70
     0
  9
$DIMTFAC
 40
1.0
  9
$DIMGAP
 40
0.09
  9
$DIMJUST
 70
     0
  9
$DIMSD1
 70
     0
  9
$DIMSD2
 70
     0
  9
$DIMTOLJ
 70
     1
  9
$DIMTZIN
 70
     0
  9
$DIMALTZ
 70
     0
  9
$DIMALTTZ
 70
     0
  9
$DIMFIT
 70
     3
  9
$DIMUPT
 70
     0
  9
$DIMUNIT
 70
     2
  9
$DIMDEC
 70
     4
  9
$DIMTDEC
 70
     4
  9
$DIMALTU
 70
     2
  9
$DIMALTTD
 70
     2
  9
$DIMTXSTY
  7
STANDARD
  9
$DIMAUNIT
 70
     0
  9
$LUNITS
 70
     2
  9
$LUPREC
 70
     4
  9
$SKETCHINC
 40
0.1
  9
$FILLETRAD
 40
0.5
  9
$AUNITS
 70
     0
  9
$AUPREC
 70
     0
  9
$MENU
  1
.
  9
$ELEVATION
 40
0.0
  9
$PELEVATION
 40
0.0
  9
$THICKNESS
 40
0.0
  9
$LIMCHECK
 70
     0
  9
$CHAMFERA
 40
0.0
  9
$CHAMFERB
 40
0.0
  9
$CHAMFERC
 40
0.0
  9
$CHAMFERD
 40
0.0
  9
$SKPOLY
 70
     0
  9
$TDCREATE
 40
2456913.672691053
  9
$TDUPDATE
 40
2456913.672691192
  9
$TDINDWG
 40
0.0000000116
  9
$TDUSRTIMER
 40
0.0000000116
  9
$USRTIMER
 70
     1
  9
$ANGBASE
 50
0.0
  9
$ANGDIR
 70
     0
  9
$PDMODE
 70
     0
  9
$PDSIZE
 40
0.0
  9
$PLINEWID
 40
0.0
  9
$COORDS
 70
     1
  9
$SPLFRAME
 70
     0
  9
$SPLINETYPE
 70
     6
  9
$SPLINESEGS
 70
     8
  9
$ATTDIA
 70
     0
  9
$ATTREQ
 70
     1
  9
$HANDLING
 70
     1
  9
$HANDSEED
  5
36B
  9
$SURFTAB1
 70
     6
  9
$SURFTAB2
 70
     6
  9
$SURFTYPE
 70
     6
  9
$SURFU
 70
     6
  9
$SURFV
 70
     6
  9
$UCSNAME
  2

  9
$UCSORG
 10
0.0
 20
0.0
 30
0.0
  9
$UCSXDIR
 10
1.0
 20
0.0
 30
0.0
  9
$UCSYDIR
 10
0.0
 20
1.0
 30
0.0
  9
$PUCSNAME
  2

  9
$PUCSORG
 10
0.0
 20
0.0
 30
0.0
  9
$PUCSXDIR
 10
1.0
 20
0.0
 30
0.0
  9
$PUCSYDIR
 10
0.0
 20
1.0
 30
0.0
  9
$USERI1
 70
     0
  9
$USERI2
 70
     0
  9
$USERI3
 70
     0
  9
$USERI4
 70
     0
  9
$USERI5
 70
     0
  9
$USERR1
 40
0.0
  9
$USERR2
 40
0.0
  9
$USERR3
 40
0.0
  9
$USERR4
 40
0.0
  9
$USERR5
 40
0.0
  9
$WORLDVIEW
 70
     1
  9
$SHADEDGE
 70
     3
  9
$SHADEDIF
 70
    70
  9
$TILEMODE
 70
     1
  9
$MAXACTVP
 70
    64
  9
$PINSBASE
 10
0.0
 20
0.0
 30
0.0
  9
$PLIMCHECK
 70
     0
  9
$PEXTMIN
 10
1.000000000000000E+20
 20
1.000000000000000E+20
 30
1.000000000000000E+20
  9
$PEXTMAX
 10
-1.000000000000000E+20
 20
-1.000000000000000E+20
 30
-1.000000000000000E+20
  9
$PLIMMIN
 10
0.0
 20
0.0
  9
$PLIMMAX
 10
12.0
 20
9.0
  9
$UNITMODE
 70
     0
  9
$VISRETAIN
 70
     1
  9
$PLINEGEN
 70
     0
  9
$PSLTSCALE
 70
     1
  9
$TREEDEPTH
 70
  3020
  9
$PICKSTYLE
 70
     1
  9
$CMLSTYLE
  2
STANDARD
  9
$CMLJUST
 70
     0
  9
$CMLSCALE
 40
1.0
  9
$PROXYGRAPHICS
 70
     1
  9
$MEASUREMENT
 70
     0
  0
ENDSEC
  0
SECTION
  2
CLASSES
  0
CLASS
  1
ACDBDICTIONARYWDFLT
  2
AcDbDictionaryWithDefault
  3
ObjectDBX Classes
 90
        0
280
     0
281
     0
  0
CLASS
  1
VISUALSTYLE
  2
AcDbVisualStyle
  3
ObjectDBX Classes
 90
     4095
280
     0
281
     0
  0
CLASS
  1
MATERIAL
  2
AcDbMaterial
  3
ObjectDBX Classes
 90
     1153
280
     0
281
     0
  0
CLASS
  1
SCALE
  2
AcDbScale
  3
ObjectDBX Classes
 90
     1153
280
     0
281
     0
  0
CLASS
  1
SUN
  2
AcDbSun
  3
SCENEOE
 90
     1153
280
     0
281
     0
  0
CLASS
  1
DICTIONARYVAR
  2
AcDbDictionaryVar
  3
ObjectDBX Classes
 90
        0
280
     0
281
     0
  0
CLASS
  1
XRECORD
  2
AcDbXrecord
  3
ObjectDBX Classes
 90
        0
280
     0
281
     0
  0
CLASS
  1
LWPOLYLINE
  2
AcDbPolyline
  3
ObjectDBX Classes
 90
        0
280
     0
281
     1
  0
CLASS
  1
HATCH
  2
AcDbHatch
  3
ObjectDBX Classes
 90
        0
280
     0
281
     1
  0
CLASS
  1
ACDBPLACEHOLDER
  2
AcDbPlaceHolder
  3
ObjectDBX Classes
 90
        0
280
     0
281
     0
  0
CLASS
  1
LAYOUT
  2
AcDbLayout
  3
ObjectDBX Classes
 90
        0
280
     0
281
     0
  0
ENDSEC
  0
SECTION
  2
TABLES
  0
TABLE
  2
VPORT
  5
8
102
{ACAD_XDICTIONARY
360
361
102
}
330
0
100
AcDbSymbolTable
 70
     1
  0
VPORT
  5
29
330
8
100
AcDbSymbolTableRecord
100
AcDbViewportTableRecord
  2
*ACTIVE
 70
     0
 10
0.0
 20
0.0
 11
1.0
 21
1.0
 12
0.0
 22
0.0
 13
0.0
 23
0.0
 14
0.5
 24
0.5
 15
0.5
 25
0.5
 16
0.0
 26
0.0
 36
1.0
 17
0.0
 27
0.0
 37
-1000.0
 40
155.7670113189873
 41
2.199770378874856
 42
50.0
 43
439.0468615238597
 44
564.552830751384
 50
0.0
 51
0.0
 71
     0
 72
   100
 73
     1
 74
     3
 75
     0
 76
     0
 77
     0
 78
     0
  0
ENDTAB
  0
TABLE
  2
LTYPE
  5
5
330
0
100
AcDbSymbolTable
 70
     1
  0
LTYPE
  5
14
330
5
100
AcDbSymbolTableRecord
100
AcDbLinetypeTableRecord
  2
BYBLOCK
 70
     0
  3

 72
    65
 73
     0
 40
0.0
  0
LTYPE
  5
15
330
5
100
AcDbSymbolTableRecord
100
AcDbLinetypeTableRecord
  2
BYLAYER
 70
     0
  3

 72
    65
 73
     0
 40
0.0
  0
LTYPE
  5
16
330
5
100
AcDbSymbolTableRecord
100
AcDbLinetypeTableRecord
  2
CONTINUOUS
 70
     0
  3
Solid line
 72
    65
 73
     0
 40
0.0
  0
ENDTAB
  0
TABLE
  2
LAYER
  5
2
330
0
100
AcDbSymbolTable
 70
     3
  0
LAYER
  5
10
330
2
100
AcDbSymbolTableRecord
100
AcDbLayerTableRecord
  2
0
 70
     0
 62
     7
  6
CONTINUOUS
  0
LAYER
  5
6A
330
2
100
AcDbSymbolTableRecord
100
AcDbLayerTableRecord
  2
PROFILEEDGES
 70
     0
 62
     7
  6
CONTINUOUS
  0
LAYER
  5
6B
330
2
100
AcDbSymbolTableRecord
100
AcDbLayerTableRecord
  2
SECTIONCUTEDGES
 70
     0
 62
     7
  6
CONTINUOUS
  0
ENDTAB
  0
TABLE
  2
STYLE
  5
3
330
0
100
AcDbSymbolTable
 70
     1
  0
STYLE
  5
11
330
3
100
AcDbSymbolTableRecord
100
AcDbTextStyleTableRecord
  2
STANDARD
 70
     0
 40
0.0
 41
1.0
 50
0.0
 71
     0
 42
0.2
  3
txt
  4

  0
ENDTAB
  0
TABLE
  2
VIEW
  5
6
330
0
100
AcDbSymbolTable
 70
     0
  0
ENDTAB
  0
TABLE
  2
UCS
  5
7
330
0
100
AcDbSymbolTable
 70
     0
  0
ENDTAB
  0
TABLE
  2
APPID
  5
9
330
0
100
AcDbSymbolTable
 70
     1
  0
APPID
  5
12
330
9
100
AcDbSymbolTableRecord
100
AcDbRegAppTableRecord
  2
ACAD
 70
     0
  0
ENDTAB
  0
TABLE
  2
DIMSTYLE
  5
A
330
0
100
AcDbSymbolTable
 70
     1
  0
DIMSTYLE
105
27
330
A
100
AcDbSymbolTableRecord
100
AcDbDimStyleTableRecord
  2
STANDARD
 70
     0
  3

  4

  5

  6

  7

 40
1.0
 41
0.18
 42
0.0625
 43
0.38
 44
0.18
 45
0.0
 46
0.0
 47
0.0
 48
0.0
140
0.18
141
0.09
142
0.0
143
25.4
144
1.0
145
0.0
146
1.0
147
0.09
 71
     0
 72
     0
 73
     1
 74
     1
 75
     0
 76
     0
 77
     0
 78
     0
170
     0
171
     2
172
     0
173
     0
174
     0
175
     0
176
     0
177
     0
178
     0
270
     2
271
     4
272
     4
273
     2
274
     2
340
11
275
     0
280
     0
281
     0
282
     0
283
     1
284
     0
285
     0
286
     0
287
     3
288
     0
  0
ENDTAB
  0
TABLE
  2
BLOCK_RECORD
  5
1
330
0
100
AcDbSymbolTable
 70
     1
  0
BLOCK_RECORD
  5
1F
330
1
100
AcDbSymbolTableRecord
100
AcDbBlockTableRecord
  2
*MODEL_SPACE
  0
BLOCK_RECORD
  5
1B
330
1
100
AcDbSymbolTableRecord
100
AcDbBlockTableRecord
  2
*PAPER_SPACE
  0
ENDTAB
  0
ENDSEC
  0
SECTION
  2
BLOCKS
  0
BLOCK
  5
20
330
1F
100
AcDbEntity
  8
0
100
AcDbBlockBegin
  2
*MODEL_SPACE
 70
     0
 10
0.0
 20
0.0
 30
0.0
  3
*MODEL_SPACE
  1

  0
ENDBLK
  5
21
330
1F
100
AcDbEntity
  8
0
100
AcDbBlockEnd
  0
BLOCK
  5
1C
330
1B
100
AcDbEntity
 67
     1
  8
0
100
AcDbBlockBegin
  2
*PAPER_SPACE
 70
     0
 10
0.0
 20
0.0
 30
0.0
  3
*PAPER_SPACE
  1

  0
ENDBLK
  5
1D
330
1B
100
AcDbEntity
 67
     1
  8
0
100
AcDbBlockEnd
  0
ENDSEC
  0
SECTION
  2
ENTITIES
  0
LINE
  5
6C
330
1F
100
AcDbEntity
  8
0
100
AcDbLine
 10
-52.47345513237855
 20
73.98933037651895
 30
0.0
 11
52.47345513237846
 21
73.98933037651895
 31
0.0
  0
LINE
  5
6D
330
1F
100
AcDbEntity
  8
0
100
AcDbLine
 10
-52.44875398262589
 20
29.26066962348085
 30
0.0
 11
-27.73560471505853
 21
29.26066962348085
 31
0.0
  0
LINE
  5
6E
330
1F
100
AcDbEntity
  8
0
100
AcDbLine
 10
-21.73560376866552
 20
29.26066962348085
 30
0.0
 11
21.73672756618922
 21
29.26066962348085
 31
0.0
  0
LINE
  5
6F
330
1F
100
AcDbEntity
  8
0
100
AcDbLine
 10
27.73672756618921
 20
29.26066962348085
 30
0.0
 11
52.47345513237846
 21
29.26066962348085
 31
0.0
  0
LINE
  5
70
330
1F
100
AcDbEntity
  8
0
100
AcDbLine
 10
2.999999999999949
 20
32.01066962348087
 30
0.0
 11
46.47345513237847
 21
32.01066962348087
 31
0.0
  0
LINE
  5
71
330
1F
100
AcDbEntity
  8
0
100
AcDbLine
 10
-46.47345513237856
 20
32.01066962348087
 30
0.0
 11
-3.00000000000004
 21
32.01066962348087
 31
0.0
  0
LINE
  5
72
330
1F
100
AcDbEntity
  8
0
100
AcDbLine
 10
-21.73560376866552
 20
-73.98933037651895
 30
0.0
 11
21.73672756618922
 21
-73.98933037651895
 31
0.0
  0
LINE
  5
73
330
1F
100
AcDbEntity
  8
0
100
AcDbLine
 10
-52.44875398262589
 20
-73.98933037651895
 30
0.0
 11
-27.73560471505853
 21
-73.98933037651895
 31
0.0
  0
LINE
  5
74
330
1F
100
AcDbEntity
  8
0
100
AcDbLine
 10
27.73672756618921
 20
-73.98933037651895
 30
0.0
 11
52.47345513237846
 21
-73.98933037651895
 31
0.0
  0
LINE
  5
75
330
1F
100
AcDbEntity
  8
0
100
AcDbLine
 10
-52.47345513237855
 20
73.98933037651895
 30
0.0
 11
-52.44875398262589
 21
29.26066962348085
 31
0.0
  0
LINE
  5
76
330
1F
100
AcDbEntity
  8
0
100
AcDbLine
 10
-52.44875398262589
 20
29.26066962348085
 30
0.0
 11
-52.44875398262589
 21
23.76066962348085
 31
0.0
  0
LINE
  5
77
330
1F
100
AcDbEntity
  8
0
100
AcDbLine
 10
52.47345513237846
 20
29.26066962348085
 30
0.0
 11
52.47345513237846
 21
23.76066962348085
 31
0.0
  0
LINE
  5
78
330
1F
100
AcDbEntity
  8
0
100
AcDbLine
 10
21.73672756618922
 20
-73.98933037651895
 30
0.0
 11
27.73672756618921
 21
-73.98933037651895
 31
0.0
  0
LINE
  5
79
330
1F
100
AcDbEntity
  8
0
100
AcDbLine
 10
52.47345513237846
 20
73.98933037651895
 30
0.0
 11
52.47345513237846
 21
29.26066962348085
 31
0.0
  0
LINE
  5
7A
330
1F
100
AcDbEntity
  8
0
100
AcDbLine
 10
-27.73560471505853
 20
-73.98933037651895
 30
0.0
 11
-21.73560376866552
 21
-73.98933037651895
 31
0.0
  0
LINE
  5
7B
330
1F
100
AcDbEntity
  8
0
100
AcDbLine
 10
-43.56865710047084
 20
45.67356893384287
 30
0.0
 11
-33.13529758010571
 21
45.67356893384287
 31
0.0
  0
LINE
  5
7C
330
1F
100
AcDbEntity
  8
0
100
AcDbLine
 10
-43.56865710047084
 20
49.67356893384287
 30
0.0
 11
-33.13529758010571
 21
49.67356893384287
 31
0.0
  0
LINE
  5
7D
330
1F
100
AcDbEntity
  8
0
100
AcDbLine
 10
-49.50574142776188
 20
47.67356893384287
 30
0.0
 11
-39.07211219599122
 21
47.67356893384287
 31
0.0
  0
LINE
  5
7E
330
1F
100
AcDbEntity
  8
0
100
AcDbLine
 10
-37.6321121959912
 20
47.67356893384287
 30
0.0
 11
-27.19848296422028
 21
47.67356893384287
 31
0.0
  0
LINE
  5
7F
330
1F
100
AcDbEntity
  8
0
100
AcDbLine
 10
-45.89817297327952
 20
68.91040536251609
 30
0.0
 11
-46.26726110975888
 21
68.69945216631261
 31
0.0
  0
LINE
  5
80
330
1F
100
AcDbEntity
  8
0
100
AcDbLine
 10
-45.09359705153101
 20
69.1796162571431
 30
0.0
 11
-45.504707519536
 21
69.07137815583418
 31
0.0
  0
LINE
  5
81
330
1F
100
AcDbEntity
  8
0
100
AcDbLine
 10
-42.02065747399944
 20
68.12153197276868
 30
0.0
 11
-42.31994965339288
 21
68.42344503116826
 31
0.0
  0
LINE
  5
82
330
1F
100
AcDbEntity
  8
0
100
AcDbLine
 10
-44.24675948282519
 20
69.23141444120226
 30
0.0
 11
-44.67187578335352
 21
69.23326768252018
 31
0.0
  0
LINE
  5
83
330
1F
100
AcDbEntity
  8
0
100
AcDbLine
 10
-46.26726110975888
 20
68.69945216631261
 30
0.0
 11
-46.6056567286283
 21
68.44212803489803
 31
0.0
  0
LINE
  5
84
330
1F
100
AcDbEntity
  8
0
100
AcDbLine
 10
-47.54639470991014
 20
67.04741466089337
 30
0.0
 11
-47.65821299852178
 21
66.63726350118486
 31
0.0
  0
LINE
  5
85
330
1F
100
AcDbEntity
  8
0
100
AcDbLine
 10
-44.67187578335352
 20
69.23326768252018
 30
0.0
 11
-45.09359705153101
 21
69.1796162571431
 31
0.0
  0
LINE
  5
86
330
1F
100
AcDbEntity
  8
0
100
AcDbLine
 10
-47.16783446882235
 20
67.80669660030124
 30
0.0
 11
-47.38199757314715
 21
67.43946170513983
 31
0.0
  0
LINE
  5
87
330
1F
100
AcDbEntity
  8
0
100
AcDbLine
 10
-45.504707519536
 20
69.07137815583418
 30
0.0
 11
-45.89817297327952
 21
68.91040536251609
 31
0.0
  0
LINE
  5
88
330
1F
100
AcDbEntity
  8
0
100
AcDbLine
 10
-41.2831692517544
 20
66.60947229567137
 30
0.0
 11
-41.39140735306336
 21
67.02058276367639
 31
0.0
  0
LINE
  5
89
330
1F
100
AcDbEntity
  8
0
100
AcDbLine
 10
-41.76333334258484
 20
67.78313635389928
 30
0.0
 11
-42.02065747399944
 21
68.12153197276868
 31
0.0
  0
LINE
  5
8A
330
1F
100
AcDbEntity
  8
0
100
AcDbLine
 10
-41.5523801463814
 20
67.41404821741993
 30
0.0
 11
-41.76333334258484
 21
67.78313635389928
 31
0.0
  0
LINE
  5
8B
330
1F
100
AcDbEntity
  8
0
100
AcDbLine
 10
-46.90756978702787
 20
68.1428358555046
 30
0.0
 11
-47.16783446882235
 21
67.80669660030124
 31
0.0
  0
LINE
  5
8C
330
1F
100
AcDbEntity
  8
0
100
AcDbLine
 10
-46.6056567286283
 20
68.44212803489803
 30
0.0
 11
-46.90756978702787
 21
68.1428358555046
 31
0.0
  0
LINE
  5
8D
330
1F
100
AcDbEntity
  8
0
100
AcDbLine
 10
-47.39453011837572
 20
64.56461253561794
 30
0.0
 11
-47.18357692217229
 21
64.19552439913859
 31
0.0
  0
LINE
  5
8E
330
1F
100
AcDbEntity
  8
0
100
AcDbLine
 10
-43.82552200771266
 20
69.17408824266211
 30
0.0
 11
-44.24675948282519
 21
69.23141444120226
 31
0.0
  0
LINE
  5
8F
330
1F
100
AcDbEntity
  8
0
100
AcDbLine
 10
-42.31994965339288
 20
68.42344503116826
 30
0.0
 11
-42.65608890859626
 21
68.68370971296272
 31
0.0
  0
LINE
  5
90
330
1F
100
AcDbEntity
  8
0
100
AcDbLine
 10
-43.41537084800414
 20
69.0622699540505
 30
0.0
 11
-43.82552200771266
 21
69.17408824266211
 31
0.0
  0
LINE
  5
91
330
1F
100
AcDbEntity
  8
0
100
AcDbLine
 10
-44.27503448140361
 20
62.7453930705177
 30
0.0
 11
-43.85331321322612
 21
62.79904449589477
 31
0.0
  0
LINE
  5
92
330
1F
100
AcDbEntity
  8
0
100
AcDbLine
 10
-42.65608890859626
 20
68.68370971296272
 30
0.0
 11
-43.02332380375765
 21
68.89787281728755
 31
0.0
  0
LINE
  5
93
330
1F
100
AcDbEntity
  8
0
100
AcDbLine
 10
-47.38199757314715
 20
67.43946170513983
 30
0.0
 11
-47.54639470991014
 21
67.04741466089337
 31
0.0
  0
LINE
  5
94
330
1F
100
AcDbEntity
  8
0
100
AcDbLine
 10
-41.23137106769521
 20
65.76263472696554
 30
0.0
 11
-41.22951782637733
 21
66.18775102749385
 31
0.0
  0
LINE
  5
95
330
1F
100
AcDbEntity
  8
0
100
AcDbLine
 10
-44.70015078193194
 20
62.74724631183561
 30
0.0
 11
-44.27503448140361
 21
62.7453930705177
 31
0.0
  0
LINE
  5
96
330
1F
100
AcDbEntity
  8
0
100
AcDbLine
 10
-42.03934047772926
 20
63.83582489753322
 30
0.0
 11
-41.77907579593478
 21
64.1719641527366
 31
0.0
  0
LINE
  5
97
330
1F
100
AcDbEntity
  8
0
100
AcDbLine
 10
-45.92358646099948
 20
63.08078793575032
 30
0.0
 11
-45.53153941675299
 21
62.91639079898736
 31
0.0
  0
LINE
  5
98
330
1F
100
AcDbEntity
  8
0
100
AcDbLine
 10
-41.39140735306336
 20
67.02058276367639
 30
0.0
 11
-41.5523801463814
 21
67.41404821741993
 31
0.0
  0
LINE
  5
99
330
1F
100
AcDbEntity
  8
0
100
AcDbLine
 10
-47.18357692217229
 20
64.19552439913859
 30
0.0
 11
-46.92625279075769
 21
63.85712878026919
 31
0.0
  0
LINE
  5
9A
330
1F
100
AcDbEntity
  8
0
100
AcDbLine
 10
-43.02332380375765
 20
68.89787281728755
 30
0.0
 11
-43.41537084800414
 21
69.0622699540505
 31
0.0
  0
LINE
  5
9B
330
1F
100
AcDbEntity
  8
0
100
AcDbLine
 10
-45.12138825704447
 20
62.80457251037579
 30
0.0
 11
-44.70015078193194
 21
62.74724631183561
 31
0.0
  0
LINE
  5
9C
330
1F
100
AcDbEntity
  8
0
100
AcDbLine
 10
-47.71553919706191
 20
66.21602602607231
 30
0.0
 11
-47.7173924383798
 21
65.79090972554403
 31
0.0
  0
LINE
  5
9D
330
1F
100
AcDbEntity
  8
0
100
AcDbLine
 10
-42.34125353612882
 20
63.53653271813983
 30
0.0
 11
-42.03934047772926
 21
63.83582489753322
 31
0.0
  0
LINE
  5
9E
330
1F
100
AcDbEntity
  8
0
100
AcDbLine
 10
-41.77907579593478
 20
64.1719641527366
 30
0.0
 11
-41.56491269160998
 21
64.53919904789804
 31
0.0
  0
LINE
  5
9F
330
1F
100
AcDbEntity
  8
0
100
AcDbLine
 10
-47.66374101300273
 20
65.36918845736649
 30
0.0
 11
-47.55550291169376
 21
64.95807798936148
 31
0.0
  0
LINE
  5
A0
330
1F
100
AcDbEntity
  8
0
100
AcDbLine
 10
-41.56491269160998
 20
64.53919904789804
 30
0.0
 11
-41.40051555484699
 21
64.9312460921445
 31
0.0
  0
LINE
  5
A1
330
1F
100
AcDbEntity
  8
0
100
AcDbLine
 10
-46.62696061136425
 20
63.55521572186961
 30
0.0
 11
-46.29082135616087
 21
63.29495104007515
 31
0.0
  0
LINE
  5
A2
330
1F
100
AcDbEntity
  8
0
100
AcDbLine
 10
-46.92625279075769
 20
63.85712878026919
 30
0.0
 11
-46.62696061136425
 21
63.55521572186961
 31
0.0
  0
LINE
  5
A3
330
1F
100
AcDbEntity
  8
0
100
AcDbLine
 10
-41.22951782637733
 20
66.18775102749385
 30
0.0
 11
-41.2831692517544
 21
66.60947229567137
 31
0.0
  0
LINE
  5
A4
330
1F
100
AcDbEntity
  8
0
100
AcDbLine
 10
-41.40051555484699
 20
64.9312460921445
 30
0.0
 11
-41.28869726623544
 21
65.34139725185301
 31
0.0
  0
LINE
  5
A5
330
1F
100
AcDbEntity
  8
0
100
AcDbLine
 10
-42.67964915499824
 20
63.27920858672523
 30
0.0
 11
-42.34125353612882
 21
63.53653271813983
 31
0.0
  0
LINE
  5
A6
330
1F
100
AcDbEntity
  8
0
100
AcDbLine
 10
-47.65821299852178
 20
66.63726350118486
 30
0.0
 11
-47.71553919706191
 21
66.21602602607231
 31
0.0
  0
LINE
  5
A7
330
1F
100
AcDbEntity
  8
0
100
AcDbLine
 10
-43.85331321322612
 20
62.79904449589477
 30
0.0
 11
-43.44220274522113
 21
62.90728259720369
 31
0.0
  0
LINE
  5
A8
330
1F
100
AcDbEntity
  8
0
100
AcDbLine
 10
-41.28869726623544
 20
65.34139725185301
 30
0.0
 11
-41.23137106769521
 21
65.76263472696554
 31
0.0
  0
LINE
  5
A9
330
1F
100
AcDbEntity
  8
0
100
AcDbLine
 10
-43.04873729147761
 20
63.06825539052178
 30
0.0
 11
-42.67964915499824
 21
63.27920858672523
 31
0.0
  0
LINE
  5
AA
330
1F
100
AcDbEntity
  8
0
100
AcDbLine
 10
-47.55550291169376
 20
64.95807798936148
 30
0.0
 11
-47.39453011837572
 21
64.56461253561794
 31
0.0
  0
LINE
  5
AB
330
1F
100
AcDbEntity
  8
0
100
AcDbLine
 10
-43.44220274522113
 20
62.90728259720369
 30
0.0
 11
-43.04873729147761
 21
63.06825539052178
 31
0.0
  0
LINE
  5
AC
330
1F
100
AcDbEntity
  8
0
100
AcDbLine
 10
-47.7173924383798
 20
65.79090972554403
 30
0.0
 11
-47.66374101300273
 21
65.36918845736649
 31
0.0
  0
LINE
  5
AD
330
1F
100
AcDbEntity
  8
0
100
AcDbLine
 10
-46.29082135616087
 20
63.29495104007515
 30
0.0
 11
-45.92358646099948
 21
63.08078793575032
 31
0.0
  0
LINE
  5
AE
330
1F
100
AcDbEntity
  8
0
100
AcDbLine
 10
-45.53153941675299
 20
62.91639079898736
 30
0.0
 11
-45.12138825704447
 21
62.80457251037579
 31
0.0
  0
LINE
  5
AF
330
1F
100
AcDbEntity
  8
0
100
AcDbLine
 10
50.35098523957888
 20
66.94424239640338
 30
0.0
 11
48.93765286336996
 21
68.24265935888526
 31
0.0
  0
LINE
  5
B0
330
1F
100
AcDbEntity
  8
0
100
AcDbLine
 10
48.93765286336996
 20
68.24265935888526
 30
0.0
 11
48.01960167990386
 21
68.53991288295445
 31
0.0
  0
LINE
  5
B1
330
1F
100
AcDbEntity
  8
0
100
AcDbLine
 10
41.41132932741608
 20
66.38069042281151
 30
0.0
 11
42.43826698287969
 21
65.78973717150795
 31
0.0
  0
LINE
  5
B2
330
1F
100
AcDbEntity
  8
0
100
AcDbLine
 10
48.65100039222764
 20
67.24912867857992
 30
0.0
 11
50.35098523957888
 21
66.94424239640338
 31
0.0
  0
LINE
  5
B3
330
1F
100
AcDbEntity
  8
0
100
AcDbLine
 10
42.20386404422822
 20
65.67423625576555
 30
0.0
 11
40.93343386147325
 21
59.52350534760116
 31
0.0
  0
LINE
  5
B4
330
1F
100
AcDbEntity
  8
0
100
AcDbLine
 10
42.38535407033614
 20
71.13759489215228
 30
0.0
 11
34.60163696931827
 21
71.65238202228063
 31
0.0
  0
LINE
  5
B5
330
1F
100
AcDbEntity
  8
0
100
AcDbLine
 10
44.07431382264347
 20
62.83697045042065
 30
0.0
 11
44.3719913888297
 21
63.0197326028797
 31
0.0
  0
LINE
  5
B6
330
1F
100
AcDbEntity
  8
0
100
AcDbLine
 10
42.20386404422822
 20
65.67423625576555
 30
0.0
 11
44.07431382264347
 21
62.83697045042065
 31
0.0
  0
LINE
  5
B7
330
1F
100
AcDbEntity
  8
0
100
AcDbLine
 10
45.02119987007067
 20
62.22592575971645
 30
0.0
 11
44.3719913888297
 21
63.0197326028797
 31
0.0
  0
LINE
  5
B8
330
1F
100
AcDbEntity
  8
0
100
AcDbLine
 10
48.03995570152344
 20
64.88170153895351
 30
0.0
 11
48.65100039222764
 21
67.24912867857992
 31
0.0
  0
LINE
  5
B9
330
1F
100
AcDbEntity
  8
0
100
AcDbLine
 10
44.64846684916222
 20
64.51787340250364
 30
0.0
 11
48.00094382675254
 21
65.15817699928598
 31
0.0
  0
LINE
  5
BA
330
1F
100
AcDbEntity
  8
0
100
AcDbLine
 10
48.01960167990386
 20
68.53991288295445
 30
0.0
 11
45.83563503191733
 21
67.463773866761
 31
0.0
  0
LINE
  5
BB
330
1F
100
AcDbEntity
  8
0
100
AcDbLine
 10
40.93343386147325
 20
59.52350534760116
 30
0.0
 11
45.02119987007067
 21
62.22592575971645
 31
0.0
  0
LINE
  5
BC
330
1F
100
AcDbEntity
  8
0
100
AcDbLine
 10
42.38535407033614
 20
71.13759489215228
 30
0.0
 11
41.41132932741608
 21
66.38069042281151
 31
0.0
  0
LINE
  5
BD
330
1F
100
AcDbEntity
  8
0
100
AcDbLine
 10
34.54439128351311
 20
70.77376675570244
 30
0.0
 11
38.88403830965272
 21
68.3367967088758
 31
0.0
  0
LINE
  5
BE
330
1F
100
AcDbEntity
  8
0
100
AcDbLine
 10
48.93765286336996
 20
68.24265935888526
 30
0.0
 11
48.65100039222764
 21
67.24912867857992
 31
0.0
  0
LINE
  5
BF
330
1F
100
AcDbEntity
  8
0
100
AcDbLine
 10
48.00094382675254
 20
65.15817699928598
 30
0.0
 11
45.83563503191733
 21
67.463773866761
 31
0.0
  0
LINE
  5
C0
330
1F
100
AcDbEntity
  8
0
100
AcDbLine
 10
35.73722175884334
 20
70.77376675570244
 30
0.0
 11
34.54439128351311
 21
70.77376675570244
 31
0.0
  0
LINE
  5
C1
330
1F
100
AcDbEntity
  8
0
100
AcDbLine
 10
34.60163696931827
 20
71.65238202228063
 30
0.0
 11
35.73722175884334
 21
70.77376675570244
 31
0.0
  0
LINE
  5
C2
330
1F
100
AcDbEntity
  8
0
100
AcDbLine
 10
35.73722175884334
 20
70.77376675570244
 30
0.0
 11
38.88403830965272
 21
68.3367967088758
 31
0.0
  0
LINE
  5
C3
330
1F
100
AcDbEntity
  8
0
100
AcDbLine
 10
44.3719913888297
 20
63.0197326028797
 30
0.0
 11
44.44789492778605
 21
63.05789639341643
 31
0.0
  0
LINE
  5
C4
330
1F
100
AcDbEntity
  8
0
100
AcDbLine
 10
42.43826698287969
 20
65.78973717150795
 30
0.0
 11
42.20386404422822
 21
65.67423625576555
 31
0.0
  0
LINE
  5
C5
330
1F
100
AcDbEntity
  8
0
100
AcDbLine
 10
45.83563503191733
 20
67.463773866761
 30
0.0
 11
42.43826698287969
 21
65.78973717150795
 31
0.0
  0
LINE
  5
C6
330
1F
100
AcDbEntity
  8
0
100
AcDbLine
 10
45.83563503191733
 20
67.463773866761
 30
0.0
 11
42.38535407033614
 21
71.13759489215228
 31
0.0
  0
LINE
  5
C7
330
1F
100
AcDbEntity
  8
0
100
AcDbLine
 10
44.44789492778605
 20
63.05789639341643
 30
0.0
 11
48.03995570152344
 21
64.88170153895351
 31
0.0
  0
LINE
  5
C8
330
1F
100
AcDbEntity
  8
0
100
AcDbLine
 10
38.88403830965272
 20
68.3367967088758
 30
0.0
 11
41.41132932741608
 21
66.38069042281151
 31
0.0
  0
LINE
  5
C9
330
1F
100
AcDbEntity
  8
0
100
AcDbLine
 10
42.43826698287969
 20
65.78973717150795
 30
0.0
 11
44.64846684916222
 21
64.51787340250364
 31
0.0
  0
LINE
  5
CA
330
1F
100
AcDbEntity
  8
0
100
AcDbLine
 10
-23.92086371856318
 20
59.33179678070493
 30
0.0
 11
-23.92086371856318
 21
60.02596177064456
 31
0.0
  0
LINE
  5
CB
330
1F
100
AcDbEntity
  8
0
100
AcDbLine
 10
-23.92086371856318
 20
60.02596177064456
 30
0.0
 11
-23.8755920887845
 21
60.71409054328038
 31
0.0
  0
LINE
  5
CC
330
1F
100
AcDbEntity
  8
0
100
AcDbLine
 10
-23.8755920887845
 20
60.71409054328038
 30
0.0
 11
-23.73977719944849
 21
61.30563983905503
 31
0.0
  0
LINE
  5
CD
330
1F
100
AcDbEntity
  8
0
100
AcDbLine
 10
-23.73977719944849
 20
61.30563983905503
 30
0.0
 11
-23.50662830608833
 21
61.83229979881359
 31
0.0
  0
LINE
  5
CE
330
1F
100
AcDbEntity
  8
0
100
AcDbLine
 10
-23.50662830608833
 20
61.83229979881359
 30
0.0
 11
-23.16935466423722
 21
62.3257605634011
 31
0.0
  0
LINE
  5
CF
330
1F
100
AcDbEntity
  8
0
100
AcDbLine
 10
-23.16935466423722
 20
62.3257605634011
 30
0.0
 11
-22.63590396001187
 21
62.87052917507113
 31
0.0
  0
LINE
  5
D0
330
1F
100
AcDbEntity
  8
0
100
AcDbLine
 10
-22.63590396001187
 20
62.87052917507113
 30
0.0
 11
-21.81422387952897
 21
63.55111267607715
 31
0.0
  0
LINE
  5
D1
330
1F
100
AcDbEntity
  8
0
100
AcDbLine
 10
-21.81422387952897
 20
63.55111267607715
 30
0.0
 11
-20.89973695799979
 21
64.33280281692224
 31
0.0
  0
LINE
  5
D2
330
1F
100
AcDbEntity
  8
0
100
AcDbLine
 10
-20.89973695799979
 20
64.33280281692224
 30
0.0
 11
-20.56170878898571
 21
64.79457344066469
 31
0.0
  0
LINE
  5
D3
330
1F
100
AcDbEntity
  8
0
100
AcDbLine
 10
-20.56170878898571
 20
64.79457344066469
 30
0.0
 11
-20.45003876886499
 21
65.27747082497052
 31
0.0
  0
LINE
  5
D4
330
1F
100
AcDbEntity
  8
0
100
AcDbLine
 10
-20.45003876886499
 20
65.27747082497052
 30
0.0
 11
-20.51492810488108
 21
65.65511167004094
 31
0.0
  0
LINE
  5
D5
330
1F
100
AcDbEntity
  8
0
100
AcDbLine
 10
-20.51492810488108
 20
65.65511167004094
 30
0.0
 11
-20.70959611292937
 21
65.92485513080553
 31
0.0
  0
LINE
  5
D6
330
1F
100
AcDbEntity
  8
0
100
AcDbLine
 10
-20.70959611292937
 20
65.92485513080553
 30
0.0
 11
-21.03404279300986
 21
66.08670120726428
 31
0.0
  0
LINE
  5
D7
330
1F
100
AcDbEntity
  8
0
100
AcDbLine
 10
-21.03404279300986
 20
66.08670120726428
 30
0.0
 11
-21.48826814512253
 21
66.1406498994172
 31
0.0
  0
LINE
  5
D8
330
1F
100
AcDbEntity
  8
0
100
AcDbLine
 10
-21.48826814512253
 20
66.1406498994172
 30
0.0
 11
-22.00926915115875
 21
66.0927374245681
 31
0.0
  0
LINE
  5
D9
330
1F
100
AcDbEntity
  8
0
100
AcDbLine
 10
-22.00926915115875
 20
66.0927374245681
 30
0.0
 11
-22.51593414109839
 21
65.94900000002083
 31
0.0
  0
LINE
  5
DA
330
1F
100
AcDbEntity
  8
0
100
AcDbLine
 10
-22.51593414109839
 20
65.94900000002083
 30
0.0
 11
-23.00826311494145
 21
65.70943762577535
 31
0.0
  0
LINE
  5
DB
330
1F
100
AcDbEntity
  8
0
100
AcDbLine
 10
-23.00826311494145
 20
65.70943762577535
 30
0.0
 11
-23.48625607268792
 21
65.37405030183169
 31
0.0
  0
LINE
  5
DC
330
1F
100
AcDbEntity
  8
0
100
AcDbLine
 10
-23.48625607268792
 20
65.37405030183169
 30
0.0
 11
-23.48625607268792
 21
67.48069014086589
 31
0.0
  0
LINE
  5
DD
330
1F
100
AcDbEntity
  8
0
100
AcDbLine
 10
-23.48625607268792
 20
67.48069014086589
 30
0.0
 11
-22.79133655558531
 21
67.7870281690349
 31
0.0
  0
LINE
  5
DE
330
1F
100
AcDbEntity
  8
0
100
AcDbLine
 10
-22.79133655558531
 20
67.7870281690349
 30
0.0
 11
-22.14319772258732
 21
67.9816961770832
 31
0.0
  0
LINE
  5
DF
330
1F
100
AcDbEntity
  8
0
100
AcDbLine
 10
-22.14319772258732
 20
67.9816961770832
 30
0.0
 11
-21.51014943284889
 21
68.08582092557414
 31
0.0
  0
LINE
  5
E0
330
1F
100
AcDbEntity
  8
0
100
AcDbLine
 10
-21.51014943284889
 20
68.08582092557414
 30
0.0
 11
-20.86050154552495
 21
68.12052917507113
 31
0.0
  0
LINE
  5
E1
330
1F
100
AcDbEntity
  8
0
100
AcDbLine
 10
-20.86050154552495
 20
68.12052917507113
 30
0.0
 11
-20.19425406061549
 21
68.07865291752586
 31
0.0
  0
LINE
  5
E2
330
1F
100
AcDbEntity
  8
0
100
AcDbLine
 10
-20.19425406061549
 20
68.07865291752586
 30
0.0
 11
-19.60798645498168
 21
67.95302414489004
 31
0.0
  0
LINE
  5
E3
330
1F
100
AcDbEntity
  8
0
100
AcDbLine
 10
-19.60798645498168
 20
67.95302414489004
 30
0.0
 11
-19.10169872862354
 21
67.74364285716368
 31
0.0
  0
LINE
  5
E4
330
1F
100
AcDbEntity
  8
0
100
AcDbLine
 10
-19.10169872862354
 20
67.74364285716368
 30
0.0
 11
-18.67539088154104
 21
67.45050905434678
 31
0.0
  0
LINE
  5
E5
330
1F
100
AcDbEntity
  8
0
100
AcDbLine
 10
-18.67539088154104
 20
67.45050905434678
 30
0.0
 11
-18.33736271252696
 21
67.08116800806911
 31
0.0
  0
LINE
  5
E6
330
1F
100
AcDbEntity
  8
0
100
AcDbLine
 10
-18.33736271252696
 20
67.08116800806911
 30
0.0
 11
-18.09591402037404
 21
66.64316498996045
 31
0.0
  0
LINE
  5
E7
330
1F
100
AcDbEntity
  8
0
100
AcDbLine
 10
-18.09591402037404
 20
66.64316498996045
 30
0.0
 11
-17.95104480508229
 21
66.13650000002083
 31
0.0
  0
LINE
  5
E8
330
1F
100
AcDbEntity
  8
0
100
AcDbLine
 10
-17.95104480508229
 20
66.13650000002083
 30
0.0
 11
-17.90275506665171
 21
65.56117303825019
 31
0.0
  0
LINE
  5
E9
330
1F
100
AcDbEntity
  8
0
100
AcDbLine
 10
-17.90275506665171
 20
65.56117303825019
 30
0.0
 11
-18.00386170649074
 21
64.69648490947756
 31
0.0
  0
LINE
  5
EA
330
1F
100
AcDbEntity
  8
0
100
AcDbLine
 10
-18.00386170649074
 20
64.69648490947756
 30
0.0
 11
-18.30718162600784
 21
63.97364788734477
 31
0.0
  0
LINE
  5
EB
330
1F
100
AcDbEntity
  8
0
100
AcDbLine
 10
-18.30718162600784
 20
63.97364788734477
 30
0.0
 11
-18.88514943284889
 21
63.30815492959829
 31
0.0
  0
LINE
  5
EC
330
1F
100
AcDbEntity
  8
0
100
AcDbLine
 10
-18.88514943284889
 20
63.30815492959829
 30
0.0
 11
-19.81019973465975
 21
62.6154989939846
 31
0.0
  0
LINE
  5
ED
330
1F
100
AcDbEntity
  8
0
100
AcDbLine
 10
-19.81019973465975
 20
62.6154989939846
 30
0.0
 11
-20.92388182721509
 21
61.82173641853188
 31
0.0
  0
LINE
  5
EE
330
1F
100
AcDbEntity
  8
0
100
AcDbLine
 10
-20.92388182721509
 20
61.82173641853188
 30
0.0
 11
-21.131376797034
 21
61.59009657949769
 31
0.0
  0
LINE
  5
EF
330
1F
100
AcDbEntity
  8
0
100
AcDbLine
 10
-21.131376797034
 20
61.59009657949769
 30
0.0
 11
-21.20456593184285
 21
61.39618309861236
 31
0.0
  0
LINE
  5
F0
330
1F
100
AcDbEntity
  8
0
100
AcDbLine
 10
-21.20456593184285
 20
61.39618309861236
 30
0.0
 11
-17.82428424170201
 21
61.39618309861236
 31
0.0
  0
LINE
  5
F1
330
1F
100
AcDbEntity
  8
0
100
AcDbLine
 10
-17.82428424170201
 20
61.39618309861236
 30
0.0
 11
-17.82428424170201
 21
59.33179678070493
 31
0.0
  0
LINE
  5
F2
330
1F
100
AcDbEntity
  8
0
100
AcDbLine
 10
-17.82428424170201
 20
59.33179678070493
 30
0.0
 11
-23.92086371856318
 21
59.33179678070493
 31
0.0
  0
LINE
  5
F3
330
1F
100
AcDbEntity
  8
0
100
AcDbLine
 10
-13.64722186745654
 20
60.40624346078541
 30
0.0
 11
-13.7438013443177
 21
59.90976458754597
 31
0.0
  0
LINE
  5
F4
330
1F
100
AcDbEntity
  8
0
100
AcDbLine
 10
-13.7438013443177
 20
59.90976458754597
 30
0.0
 11
-14.0335397749012
 21
59.51891951712343
 31
0.0
  0
LINE
  5
F5
330
1F
100
AcDbEntity
  8
0
100
AcDbLine
 10
-14.0335397749012
 20
59.51891951712343
 30
0.0
 11
-14.4938013443177
 21
59.26539839036287
 31
0.0
  0
LINE
  5
F6
330
1F
100
AcDbEntity
  8
0
100
AcDbLine
 10
-14.4938013443177
 20
59.26539839036287
 30
0.0
 11
-15.10195023767786
 21
59.18089134810935
 31
0.0
  0
LINE
  5
F7
330
1F
100
AcDbEntity
  8
0
100
AcDbLine
 10
-15.10195023767786
 20
59.18089134810935
 30
0.0
 11
-15.66709108274829
 21
59.26917102617776
 31
0.0
  0
LINE
  5
F8
330
1F
100
AcDbEntity
  8
0
100
AcDbLine
 10
-15.66709108274829
 20
59.26917102617776
 30
0.0
 11
-16.11905285337203
 21
59.53401006038299
 31
0.0
  0
LINE
  5
F9
330
1F
100
AcDbEntity
  8
0
100
AcDbLine
 10
-16.11905285337203
 20
59.53401006038299
 30
0.0
 11
-16.41558202842233
 21
59.92862776662042
 31
0.0
  0
LINE
  5
FA
330
1F
100
AcDbEntity
  8
0
100
AcDbLine
 10
-16.41558202842233
 20
59.92862776662042
 30
0.0
 11
-16.51442508677243
 21
60.40624346078541
 31
0.0
  0
LINE
  5
FB
330
1F
100
AcDbEntity
  8
0
100
AcDbLine
 10
-16.51442508677243
 20
60.40624346078541
 30
0.0
 11
-16.41709108274829
 21
60.88687726360231
 31
0.0
  0
LINE
  5
FC
330
1F
100
AcDbEntity
  8
0
100
AcDbLine
 10
-16.41709108274829
 20
60.88687726360231
 30
0.0
 11
-16.12508907067585
 21
61.26640442658017
 31
0.0
  0
LINE
  5
FD
330
1F
100
AcDbEntity
  8
0
100
AcDbLine
 10
-16.12508907067585
 20
61.26640442658017
 30
0.0
 11
-15.66860013707424
 21
61.51313480887394
 31
0.0
  0
LINE
  5
FE
330
1F
100
AcDbEntity
  8
0
100
AcDbLine
 10
-15.66860013707424
 20
61.51313480887394
 30
0.0
 11
-15.07780536846257
 21
61.59537826963853
 31
0.0
  0
LINE
  5
FF
330
1F
100
AcDbEntity
  8
0
100
AcDbLine
 10
-15.07780536846257
 20
61.59537826963853
 30
0.0
 11
-14.49908303445855
 21
61.51313480887394
 31
0.0
  0
LINE
  5
100
330
1F
100
AcDbEntity
  8
0
100
AcDbLine
 10
-14.49908303445855
 20
61.51313480887394
 30
0.0
 11
-14.04259410085694
 21
61.26640442658017
 31
0.0
  0
LINE
  5
101
330
1F
100
AcDbEntity
  8
0
100
AcDbLine
 10
-14.04259410085694
 20
61.26640442658017
 30
0.0
 11
-13.74606492580664
 21
60.88687726360231
 31
0.0
  0
LINE
  5
102
330
1F
100
AcDbEntity
  8
0
100
AcDbLine
 10
-13.74606492580664
 20
60.88687726360231
 30
0.0
 11
-13.64722186745654
 21
60.40624346078541
 31
0.0
  0
LINE
  5
103
330
1F
100
AcDbEntity
  8
0
100
AcDbLine
 10
-11.45607498616881
 20
59.33179678070493
 30
0.0
 11
-11.23726210890523
 21
60.48018712275723
 31
0.0
  0
LINE
  5
104
330
1F
100
AcDbEntity
  8
0
100
AcDbLine
 10
-11.23726210890523
 20
60.48018712275723
 30
0.0
 11
-10.94299651534386
 21
61.54708853120794
 31
0.0
  0
LINE
  5
105
330
1F
100
AcDbEntity
  8
0
100
AcDbLine
 10
-10.94299651534386
 20
61.54708853120794
 30
0.0
 11
-10.57855989562555
 21
62.55513682094638
 31
0.0
  0
LINE
  5
106
330
1F
100
AcDbEntity
  8
0
100
AcDbLine
 10
-10.57855989562555
 20
62.55513682094638
 30
0.0
 11
-10.14923393989114
 21
63.52696780686187
 31
0.0
  0
LINE
  5
107
330
1F
100
AcDbEntity
  8
0
100
AcDbLine
 10
-10.14923393989114
 20
63.52696780686187
 30
0.0
 11
-9.567493497235208
 21
64.61801408452786
 31
0.0
  0
LINE
  5
108
330
1F
100
AcDbEntity
  8
0
100
AcDbLine
 10
-9.567493497235208
 20
64.61801408452786
 30
0.0
 11
-8.745813416752311
 21
65.98370824951779
 31
0.0
  0
LINE
  5
109
330
1F
100
AcDbEntity
  8
0
100
AcDbLine
 10
-8.745813416752311
 20
65.98370824951779
 30
0.0
 11
-12.51241301433782
 21
65.98370824951779
 31
0.0
  0
LINE
  5
10A
330
1F
100
AcDbEntity
  8
0
100
AcDbLine
 10
-12.51241301433782
 20
65.98370824951779
 30
0.0
 11
-12.51241301433782
 21
67.98773239438702
 31
0.0
  0
LINE
  5
10B
330
1F
100
AcDbEntity
  8
0
100
AcDbLine
 10
-12.51241301433782
 20
67.98773239438702
 30
0.0
 11
-6.180421062627562
 21
67.98773239438702
 31
0.0
  0
LINE
  5
10C
330
1F
100
AcDbEntity
  8
0
100
AcDbLine
 10
-6.180421062627562
 20
67.98773239438702
 30
0.0
 11
-6.180421062627562
 21
66.46660563382363
 31
0.0
  0
LINE
  5
10D
330
1F
100
AcDbEntity
  8
0
100
AcDbLine
 10
-6.180421062627562
 20
66.46660563382363
 30
0.0
 11
-6.938720861420316
 21
65.05413078472907
 31
0.0
  0
LINE
  5
10E
330
1F
100
AcDbEntity
  8
0
100
AcDbLine
 10
-6.938720861420316
 20
65.05413078472907
 30
0.0
 11
-7.487262108905228
 21
63.89517706239506
 31
0.0
  0
LINE
  5
10F
330
1F
100
AcDbEntity
  8
0
100
AcDbLine
 10
-7.487262108905228
 20
63.89517706239506
 30
0.0
 11
-7.900742994217099
 21
62.84261167004095
 31
0.0
  0
LINE
  5
110
330
1F
100
AcDbEntity
  8
0
100
AcDbLine
 10
-7.900742994217099
 20
62.84261167004095
 30
0.0
 11
-8.25386170649074
 21
61.74930181088601
 31
0.0
  0
LINE
  5
111
330
1F
100
AcDbEntity
  8
0
100
AcDbLine
 10
-8.25386170649074
 20
61.74930181088601
 30
0.0
 11
-8.547372772889132
 21
60.58808450706308
 31
0.0
  0
LINE
  5
112
330
1F
100
AcDbEntity
  8
0
100
AcDbLine
 10
-8.547372772889132
 20
60.58808450706308
 30
0.0
 11
-8.782030720575248
 21
59.33179678070493
 31
0.0
  0
LINE
  5
113
330
1F
100
AcDbEntity
  8
0
100
AcDbLine
 10
-8.782030720575248
 20
59.33179678070493
 30
0.0
 11
-11.45607498616881
 21
59.33179678070493
 31
0.0
  0
LINE
  5
114
330
1F
100
AcDbEntity
  8
0
100
AcDbLine
 10
0.8819531828452761
 20
62.25936217305905
 30
0.0
 11
0.7770739071913526
 21
61.41806438633873
 31
0.0
  0
LINE
  5
115
330
1F
100
AcDbEntity
  8
0
100
AcDbLine
 10
0.7770739071913526
 20
61.41806438633873
 30
0.0
 11
0.4624360802295819
 21
60.66881891350171
 31
0.0
  0
LINE
  5
116
330
1F
100
AcDbEntity
  8
0
100
AcDbLine
 10
0.4624360802295819
 20
60.66881891350171
 30
0.0
 11
-0.0498878634323885
 21
60.04331589539305
 31
0.0
  0
LINE
  5
117
330
1F
100
AcDbEntity
  8
0
100
AcDbLine
 10
-0.0498878634323885
 20
60.04331589539305
 30
0.0
 11
-0.7478254891869168
 21
59.57324547285784
 31
0.0
  0
LINE
  5
118
330
1F
100
AcDbEntity
  8
0
100
AcDbLine
 10
-0.7478254891869168
 20
59.57324547285784
 30
0.0
 11
-1.609495509307646
 21
59.27897987929646
 31
0.0
  0
LINE
  5
119
330
1F
100
AcDbEntity
  8
0
100
AcDbLine
 10
-1.609495509307646
 20
59.27897987929646
 30
0.0
 11
-2.613016636068206
 21
59.18089134810935
 31
0.0
  0
LINE
  5
11A
330
1F
100
AcDbEntity
  8
0
100
AcDbLine
 10
-2.613016636068206
 20
59.18089134810935
 30
0.0
 11
-3.859495509307641
 21
59.28350704227434
 31
0.0
  0
LINE
  5
11B
330
1F
100
AcDbEntity
  8
0
100
AcDbLine
 10
-3.859495509307641
 20
59.28350704227434
 30
0.0
 11
-4.92488786343239
 21
59.54306438633873
 31
0.0
  0
LINE
  5
11C
330
1F
100
AcDbEntity
  8
0
100
AcDbLine
 10
-4.92488786343239
 20
59.54306438633873
 30
0.0
 11
-4.92488786343239
 21
61.54708853120794
 31
0.0
  0
LINE
  5
11D
330
1F
100
AcDbEntity
  8
0
100
AcDbLine
 10
-4.92488786343239
 20
61.54708853120794
 30
0.0
 11
-3.993801344317704
 21
61.18491549297858
 31
0.0
  0
LINE
  5
11E
330
1F
100
AcDbEntity
  8
0
100
AcDbLine
 10
-3.993801344317704
 20
61.18491549297858
 30
0.0
 11
-3.01140697812052
 21
61.06419114690211
 31
0.0
  0
LINE
  5
11F
330
1F
100
AcDbEntity
  8
0
100
AcDbLine
 10
-3.01140697812052
 20
61.06419114690211
 30
0.0
 11
-2.428157481138626
 21
61.12455331994033
 31
0.0
  0
LINE
  5
120
330
1F
100
AcDbEntity
  8
0
100
AcDbLine
 10
-2.428157481138626
 20
61.12455331994033
 30
0.0
 11
-2.006376797034
 21
61.30563983905503
 31
0.0
  0
LINE
  5
121
330
1F
100
AcDbEntity
  8
0
100
AcDbLine
 10
-2.006376797034
 20
61.30563983905503
 30
0.0
 11
-1.750592088784503
 21
61.59688732396447
 31
0.0
  0
LINE
  5
122
330
1F
100
AcDbEntity
  8
0
100
AcDbLine
 10
-1.750592088784503
 20
61.59688732396447
 30
0.0
 11
-1.665330519368005
 21
61.98773239438702
 31
0.0
  0
LINE
  5
123
330
1F
100
AcDbEntity
  8
0
100
AcDbLine
 10
-1.665330519368005
 20
61.98773239438702
 30
0.0
 11
-1.764173577718108
 21
62.40498591551378
 31
0.0
  0
LINE
  5
124
330
1F
100
AcDbEntity
  8
0
100
AcDbLine
 10
-1.764173577718108
 20
62.40498591551378
 30
0.0
 11
-2.060702752768407
 21
62.70302414489004
 31
0.0
  0
LINE
  5
125
330
1F
100
AcDbEntity
  8
0
100
AcDbLine
 10
-2.060702752768407
 20
62.70302414489004
 30
0.0
 11
-2.554918044518912
 21
62.8818470825158
 31
0.0
  0
LINE
  5
126
330
1F
100
AcDbEntity
  8
0
100
AcDbLine
 10
-2.554918044518912
 20
62.8818470825158
 30
0.0
 11
-3.246819452969614
 21
62.94145472839104
 31
0.0
  0
LINE
  5
127
330
1F
100
AcDbEntity
  8
0
100
AcDbLine
 10
-3.246819452969614
 20
62.94145472839104
 30
0.0
 11
-4.00889188757726
 21
62.90372837024215
 31
0.0
  0
LINE
  5
128
330
1F
100
AcDbEntity
  8
0
100
AcDbLine
 10
-4.00889188757726
 20
62.90372837024215
 30
0.0
 11
-4.713620257798587
 21
62.79054929579546
 31
0.0
  0
LINE
  5
129
330
1F
100
AcDbEntity
  8
0
100
AcDbLine
 10
-4.713620257798587
 20
62.79054929579546
 30
0.0
 11
-4.387664523392148
 21
67.98773239438702
 31
0.0
  0
LINE
  5
12A
330
1F
100
AcDbEntity
  8
0
100
AcDbLine
 10
-4.387664523392148
 20
67.98773239438702
 30
0.0
 11
0.5016714927044303
 21
67.98773239438702
 31
0.0
  0
LINE
  5
12B
330
1F
100
AcDbEntity
  8
0
100
AcDbLine
 10
0.5016714927044303
 20
67.98773239438702
 30
0.0
 11
0.5016714927044303
 21
65.98370824951779
 31
0.0
  0
LINE
  5
12C
330
1F
100
AcDbEntity
  8
0
100
AcDbLine
 10
0.5016714927044303
 20
65.98370824951779
 30
0.0
 11
-2.395712813130581
 21
65.98370824951779
 31
0.0
  0
LINE
  5
12D
330
1F
100
AcDbEntity
  8
0
100
AcDbLine
 10
-2.395712813130581
 20
65.98370824951779
 30
0.0
 11
-2.480219855384101
 21
64.77042857144939
 31
0.0
  0
LINE
  5
12E
330
1F
100
AcDbEntity
  8
0
100
AcDbLine
 10
-2.480219855384101
 20
64.77042857144939
 30
0.0
 11
-1.822272169267402
 21
64.80664587527232
 31
0.0
  0
LINE
  5
12F
330
1F
100
AcDbEntity
  8
0
100
AcDbLine
 10
-1.822272169267402
 20
64.80664587527232
 30
0.0
 11
-1.222800338281486
 21
64.76382645877334
 31
0.0
  0
LINE
  5
130
330
1F
100
AcDbEntity
  8
0
100
AcDbLine
 10
-1.222800338281486
 20
64.76382645877334
 30
0.0
 11
-0.6919904791265573
 21
64.63536820927635
 31
0.0
  0
LINE
  5
131
330
1F
100
AcDbEntity
  8
0
100
AcDbLine
 10
-0.6919904791265573
 20
64.63536820927635
 30
0.0
 11
-0.2298425918026127
 21
64.42127112678139
 31
0.0
  0
LINE
  5
132
330
1F
100
AcDbEntity
  8
0
100
AcDbLine
 10
-0.2298425918026127
 20
64.42127112678139
 30
0.0
 11
0.1636433236903449
 21
64.12153521128842
 31
0.0
  0
LINE
  5
133
330
1F
100
AcDbEntity
  8
0
100
AcDbLine
 10
0.1636433236903449
 20
64.12153521128842
 30
0.0
 11
0.4779038870706284
 21
63.74823289740513
 31
0.0
  0
LINE
  5
134
330
1F
100
AcDbEntity
  8
0
100
AcDbLine
 10
0.4779038870706284
 20
63.74823289740513
 30
0.0
 11
0.7023757180565448
 21
63.31343661973914
 31
0.0
  0
LINE
  5
135
330
1F
100
AcDbEntity
  8
0
100
AcDbLine
 10
0.7023757180565448
 20
63.31343661973914
 30
0.0
 11
0.837058816648094
 21
62.81714637829043
 31
0.0
  0
LINE
  5
136
330
1F
100
AcDbEntity
  8
0
100
AcDbLine
 10
0.837058816648094
 20
62.81714637829043
 30
0.0
 11
0.8819531828452761
 21
62.25936217305905
 31
0.0
  0
LINE
  5
137
330
1F
100
AcDbEntity
  8
0
100
AcDbLine
 10
10.34070569793582
 20
59.33179678070493
 30
0.0
 11
10.34070569793582
 21
62.89316498996046
 31
0.0
  0
LINE
  5
138
330
1F
100
AcDbEntity
  8
0
100
AcDbLine
 10
10.34070569793582
 20
62.89316498996046
 30
0.0
 11
10.30071575829799
 21
63.28325553322001
 31
0.0
  0
LINE
  5
139
330
1F
100
AcDbEntity
  8
0
100
AcDbLine
 10
10.30071575829799
 20
63.28325553322001
 30
0.0
 11
10.18074593938451
 21
63.56016700203289
 31
0.0
  0
LINE
  5
13A
330
1F
100
AcDbEntity
  8
0
100
AcDbLine
 10
10.18074593938451
 20
63.56016700203289
 30
0.0
 11
9.970232860913683
 21
63.72540845072504
 31
0.0
  0
LINE
  5
13B
330
1F
100
AcDbEntity
  8
0
100
AcDbLine
 10
9.970232860913683
 20
63.72540845072504
 30
0.0
 11
9.658613142603825
 21
63.78048893362243
 31
0.0
  0
LINE
  5
13C
330
1F
100
AcDbEntity
  8
0
100
AcDbLine
 10
9.658613142603825
 20
63.78048893362243
 30
0.0
 11
9.341711734153122
 21
63.7133360161174
 31
0.0
  0
LINE
  5
13D
330
1F
100
AcDbEntity
  8
0
100
AcDbLine
 10
9.341711734153122
 20
63.7133360161174
 30
0.0
 11
9.103281150652117
 21
63.51187726360231
 31
0.0
  0
LINE
  5
13E
330
1F
100
AcDbEntity
  8
0
100
AcDbLine
 10
9.103281150652117
 20
63.51187726360231
 30
0.0
 11
8.953884772382501
 21
63.19120321933671
 31
0.0
  0
LINE
  5
13F
330
1F
100
AcDbEntity
  8
0
100
AcDbLine
 10
8.953884772382501
 20
63.19120321933671
 30
0.0
 11
8.904085979625963
 21
62.76640442658017
 31
0.0
  0
LINE
  5
140
330
1F
100
AcDbEntity
  8
0
100
AcDbLine
 10
8.904085979625963
 20
62.76640442658017
 30
0.0
 11
8.904085979625963
 21
59.33179678070493
 31
0.0
  0
LINE
  5
141
330
1F
100
AcDbEntity
  8
0
100
AcDbLine
 10
8.904085979625963
 20
59.33179678070493
 30
0.0
 11
6.332657408197389
 21
59.33179678070493
 31
0.0
  0
LINE
  5
142
330
1F
100
AcDbEntity
  8
0
100
AcDbLine
 10
6.332657408197389
 20
59.33179678070493
 30
0.0
 11
6.332657408197389
 21
62.83280281692223
 31
0.0
  0
LINE
  5
143
330
1F
100
AcDbEntity
  8
0
100
AcDbLine
 10
6.332657408197389
 20
62.83280281692223
 30
0.0
 11
6.292290204978074
 21
63.24741549297857
 31
0.0
  0
LINE
  5
144
330
1F
100
AcDbEntity
  8
0
100
AcDbLine
 10
6.292290204978074
 20
63.24741549297857
 30
0.0
 11
6.171188595320126
 21
63.54356740444737
 31
0.0
  0
LINE
  5
145
330
1F
100
AcDbEntity
  8
0
100
AcDbLine
 10
6.171188595320126
 20
63.54356740444737
 30
0.0
 11
5.969352579223547
 21
63.72125855132867
 31
0.0
  0
LINE
  5
146
330
1F
100
AcDbEntity
  8
0
100
AcDbLine
 10
5.969352579223547
 20
63.72125855132867
 30
0.0
 11
5.686782156688332
 21
63.78048893362243
 31
0.0
  0
LINE
  5
147
330
1F
100
AcDbEntity
  8
0
100
AcDbLine
 10
5.686782156688332
 20
63.78048893362243
 30
0.0
 11
5.342717770370431
 21
63.71182696179145
 31
0.0
  0
LINE
  5
148
330
1F
100
AcDbEntity
  8
0
100
AcDbLine
 10
5.342717770370431
 20
63.71182696179145
 30
0.0
 11
5.095232860913687
 21
63.50584104629848
 31
0.0
  0
LINE
  5
149
330
1F
100
AcDbEntity
  8
0
100
AcDbLine
 10
5.095232860913687
 20
63.50584104629848
 30
0.0
 11
4.945836482644071
 21
63.17158551309929
 31
0.0
  0
LINE
  5
14A
330
1F
100
AcDbEntity
  8
0
100
AcDbLine
 10
4.945836482644071
 20
63.17158551309929
 30
0.0
 11
4.896037689887527
 21
62.71811468814959
 31
0.0
  0
LINE
  5
14B
330
1F
100
AcDbEntity
  8
0
100
AcDbLine
 10
4.896037689887527
 20
62.71811468814959
 30
0.0
 11
4.896037689887527
 21
59.33179678070493
 31
0.0
  0
LINE
  5
14C
330
1F
100
AcDbEntity
  8
0
100
AcDbLine
 10
4.896037689887527
 20
59.33179678070493
 30
0.0
 11
2.324609118458959
 21
59.33179678070493
 31
0.0
  0
LINE
  5
14D
330
1F
100
AcDbEntity
  8
0
100
AcDbLine
 10
2.324609118458959
 20
59.33179678070493
 30
0.0
 11
2.324609118458959
 21
65.51288329981962
 31
0.0
  0
LINE
  5
14E
330
1F
100
AcDbEntity
  8
0
100
AcDbLine
 10
2.324609118458959
 20
65.51288329981962
 30
0.0
 11
4.896037689887527
 21
65.51288329981962
 31
0.0
  0
LINE
  5
14F
330
1F
100
AcDbEntity
  8
0
100
AcDbLine
 10
4.896037689887527
 20
65.51288329981962
 30
0.0
 11
4.896037689887527
 21
64.5350160966003
 31
0.0
  0
LINE
  5
150
330
1F
100
AcDbEntity
  8
0
100
AcDbLine
 10
4.920182559102821
 20
64.5350160966003
 30
0.0
 11
5.381953182845276
 21
65.06318511068481
 31
0.0
  0
LINE
  5
151
330
1F
100
AcDbEntity
  8
0
100
AcDbLine
 10
5.381953182845276
 20
65.06318511068481
 30
0.0
 11
6.097244933348293
 21
65.49779275656006
 31
0.0
  0
LINE
  5
152
330
1F
100
AcDbEntity
  8
0
100
AcDbLine
 10
6.097244933348293
 20
65.49779275656006
 30
0.0
 11
6.512234872986124
 21
65.62228973845141
 31
0.0
  0
LINE
  5
153
330
1F
100
AcDbEntity
  8
0
100
AcDbLine
 10
6.512234872986124
 20
65.62228973845141
 30
0.0
 11
6.960424007794976
 21
65.66378873241518
 31
0.0
  0
LINE
  5
154
330
1F
100
AcDbEntity
  8
0
100
AcDbLine
 10
6.960424007794976
 20
65.66378873241518
 30
0.0
 11
7.566309319666202
 21
65.59889939639908
 31
0.0
  0
LINE
  5
155
330
1F
100
AcDbEntity
  8
0
100
AcDbLine
 10
7.566309319666202
 20
65.59889939639908
 30
0.0
 11
8.068069883046483
 21
65.4042313883508
 31
0.0
  0
LINE
  5
156
330
1F
100
AcDbEntity
  8
0
100
AcDbLine
 10
8.068069883046483
 20
65.4042313883508
 30
0.0
 11
8.48079624119538
 21
65.06922132798863
 31
0.0
  0
LINE
  5
157
330
1F
100
AcDbEntity
  8
0
100
AcDbLine
 10
8.48079624119538
 20
65.06922132798863
 30
0.0
 11
8.819578937372436
 21
64.58330583503087
 31
0.0
  0
LINE
  5
158
330
1F
100
AcDbEntity
  8
0
100
AcDbLine
 10
8.819578937372436
 20
64.58330583503087
 30
0.0
 11
9.199860627513285
 21
65.0428128772844
 31
0.0
  0
LINE
  5
159
330
1F
100
AcDbEntity
  8
0
100
AcDbLine
 10
9.199860627513285
 20
65.0428128772844
 30
0.0
 11
9.688794229122943
 21
65.38310462778742
 31
0.0
  0
LINE
  5
15A
330
1F
100
AcDbEntity
  8
0
100
AcDbLine
 10
9.688794229122943
 20
65.38310462778742
 30
0.0
 11
10.26223487298612
 21
65.59361770625824
 31
0.0
  0
LINE
  5
15B
330
1F
100
AcDbEntity
  8
0
100
AcDbLine
 10
10.26223487298612
 20
65.59361770625824
 30
0.0
 11
10.89603768988753
 21
65.66378873241518
 31
0.0
  0
LINE
  5
15C
330
1F
100
AcDbEntity
  8
0
100
AcDbLine
 10
10.89603768988753
 20
65.66378873241518
 30
0.0
 11
11.35365841423361
 21
65.62417605635885
 31
0.0
  0
LINE
  5
15D
330
1F
100
AcDbEntity
  8
0
100
AcDbLine
 10
11.35365841423361
 20
65.62417605635885
 30
0.0
 11
11.75468960135634
 21
65.50533802818983
 31
0.0
  0
LINE
  5
15E
330
1F
100
AcDbEntity
  8
0
100
AcDbLine
 10
11.75468960135634
 20
65.50533802818983
 30
0.0
 11
12.09913125125574
 21
65.30727464790814
 31
0.0
  0
LINE
  5
15F
330
1F
100
AcDbEntity
  8
0
100
AcDbLine
 10
12.09913125125574
 20
65.30727464790814
 30
0.0
 11
12.3869833639318
 21
65.02998591551378
 31
0.0
  0
LINE
  5
160
330
1F
100
AcDbEntity
  8
0
100
AcDbLine
 10
12.3869833639318
 20
65.02998591551378
 30
0.0
 11
12.61409603998814
 21
64.6779989939846
 31
0.0
  0
LINE
  5
161
330
1F
100
AcDbEntity
  8
0
100
AcDbLine
 10
12.61409603998814
 20
64.6779989939846
 30
0.0
 11
12.77631938002837
 21
64.25584104629849
 31
0.0
  0
LINE
  5
162
330
1F
100
AcDbEntity
  8
0
100
AcDbLine
 10
12.77631938002837
 20
64.25584104629849
 30
0.0
 11
12.87365338405252
 21
63.76351207245543
 31
0.0
  0
LINE
  5
163
330
1F
100
AcDbEntity
  8
0
100
AcDbLine
 10
12.87365338405252
 20
63.76351207245543
 30
0.0
 11
12.90609805206057
 21
63.20101207245543
 31
0.0
  0
LINE
  5
164
330
1F
100
AcDbEntity
  8
0
100
AcDbLine
 10
12.90609805206057
 20
63.20101207245543
 30
0.0
 11
12.90609805206057
 21
59.33179678070493
 31
0.0
  0
LINE
  5
165
330
1F
100
AcDbEntity
  8
0
100
AcDbLine
 10
12.90609805206057
 20
59.33179678070493
 30
0.0
 11
10.34070569793582
 21
59.33179678070493
 31
0.0
  0
LINE
  5
166
330
1F
100
AcDbEntity
  8
0
100
AcDbLine
 10
22.08718457117526
 20
59.33179678070493
 30
0.0
 11
22.08718457117526
 21
62.89316498996046
 31
0.0
  0
LINE
  5
167
330
1F
100
AcDbEntity
  8
0
100
AcDbLine
 10
22.08718457117526
 20
62.89316498996046
 30
0.0
 11
22.04719463153743
 21
63.28325553322001
 31
0.0
  0
LINE
  5
168
330
1F
100
AcDbEntity
  8
0
100
AcDbLine
 10
22.04719463153743
 20
63.28325553322001
 30
0.0
 11
21.92722481262395
 21
63.56016700203289
 31
0.0
  0
LINE
  5
169
330
1F
100
AcDbEntity
  8
0
100
AcDbLine
 10
21.92722481262395
 20
63.56016700203289
 30
0.0
 11
21.71671173415312
 21
63.72540845072504
 31
0.0
  0
LINE
  5
16A
330
1F
100
AcDbEntity
  8
0
100
AcDbLine
 10
21.71671173415312
 20
63.72540845072504
 30
0.0
 11
21.40509201584326
 21
63.78048893362243
 31
0.0
  0
LINE
  5
16B
330
1F
100
AcDbEntity
  8
0
100
AcDbLine
 10
21.40509201584326
 20
63.78048893362243
 30
0.0
 11
21.08819060739256
 21
63.7133360161174
 31
0.0
  0
LINE
  5
16C
330
1F
100
AcDbEntity
  8
0
100
AcDbLine
 10
21.08819060739256
 20
63.7133360161174
 30
0.0
 11
20.84976002389156
 21
63.51187726360231
 31
0.0
  0
LINE
  5
16D
330
1F
100
AcDbEntity
  8
0
100
AcDbLine
 10
20.84976002389156
 20
63.51187726360231
 30
0.0
 11
20.70036364562193
 21
63.19120321933671
 31
0.0
  0
LINE
  5
16E
330
1F
100
AcDbEntity
  8
0
100
AcDbLine
 10
20.70036364562193
 20
63.19120321933671
 30
0.0
 11
20.6505648528654
 21
62.76640442658017
 31
0.0
  0
LINE
  5
16F
330
1F
100
AcDbEntity
  8
0
100
AcDbLine
 10
20.6505648528654
 20
62.76640442658017
 30
0.0
 11
20.6505648528654
 21
59.33179678070493
 31
0.0
  0
LINE
  5
170
330
1F
100
AcDbEntity
  8
0
100
AcDbLine
 10
20.6505648528654
 20
59.33179678070493
 30
0.0
 11
18.07913628143683
 21
59.33179678070493
 31
0.0
  0
LINE
  5
171
330
1F
100
AcDbEntity
  8
0
100
AcDbLine
 10
18.07913628143683
 20
59.33179678070493
 30
0.0
 11
18.07913628143683
 21
62.83280281692223
 31
0.0
  0
LINE
  5
172
330
1F
100
AcDbEntity
  8
0
100
AcDbLine
 10
18.07913628143683
 20
62.83280281692223
 30
0.0
 11
18.03876907821751
 21
63.24741549297857
 31
0.0
  0
LINE
  5
173
330
1F
100
AcDbEntity
  8
0
100
AcDbLine
 10
18.03876907821751
 20
63.24741549297857
 30
0.0
 11
17.91766746855956
 21
63.54356740444737
 31
0.0
  0
LINE
  5
174
330
1F
100
AcDbEntity
  8
0
100
AcDbLine
 10
17.91766746855956
 20
63.54356740444737
 30
0.0
 11
17.71583145246299
 21
63.72125855132867
 31
0.0
  0
LINE
  5
175
330
1F
100
AcDbEntity
  8
0
100
AcDbLine
 10
17.71583145246299
 20
63.72125855132867
 30
0.0
 11
17.43326102992777
 21
63.78048893362243
 31
0.0
  0
LINE
  5
176
330
1F
100
AcDbEntity
  8
0
100
AcDbLine
 10
17.43326102992777
 20
63.78048893362243
 30
0.0
 11
17.08919664360986
 21
63.71182696179145
 31
0.0
  0
LINE
  5
177
330
1F
100
AcDbEntity
  8
0
100
AcDbLine
 10
17.08919664360986
 20
63.71182696179145
 30
0.0
 11
16.84171173415313
 21
63.50584104629848
 31
0.0
  0
LINE
  5
178
330
1F
100
AcDbEntity
  8
0
100
AcDbLine
 10
16.84171173415313
 20
63.50584104629848
 30
0.0
 11
16.69231535588351
 21
63.17158551309929
 31
0.0
  0
LINE
  5
179
330
1F
100
AcDbEntity
  8
0
100
AcDbLine
 10
16.69231535588351
 20
63.17158551309929
 30
0.0
 11
16.64251656312696
 21
62.71811468814959
 31
0.0
  0
LINE
  5
17A
330
1F
100
AcDbEntity
  8
0
100
AcDbLine
 10
16.64251656312696
 20
62.71811468814959
 30
0.0
 11
16.64251656312696
 21
59.33179678070493
 31
0.0
  0
LINE
  5
17B
330
1F
100
AcDbEntity
  8
0
100
AcDbLine
 10
16.64251656312696
 20
59.33179678070493
 30
0.0
 11
14.07108799169839
 21
59.33179678070493
 31
0.0
  0
LINE
  5
17C
330
1F
100
AcDbEntity
  8
0
100
AcDbLine
 10
14.07108799169839
 20
59.33179678070493
 30
0.0
 11
14.07108799169839
 21
65.51288329981962
 31
0.0
  0
LINE
  5
17D
330
1F
100
AcDbEntity
  8
0
100
AcDbLine
 10
14.07108799169839
 20
65.51288329981962
 30
0.0
 11
16.64251656312696
 21
65.51288329981962
 31
0.0
  0
LINE
  5
17E
330
1F
100
AcDbEntity
  8
0
100
AcDbLine
 10
16.64251656312696
 20
65.51288329981962
 30
0.0
 11
16.64251656312696
 21
64.5350160966003
 31
0.0
  0
LINE
  5
17F
330
1F
100
AcDbEntity
  8
0
100
AcDbLine
 10
16.66666143234226
 20
64.5350160966003
 30
0.0
 11
17.12843205608472
 21
65.06318511068481
 31
0.0
  0
LINE
  5
180
330
1F
100
AcDbEntity
  8
0
100
AcDbLine
 10
17.12843205608472
 20
65.06318511068481
 30
0.0
 11
17.84372380658773
 21
65.49779275656006
 31
0.0
  0
LINE
  5
181
330
1F
100
AcDbEntity
  8
0
100
AcDbLine
 10
17.84372380658773
 20
65.49779275656006
 30
0.0
 11
18.25871374622556
 21
65.62228973845141
 31
0.0
  0
LINE
  5
182
330
1F
100
AcDbEntity
  8
0
100
AcDbLine
 10
18.25871374622556
 20
65.62228973845141
 30
0.0
 11
18.70690288103441
 21
65.66378873241518
 31
0.0
  0
LINE
  5
183
330
1F
100
AcDbEntity
  8
0
100
AcDbLine
 10
18.70690288103441
 20
65.66378873241518
 30
0.0
 11
19.31278819290564
 21
65.59889939639908
 31
0.0
  0
LINE
  5
184
330
1F
100
AcDbEntity
  8
0
100
AcDbLine
 10
19.31278819290564
 20
65.59889939639908
 30
0.0
 11
19.81454875628592
 21
65.4042313883508
 31
0.0
  0
LINE
  5
185
330
1F
100
AcDbEntity
  8
0
100
AcDbLine
 10
19.81454875628592
 20
65.4042313883508
 30
0.0
 11
20.22727511443481
 21
65.06922132798863
 31
0.0
  0
LINE
  5
186
330
1F
100
AcDbEntity
  8
0
100
AcDbLine
 10
20.22727511443481
 20
65.06922132798863
 30
0.0
 11
20.56605781061187
 21
64.58330583503087
 31
0.0
  0
LINE
  5
187
330
1F
100
AcDbEntity
  8
0
100
AcDbLine
 10
20.56605781061187
 20
64.58330583503087
 30
0.0
 11
20.94633950075272
 21
65.0428128772844
 31
0.0
  0
LINE
  5
188
330
1F
100
AcDbEntity
  8
0
100
AcDbLine
 10
20.94633950075272
 20
65.0428128772844
 30
0.0
 11
21.43527310236238
 21
65.38310462778742
 31
0.0
  0
LINE
  5
189
330
1F
100
AcDbEntity
  8
0
100
AcDbLine
 10
21.43527310236238
 20
65.38310462778742
 30
0.0
 11
22.00871374622556
 21
65.59361770625824
 31
0.0
  0
LINE
  5
18A
330
1F
100
AcDbEntity
  8
0
100
AcDbLine
 10
22.00871374622556
 20
65.59361770625824
 30
0.0
 11
22.64251656312696
 21
65.66378873241518
 31
0.0
  0
LINE
  5
18B
330
1F
100
AcDbEntity
  8
0
100
AcDbLine
 10
22.64251656312696
 20
65.66378873241518
 30
0.0
 11
23.10013728747305
 21
65.62417605635885
 31
0.0
  0
LINE
  5
18C
330
1F
100
AcDbEntity
  8
0
100
AcDbLine
 10
23.10013728747305
 20
65.62417605635885
 30
0.0
 11
23.50116847459578
 21
65.50533802818983
 31
0.0
  0
LINE
  5
18D
330
1F
100
AcDbEntity
  8
0
100
AcDbLine
 10
23.50116847459578
 20
65.50533802818983
 30
0.0
 11
23.84561012449518
 21
65.30727464790814
 31
0.0
  0
LINE
  5
18E
330
1F
100
AcDbEntity
  8
0
100
AcDbLine
 10
23.84561012449518
 20
65.30727464790814
 30
0.0
 11
24.13346223717123
 21
65.02998591551378
 31
0.0
  0
LINE
  5
18F
330
1F
100
AcDbEntity
  8
0
100
AcDbLine
 10
24.13346223717123
 20
65.02998591551378
 30
0.0
 11
24.36057491322757
 21
64.6779989939846
 31
0.0
  0
LINE
  5
190
330
1F
100
AcDbEntity
  8
0
100
AcDbLine
 10
24.36057491322757
 20
64.6779989939846
 30
0.0
 11
24.52279825326781
 21
64.25584104629849
 31
0.0
  0
LINE
  5
191
330
1F
100
AcDbEntity
  8
0
100
AcDbLine
 10
24.52279825326781
 20
64.25584104629849
 30
0.0
 11
24.62013225729196
 21
63.76351207245543
 31
0.0
  0
LINE
  5
192
330
1F
100
AcDbEntity
  8
0
100
AcDbLine
 10
24.62013225729196
 20
63.76351207245543
 30
0.0
 11
24.65257692530001
 21
63.20101207245543
 31
0.0
  0
LINE
  5
193
330
1F
100
AcDbEntity
  8
0
100
AcDbLine
 10
24.65257692530001
 20
63.20101207245543
 30
0.0
 11
24.65257692530001
 21
59.33179678070493
 31
0.0
  0
LINE
  5
194
330
1F
100
AcDbEntity
  8
0
100
AcDbLine
 10
24.65257692530001
 20
59.33179678070493
 30
0.0
 11
22.08718457117526
 21
59.33179678070493
 31
0.0
  0
LINE
  5
195
330
1F
100
AcDbEntity
  8
0
100
AcDbLine
 10
-17.60094420146056
 20
44.64568008050372
 30
0.0
 11
-17.71638685739617
 21
43.8383360161174
 31
0.0
  0
LINE
  5
196
330
1F
100
AcDbEntity
  8
0
100
AcDbLine
 10
-17.71638685739617
 20
43.8383360161174
 30
0.0
 11
-18.06271482520301
 21
43.14266197185181
 31
0.0
  0
LINE
  5
197
330
1F
100
AcDbEntity
  8
0
100
AcDbLine
 10
-18.06271482520301
 20
43.14266197185181
 30
0.0
 11
-18.61729228999175
 21
42.58431187124818
 31
0.0
  0
LINE
  5
198
330
1F
100
AcDbEntity
  8
0
100
AcDbLine
 10
-18.61729228999175
 20
42.58431187124818
 30
0.0
 11
-19.35748343687304
 21
42.18893963784777
 31
0.0
  0
LINE
  5
199
330
1F
100
AcDbEntity
  8
0
100
AcDbLine
 10
-19.35748343687304
 20
42.18893963784777
 30
0.0
 11
-20.27498846705412
 21
41.95352716299869
 31
0.0
  0
LINE
  5
19A
330
1F
100
AcDbEntity
  8
0
100
AcDbLine
 10
-20.27498846705412
 20
41.95352716299869
 30
0.0
 11
-21.36150758174225
 21
41.87505633804899
 31
0.0
  0
LINE
  5
19B
330
1F
100
AcDbEntity
  8
0
100
AcDbLine
 10
-21.36150758174225
 20
41.87505633804899
 30
0.0
 11
-22.66231241071609
 21
41.98974446682163
 31
0.0
  0
LINE
  5
19C
330
1F
100
AcDbEntity
  8
0
100
AcDbLine
 10
-22.66231241071609
 20
41.98974446682163
 30
0.0
 11
-23.8484291109173
 21
42.33380885313953
 31
0.0
  0
LINE
  5
19D
330
1F
100
AcDbEntity
  8
0
100
AcDbLine
 10
-23.8484291109173
 20
42.33380885313953
 30
0.0
 11
-23.8484291109173
 21
44.70604225354194
 31
0.0
  0
LINE
  5
19E
330
1F
100
AcDbEntity
  8
0
100
AcDbLine
 10
-23.8484291109173
 20
44.70604225354194
 30
0.0
 11
-23.27649752138008
 21
44.34613279680151
 31
0.0
  0
LINE
  5
19F
330
1F
100
AcDbEntity
  8
0
100
AcDbLine
 10
-23.27649752138008
 20
44.34613279680151
 30
0.0
 11
-22.64722186745653
 21
44.0631851106848
 31
0.0
  0
LINE
  5
1A0
330
1F
100
AcDbEntity
  8
0
100
AcDbLine
 10
-22.64722186745653
 20
44.0631851106848
 30
0.0
 11
-22.01190999622917
 21
43.87983501008118
 31
0.0
  0
LINE
  5
1A1
330
1F
100
AcDbEntity
  8
0
100
AcDbLine
 10
-22.01190999622917
 20
43.87983501008118
 30
0.0
 11
-21.42186975478048
 21
43.81871830987998
 31
0.0
  0
LINE
  5
1A2
330
1F
100
AcDbEntity
  8
0
100
AcDbLine
 10
-21.42186975478048
 20
43.81871830987998
 30
0.0
 11
-21.04158806463963
 21
43.85719919519185
 31
0.0
  0
LINE
  5
1A3
330
1F
100
AcDbEntity
  8
0
100
AcDbLine
 10
-21.04158806463963
 20
43.85719919519185
 30
0.0
 11
-20.75788585135995
 21
43.97264185112746
 31
0.0
  0
LINE
  5
1A4
330
1F
100
AcDbEntity
  8
0
100
AcDbLine
 10
-20.75788585135995
 20
43.97264185112746
 30
0.0
 11
-20.58132649522314
 21
44.1620281690349
 31
0.0
  0
LINE
  5
1A5
330
1F
100
AcDbEntity
  8
0
100
AcDbLine
 10
-20.58132649522314
 20
44.1620281690349
 30
0.0
 11
-20.52247337651086
 21
44.42234004026227
 31
0.0
  0
LINE
  5
1A6
330
1F
100
AcDbEntity
  8
0
100
AcDbLine
 10
-20.52247337651086
 20
44.42234004026227
 30
0.0
 11
-20.64017961393541
 21
44.79356740444738
 31
0.0
  0
LINE
  5
1A7
330
1F
100
AcDbEntity
  8
0
100
AcDbLine
 10
-20.64017961393541
 20
44.79356740444738
 30
0.0
 11
-20.99631643486096
 21
45.09236016098662
 31
0.0
  0
LINE
  5
1A8
330
1F
100
AcDbEntity
  8
0
100
AcDbLine
 10
-20.99631643486096
 20
45.09236016098662
 30
0.0
 11
-21.88062226987102
 21
45.47264185112746
 31
0.0
  0
LINE
  5
1A9
330
1F
100
AcDbEntity
  8
0
100
AcDbLine
 10
-21.88062226987102
 20
45.47264185112746
 30
0.0
 11
-22.79435466423722
 21
45.93592152919587
 31
0.0
  0
LINE
  5
1AA
330
1F
100
AcDbEntity
  8
0
100
AcDbLine
 10
-22.79435466423722
 20
45.93592152919587
 30
0.0
 11
-23.44702066021307
 21
46.52294366199265
 31
0.0
  0
LINE
  5
1AB
330
1F
100
AcDbEntity
  8
0
100
AcDbLine
 10
-23.44702066021307
 20
46.52294366199265
 30
0.0
 11
-23.67545375880463
 21
46.86285814891418
 31
0.0
  0
LINE
  5
1AC
330
1F
100
AcDbEntity
  8
0
100
AcDbLine
 10
-23.67545375880463
 20
46.86285814891418
 30
0.0
 11
-23.83862025779859
 21
47.2337082495178
 31
0.0
  0
LINE
  5
1AD
330
1F
100
AcDbEntity
  8
0
100
AcDbLine
 10
-23.83862025779859
 20
47.2337082495178
 30
0.0
 11
-23.93652015719497
 21
47.63549396380351
 31
0.0
  0
LINE
  5
1AE
330
1F
100
AcDbEntity
  8
0
100
AcDbLine
 10
-23.93652015719497
 20
47.63549396380351
 30
0.0
 11
-23.96915345699376
 21
48.06821529177132
 31
0.0
  0
LINE
  5
1AF
330
1F
100
AcDbEntity
  8
0
100
AcDbLine
 10
-23.96915345699376
 20
48.06821529177132
 30
0.0
 11
-23.90954581111851
 21
48.66448038231458
 31
0.0
  0
LINE
  5
1B0
330
1F
100
AcDbEntity
  8
0
100
AcDbLine
 10
-23.90954581111851
 20
48.66448038231458
 30
0.0
 11
-23.73072287349275
 21
49.19774245474919
 31
0.0
  0
LINE
  5
1B1
330
1F
100
AcDbEntity
  8
0
100
AcDbLine
 10
-23.73072287349275
 20
49.19774245474919
 30
0.0
 11
-23.4326846441165
 21
49.66800150907514
 31
0.0
  0
LINE
  5
1B2
330
1F
100
AcDbEntity
  8
0
100
AcDbLine
 10
-23.4326846441165
 20
49.66800150907514
 30
0.0
 11
-23.01543112298974
 21
50.07525754529244
 31
0.0
  0
LINE
  5
1B3
330
1F
100
AcDbEntity
  8
0
100
AcDbLine
 10
-23.01543112298974
 20
50.07525754529244
 30
0.0
 11
-22.49782548918692
 21
50.40404275656005
 31
0.0
  0
LINE
  5
1B4
330
1F
100
AcDbEntity
  8
0
100
AcDbLine
 10
-22.49782548918692
 20
50.40404275656005
 30
0.0
 11
-21.89873092178249
 21
50.63888933603692
 31
0.0
  0
LINE
  5
1B5
330
1F
100
AcDbEntity
  8
0
100
AcDbLine
 10
-21.89873092178249
 20
50.63888933603692
 30
0.0
 11
-21.21814742077646
 21
50.77979728372303
 31
0.0
  0
LINE
  5
1B6
330
1F
100
AcDbEntity
  8
0
100
AcDbLine
 10
-21.21814742077646
 20
50.77979728372303
 30
0.0
 11
-20.45607498616881
 21
50.82676659961841
 31
0.0
  0
LINE
  5
1B7
330
1F
100
AcDbEntity
  8
0
100
AcDbLine
 10
-20.45607498616881
 20
50.82676659961841
 30
0.0
 11
-19.62307699824125
 21
50.79054929579546
 31
0.0
  0
LINE
  5
1B8
330
1F
100
AcDbEntity
  8
0
100
AcDbLine
 10
-19.62307699824125
 20
50.79054929579546
 30
0.0
 11
-18.93193011695352
 21
50.70000603623812
 31
0.0
  0
LINE
  5
1B9
330
1F
100
AcDbEntity
  8
0
100
AcDbLine
 10
-18.93193011695352
 20
50.70000603623812
 30
0.0
 11
-18.0596967165511
 21
50.49477464790814
 31
0.0
  0
LINE
  5
1BA
330
1F
100
AcDbEntity
  8
0
100
AcDbLine
 10
-18.0596967165511
 20
50.49477464790814
 30
0.0
 11
-18.0596967165511
 21
48.29155533201277
 31
0.0
  0
LINE
  5
1BB
330
1F
100
AcDbEntity
  8
0
100
AcDbLine
 10
-18.0596967165511
 20
48.29155533201277
 30
0.0
 11
-19.14319772258732
 21
48.73974446682162
 31
0.0
  0
LINE
  5
1BC
330
1F
100
AcDbEntity
  8
0
100
AcDbLine
 10
-19.14319772258732
 20
48.73974446682162
 30
0.0
 11
-19.67815748113863
 21
48.85179175052384
 31
0.0
  0
LINE
  5
1BD
330
1F
100
AcDbEntity
  8
0
100
AcDbLine
 10
-19.67815748113863
 20
48.85179175052384
 30
0.0
 11
-20.20859007671207
 21
48.88914084509124
 31
0.0
  0
LINE
  5
1BE
330
1F
100
AcDbEntity
  8
0
100
AcDbLine
 10
-20.20859007671207
 20
48.88914084509124
 30
0.0
 11
-20.60094420146056
 21
48.84839637829044
 31
0.0
  0
LINE
  5
1BF
330
1F
100
AcDbEntity
  8
0
100
AcDbLine
 10
-20.60094420146056
 20
48.84839637829044
 30
0.0
 11
-20.90879128395553
 21
48.72616297788802
 31
0.0
  0
LINE
  5
1C0
330
1F
100
AcDbEntity
  8
0
100
AcDbLine
 10
-20.90879128395553
 20
48.72616297788802
 30
0.0
 11
-21.10798645498168
 21
48.53300402416569
 31
0.0
  0
LINE
  5
1C1
330
1F
100
AcDbEntity
  8
0
100
AcDbLine
 10
-21.10798645498168
 20
48.53300402416569
 30
0.0
 11
-21.17438484532374
 21
48.27948289740513
 31
0.0
  0
LINE
  5
1C2
330
1F
100
AcDbEntity
  8
0
100
AcDbLine
 10
-21.17438484532374
 20
48.27948289740513
 30
0.0
 11
-21.12081341675231
 21
48.0312434607854
 31
0.0
  0
LINE
  5
1C3
330
1F
100
AcDbEntity
  8
0
100
AcDbLine
 10
-21.12081341675231
 20
48.0312434607854
 30
0.0
 11
-20.96009913103802
 21
47.82978470827032
 31
0.0
  0
LINE
  5
1C4
330
1F
100
AcDbEntity
  8
0
100
AcDbLine
 10
-20.96009913103802
 20
47.82978470827032
 30
0.0
 11
-20.06372086142032
 21
47.36801408452786
 31
0.0
  0
LINE
  5
1C5
330
1F
100
AcDbEntity
  8
0
100
AcDbLine
 10
-20.06372086142032
 20
47.36801408452786
 30
0.0
 11
-18.91457599220503
 21
46.79910060364255
 31
0.0
  0
LINE
  5
1C6
330
1F
100
AcDbEntity
  8
0
100
AcDbLine
 10
-18.91457599220503
 20
46.79910060364255
 30
0.0
 11
-18.4877022497503
 21
46.49540342054396
 31
0.0
  0
LINE
  5
1C7
330
1F
100
AcDbEntity
  8
0
100
AcDbLine
 10
-18.4877022497503
 20
46.49540342054396
 30
0.0
 11
-18.15929430206418
 21
46.17887927567475
 31
0.0
  0
LINE
  5
1C8
330
1F
100
AcDbEntity
  8
0
100
AcDbLine
 10
-18.15929430206418
 20
46.17887927567475
 30
0.0
 11
-17.9150161330501
 21
45.84085110666065
 31
0.0
  0
LINE
  5
1C9
330
1F
100
AcDbEntity
  8
0
100
AcDbLine
 10
-17.9150161330501
 20
45.84085110666065
 30
0.0
 11
-17.74053172661147
 21
45.47264185112746
 31
0.0
  0
LINE
  5
1CA
330
1F
100
AcDbEntity
  8
0
100
AcDbLine
 10
-17.74053172661147
 20
45.47264185112746
 30
0.0
 11
-17.63584108274829
 21
45.07425150907515
 31
0.0
  0
LINE
  5
1CB
330
1F
100
AcDbEntity
  8
0
100
AcDbLine
 10
-17.63584108274829
 20
45.07425150907515
 30
0.0
 11
-17.60094420146056
 21
44.64568008050372
 31
0.0
  0
LINE
  5
1CC
330
1F
100
AcDbEntity
  8
0
100
AcDbLine
 10
-12.4279059720843
 20
42.11046881289808
 30
0.0
 11
-13.00134661594748
 21
41.95050905434677
 31
0.0
  0
LINE
  5
1CD
330
1F
100
AcDbEntity
  8
0
100
AcDbLine
 10
-13.00134661594748
 20
41.95050905434677
 30
0.0
 11
-13.96110516725533
 21
41.87505633804899
 31
0.0
  0
LINE
  5
1CE
330
1F
100
AcDbEntity
  8
0
100
AcDbLine
 10
-13.96110516725533
 20
41.87505633804899
 30
0.0
 11
-14.46909057973018
 21
41.9120281690349
 31
0.0
  0
LINE
  5
1CF
330
1F
100
AcDbEntity
  8
0
100
AcDbLine
 10
-14.46909057973018
 20
41.9120281690349
 30
0.0
 11
-14.91860013707424
 21
42.02294366199265
 31
0.0
  0
LINE
  5
1D0
330
1F
100
AcDbEntity
  8
0
100
AcDbLine
 10
-14.91860013707424
 20
42.02294366199265
 30
0.0
 11
-15.30963383928752
 21
42.20780281692223
 31
0.0
  0
LINE
  5
1D1
330
1F
100
AcDbEntity
  8
0
100
AcDbLine
 10
-15.30963383928752
 20
42.20780281692223
 30
0.0
 11
-15.64219168637002
 21
42.46660563382363
 31
0.0
  0
LINE
  5
1D2
330
1F
100
AcDbEntity
  8
0
100
AcDbLine
 10
-15.64219168637002
 20
42.46660563382363
 30
0.0
 11
-15.90759661594748
 21
42.79369315897454
 31
0.0
  0
LINE
  5
1D3
330
1F
100
AcDbEntity
  8
0
100
AcDbLine
 10
-15.90759661594748
 20
42.79369315897454
 30
0.0
 11
-16.09717156564567
 21
43.18340643865261
 31
0.0
  0
LINE
  5
1D4
330
1F
100
AcDbEntity
  8
0
100
AcDbLine
 10
-16.09717156564567
 20
43.18340643865261
 30
0.0
 11
-16.21091653546458
 21
43.63574547285784
 31
0.0
  0
LINE
  5
1D5
330
1F
100
AcDbEntity
  8
0
100
AcDbLine
 10
-16.21091653546458
 20
43.63574547285784
 30
0.0
 11
-16.24883152540422
 21
44.15071026159023
 31
0.0
  0
LINE
  5
1D6
330
1F
100
AcDbEntity
  8
0
100
AcDbLine
 10
-16.24883152540422
 20
44.15071026159023
 30
0.0
 11
-16.24883152540422
 21
46.42636418513148
 31
0.0
  0
LINE
  5
1D7
330
1F
100
AcDbEntity
  8
0
100
AcDbLine
 10
-16.24883152540422
 20
46.42636418513148
 30
0.0
 11
-17.22066251131971
 21
46.42636418513148
 31
0.0
  0
LINE
  5
1D8
330
1F
100
AcDbEntity
  8
0
100
AcDbLine
 10
-17.22066251131971
 20
46.42636418513148
 30
0.0
 11
-17.22066251131971
 21
48.20704828975925
 31
0.0
  0
LINE
  5
1D9
330
1F
100
AcDbEntity
  8
0
100
AcDbLine
 10
-17.22066251131971
 20
48.20704828975925
 30
0.0
 11
-16.24883152540422
 21
48.20704828975925
 31
0.0
  0
LINE
  5
1DA
330
1F
100
AcDbEntity
  8
0
100
AcDbLine
 10
-16.24883152540422
 20
48.20704828975925
 30
0.0
 11
-16.24883152540422
 21
49.42032796782766
 31
0.0
  0
LINE
  5
1DB
330
1F
100
AcDbEntity
  8
0
100
AcDbLine
 10
-16.24883152540422
 20
49.42032796782766
 30
0.0
 11
-13.71362025779859
 21
50.12052917507112
 31
0.0
  0
LINE
  5
1DC
330
1F
100
AcDbEntity
  8
0
100
AcDbLine
 10
-13.71362025779859
 20
50.12052917507112
 30
0.0
 11
-13.71362025779859
 21
48.20704828975925
 31
0.0
  0
LINE
  5
1DD
330
1F
100
AcDbEntity
  8
0
100
AcDbLine
 10
-13.71362025779859
 20
48.20704828975925
 30
0.0
 11
-12.4279059720843
 21
48.20704828975925
 31
0.0
  0
LINE
  5
1DE
330
1F
100
AcDbEntity
  8
0
100
AcDbLine
 10
-12.4279059720843
 20
48.20704828975925
 30
0.0
 11
-12.4279059720843
 21
46.42636418513148
 31
0.0
  0
LINE
  5
1DF
330
1F
100
AcDbEntity
  8
0
100
AcDbLine
 10
-12.4279059720843
 20
46.42636418513148
 30
0.0
 11
-13.71362025779859
 21
46.42636418513148
 31
0.0
  0
LINE
  5
1E0
330
1F
100
AcDbEntity
  8
0
100
AcDbLine
 10
-13.71362025779859
 20
46.42636418513148
 30
0.0
 11
-13.71362025779859
 21
44.57324547285784
 31
0.0
  0
LINE
  5
1E1
330
1F
100
AcDbEntity
  8
0
100
AcDbLine
 10
-13.71362025779859
 20
44.57324547285784
 30
0.0
 11
-13.67325305457927
 21
44.2167313883508
 31
0.0
  0
LINE
  5
1E2
330
1F
100
AcDbEntity
  8
0
100
AcDbLine
 10
-13.67325305457927
 20
44.2167313883508
 30
0.0
 11
-13.55215144492132
 21
43.96207847084577
 31
0.0
  0
LINE
  5
1E3
330
1F
100
AcDbEntity
  8
0
100
AcDbLine
 10
-13.55215144492132
 20
43.96207847084577
 30
0.0
 11
-13.35031542882474
 21
43.80928672034275
 31
0.0
  0
LINE
  5
1E4
330
1F
100
AcDbEntity
  8
0
100
AcDbLine
 10
-13.35031542882474
 20
43.80928672034275
 30
0.0
 11
-13.06774500628953
 21
43.75835613684175
 31
0.0
  0
LINE
  5
1E5
330
1F
100
AcDbEntity
  8
0
100
AcDbLine
 10
-13.06774500628953
 20
43.75835613684175
 30
0.0
 11
-12.4279059720843
 21
43.89115291752585
 31
0.0
  0
LINE
  5
1E6
330
1F
100
AcDbEntity
  8
0
100
AcDbLine
 10
-12.4279059720843
 20
43.89115291752585
 30
0.0
 11
-12.4279059720843
 21
42.11046881289808
 31
0.0
  0
LINE
  5
1E7
330
1F
100
AcDbEntity
  8
0
100
AcDbLine
 10
-6.97720174673219
 20
46.00382897386388
 30
0.0
 11
-7.369555871480681
 21
46.12455331994033
 31
0.0
  0
LINE
  5
1E8
330
1F
100
AcDbEntity
  8
0
100
AcDbLine
 10
-7.369555871480681
 20
46.12455331994033
 30
0.0
 11
-7.780018648140639
 21
46.17887927567475
 31
0.0
  0
LINE
  5
1E9
330
1F
100
AcDbEntity
  8
0
100
AcDbLine
 10
-7.780018648140639
 20
46.17887927567475
 30
0.0
 11
-8.337236957999798
 21
46.08682696179145
 31
0.0
  0
LINE
  5
1EA
330
1F
100
AcDbEntity
  8
0
100
AcDbLine
 10
-8.337236957999798
 20
46.08682696179145
 30
0.0
 11
-8.735250036470621
 21
45.81067002014154
 31
0.0
  0
LINE
  5
1EB
330
1F
100
AcDbEntity
  8
0
100
AcDbLine
 10
-8.735250036470621
 20
45.81067002014154
 30
0.0
 11
-8.974057883553117
 21
45.35040845072505
 31
0.0
  0
LINE
  5
1EC
330
1F
100
AcDbEntity
  8
0
100
AcDbLine
 10
-8.974057883553117
 20
45.35040845072505
 30
0.0
 11
-9.05366049924728
 21
44.70604225354194
 31
0.0
  0
LINE
  5
1ED
330
1F
100
AcDbEntity
  8
0
100
AcDbLine
 10
-9.05366049924728
 20
44.70604225354194
 30
0.0
 11
-9.05366049924728
 21
42.02596177064456
 31
0.0
  0
LINE
  5
1EE
330
1F
100
AcDbEntity
  8
0
100
AcDbLine
 10
-9.05366049924728
 20
42.02596177064456
 30
0.0
 11
-11.62508907067585
 21
42.02596177064456
 31
0.0
  0
LINE
  5
1EF
330
1F
100
AcDbEntity
  8
0
100
AcDbLine
 10
-11.62508907067585
 20
42.02596177064456
 30
0.0
 11
-11.62508907067585
 21
48.20704828975925
 31
0.0
  0
LINE
  5
1F0
330
1F
100
AcDbEntity
  8
0
100
AcDbLine
 10
-11.62508907067585
 20
48.20704828975925
 30
0.0
 11
-9.05366049924728
 21
48.20704828975925
 31
0.0
  0
LINE
  5
1F1
330
1F
100
AcDbEntity
  8
0
100
AcDbLine
 10
-9.05366049924728
 20
48.20704828975925
 30
0.0
 11
-9.05366049924728
 21
47.12052917507112
 31
0.0
  0
LINE
  5
1F2
330
1F
100
AcDbEntity
  8
0
100
AcDbLine
 10
-9.02951563003199
 20
47.12052917507112
 30
0.0
 11
-8.744304362426353
 21
47.635871227385
 31
0.0
  0
LINE
  5
1F3
330
1F
100
AcDbEntity
  8
0
100
AcDbLine
 10
-8.744304362426353
 20
47.635871227385
 30
0.0
 11
-8.359495509307642
 21
48.010871227385
 31
0.0
  0
LINE
  5
1F4
330
1F
100
AcDbEntity
  8
0
100
AcDbLine
 10
-8.359495509307642
 20
48.010871227385
 30
0.0
 11
-7.888670559609454
 21
48.2394929577673
 31
0.0
  0
LINE
  5
1F5
330
1F
100
AcDbEntity
  8
0
100
AcDbLine
 10
-7.888670559609454
 20
48.2394929577673
 30
0.0
 11
-7.345411002265388
 21
48.31570020122806
 31
0.0
  0
LINE
  5
1F6
330
1F
100
AcDbEntity
  8
0
100
AcDbLine
 10
-7.345411002265388
 20
48.31570020122806
 30
0.0
 11
-6.97720174673219
 21
48.24326559358219
 31
0.0
  0
LINE
  5
1F7
330
1F
100
AcDbEntity
  8
0
100
AcDbLine
 10
-6.97720174673219
 20
48.24326559358219
 30
0.0
 11
-6.97720174673219
 21
46.00382897386388
 31
0.0
  0
LINE
  5
1F8
330
1F
100
AcDbEntity
  8
0
100
AcDbLine
 10
-2.80617558979054
 20
42.02596177064456
 30
0.0
 11
-2.80617558979054
 21
42.96761167004094
 31
0.0
  0
LINE
  5
1F9
330
1F
100
AcDbEntity
  8
0
100
AcDbLine
 10
-2.830320459005832
 20
42.96761167004094
 30
0.0
 11
-3.178912008301607
 21
42.48961871229446
 31
0.0
  0
LINE
  5
1FA
330
1F
100
AcDbEntity
  8
0
100
AcDbLine
 10
-3.178912008301607
 20
42.48961871229446
 30
0.0
 11
-3.608992491198991
 21
42.14819517104698
 31
0.0
  0
LINE
  5
1FB
330
1F
100
AcDbEntity
  8
0
100
AcDbLine
 10
-3.608992491198991
 20
42.14819517104698
 30
0.0
 11
-4.120561907697985
 21
41.94334104629849
 31
0.0
  0
LINE
  5
1FC
330
1F
100
AcDbEntity
  8
0
100
AcDbLine
 10
-4.120561907697985
 20
41.94334104629849
 30
0.0
 11
-4.713620257798587
 21
41.87505633804899
 31
0.0
  0
LINE
  5
1FD
330
1F
100
AcDbEntity
  8
0
100
AcDbLine
 10
-4.713620257798587
 20
41.87505633804899
 30
0.0
 11
-5.127478406691947
 21
41.90750100605704
 31
0.0
  0
LINE
  5
1FE
330
1F
100
AcDbEntity
  8
0
100
AcDbLine
 10
-5.127478406691947
 20
41.90750100605704
 30
0.0
 11
-5.493801344317704
 21
42.00483501008118
 31
0.0
  0
LINE
  5
1FF
330
1F
100
AcDbEntity
  8
0
100
AcDbLine
 10
-5.493801344317704
 20
42.00483501008118
 30
0.0
 11
-5.812589070675854
 21
42.16705835012142
 31
0.0
  0
LINE
  5
200
330
1F
100
AcDbEntity
  8
0
100
AcDbLine
 10
-5.812589070675854
 20
42.16705835012142
 30
0.0
 11
-6.083841585766393
 21
42.39417102617776
 31
0.0
  0
LINE
  5
201
330
1F
100
AcDbEntity
  8
0
100
AcDbLine
 10
-6.083841585766393
 20
42.39417102617776
 30
0.0
 11
-6.300390881541042
 21
42.67560965796851
 31
0.0
  0
LINE
  5
202
330
1F
100
AcDbEntity
  8
0
100
AcDbLine
 10
-6.300390881541042
 20
42.67560965796851
 30
0.0
 11
-6.455068949951507
 21
43.00081086521197
 31
0.0
  0
LINE
  5
203
330
1F
100
AcDbEntity
  8
0
100
AcDbLine
 10
-6.455068949951507
 20
43.00081086521197
 30
0.0
 11
-6.547875790997783
 21
43.36977464790814
 31
0.0
  0
LINE
  5
204
330
1F
100
AcDbEntity
  8
0
100
AcDbLine
 10
-6.547875790997783
 20
43.36977464790814
 30
0.0
 11
-6.578811404679875
 21
43.78250100605703
 31
0.0
  0
LINE
  5
205
330
1F
100
AcDbEntity
  8
0
100
AcDbLine
 10
-6.578811404679875
 20
43.78250100605703
 30
0.0
 11
-6.543820207496777
 21
44.21427917507112
 31
0.0
  0
LINE
  5
206
330
1F
100
AcDbEntity
  8
0
100
AcDbLine
 10
-6.543820207496777
 20
44.21427917507112
 30
0.0
 11
-6.43884661594748
 21
44.59814486923611
 31
0.0
  0
LINE
  5
207
330
1F
100
AcDbEntity
  8
0
100
AcDbLine
 10
-6.43884661594748
 20
44.59814486923611
 30
0.0
 11
-6.263890630031987
 21
44.93409808855201
 31
0.0
  0
LINE
  5
208
330
1F
100
AcDbEntity
  8
0
100
AcDbLine
 10
-6.263890630031987
 20
44.93409808855201
 30
0.0
 11
-6.018952249750296
 21
45.2221388330188
 31
0.0
  0
LINE
  5
209
330
1F
100
AcDbEntity
  8
0
100
AcDbLine
 10
-6.018952249750296
 20
45.2221388330188
 30
0.0
 11
-5.704031475102409
 21
45.46226710263651
 31
0.0
  0
LINE
  5
20A
330
1F
100
AcDbEntity
  8
0
100
AcDbLine
 10
-5.704031475102409
 20
45.46226710263651
 30
0.0
 11
-5.319128306088323
 21
45.65448289740512
 31
0.0
  0
LINE
  5
20B
330
1F
100
AcDbEntity
  8
0
100
AcDbLine
 10
-5.319128306088323
 20
45.65448289740512
 30
0.0
 11
-4.339374784961564
 21
45.89517706239506
 31
0.0
  0
LINE
  5
20C
330
1F
100
AcDbEntity
  8
0
100
AcDbLine
 10
-4.339374784961564
 20
45.89517706239506
 30
0.0
 11
-2.80617558979054
 21
46.09437223342122
 31
0.0
  0
LINE
  5
20D
330
1F
100
AcDbEntity
  8
0
100
AcDbLine
 10
-2.80617558979054
 20
46.09437223342122
 30
0.0
 11
-2.874083034458546
 21
46.36902012074516
 31
0.0
  0
LINE
  5
20E
330
1F
100
AcDbEntity
  8
0
100
AcDbLine
 10
-2.874083034458546
 20
46.36902012074516
 30
0.0
 11
-3.077805368462573
 21
46.5893420523347
 31
0.0
  0
LINE
  5
20F
330
1F
100
AcDbEntity
  8
0
100
AcDbLine
 10
-3.077805368462573
 20
46.5893420523347
 30
0.0
 11
-3.396215831239232
 21
46.73421126762645
 31
0.0
  0
LINE
  5
210
330
1F
100
AcDbEntity
  8
0
100
AcDbLine
 10
-3.396215831239232
 20
46.73421126762645
 30
0.0
 11
-3.808187662225148
 21
46.78250100605703
 31
0.0
  0
LINE
  5
211
330
1F
100
AcDbEntity
  8
0
100
AcDbLine
 10
-3.808187662225148
 20
46.78250100605703
 30
0.0
 11
-4.334470358402211
 21
46.74552917507112
 31
0.0
  0
LINE
  5
212
330
1F
100
AcDbEntity
  8
0
100
AcDbLine
 10
-4.334470358402211
 20
46.74552917507112
 30
0.0
 11
-4.875089070675852
 21
46.63461368211338
 31
0.0
  0
LINE
  5
213
330
1F
100
AcDbEntity
  8
0
100
AcDbLine
 10
-4.875089070675852
 20
46.63461368211338
 30
0.0
 11
-5.999334543512873
 21
46.19095171028239
 31
0.0
  0
LINE
  5
214
330
1F
100
AcDbEntity
  8
0
100
AcDbLine
 10
-5.999334543512873
 20
46.19095171028239
 30
0.0
 11
-5.999334543512873
 21
47.86298390344134
 31
0.0
  0
LINE
  5
215
330
1F
100
AcDbEntity
  8
0
100
AcDbLine
 10
-5.999334543512873
 20
47.86298390344134
 30
0.0
 11
-5.43494822560543
 21
48.06067002014154
 31
0.0
  0
LINE
  5
216
330
1F
100
AcDbEntity
  8
0
100
AcDbLine
 10
-5.43494822560543
 20
48.06067002014154
 30
0.0
 11
-4.743801344317702
 21
48.2191207243669
 31
0.0
  0
LINE
  5
217
330
1F
100
AcDbEntity
  8
0
100
AcDbLine
 10
-4.743801344317702
 20
48.2191207243669
 30
0.0
 11
-3.452050841299595
 21
48.35795372235482
 31
0.0
  0
LINE
  5
218
330
1F
100
AcDbEntity
  8
0
100
AcDbLine
 10
-3.452050841299595
 20
48.35795372235482
 30
0.0
 11
-2.718461807094362
 21
48.3158888330188
 31
0.0
  0
LINE
  5
219
330
1F
100
AcDbEntity
  8
0
100
AcDbLine
 10
-2.718461807094362
 20
48.3158888330188
 30
0.0
 11
-2.093147420776455
 21
48.18969416501076
 31
0.0
  0
LINE
  5
21A
330
1F
100
AcDbEntity
  8
0
100
AcDbLine
 10
-2.093147420776455
 20
48.18969416501076
 30
0.0
 11
-1.576107682345873
 21
47.97936971833068
 31
0.0
  0
LINE
  5
21B
330
1F
100
AcDbEntity
  8
0
100
AcDbLine
 10
-1.576107682345873
 20
47.97936971833068
 30
0.0
 11
-1.167342591802611
 21
47.68491549297856
 31
0.0
  0
LINE
  5
21C
330
1F
100
AcDbEntity
  8
0
100
AcDbLine
 10
-1.167342591802611
 20
47.68491549297856
 30
0.0
 11
-0.8570432960279617
 21
47.29199547285784
 31
0.0
  0
LINE
  5
21D
330
1F
100
AcDbEntity
  8
0
100
AcDbLine
 10
-0.8570432960279617
 20
47.29199547285784
 30
0.0
 11
-0.6354009419032122
 21
46.78627364187192
 31
0.0
  0
LINE
  5
21E
330
1F
100
AcDbEntity
  8
0
100
AcDbLine
 10
-0.6354009419032122
 20
46.78627364187192
 30
0.0
 11
-0.5024155294283653
 21
46.16775000002082
 31
0.0
  0
LINE
  5
21F
330
1F
100
AcDbEntity
  8
0
100
AcDbLine
 10
-0.5024155294283653
 20
46.16775000002082
 30
0.0
 11
-0.4580870586034154
 21
45.43642454730452
 31
0.0
  0
LINE
  5
220
330
1F
100
AcDbEntity
  8
0
100
AcDbLine
 10
-0.4580870586034154
 20
45.43642454730452
 30
0.0
 11
-0.4580870586034154
 21
42.02596177064456
 31
0.0
  0
LINE
  5
221
330
1F
100
AcDbEntity
  8
0
100
AcDbLine
 10
-0.4580870586034154
 20
42.02596177064456
 30
0.0
 11
-2.80617558979054
 21
42.02596177064456
 31
0.0
  0
LINE
  5
222
330
1F
100
AcDbEntity
  8
0
100
AcDbLine
 10
-4.32730235035392
 20
44.12656539237494
 30
0.0
 11
-4.287312410716091
 21
43.89568008050372
 31
0.0
  0
LINE
  5
223
330
1F
100
AcDbEntity
  8
0
100
AcDbLine
 10
-4.287312410716091
 20
43.89568008050372
 30
0.0
 11
-4.167342591802611
 21
43.71006639841116
 31
0.0
  0
LINE
  5
224
330
1F
100
AcDbEntity
  8
0
100
AcDbLine
 10
-4.167342591802611
 20
43.71006639841116
 30
0.0
 11
-3.973429110917301
 21
43.58783299800875
 31
0.0
  0
LINE
  5
225
330
1F
100
AcDbEntity
  8
0
100
AcDbLine
 10
-3.973429110917301
 20
43.58783299800875
 30
0.0
 11
-3.71160818536398
 21
43.54708853120794
 31
0.0
  0
LINE
  5
226
330
1F
100
AcDbEntity
  8
0
100
AcDbLine
 10
-3.71160818536398
 20
43.54708853120794
 30
0.0
 11
-3.345662511319714
 21
43.62254124750573
 31
0.0
  0
LINE
  5
227
330
1F
100
AcDbEntity
  8
0
100
AcDbLine
 10
-3.345662511319714
 20
43.62254124750573
 30
0.0
 11
-3.056678607899193
 21
43.84889939639909
 31
0.0
  0
LINE
  5
228
330
1F
100
AcDbEntity
  8
0
100
AcDbLine
 10
-3.056678607899193
 20
43.84889939639909
 30
0.0
 11
-2.868801344317703
 21
44.19296378271699
 31
0.0
  0
LINE
  5
229
330
1F
100
AcDbEntity
  8
0
100
AcDbLine
 10
-2.868801344317703
 20
44.19296378271699
 30
0.0
 11
-2.80617558979054
 21
44.62153521128842
 31
0.0
  0
LINE
  5
22A
330
1F
100
AcDbEntity
  8
0
100
AcDbLine
 10
-2.80617558979054
 20
44.62153521128842
 30
0.0
 11
-2.80617558979054
 21
44.85694768613752
 31
0.0
  0
LINE
  5
22B
330
1F
100
AcDbEntity
  8
0
100
AcDbLine
 10
-2.80617558979054
 20
44.85694768613752
 30
0.0
 11
-3.675390881541044
 21
44.73622334006106
 31
0.0
  0
LINE
  5
22C
330
1F
100
AcDbEntity
  8
0
100
AcDbLine
 10
-3.675390881541044
 20
44.73622334006106
 30
0.0
 11
-3.960602149146676
 21
44.65737525152988
 31
0.0
  0
LINE
  5
22D
330
1F
100
AcDbEntity
  8
0
100
AcDbLine
 10
-3.960602149146676
 20
44.65737525152988
 30
0.0
 11
-4.164324483150702
 21
44.52948289740512
 31
0.0
  0
LINE
  5
22E
330
1F
100
AcDbEntity
  8
0
100
AcDbLine
 10
-4.164324483150702
 20
44.52948289740512
 30
0.0
 11
-4.286557883553117
 21
44.35254627768681
 31
0.0
  0
LINE
  5
22F
330
1F
100
AcDbEntity
  8
0
100
AcDbLine
 10
-4.286557883553117
 20
44.35254627768681
 30
0.0
 11
-4.32730235035392
 21
44.12656539237494
 31
0.0
  0
LINE
  5
230
330
1F
100
AcDbEntity
  8
0
100
AcDbLine
 10
3.423200667754734
 20
49.87304426561438
 30
0.0
 11
3.324357609404637
 21
49.38109255535281
 31
0.0
  0
LINE
  5
231
330
1F
100
AcDbEntity
  8
0
100
AcDbLine
 10
3.324357609404637
 20
49.38109255535281
 30
0.0
 11
3.027828434354328
 21
48.99175653925623
 31
0.0
  0
LINE
  5
232
330
1F
100
AcDbEntity
  8
0
100
AcDbLine
 10
3.027828434354328
 20
48.99175653925623
 30
0.0
 11
2.569830446426763
 21
48.73823541249567
 31
0.0
  0
LINE
  5
233
330
1F
100
AcDbEntity
  8
0
100
AcDbLine
 10
2.569830446426763
 20
48.73823541249567
 30
0.0
 11
1.986580949444871
 21
48.65372837024215
 31
0.0
  0
LINE
  5
234
330
1F
100
AcDbEntity
  8
0
100
AcDbLine
 10
1.986580949444871
 20
48.65372837024215
 30
0.0
 11
1.415403887070627
 21
48.74125352114758
 31
0.0
  0
LINE
  5
235
330
1F
100
AcDbEntity
  8
0
100
AcDbLine
 10
1.415403887070627
 20
48.74125352114758
 30
0.0
 11
0.9574058991430612
 21
49.00382897386388
 31
0.0
  0
LINE
  5
236
330
1F
100
AcDbEntity
  8
0
100
AcDbLine
 10
0.9574058991430612
 20
49.00382897386388
 30
0.0
 11
0.6563495611148953
 21
49.39618309861237
 31
0.0
  0
LINE
  5
237
330
1F
100
AcDbEntity
  8
0
100
AcDbLine
 10
0.6563495611148953
 20
49.39618309861237
 30
0.0
 11
0.5559974484388381
 21
49.87304426561438
 31
0.0
  0
LINE
  5
238
330
1F
100
AcDbEntity
  8
0
100
AcDbLine
 10
0.5559974484388381
 20
49.87304426561438
 30
0.0
 11
0.6533314524629806
 21
50.35367806843129
 31
0.0
  0
LINE
  5
239
330
1F
100
AcDbEntity
  8
0
100
AcDbLine
 10
0.6533314524629806
 20
50.35367806843129
 30
0.0
 11
0.9453334645354138
 21
50.73320523140914
 31
0.0
  0
LINE
  5
23A
330
1F
100
AcDbEntity
  8
0
100
AcDbLine
 10
0.9453334645354138
 20
50.73320523140914
 30
0.0
 11
1.400313343811065
 21
50.97993561370291
 31
0.0
  0
LINE
  5
23B
330
1F
100
AcDbEntity
  8
0
100
AcDbLine
 10
1.400313343811065
 20
50.97993561370291
 30
0.0
 11
1.986580949444871
 21
51.0621790744675
 31
0.0
  0
LINE
  5
23C
330
1F
100
AcDbEntity
  8
0
100
AcDbLine
 10
1.986580949444871
 20
51.0621790744675
 30
0.0
 11
2.569830446426763
 21
50.97993561370291
 31
0.0
  0
LINE
  5
23D
330
1F
100
AcDbEntity
  8
0
100
AcDbLine
 10
2.569830446426763
 20
50.97993561370291
 30
0.0
 11
3.027828434354328
 21
50.73320523140914
 31
0.0
  0
LINE
  5
23E
330
1F
100
AcDbEntity
  8
0
100
AcDbLine
 10
3.027828434354328
 20
50.73320523140914
 30
0.0
 11
3.324357609404637
 21
50.35367806843129
 31
0.0
  0
LINE
  5
23F
330
1F
100
AcDbEntity
  8
0
100
AcDbLine
 10
3.324357609404637
 20
50.35367806843129
 30
0.0
 11
3.423200667754734
 21
49.87304426561438
 31
0.0
  0
LINE
  5
240
330
1F
100
AcDbEntity
  8
0
100
AcDbLine
 10
0.7008666637305874
 20
42.02596177064456
 30
0.0
 11
0.7008666637305874
 21
48.20704828975925
 31
0.0
  0
LINE
  5
241
330
1F
100
AcDbEntity
  8
0
100
AcDbLine
 10
0.7008666637305874
 20
48.20704828975925
 30
0.0
 11
3.272295235159158
 21
48.20704828975925
 31
0.0
  0
LINE
  5
242
330
1F
100
AcDbEntity
  8
0
100
AcDbLine
 10
3.272295235159158
 20
48.20704828975925
 30
0.0
 11
3.272295235159158
 21
42.02596177064456
 31
0.0
  0
LINE
  5
243
330
1F
100
AcDbEntity
  8
0
100
AcDbLine
 10
3.272295235159158
 20
42.02596177064456
 30
0.0
 11
0.7008666637305874
 21
42.02596177064456
 31
0.0
  0
LINE
  5
244
330
1F
100
AcDbEntity
  8
0
100
AcDbLine
 10
11.20992098968632
 20
42.88914084509124
 30
0.0
 11
11.13993859532012
 21
42.04803169016166
 31
0.0
  0
LINE
  5
245
330
1F
100
AcDbEntity
  8
0
100
AcDbLine
 10
11.13993859532012
 20
42.04803169016166
 30
0.0
 11
10.92999141222153
 21
41.3053883300007
 31
0.0
  0
LINE
  5
246
330
1F
100
AcDbEntity
  8
0
100
AcDbLine
 10
10.92999141222153
 20
41.3053883300007
 30
0.0
 11
10.58007944039055
 21
40.66121076460834
 31
0.0
  0
LINE
  5
247
330
1F
100
AcDbEntity
  8
0
100
AcDbLine
 10
10.58007944039055
 20
40.66121076460834
 30
0.0
 11
10.09020267982717
 21
40.1154989939846
 31
0.0
  0
LINE
  5
248
330
1F
100
AcDbEntity
  8
0
100
AcDbLine
 10
10.09020267982717
 20
40.1154989939846
 30
0.0
 11
9.466020084253731
 21
39.68107997990009
 31
0.0
  0
LINE
  5
249
330
1F
100
AcDbEntity
  8
0
100
AcDbLine
 10
9.466020084253731
 20
39.68107997990009
 30
0.0
 11
8.71319060739256
 21
39.37078068412545
 31
0.0
  0
LINE
  5
24A
330
1F
100
AcDbEntity
  8
0
100
AcDbLine
 10
8.71319060739256
 20
39.37078068412545
 30
0.0
 11
7.83171424924367
 21
39.18460110666066
 31
0.0
  0
LINE
  5
24B
330
1F
100
AcDbEntity
  8
0
100
AcDbLine
 10
7.83171424924367
 20
39.18460110666066
 30
0.0
 11
6.821591009807047
 21
39.12254124750573
 31
0.0
  0
LINE
  5
24C
330
1F
100
AcDbEntity
  8
0
100
AcDbLine
 10
6.821591009807047
 20
39.12254124750573
 30
0.0
 11
5.698854591295979
 21
39.21308450706307
 31
0.0
  0
LINE
  5
24D
330
1F
100
AcDbEntity
  8
0
100
AcDbLine
 10
5.698854591295979
 20
39.21308450706307
 30
0.0
 11
4.920182559102821
 21
39.41831589539305
 31
0.0
  0
LINE
  5
24E
330
1F
100
AcDbEntity
  8
0
100
AcDbLine
 10
4.920182559102821
 20
39.41831589539305
 30
0.0
 11
4.920182559102821
 21
41.43441247486992
 31
0.0
  0
LINE
  5
24F
330
1F
100
AcDbEntity
  8
0
100
AcDbLine
 10
4.920182559102821
 20
41.43441247486992
 30
0.0
 11
5.339699661718516
 21
41.21710865193229
 31
0.0
  0
LINE
  5
250
330
1F
100
AcDbEntity
  8
0
100
AcDbLine
 10
5.339699661718516
 20
41.21710865193229
 30
0.0
 11
5.825615154676259
 21
41.04809456742525
 31
0.0
  0
LINE
  5
251
330
1F
100
AcDbEntity
  8
0
100
AcDbLine
 10
5.825615154676259
 20
41.04809456742525
 30
0.0
 11
6.749156402161169
 21
40.9032253521335
 31
0.0
  0
LINE
  5
252
330
1F
100
AcDbEntity
  8
0
100
AcDbLine
 10
6.749156402161169
 20
40.9032253521335
 30
0.0
 11
7.526319380028377
 21
41.00735010062444
 31
0.0
  0
LINE
  5
253
330
1F
100
AcDbEntity
  8
0
100
AcDbLine
 10
7.526319380028377
 20
41.00735010062444
 30
0.0
 11
8.131450164736624
 21
41.31972434609727
 31
0.0
  0
LINE
  5
254
330
1F
100
AcDbEntity
  8
0
100
AcDbLine
 10
8.131450164736624
 20
41.31972434609727
 30
0.0
 11
8.358562840792967
 21
41.54495070424617
 31
0.0
  0
LINE
  5
255
330
1F
100
AcDbEntity
  8
0
100
AcDbLine
 10
8.358562840792967
 20
41.54495070424617
 30
0.0
 11
8.520786180833205
 21
41.80413078472907
 31
0.0
  0
LINE
  5
256
330
1F
100
AcDbEntity
  8
0
100
AcDbLine
 10
8.520786180833205
 20
41.80413078472907
 30
0.0
 11
8.618120184857347
 21
42.09726458754597
 31
0.0
  0
LINE
  5
257
330
1F
100
AcDbEntity
  8
0
100
AcDbLine
 10
8.618120184857347
 20
42.09726458754597
 30
0.0
 11
8.650564852865395
 21
42.42435211269687
 31
0.0
  0
LINE
  5
258
330
1F
100
AcDbEntity
  8
0
100
AcDbLine
 10
8.650564852865395
 20
42.42435211269687
 30
0.0
 11
8.650564852865395
 21
42.80463380283771
 31
0.0
  0
LINE
  5
259
330
1F
100
AcDbEntity
  8
0
100
AcDbLine
 10
8.626419983650106
 20
42.80463380283771
 30
0.0
 11
8.29669161342878
 21
42.42435211269687
 31
0.0
  0
LINE
  5
25A
330
1F
100
AcDbEntity
  8
0
100
AcDbLine
 10
8.29669161342878
 20
42.42435211269687
 30
0.0
 11
7.862838494716505
 21
42.12857746480955
 31
0.0
  0
LINE
  5
25B
330
1F
100
AcDbEntity
  8
0
100
AcDbLine
 10
7.862838494716505
 20
42.12857746480955
 30
0.0
 11
7.359568877010265
 21
41.93843661973913
 31
0.0
  0
LINE
  5
25C
330
1F
100
AcDbEntity
  8
0
100
AcDbLine
 10
7.359568877010265
 20
41.93843661973913
 30
0.0
 11
6.821591009807047
 21
41.87505633804899
 31
0.0
  0
LINE
  5
25D
330
1F
100
AcDbEntity
  8
0
100
AcDbLine
 10
6.821591009807047
 20
41.87505633804899
 30
0.0
 11
6.255318373992163
 21
41.92693008050372
 31
0.0
  0
LINE
  5
25E
330
1F
100
AcDbEntity
  8
0
100
AcDbLine
 10
6.255318373992163
 20
41.92693008050372
 30
0.0
 11
5.751671492704432
 21
42.0825513078679
 31
0.0
  0
LINE
  5
25F
330
1F
100
AcDbEntity
  8
0
100
AcDbLine
 10
5.751671492704432
 20
42.0825513078679
 30
0.0
 11
5.310650365943873
 21
42.34192002014154
 31
0.0
  0
LINE
  5
260
330
1F
100
AcDbEntity
  8
0
100
AcDbLine
 10
5.310650365943873
 20
42.34192002014154
 30
0.0
 11
4.932254993710469
 21
42.70503621732464
 31
0.0
  0
LINE
  5
261
330
1F
100
AcDbEntity
  8
0
100
AcDbLine
 10
4.932254993710469
 20
42.70503621732464
 30
0.0
 11
4.628557810611879
 21
43.15945020122806
 31
0.0
  0
LINE
  5
262
330
1F
100
AcDbEntity
  8
0
100
AcDbLine
 10
4.628557810611879
 20
43.15945020122806
 30
0.0
 11
4.411631251255738
 21
43.69271227366267
 31
0.0
  0
LINE
  5
263
330
1F
100
AcDbEntity
  8
0
100
AcDbLine
 10
4.411631251255738
 20
43.69271227366267
 30
0.0
 11
4.281475315642058
 21
44.30482243462846
 31
0.0
  0
LINE
  5
264
330
1F
100
AcDbEntity
  8
0
100
AcDbLine
 10
4.281475315642058
 20
44.30482243462846
 30
0.0
 11
4.238090003770827
 21
44.99578068412545
 31
0.0
  0
LINE
  5
265
330
1F
100
AcDbEntity
  8
0
100
AcDbLine
 10
4.238090003770827
 20
44.99578068412545
 30
0.0
 11
4.328633263328172
 21
45.93893963784778
 31
0.0
  0
LINE
  5
266
330
1F
100
AcDbEntity
  8
0
100
AcDbLine
 10
4.328633263328172
 20
45.93893963784778
 30
0.0
 11
4.600263042000205
 21
46.76439235414557
 31
0.0
  0
LINE
  5
267
330
1F
100
AcDbEntity
  8
0
100
AcDbLine
 10
4.600263042000205
 20
46.76439235414557
 30
0.0
 11
5.033361633549506
 21
47.44271227366267
 31
0.0
  0
LINE
  5
268
330
1F
100
AcDbEntity
  8
0
100
AcDbLine
 10
5.033361633549506
 20
47.44271227366267
 30
0.0
 11
5.608311331738634
 21
47.94447283704295
 31
0.0
  0
LINE
  5
269
330
1F
100
AcDbEntity
  8
0
100
AcDbLine
 10
5.608311331738634
 20
47.94447283704295
 30
0.0
 11
6.287385778418714
 21
48.25458350102685
 31
0.0
  0
LINE
  5
26A
330
1F
100
AcDbEntity
  8
0
100
AcDbLine
 10
6.287385778418714
 20
48.25458350102685
 30
0.0
 11
7.032858615440849
 21
48.35795372235482
 31
0.0
  0
LINE
  5
26B
330
1F
100
AcDbEntity
  8
0
100
AcDbLine
 10
7.032858615440849
 20
48.35795372235482
 30
0.0
 11
7.533110124495175
 21
48.30853219317978
 31
0.0
  0
LINE
  5
26C
330
1F
100
AcDbEntity
  8
0
100
AcDbLine
 10
7.533110124495175
 20
48.30853219317978
 30
0.0
 11
7.965454188881496
 21
48.16026760565462
 31
0.0
  0
LINE
  5
26D
330
1F
100
AcDbEntity
  8
0
100
AcDbLine
 10
7.965454188881496
 20
48.16026760565462
 30
0.0
 11
8.329890808599803
 21
47.91315995977937
 31
0.0
  0
LINE
  5
26E
330
1F
100
AcDbEntity
  8
0
100
AcDbLine
 10
8.329890808599803
 20
47.91315995977937
 30
0.0
 11
8.626419983650106
 21
47.56720925555402
 31
0.0
  0
LINE
  5
26F
330
1F
100
AcDbEntity
  8
0
100
AcDbLine
 10
8.650564852865395
 20
47.56720925555402
 30
0.0
 11
8.650564852865395
 21
48.20704828975925
 31
0.0
  0
LINE
  5
270
330
1F
100
AcDbEntity
  8
0
100
AcDbLine
 10
8.650564852865395
 20
48.20704828975925
 30
0.0
 11
11.20992098968632
 21
48.20704828975925
 31
0.0
  0
LINE
  5
271
330
1F
100
AcDbEntity
  8
0
100
AcDbLine
 10
11.20992098968632
 20
48.20704828975925
 30
0.0
 11
11.20992098968632
 21
42.88914084509124
 31
0.0
  0
LINE
  5
272
330
1F
100
AcDbEntity
  8
0
100
AcDbLine
 10
8.692818373992155
 20
45.29155533201277
 30
0.0
 11
8.63170167379095
 21
45.77897987929647
 31
0.0
  0
LINE
  5
273
330
1F
100
AcDbEntity
  8
0
100
AcDbLine
 10
8.63170167379095
 20
45.77897987929647
 30
0.0
 11
8.448351573187326
 21
46.15473440645945
 31
0.0
  0
LINE
  5
274
330
1F
100
AcDbEntity
  8
0
100
AcDbLine
 10
8.448351573187326
 20
46.15473440645945
 30
0.0
 11
8.16389483274467
 21
46.39467404428641
 31
0.0
  0
LINE
  5
275
330
1F
100
AcDbEntity
  8
0
100
AcDbLine
 10
8.16389483274467
 20
46.39467404428641
 30
0.0
 11
7.799458213026365
 21
46.47465392356207
 31
0.0
  0
LINE
  5
276
330
1F
100
AcDbEntity
  8
0
100
AcDbLine
 10
7.799458213026365
 20
46.47465392356207
 30
0.0
 11
7.408613142603823
 21
46.3780744467009
 31
0.0
  0
LINE
  5
277
330
1F
100
AcDbEntity
  8
0
100
AcDbLine
 10
7.408613142603823
 20
46.3780744467009
 30
0.0
 11
7.105293223086723
 21
46.0883360161174
 31
0.0
  0
LINE
  5
278
330
1F
100
AcDbEntity
  8
0
100
AcDbLine
 10
7.105293223086723
 20
46.0883360161174
 30
0.0
 11
6.910625215038432
 21
45.63712877265664
 31
0.0
  0
LINE
  5
279
330
1F
100
AcDbEntity
  8
0
100
AcDbLine
 10
6.910625215038432
 20
45.63712877265664
 30
0.0
 11
6.845735879022337
 21
45.05614285716367
 31
0.0
  0
LINE
  5
27A
330
1F
100
AcDbEntity
  8
0
100
AcDbLine
 10
6.845735879022337
 20
45.05614285716367
 30
0.0
 11
6.900061834756745
 21
44.52042857144939
 31
0.0
  0
LINE
  5
27B
330
1F
100
AcDbEntity
  8
0
100
AcDbLine
 10
6.900061834756745
 20
44.52042857144939
 30
0.0
 11
7.063039701959962
 21
44.10845674046347
 31
0.0
  0
LINE
  5
27C
330
1F
100
AcDbEntity
  8
0
100
AcDbLine
 10
7.063039701959962
 20
44.10845674046347
 30
0.0
 11
7.343723806587728
 21
43.84588128774718
 31
0.0
  0
LINE
  5
27D
330
1F
100
AcDbEntity
  8
0
100
AcDbLine
 10
7.343723806587728
 20
43.84588128774718
 30
0.0
 11
7.75116847459578
 21
43.75835613684175
 31
0.0
  0
LINE
  5
27E
330
1F
100
AcDbEntity
  8
0
100
AcDbLine
 10
7.75116847459578
 20
43.75835613684175
 30
0.0
 11
8.144277126507246
 21
43.84814486923611
 31
0.0
  0
LINE
  5
27F
330
1F
100
AcDbEntity
  8
0
100
AcDbLine
 10
8.144277126507246
 20
43.84814486923611
 30
0.0
 11
8.442315355883508
 21
44.1175110664192
 31
0.0
  0
LINE
  5
280
330
1F
100
AcDbEntity
  8
0
100
AcDbLine
 10
8.442315355883508
 20
44.1175110664192
 30
0.0
 11
8.630192619464994
 21
44.53778269619788
 31
0.0
  0
LINE
  5
281
330
1F
100
AcDbEntity
  8
0
100
AcDbLine
 10
8.630192619464994
 20
44.53778269619788
 30
0.0
 11
8.692818373992155
 21
45.08028772637897
 31
0.0
  0
LINE
  5
282
330
1F
100
AcDbEntity
  8
0
100
AcDbLine
 10
8.692818373992155
 20
45.08028772637897
 30
0.0
 11
8.692818373992155
 21
45.29155533201277
 31
0.0
  0
LINE
  5
283
330
1F
100
AcDbEntity
  8
0
100
AcDbLine
 10
16.43124895749316
 20
42.02596177064456
 30
0.0
 11
16.43124895749316
 21
45.55111267607715
 31
0.0
  0
LINE
  5
284
330
1F
100
AcDbEntity
  8
0
100
AcDbLine
 10
16.43124895749316
 20
45.55111267607715
 30
0.0
 11
16.38710911845895
 21
45.9551619718518
 31
0.0
  0
LINE
  5
285
330
1F
100
AcDbEntity
  8
0
100
AcDbLine
 10
16.38710911845895
 20
45.9551619718518
 30
0.0
 11
16.25468960135634
 21
46.24376861169084
 31
0.0
  0
LINE
  5
286
330
1F
100
AcDbEntity
  8
0
100
AcDbLine
 10
16.25468960135634
 20
46.24376861169084
 30
0.0
 11
16.03399040618531
 21
46.41693259559425
 31
0.0
  0
LINE
  5
287
330
1F
100
AcDbEntity
  8
0
100
AcDbLine
 10
16.03399040618531
 20
46.41693259559425
 30
0.0
 11
15.72501153294588
 21
46.47465392356207
 31
0.0
  0
LINE
  5
288
330
1F
100
AcDbEntity
  8
0
100
AcDbLine
 10
15.72501153294588
 20
46.47465392356207
 30
0.0
 11
15.42169161342877
 21
46.40901006038299
 31
0.0
  0
LINE
  5
289
330
1F
100
AcDbEntity
  8
0
100
AcDbLine
 10
15.42169161342877
 20
46.40901006038299
 30
0.0
 11
15.19986062751329
 21
46.21207847084577
 31
0.0
  0
LINE
  5
28A
330
1F
100
AcDbEntity
  8
0
100
AcDbLine
 10
15.19986062751329
 20
46.21207847084577
 30
0.0
 11
15.06404573817727
 21
45.91253118714356
 31
0.0
  0
LINE
  5
28B
330
1F
100
AcDbEntity
  8
0
100
AcDbLine
 10
15.06404573817727
 20
45.91253118714356
 30
0.0
 11
15.0187741083986
 21
45.53904024146951
 31
0.0
  0
LINE
  5
28C
330
1F
100
AcDbEntity
  8
0
100
AcDbLine
 10
15.0187741083986
 20
45.53904024146951
 30
0.0
 11
15.0187741083986
 21
42.02596177064456
 31
0.0
  0
LINE
  5
28D
330
1F
100
AcDbEntity
  8
0
100
AcDbLine
 10
15.0187741083986
 20
42.02596177064456
 30
0.0
 11
12.44734553697002
 21
42.02596177064456
 31
0.0
  0
LINE
  5
28E
330
1F
100
AcDbEntity
  8
0
100
AcDbLine
 10
12.44734553697002
 20
42.02596177064456
 30
0.0
 11
12.44734553697002
 21
51.17686720324014
 31
0.0
  0
LINE
  5
28F
330
1F
100
AcDbEntity
  8
0
100
AcDbLine
 10
12.44734553697002
 20
51.17686720324014
 30
0.0
 11
15.0187741083986
 21
51.17686720324014
 31
0.0
  0
LINE
  5
290
330
1F
100
AcDbEntity
  8
0
100
AcDbLine
 10
15.0187741083986
 20
51.17686720324014
 30
0.0
 11
15.0187741083986
 21
47.36801408452786
 31
0.0
  0
LINE
  5
291
330
1F
100
AcDbEntity
  8
0
100
AcDbLine
 10
15.04291897761389
 20
47.36801408452786
 30
0.0
 11
15.41037370598411
 21
47.78979476863249
 31
0.0
  0
LINE
  5
292
330
1F
100
AcDbEntity
  8
0
100
AcDbLine
 10
15.41037370598411
 20
47.78979476863249
 30
0.0
 11
15.84875398767425
 21
48.10141448694235
 31
0.0
  0
LINE
  5
293
330
1F
100
AcDbEntity
  8
0
100
AcDbLine
 10
15.84875398767425
 20
48.10141448694235
 30
0.0
 11
16.33995117077284
 21
48.2938189135017
 31
0.0
  0
LINE
  5
294
330
1F
100
AcDbEntity
  8
0
100
AcDbLine
 10
16.33995117077284
 20
48.2938189135017
 30
0.0
 11
16.86585660336841
 21
48.35795372235482
 31
0.0
  0
LINE
  5
295
330
1F
100
AcDbEntity
  8
0
100
AcDbLine
 10
16.86585660336841
 20
48.35795372235482
 30
0.0
 11
17.33705881664809
 21
48.31777515092625
 31
0.0
  0
LINE
  5
296
330
1F
100
AcDbEntity
  8
0
100
AcDbLine
 10
17.33705881664809
 20
48.31777515092625
 30
0.0
 11
17.74865338405251
 21
48.19723943664054
 31
0.0
  0
LINE
  5
297
330
1F
100
AcDbEntity
  8
0
100
AcDbLine
 10
17.74865338405251
 20
48.19723943664054
 30
0.0
 11
18.10064030558169
 21
47.99634657949768
 31
0.0
  0
LINE
  5
298
330
1F
100
AcDbEntity
  8
0
100
AcDbLine
 10
18.10064030558169
 20
47.99634657949768
 30
0.0
 11
18.39301958123562
 21
47.71509657949768
 31
0.0
  0
LINE
  5
299
330
1F
100
AcDbEntity
  8
0
100
AcDbLine
 10
18.39301958123562
 20
47.71509657949768
 30
0.0
 11
18.62277310236238
 21
47.35575301812947
 31
0.0
  0
LINE
  5
29A
330
1F
100
AcDbEntity
  8
0
100
AcDbLine
 10
18.62277310236238
 20
47.35575301812947
 30
0.0
 11
18.78688276031007
 21
46.92057947688199
 31
0.0
  0
LINE
  5
29B
330
1F
100
AcDbEntity
  8
0
100
AcDbLine
 10
18.78688276031007
 20
46.92057947688199
 30
0.0
 11
18.88534855507868
 21
46.40957595575522
 31
0.0
  0
LINE
  5
29C
330
1F
100
AcDbEntity
  8
0
100
AcDbLine
 10
18.88534855507868
 20
46.40957595575522
 30
0.0
 11
18.91817048666822
 21
45.82274245474919
 31
0.0
  0
LINE
  5
29D
330
1F
100
AcDbEntity
  8
0
100
AcDbLine
 10
18.91817048666822
 20
45.82274245474919
 30
0.0
 11
18.91817048666822
 21
42.02596177064456
 31
0.0
  0
LINE
  5
29E
330
1F
100
AcDbEntity
  8
0
100
AcDbLine
 10
18.91817048666822
 20
42.02596177064456
 30
0.0
 11
16.43124895749316
 21
42.02596177064456
 31
0.0
  0
LINE
  5
29F
330
1F
100
AcDbEntity
  8
0
100
AcDbLine
 10
24.42923688505856
 20
42.11046881289808
 30
0.0
 11
23.85579624119538
 21
41.95050905434677
 31
0.0
  0
LINE
  5
2A0
330
1F
100
AcDbEntity
  8
0
100
AcDbLine
 10
23.85579624119538
 20
41.95050905434677
 30
0.0
 11
22.89603768988753
 21
41.87505633804899
 31
0.0
  0
LINE
  5
2A1
330
1F
100
AcDbEntity
  8
0
100
AcDbLine
 10
22.89603768988753
 20
41.87505633804899
 30
0.0
 11
22.38805227741268
 21
41.9120281690349
 31
0.0
  0
LINE
  5
2A2
330
1F
100
AcDbEntity
  8
0
100
AcDbLine
 10
22.38805227741268
 20
41.9120281690349
 30
0.0
 11
21.93854272006862
 21
42.02294366199265
 31
0.0
  0
LINE
  5
2A3
330
1F
100
AcDbEntity
  8
0
100
AcDbLine
 10
21.93854272006862
 20
42.02294366199265
 30
0.0
 11
21.54750901785534
 21
42.20780281692223
 31
0.0
  0
LINE
  5
2A4
330
1F
100
AcDbEntity
  8
0
100
AcDbLine
 10
21.54750901785534
 20
42.20780281692223
 30
0.0
 11
21.21495117077284
 21
42.46660563382363
 31
0.0
  0
LINE
  5
2A5
330
1F
100
AcDbEntity
  8
0
100
AcDbLine
 10
21.21495117077284
 20
42.46660563382363
 30
0.0
 11
20.94954624119537
 21
42.79369315897454
 31
0.0
  0
LINE
  5
2A6
330
1F
100
AcDbEntity
  8
0
100
AcDbLine
 10
20.94954624119537
 20
42.79369315897454
 30
0.0
 11
20.75997129149718
 21
43.18340643865261
 31
0.0
  0
LINE
  5
2A7
330
1F
100
AcDbEntity
  8
0
100
AcDbLine
 10
20.75997129149718
 20
43.18340643865261
 30
0.0
 11
20.64622632167827
 21
43.63574547285784
 31
0.0
  0
LINE
  5
2A8
330
1F
100
AcDbEntity
  8
0
100
AcDbLine
 10
20.64622632167827
 20
43.63574547285784
 30
0.0
 11
20.60831133173863
 21
44.15071026159023
 31
0.0
  0
LINE
  5
2A9
330
1F
100
AcDbEntity
  8
0
100
AcDbLine
 10
20.60831133173863
 20
44.15071026159023
 30
0.0
 11
20.60831133173863
 21
46.42636418513148
 31
0.0
  0
LINE
  5
2AA
330
1F
100
AcDbEntity
  8
0
100
AcDbLine
 10
20.60831133173863
 20
46.42636418513148
 30
0.0
 11
19.63648034582314
 21
46.42636418513148
 31
0.0
  0
LINE
  5
2AB
330
1F
100
AcDbEntity
  8
0
100
AcDbLine
 10
19.63648034582314
 20
46.42636418513148
 30
0.0
 11
19.63648034582314
 21
48.20704828975925
 31
0.0
  0
LINE
  5
2AC
330
1F
100
AcDbEntity
  8
0
100
AcDbLine
 10
19.63648034582314
 20
48.20704828975925
 30
0.0
 11
20.60831133173863
 21
48.20704828975925
 31
0.0
  0
LINE
  5
2AD
330
1F
100
AcDbEntity
  8
0
100
AcDbLine
 10
20.60831133173863
 20
48.20704828975925
 30
0.0
 11
20.60831133173863
 21
49.42032796782766
 31
0.0
  0
LINE
  5
2AE
330
1F
100
AcDbEntity
  8
0
100
AcDbLine
 10
20.60831133173863
 20
49.42032796782766
 30
0.0
 11
23.14352259934427
 21
50.12052917507112
 31
0.0
  0
LINE
  5
2AF
330
1F
100
AcDbEntity
  8
0
100
AcDbLine
 10
23.14352259934427
 20
50.12052917507112
 30
0.0
 11
23.14352259934427
 21
48.20704828975925
 31
0.0
  0
LINE
  5
2B0
330
1F
100
AcDbEntity
  8
0
100
AcDbLine
 10
23.14352259934427
 20
48.20704828975925
 30
0.0
 11
24.42923688505856
 21
48.20704828975925
 31
0.0
  0
LINE
  5
2B1
330
1F
100
AcDbEntity
  8
0
100
AcDbLine
 10
24.42923688505856
 20
48.20704828975925
 30
0.0
 11
24.42923688505856
 21
46.42636418513148
 31
0.0
  0
LINE
  5
2B2
330
1F
100
AcDbEntity
  8
0
100
AcDbLine
 10
24.42923688505856
 20
46.42636418513148
 30
0.0
 11
23.14352259934427
 21
46.42636418513148
 31
0.0
  0
LINE
  5
2B3
330
1F
100
AcDbEntity
  8
0
100
AcDbLine
 10
23.14352259934427
 20
46.42636418513148
 30
0.0
 11
23.14352259934427
 21
44.57324547285784
 31
0.0
  0
LINE
  5
2B4
330
1F
100
AcDbEntity
  8
0
100
AcDbLine
 10
23.14352259934427
 20
44.57324547285784
 30
0.0
 11
23.18388980256359
 21
44.2167313883508
 31
0.0
  0
LINE
  5
2B5
330
1F
100
AcDbEntity
  8
0
100
AcDbLine
 10
23.18388980256359
 20
44.2167313883508
 30
0.0
 11
23.30499141222154
 21
43.96207847084577
 31
0.0
  0
LINE
  5
2B6
330
1F
100
AcDbEntity
  8
0
100
AcDbLine
 10
23.30499141222154
 20
43.96207847084577
 30
0.0
 11
23.50682742831811
 21
43.80928672034275
 31
0.0
  0
LINE
  5
2B7
330
1F
100
AcDbEntity
  8
0
100
AcDbLine
 10
23.50682742831811
 20
43.80928672034275
 30
0.0
 11
23.78939785085332
 21
43.75835613684175
 31
0.0
  0
LINE
  5
2B8
330
1F
100
AcDbEntity
  8
0
100
AcDbLine
 10
23.78939785085332
 20
43.75835613684175
 30
0.0
 11
24.42923688505856
 21
43.89115291752585
 31
0.0
  0
LINE
  5
2B9
330
1F
100
AcDbEntity
  8
0
100
AcDbLine
 10
24.42923688505856
 20
43.89115291752585
 30
0.0
 11
24.42923688505856
 21
42.11046881289808
 31
0.0
  0
LINE
  5
2BA
330
1F
100
AcDbEntity
  8
0
100
AcDbLine
 10
2.999999999999949
 20
26.51066962348086
 30
0.0
 11
46.47345513237847
 21
26.51066962348086
 31
0.0
  0
LINE
  5
2BB
330
1F
100
AcDbEntity
  8
0
100
AcDbLine
 10
-46.47345513237856
 20
26.51066962348086
 30
0.0
 11
-3.00000000000004
 21
26.51066962348086
 31
0.0
  0
LINE
  5
2BC
330
1F
100
AcDbEntity
  8
0
100
AcDbLine
 10
27.73672756618921
 20
23.76066962348085
 30
0.0
 11
52.47345513237846
 21
23.76066962348085
 31
0.0
  0
LINE
  5
2BD
330
1F
100
AcDbEntity
  8
0
100
AcDbLine
 10
-21.73560376866552
 20
23.76066962348085
 30
0.0
 11
21.73672756618922
 21
23.76066962348085
 31
0.0
  0
LINE
  5
2BE
330
1F
100
AcDbEntity
  8
0
100
AcDbLine
 10
-52.44875398262589
 20
23.76066962348085
 30
0.0
 11
-27.73560471505853
 21
23.76066962348085
 31
0.0
  0
LINE
  5
2BF
330
1F
100
AcDbEntity
  8
0
100
AcDbLine
 10
-52.44875398262589
 20
23.76066962348085
 30
0.0
 11
-52.44875398262589
 21
18.26066962348085
 31
0.0
  0
LINE
  5
2C0
330
1F
100
AcDbEntity
  8
0
100
AcDbLine
 10
52.47345513237846
 20
23.76066962348085
 30
0.0
 11
52.47345513237846
 21
18.26066962348085
 31
0.0
  0
LINE
  5
2C1
330
1F
100
AcDbEntity
  8
0
100
AcDbLine
 10
27.73672756618921
 20
18.26066962348085
 30
0.0
 11
52.47345513237846
 21
18.26066962348085
 31
0.0
  0
LINE
  5
2C2
330
1F
100
AcDbEntity
  8
0
100
AcDbLine
 10
-21.73560376866552
 20
18.26066962348085
 30
0.0
 11
21.73672756618922
 21
18.26066962348085
 31
0.0
  0
LINE
  5
2C3
330
1F
100
AcDbEntity
  8
0
100
AcDbLine
 10
-52.44875398262589
 20
18.26066962348085
 30
0.0
 11
-27.73560471505853
 21
18.26066962348085
 31
0.0
  0
LINE
  5
2C4
330
1F
100
AcDbEntity
  8
0
100
AcDbLine
 10
2.999999999999949
 20
21.01066962348086
 30
0.0
 11
46.47345513237847
 21
21.01066962348086
 31
0.0
  0
LINE
  5
2C5
330
1F
100
AcDbEntity
  8
0
100
AcDbLine
 10
-46.47345513237856
 20
21.01066962348086
 30
0.0
 11
-3.00000000000004
 21
21.01066962348086
 31
0.0
  0
LINE
  5
2C6
330
1F
100
AcDbEntity
  8
0
100
AcDbLine
 10
-52.44875398262589
 20
18.26066962348085
 30
0.0
 11
-52.44875398262589
 21
12.76066962348085
 31
0.0
  0
LINE
  5
2C7
330
1F
100
AcDbEntity
  8
0
100
AcDbLine
 10
52.47345513237846
 20
18.26066962348085
 30
0.0
 11
52.47345513237846
 21
12.76066962348085
 31
0.0
  0
LINE
  5
2C8
330
1F
100
AcDbEntity
  8
0
100
AcDbLine
 10
27.73672756618921
 20
12.76066962348085
 30
0.0
 11
52.47345513237846
 21
12.76066962348085
 31
0.0
  0
LINE
  5
2C9
330
1F
100
AcDbEntity
  8
0
100
AcDbLine
 10
-52.44875398262589
 20
12.76066962348085
 30
0.0
 11
-27.73560471505853
 21
12.76066962348085
 31
0.0
  0
LINE
  5
2CA
330
1F
100
AcDbEntity
  8
0
100
AcDbLine
 10
2.999999999999949
 20
15.51066962348086
 30
0.0
 11
46.47345513237847
 21
15.51066962348086
 31
0.0
  0
LINE
  5
2CB
330
1F
100
AcDbEntity
  8
0
100
AcDbLine
 10
-21.73560376866552
 20
12.76066962348085
 30
0.0
 11
21.73672756618922
 21
12.76066962348085
 31
0.0
  0
LINE
  5
2CC
330
1F
100
AcDbEntity
  8
0
100
AcDbLine
 10
-46.47345513237856
 20
15.51066962348086
 30
0.0
 11
-3.00000000000004
 21
15.51066962348086
 31
0.0
  0
LINE
  5
2CD
330
1F
100
AcDbEntity
  8
0
100
AcDbLine
 10
-52.44875398262589
 20
12.76066962348085
 30
0.0
 11
-52.44875398262589
 21
7.260669623480851
 31
0.0
  0
LINE
  5
2CE
330
1F
100
AcDbEntity
  8
0
100
AcDbLine
 10
52.47345513237846
 20
12.76066962348085
 30
0.0
 11
52.47345513237846
 21
7.260669623480851
 31
0.0
  0
LINE
  5
2CF
330
1F
100
AcDbEntity
  8
0
100
AcDbLine
 10
-52.44875398262589
 20
7.260669623480851
 30
0.0
 11
-27.73560471505853
 21
7.260669623480851
 31
0.0
  0
LINE
  5
2D0
330
1F
100
AcDbEntity
  8
0
100
AcDbLine
 10
27.73672756618921
 20
1.76066962348085
 30
0.0
 11
52.47345513237846
 21
1.76066962348085
 31
0.0
  0
LINE
  5
2D1
330
1F
100
AcDbEntity
  8
0
100
AcDbLine
 10
-46.47345513237856
 20
-0.9893303765191452
 30
0.0
 11
-3.00000000000004
 21
-0.9893303765191452
 31
0.0
  0
LINE
  5
2D2
330
1F
100
AcDbEntity
  8
0
100
AcDbLine
 10
-46.47345513237856
 20
10.01066962348086
 30
0.0
 11
-3.00000000000004
 21
10.01066962348086
 31
0.0
  0
LINE
  5
2D3
330
1F
100
AcDbEntity
  8
0
100
AcDbLine
 10
-21.73560376866552
 20
7.260669623480851
 30
0.0
 11
21.73672756618922
 21
7.260669623480851
 31
0.0
  0
LINE
  5
2D4
330
1F
100
AcDbEntity
  8
0
100
AcDbLine
 10
-21.73560376866552
 20
1.76066962348085
 30
0.0
 11
21.73672756618922
 21
1.76066962348085
 31
0.0
  0
LINE
  5
2D5
330
1F
100
AcDbEntity
  8
0
100
AcDbLine
 10
2.999999999999949
 20
10.01066962348086
 30
0.0
 11
46.47345513237847
 21
10.01066962348086
 31
0.0
  0
LINE
  5
2D6
330
1F
100
AcDbEntity
  8
0
100
AcDbLine
 10
2.999999999999949
 20
-0.9893303765191452
 30
0.0
 11
46.47345513237847
 21
-0.9893303765191452
 31
0.0
  0
LINE
  5
2D7
330
1F
100
AcDbEntity
  8
0
100
AcDbLine
 10
-21.73560376866552
 20
-3.739330376519152
 30
0.0
 11
21.73672756618922
 21
-3.739330376519152
 31
0.0
  0
LINE
  5
2D8
330
1F
100
AcDbEntity
  8
0
100
AcDbLine
 10
27.73672756618921
 20
7.260669623480851
 30
0.0
 11
52.47345513237846
 21
7.260669623480851
 31
0.0
  0
LINE
  5
2D9
330
1F
100
AcDbEntity
  8
0
100
AcDbLine
 10
2.999999999999949
 20
4.510669623480856
 30
0.0
 11
46.47345513237847
 21
4.510669623480856
 31
0.0
  0
LINE
  5
2DA
330
1F
100
AcDbEntity
  8
0
100
AcDbLine
 10
-52.44875398262589
 20
1.76066962348085
 30
0.0
 11
-27.73560471505853
 21
1.76066962348085
 31
0.0
  0
LINE
  5
2DB
330
1F
100
AcDbEntity
  8
0
100
AcDbLine
 10
27.73672756618921
 20
-3.739330376519152
 30
0.0
 11
52.47345513237846
 21
-3.739330376519152
 31
0.0
  0
LINE
  5
2DC
330
1F
100
AcDbEntity
  8
0
100
AcDbLine
 10
-46.47345513237856
 20
4.510669623480856
 30
0.0
 11
-3.00000000000004
 21
4.510669623480856
 31
0.0
  0
LINE
  5
2DD
330
1F
100
AcDbEntity
  8
0
100
AcDbLine
 10
-52.44875398262589
 20
-3.739330376519152
 30
0.0
 11
-27.73560471505853
 21
-3.739330376519152
 31
0.0
  0
LINE
  5
2DE
330
1F
100
AcDbEntity
  8
0
100
AcDbLine
 10
-52.44875398262589
 20
7.260669623480851
 30
0.0
 11
-52.44875398262589
 21
1.76066962348085
 31
0.0
  0
LINE
  5
2DF
330
1F
100
AcDbEntity
  8
0
100
AcDbLine
 10
52.47345513237846
 20
1.76066962348085
 30
0.0
 11
52.47345513237846
 21
-3.739330376519152
 31
0.0
  0
LINE
  5
2E0
330
1F
100
AcDbEntity
  8
0
100
AcDbLine
 10
52.47345513237846
 20
7.260669623480851
 30
0.0
 11
52.47345513237846
 21
1.76066962348085
 31
0.0
  0
LINE
  5
2E1
330
1F
100
AcDbEntity
  8
0
100
AcDbLine
 10
-52.44875398262589
 20
-3.739330376519152
 30
0.0
 11
-52.44875398262589
 21
-9.239330376519153
 31
0.0
  0
LINE
  5
2E2
330
1F
100
AcDbEntity
  8
0
100
AcDbLine
 10
-52.44875398262589
 20
1.76066962348085
 30
0.0
 11
-52.44875398262589
 21
-3.739330376519152
 31
0.0
  0
LINE
  5
2E3
330
1F
100
AcDbEntity
  8
0
100
AcDbLine
 10
52.47345513237846
 20
-3.739330376519152
 30
0.0
 11
52.47345513237846
 21
-9.239330376519153
 31
0.0
  0
LINE
  5
2E4
330
1F
100
AcDbEntity
  8
0
100
AcDbLine
 10
27.73672756618921
 20
-14.73933037651915
 30
0.0
 11
52.47345513237846
 21
-14.73933037651915
 31
0.0
  0
LINE
  5
2E5
330
1F
100
AcDbEntity
  8
0
100
AcDbLine
 10
-46.47345513237856
 20
-17.48933037651915
 30
0.0
 11
-3.00000000000004
 21
-17.48933037651915
 31
0.0
  0
LINE
  5
2E6
330
1F
100
AcDbEntity
  8
0
100
AcDbLine
 10
-52.44875398262589
 20
-9.239330376519153
 30
0.0
 11
-27.73560471505853
 21
-9.239330376519153
 31
0.0
  0
LINE
  5
2E7
330
1F
100
AcDbEntity
  8
0
100
AcDbLine
 10
-46.47345513237856
 20
-11.98933037651915
 30
0.0
 11
-3.00000000000004
 21
-11.98933037651915
 31
0.0
  0
LINE
  5
2E8
330
1F
100
AcDbEntity
  8
0
100
AcDbLine
 10
-46.47345513237856
 20
-6.489330376519146
 30
0.0
 11
-3.00000000000004
 21
-6.489330376519146
 31
0.0
  0
LINE
  5
2E9
330
1F
100
AcDbEntity
  8
0
100
AcDbLine
 10
2.999999999999949
 20
-6.489330376519146
 30
0.0
 11
46.47345513237847
 21
-6.489330376519146
 31
0.0
  0
LINE
  5
2EA
330
1F
100
AcDbEntity
  8
0
100
AcDbLine
 10
-21.73560376866552
 20
-20.23933037651916
 30
0.0
 11
21.73672756618922
 21
-20.23933037651916
 31
0.0
  0
LINE
  5
2EB
330
1F
100
AcDbEntity
  8
0
100
AcDbLine
 10
-21.73560376866552
 20
-14.73933037651915
 30
0.0
 11
21.73672756618922
 21
-14.73933037651915
 31
0.0
  0
LINE
  5
2EC
330
1F
100
AcDbEntity
  8
0
100
AcDbLine
 10
2.999999999999949
 20
-17.48933037651915
 30
0.0
 11
46.47345513237847
 21
-17.48933037651915
 31
0.0
  0
LINE
  5
2ED
330
1F
100
AcDbEntity
  8
0
100
AcDbLine
 10
27.73672756618921
 20
-20.23933037651916
 30
0.0
 11
52.47345513237846
 21
-20.23933037651916
 31
0.0
  0
LINE
  5
2EE
330
1F
100
AcDbEntity
  8
0
100
AcDbLine
 10
-52.44875398262589
 20
-20.23933037651916
 30
0.0
 11
-27.73560471505853
 21
-20.23933037651916
 31
0.0
  0
LINE
  5
2EF
330
1F
100
AcDbEntity
  8
0
100
AcDbLine
 10
-52.44875398262589
 20
-14.73933037651915
 30
0.0
 11
-27.73560471505853
 21
-14.73933037651915
 31
0.0
  0
LINE
  5
2F0
330
1F
100
AcDbEntity
  8
0
100
AcDbLine
 10
27.73672756618921
 20
-9.239330376519153
 30
0.0
 11
52.47345513237846
 21
-9.239330376519153
 31
0.0
  0
LINE
  5
2F1
330
1F
100
AcDbEntity
  8
0
100
AcDbLine
 10
-21.73560376866552
 20
-9.239330376519153
 30
0.0
 11
21.73672756618922
 21
-9.239330376519153
 31
0.0
  0
LINE
  5
2F2
330
1F
100
AcDbEntity
  8
0
100
AcDbLine
 10
2.999999999999949
 20
-11.98933037651915
 30
0.0
 11
46.47345513237847
 21
-11.98933037651915
 31
0.0
  0
LINE
  5
2F3
330
1F
100
AcDbEntity
  8
0
100
AcDbLine
 10
-52.44875398262589
 20
-20.23933037651916
 30
0.0
 11
-52.44875398262589
 21
-25.73933037651916
 31
0.0
  0
LINE
  5
2F4
330
1F
100
AcDbEntity
  8
0
100
AcDbLine
 10
-52.44875398262589
 20
-9.239330376519153
 30
0.0
 11
-52.44875398262589
 21
-14.73933037651915
 31
0.0
  0
LINE
  5
2F5
330
1F
100
AcDbEntity
  8
0
100
AcDbLine
 10
52.47345513237846
 20
-14.73933037651915
 30
0.0
 11
52.47345513237846
 21
-20.23933037651916
 31
0.0
  0
LINE
  5
2F6
330
1F
100
AcDbEntity
  8
0
100
AcDbLine
 10
52.47345513237846
 20
-9.239330376519153
 30
0.0
 11
52.47345513237846
 21
-14.73933037651915
 31
0.0
  0
LINE
  5
2F7
330
1F
100
AcDbEntity
  8
0
100
AcDbLine
 10
-52.44875398262589
 20
-14.73933037651915
 30
0.0
 11
-52.44875398262589
 21
-20.23933037651916
 31
0.0
  0
LINE
  5
2F8
330
1F
100
AcDbEntity
  8
0
100
AcDbLine
 10
52.47345513237846
 20
-20.23933037651916
 30
0.0
 11
52.47345513237846
 21
-25.73933037651916
 31
0.0
  0
LINE
  5
2F9
330
1F
100
AcDbEntity
  8
0
100
AcDbLine
 10
2.999999999999949
 20
-22.98933037651915
 30
0.0
 11
46.47345513237847
 21
-22.98933037651915
 31
0.0
  0
LINE
  5
2FA
330
1F
100
AcDbEntity
  8
0
100
AcDbLine
 10
-21.73560376866552
 20
-31.23933037651916
 30
0.0
 11
21.73672756618922
 21
-31.23933037651916
 31
0.0
  0
LINE
  5
2FB
330
1F
100
AcDbEntity
  8
0
100
AcDbLine
 10
-46.47345513237856
 20
-22.98933037651915
 30
0.0
 11
-3.00000000000004
 21
-22.98933037651915
 31
0.0
  0
LINE
  5
2FC
330
1F
100
AcDbEntity
  8
0
100
AcDbLine
 10
27.73672756618921
 20
-25.73933037651916
 30
0.0
 11
52.47345513237846
 21
-25.73933037651916
 31
0.0
  0
LINE
  5
2FD
330
1F
100
AcDbEntity
  8
0
100
AcDbLine
 10
27.73672756618921
 20
-36.73933037651916
 30
0.0
 11
52.47345513237846
 21
-36.73933037651916
 31
0.0
  0
LINE
  5
2FE
330
1F
100
AcDbEntity
  8
0
100
AcDbLine
 10
27.73672756618921
 20
-31.23933037651916
 30
0.0
 11
52.47345513237846
 21
-31.23933037651916
 31
0.0
  0
LINE
  5
2FF
330
1F
100
AcDbEntity
  8
0
100
AcDbLine
 10
-52.44875398262589
 20
-31.23933037651916
 30
0.0
 11
-27.73560471505853
 21
-31.23933037651916
 31
0.0
  0
LINE
  5
300
330
1F
100
AcDbEntity
  8
0
100
AcDbLine
 10
-52.44875398262589
 20
-36.73933037651916
 30
0.0
 11
-27.73560471505853
 21
-36.73933037651916
 31
0.0
  0
LINE
  5
301
330
1F
100
AcDbEntity
  8
0
100
AcDbLine
 10
2.999999999999949
 20
-33.98933037651915
 30
0.0
 11
46.47345513237847
 21
-33.98933037651915
 31
0.0
  0
LINE
  5
302
330
1F
100
AcDbEntity
  8
0
100
AcDbLine
 10
2.999999999999949
 20
-28.48933037651915
 30
0.0
 11
46.47345513237847
 21
-28.48933037651915
 31
0.0
  0
LINE
  5
303
330
1F
100
AcDbEntity
  8
0
100
AcDbLine
 10
-46.47345513237856
 20
-28.48933037651915
 30
0.0
 11
-3.00000000000004
 21
-28.48933037651915
 31
0.0
  0
LINE
  5
304
330
1F
100
AcDbEntity
  8
0
100
AcDbLine
 10
-46.47345513237856
 20
-39.48933037651916
 30
0.0
 11
-3.00000000000004
 21
-39.48933037651916
 31
0.0
  0
LINE
  5
305
330
1F
100
AcDbEntity
  8
0
100
AcDbLine
 10
-52.44875398262589
 20
-47.73933037651916
 30
0.0
 11
-27.73560471505853
 21
-47.73933037651916
 31
0.0
  0
LINE
  5
306
330
1F
100
AcDbEntity
  8
0
100
AcDbLine
 10
-46.47345513237856
 20
-50.48933037651916
 30
0.0
 11
-3.00000000000004
 21
-50.48933037651916
 31
0.0
  0
LINE
  5
307
330
1F
100
AcDbEntity
  8
0
100
AcDbLine
 10
-21.73560376866552
 20
-69.73933037651916
 30
0.0
 11
21.73672756618922
 21
-69.73933037651916
 31
0.0
  0
LINE
  5
308
330
1F
100
AcDbEntity
  8
0
100
AcDbLine
 10
-52.44875398262589
 20
-69.73933037651916
 30
0.0
 11
-27.73560471505853
 21
-69.73933037651916
 31
0.0
  0
LINE
  5
309
330
1F
100
AcDbEntity
  8
0
100
AcDbLine
 10
2.999999999999949
 20
-61.48933037651916
 30
0.0
 11
46.47345513237847
 21
-61.48933037651916
 31
0.0
  0
LINE
  5
30A
330
1F
100
AcDbEntity
  8
0
100
AcDbLine
 10
-21.73560376866552
 20
-42.23933037651916
 30
0.0
 11
21.73672756618922
 21
-42.23933037651916
 31
0.0
  0
LINE
  5
30B
330
1F
100
AcDbEntity
  8
0
100
AcDbLine
 10
-52.44875398262589
 20
-58.73933037651916
 30
0.0
 11
-27.73560471505853
 21
-58.73933037651916
 31
0.0
  0
LINE
  5
30C
330
1F
100
AcDbEntity
  8
0
100
AcDbLine
 10
-46.47345513237856
 20
-44.98933037651916
 30
0.0
 11
-3.00000000000004
 21
-44.98933037651916
 31
0.0
  0
LINE
  5
30D
330
1F
100
AcDbEntity
  8
0
100
AcDbLine
 10
-21.73560376866552
 20
-64.23933037651916
 30
0.0
 11
21.73672756618922
 21
-64.23933037651916
 31
0.0
  0
LINE
  5
30E
330
1F
100
AcDbEntity
  8
0
100
AcDbLine
 10
27.73672756618921
 20
-42.23933037651916
 30
0.0
 11
52.47345513237846
 21
-42.23933037651916
 31
0.0
  0
LINE
  5
30F
330
1F
100
AcDbEntity
  8
0
100
AcDbLine
 10
27.73672756618921
 20
-64.23933037651916
 30
0.0
 11
52.47345513237846
 21
-64.23933037651916
 31
0.0
  0
LINE
  5
310
330
1F
100
AcDbEntity
  8
0
100
AcDbLine
 10
27.73672756618921
 20
-47.73933037651916
 30
0.0
 11
52.47345513237846
 21
-47.73933037651916
 31
0.0
  0
LINE
  5
311
330
1F
100
AcDbEntity
  8
0
100
AcDbLine
 10
27.73672756618921
 20
-53.23933037651916
 30
0.0
 11
52.47345513237846
 21
-53.23933037651916
 31
0.0
  0
LINE
  5
312
330
1F
100
AcDbEntity
  8
0
100
AcDbLine
 10
-21.73560376866552
 20
-36.73933037651916
 30
0.0
 11
21.73672756618922
 21
-36.73933037651916
 31
0.0
  0
LINE
  5
313
330
1F
100
AcDbEntity
  8
0
100
AcDbLine
 10
-46.47345513237856
 20
-33.98933037651915
 30
0.0
 11
-3.00000000000004
 21
-33.98933037651915
 31
0.0
  0
LINE
  5
314
330
1F
100
AcDbEntity
  8
0
100
AcDbLine
 10
-46.47345513237856
 20
-66.98933037651916
 30
0.0
 11
-3.00000000000004
 21
-66.98933037651916
 31
0.0
  0
LINE
  5
315
330
1F
100
AcDbEntity
  8
0
100
AcDbLine
 10
-21.73560376866552
 20
-47.73933037651916
 30
0.0
 11
21.73672756618922
 21
-47.73933037651916
 31
0.0
  0
LINE
  5
316
330
1F
100
AcDbEntity
  8
0
100
AcDbLine
 10
2.999999999999949
 20
-39.48933037651916
 30
0.0
 11
46.47345513237847
 21
-39.48933037651916
 31
0.0
  0
LINE
  5
317
330
1F
100
AcDbEntity
  8
0
100
AcDbLine
 10
-52.44875398262589
 20
-53.23933037651916
 30
0.0
 11
-27.73560471505853
 21
-53.23933037651916
 31
0.0
  0
LINE
  5
318
330
1F
100
AcDbEntity
  8
0
100
AcDbLine
 10
2.999999999999949
 20
-50.48933037651916
 30
0.0
 11
46.47345513237847
 21
-50.48933037651916
 31
0.0
  0
LINE
  5
319
330
1F
100
AcDbEntity
  8
0
100
AcDbLine
 10
-46.47345513237856
 20
-61.48933037651916
 30
0.0
 11
-3.00000000000004
 21
-61.48933037651916
 31
0.0
  0
LINE
  5
31A
330
1F
100
AcDbEntity
  8
0
100
AcDbLine
 10
-46.47345513237856
 20
-55.98933037651916
 30
0.0
 11
-3.00000000000004
 21
-55.98933037651916
 31
0.0
  0
LINE
  5
31B
330
1F
100
AcDbEntity
  8
0
100
AcDbLine
 10
2.999999999999949
 20
-55.98933037651916
 30
0.0
 11
46.47345513237847
 21
-55.98933037651916
 31
0.0
  0
LINE
  5
31C
330
1F
100
AcDbEntity
  8
0
100
AcDbLine
 10
2.999999999999949
 20
-66.98933037651916
 30
0.0
 11
46.47345513237847
 21
-66.98933037651916
 31
0.0
  0
LINE
  5
31D
330
1F
100
AcDbEntity
  8
0
100
AcDbLine
 10
-21.73560376866552
 20
-53.23933037651916
 30
0.0
 11
21.73672756618922
 21
-53.23933037651916
 31
0.0
  0
LINE
  5
31E
330
1F
100
AcDbEntity
  8
0
100
AcDbLine
 10
2.999999999999949
 20
-44.98933037651916
 30
0.0
 11
46.47345513237847
 21
-44.98933037651916
 31
0.0
  0
LINE
  5
31F
330
1F
100
AcDbEntity
  8
0
100
AcDbLine
 10
27.73672756618921
 20
-69.73933037651916
 30
0.0
 11
52.47345513237846
 21
-69.73933037651916
 31
0.0
  0
LINE
  5
320
330
1F
100
AcDbEntity
  8
0
100
AcDbLine
 10
-52.44875398262589
 20
-64.23933037651916
 30
0.0
 11
-27.73560471505853
 21
-64.23933037651916
 31
0.0
  0
LINE
  5
321
330
1F
100
AcDbEntity
  8
0
100
AcDbLine
 10
27.73672756618921
 20
-58.73933037651916
 30
0.0
 11
52.47345513237846
 21
-58.73933037651916
 31
0.0
  0
LINE
  5
322
330
1F
100
AcDbEntity
  8
0
100
AcDbLine
 10
-21.73560376866552
 20
-58.73933037651916
 30
0.0
 11
21.73672756618922
 21
-58.73933037651916
 31
0.0
  0
LINE
  5
323
330
1F
100
AcDbEntity
  8
0
100
AcDbLine
 10
-52.44875398262589
 20
-42.23933037651916
 30
0.0
 11
-27.73560471505853
 21
-42.23933037651916
 31
0.0
  0
LINE
  5
324
330
1F
100
AcDbEntity
  8
0
100
AcDbLine
 10
-21.73560376866552
 20
-25.73933037651916
 30
0.0
 11
21.73672756618922
 21
-25.73933037651916
 31
0.0
  0
LINE
  5
325
330
1F
100
AcDbEntity
  8
0
100
AcDbLine
 10
-52.44875398262589
 20
-25.73933037651916
 30
0.0
 11
-27.73560471505853
 21
-25.73933037651916
 31
0.0
  0
LINE
  5
326
330
1F
100
AcDbEntity
  8
0
100
AcDbLine
 10
-52.44875398262589
 20
-36.73933037651916
 30
0.0
 11
-52.44875398262589
 21
-42.23933037651916
 31
0.0
  0
LINE
  5
327
330
1F
100
AcDbEntity
  8
0
100
AcDbLine
 10
-52.44875398262589
 20
-31.23933037651916
 30
0.0
 11
-52.44875398262589
 21
-36.73933037651916
 31
0.0
  0
LINE
  5
328
330
1F
100
AcDbEntity
  8
0
100
AcDbLine
 10
-52.44875398262589
 20
-25.73933037651916
 30
0.0
 11
-52.44875398262589
 21
-31.23933037651916
 31
0.0
  0
LINE
  5
329
330
1F
100
AcDbEntity
  8
0
100
AcDbLine
 10
52.47345513237846
 20
-25.73933037651916
 30
0.0
 11
52.47345513237846
 21
-31.23933037651916
 31
0.0
  0
LINE
  5
32A
330
1F
100
AcDbEntity
  8
0
100
AcDbLine
 10
-52.44875398262589
 20
-47.73933037651916
 30
0.0
 11
-52.44875398262589
 21
-53.23933037651916
 31
0.0
  0
LINE
  5
32B
330
1F
100
AcDbEntity
  8
0
100
AcDbLine
 10
-52.44875398262589
 20
-42.23933037651916
 30
0.0
 11
-52.44875398262589
 21
-47.73933037651916
 31
0.0
  0
LINE
  5
32C
330
1F
100
AcDbEntity
  8
0
100
AcDbLine
 10
52.47345513237846
 20
-36.73933037651916
 30
0.0
 11
52.47345513237846
 21
-42.23933037651916
 31
0.0
  0
LINE
  5
32D
330
1F
100
AcDbEntity
  8
0
100
AcDbLine
 10
52.47345513237846
 20
-31.23933037651916
 30
0.0
 11
52.47345513237846
 21
-36.73933037651916
 31
0.0
  0
LINE
  5
32E
330
1F
100
AcDbEntity
  8
0
100
AcDbLine
 10
-52.44875398262589
 20
-69.73933037651916
 30
0.0
 11
-52.44875398262589
 21
-73.98933037651895
 31
0.0
  0
LINE
  5
32F
330
1F
100
AcDbEntity
  8
0
100
AcDbLine
 10
-52.44875398262589
 20
-58.73933037651916
 30
0.0
 11
-52.44875398262589
 21
-64.23933037651916
 31
0.0
  0
LINE
  5
330
330
1F
100
AcDbEntity
  8
0
100
AcDbLine
 10
-52.44875398262589
 20
-53.23933037651916
 30
0.0
 11
-52.44875398262589
 21
-58.73933037651916
 31
0.0
  0
LINE
  5
331
330
1F
100
AcDbEntity
  8
0
100
AcDbLine
 10
52.47345513237846
 20
-42.23933037651916
 30
0.0
 11
52.47345513237846
 21
-47.73933037651916
 31
0.0
  0
LINE
  5
332
330
1F
100
AcDbEntity
  8
0
100
AcDbLine
 10
-52.44875398262589
 20
-64.23933037651916
 30
0.0
 11
-52.44875398262589
 21
-69.73933037651916
 31
0.0
  0
LINE
  5
333
330
1F
100
AcDbEntity
  8
0
100
AcDbLine
 10
52.47345513237846
 20
-64.23933037651916
 30
0.0
 11
52.47345513237846
 21
-69.73933037651916
 31
0.0
  0
LINE
  5
334
330
1F
100
AcDbEntity
  8
0
100
AcDbLine
 10
52.47345513237846
 20
-47.73933037651916
 30
0.0
 11
52.47345513237846
 21
-53.23933037651916
 31
0.0
  0
LINE
  5
335
330
1F
100
AcDbEntity
  8
0
100
AcDbLine
 10
52.47345513237846
 20
-69.73933037651916
 30
0.0
 11
52.47345513237846
 21
-73.98933037651895
 31
0.0
  0
LINE
  5
336
330
1F
100
AcDbEntity
  8
0
100
AcDbLine
 10
52.47345513237846
 20
-53.23933037651916
 30
0.0
 11
52.47345513237846
 21
-58.73933037651916
 31
0.0
  0
LINE
  5
337
330
1F
100
AcDbEntity
  8
0
100
AcDbLine
 10
52.47345513237846
 20
-58.73933037651916
 30
0.0
 11
52.47345513237846
 21
-64.23933037651916
 31
0.0
  0
LINE
  5
338
330
1F
100
AcDbEntity
  8
0
100
AcDbLine
 10
2.999999999999949
 20
-72.48933037651916
 30
0.0
 11
46.47345513237847
 21
-72.48933037651916
 31
0.0
  0
LINE
  5
339
330
1F
100
AcDbEntity
  8
0
100
AcDbLine
 10
-46.47345513237856
 20
-72.48933037651916
 30
0.0
 11
-3.00000000000004
 21
-72.48933037651916
 31
0.0
  0
ENDSEC
  0
SECTION
  2
OBJECTS
  0
DICTIONARY
  5
C
330
0
100
AcDbDictionary
  3
ACAD_GROUP
350
D
  3
ACAD_LAYOUT
350
1A
  3
ACAD_MATERIAL
350
43
  3
ACAD_MLEADERSTYLE
350
35C
  3
ACAD_MLINESTYLE
350
17
  3
ACAD_PLOTSETTINGS
350
19
  3
ACAD_SCALELIST
350
47
  3
ACAD_VISUALSTYLE
350
2A
  3
ACDBHEADERROUNDTRIPXREC
350
33A
  3
ACDBVARIABLEDICTIONARY
350
35A
  0
DICTIONARY
  5
361
330
8
100
AcDbDictionary
280
     1
  3
ACAD_XREC_ROUNDTRIP
360
362
  0
DICTIONARY
  5
D
102
{ACAD_REACTORS
330
C
102
}
330
C
100
AcDbDictionary
  0
DICTIONARY
  5
1A
102
{ACAD_REACTORS
330
C
102
}
330
C
100
AcDbDictionary
  0
DICTIONARY
  5
43
102
{ACAD_REACTORS
330
C
102
}
330
C
100
AcDbDictionary
  3
BYBLOCK
350
45
  3
BYLAYER
350
44
  3
GLOBAL
350
46
  0
DICTIONARY
  5
35C
102
{ACAD_REACTORS
330
C
102
}
330
C
100
AcDbDictionary
  0
DICTIONARY
  5
17
102
{ACAD_REACTORS
330
C
102
}
330
C
100
AcDbDictionary
  3
STANDARD
350
18
  0
DICTIONARY
  5
19
102
{ACAD_REACTORS
330
C
102
}
330
C
100
AcDbDictionary
  0
DICTIONARY
  5
47
102
{ACAD_REACTORS
330
C
102
}
330
C
100
AcDbDictionary
  3
A0
350
48
  3
A1
350
49
  3
A2
350
4A
  3
A3
350
4B
  3
A4
350
4C
  3
A5
350
4D
  3
A6
350
4E
  3
A7
350
4F
  3
A8
350
50
  3
A9
350
51
  3
B0
350
52
  3
B1
350
53
  3
B2
350
54
  3
B3
350
55
  3
B4
350
56
  3
B5
350
57
  3
B6
350
58
  3
B7
350
59
  3
B8
350
5A
  3
B9
350
5B
  3
C0
350
5C
  3
C1
350
5D
  3
C2
350
5E
  3
C3
350
5F
  3
C4
350
60
  3
C5
350
61
  3
C6
350
62
  3
C7
350
63
  3
C8
350
64
  3
C9
350
65
  3
D0
350
66
  3
D1
350
67
  3
D2
350
68
  0
DICTIONARY
  5
2A
102
{ACAD_REACTORS
330
C
102
}
330
C
100
AcDbDictionary
  3
2DWIREFRAME
350
2F
  3
BASIC
350
32
  3
BRIGHTEN
350
36
  3
COLORCHANGE
350
3A
  3
CONCEPTUAL
350
34
  3
DIM
350
35
  3
EDGECOLOROFF
350
3D
  3
FACEPATTERN
350
39
  3
FLAT
350
2B
  3
FLATWITHEDGES
350
2C
  3
GOURAUD
350
2D
  3
GOURAUDWITHEDGES
350
2E
  3
HIDDEN
350
31
  3
JITTEROFF
350
3B
  3
LINEPATTERN
350
38
  3
OVERHANGOFF
350
3C
  3
REALISTIC
350
33
  3
SHADED
350
42
  3
SHADED_WITH_EDGES
350
41
  3
SHADES_OF_GRAY
350
3E
  3
SKETCHY
350
3F
  3
THICKEN
350
37
  3
WIREFRAME
350
30
  3
X-RAY
350
40
  0
DICTIONARY
  5
33A
102
{ACAD_REACTORS
330
C
102
}
330
C
100
AcDbDictionary
  3
CEPSNTYPE
350
343
  3
DIMSTYLEDATA
350
359
  3
FINGERPRINTGUID
350
344
  3
HYPERLINKBASE
350
33D
  3
INSUNITS
350
342
  3
LAYOUTDICT
350
33F
  3
LWETCUNION
350
341
  3
PLOTSETDICT
350
340
  3
PSVPSCALE
350
346
  3
PUCSBASE
350
349
  3
PUCSORGBACK
350
34F
  3
PUCSORGBOTTOM
350
34B
  3
PUCSORGFRONT
350
34E
  3
PUCSORGLEFT
350
34C
  3
PUCSORGRIGHT
350
34D
  3
PUCSORGTOP
350
34A
  3
PUCSORTHOREF
350
347
  3
PUCSORTHOVIEW
350
348
  3
STYLESHEET
350
33E
  3
TSTACKALIGN
350
33B
  3
TSTACKSIZE
350
33C
  3
UCSBASE
350
352
  3
UCSORGBACK
350
358
  3
UCSORGBOTTOM
350
354
  3
UCSORGFRONT
350
357
  3
UCSORGLEFT
350
355
  3
UCSORGRIGHT
350
356
  3
UCSORGTOP
350
353
  3
UCSORTHOREF
350
350
  3
UCSORTHOVIEW
350
351
  3
VERSIONGUID
350
345
  0
DICTIONARY
  5
35A
102
{ACAD_REACTORS
330
C
102
}
330
C
100
AcDbDictionary
  3
CANNOSCALE
350
363
  3
DIMASSOC
350
35F
  3
HIDETEXT
350
360
  3
MSLTSCALE
350
364
  0
XRECORD
  5
362
102
{ACAD_REACTORS
330
361
102
}
330
361
100
AcDbXrecord
102
VTR_0.000_0.000_1.000_1.000_GRIDDISPLAY
 70
     3
102
VTR_0.000_0.000_1.000_1.000_GRIDMAJOR
 70
     5
102
VTR_0.000_0.000_1.000_1.000_DEFAULTLIGHTING
280
     1
102
VTR_0.000_0.000_1.000_1.000_DEFAULTLIGHTINGTYPE
 70
     1
102
VTR_0.000_0.000_1.000_1.000_BRIGHTNESS
141
0.0
102
VTR_0.000_0.000_1.000_1.000_CONTRAST
142
0.0
  0
MATERIAL
  5
45
102
{ACAD_REACTORS
330
43
102
}
102
{ACAD_XDICTIONARY
360
367
102
}
330
43
100
AcDbMaterial
  1
BYBLOCK
  0
MATERIAL
  5
44
102
{ACAD_REACTORS
330
43
102
}
102
{ACAD_XDICTIONARY
360
365
102
}
330
43
100
AcDbMaterial
  1
BYLAYER
  0
MATERIAL
  5
46
102
{ACAD_REACTORS
330
43
102
}
102
{ACAD_XDICTIONARY
360
369
102
}
330
43
100
AcDbMaterial
  1
GLOBAL
  0
MLINESTYLE
  5
18
102
{ACAD_REACTORS
330
17
102
}
330
17
100
AcDbMlineStyle
  2
Standard
 70
     0
  3

 62
   256
 51
90.0
 52
90.0
 71
     2
 49
0.5
 62
   256
  6
BYLAYER
 49
-0.5
 62
   256
  6
BYLAYER
  0
ACAD_PROXY_OBJECT
  5
48
102
{ACAD_REACTORS
330
47
102
}
330
47
100
AcDbProxyObject
 90
      499
 91
      503
 93
       41
310
903313A31580
  0
ACAD_PROXY_OBJECT
  5
49
102
{ACAD_REACTORS
330
47
102
}
330
47
100
AcDbProxyObject
 90
      499
 91
      503
 93
      105
310
903313A324000000000000004000
  0
ACAD_PROXY_OBJECT
  5
4A
102
{ACAD_REACTORS
330
47
102
}
330
47
100
AcDbProxyObject
 90
      499
 91
      503
 93
      105
310
903313A344000000000000104000
  0
ACAD_PROXY_OBJECT
  5
4B
102
{ACAD_REACTORS
330
47
102
}
330
47
100
AcDbProxyObject
 90
      499
 91
      503
 93
      105
310
903313A354000000000000144000
  0
ACAD_PROXY_OBJECT
  5
4C
102
{ACAD_REACTORS
330
47
102
}
330
47
100
AcDbProxyObject
 90
      499
 91
      503
 93
      105
310
903313A384000000000000204000
  0
ACAD_PROXY_OBJECT
  5
4D
102
{ACAD_REACTORS
330
47
102
}
330
47
100
AcDbProxyObject
 90
      499
 91
      503
 93
      113
310
904313A31304000000000000244000
  0
ACAD_PROXY_OBJECT
  5
4E
102
{ACAD_REACTORS
330
47
102
}
330
47
100
AcDbProxyObject
 90
      499
 91
      503
 93
      113
310
904313A31364000000000000304000
  0
ACAD_PROXY_OBJECT
  5
4F
102
{ACAD_REACTORS
330
47
102
}
330
47
100
AcDbProxyObject
 90
      499
 91
      503
 93
      113
310
904313A32304000000000000344000
  0
ACAD_PROXY_OBJECT
  5
50
102
{ACAD_REACTORS
330
47
102
}
330
47
100
AcDbProxyObject
 90
      499
 91
      503
 93
      113
310
904313A333040000000000003E4000
  0
ACAD_PROXY_OBJECT
  5
51
102
{ACAD_REACTORS
330
47
102
}
330
47
100
AcDbProxyObject
 90
      499
 91
      503
 93
      113
310
904313A34304000000000000444000
  0
ACAD_PROXY_OBJECT
  5
52
102
{ACAD_REACTORS
330
47
102
}
330
47
100
AcDbProxyObject
 90
      499
 91
      503
 93
      113
310
904313A35304000000000000494000
  0
ACAD_PROXY_OBJECT
  5
53
102
{ACAD_REACTORS
330
47
102
}
330
47
100
AcDbProxyObject
 90
      499
 91
      503
 93
      121
310
905313A3130304000000000000594000
  0
ACAD_PROXY_OBJECT
  5
54
102
{ACAD_REACTORS
330
47
102
}
330
47
100
AcDbProxyObject
 90
      499
 91
      503
 93
      105
310
903323A310000000000000010100
  0
ACAD_PROXY_OBJECT
  5
55
102
{ACAD_REACTORS
330
47
102
}
330
47
100
AcDbProxyObject
 90
      499
 91
      503
 93
      105
310
903343A310000000000000410100
  0
ACAD_PROXY_OBJECT
  5
56
102
{ACAD_REACTORS
330
47
102
}
330
47
100
AcDbProxyObject
 90
      499
 91
      503
 93
      105
310
903383A310000000000000810100
  0
ACAD_PROXY_OBJECT
  5
57
102
{ACAD_REACTORS
330
47
102
}
330
47
100
AcDbProxyObject
 90
      499
 91
      503
 93
      113
310
90431303A310000000000000910100
  0
ACAD_PROXY_OBJECT
  5
58
102
{ACAD_REACTORS
330
47
102
}
330
47
100
AcDbProxyObject
 90
      499
 91
      503
 93
      121
310
9053130303A310000000000001650100
  0
ACAD_PROXY_OBJECT
  5
59
102
{ACAD_REACTORS
330
47
102
}
330
47
100
AcDbProxyObject
 90
      499
 91
      503
 93
      257
310
90E312F31323822203D2031272D3022000000000000200FC000000000000284000
  0
ACAD_PROXY_OBJECT
  5
5A
102
{ACAD_REACTORS
330
47
102
}
330
47
100
AcDbProxyObject
 90
      499
 91
      503
 93
      249
310
90D312F363422203D2031272D3022000000000000240FC000000000000284000
  0
ACAD_PROXY_OBJECT
  5
5B
102
{ACAD_REACTORS
330
47
102
}
330
47
100
AcDbProxyObject
 90
      499
 91
      503
 93
      249
310
90D312F333222203D2031272D3022000000000000280FC000000000000284000
  0
ACAD_PROXY_OBJECT
  5
5C
102
{ACAD_REACTORS
330
47
102
}
330
47
100
AcDbProxyObject
 90
      499
 91
      503
 93
      249
310
90D312F313622203D2031272D30220000000000002C0FC000000000000284000
  0
ACAD_PROXY_OBJECT
  5
5D
102
{ACAD_REACTORS
330
47
102
}
330
47
100
AcDbProxyObject
 90
      499
 91
      503
 93
      249
310
90D332F333222203D2031272D30220000000000002E0FC000000000000284000
  0
ACAD_PROXY_OBJECT
  5
5E
102
{ACAD_REACTORS
330
47
102
}
330
47
100
AcDbProxyObject
 90
      499
 91
      503
 93
      241
310
90C312F3822203D2031272D3022000000000000300FC000000000000284000
  0
ACAD_PROXY_OBJECT
  5
5F
102
{ACAD_REACTORS
330
47
102
}
330
47
100
AcDbProxyObject
 90
      499
 91
      503
 93
      249
310
90D332F313622203D2031272D3022000000000000320FC000000000000284000
  0
ACAD_PROXY_OBJECT
  5
60
102
{ACAD_REACTORS
330
47
102
}
330
47
100
AcDbProxyObject
 90
      499
 91
      503
 93
      241
310
90C312F3422203D2031272D3022000000000000340FC000000000000284000
  0
ACAD_PROXY_OBJECT
  5
61
102
{ACAD_REACTORS
330
47
102
}
330
47
100
AcDbProxyObject
 90
      499
 91
      503
 93
      241
310
90C332F3822203D2031272D3022000000000000360FC000000000000284000
  0
ACAD_PROXY_OBJECT
  5
62
102
{ACAD_REACTORS
330
47
102
}
330
47
100
AcDbProxyObject
 90
      499
 91
      503
 93
      241
310
90C312F3222203D2031272D3022000000000000380FC000000000000284000
  0
ACAD_PROXY_OBJECT
  5
63
102
{ACAD_REACTORS
330
47
102
}
330
47
100
AcDbProxyObject
 90
      499
 91
      503
 93
      241
310
90C332F3422203D2031272D30220000000000003A0FC000000000000284000
  0
ACAD_PROXY_OBJECT
  5
64
102
{ACAD_REACTORS
330
47
102
}
330
47
100
AcDbProxyObject
 90
      499
 91
      503
 93
      161
310
90A3122203D2031272D30224000000000000284000
  0
ACAD_PROXY_OBJECT
  5
65
102
{ACAD_REACTORS
330
47
102
}
330
47
100
AcDbProxyObject
 90
      499
 91
      503
 93
      257
310
90E312D312F3222203D2031272D30220000000000003E0FC000000000000284000
  0
ACAD_PROXY_OBJECT
  5
66
102
{ACAD_REACTORS
330
47
102
}
330
47
100
AcDbProxyObject
 90
      499
 91
      503
 93
      225
310
90A3322203D2031272D302200000000000002100000000000000284000
  0
ACAD_PROXY_OBJECT
  5
67
102
{ACAD_REACTORS
330
47
102
}
330
47
100
AcDbProxyObject
 90
      499
 91
      503
 93
      225
310
90A3622203D2031272D302200000000000006100000000000000284000
  0
ACAD_PROXY_OBJECT
  5
68
102
{ACAD_REACTORS
330
47
102
}
330
47
100
AcDbProxyObject
 90
      499
 91
      503
 93
      249
310
90D31272D3022203D2031272D30220000000000000A100000000000000284000
  0
ACAD_PROXY_OBJECT
  5
2F
102
{ACAD_REACTORS
330
2A
102
}
330
2A
100
AcDbProxyObject
 90
      499
 91
      501
 93
      436
310
42CC9915DA5C99599C985B595049028333333333333E33F0000000000000F90107901411070040501600405405064090741402480A0340
1001
ACAD
1000
AcDbSavedByObjectVersion
1070
     0
  0
ACAD_PROXY_OBJECT
  5
32
102
{ACAD_REACTORS
330
2A
102
}
330
2A
100
AcDbProxyObject
 90
      499
 91
      501
 93
      388
310
4150985CDA58D07406404333333333333E33F0000000000000F90107A41107004050150841D405064090741402480A0350
1001
ACAD
1000
AcDbSavedByObjectVersion
1070
     0
  0
ACAD_PROXY_OBJECT
  5
36
102
{ACAD_REACTORS
330
2A
102
}
330
2A
100
AcDbProxyObject
 90
      499
 91
      501
 93
      428
310
42109C9A59DA1D195B90C409028333333333333E33F0000000000000F9010790141107004050150841D405064090741402480A029950
1001
ACAD
1000
AcDbSavedByObjectVersion
1070
     0
  0
ACAD_PROXY_OBJECT
  5
3A
102
{ACAD_REACTORS
330
2A
102
}
330
2A
100
AcDbProxyObject
 90
      499
 91
      501
 93
      452
310
42D0DBDB1BDC90DA185B99D95104090240C333333333333E33F0000000000000F90108901411070040501508421405064090741402480A0350
1001
ACAD
1000
AcDbSavedByObjectVersion
1070
     0
  0
ACAD_PROXY_OBJECT
  5
34
102
{ACAD_REACTORS
330
2A
102
}
330
2A
100
AcDbProxyObject
 90
      499
 91
      501
 93
      500
310
4290DBDB98D95C1D1D585B10940D028333333333333E33F0000000000000F90107902409070040501000000000018199010841D405064090740C02480A0340
1001
ACAD
1000
AcDbSavedByObjectVersion
1070
     0
  0
ACAD_PROXY_OBJECT
  5
35
102
{ACAD_REACTORS
330
2A
102
}
330
2A
100
AcDbProxyObject
 90
      499
 91
      501
 93
      412
310
40D11A5B50B409028333333333333E33F0000000000000F9010790141107004050150841D405064090741402480A02677FFFFFD0
1001
ACAD
1000
AcDbSavedByObjectVersion
1070
     0
  0
ACAD_PROXY_OBJECT
  5
3D
102
{ACAD_REACTORS
330
2A
102
}
330
2A
100
AcDbProxyObject
 90
      499
 91
      501
 93
      452
310
43115919D950DBDB1BDC93D999916409028333333333333E33F0000000000000F9010790141107004050150841D405064090741402480A0350
1001
ACAD
1000
AcDbSavedByObjectVersion
1070
     0
  0
ACAD_PROXY_OBJECT
  5
39
102
{ACAD_REACTORS
330
2A
102
}
330
2A
100
AcDbProxyObject
 90
      499
 91
      501
 93
      444
310
42D19858D95C185D1D195C9B90F409028333333333333E33F0000000000000F9010790141107004050150841D405064090741402480A0350
1001
ACAD
1000
AcDbSavedByObjectVersion
1070
     0
  0
ACAD_PROXY_OBJECT
  5
2B
102
{ACAD_REACTORS
330
2A
102
}
330
2A
100
AcDbProxyObject
 90
      499
 91
      501
 93
      380
310
41119B185D240901404333333333333E33F0000000000000F9010740A907004050150841D405064090741402480A1B50
1001
ACAD
1000
AcDbSavedByObjectVersion
1070
     0
  0
ACAD_PROXY_OBJECT
  5
2C
102
{ACAD_REACTORS
330
2A
102
}
330
2A
100
AcDbProxyObject
 90
      499
 91
      501
 93
      468
310
43519B185D15DA5D1A115919D95CD0140901404333333333333E33F0000000000000F90107409019070040501600405405064090741402480A1B50
1001
ACAD
1000
AcDbSavedByObjectVersion
1070
     0
  0
ACAD_PROXY_OBJECT
  5
2D
102
{ACAD_REACTORS
330
2A
102
}
330
2A
100
AcDbProxyObject
 90
      499
 91
      501
 93
      404
310
41D1DBDD5C985D5910240902404333333333333E33F0000000000000F9010740A9070040501641D405064090741402480A1B50
1001
ACAD
1000
AcDbSavedByObjectVersion
1070
     0
  0
ACAD_PROXY_OBJECT
  5
2E
102
{ACAD_REACTORS
330
2A
102
}
330
2A
100
AcDbProxyObject
 90
      499
 91
      501
 93
      492
310
4411DBDD5C985D5915DA5D1A115919D95CD0340902404333333333333E33F0000000000000F90107409019070040501600405405064090741402480A1B50
1001
ACAD
1000
AcDbSavedByObjectVersion
1070
     0
  0
ACAD_PROXY_OBJECT
  5
31
102
{ACAD_REACTORS
330
2A
102
}
330
2A
100
AcDbProxyObject
 90
      499
 91
      501
 93
      476
310
41921A5919195B90640502408333333333333E33F0000000000000F901079024090700405020000000000001110200405405064090740C02480A0340
1001
ACAD
1000
AcDbSavedByObjectVersion
1070
     0
  0
ACAD_PROXY_OBJECT
  5
3B
102
{ACAD_REACTORS
330
2A
102
}
330
2A
100
AcDbProxyObject
 90
      499
 91
      501
 93
      428
310
42529A5D1D195C93D999914409028333333333333E33F0000000000000F9010790141107004050150A41D405064090741402480A0350
1001
ACAD
1000
AcDbSavedByObjectVersion
1070
     0
  0
ACAD_PROXY_OBJECT
  5
38
102
{ACAD_REACTORS
330
2A
102
}
330
2A
100
AcDbProxyObject
 90
      499
 91
      501
 93
      444
310
42D31A5B995C185D1D195C9B90E409028333333333333E33F0000000000000F9010790141107004050750841D405064090741402483A0350
1001
ACAD
1000
AcDbSavedByObjectVersion
1070
     0
  0
ACAD_PROXY_OBJECT
  5
3C
102
{ACAD_REACTORS
330
2A
102
}
330
2A
100
AcDbProxyObject
 90
      499
 91
      501
 93
      444
310
42D3DD995C9A185B99D3D999915409028333333333333E33F0000000000000F9010790141107004050150941D405064090741402480A0350
1001
ACAD
1000
AcDbSavedByObjectVersion
1070
     0
  0
ACAD_PROXY_OBJECT
  5
33
102
{ACAD_REACTORS
330
2A
102
}
330
2A
100
AcDbProxyObject
 90
      499
 91
      501
 93
      428
310
425499585B1A5CDD1A58D08409038333333333333E33F0000000000000F9010740A907004050150800405405064090740C02480A1B40
1001
ACAD
1000
AcDbSavedByObjectVersion
1070
     0
  0
ACAD_PROXY_OBJECT
  5
42
102
{ACAD_REACTORS
330
2A
102
}
330
2A
100
AcDbProxyObject
 90
      499
 91
      501
 93
      420
310
4194DA1859195911B40902404333333333333E33F0000000000000F9010740A41107004050150800405405064090840C02480A0B40
1001
ACAD
1000
AcDbSavedByObjectVersion
1070
     0
  0
ACAD_PROXY_OBJECT
  5
41
102
{ACAD_REACTORS
330
2A
102
}
330
2A
100
AcDbProxyObject
 90
      499
 91
      501
 93
      516
310
4454DA18591959081DDA5D1A08195919D95CD1A40902404333333333333E33F0000000000000F901074090142907004050250800405405064090740C02480A0B40
1001
ACAD
1000
AcDbSavedByObjectVersion
1070
     0
  0
ACAD_PROXY_OBJECT
  5
3E
102
{ACAD_REACTORS
330
2A
102
}
330
2A
100
AcDbProxyObject
 90
      499
 91
      501
 93
      532
310
4394DA1859195CC81BD98811DC985E5174090240C333333333333E33F0000000000000F901079024090741D01000000000000111010841D405064090740C02480A0340
1001
ACAD
1000
AcDbSavedByObjectVersion
1070
     0
  0
ACAD_PROXY_OBJECT
  5
3F
102
{ACAD_REACTORS
330
2A
102
}
330
2A
100
AcDbProxyObject
 90
      499
 91
      501
 93
      476
310
41D4DAD95D18DA1E51840502408333333333333E33F0000000000000F901079024090741D01000000000000111010B41D405064090741802480A0340
1001
ACAD
1000
AcDbSavedByObjectVersion
1070
     0
  0
ACAD_PROXY_OBJECT
  5
37
102
{ACAD_REACTORS
330
2A
102
}
330
2A
100
AcDbProxyObject
 90
      499
 91
      501
 93
      412
310
41D51A1A58DAD95B90D409028333333333333E33F0000000000000F9010790141107004050150C41D405064090741402480A0350
1001
ACAD
1000
AcDbSavedByObjectVersion
1070
     0
  0
ACAD_PROXY_OBJECT
  5
30
102
{ACAD_REACTORS
330
2A
102
}
330
2A
100
AcDbProxyObject
 90
      499
 91
      501
 93
      420
310
4255DA5C99599C985B595059028333333333333E33F0000000000000F90107901411070040501600405405064090740C02480A0340
1001
ACAD
1000
AcDbSavedByObjectVersion
1070
     0
  0
ACAD_PROXY_OBJECT
  5
40
102
{ACAD_REACTORS
330
2A
102
}
330
2A
100
AcDbProxyObject
 90
      499
 91
      501
 93
      404
310
41560B54985E51940902404000000000000E03F0000000000000F9010740501907004050150841D405064090740C02480A1B40
1001
ACAD
1000
AcDbSavedByObjectVersion
1070
     0
  0
XRECORD
  5
343
102
{ACAD_REACTORS
330
33A
102
}
330
33A
100
AcDbXrecord
 90
        0
  0
XRECORD
  5
359
102
{ACAD_REACTORS
330
33A
102
}
330
33A
100
AcDbXrecord
1000
DSTYLE
1002
{
1070
   340
340
11
1002
}
  0
XRECORD
  5
344
102
{ACAD_REACTORS
330
33A
102
}
330
33A
100
AcDbXrecord
  1
{F1B647F4-94D9-4683-A1EF-3BEC9F793BD6}
  0
XRECORD
  5
33D
102
{ACAD_REACTORS
330
33A
102
}
330
33A
100
AcDbXrecord
  1

  0
XRECORD
  5
342
102
{ACAD_REACTORS
330
33A
102
}
330
33A
100
AcDbXrecord
 90
        1
  0
XRECORD
  5
33F
102
{ACAD_REACTORS
330
33A
102
}
330
33A
100
AcDbXrecord
340
1A
  0
XRECORD
  5
341
102
{ACAD_REACTORS
330
33A
102
}
330
33A
100
AcDbXrecord
 90
    10781
  0
XRECORD
  5
340
102
{ACAD_REACTORS
330
33A
102
}
330
33A
100
AcDbXrecord
340
19
  0
XRECORD
  5
346
102
{ACAD_REACTORS
330
33A
102
}
330
33A
100
AcDbXrecord
 40
0.0
  0
XRECORD
  5
349
102
{ACAD_REACTORS
330
33A
102
}
330
33A
100
AcDbXrecord
340
0
  0
XRECORD
  5
34F
102
{ACAD_REACTORS
330
33A
102
}
330
33A
100
AcDbXrecord
 10
0.0
 20
0.0
 30
0.0
  0
XRECORD
  5
34B
102
{ACAD_REACTORS
330
33A
102
}
330
33A
100
AcDbXrecord
 10
0.0
 20
0.0
 30
0.0
  0
XRECORD
  5
34E
102
{ACAD_REACTORS
330
33A
102
}
330
33A
100
AcDbXrecord
 10
0.0
 20
0.0
 30
0.0
  0
XRECORD
  5
34C
102
{ACAD_REACTORS
330
33A
102
}
330
33A
100
AcDbXrecord
 10
0.0
 20
0.0
 30
0.0
  0
XRECORD
  5
34D
102
{ACAD_REACTORS
330
33A
102
}
330
33A
100
AcDbXrecord
 10
0.0
 20
0.0
 30
0.0
  0
XRECORD
  5
34A
102
{ACAD_REACTORS
330
33A
102
}
330
33A
100
AcDbXrecord
 10
0.0
 20
0.0
 30
0.0
  0
XRECORD
  5
347
102
{ACAD_REACTORS
330
33A
102
}
330
33A
100
AcDbXrecord
340
0
  0
XRECORD
  5
348
102
{ACAD_REACTORS
330
33A
102
}
330
33A
100
AcDbXrecord
 70
     0
  0
XRECORD
  5
33E
102
{ACAD_REACTORS
330
33A
102
}
330
33A
100
AcDbXrecord
  1

  0
XRECORD
  5
33B
102
{ACAD_REACTORS
330
33A
102
}
330
33A
100
AcDbXrecord
 90
        1
  0
XRECORD
  5
33C
102
{ACAD_REACTORS
330
33A
102
}
330
33A
100
AcDbXrecord
 90
       70
  0
XRECORD
  5
352
102
{ACAD_REACTORS
330
33A
102
}
330
33A
100
AcDbXrecord
340
0
  0
XRECORD
  5
358
102
{ACAD_REACTORS
330
33A
102
}
330
33A
100
AcDbXrecord
 10
0.0
 20
0.0
 30
0.0
  0
XRECORD
  5
354
102
{ACAD_REACTORS
330
33A
102
}
330
33A
100
AcDbXrecord
 10
0.0
 20
0.0
 30
0.0
  0
XRECORD
  5
357
102
{ACAD_REACTORS
330
33A
102
}
330
33A
100
AcDbXrecord
 10
0.0
 20
0.0
 30
0.0
  0
XRECORD
  5
355
102
{ACAD_REACTORS
330
33A
102
}
330
33A
100
AcDbXrecord
 10
0.0
 20
0.0
 30
0.0
  0
XRECORD
  5
356
102
{ACAD_REACTORS
330
33A
102
}
330
33A
100
AcDbXrecord
 10
0.0
 20
0.0
 30
0.0
  0
XRECORD
  5
353
102
{ACAD_REACTORS
330
33A
102
}
330
33A
100
AcDbXrecord
 10
0.0
 20
0.0
 30
0.0
  0
XRECORD
  5
350
102
{ACAD_REACTORS
330
33A
102
}
330
33A
100
AcDbXrecord
340
0
  0
XRECORD
  5
351
102
{ACAD_REACTORS
330
33A
102
}
330
33A
100
AcDbXrecord
 70
     0
  0
XRECORD
  5
345
102
{ACAD_REACTORS
330
33A
102
}
330
33A
100
AcDbXrecord
  1
{FAEB1C32-E019-11D5-929B-00C0DF256EC4}
  0
DICTIONARYVAR
  5
363
102
{ACAD_REACTORS
330
35A
102
}
330
35A
100
DictionaryVariables
280
     0
  1
1:1
  0
DICTIONARYVAR
  5
35F
102
{ACAD_REACTORS
330
35A
102
}
330
35A
100
DictionaryVariables
280
     0
  1
2
  0
DICTIONARYVAR
  5
360
102
{ACAD_REACTORS
330
35A
102
}
330
35A
100
DictionaryVariables
280
     0
  1
1
  0
DICTIONARYVAR
  5
364
102
{ACAD_REACTORS
330
35A
102
}
330
35A
100
DictionaryVariables
280
     0
  1
1
  0
DICTIONARY
  5
367
330
45
100
AcDbDictionary
280
     1
  3
ACAD_XREC_ROUNDTRIP
360
368
  0
DICTIONARY
  5
365
330
44
100
AcDbDictionary
280
     1
  3
ACAD_XREC_ROUNDTRIP
360
366
  0
DICTIONARY
  5
369
330
46
100
AcDbDictionary
280
     1
  3
ACAD_XREC_ROUNDTRIP
360
36A
  0
XRECORD
  5
368
102
{ACAD_REACTORS
330
367
102
}
330
367
100
AcDbXrecord
102
MATERIAL
148
0.0
149
0.0
149
0.0
 93
        0
 94
      127
282
     0
 72
     1
 77
     1
171
     1
175
     1
179
     1
273
     0
  0
XRECORD
  5
366
102
{ACAD_REACTORS
330
365
102
}
330
365
100
AcDbXrecord
102
MATERIAL
148
0.0
149
0.0
149
0.0
 93
        0
 94
      127
282
     0
 72
     1
 77
     1
171
     1
175
     1
179
     1
273
     0
  0
XRECORD
  5
36A
102
{ACAD_REACTORS
330
369
102
}
330
369
100
AcDbXrecord
102
MATERIAL
148
0.0
149
0.0
149
0.0
 93
        0
 94
      127
282
     0
 72
     1
 77
     1
171
     1
175
     1
179
     1
273
     0
  0
ENDSEC
  0
EOF
