  0
SECTION
  2
HEADER
  9
$ACADVER
  1
AC1014
  9
$ACADMAINTVER
 70
     9
  9
$DWGCODEPAGE
  3
ANSI_1252
  9
$INSBASE
 10
0.0
 20
0.0
 30
0.0
  9
$EXTMIN
 10
1.000000000000000E+20
 20
1.000000000000000E+20
 30
1.000000000000000E+20
  9
$EXTMAX
 10
-1.000000000000000E+20
 20
-1.000000000000000E+20
 30
-1.000000000000000E+20
  9
$LIMMIN
 10
0.0
 20
0.0
  9
$LIMMAX
 10
12.0
 20
9.0
  9
$ORTHOMODE
 70
     0
  9
$REGENMODE
 70
     1
  9
$FILLMODE
 70
     1
  9
$QTEXTMODE
 70
     0
  9
$MIRRTEXT
 70
     1
  9
$DRAGMODE
 70
     2
  9
$LTSCALE
 40
1.0
  9
$OSMODE
 70
    37
  9
$ATTMODE
 70
     1
  9
$TEXTSIZE
 40
0.2
  9
$TRACEWID
 40
0.05
  9
$TEXTSTYLE
  7
STANDARD
  9
$CLAYER
  8
0
  9
$CELTYPE
  6
BYLAYER
  9
$CECOLOR
 62
   256
  9
$CELTSCALE
 40
1.0
  9
$DELOBJ
 70
     1
  9
$DISPSILH
 70
     0
  9
$DIMSCALE
 40
1.0
  9
$DIMASZ
 40
0.18
  9
$DIMEXO
 40
0.0625
  9
$DIMDLI
 40
0.38
  9
$DIMRND
 40
0.0
  9
$DIMDLE
 40
0.0
  9
$DIMEXE
 40
0.18
  9
$DIMTP
 40
0.0
  9
$DIMTM
 40
0.0
  9
$DIMTXT
 40
0.18
  9
$DIMCEN
 40
0.09
  9
$DIMTSZ
 40
0.0
  9
$DIMTOL
 70
     0
  9
$DIMLIM
 70
     0
  9
$DIMTIH
 70
     1
  9
$DIMTOH
 70
     1
  9
$DIMSE1
 70
     0
  9
$DIMSE2
 70
     0
  9
$DIMTAD
 70
     0
  9
$DIMZIN
 70
     0
  9
$DIMBLK
  1

  9
$DIMASO
 70
     1
  9
$DIMSHO
 70
     1
  9
$DIMPOST
  1

  9
$DIMAPOST
  1

  9
$DIMALT
 70
     0
  9
$DIMALTD
 70
     2
  9
$DIMALTF
 40
25.4
  9
$DIMLFAC
 40
1.0
  9
$DIMTOFL
 70
     0
  9
$DIMTVP
 40
0.0
  9
$DIMTIX
 70
     0
  9
$DIMSOXD
 70
     0
  9
$DIMSAH
 70
     0
  9
$DIMBLK1
  1

  9
$DIMBLK2
  1

  9
$DIMSTYLE
  2
STANDARD
  9
$DIMCLRD
 70
     0
  9
$DIMCLRE
 70
     0
  9
$DIMCLRT
 70
     0
  9
$DIMTFAC
 40
1.0
  9
$DIMGAP
 40
0.09
  9
$DIMJUST
 70
     0
  9
$DIMSD1
 70
     0
  9
$DIMSD2
 70
     0
  9
$DIMTOLJ
 70
     1
  9
$DIMTZIN
 70
     0
  9
$DIMALTZ
 70
     0
  9
$DIMALTTZ
 70
     0
  9
$DIMFIT
 70
     3
  9
$DIMUPT
 70
     0
  9
$DIMUNIT
 70
     2
  9
$DIMDEC
 70
     4
  9
$DIMTDEC
 70
     4
  9
$DIMALTU
 70
     2
  9
$DIMALTTD
 70
     2
  9
$DIMTXSTY
  7
STANDARD
  9
$DIMAUNIT
 70
     0
  9
$LUNITS
 70
     2
  9
$LUPREC
 70
     4
  9
$SKETCHINC
 40
0.1
  9
$FILLETRAD
 40
0.5
  9
$AUNITS
 70
     0
  9
$AUPREC
 70
     0
  9
$MENU
  1
.
  9
$ELEVATION
 40
0.0
  9
$PELEVATION
 40
0.0
  9
$THICKNESS
 40
0.0
  9
$LIMCHECK
 70
     0
  9
$CHAMFERA
 40
0.0
  9
$CHAMFERB
 40
0.0
  9
$CHAMFERC
 40
0.0
  9
$CHAMFERD
 40
0.0
  9
$SKPOLY
 70
     0
  9
$TDCREATE
 40
2456913.671856921
  9
$TDUPDATE
 40
2456913.671857095
  9
$TDINDWG
 40
0.0000000116
  9
$TDUSRTIMER
 40
0.0000000116
  9
$USRTIMER
 70
     1
  9
$ANGBASE
 50
0.0
  9
$ANGDIR
 70
     0
  9
$PDMODE
 70
     0
  9
$PDSIZE
 40
0.0
  9
$PLINEWID
 40
0.0
  9
$COORDS
 70
     1
  9
$SPLFRAME
 70
     0
  9
$SPLINETYPE
 70
     6
  9
$SPLINESEGS
 70
     8
  9
$ATTDIA
 70
     0
  9
$ATTREQ
 70
     1
  9
$HANDLING
 70
     1
  9
$HANDSEED
  5
361
  9
$SURFTAB1
 70
     6
  9
$SURFTAB2
 70
     6
  9
$SURFTYPE
 70
     6
  9
$SURFU
 70
     6
  9
$SURFV
 70
     6
  9
$UCSNAME
  2

  9
$UCSORG
 10
0.0
 20
0.0
 30
0.0
  9
$UCSXDIR
 10
1.0
 20
0.0
 30
0.0
  9
$UCSYDIR
 10
0.0
 20
1.0
 30
0.0
  9
$PUCSNAME
  2

  9
$PUCSORG
 10
0.0
 20
0.0
 30
0.0
  9
$PUCSXDIR
 10
1.0
 20
0.0
 30
0.0
  9
$PUCSYDIR
 10
0.0
 20
1.0
 30
0.0
  9
$USERI1
 70
     0
  9
$USERI2
 70
     0
  9
$USERI3
 70
     0
  9
$USERI4
 70
     0
  9
$USERI5
 70
     0
  9
$USERR1
 40
0.0
  9
$USERR2
 40
0.0
  9
$USERR3
 40
0.0
  9
$USERR4
 40
0.0
  9
$USERR5
 40
0.0
  9
$WORLDVIEW
 70
     1
  9
$SHADEDGE
 70
     3
  9
$SHADEDIF
 70
    70
  9
$TILEMODE
 70
     1
  9
$MAXACTVP
 70
    64
  9
$PINSBASE
 10
0.0
 20
0.0
 30
0.0
  9
$PLIMCHECK
 70
     0
  9
$PEXTMIN
 10
1.000000000000000E+20
 20
1.000000000000000E+20
 30
1.000000000000000E+20
  9
$PEXTMAX
 10
-1.000000000000000E+20
 20
-1.000000000000000E+20
 30
-1.000000000000000E+20
  9
$PLIMMIN
 10
0.0
 20
0.0
  9
$PLIMMAX
 10
12.0
 20
9.0
  9
$UNITMODE
 70
     0
  9
$VISRETAIN
 70
     1
  9
$PLINEGEN
 70
     0
  9
$PSLTSCALE
 70
     1
  9
$TREEDEPTH
 70
  3020
  9
$PICKSTYLE
 70
     1
  9
$CMLSTYLE
  2
STANDARD
  9
$CMLJUST
 70
     0
  9
$CMLSCALE
 40
1.0
  9
$PROXYGRAPHICS
 70
     1
  9
$MEASUREMENT
 70
     0
  0
ENDSEC
  0
SECTION
  2
CLASSES
  0
CLASS
  1
ACDBDICTIONARYWDFLT
  2
AcDbDictionaryWithDefault
  3
ObjectDBX Classes
 90
        0
280
     0
281
     0
  0
CLASS
  1
VISUALSTYLE
  2
AcDbVisualStyle
  3
ObjectDBX Classes
 90
     4095
280
     0
281
     0
  0
CLASS
  1
MATERIAL
  2
AcDbMaterial
  3
ObjectDBX Classes
 90
     1153
280
     0
281
     0
  0
CLASS
  1
SCALE
  2
AcDbScale
  3
ObjectDBX Classes
 90
     1153
280
     0
281
     0
  0
CLASS
  1
SUN
  2
AcDbSun
  3
SCENEOE
 90
     1153
280
     0
281
     0
  0
CLASS
  1
DICTIONARYVAR
  2
AcDbDictionaryVar
  3
ObjectDBX Classes
 90
        0
280
     0
281
     0
  0
CLASS
  1
XRECORD
  2
AcDbXrecord
  3
ObjectDBX Classes
 90
        0
280
     0
281
     0
  0
CLASS
  1
LWPOLYLINE
  2
AcDbPolyline
  3
ObjectDBX Classes
 90
        0
280
     0
281
     1
  0
CLASS
  1
HATCH
  2
AcDbHatch
  3
ObjectDBX Classes
 90
        0
280
     0
281
     1
  0
CLASS
  1
ACDBPLACEHOLDER
  2
AcDbPlaceHolder
  3
ObjectDBX Classes
 90
        0
280
     0
281
     0
  0
CLASS
  1
LAYOUT
  2
AcDbLayout
  3
ObjectDBX Classes
 90
        0
280
     0
281
     0
  0
ENDSEC
  0
SECTION
  2
TABLES
  0
TABLE
  2
VPORT
  5
8
102
{ACAD_XDICTIONARY
360
357
102
}
330
0
100
AcDbSymbolTable
 70
     1
  0
VPORT
  5
29
330
8
100
AcDbSymbolTableRecord
100
AcDbViewportTableRecord
  2
*ACTIVE
 70
     0
 10
0.0
 20
0.0
 11
1.0
 21
1.0
 12
0.0
 22
0.0
 13
0.0
 23
0.0
 14
0.5
 24
0.5
 15
0.5
 25
0.5
 16
0.0
 26
0.0
 36
1.0
 17
0.0
 27
0.0
 37
-1000.0
 40
155.7670113189873
 41
2.199770378874856
 42
50.0
 43
475.1298461376218
 44
608.6542563904267
 50
0.0
 51
0.0
 71
     0
 72
   100
 73
     1
 74
     3
 75
     0
 76
     0
 77
     0
 78
     0
  0
ENDTAB
  0
TABLE
  2
LTYPE
  5
5
330
0
100
AcDbSymbolTable
 70
     1
  0
LTYPE
  5
14
330
5
100
AcDbSymbolTableRecord
100
AcDbLinetypeTableRecord
  2
BYBLOCK
 70
     0
  3

 72
    65
 73
     0
 40
0.0
  0
LTYPE
  5
15
330
5
100
AcDbSymbolTableRecord
100
AcDbLinetypeTableRecord
  2
BYLAYER
 70
     0
  3

 72
    65
 73
     0
 40
0.0
  0
LTYPE
  5
16
330
5
100
AcDbSymbolTableRecord
100
AcDbLinetypeTableRecord
  2
CONTINUOUS
 70
     0
  3
Solid line
 72
    65
 73
     0
 40
0.0
  0
ENDTAB
  0
TABLE
  2
LAYER
  5
2
330
0
100
AcDbSymbolTable
 70
     3
  0
LAYER
  5
10
330
2
100
AcDbSymbolTableRecord
100
AcDbLayerTableRecord
  2
0
 70
     0
 62
     7
  6
CONTINUOUS
  0
LAYER
  5
6A
330
2
100
AcDbSymbolTableRecord
100
AcDbLayerTableRecord
  2
PROFILEEDGES
 70
     0
 62
     7
  6
CONTINUOUS
  0
LAYER
  5
6B
330
2
100
AcDbSymbolTableRecord
100
AcDbLayerTableRecord
  2
SECTIONCUTEDGES
 70
     0
 62
     7
  6
CONTINUOUS
  0
ENDTAB
  0
TABLE
  2
STYLE
  5
3
330
0
100
AcDbSymbolTable
 70
     1
  0
STYLE
  5
11
330
3
100
AcDbSymbolTableRecord
100
AcDbTextStyleTableRecord
  2
STANDARD
 70
     0
 40
0.0
 41
1.0
 50
0.0
 71
     0
 42
0.2
  3
txt
  4

  0
ENDTAB
  0
TABLE
  2
VIEW
  5
6
330
0
100
AcDbSymbolTable
 70
     0
  0
ENDTAB
  0
TABLE
  2
UCS
  5
7
330
0
100
AcDbSymbolTable
 70
     0
  0
ENDTAB
  0
TABLE
  2
APPID
  5
9
330
0
100
AcDbSymbolTable
 70
     1
  0
APPID
  5
12
330
9
100
AcDbSymbolTableRecord
100
AcDbRegAppTableRecord
  2
ACAD
 70
     0
  0
ENDTAB
  0
TABLE
  2
DIMSTYLE
  5
A
330
0
100
AcDbSymbolTable
 70
     1
  0
DIMSTYLE
105
27
330
A
100
AcDbSymbolTableRecord
100
AcDbDimStyleTableRecord
  2
STANDARD
 70
     0
  3

  4

  5

  6

  7

 40
1.0
 41
0.18
 42
0.0625
 43
0.38
 44
0.18
 45
0.0
 46
0.0
 47
0.0
 48
0.0
140
0.18
141
0.09
142
0.0
143
25.4
144
1.0
145
0.0
146
1.0
147
0.09
 71
     0
 72
     0
 73
     1
 74
     1
 75
     0
 76
     0
 77
     0
 78
     0
170
     0
171
     2
172
     0
173
     0
174
     0
175
     0
176
     0
177
     0
178
     0
270
     2
271
     4
272
     4
273
     2
274
     2
340
11
275
     0
280
     0
281
     0
282
     0
283
     1
284
     0
285
     0
286
     0
287
     3
288
     0
  0
ENDTAB
  0
TABLE
  2
BLOCK_RECORD
  5
1
330
0
100
AcDbSymbolTable
 70
     1
  0
BLOCK_RECORD
  5
1F
330
1
100
AcDbSymbolTableRecord
100
AcDbBlockTableRecord
  2
*MODEL_SPACE
  0
BLOCK_RECORD
  5
1B
330
1
100
AcDbSymbolTableRecord
100
AcDbBlockTableRecord
  2
*PAPER_SPACE
  0
ENDTAB
  0
ENDSEC
  0
SECTION
  2
BLOCKS
  0
BLOCK
  5
20
330
1F
100
AcDbEntity
  8
0
100
AcDbBlockBegin
  2
*MODEL_SPACE
 70
     0
 10
0.0
 20
0.0
 30
0.0
  3
*MODEL_SPACE
  1

  0
ENDBLK
  5
21
330
1F
100
AcDbEntity
  8
0
100
AcDbBlockEnd
  0
BLOCK
  5
1C
330
1B
100
AcDbEntity
 67
     1
  8
0
100
AcDbBlockBegin
  2
*PAPER_SPACE
 70
     0
 10
0.0
 20
0.0
 30
0.0
  3
*PAPER_SPACE
  1

  0
ENDBLK
  5
1D
330
1B
100
AcDbEntity
 67
     1
  8
0
100
AcDbBlockEnd
  0
ENDSEC
  0
SECTION
  2
ENTITIES
  0
LINE
  5
6C
330
1F
100
AcDbEntity
  8
0
100
AcDbLine
 10
-52.4734551323785
 20
73.98933037651895
 30
0.0
 11
52.4734551323785
 21
73.98933037651895
 31
0.0
  0
LINE
  5
6D
330
1F
100
AcDbEntity
  8
0
100
AcDbLine
 10
-52.44875398262589
 20
29.51066962348087
 30
0.0
 11
-27.73560471505849
 21
29.51066962348087
 31
0.0
  0
LINE
  5
6E
330
1F
100
AcDbEntity
  8
0
100
AcDbLine
 10
-21.73560376866543
 20
29.51066962348087
 30
0.0
 11
21.73672756618926
 21
29.51066962348087
 31
0.0
  0
LINE
  5
6F
330
1F
100
AcDbEntity
  8
0
100
AcDbLine
 10
27.73672756618925
 20
29.51066962348087
 30
0.0
 11
52.4734551323785
 21
29.51066962348087
 31
0.0
  0
LINE
  5
70
330
1F
100
AcDbEntity
  8
0
100
AcDbLine
 10
2.999999999999995
 20
32.01066962348087
 30
0.0
 11
46.47345513237852
 21
32.01066962348087
 31
0.0
  0
LINE
  5
71
330
1F
100
AcDbEntity
  8
0
100
AcDbLine
 10
-46.47345513237852
 20
32.01066962348087
 30
0.0
 11
-2.999999999999995
 21
32.01066962348087
 31
0.0
  0
LINE
  5
72
330
1F
100
AcDbEntity
  8
0
100
AcDbLine
 10
-21.73560376866543
 20
-73.98933037651895
 30
0.0
 11
21.73672756618926
 21
-73.98933037651895
 31
0.0
  0
LINE
  5
73
330
1F
100
AcDbEntity
  8
0
100
AcDbLine
 10
-52.44875398262589
 20
-73.98933037651895
 30
0.0
 11
-27.73560471505849
 21
-73.98933037651895
 31
0.0
  0
LINE
  5
74
330
1F
100
AcDbEntity
  8
0
100
AcDbLine
 10
27.73672756618925
 20
-73.98933037651895
 30
0.0
 11
52.4734551323785
 21
-73.98933037651895
 31
0.0
  0
LINE
  5
75
330
1F
100
AcDbEntity
  8
0
100
AcDbLine
 10
-52.4734551323785
 20
73.98933037651895
 30
0.0
 11
-52.44875398262589
 21
29.51066962348087
 31
0.0
  0
LINE
  5
76
330
1F
100
AcDbEntity
  8
0
100
AcDbLine
 10
-52.44875398262589
 20
29.51066962348087
 30
0.0
 11
-52.44875398262589
 21
24.51066962348088
 31
0.0
  0
LINE
  5
77
330
1F
100
AcDbEntity
  8
0
100
AcDbLine
 10
52.4734551323785
 20
29.51066962348087
 30
0.0
 11
52.4734551323785
 21
24.51066962348088
 31
0.0
  0
LINE
  5
78
330
1F
100
AcDbEntity
  8
0
100
AcDbLine
 10
21.73672756618926
 20
-73.98933037651895
 30
0.0
 11
27.73672756618925
 21
-73.98933037651895
 31
0.0
  0
LINE
  5
79
330
1F
100
AcDbEntity
  8
0
100
AcDbLine
 10
52.4734551323785
 20
73.98933037651895
 30
0.0
 11
52.4734551323785
 21
29.51066962348087
 31
0.0
  0
LINE
  5
7A
330
1F
100
AcDbEntity
  8
0
100
AcDbLine
 10
-27.73560471505849
 20
-73.98933037651895
 30
0.0
 11
-21.73560376866543
 21
-73.98933037651895
 31
0.0
  0
LINE
  5
7B
330
1F
100
AcDbEntity
  8
0
100
AcDbLine
 10
-43.56865710047079
 20
45.67356893384287
 30
0.0
 11
-33.13529758010566
 21
45.67356893384287
 31
0.0
  0
LINE
  5
7C
330
1F
100
AcDbEntity
  8
0
100
AcDbLine
 10
-43.56865710047079
 20
49.67356893384287
 30
0.0
 11
-33.13529758010566
 21
49.67356893384287
 31
0.0
  0
LINE
  5
7D
330
1F
100
AcDbEntity
  8
0
100
AcDbLine
 10
-49.50574142776188
 20
47.67356893384287
 30
0.0
 11
-39.07211219599117
 21
47.67356893384287
 31
0.0
  0
LINE
  5
7E
330
1F
100
AcDbEntity
  8
0
100
AcDbLine
 10
-37.63211219599116
 20
47.67356893384287
 30
0.0
 11
-27.19848296422023
 21
47.67356893384287
 31
0.0
  0
LINE
  5
7F
330
1F
100
AcDbEntity
  8
0
100
AcDbLine
 10
-45.89817297327952
 20
68.91040536251609
 30
0.0
 11
-46.26726110975888
 21
68.69945216631261
 31
0.0
  0
LINE
  5
80
330
1F
100
AcDbEntity
  8
0
100
AcDbLine
 10
-45.09359705153097
 20
69.1796162571431
 30
0.0
 11
-45.50470751953595
 21
69.07137815583418
 31
0.0
  0
LINE
  5
81
330
1F
100
AcDbEntity
  8
0
100
AcDbLine
 10
-42.02065747399939
 20
68.12153197276868
 30
0.0
 11
-42.31994965339283
 21
68.42344503116826
 31
0.0
  0
LINE
  5
82
330
1F
100
AcDbEntity
  8
0
100
AcDbLine
 10
-44.24675948282515
 20
69.23141444120226
 30
0.0
 11
-44.67187578335347
 21
69.23326768252018
 31
0.0
  0
LINE
  5
83
330
1F
100
AcDbEntity
  8
0
100
AcDbLine
 10
-46.26726110975888
 20
68.69945216631261
 30
0.0
 11
-46.60565672862826
 21
68.44212803489803
 31
0.0
  0
LINE
  5
84
330
1F
100
AcDbEntity
  8
0
100
AcDbLine
 10
-47.54639470991009
 20
67.04741466089337
 30
0.0
 11
-47.65821299852169
 21
66.63726350118486
 31
0.0
  0
LINE
  5
85
330
1F
100
AcDbEntity
  8
0
100
AcDbLine
 10
-44.67187578335347
 20
69.23326768252018
 30
0.0
 11
-45.09359705153097
 21
69.1796162571431
 31
0.0
  0
LINE
  5
86
330
1F
100
AcDbEntity
  8
0
100
AcDbLine
 10
-47.16783446882231
 20
67.80669660030124
 30
0.0
 11
-47.38199757314711
 21
67.43946170513983
 31
0.0
  0
LINE
  5
87
330
1F
100
AcDbEntity
  8
0
100
AcDbLine
 10
-45.50470751953595
 20
69.07137815583418
 30
0.0
 11
-45.89817297327952
 21
68.91040536251609
 31
0.0
  0
LINE
  5
88
330
1F
100
AcDbEntity
  8
0
100
AcDbLine
 10
-41.28316925175435
 20
66.60947229567137
 30
0.0
 11
-41.39140735306327
 21
67.02058276367639
 31
0.0
  0
LINE
  5
89
330
1F
100
AcDbEntity
  8
0
100
AcDbLine
 10
-41.76333334258484
 20
67.78313635389928
 30
0.0
 11
-42.02065747399939
 21
68.12153197276868
 31
0.0
  0
LINE
  5
8A
330
1F
100
AcDbEntity
  8
0
100
AcDbLine
 10
-41.55238014638136
 20
67.41404821741993
 30
0.0
 11
-41.76333334258484
 21
67.78313635389928
 31
0.0
  0
LINE
  5
8B
330
1F
100
AcDbEntity
  8
0
100
AcDbLine
 10
-46.90756978702782
 20
68.1428358555046
 30
0.0
 11
-47.16783446882231
 21
67.80669660030124
 31
0.0
  0
LINE
  5
8C
330
1F
100
AcDbEntity
  8
0
100
AcDbLine
 10
-46.60565672862826
 20
68.44212803489803
 30
0.0
 11
-46.90756978702782
 21
68.1428358555046
 31
0.0
  0
LINE
  5
8D
330
1F
100
AcDbEntity
  8
0
100
AcDbLine
 10
-47.39453011837568
 20
64.56461253561794
 30
0.0
 11
-47.1835769221722
 21
64.19552439913859
 31
0.0
  0
LINE
  5
8E
330
1F
100
AcDbEntity
  8
0
100
AcDbLine
 10
-43.82552200771262
 20
69.17408824266211
 30
0.0
 11
-44.24675948282515
 21
69.23141444120226
 31
0.0
  0
LINE
  5
8F
330
1F
100
AcDbEntity
  8
0
100
AcDbLine
 10
-42.31994965339283
 20
68.42344503116826
 30
0.0
 11
-42.65608890859622
 21
68.68370971296272
 31
0.0
  0
LINE
  5
90
330
1F
100
AcDbEntity
  8
0
100
AcDbLine
 10
-43.41537084800409
 20
69.0622699540505
 30
0.0
 11
-43.82552200771262
 21
69.17408824266211
 31
0.0
  0
LINE
  5
91
330
1F
100
AcDbEntity
  8
0
100
AcDbLine
 10
-44.27503448140361
 20
62.7453930705177
 30
0.0
 11
-43.85331321322607
 21
62.79904449589477
 31
0.0
  0
LINE
  5
92
330
1F
100
AcDbEntity
  8
0
100
AcDbLine
 10
-42.65608890859622
 20
68.68370971296272
 30
0.0
 11
-43.0233238037576
 21
68.89787281728755
 31
0.0
  0
LINE
  5
93
330
1F
100
AcDbEntity
  8
0
100
AcDbLine
 10
-47.38199757314711
 20
67.43946170513983
 30
0.0
 11
-47.54639470991009
 21
67.04741466089337
 31
0.0
  0
LINE
  5
94
330
1F
100
AcDbEntity
  8
0
100
AcDbLine
 10
-41.23137106769517
 20
65.76263472696554
 30
0.0
 11
-41.22951782637728
 21
66.18775102749385
 31
0.0
  0
LINE
  5
95
330
1F
100
AcDbEntity
  8
0
100
AcDbLine
 10
-44.70015078193189
 20
62.74724631183561
 30
0.0
 11
-44.27503448140361
 21
62.7453930705177
 31
0.0
  0
LINE
  5
96
330
1F
100
AcDbEntity
  8
0
100
AcDbLine
 10
-42.03934047772922
 20
63.83582489753322
 30
0.0
 11
-41.77907579593473
 21
64.1719641527366
 31
0.0
  0
LINE
  5
97
330
1F
100
AcDbEntity
  8
0
100
AcDbLine
 10
-45.92358646099944
 20
63.08078793575032
 30
0.0
 11
-45.53153941675294
 21
62.91639079898736
 31
0.0
  0
LINE
  5
98
330
1F
100
AcDbEntity
  8
0
100
AcDbLine
 10
-41.39140735306327
 20
67.02058276367639
 30
0.0
 11
-41.55238014638136
 21
67.41404821741993
 31
0.0
  0
LINE
  5
99
330
1F
100
AcDbEntity
  8
0
100
AcDbLine
 10
-47.1835769221722
 20
64.19552439913859
 30
0.0
 11
-46.92625279075764
 21
63.85712878026919
 31
0.0
  0
LINE
  5
9A
330
1F
100
AcDbEntity
  8
0
100
AcDbLine
 10
-43.0233238037576
 20
68.89787281728755
 30
0.0
 11
-43.41537084800409
 21
69.0622699540505
 31
0.0
  0
LINE
  5
9B
330
1F
100
AcDbEntity
  8
0
100
AcDbLine
 10
-45.12138825704442
 20
62.80457251037579
 30
0.0
 11
-44.70015078193189
 21
62.74724631183561
 31
0.0
  0
LINE
  5
9C
330
1F
100
AcDbEntity
  8
0
100
AcDbLine
 10
-47.71553919706187
 20
66.21602602607231
 30
0.0
 11
-47.71739243837976
 21
65.79090972554403
 31
0.0
  0
LINE
  5
9D
330
1F
100
AcDbEntity
  8
0
100
AcDbLine
 10
-42.34125353612878
 20
63.53653271813983
 30
0.0
 11
-42.03934047772922
 21
63.83582489753322
 31
0.0
  0
LINE
  5
9E
330
1F
100
AcDbEntity
  8
0
100
AcDbLine
 10
-41.77907579593473
 20
64.1719641527366
 30
0.0
 11
-41.56491269160993
 21
64.53919904789804
 31
0.0
  0
LINE
  5
9F
330
1F
100
AcDbEntity
  8
0
100
AcDbLine
 10
-47.66374101300269
 20
65.36918845736649
 30
0.0
 11
-47.55550291169376
 21
64.95807798936148
 31
0.0
  0
LINE
  5
A0
330
1F
100
AcDbEntity
  8
0
100
AcDbLine
 10
-41.56491269160993
 20
64.53919904789804
 30
0.0
 11
-41.40051555484695
 21
64.9312460921445
 31
0.0
  0
LINE
  5
A1
330
1F
100
AcDbEntity
  8
0
100
AcDbLine
 10
-46.62696061136421
 20
63.55521572186961
 30
0.0
 11
-46.29082135616082
 21
63.29495104007515
 31
0.0
  0
LINE
  5
A2
330
1F
100
AcDbEntity
  8
0
100
AcDbLine
 10
-46.92625279075764
 20
63.85712878026919
 30
0.0
 11
-46.62696061136421
 21
63.55521572186961
 31
0.0
  0
LINE
  5
A3
330
1F
100
AcDbEntity
  8
0
100
AcDbLine
 10
-41.22951782637728
 20
66.18775102749385
 30
0.0
 11
-41.28316925175435
 21
66.60947229567137
 31
0.0
  0
LINE
  5
A4
330
1F
100
AcDbEntity
  8
0
100
AcDbLine
 10
-41.40051555484695
 20
64.9312460921445
 30
0.0
 11
-41.2886972662354
 21
65.34139725185301
 31
0.0
  0
LINE
  5
A5
330
1F
100
AcDbEntity
  8
0
100
AcDbLine
 10
-42.6796491549982
 20
63.27920858672523
 30
0.0
 11
-42.34125353612878
 21
63.53653271813983
 31
0.0
  0
LINE
  5
A6
330
1F
100
AcDbEntity
  8
0
100
AcDbLine
 10
-47.65821299852169
 20
66.63726350118486
 30
0.0
 11
-47.71553919706187
 21
66.21602602607231
 31
0.0
  0
LINE
  5
A7
330
1F
100
AcDbEntity
  8
0
100
AcDbLine
 10
-43.85331321322607
 20
62.79904449589477
 30
0.0
 11
-43.44220274522109
 21
62.90728259720369
 31
0.0
  0
LINE
  5
A8
330
1F
100
AcDbEntity
  8
0
100
AcDbLine
 10
-41.2886972662354
 20
65.34139725185301
 30
0.0
 11
-41.23137106769517
 21
65.76263472696554
 31
0.0
  0
LINE
  5
A9
330
1F
100
AcDbEntity
  8
0
100
AcDbLine
 10
-43.04873729147752
 20
63.06825539052178
 30
0.0
 11
-42.6796491549982
 21
63.27920858672523
 31
0.0
  0
LINE
  5
AA
330
1F
100
AcDbEntity
  8
0
100
AcDbLine
 10
-47.55550291169376
 20
64.95807798936148
 30
0.0
 11
-47.39453011837568
 21
64.56461253561794
 31
0.0
  0
LINE
  5
AB
330
1F
100
AcDbEntity
  8
0
100
AcDbLine
 10
-43.44220274522109
 20
62.90728259720369
 30
0.0
 11
-43.04873729147752
 21
63.06825539052178
 31
0.0
  0
LINE
  5
AC
330
1F
100
AcDbEntity
  8
0
100
AcDbLine
 10
-47.71739243837976
 20
65.79090972554403
 30
0.0
 11
-47.66374101300269
 21
65.36918845736649
 31
0.0
  0
LINE
  5
AD
330
1F
100
AcDbEntity
  8
0
100
AcDbLine
 10
-46.29082135616082
 20
63.29495104007515
 30
0.0
 11
-45.92358646099944
 21
63.08078793575032
 31
0.0
  0
LINE
  5
AE
330
1F
100
AcDbEntity
  8
0
100
AcDbLine
 10
-45.53153941675294
 20
62.91639079898736
 30
0.0
 11
-45.12138825704442
 21
62.80457251037579
 31
0.0
  0
LINE
  5
AF
330
1F
100
AcDbEntity
  8
0
100
AcDbLine
 10
2.999999999999995
 20
27.01066962348087
 30
0.0
 11
46.47345513237852
 21
27.01066962348087
 31
0.0
  0
LINE
  5
B0
330
1F
100
AcDbEntity
  8
0
100
AcDbLine
 10
27.73672756618925
 20
24.51066962348088
 30
0.0
 11
52.4734551323785
 21
24.51066962348088
 31
0.0
  0
LINE
  5
B1
330
1F
100
AcDbEntity
  8
0
100
AcDbLine
 10
-46.47345513237852
 20
27.01066962348087
 30
0.0
 11
-2.999999999999995
 21
27.01066962348087
 31
0.0
  0
LINE
  5
B2
330
1F
100
AcDbEntity
  8
0
100
AcDbLine
 10
-21.73560376866543
 20
24.51066962348088
 30
0.0
 11
21.73672756618926
 21
24.51066962348088
 31
0.0
  0
LINE
  5
B3
330
1F
100
AcDbEntity
  8
0
100
AcDbLine
 10
-52.44875398262589
 20
24.51066962348088
 30
0.0
 11
-27.73560471505849
 21
24.51066962348088
 31
0.0
  0
LINE
  5
B4
330
1F
100
AcDbEntity
  8
0
100
AcDbLine
 10
-52.44875398262589
 20
24.51066962348088
 30
0.0
 11
-52.44875398262589
 21
19.51066962348089
 31
0.0
  0
LINE
  5
B5
330
1F
100
AcDbEntity
  8
0
100
AcDbLine
 10
52.4734551323785
 20
24.51066962348088
 30
0.0
 11
52.4734551323785
 21
19.51066962348089
 31
0.0
  0
LINE
  5
B6
330
1F
100
AcDbEntity
  8
0
100
AcDbLine
 10
-52.44875398262589
 20
19.51066962348089
 30
0.0
 11
-27.73560471505849
 21
19.51066962348089
 31
0.0
  0
LINE
  5
B7
330
1F
100
AcDbEntity
  8
0
100
AcDbLine
 10
-46.47345513237852
 20
22.01066962348088
 30
0.0
 11
-2.999999999999995
 21
22.01066962348088
 31
0.0
  0
LINE
  5
B8
330
1F
100
AcDbEntity
  8
0
100
AcDbLine
 10
2.999999999999995
 20
22.01066962348088
 30
0.0
 11
46.47345513237852
 21
22.01066962348088
 31
0.0
  0
LINE
  5
B9
330
1F
100
AcDbEntity
  8
0
100
AcDbLine
 10
27.73672756618925
 20
19.51066962348089
 30
0.0
 11
52.4734551323785
 21
19.51066962348089
 31
0.0
  0
LINE
  5
BA
330
1F
100
AcDbEntity
  8
0
100
AcDbLine
 10
-21.73560376866543
 20
19.51066962348089
 30
0.0
 11
21.73672756618926
 21
19.51066962348089
 31
0.0
  0
LINE
  5
BB
330
1F
100
AcDbEntity
  8
0
100
AcDbLine
 10
-52.44875398262589
 20
19.51066962348089
 30
0.0
 11
-52.44875398262589
 21
14.51066962348089
 31
0.0
  0
LINE
  5
BC
330
1F
100
AcDbEntity
  8
0
100
AcDbLine
 10
52.4734551323785
 20
19.51066962348089
 30
0.0
 11
52.4734551323785
 21
14.51066962348089
 31
0.0
  0
LINE
  5
BD
330
1F
100
AcDbEntity
  8
0
100
AcDbLine
 10
2.999999999999995
 20
17.01066962348089
 30
0.0
 11
46.47345513237852
 21
17.01066962348089
 31
0.0
  0
LINE
  5
BE
330
1F
100
AcDbEntity
  8
0
100
AcDbLine
 10
-46.47345513237852
 20
17.01066962348089
 30
0.0
 11
-2.999999999999995
 21
17.01066962348089
 31
0.0
  0
LINE
  5
BF
330
1F
100
AcDbEntity
  8
0
100
AcDbLine
 10
-21.73560376866543
 20
14.51066962348089
 30
0.0
 11
21.73672756618926
 21
14.51066962348089
 31
0.0
  0
LINE
  5
C0
330
1F
100
AcDbEntity
  8
0
100
AcDbLine
 10
-52.44875398262589
 20
14.51066962348089
 30
0.0
 11
-27.73560471505849
 21
14.51066962348089
 31
0.0
  0
LINE
  5
C1
330
1F
100
AcDbEntity
  8
0
100
AcDbLine
 10
27.73672756618925
 20
14.51066962348089
 30
0.0
 11
52.4734551323785
 21
14.51066962348089
 31
0.0
  0
LINE
  5
C2
330
1F
100
AcDbEntity
  8
0
100
AcDbLine
 10
-52.44875398262589
 20
14.51066962348089
 30
0.0
 11
-52.44875398262589
 21
8.948169623480895
 31
0.0
  0
LINE
  5
C3
330
1F
100
AcDbEntity
  8
0
100
AcDbLine
 10
52.4734551323785
 20
14.51066962348089
 30
0.0
 11
52.4734551323785
 21
8.948169623480895
 31
0.0
  0
LINE
  5
C4
330
1F
100
AcDbEntity
  8
0
100
AcDbLine
 10
-46.47345513237852
 20
11.44816962348089
 30
0.0
 11
-2.999999999999995
 21
11.44816962348089
 31
0.0
  0
LINE
  5
C5
330
1F
100
AcDbEntity
  8
0
100
AcDbLine
 10
2.999999999999995
 20
11.44816962348089
 30
0.0
 11
46.47345513237852
 21
11.44816962348089
 31
0.0
  0
LINE
  5
C6
330
1F
100
AcDbEntity
  8
0
100
AcDbLine
 10
-52.44875398262589
 20
8.948169623480895
 30
0.0
 11
-27.73560471505849
 21
8.948169623480895
 31
0.0
  0
LINE
  5
C7
330
1F
100
AcDbEntity
  8
0
100
AcDbLine
 10
27.73672756618925
 20
8.948169623480895
 30
0.0
 11
52.4734551323785
 21
8.948169623480895
 31
0.0
  0
LINE
  5
C8
330
1F
100
AcDbEntity
  8
0
100
AcDbLine
 10
-21.73560376866543
 20
8.948169623480895
 30
0.0
 11
21.73672756618926
 21
8.948169623480895
 31
0.0
  0
LINE
  5
C9
330
1F
100
AcDbEntity
  8
0
100
AcDbLine
 10
-52.44875398262589
 20
8.948169623480895
 30
0.0
 11
-52.44875398262589
 21
3.948169623480905
 31
0.0
  0
LINE
  5
CA
330
1F
100
AcDbEntity
  8
0
100
AcDbLine
 10
52.4734551323785
 20
8.948169623480895
 30
0.0
 11
52.4734551323785
 21
3.948169623480905
 31
0.0
  0
LINE
  5
CB
330
1F
100
AcDbEntity
  8
0
100
AcDbLine
 10
-21.73560376866543
 20
-1.051830376519086
 30
0.0
 11
21.73672756618926
 21
-1.051830376519086
 31
0.0
  0
LINE
  5
CC
330
1F
100
AcDbEntity
  8
0
100
AcDbLine
 10
-52.44875398262589
 20
-1.051830376519086
 30
0.0
 11
-27.73560471505849
 21
-1.051830376519086
 31
0.0
  0
LINE
  5
CD
330
1F
100
AcDbEntity
  8
0
100
AcDbLine
 10
2.999999999999995
 20
6.448169623480901
 30
0.0
 11
46.47345513237852
 21
6.448169623480901
 31
0.0
  0
LINE
  5
CE
330
1F
100
AcDbEntity
  8
0
100
AcDbLine
 10
-21.73560376866543
 20
3.948169623480905
 30
0.0
 11
21.73672756618926
 21
3.948169623480905
 31
0.0
  0
LINE
  5
CF
330
1F
100
AcDbEntity
  8
0
100
AcDbLine
 10
27.73672756618925
 20
3.948169623480905
 30
0.0
 11
52.4734551323785
 21
3.948169623480905
 31
0.0
  0
LINE
  5
D0
330
1F
100
AcDbEntity
  8
0
100
AcDbLine
 10
2.999999999999995
 20
-4.114330376519089
 30
0.0
 11
46.47345513237852
 21
-4.114330376519089
 31
0.0
  0
LINE
  5
D1
330
1F
100
AcDbEntity
  8
0
100
AcDbLine
 10
-52.44875398262589
 20
-6.614330376519084
 30
0.0
 11
-27.73560471505849
 21
-6.614330376519084
 31
0.0
  0
LINE
  5
D2
330
1F
100
AcDbEntity
  8
0
100
AcDbLine
 10
27.73672756618925
 20
-6.614330376519084
 30
0.0
 11
52.4734551323785
 21
-6.614330376519084
 31
0.0
  0
LINE
  5
D3
330
1F
100
AcDbEntity
  8
0
100
AcDbLine
 10
-46.47345513237852
 20
6.448169623480901
 30
0.0
 11
-2.999999999999995
 21
6.448169623480901
 31
0.0
  0
LINE
  5
D4
330
1F
100
AcDbEntity
  8
0
100
AcDbLine
 10
-21.73560376866543
 20
-6.614330376519084
 30
0.0
 11
21.73672756618926
 21
-6.614330376519084
 31
0.0
  0
LINE
  5
D5
330
1F
100
AcDbEntity
  8
0
100
AcDbLine
 10
-46.47345513237852
 20
-4.114330376519089
 30
0.0
 11
-2.999999999999995
 21
-4.114330376519089
 31
0.0
  0
LINE
  5
D6
330
1F
100
AcDbEntity
  8
0
100
AcDbLine
 10
-52.44875398262589
 20
3.948169623480905
 30
0.0
 11
-27.73560471505849
 21
3.948169623480905
 31
0.0
  0
LINE
  5
D7
330
1F
100
AcDbEntity
  8
0
100
AcDbLine
 10
27.73672756618925
 20
-1.051830376519086
 30
0.0
 11
52.4734551323785
 21
-1.051830376519086
 31
0.0
  0
LINE
  5
D8
330
1F
100
AcDbEntity
  8
0
100
AcDbLine
 10
2.999999999999995
 20
1.44816962348091
 30
0.0
 11
46.47345513237852
 21
1.44816962348091
 31
0.0
  0
LINE
  5
D9
330
1F
100
AcDbEntity
  8
0
100
AcDbLine
 10
-46.47345513237852
 20
1.44816962348091
 30
0.0
 11
-2.999999999999995
 21
1.44816962348091
 31
0.0
  0
LINE
  5
DA
330
1F
100
AcDbEntity
  8
0
100
AcDbLine
 10
-52.44875398262589
 20
-6.614330376519084
 30
0.0
 11
-52.44875398262589
 21
-11.61433037651907
 31
0.0
  0
LINE
  5
DB
330
1F
100
AcDbEntity
  8
0
100
AcDbLine
 10
-52.44875398262589
 20
-1.051830376519086
 30
0.0
 11
-52.44875398262589
 21
-6.614330376519084
 31
0.0
  0
LINE
  5
DC
330
1F
100
AcDbEntity
  8
0
100
AcDbLine
 10
-52.44875398262589
 20
3.948169623480905
 30
0.0
 11
-52.44875398262589
 21
-1.051830376519086
 31
0.0
  0
LINE
  5
DD
330
1F
100
AcDbEntity
  8
0
100
AcDbLine
 10
52.4734551323785
 20
3.948169623480905
 30
0.0
 11
52.4734551323785
 21
-1.051830376519086
 31
0.0
  0
LINE
  5
DE
330
1F
100
AcDbEntity
  8
0
100
AcDbLine
 10
52.4734551323785
 20
-6.614330376519084
 30
0.0
 11
52.4734551323785
 21
-11.61433037651907
 31
0.0
  0
LINE
  5
DF
330
1F
100
AcDbEntity
  8
0
100
AcDbLine
 10
52.4734551323785
 20
-1.051830376519086
 30
0.0
 11
52.4734551323785
 21
-6.614330376519084
 31
0.0
  0
LINE
  5
E0
330
1F
100
AcDbEntity
  8
0
100
AcDbLine
 10
-21.73560376866543
 20
-16.61433037651907
 30
0.0
 11
21.73672756618926
 21
-16.61433037651907
 31
0.0
  0
LINE
  5
E1
330
1F
100
AcDbEntity
  8
0
100
AcDbLine
 10
27.73672756618925
 20
-16.61433037651907
 30
0.0
 11
52.4734551323785
 21
-16.61433037651907
 31
0.0
  0
LINE
  5
E2
330
1F
100
AcDbEntity
  8
0
100
AcDbLine
 10
-46.47345513237852
 20
-14.11433037651907
 30
0.0
 11
-2.999999999999995
 21
-14.11433037651907
 31
0.0
  0
LINE
  5
E3
330
1F
100
AcDbEntity
  8
0
100
AcDbLine
 10
-21.73560376866543
 20
-11.61433037651907
 30
0.0
 11
21.73672756618926
 21
-11.61433037651907
 31
0.0
  0
LINE
  5
E4
330
1F
100
AcDbEntity
  8
0
100
AcDbLine
 10
-52.44875398262589
 20
-16.61433037651907
 30
0.0
 11
-27.73560471505849
 21
-16.61433037651907
 31
0.0
  0
LINE
  5
E5
330
1F
100
AcDbEntity
  8
0
100
AcDbLine
 10
27.73672756618925
 20
-11.61433037651907
 30
0.0
 11
52.4734551323785
 21
-11.61433037651907
 31
0.0
  0
LINE
  5
E6
330
1F
100
AcDbEntity
  8
0
100
AcDbLine
 10
2.999999999999995
 20
-9.11433037651908
 30
0.0
 11
46.47345513237852
 21
-9.11433037651908
 31
0.0
  0
LINE
  5
E7
330
1F
100
AcDbEntity
  8
0
100
AcDbLine
 10
-46.47345513237852
 20
-9.11433037651908
 30
0.0
 11
-2.999999999999995
 21
-9.11433037651908
 31
0.0
  0
LINE
  5
E8
330
1F
100
AcDbEntity
  8
0
100
AcDbLine
 10
-52.44875398262589
 20
-11.61433037651907
 30
0.0
 11
-27.73560471505849
 21
-11.61433037651907
 31
0.0
  0
LINE
  5
E9
330
1F
100
AcDbEntity
  8
0
100
AcDbLine
 10
2.999999999999995
 20
-14.11433037651907
 30
0.0
 11
46.47345513237852
 21
-14.11433037651907
 31
0.0
  0
LINE
  5
EA
330
1F
100
AcDbEntity
  8
0
100
AcDbLine
 10
-52.44875398262589
 20
-22.17683037651906
 30
0.0
 11
-52.44875398262589
 21
-27.17683037651906
 31
0.0
  0
LINE
  5
EB
330
1F
100
AcDbEntity
  8
0
100
AcDbLine
 10
-52.44875398262589
 20
-16.61433037651907
 30
0.0
 11
-52.44875398262589
 21
-22.17683037651906
 31
0.0
  0
LINE
  5
EC
330
1F
100
AcDbEntity
  8
0
100
AcDbLine
 10
-52.44875398262589
 20
-11.61433037651907
 30
0.0
 11
-52.44875398262589
 21
-16.61433037651907
 31
0.0
  0
LINE
  5
ED
330
1F
100
AcDbEntity
  8
0
100
AcDbLine
 10
52.4734551323785
 20
-16.61433037651907
 30
0.0
 11
52.4734551323785
 21
-22.17683037651906
 31
0.0
  0
LINE
  5
EE
330
1F
100
AcDbEntity
  8
0
100
AcDbLine
 10
52.4734551323785
 20
-11.61433037651907
 30
0.0
 11
52.4734551323785
 21
-16.61433037651907
 31
0.0
  0
LINE
  5
EF
330
1F
100
AcDbEntity
  8
0
100
AcDbLine
 10
52.4734551323785
 20
-22.17683037651906
 30
0.0
 11
52.4734551323785
 21
-27.17683037651906
 31
0.0
  0
LINE
  5
F0
330
1F
100
AcDbEntity
  8
0
100
AcDbLine
 10
2.999999999999995
 20
-50.80183037651903
 30
0.0
 11
46.47345513237852
 21
-50.80183037651903
 31
0.0
  0
LINE
  5
F1
330
1F
100
AcDbEntity
  8
0
100
AcDbLine
 10
-46.47345513237852
 20
-55.80183037651902
 30
0.0
 11
-2.999999999999995
 21
-55.80183037651902
 31
0.0
  0
LINE
  5
F2
330
1F
100
AcDbEntity
  8
0
100
AcDbLine
 10
-52.44875398262589
 20
-22.17683037651906
 30
0.0
 11
-27.73560471505849
 21
-22.17683037651906
 31
0.0
  0
LINE
  5
F3
330
1F
100
AcDbEntity
  8
0
100
AcDbLine
 10
-52.44875398262589
 20
-42.73933037651904
 30
0.0
 11
-27.73560471505849
 21
-42.73933037651904
 31
0.0
  0
LINE
  5
F4
330
1F
100
AcDbEntity
  8
0
100
AcDbLine
 10
2.999999999999995
 20
-19.67683037651907
 30
0.0
 11
46.47345513237852
 21
-19.67683037651907
 31
0.0
  0
LINE
  5
F5
330
1F
100
AcDbEntity
  8
0
100
AcDbLine
 10
2.999999999999995
 20
-61.36433037651902
 30
0.0
 11
46.47345513237852
 21
-61.36433037651902
 31
0.0
  0
LINE
  5
F6
330
1F
100
AcDbEntity
  8
0
100
AcDbLine
 10
-21.73560376866543
 20
-58.30183037651901
 30
0.0
 11
21.73672756618926
 21
-58.30183037651901
 31
0.0
  0
LINE
  5
F7
330
1F
100
AcDbEntity
  8
0
100
AcDbLine
 10
-46.47345513237852
 20
-61.36433037651902
 30
0.0
 11
-2.999999999999995
 21
-61.36433037651902
 31
0.0
  0
LINE
  5
F8
330
1F
100
AcDbEntity
  8
0
100
AcDbLine
 10
2.999999999999995
 20
-35.23933037651905
 30
0.0
 11
46.47345513237852
 21
-35.23933037651905
 31
0.0
  0
LINE
  5
F9
330
1F
100
AcDbEntity
  8
0
100
AcDbLine
 10
2.999999999999995
 20
-24.67683037651906
 30
0.0
 11
46.47345513237852
 21
-24.67683037651906
 31
0.0
  0
LINE
  5
FA
330
1F
100
AcDbEntity
  8
0
100
AcDbLine
 10
-46.47345513237852
 20
-24.67683037651906
 30
0.0
 11
-2.999999999999995
 21
-24.67683037651906
 31
0.0
  0
LINE
  5
FB
330
1F
100
AcDbEntity
  8
0
100
AcDbLine
 10
-46.47345513237852
 20
-19.67683037651907
 30
0.0
 11
-2.999999999999995
 21
-19.67683037651907
 31
0.0
  0
LINE
  5
FC
330
1F
100
AcDbEntity
  8
0
100
AcDbLine
 10
-21.73560376866543
 20
-63.86433037651901
 30
0.0
 11
21.73672756618926
 21
-63.86433037651901
 31
0.0
  0
LINE
  5
FD
330
1F
100
AcDbEntity
  8
0
100
AcDbLine
 10
27.73672756618925
 20
-63.86433037651901
 30
0.0
 11
52.4734551323785
 21
-63.86433037651901
 31
0.0
  0
LINE
  5
FE
330
1F
100
AcDbEntity
  8
0
100
AcDbLine
 10
2.999999999999995
 20
-55.80183037651902
 30
0.0
 11
46.47345513237852
 21
-55.80183037651902
 31
0.0
  0
LINE
  5
FF
330
1F
100
AcDbEntity
  8
0
100
AcDbLine
 10
-52.44875398262589
 20
-58.30183037651901
 30
0.0
 11
-27.73560471505849
 21
-58.30183037651901
 31
0.0
  0
LINE
  5
100
330
1F
100
AcDbEntity
  8
0
100
AcDbLine
 10
27.73672756618925
 20
-58.30183037651901
 30
0.0
 11
52.4734551323785
 21
-58.30183037651901
 31
0.0
  0
LINE
  5
101
330
1F
100
AcDbEntity
  8
0
100
AcDbLine
 10
-46.47345513237852
 20
-30.23933037651906
 30
0.0
 11
-2.999999999999995
 21
-30.23933037651906
 31
0.0
  0
LINE
  5
102
330
1F
100
AcDbEntity
  8
0
100
AcDbLine
 10
-52.44875398262589
 20
-63.86433037651901
 30
0.0
 11
-27.73560471505849
 21
-63.86433037651901
 31
0.0
  0
LINE
  5
103
330
1F
100
AcDbEntity
  8
0
100
AcDbLine
 10
-52.44875398262589
 20
-27.17683037651906
 30
0.0
 11
-27.73560471505849
 21
-27.17683037651906
 31
0.0
  0
LINE
  5
104
330
1F
100
AcDbEntity
  8
0
100
AcDbLine
 10
-46.47345513237852
 20
-50.80183037651903
 30
0.0
 11
-2.999999999999995
 21
-50.80183037651903
 31
0.0
  0
LINE
  5
105
330
1F
100
AcDbEntity
  8
0
100
AcDbLine
 10
27.73672756618925
 20
-27.17683037651906
 30
0.0
 11
52.4734551323785
 21
-27.17683037651906
 31
0.0
  0
LINE
  5
106
330
1F
100
AcDbEntity
  8
0
100
AcDbLine
 10
2.999999999999995
 20
-30.23933037651906
 30
0.0
 11
46.47345513237852
 21
-30.23933037651906
 31
0.0
  0
LINE
  5
107
330
1F
100
AcDbEntity
  8
0
100
AcDbLine
 10
-21.73560376866543
 20
-22.17683037651906
 30
0.0
 11
21.73672756618926
 21
-22.17683037651906
 31
0.0
  0
LINE
  5
108
330
1F
100
AcDbEntity
  8
0
100
AcDbLine
 10
-21.73560376866543
 20
-53.30183037651902
 30
0.0
 11
21.73672756618926
 21
-53.30183037651902
 31
0.0
  0
LINE
  5
109
330
1F
100
AcDbEntity
  8
0
100
AcDbLine
 10
-21.73560376866543
 20
-27.17683037651906
 30
0.0
 11
21.73672756618926
 21
-27.17683037651906
 31
0.0
  0
LINE
  5
10A
330
1F
100
AcDbEntity
  8
0
100
AcDbLine
 10
27.73672756618925
 20
-53.30183037651902
 30
0.0
 11
52.4734551323785
 21
-53.30183037651902
 31
0.0
  0
LINE
  5
10B
330
1F
100
AcDbEntity
  8
0
100
AcDbLine
 10
-52.44875398262589
 20
-53.30183037651902
 30
0.0
 11
-27.73560471505849
 21
-53.30183037651902
 31
0.0
  0
LINE
  5
10C
330
1F
100
AcDbEntity
  8
0
100
AcDbLine
 10
27.73672756618925
 20
-22.17683037651906
 30
0.0
 11
52.4734551323785
 21
-22.17683037651906
 31
0.0
  0
LINE
  5
10D
330
1F
100
AcDbEntity
  8
0
100
AcDbLine
 10
-21.73560376866543
 20
-42.73933037651904
 30
0.0
 11
21.73672756618926
 21
-42.73933037651904
 31
0.0
  0
LINE
  5
10E
330
1F
100
AcDbEntity
  8
0
100
AcDbLine
 10
-21.73560376866543
 20
-37.73933037651904
 30
0.0
 11
21.73672756618926
 21
-37.73933037651904
 31
0.0
  0
LINE
  5
10F
330
1F
100
AcDbEntity
  8
0
100
AcDbLine
 10
27.73672756618925
 20
-37.73933037651904
 30
0.0
 11
52.4734551323785
 21
-37.73933037651904
 31
0.0
  0
LINE
  5
110
330
1F
100
AcDbEntity
  8
0
100
AcDbLine
 10
-21.73560376866543
 20
-32.73933037651906
 30
0.0
 11
21.73672756618926
 21
-32.73933037651906
 31
0.0
  0
LINE
  5
111
330
1F
100
AcDbEntity
  8
0
100
AcDbLine
 10
-52.44875398262589
 20
-48.30183037651904
 30
0.0
 11
-27.73560471505849
 21
-48.30183037651904
 31
0.0
  0
LINE
  5
112
330
1F
100
AcDbEntity
  8
0
100
AcDbLine
 10
-46.47345513237852
 20
-35.23933037651905
 30
0.0
 11
-2.999999999999995
 21
-35.23933037651905
 31
0.0
  0
LINE
  5
113
330
1F
100
AcDbEntity
  8
0
100
AcDbLine
 10
2.999999999999995
 20
-40.23933037651904
 30
0.0
 11
46.47345513237852
 21
-40.23933037651904
 31
0.0
  0
LINE
  5
114
330
1F
100
AcDbEntity
  8
0
100
AcDbLine
 10
27.73672756618925
 20
-48.30183037651904
 30
0.0
 11
52.4734551323785
 21
-48.30183037651904
 31
0.0
  0
LINE
  5
115
330
1F
100
AcDbEntity
  8
0
100
AcDbLine
 10
27.73672756618925
 20
-32.73933037651906
 30
0.0
 11
52.4734551323785
 21
-32.73933037651906
 31
0.0
  0
LINE
  5
116
330
1F
100
AcDbEntity
  8
0
100
AcDbLine
 10
-46.47345513237852
 20
-45.80183037651904
 30
0.0
 11
-2.999999999999995
 21
-45.80183037651904
 31
0.0
  0
LINE
  5
117
330
1F
100
AcDbEntity
  8
0
100
AcDbLine
 10
-52.44875398262589
 20
-32.73933037651906
 30
0.0
 11
-27.73560471505849
 21
-32.73933037651906
 31
0.0
  0
LINE
  5
118
330
1F
100
AcDbEntity
  8
0
100
AcDbLine
 10
27.73672756618925
 20
-42.73933037651904
 30
0.0
 11
52.4734551323785
 21
-42.73933037651904
 31
0.0
  0
LINE
  5
119
330
1F
100
AcDbEntity
  8
0
100
AcDbLine
 10
-46.47345513237852
 20
-40.23933037651904
 30
0.0
 11
-2.999999999999995
 21
-40.23933037651904
 31
0.0
  0
LINE
  5
11A
330
1F
100
AcDbEntity
  8
0
100
AcDbLine
 10
-52.44875398262589
 20
-37.73933037651904
 30
0.0
 11
-27.73560471505849
 21
-37.73933037651904
 31
0.0
  0
LINE
  5
11B
330
1F
100
AcDbEntity
  8
0
100
AcDbLine
 10
2.999999999999995
 20
-45.80183037651904
 30
0.0
 11
46.47345513237852
 21
-45.80183037651904
 31
0.0
  0
LINE
  5
11C
330
1F
100
AcDbEntity
  8
0
100
AcDbLine
 10
-21.73560376866543
 20
-48.30183037651904
 30
0.0
 11
21.73672756618926
 21
-48.30183037651904
 31
0.0
  0
LINE
  5
11D
330
1F
100
AcDbEntity
  8
0
100
AcDbLine
 10
-52.44875398262589
 20
-58.30183037651901
 30
0.0
 11
-52.44875398262589
 21
-63.86433037651901
 31
0.0
  0
LINE
  5
11E
330
1F
100
AcDbEntity
  8
0
100
AcDbLine
 10
-52.44875398262589
 20
-42.73933037651904
 30
0.0
 11
-52.44875398262589
 21
-48.30183037651904
 31
0.0
  0
LINE
  5
11F
330
1F
100
AcDbEntity
  8
0
100
AcDbLine
 10
-52.44875398262589
 20
-27.17683037651906
 30
0.0
 11
-52.44875398262589
 21
-32.73933037651906
 31
0.0
  0
LINE
  5
120
330
1F
100
AcDbEntity
  8
0
100
AcDbLine
 10
52.4734551323785
 20
-63.86433037651901
 30
0.0
 11
52.4734551323785
 21
-69.426830376519
 31
0.0
  0
LINE
  5
121
330
1F
100
AcDbEntity
  8
0
100
AcDbLine
 10
52.4734551323785
 20
-58.30183037651901
 30
0.0
 11
52.4734551323785
 21
-63.86433037651901
 31
0.0
  0
LINE
  5
122
330
1F
100
AcDbEntity
  8
0
100
AcDbLine
 10
52.4734551323785
 20
-27.17683037651906
 30
0.0
 11
52.4734551323785
 21
-32.73933037651906
 31
0.0
  0
LINE
  5
123
330
1F
100
AcDbEntity
  8
0
100
AcDbLine
 10
-52.44875398262589
 20
-63.86433037651901
 30
0.0
 11
-52.44875398262589
 21
-69.426830376519
 31
0.0
  0
LINE
  5
124
330
1F
100
AcDbEntity
  8
0
100
AcDbLine
 10
-52.44875398262589
 20
-53.30183037651902
 30
0.0
 11
-52.44875398262589
 21
-58.30183037651901
 31
0.0
  0
LINE
  5
125
330
1F
100
AcDbEntity
  8
0
100
AcDbLine
 10
-52.44875398262589
 20
-48.30183037651904
 30
0.0
 11
-52.44875398262589
 21
-53.30183037651902
 31
0.0
  0
LINE
  5
126
330
1F
100
AcDbEntity
  8
0
100
AcDbLine
 10
-52.44875398262589
 20
-32.73933037651906
 30
0.0
 11
-52.44875398262589
 21
-37.73933037651904
 31
0.0
  0
LINE
  5
127
330
1F
100
AcDbEntity
  8
0
100
AcDbLine
 10
52.4734551323785
 20
-53.30183037651902
 30
0.0
 11
52.4734551323785
 21
-58.30183037651901
 31
0.0
  0
LINE
  5
128
330
1F
100
AcDbEntity
  8
0
100
AcDbLine
 10
52.4734551323785
 20
-37.73933037651904
 30
0.0
 11
52.4734551323785
 21
-42.73933037651904
 31
0.0
  0
LINE
  5
129
330
1F
100
AcDbEntity
  8
0
100
AcDbLine
 10
52.4734551323785
 20
-32.73933037651906
 30
0.0
 11
52.4734551323785
 21
-37.73933037651904
 31
0.0
  0
LINE
  5
12A
330
1F
100
AcDbEntity
  8
0
100
AcDbLine
 10
-52.44875398262589
 20
-37.73933037651904
 30
0.0
 11
-52.44875398262589
 21
-42.73933037651904
 31
0.0
  0
LINE
  5
12B
330
1F
100
AcDbEntity
  8
0
100
AcDbLine
 10
52.4734551323785
 20
-48.30183037651904
 30
0.0
 11
52.4734551323785
 21
-53.30183037651902
 31
0.0
  0
LINE
  5
12C
330
1F
100
AcDbEntity
  8
0
100
AcDbLine
 10
52.4734551323785
 20
-42.73933037651904
 30
0.0
 11
52.4734551323785
 21
-48.30183037651904
 31
0.0
  0
LINE
  5
12D
330
1F
100
AcDbEntity
  8
0
100
AcDbLine
 10
-46.47345513237852
 20
-71.926830376519
 30
0.0
 11
-2.999999999999995
 21
-71.926830376519
 31
0.0
  0
LINE
  5
12E
330
1F
100
AcDbEntity
  8
0
100
AcDbLine
 10
-46.47345513237852
 20
-66.92683037651902
 30
0.0
 11
-2.999999999999995
 21
-66.92683037651902
 31
0.0
  0
LINE
  5
12F
330
1F
100
AcDbEntity
  8
0
100
AcDbLine
 10
2.999999999999995
 20
-71.926830376519
 30
0.0
 11
46.47345513237852
 21
-71.926830376519
 31
0.0
  0
LINE
  5
130
330
1F
100
AcDbEntity
  8
0
100
AcDbLine
 10
-52.44875398262589
 20
-69.426830376519
 30
0.0
 11
-27.73560471505849
 21
-69.426830376519
 31
0.0
  0
LINE
  5
131
330
1F
100
AcDbEntity
  8
0
100
AcDbLine
 10
2.999999999999995
 20
-66.92683037651902
 30
0.0
 11
46.47345513237852
 21
-66.92683037651902
 31
0.0
  0
LINE
  5
132
330
1F
100
AcDbEntity
  8
0
100
AcDbLine
 10
27.73672756618925
 20
-69.426830376519
 30
0.0
 11
52.4734551323785
 21
-69.426830376519
 31
0.0
  0
LINE
  5
133
330
1F
100
AcDbEntity
  8
0
100
AcDbLine
 10
-21.73560376866543
 20
-69.426830376519
 30
0.0
 11
21.73672756618926
 21
-69.426830376519
 31
0.0
  0
LINE
  5
134
330
1F
100
AcDbEntity
  8
0
100
AcDbLine
 10
52.4734551323785
 20
-69.426830376519
 30
0.0
 11
52.4734551323785
 21
-73.98933037651895
 31
0.0
  0
LINE
  5
135
330
1F
100
AcDbEntity
  8
0
100
AcDbLine
 10
-52.44875398262589
 20
-69.426830376519
 30
0.0
 11
-52.44875398262589
 21
-73.98933037651895
 31
0.0
  0
LINE
  5
136
330
1F
100
AcDbEntity
  8
0
100
AcDbLine
 10
-24.95252340687615
 20
59.36952446704205
 30
0.0
 11
-24.95252340687615
 21
60.06368945698168
 31
0.0
  0
LINE
  5
137
330
1F
100
AcDbEntity
  8
0
100
AcDbLine
 10
-24.95252340687615
 20
60.06368945698168
 30
0.0
 11
-24.90725177709747
 21
60.75181822961751
 31
0.0
  0
LINE
  5
138
330
1F
100
AcDbEntity
  8
0
100
AcDbLine
 10
-24.90725177709747
 20
60.75181822961751
 30
0.0
 11
-24.77143688776146
 21
61.34336752539215
 31
0.0
  0
LINE
  5
139
330
1F
100
AcDbEntity
  8
0
100
AcDbLine
 10
-24.77143688776146
 20
61.34336752539215
 30
0.0
 11
-24.5382879944013
 21
61.87002748515071
 31
0.0
  0
LINE
  5
13A
330
1F
100
AcDbEntity
  8
0
100
AcDbLine
 10
-24.5382879944013
 20
61.87002748515071
 30
0.0
 11
-24.20101435255019
 21
62.36348824973823
 31
0.0
  0
LINE
  5
13B
330
1F
100
AcDbEntity
  8
0
100
AcDbLine
 10
-24.20101435255019
 20
62.36348824973823
 30
0.0
 11
-23.66756364832484
 21
62.90825686140826
 31
0.0
  0
LINE
  5
13C
330
1F
100
AcDbEntity
  8
0
100
AcDbLine
 10
-23.66756364832484
 20
62.90825686140826
 30
0.0
 11
-22.84588356784194
 21
63.58884036241428
 31
0.0
  0
LINE
  5
13D
330
1F
100
AcDbEntity
  8
0
100
AcDbLine
 10
-22.84588356784194
 20
63.58884036241428
 30
0.0
 11
-21.93139664631277
 21
64.37053050325936
 31
0.0
  0
LINE
  5
13E
330
1F
100
AcDbEntity
  8
0
100
AcDbLine
 10
-21.93139664631277
 20
64.37053050325936
 30
0.0
 11
-21.59336847729868
 21
64.83230112700183
 31
0.0
  0
LINE
  5
13F
330
1F
100
AcDbEntity
  8
0
100
AcDbLine
 10
-21.59336847729868
 20
64.83230112700183
 30
0.0
 11
-21.48169845717796
 21
65.31519851130764
 31
0.0
  0
LINE
  5
140
330
1F
100
AcDbEntity
  8
0
100
AcDbLine
 10
-21.48169845717796
 20
65.31519851130764
 30
0.0
 11
-21.54658779319405
 21
65.69283935637807
 31
0.0
  0
LINE
  5
141
330
1F
100
AcDbEntity
  8
0
100
AcDbLine
 10
-21.54658779319405
 20
65.69283935637807
 30
0.0
 11
-21.74125580124234
 21
65.96258281714266
 31
0.0
  0
LINE
  5
142
330
1F
100
AcDbEntity
  8
0
100
AcDbLine
 10
-21.74125580124234
 20
65.96258281714266
 30
0.0
 11
-22.06570248132283
 21
66.1244288936014
 31
0.0
  0
LINE
  5
143
330
1F
100
AcDbEntity
  8
0
100
AcDbLine
 10
-22.06570248132283
 20
66.1244288936014
 30
0.0
 11
-22.5199278334355
 21
66.17837758575433
 31
0.0
  0
LINE
  5
144
330
1F
100
AcDbEntity
  8
0
100
AcDbLine
 10
-22.5199278334355
 20
66.17837758575433
 30
0.0
 11
-23.04092883947172
 21
66.13046511090523
 31
0.0
  0
LINE
  5
145
330
1F
100
AcDbEntity
  8
0
100
AcDbLine
 10
-23.04092883947172
 20
66.13046511090523
 30
0.0
 11
-23.54759382941136
 21
65.98672768635795
 31
0.0
  0
LINE
  5
146
330
1F
100
AcDbEntity
  8
0
100
AcDbLine
 10
-23.54759382941136
 20
65.98672768635795
 30
0.0
 11
-24.03992280325442
 21
65.74716531211249
 31
0.0
  0
LINE
  5
147
330
1F
100
AcDbEntity
  8
0
100
AcDbLine
 10
-24.03992280325442
 20
65.74716531211249
 30
0.0
 11
-24.51791576100089
 21
65.41177798816882
 31
0.0
  0
LINE
  5
148
330
1F
100
AcDbEntity
  8
0
100
AcDbLine
 10
-24.51791576100089
 20
65.41177798816882
 30
0.0
 11
-24.51791576100089
 21
67.51841782720302
 31
0.0
  0
LINE
  5
149
330
1F
100
AcDbEntity
  8
0
100
AcDbLine
 10
-24.51791576100089
 20
67.51841782720302
 30
0.0
 11
-23.82299624389828
 21
67.82475585537203
 31
0.0
  0
LINE
  5
14A
330
1F
100
AcDbEntity
  8
0
100
AcDbLine
 10
-23.82299624389828
 20
67.82475585537203
 30
0.0
 11
-23.17485741090029
 21
68.01942386342033
 31
0.0
  0
LINE
  5
14B
330
1F
100
AcDbEntity
  8
0
100
AcDbLine
 10
-23.17485741090029
 20
68.01942386342033
 30
0.0
 11
-22.54180912116186
 21
68.12354861191126
 31
0.0
  0
LINE
  5
14C
330
1F
100
AcDbEntity
  8
0
100
AcDbLine
 10
-22.54180912116186
 20
68.12354861191126
 30
0.0
 11
-21.89216123383792
 21
68.15825686140826
 31
0.0
  0
LINE
  5
14D
330
1F
100
AcDbEntity
  8
0
100
AcDbLine
 10
-21.89216123383792
 20
68.15825686140826
 30
0.0
 11
-21.22591374892846
 21
68.11638060386298
 31
0.0
  0
LINE
  5
14E
330
1F
100
AcDbEntity
  8
0
100
AcDbLine
 10
-21.22591374892846
 20
68.11638060386298
 30
0.0
 11
-20.63964614329466
 21
67.99075183122717
 31
0.0
  0
LINE
  5
14F
330
1F
100
AcDbEntity
  8
0
100
AcDbLine
 10
-20.63964614329466
 20
67.99075183122717
 30
0.0
 11
-20.13335841693651
 21
67.78137054350081
 31
0.0
  0
LINE
  5
150
330
1F
100
AcDbEntity
  8
0
100
AcDbLine
 10
-20.13335841693651
 20
67.78137054350081
 30
0.0
 11
-19.70705056985401
 21
67.48823674068392
 31
0.0
  0
LINE
  5
151
330
1F
100
AcDbEntity
  8
0
100
AcDbLine
 10
-19.70705056985401
 20
67.48823674068392
 30
0.0
 11
-19.36902240083993
 21
67.11889569440625
 31
0.0
  0
LINE
  5
152
330
1F
100
AcDbEntity
  8
0
100
AcDbLine
 10
-19.36902240083993
 20
67.11889569440625
 30
0.0
 11
-19.12757370868701
 21
66.68089267629759
 31
0.0
  0
LINE
  5
153
330
1F
100
AcDbEntity
  8
0
100
AcDbLine
 10
-19.12757370868701
 20
66.68089267629759
 30
0.0
 11
-18.98270449339526
 21
66.17422768635795
 31
0.0
  0
LINE
  5
154
330
1F
100
AcDbEntity
  8
0
100
AcDbLine
 10
-18.98270449339526
 20
66.17422768635795
 30
0.0
 11
-18.93441475496468
 21
65.59890072458732
 31
0.0
  0
LINE
  5
155
330
1F
100
AcDbEntity
  8
0
100
AcDbLine
 10
-18.93441475496468
 20
65.59890072458732
 30
0.0
 11
-19.03552139480371
 21
64.7342125958147
 31
0.0
  0
LINE
  5
156
330
1F
100
AcDbEntity
  8
0
100
AcDbLine
 10
-19.03552139480371
 20
64.7342125958147
 30
0.0
 11
-19.33884131432081
 21
64.0113755736819
 31
0.0
  0
LINE
  5
157
330
1F
100
AcDbEntity
  8
0
100
AcDbLine
 10
-19.33884131432081
 20
64.0113755736819
 30
0.0
 11
-19.91680912116186
 21
63.34588261593542
 31
0.0
  0
LINE
  5
158
330
1F
100
AcDbEntity
  8
0
100
AcDbLine
 10
-19.91680912116186
 20
63.34588261593542
 30
0.0
 11
-20.84185942297272
 21
62.65322668032174
 31
0.0
  0
LINE
  5
159
330
1F
100
AcDbEntity
  8
0
100
AcDbLine
 10
-20.84185942297272
 20
62.65322668032174
 30
0.0
 11
-21.95554151552806
 21
61.85946410486902
 31
0.0
  0
LINE
  5
15A
330
1F
100
AcDbEntity
  8
0
100
AcDbLine
 10
-21.95554151552806
 20
61.85946410486902
 30
0.0
 11
-22.16303648534697
 21
61.62782426583482
 31
0.0
  0
LINE
  5
15B
330
1F
100
AcDbEntity
  8
0
100
AcDbLine
 10
-22.16303648534697
 20
61.62782426583482
 30
0.0
 11
-22.23622562015582
 21
61.4339107849495
 31
0.0
  0
LINE
  5
15C
330
1F
100
AcDbEntity
  8
0
100
AcDbLine
 10
-22.23622562015582
 20
61.4339107849495
 30
0.0
 11
-18.85594393001498
 21
61.4339107849495
 31
0.0
  0
LINE
  5
15D
330
1F
100
AcDbEntity
  8
0
100
AcDbLine
 10
-18.85594393001498
 20
61.4339107849495
 30
0.0
 11
-18.85594393001498
 21
59.36952446704205
 31
0.0
  0
LINE
  5
15E
330
1F
100
AcDbEntity
  8
0
100
AcDbLine
 10
-18.85594393001498
 20
59.36952446704205
 30
0.0
 11
-24.95252340687615
 21
59.36952446704205
 31
0.0
  0
LINE
  5
15F
330
1F
100
AcDbEntity
  8
0
100
AcDbLine
 10
-14.67888155576951
 20
60.44397114712254
 30
0.0
 11
-14.77546103263067
 21
59.94749227388311
 31
0.0
  0
LINE
  5
160
330
1F
100
AcDbEntity
  8
0
100
AcDbLine
 10
-14.77546103263067
 20
59.94749227388311
 30
0.0
 11
-15.06519946321417
 21
59.55664720346056
 31
0.0
  0
LINE
  5
161
330
1F
100
AcDbEntity
  8
0
100
AcDbLine
 10
-15.06519946321417
 20
59.55664720346056
 30
0.0
 11
-15.52546103263068
 21
59.3031260767
 31
0.0
  0
LINE
  5
162
330
1F
100
AcDbEntity
  8
0
100
AcDbLine
 10
-15.52546103263068
 20
59.3031260767
 30
0.0
 11
-16.13360992599083
 21
59.21861903444648
 31
0.0
  0
LINE
  5
163
330
1F
100
AcDbEntity
  8
0
100
AcDbLine
 10
-16.13360992599083
 20
59.21861903444648
 30
0.0
 11
-16.69875077106126
 21
59.30689871251489
 31
0.0
  0
LINE
  5
164
330
1F
100
AcDbEntity
  8
0
100
AcDbLine
 10
-16.69875077106126
 20
59.30689871251489
 30
0.0
 11
-17.150712541685
 21
59.57173774672012
 31
0.0
  0
LINE
  5
165
330
1F
100
AcDbEntity
  8
0
100
AcDbLine
 10
-17.150712541685
 20
59.57173774672012
 30
0.0
 11
-17.4472417167353
 21
59.96635545295755
 31
0.0
  0
LINE
  5
166
330
1F
100
AcDbEntity
  8
0
100
AcDbLine
 10
-17.4472417167353
 20
59.96635545295755
 30
0.0
 11
-17.5460847750854
 21
60.44397114712254
 31
0.0
  0
LINE
  5
167
330
1F
100
AcDbEntity
  8
0
100
AcDbLine
 10
-17.5460847750854
 20
60.44397114712254
 30
0.0
 11
-17.44875077106126
 21
60.92460494993944
 31
0.0
  0
LINE
  5
168
330
1F
100
AcDbEntity
  8
0
100
AcDbLine
 10
-17.44875077106126
 20
60.92460494993944
 30
0.0
 11
-17.15674875898882
 21
61.3041321129173
 31
0.0
  0
LINE
  5
169
330
1F
100
AcDbEntity
  8
0
100
AcDbLine
 10
-17.15674875898882
 20
61.3041321129173
 30
0.0
 11
-16.70025982538721
 21
61.55086249521107
 31
0.0
  0
LINE
  5
16A
330
1F
100
AcDbEntity
  8
0
100
AcDbLine
 10
-16.70025982538721
 20
61.55086249521107
 30
0.0
 11
-16.10946505677554
 21
61.63310595597566
 31
0.0
  0
LINE
  5
16B
330
1F
100
AcDbEntity
  8
0
100
AcDbLine
 10
-16.10946505677554
 20
61.63310595597566
 30
0.0
 11
-15.53074272277152
 21
61.55086249521107
 31
0.0
  0
LINE
  5
16C
330
1F
100
AcDbEntity
  8
0
100
AcDbLine
 10
-15.53074272277152
 20
61.55086249521107
 30
0.0
 11
-15.07425378916991
 21
61.3041321129173
 31
0.0
  0
LINE
  5
16D
330
1F
100
AcDbEntity
  8
0
100
AcDbLine
 10
-15.07425378916991
 20
61.3041321129173
 30
0.0
 11
-14.77772461411961
 21
60.92460494993944
 31
0.0
  0
LINE
  5
16E
330
1F
100
AcDbEntity
  8
0
100
AcDbLine
 10
-14.77772461411961
 20
60.92460494993944
 30
0.0
 11
-14.67888155576951
 21
60.44397114712254
 31
0.0
  0
LINE
  5
16F
330
1F
100
AcDbEntity
  8
0
100
AcDbLine
 10
-7.556145137258439
 20
62.29708985939618
 30
0.0
 11
-7.661024412912362
 21
61.45579207267586
 31
0.0
  0
LINE
  5
170
330
1F
100
AcDbEntity
  8
0
100
AcDbLine
 10
-7.661024412912362
 20
61.45579207267586
 30
0.0
 11
-7.975662239874133
 21
60.70654659983884
 31
0.0
  0
LINE
  5
171
330
1F
100
AcDbEntity
  8
0
100
AcDbLine
 10
-7.975662239874133
 20
60.70654659983884
 30
0.0
 11
-8.487986183536103
 21
60.08104358173019
 31
0.0
  0
LINE
  5
172
330
1F
100
AcDbEntity
  8
0
100
AcDbLine
 10
-8.487986183536103
 20
60.08104358173019
 30
0.0
 11
-9.185923809290632
 21
59.61097315919497
 31
0.0
  0
LINE
  5
173
330
1F
100
AcDbEntity
  8
0
100
AcDbLine
 10
-9.185923809290632
 20
59.61097315919497
 30
0.0
 11
-10.04759382941136
 21
59.3167075656336
 31
0.0
  0
LINE
  5
174
330
1F
100
AcDbEntity
  8
0
100
AcDbLine
 10
-10.04759382941136
 20
59.3167075656336
 30
0.0
 11
-11.05111495617192
 21
59.21861903444648
 31
0.0
  0
LINE
  5
175
330
1F
100
AcDbEntity
  8
0
100
AcDbLine
 10
-11.05111495617192
 20
59.21861903444648
 30
0.0
 11
-12.29759382941136
 21
59.32123472861148
 31
0.0
  0
LINE
  5
176
330
1F
100
AcDbEntity
  8
0
100
AcDbLine
 10
-12.29759382941136
 20
59.32123472861148
 30
0.0
 11
-13.36298618353611
 21
59.58079207267586
 31
0.0
  0
LINE
  5
177
330
1F
100
AcDbEntity
  8
0
100
AcDbLine
 10
-13.36298618353611
 20
59.58079207267586
 30
0.0
 11
-13.36298618353611
 21
61.58481621754507
 31
0.0
  0
LINE
  5
178
330
1F
100
AcDbEntity
  8
0
100
AcDbLine
 10
-13.36298618353611
 20
61.58481621754507
 30
0.0
 11
-12.43189966442142
 21
61.2226431793157
 31
0.0
  0
LINE
  5
179
330
1F
100
AcDbEntity
  8
0
100
AcDbLine
 10
-12.43189966442142
 20
61.2226431793157
 30
0.0
 11
-11.44950529822423
 21
61.10191883323924
 31
0.0
  0
LINE
  5
17A
330
1F
100
AcDbEntity
  8
0
100
AcDbLine
 10
-11.44950529822423
 20
61.10191883323924
 30
0.0
 11
-10.86625580124234
 21
61.16228100627747
 31
0.0
  0
LINE
  5
17B
330
1F
100
AcDbEntity
  8
0
100
AcDbLine
 10
-10.86625580124234
 20
61.16228100627747
 30
0.0
 11
-10.44447511713772
 21
61.34336752539215
 31
0.0
  0
LINE
  5
17C
330
1F
100
AcDbEntity
  8
0
100
AcDbLine
 10
-10.44447511713772
 20
61.34336752539215
 30
0.0
 11
-10.18869040888822
 21
61.63461501030161
 31
0.0
  0
LINE
  5
17D
330
1F
100
AcDbEntity
  8
0
100
AcDbLine
 10
-10.18869040888822
 20
61.63461501030161
 30
0.0
 11
-10.10342883947172
 21
62.02546008072415
 31
0.0
  0
LINE
  5
17E
330
1F
100
AcDbEntity
  8
0
100
AcDbLine
 10
-10.10342883947172
 20
62.02546008072415
 30
0.0
 11
-10.20227189782182
 21
62.44271360185092
 31
0.0
  0
LINE
  5
17F
330
1F
100
AcDbEntity
  8
0
100
AcDbLine
 10
-10.20227189782182
 20
62.44271360185092
 30
0.0
 11
-10.49880107287212
 21
62.74075183122716
 31
0.0
  0
LINE
  5
180
330
1F
100
AcDbEntity
  8
0
100
AcDbLine
 10
-10.49880107287212
 20
62.74075183122716
 30
0.0
 11
-10.99301636462263
 21
62.91957476885293
 31
0.0
  0
LINE
  5
181
330
1F
100
AcDbEntity
  8
0
100
AcDbLine
 10
-10.99301636462263
 20
62.91957476885293
 30
0.0
 11
-11.68491777307333
 21
62.97918241472817
 31
0.0
  0
LINE
  5
182
330
1F
100
AcDbEntity
  8
0
100
AcDbLine
 10
-11.68491777307333
 20
62.97918241472817
 30
0.0
 11
-12.44699020768097
 21
62.94145605657928
 31
0.0
  0
LINE
  5
183
330
1F
100
AcDbEntity
  8
0
100
AcDbLine
 10
-12.44699020768097
 20
62.94145605657928
 30
0.0
 11
-13.1517185779023
 21
62.8282769821326
 31
0.0
  0
LINE
  5
184
330
1F
100
AcDbEntity
  8
0
100
AcDbLine
 10
-13.1517185779023
 20
62.8282769821326
 30
0.0
 11
-12.82576284349586
 21
68.02546008072414
 31
0.0
  0
LINE
  5
185
330
1F
100
AcDbEntity
  8
0
100
AcDbLine
 10
-12.82576284349586
 20
68.02546008072414
 30
0.0
 11
-7.936426827399284
 21
68.02546008072414
 31
0.0
  0
LINE
  5
186
330
1F
100
AcDbEntity
  8
0
100
AcDbLine
 10
-7.936426827399284
 20
68.02546008072414
 30
0.0
 11
-7.936426827399284
 21
66.02143593585492
 31
0.0
  0
LINE
  5
187
330
1F
100
AcDbEntity
  8
0
100
AcDbLine
 10
-7.936426827399284
 20
66.02143593585492
 30
0.0
 11
-10.8338111332343
 21
66.02143593585492
 31
0.0
  0
LINE
  5
188
330
1F
100
AcDbEntity
  8
0
100
AcDbLine
 10
-10.8338111332343
 20
66.02143593585492
 30
0.0
 11
-10.91831817548782
 21
64.80815625778652
 31
0.0
  0
LINE
  5
189
330
1F
100
AcDbEntity
  8
0
100
AcDbLine
 10
-10.91831817548782
 20
64.80815625778652
 30
0.0
 11
-10.26037048937112
 21
64.84437356160946
 31
0.0
  0
LINE
  5
18A
330
1F
100
AcDbEntity
  8
0
100
AcDbLine
 10
-10.26037048937112
 20
64.84437356160946
 30
0.0
 11
-9.6608986583852
 21
64.80155414511047
 31
0.0
  0
LINE
  5
18B
330
1F
100
AcDbEntity
  8
0
100
AcDbLine
 10
-9.6608986583852
 20
64.80155414511047
 30
0.0
 11
-9.130088799230272
 21
64.67309589561349
 31
0.0
  0
LINE
  5
18C
330
1F
100
AcDbEntity
  8
0
100
AcDbLine
 10
-9.130088799230272
 20
64.67309589561349
 30
0.0
 11
-8.667940911906328
 21
64.45899881311851
 31
0.0
  0
LINE
  5
18D
330
1F
100
AcDbEntity
  8
0
100
AcDbLine
 10
-8.667940911906328
 20
64.45899881311851
 30
0.0
 11
-8.27445499641337
 21
64.15926289762555
 31
0.0
  0
LINE
  5
18E
330
1F
100
AcDbEntity
  8
0
100
AcDbLine
 10
-8.27445499641337
 20
64.15926289762555
 30
0.0
 11
-7.960194433033086
 21
63.78596058374226
 31
0.0
  0
LINE
  5
18F
330
1F
100
AcDbEntity
  8
0
100
AcDbLine
 10
-7.960194433033086
 20
63.78596058374226
 30
0.0
 11
-7.73572260204717
 21
63.35116430607627
 31
0.0
  0
LINE
  5
190
330
1F
100
AcDbEntity
  8
0
100
AcDbLine
 10
-7.73572260204717
 20
63.35116430607627
 30
0.0
 11
-7.601039503455621
 21
62.85487406462757
 31
0.0
  0
LINE
  5
191
330
1F
100
AcDbEntity
  8
0
100
AcDbLine
 10
-7.601039503455621
 20
62.85487406462757
 30
0.0
 11
-7.556145137258439
 21
62.29708985939618
 31
0.0
  0
LINE
  5
192
330
1F
100
AcDbEntity
  8
0
100
AcDbLine
 10
1.902607377832104
 20
59.36952446704205
 30
0.0
 11
1.902607377832104
 21
62.9308926762976
 31
0.0
  0
LINE
  5
193
330
1F
100
AcDbEntity
  8
0
100
AcDbLine
 10
1.902607377832104
 20
62.9308926762976
 30
0.0
 11
1.862617438194279
 21
63.32098321955714
 31
0.0
  0
LINE
  5
194
330
1F
100
AcDbEntity
  8
0
100
AcDbLine
 10
1.862617438194279
 20
63.32098321955714
 30
0.0
 11
1.742647619280796
 21
63.59789468837002
 31
0.0
  0
LINE
  5
195
330
1F
100
AcDbEntity
  8
0
100
AcDbLine
 10
1.742647619280796
 20
63.59789468837002
 30
0.0
 11
1.532134540809968
 21
63.76313613706218
 31
0.0
  0
LINE
  5
196
330
1F
100
AcDbEntity
  8
0
100
AcDbLine
 10
1.532134540809968
 20
63.76313613706218
 30
0.0
 11
1.22051482250011
 21
63.81821661995956
 31
0.0
  0
LINE
  5
197
330
1F
100
AcDbEntity
  8
0
100
AcDbLine
 10
1.22051482250011
 20
63.81821661995956
 30
0.0
 11
0.9036134140494073
 21
63.75106370245454
 31
0.0
  0
LINE
  5
198
330
1F
100
AcDbEntity
  8
0
100
AcDbLine
 10
0.9036134140494073
 20
63.75106370245454
 30
0.0
 11
0.6651828305484018
 21
63.54960494993944
 31
0.0
  0
LINE
  5
199
330
1F
100
AcDbEntity
  8
0
100
AcDbLine
 10
0.6651828305484018
 20
63.54960494993944
 30
0.0
 11
0.5157864522787862
 21
63.22893090567384
 31
0.0
  0
LINE
  5
19A
330
1F
100
AcDbEntity
  8
0
100
AcDbLine
 10
0.5157864522787862
 20
63.22893090567384
 30
0.0
 11
0.4659876595222419
 21
62.8041321129173
 31
0.0
  0
LINE
  5
19B
330
1F
100
AcDbEntity
  8
0
100
AcDbLine
 10
0.4659876595222419
 20
62.8041321129173
 30
0.0
 11
0.4659876595222419
 21
59.36952446704205
 31
0.0
  0
LINE
  5
19C
330
1F
100
AcDbEntity
  8
0
100
AcDbLine
 10
0.4659876595222419
 20
59.36952446704205
 30
0.0
 11
-2.105440911906328
 21
59.36952446704205
 31
0.0
  0
LINE
  5
19D
330
1F
100
AcDbEntity
  8
0
100
AcDbLine
 10
-2.105440911906328
 20
59.36952446704205
 30
0.0
 11
-2.105440911906328
 21
62.87053050325936
 31
0.0
  0
LINE
  5
19E
330
1F
100
AcDbEntity
  8
0
100
AcDbLine
 10
-2.105440911906328
 20
62.87053050325936
 30
0.0
 11
-2.145808115125641
 21
63.2851431793157
 31
0.0
  0
LINE
  5
19F
330
1F
100
AcDbEntity
  8
0
100
AcDbLine
 10
-2.145808115125641
 20
63.2851431793157
 30
0.0
 11
-2.266909724783589
 21
63.5812950907845
 31
0.0
  0
LINE
  5
1A0
330
1F
100
AcDbEntity
  8
0
100
AcDbLine
 10
-2.266909724783589
 20
63.5812950907845
 30
0.0
 11
-2.468745740880168
 21
63.7589862376658
 31
0.0
  0
LINE
  5
1A1
330
1F
100
AcDbEntity
  8
0
100
AcDbLine
 10
-2.468745740880168
 20
63.7589862376658
 30
0.0
 11
-2.751316163415381
 21
63.81821661995956
 31
0.0
  0
LINE
  5
1A2
330
1F
100
AcDbEntity
  8
0
100
AcDbLine
 10
-2.751316163415381
 20
63.81821661995956
 30
0.0
 11
-3.09538054973329
 21
63.74955464812858
 31
0.0
  0
LINE
  5
1A3
330
1F
100
AcDbEntity
  8
0
100
AcDbLine
 10
-3.09538054973329
 20
63.74955464812858
 30
0.0
 11
-3.342865459190028
 21
63.54356873263561
 31
0.0
  0
LINE
  5
1A4
330
1F
100
AcDbEntity
  8
0
100
AcDbLine
 10
-3.342865459190028
 20
63.54356873263561
 30
0.0
 11
-3.492261837459647
 21
63.20931319943642
 31
0.0
  0
LINE
  5
1A5
330
1F
100
AcDbEntity
  8
0
100
AcDbLine
 10
-3.492261837459647
 20
63.20931319943642
 30
0.0
 11
-3.542060630216185
 21
62.75584237448673
 31
0.0
  0
LINE
  5
1A6
330
1F
100
AcDbEntity
  8
0
100
AcDbLine
 10
-3.542060630216185
 20
62.75584237448673
 30
0.0
 11
-3.542060630216185
 21
59.36952446704205
 31
0.0
  0
LINE
  5
1A7
330
1F
100
AcDbEntity
  8
0
100
AcDbLine
 10
-3.542060630216185
 20
59.36952446704205
 30
0.0
 11
-6.113489201644758
 21
59.36952446704205
 31
0.0
  0
LINE
  5
1A8
330
1F
100
AcDbEntity
  8
0
100
AcDbLine
 10
-6.113489201644758
 20
59.36952446704205
 30
0.0
 11
-6.113489201644758
 21
65.55061098615674
 31
0.0
  0
LINE
  5
1A9
330
1F
100
AcDbEntity
  8
0
100
AcDbLine
 10
-6.113489201644758
 20
65.55061098615674
 30
0.0
 11
-3.542060630216185
 21
65.55061098615674
 31
0.0
  0
LINE
  5
1AA
330
1F
100
AcDbEntity
  8
0
100
AcDbLine
 10
-3.542060630216185
 20
65.55061098615674
 30
0.0
 11
-3.542060630216185
 21
64.57274378293742
 31
0.0
  0
LINE
  5
1AB
330
1F
100
AcDbEntity
  8
0
100
AcDbLine
 10
-3.517915761000893
 20
64.57274378293742
 30
0.0
 11
-3.056145137258439
 21
65.10091279702193
 31
0.0
  0
LINE
  5
1AC
330
1F
100
AcDbEntity
  8
0
100
AcDbLine
 10
-3.056145137258439
 20
65.10091279702193
 30
0.0
 11
-2.340853386755422
 21
65.5355204428972
 31
0.0
  0
LINE
  5
1AD
330
1F
100
AcDbEntity
  8
0
100
AcDbLine
 10
-2.340853386755422
 20
65.5355204428972
 30
0.0
 11
-1.925863447117597
 21
65.66001742478853
 31
0.0
  0
LINE
  5
1AE
330
1F
100
AcDbEntity
  8
0
100
AcDbLine
 10
-1.925863447117597
 20
65.66001742478853
 30
0.0
 11
-1.477674312308742
 21
65.70151641875232
 31
0.0
  0
LINE
  5
1AF
330
1F
100
AcDbEntity
  8
0
100
AcDbLine
 10
-1.477674312308742
 20
65.70151641875232
 30
0.0
 11
-0.8717890004375122
 21
65.63662708273621
 31
0.0
  0
LINE
  5
1B0
330
1F
100
AcDbEntity
  8
0
100
AcDbLine
 10
-0.8717890004375122
 20
65.63662708273621
 30
0.0
 11
-0.3700284370572319
 21
65.44195907468793
 31
0.0
  0
LINE
  5
1B1
330
1F
100
AcDbEntity
  8
0
100
AcDbLine
 10
-0.3700284370572319
 20
65.44195907468793
 30
0.0
 11
0.0426979210916586
 21
65.10694901432575
 31
0.0
  0
LINE
  5
1B2
330
1F
100
AcDbEntity
  8
0
100
AcDbLine
 10
0.0426979210916586
 20
65.10694901432575
 30
0.0
 11
0.3814806172687213
 21
64.621033521368
 31
0.0
  0
LINE
  5
1B3
330
1F
100
AcDbEntity
  8
0
100
AcDbLine
 10
0.3814806172687213
 20
64.621033521368
 30
0.0
 11
0.7617623074095698
 21
65.08054056362154
 31
0.0
  0
LINE
  5
1B4
330
1F
100
AcDbEntity
  8
0
100
AcDbLine
 10
0.7617623074095698
 20
65.08054056362154
 30
0.0
 11
1.250695909019228
 21
65.42083231412454
 31
0.0
  0
LINE
  5
1B5
330
1F
100
AcDbEntity
  8
0
100
AcDbLine
 10
1.250695909019228
 20
65.42083231412454
 30
0.0
 11
1.824136552882402
 21
65.63134539259538
 31
0.0
  0
LINE
  5
1B6
330
1F
100
AcDbEntity
  8
0
100
AcDbLine
 10
1.824136552882402
 20
65.63134539259538
 30
0.0
 11
2.457939369783812
 21
65.70151641875232
 31
0.0
  0
LINE
  5
1B7
330
1F
100
AcDbEntity
  8
0
100
AcDbLine
 10
2.457939369783812
 20
65.70151641875232
 30
0.0
 11
2.915560094129888
 21
65.66190374269597
 31
0.0
  0
LINE
  5
1B8
330
1F
100
AcDbEntity
  8
0
100
AcDbLine
 10
2.915560094129888
 20
65.66190374269597
 30
0.0
 11
3.316591281252626
 21
65.54306571452696
 31
0.0
  0
LINE
  5
1B9
330
1F
100
AcDbEntity
  8
0
100
AcDbLine
 10
3.316591281252626
 20
65.54306571452696
 30
0.0
 11
3.661032931152023
 21
65.34500233424528
 31
0.0
  0
LINE
  5
1BA
330
1F
100
AcDbEntity
  8
0
100
AcDbLine
 10
3.661032931152023
 20
65.34500233424528
 30
0.0
 11
3.948885043828077
 21
65.06771360185091
 31
0.0
  0
LINE
  5
1BB
330
1F
100
AcDbEntity
  8
0
100
AcDbLine
 10
3.948885043828077
 20
65.06771360185091
 30
0.0
 11
4.175997719884415
 21
64.71572668032174
 31
0.0
  0
LINE
  5
1BC
330
1F
100
AcDbEntity
  8
0
100
AcDbLine
 10
4.175997719884415
 20
64.71572668032174
 30
0.0
 11
4.338221059924658
 21
64.2935687326356
 31
0.0
  0
LINE
  5
1BD
330
1F
100
AcDbEntity
  8
0
100
AcDbLine
 10
4.338221059924658
 20
64.2935687326356
 30
0.0
 11
4.435555063948806
 21
63.80123975879256
 31
0.0
  0
LINE
  5
1BE
330
1F
100
AcDbEntity
  8
0
100
AcDbLine
 10
4.435555063948806
 20
63.80123975879256
 30
0.0
 11
4.467999731956854
 21
63.23873975879256
 31
0.0
  0
LINE
  5
1BF
330
1F
100
AcDbEntity
  8
0
100
AcDbLine
 10
4.467999731956854
 20
63.23873975879256
 30
0.0
 11
4.467999731956854
 21
59.36952446704205
 31
0.0
  0
LINE
  5
1C0
330
1F
100
AcDbEntity
  8
0
100
AcDbLine
 10
4.467999731956854
 20
59.36952446704205
 30
0.0
 11
1.902607377832104
 21
59.36952446704205
 31
0.0
  0
LINE
  5
1C1
330
1F
100
AcDbEntity
  8
0
100
AcDbLine
 10
13.64908625107154
 20
59.36952446704205
 30
0.0
 11
13.64908625107154
 21
62.9308926762976
 31
0.0
  0
LINE
  5
1C2
330
1F
100
AcDbEntity
  8
0
100
AcDbLine
 10
13.64908625107154
 20
62.9308926762976
 30
0.0
 11
13.60909631143372
 21
63.32098321955714
 31
0.0
  0
LINE
  5
1C3
330
1F
100
AcDbEntity
  8
0
100
AcDbLine
 10
13.60909631143372
 20
63.32098321955714
 30
0.0
 11
13.48912649252023
 21
63.59789468837002
 31
0.0
  0
LINE
  5
1C4
330
1F
100
AcDbEntity
  8
0
100
AcDbLine
 10
13.48912649252023
 20
63.59789468837002
 30
0.0
 11
13.27861341404941
 21
63.76313613706218
 31
0.0
  0
LINE
  5
1C5
330
1F
100
AcDbEntity
  8
0
100
AcDbLine
 10
13.27861341404941
 20
63.76313613706218
 30
0.0
 11
12.96699369573955
 21
63.81821661995956
 31
0.0
  0
LINE
  5
1C6
330
1F
100
AcDbEntity
  8
0
100
AcDbLine
 10
12.96699369573955
 20
63.81821661995956
 30
0.0
 11
12.65009228728885
 21
63.75106370245454
 31
0.0
  0
LINE
  5
1C7
330
1F
100
AcDbEntity
  8
0
100
AcDbLine
 10
12.65009228728885
 20
63.75106370245454
 30
0.0
 11
12.41166170378784
 21
63.54960494993944
 31
0.0
  0
LINE
  5
1C8
330
1F
100
AcDbEntity
  8
0
100
AcDbLine
 10
12.41166170378784
 20
63.54960494993944
 30
0.0
 11
12.26226532551823
 21
63.22893090567384
 31
0.0
  0
LINE
  5
1C9
330
1F
100
AcDbEntity
  8
0
100
AcDbLine
 10
12.26226532551823
 20
63.22893090567384
 30
0.0
 11
12.21246653276168
 21
62.8041321129173
 31
0.0
  0
LINE
  5
1CA
330
1F
100
AcDbEntity
  8
0
100
AcDbLine
 10
12.21246653276168
 20
62.8041321129173
 30
0.0
 11
12.21246653276168
 21
59.36952446704205
 31
0.0
  0
LINE
  5
1CB
330
1F
100
AcDbEntity
  8
0
100
AcDbLine
 10
12.21246653276168
 20
59.36952446704205
 30
0.0
 11
9.641037961333108
 21
59.36952446704205
 31
0.0
  0
LINE
  5
1CC
330
1F
100
AcDbEntity
  8
0
100
AcDbLine
 10
9.641037961333108
 20
59.36952446704205
 30
0.0
 11
9.641037961333108
 21
62.87053050325936
 31
0.0
  0
LINE
  5
1CD
330
1F
100
AcDbEntity
  8
0
100
AcDbLine
 10
9.641037961333108
 20
62.87053050325936
 30
0.0
 11
9.600670758113791
 21
63.2851431793157
 31
0.0
  0
LINE
  5
1CE
330
1F
100
AcDbEntity
  8
0
100
AcDbLine
 10
9.600670758113791
 20
63.2851431793157
 30
0.0
 11
9.479569148455845
 21
63.5812950907845
 31
0.0
  0
LINE
  5
1CF
330
1F
100
AcDbEntity
  8
0
100
AcDbLine
 10
9.479569148455845
 20
63.5812950907845
 30
0.0
 11
9.277733132359266
 21
63.7589862376658
 31
0.0
  0
LINE
  5
1D0
330
1F
100
AcDbEntity
  8
0
100
AcDbLine
 10
9.277733132359266
 20
63.7589862376658
 30
0.0
 11
8.995162709824054
 21
63.81821661995956
 31
0.0
  0
LINE
  5
1D1
330
1F
100
AcDbEntity
  8
0
100
AcDbLine
 10
8.995162709824054
 20
63.81821661995956
 30
0.0
 11
8.65109832350615
 21
63.74955464812858
 31
0.0
  0
LINE
  5
1D2
330
1F
100
AcDbEntity
  8
0
100
AcDbLine
 10
8.65109832350615
 20
63.74955464812858
 30
0.0
 11
8.40361341404941
 21
63.54356873263561
 31
0.0
  0
LINE
  5
1D3
330
1F
100
AcDbEntity
  8
0
100
AcDbLine
 10
8.40361341404941
 20
63.54356873263561
 30
0.0
 11
8.254217035779789
 21
63.20931319943642
 31
0.0
  0
LINE
  5
1D4
330
1F
100
AcDbEntity
  8
0
100
AcDbLine
 10
8.254217035779789
 20
63.20931319943642
 30
0.0
 11
8.20441824302325
 21
62.75584237448673
 31
0.0
  0
LINE
  5
1D5
330
1F
100
AcDbEntity
  8
0
100
AcDbLine
 10
8.20441824302325
 20
62.75584237448673
 30
0.0
 11
8.20441824302325
 21
59.36952446704205
 31
0.0
  0
LINE
  5
1D6
330
1F
100
AcDbEntity
  8
0
100
AcDbLine
 10
8.20441824302325
 20
59.36952446704205
 30
0.0
 11
5.632989671594677
 21
59.36952446704205
 31
0.0
  0
LINE
  5
1D7
330
1F
100
AcDbEntity
  8
0
100
AcDbLine
 10
5.632989671594677
 20
59.36952446704205
 30
0.0
 11
5.632989671594677
 21
65.55061098615674
 31
0.0
  0
LINE
  5
1D8
330
1F
100
AcDbEntity
  8
0
100
AcDbLine
 10
5.632989671594677
 20
65.55061098615674
 30
0.0
 11
8.20441824302325
 21
65.55061098615674
 31
0.0
  0
LINE
  5
1D9
330
1F
100
AcDbEntity
  8
0
100
AcDbLine
 10
8.20441824302325
 20
65.55061098615674
 30
0.0
 11
8.20441824302325
 21
64.57274378293742
 31
0.0
  0
LINE
  5
1DA
330
1F
100
AcDbEntity
  8
0
100
AcDbLine
 10
8.22856311223854
 20
64.57274378293742
 30
0.0
 11
8.690333735981
 21
65.10091279702193
 31
0.0
  0
LINE
  5
1DB
330
1F
100
AcDbEntity
  8
0
100
AcDbLine
 10
8.690333735981
 20
65.10091279702193
 30
0.0
 11
9.405625486484016
 21
65.5355204428972
 31
0.0
  0
LINE
  5
1DC
330
1F
100
AcDbEntity
  8
0
100
AcDbLine
 10
9.405625486484016
 20
65.5355204428972
 30
0.0
 11
9.820615426121842
 21
65.66001742478853
 31
0.0
  0
LINE
  5
1DD
330
1F
100
AcDbEntity
  8
0
100
AcDbLine
 10
9.820615426121842
 20
65.66001742478853
 30
0.0
 11
10.2688045609307
 21
65.70151641875232
 31
0.0
  0
LINE
  5
1DE
330
1F
100
AcDbEntity
  8
0
100
AcDbLine
 10
10.2688045609307
 20
65.70151641875232
 30
0.0
 11
10.87468987280192
 21
65.63662708273621
 31
0.0
  0
LINE
  5
1DF
330
1F
100
AcDbEntity
  8
0
100
AcDbLine
 10
10.87468987280192
 20
65.63662708273621
 30
0.0
 11
11.37645043618221
 21
65.44195907468793
 31
0.0
  0
LINE
  5
1E0
330
1F
100
AcDbEntity
  8
0
100
AcDbLine
 10
11.37645043618221
 20
65.44195907468793
 30
0.0
 11
11.7891767943311
 21
65.10694901432575
 31
0.0
  0
LINE
  5
1E1
330
1F
100
AcDbEntity
  8
0
100
AcDbLine
 10
11.7891767943311
 20
65.10694901432575
 30
0.0
 11
12.12795949050816
 21
64.621033521368
 31
0.0
  0
LINE
  5
1E2
330
1F
100
AcDbEntity
  8
0
100
AcDbLine
 10
12.12795949050816
 20
64.621033521368
 30
0.0
 11
12.508241180649
 21
65.08054056362154
 31
0.0
  0
LINE
  5
1E3
330
1F
100
AcDbEntity
  8
0
100
AcDbLine
 10
12.508241180649
 20
65.08054056362154
 30
0.0
 11
12.99717478225866
 21
65.42083231412454
 31
0.0
  0
LINE
  5
1E4
330
1F
100
AcDbEntity
  8
0
100
AcDbLine
 10
12.99717478225866
 20
65.42083231412454
 30
0.0
 11
13.57061542612184
 21
65.63134539259538
 31
0.0
  0
LINE
  5
1E5
330
1F
100
AcDbEntity
  8
0
100
AcDbLine
 10
13.57061542612184
 20
65.63134539259538
 30
0.0
 11
14.20441824302325
 21
65.70151641875232
 31
0.0
  0
LINE
  5
1E6
330
1F
100
AcDbEntity
  8
0
100
AcDbLine
 10
14.20441824302325
 20
65.70151641875232
 30
0.0
 11
14.66203896736933
 21
65.66190374269597
 31
0.0
  0
LINE
  5
1E7
330
1F
100
AcDbEntity
  8
0
100
AcDbLine
 10
14.66203896736933
 20
65.66190374269597
 30
0.0
 11
15.06307015449207
 21
65.54306571452696
 31
0.0
  0
LINE
  5
1E8
330
1F
100
AcDbEntity
  8
0
100
AcDbLine
 10
15.06307015449207
 20
65.54306571452696
 30
0.0
 11
15.40751180439146
 21
65.34500233424528
 31
0.0
  0
LINE
  5
1E9
330
1F
100
AcDbEntity
  8
0
100
AcDbLine
 10
15.40751180439146
 20
65.34500233424528
 30
0.0
 11
15.69536391706752
 21
65.06771360185091
 31
0.0
  0
LINE
  5
1EA
330
1F
100
AcDbEntity
  8
0
100
AcDbLine
 10
15.69536391706752
 20
65.06771360185091
 30
0.0
 11
15.92247659312385
 21
64.71572668032174
 31
0.0
  0
LINE
  5
1EB
330
1F
100
AcDbEntity
  8
0
100
AcDbLine
 10
15.92247659312385
 20
64.71572668032174
 30
0.0
 11
16.08469993316409
 21
64.2935687326356
 31
0.0
  0
LINE
  5
1EC
330
1F
100
AcDbEntity
  8
0
100
AcDbLine
 10
16.08469993316409
 20
64.2935687326356
 30
0.0
 11
16.18203393718824
 21
63.80123975879256
 31
0.0
  0
LINE
  5
1ED
330
1F
100
AcDbEntity
  8
0
100
AcDbLine
 10
16.18203393718824
 20
63.80123975879256
 30
0.0
 11
16.21447860519629
 21
63.23873975879256
 31
0.0
  0
LINE
  5
1EE
330
1F
100
AcDbEntity
  8
0
100
AcDbLine
 10
16.21447860519629
 20
63.23873975879256
 30
0.0
 11
16.21447860519629
 21
59.36952446704205
 31
0.0
  0
LINE
  5
1EF
330
1F
100
AcDbEntity
  8
0
100
AcDbLine
 10
16.21447860519629
 20
59.36952446704205
 30
0.0
 11
13.64908625107154
 21
59.36952446704205
 31
0.0
  0
LINE
  5
1F0
330
1F
100
AcDbEntity
  8
0
100
AcDbLine
 10
-18.63260388977353
 20
44.68340776684085
 30
0.0
 11
-18.74804654570914
 21
43.87606370245453
 31
0.0
  0
LINE
  5
1F1
330
1F
100
AcDbEntity
  8
0
100
AcDbLine
 10
-18.74804654570914
 20
43.87606370245453
 30
0.0
 11
-19.09437451351598
 21
43.18038965818894
 31
0.0
  0
LINE
  5
1F2
330
1F
100
AcDbEntity
  8
0
100
AcDbLine
 10
-19.09437451351598
 20
43.18038965818894
 30
0.0
 11
-19.64895197830472
 21
42.62203955758532
 31
0.0
  0
LINE
  5
1F3
330
1F
100
AcDbEntity
  8
0
100
AcDbLine
 10
-19.64895197830472
 20
42.62203955758532
 30
0.0
 11
-20.38914312518601
 21
42.22666732418491
 31
0.0
  0
LINE
  5
1F4
330
1F
100
AcDbEntity
  8
0
100
AcDbLine
 10
-20.38914312518601
 20
42.22666732418491
 30
0.0
 11
-21.30664815536709
 21
41.99125484933582
 31
0.0
  0
LINE
  5
1F5
330
1F
100
AcDbEntity
  8
0
100
AcDbLine
 10
-21.30664815536709
 20
41.99125484933582
 30
0.0
 11
-22.39316727005522
 21
41.91278402438612
 31
0.0
  0
LINE
  5
1F6
330
1F
100
AcDbEntity
  8
0
100
AcDbLine
 10
-22.39316727005522
 20
41.91278402438612
 30
0.0
 11
-23.69397209902906
 21
42.02747215315875
 31
0.0
  0
LINE
  5
1F7
330
1F
100
AcDbEntity
  8
0
100
AcDbLine
 10
-23.69397209902906
 20
42.02747215315875
 30
0.0
 11
-24.88008879923027
 21
42.37153653947666
 31
0.0
  0
LINE
  5
1F8
330
1F
100
AcDbEntity
  8
0
100
AcDbLine
 10
-24.88008879923027
 20
42.37153653947666
 30
0.0
 11
-24.88008879923027
 21
44.74376993987907
 31
0.0
  0
LINE
  5
1F9
330
1F
100
AcDbEntity
  8
0
100
AcDbLine
 10
-24.88008879923027
 20
44.74376993987907
 30
0.0
 11
-24.30815720969305
 21
44.38386048313864
 31
0.0
  0
LINE
  5
1FA
330
1F
100
AcDbEntity
  8
0
100
AcDbLine
 10
-24.30815720969305
 20
44.38386048313864
 30
0.0
 11
-23.67888155576951
 21
44.10091279702193
 31
0.0
  0
LINE
  5
1FB
330
1F
100
AcDbEntity
  8
0
100
AcDbLine
 10
-23.67888155576951
 20
44.10091279702193
 30
0.0
 11
-23.04356968454214
 21
43.91756269641832
 31
0.0
  0
LINE
  5
1FC
330
1F
100
AcDbEntity
  8
0
100
AcDbLine
 10
-23.04356968454214
 20
43.91756269641832
 30
0.0
 11
-22.45352944309345
 21
43.85644599621711
 31
0.0
  0
LINE
  5
1FD
330
1F
100
AcDbEntity
  8
0
100
AcDbLine
 10
-22.45352944309345
 20
43.85644599621711
 30
0.0
 11
-22.0732477529526
 21
43.89492688152898
 31
0.0
  0
LINE
  5
1FE
330
1F
100
AcDbEntity
  8
0
100
AcDbLine
 10
-22.0732477529526
 20
43.89492688152898
 30
0.0
 11
-21.78954553967293
 21
44.01036953746459
 31
0.0
  0
LINE
  5
1FF
330
1F
100
AcDbEntity
  8
0
100
AcDbLine
 10
-21.78954553967293
 20
44.01036953746459
 30
0.0
 11
-21.61298618353611
 21
44.19975585537203
 31
0.0
  0
LINE
  5
200
330
1F
100
AcDbEntity
  8
0
100
AcDbLine
 10
-21.61298618353611
 20
44.19975585537203
 30
0.0
 11
-21.55413306482383
 21
44.4600677265994
 31
0.0
  0
LINE
  5
201
330
1F
100
AcDbEntity
  8
0
100
AcDbLine
 10
-21.55413306482383
 20
44.4600677265994
 30
0.0
 11
-21.67183930224838
 21
44.83129509078451
 31
0.0
  0
LINE
  5
202
330
1F
100
AcDbEntity
  8
0
100
AcDbLine
 10
-21.67183930224838
 20
44.83129509078451
 30
0.0
 11
-22.02797612317393
 21
45.13008784732375
 31
0.0
  0
LINE
  5
203
330
1F
100
AcDbEntity
  8
0
100
AcDbLine
 10
-22.02797612317393
 20
45.13008784732375
 30
0.0
 11
-22.91228195818399
 21
45.51036953746459
 31
0.0
  0
LINE
  5
204
330
1F
100
AcDbEntity
  8
0
100
AcDbLine
 10
-22.91228195818399
 20
45.51036953746459
 30
0.0
 11
-23.82601435255019
 21
45.973649215533
 31
0.0
  0
LINE
  5
205
330
1F
100
AcDbEntity
  8
0
100
AcDbLine
 10
-23.82601435255019
 20
45.973649215533
 30
0.0
 11
-24.47868034852604
 21
46.56067134832978
 31
0.0
  0
LINE
  5
206
330
1F
100
AcDbEntity
  8
0
100
AcDbLine
 10
-24.47868034852604
 20
46.56067134832978
 30
0.0
 11
-24.7071134471176
 21
46.90058583525131
 31
0.0
  0
LINE
  5
207
330
1F
100
AcDbEntity
  8
0
100
AcDbLine
 10
-24.7071134471176
 20
46.90058583525131
 30
0.0
 11
-24.87027994611156
 21
47.27143593585493
 31
0.0
  0
LINE
  5
208
330
1F
100
AcDbEntity
  8
0
100
AcDbLine
 10
-24.87027994611156
 20
47.27143593585493
 30
0.0
 11
-24.96817984550794
 21
47.67322165014065
 31
0.0
  0
LINE
  5
209
330
1F
100
AcDbEntity
  8
0
100
AcDbLine
 10
-24.96817984550794
 20
47.67322165014065
 30
0.0
 11
-25.00081314530673
 21
48.10594297810845
 31
0.0
  0
LINE
  5
20A
330
1F
100
AcDbEntity
  8
0
100
AcDbLine
 10
-25.00081314530673
 20
48.10594297810845
 30
0.0
 11
-24.94120549943148
 21
48.70220806865171
 31
0.0
  0
LINE
  5
20B
330
1F
100
AcDbEntity
  8
0
100
AcDbLine
 10
-24.94120549943148
 20
48.70220806865171
 30
0.0
 11
-24.76238256180572
 21
49.23547014108632
 31
0.0
  0
LINE
  5
20C
330
1F
100
AcDbEntity
  8
0
100
AcDbLine
 10
-24.76238256180572
 20
49.23547014108632
 30
0.0
 11
-24.46434433242947
 21
49.70572919541227
 31
0.0
  0
LINE
  5
20D
330
1F
100
AcDbEntity
  8
0
100
AcDbLine
 10
-24.46434433242947
 20
49.70572919541227
 30
0.0
 11
-24.04709081130271
 21
50.11298523162958
 31
0.0
  0
LINE
  5
20E
330
1F
100
AcDbEntity
  8
0
100
AcDbLine
 10
-24.04709081130271
 20
50.11298523162958
 30
0.0
 11
-23.52948517749989
 21
50.44177044289719
 31
0.0
  0
LINE
  5
20F
330
1F
100
AcDbEntity
  8
0
100
AcDbLine
 10
-23.52948517749989
 20
50.44177044289719
 30
0.0
 11
-22.93039061009546
 21
50.67661702237405
 31
0.0
  0
LINE
  5
210
330
1F
100
AcDbEntity
  8
0
100
AcDbLine
 10
-22.93039061009546
 20
50.67661702237405
 30
0.0
 11
-22.24980710908943
 21
50.81752497006017
 31
0.0
  0
LINE
  5
211
330
1F
100
AcDbEntity
  8
0
100
AcDbLine
 10
-22.24980710908943
 20
50.81752497006017
 30
0.0
 11
-21.48773467448178
 21
50.86449428595554
 31
0.0
  0
LINE
  5
212
330
1F
100
AcDbEntity
  8
0
100
AcDbLine
 10
-21.48773467448178
 20
50.86449428595554
 30
0.0
 11
-20.65473668655422
 21
50.82827698213259
 31
0.0
  0
LINE
  5
213
330
1F
100
AcDbEntity
  8
0
100
AcDbLine
 10
-20.65473668655422
 20
50.82827698213259
 30
0.0
 11
-19.96358980526649
 21
50.73773372257526
 31
0.0
  0
LINE
  5
214
330
1F
100
AcDbEntity
  8
0
100
AcDbLine
 10
-19.96358980526649
 20
50.73773372257526
 30
0.0
 11
-19.09135640486407
 21
50.53250233424527
 31
0.0
  0
LINE
  5
215
330
1F
100
AcDbEntity
  8
0
100
AcDbLine
 10
-19.09135640486407
 20
50.53250233424527
 30
0.0
 11
-19.09135640486407
 21
48.3292830183499
 31
0.0
  0
LINE
  5
216
330
1F
100
AcDbEntity
  8
0
100
AcDbLine
 10
-19.09135640486407
 20
48.3292830183499
 30
0.0
 11
-20.17485741090029
 21
48.77747215315875
 31
0.0
  0
LINE
  5
217
330
1F
100
AcDbEntity
  8
0
100
AcDbLine
 10
-20.17485741090029
 20
48.77747215315875
 30
0.0
 11
-20.7098171694516
 21
48.88951943686097
 31
0.0
  0
LINE
  5
218
330
1F
100
AcDbEntity
  8
0
100
AcDbLine
 10
-20.7098171694516
 20
48.88951943686097
 30
0.0
 11
-21.24024976502504
 21
48.92686853142837
 31
0.0
  0
LINE
  5
219
330
1F
100
AcDbEntity
  8
0
100
AcDbLine
 10
-21.24024976502504
 20
48.92686853142837
 30
0.0
 11
-21.63260388977353
 21
48.88612406462757
 31
0.0
  0
LINE
  5
21A
330
1F
100
AcDbEntity
  8
0
100
AcDbLine
 10
-21.63260388977353
 20
48.88612406462757
 30
0.0
 11
-21.9404509722685
 21
48.76389066422515
 31
0.0
  0
LINE
  5
21B
330
1F
100
AcDbEntity
  8
0
100
AcDbLine
 10
-21.9404509722685
 20
48.76389066422515
 30
0.0
 11
-22.13964614329466
 21
48.57073171050282
 31
0.0
  0
LINE
  5
21C
330
1F
100
AcDbEntity
  8
0
100
AcDbLine
 10
-22.13964614329466
 20
48.57073171050282
 30
0.0
 11
-22.20604453363671
 21
48.31721058374226
 31
0.0
  0
LINE
  5
21D
330
1F
100
AcDbEntity
  8
0
100
AcDbLine
 10
-22.20604453363671
 20
48.31721058374226
 30
0.0
 11
-22.15247310506528
 21
48.06897114712254
 31
0.0
  0
LINE
  5
21E
330
1F
100
AcDbEntity
  8
0
100
AcDbLine
 10
-22.15247310506528
 20
48.06897114712254
 30
0.0
 11
-21.99175881935099
 21
47.86751239460745
 31
0.0
  0
LINE
  5
21F
330
1F
100
AcDbEntity
  8
0
100
AcDbLine
 10
-21.99175881935099
 20
47.86751239460745
 30
0.0
 11
-21.09538054973329
 21
47.40574177086499
 31
0.0
  0
LINE
  5
220
330
1F
100
AcDbEntity
  8
0
100
AcDbLine
 10
-21.09538054973329
 20
47.40574177086499
 30
0.0
 11
-19.946235680518
 21
46.83682828997969
 31
0.0
  0
LINE
  5
221
330
1F
100
AcDbEntity
  8
0
100
AcDbLine
 10
-19.946235680518
 20
46.83682828997969
 30
0.0
 11
-19.51936193806327
 21
46.53313110688109
 31
0.0
  0
LINE
  5
222
330
1F
100
AcDbEntity
  8
0
100
AcDbLine
 10
-19.51936193806327
 20
46.53313110688109
 30
0.0
 11
-19.19095399037715
 21
46.21660696201187
 31
0.0
  0
LINE
  5
223
330
1F
100
AcDbEntity
  8
0
100
AcDbLine
 10
-19.19095399037715
 20
46.21660696201187
 30
0.0
 11
-18.94667582136307
 21
45.87857879299779
 31
0.0
  0
LINE
  5
224
330
1F
100
AcDbEntity
  8
0
100
AcDbLine
 10
-18.94667582136307
 20
45.87857879299779
 30
0.0
 11
-18.77219141492444
 21
45.51036953746459
 31
0.0
  0
LINE
  5
225
330
1F
100
AcDbEntity
  8
0
100
AcDbLine
 10
-18.77219141492444
 20
45.51036953746459
 30
0.0
 11
-18.66750077106126
 21
45.11197919541227
 31
0.0
  0
LINE
  5
226
330
1F
100
AcDbEntity
  8
0
100
AcDbLine
 10
-18.66750077106126
 20
45.11197919541227
 30
0.0
 11
-18.63260388977353
 21
44.68340776684085
 31
0.0
  0
LINE
  5
227
330
1F
100
AcDbEntity
  8
0
100
AcDbLine
 10
-13.45956566039727
 20
42.14819649923521
 30
0.0
 11
-14.03300630426045
 21
41.9882367406839
 31
0.0
  0
LINE
  5
228
330
1F
100
AcDbEntity
  8
0
100
AcDbLine
 10
-14.03300630426045
 20
41.9882367406839
 30
0.0
 11
-14.9927648555683
 21
41.91278402438612
 31
0.0
  0
LINE
  5
229
330
1F
100
AcDbEntity
  8
0
100
AcDbLine
 10
-14.9927648555683
 20
41.91278402438612
 30
0.0
 11
-15.50075026804315
 21
41.94975585537203
 31
0.0
  0
LINE
  5
22A
330
1F
100
AcDbEntity
  8
0
100
AcDbLine
 10
-15.50075026804315
 20
41.94975585537203
 30
0.0
 11
-15.95025982538721
 21
42.06067134832978
 31
0.0
  0
LINE
  5
22B
330
1F
100
AcDbEntity
  8
0
100
AcDbLine
 10
-15.95025982538721
 20
42.06067134832978
 30
0.0
 11
-16.3412935276005
 21
42.24553050325936
 31
0.0
  0
LINE
  5
22C
330
1F
100
AcDbEntity
  8
0
100
AcDbLine
 10
-16.3412935276005
 20
42.24553050325936
 30
0.0
 11
-16.67385137468299
 21
42.50433332016077
 31
0.0
  0
LINE
  5
22D
330
1F
100
AcDbEntity
  8
0
100
AcDbLine
 10
-16.67385137468299
 20
42.50433332016077
 30
0.0
 11
-16.93925630426045
 21
42.83142084531167
 31
0.0
  0
LINE
  5
22E
330
1F
100
AcDbEntity
  8
0
100
AcDbLine
 10
-16.93925630426045
 20
42.83142084531167
 30
0.0
 11
-17.12883125395864
 21
43.22113412498975
 31
0.0
  0
LINE
  5
22F
330
1F
100
AcDbEntity
  8
0
100
AcDbLine
 10
-17.12883125395864
 20
43.22113412498975
 30
0.0
 11
-17.24257622377755
 21
43.67347315919498
 31
0.0
  0
LINE
  5
230
330
1F
100
AcDbEntity
  8
0
100
AcDbLine
 10
-17.24257622377755
 20
43.67347315919498
 30
0.0
 11
-17.28049121371719
 21
44.18843794792737
 31
0.0
  0
LINE
  5
231
330
1F
100
AcDbEntity
  8
0
100
AcDbLine
 10
-17.28049121371719
 20
44.18843794792737
 30
0.0
 11
-17.28049121371719
 21
46.46409187146861
 31
0.0
  0
LINE
  5
232
330
1F
100
AcDbEntity
  8
0
100
AcDbLine
 10
-17.28049121371719
 20
46.46409187146861
 30
0.0
 11
-18.25232219963268
 21
46.46409187146861
 31
0.0
  0
LINE
  5
233
330
1F
100
AcDbEntity
  8
0
100
AcDbLine
 10
-18.25232219963268
 20
46.46409187146861
 30
0.0
 11
-18.25232219963268
 21
48.24477597609638
 31
0.0
  0
LINE
  5
234
330
1F
100
AcDbEntity
  8
0
100
AcDbLine
 10
-18.25232219963268
 20
48.24477597609638
 30
0.0
 11
-17.28049121371719
 21
48.24477597609638
 31
0.0
  0
LINE
  5
235
330
1F
100
AcDbEntity
  8
0
100
AcDbLine
 10
-17.28049121371719
 20
48.24477597609638
 30
0.0
 11
-17.28049121371719
 21
49.45805565416479
 31
0.0
  0
LINE
  5
236
330
1F
100
AcDbEntity
  8
0
100
AcDbLine
 10
-17.28049121371719
 20
49.45805565416479
 30
0.0
 11
-14.74527994611156
 21
50.15825686140825
 31
0.0
  0
LINE
  5
237
330
1F
100
AcDbEntity
  8
0
100
AcDbLine
 10
-14.74527994611156
 20
50.15825686140825
 30
0.0
 11
-14.74527994611156
 21
48.24477597609638
 31
0.0
  0
LINE
  5
238
330
1F
100
AcDbEntity
  8
0
100
AcDbLine
 10
-14.74527994611156
 20
48.24477597609638
 30
0.0
 11
-13.45956566039727
 21
48.24477597609638
 31
0.0
  0
LINE
  5
239
330
1F
100
AcDbEntity
  8
0
100
AcDbLine
 10
-13.45956566039727
 20
48.24477597609638
 30
0.0
 11
-13.45956566039727
 21
46.46409187146861
 31
0.0
  0
LINE
  5
23A
330
1F
100
AcDbEntity
  8
0
100
AcDbLine
 10
-13.45956566039727
 20
46.46409187146861
 30
0.0
 11
-14.74527994611156
 21
46.46409187146861
 31
0.0
  0
LINE
  5
23B
330
1F
100
AcDbEntity
  8
0
100
AcDbLine
 10
-14.74527994611156
 20
46.46409187146861
 30
0.0
 11
-14.74527994611156
 21
44.61097315919497
 31
0.0
  0
LINE
  5
23C
330
1F
100
AcDbEntity
  8
0
100
AcDbLine
 10
-14.74527994611156
 20
44.61097315919497
 30
0.0
 11
-14.70491274289224
 21
44.25445907468793
 31
0.0
  0
LINE
  5
23D
330
1F
100
AcDbEntity
  8
0
100
AcDbLine
 10
-14.70491274289224
 20
44.25445907468793
 30
0.0
 11
-14.58381113323429
 21
43.9998061571829
 31
0.0
  0
LINE
  5
23E
330
1F
100
AcDbEntity
  8
0
100
AcDbLine
 10
-14.58381113323429
 20
43.9998061571829
 30
0.0
 11
-14.38197511713772
 21
43.84701440667988
 31
0.0
  0
LINE
  5
23F
330
1F
100
AcDbEntity
  8
0
100
AcDbLine
 10
-14.38197511713772
 20
43.84701440667988
 30
0.0
 11
-14.0994046946025
 21
43.79608382317888
 31
0.0
  0
LINE
  5
240
330
1F
100
AcDbEntity
  8
0
100
AcDbLine
 10
-14.0994046946025
 20
43.79608382317888
 30
0.0
 11
-13.45956566039727
 21
43.92888060386298
 31
0.0
  0
LINE
  5
241
330
1F
100
AcDbEntity
  8
0
100
AcDbLine
 10
-13.45956566039727
 20
43.92888060386298
 30
0.0
 11
-13.45956566039727
 21
42.14819649923521
 31
0.0
  0
LINE
  5
242
330
1F
100
AcDbEntity
  8
0
100
AcDbLine
 10
-8.00886143504516
 20
46.04155666020101
 30
0.0
 11
-8.40121555979365
 21
46.16228100627747
 31
0.0
  0
LINE
  5
243
330
1F
100
AcDbEntity
  8
0
100
AcDbLine
 10
-8.40121555979365
 20
46.16228100627747
 30
0.0
 11
-8.81167833645361
 21
46.21660696201187
 31
0.0
  0
LINE
  5
244
330
1F
100
AcDbEntity
  8
0
100
AcDbLine
 10
-8.81167833645361
 20
46.21660696201187
 30
0.0
 11
-9.368896646312768
 21
46.12455464812857
 31
0.0
  0
LINE
  5
245
330
1F
100
AcDbEntity
  8
0
100
AcDbLine
 10
-9.368896646312768
 20
46.12455464812857
 30
0.0
 11
-9.766909724783591
 21
45.84839770647867
 31
0.0
  0
LINE
  5
246
330
1F
100
AcDbEntity
  8
0
100
AcDbLine
 10
-9.766909724783591
 20
45.84839770647867
 30
0.0
 11
-10.00571757186609
 21
45.38813613706218
 31
0.0
  0
LINE
  5
247
330
1F
100
AcDbEntity
  8
0
100
AcDbLine
 10
-10.00571757186609
 20
45.38813613706218
 30
0.0
 11
-10.08532018756025
 21
44.74376993987907
 31
0.0
  0
LINE
  5
248
330
1F
100
AcDbEntity
  8
0
100
AcDbLine
 10
-10.08532018756025
 20
44.74376993987907
 30
0.0
 11
-10.08532018756025
 21
42.06368945698169
 31
0.0
  0
LINE
  5
249
330
1F
100
AcDbEntity
  8
0
100
AcDbLine
 10
-10.08532018756025
 20
42.06368945698169
 30
0.0
 11
-12.65674875898882
 21
42.06368945698169
 31
0.0
  0
LINE
  5
24A
330
1F
100
AcDbEntity
  8
0
100
AcDbLine
 10
-12.65674875898882
 20
42.06368945698169
 30
0.0
 11
-12.65674875898882
 21
48.24477597609638
 31
0.0
  0
LINE
  5
24B
330
1F
100
AcDbEntity
  8
0
100
AcDbLine
 10
-12.65674875898882
 20
48.24477597609638
 30
0.0
 11
-10.08532018756025
 21
48.24477597609638
 31
0.0
  0
LINE
  5
24C
330
1F
100
AcDbEntity
  8
0
100
AcDbLine
 10
-10.08532018756025
 20
48.24477597609638
 30
0.0
 11
-10.08532018756025
 21
47.15825686140825
 31
0.0
  0
LINE
  5
24D
330
1F
100
AcDbEntity
  8
0
100
AcDbLine
 10
-10.06117531834496
 20
47.15825686140825
 30
0.0
 11
-9.775964050739324
 21
47.67359891372214
 31
0.0
  0
LINE
  5
24E
330
1F
100
AcDbEntity
  8
0
100
AcDbLine
 10
-9.775964050739324
 20
47.67359891372214
 30
0.0
 11
-9.391155197620613
 21
48.04859891372214
 31
0.0
  0
LINE
  5
24F
330
1F
100
AcDbEntity
  8
0
100
AcDbLine
 10
-9.391155197620613
 20
48.04859891372214
 30
0.0
 11
-8.920330247922426
 21
48.27722064410443
 31
0.0
  0
LINE
  5
250
330
1F
100
AcDbEntity
  8
0
100
AcDbLine
 10
-8.920330247922426
 20
48.27722064410443
 30
0.0
 11
-8.377070690578359
 21
48.35342788756519
 31
0.0
  0
LINE
  5
251
330
1F
100
AcDbEntity
  8
0
100
AcDbLine
 10
-8.377070690578359
 20
48.35342788756519
 30
0.0
 11
-8.00886143504516
 21
48.28099327991931
 31
0.0
  0
LINE
  5
252
330
1F
100
AcDbEntity
  8
0
100
AcDbLine
 10
-8.00886143504516
 20
48.28099327991931
 30
0.0
 11
-8.00886143504516
 21
46.04155666020101
 31
0.0
  0
LINE
  5
253
330
1F
100
AcDbEntity
  8
0
100
AcDbLine
 10
-3.83783527810351
 20
42.06368945698169
 30
0.0
 11
-3.83783527810351
 21
43.00533935637807
 31
0.0
  0
LINE
  5
254
330
1F
100
AcDbEntity
  8
0
100
AcDbLine
 10
-3.861980147318802
 20
43.00533935637807
 30
0.0
 11
-4.210571696614577
 21
42.52734639863159
 31
0.0
  0
LINE
  5
255
330
1F
100
AcDbEntity
  8
0
100
AcDbLine
 10
-4.210571696614577
 20
42.52734639863159
 30
0.0
 11
-4.640652179511962
 21
42.18592285738411
 31
0.0
  0
LINE
  5
256
330
1F
100
AcDbEntity
  8
0
100
AcDbLine
 10
-4.640652179511962
 20
42.18592285738411
 30
0.0
 11
-5.152221596010955
 21
41.98106873263561
 31
0.0
  0
LINE
  5
257
330
1F
100
AcDbEntity
  8
0
100
AcDbLine
 10
-5.152221596010955
 20
41.98106873263561
 30
0.0
 11
-5.745279946111557
 21
41.91278402438612
 31
0.0
  0
LINE
  5
258
330
1F
100
AcDbEntity
  8
0
100
AcDbLine
 10
-5.745279946111557
 20
41.91278402438612
 30
0.0
 11
-6.159138095004918
 21
41.94522869239417
 31
0.0
  0
LINE
  5
259
330
1F
100
AcDbEntity
  8
0
100
AcDbLine
 10
-6.159138095004918
 20
41.94522869239417
 30
0.0
 11
-6.525461032630674
 21
42.04256269641832
 31
0.0
  0
LINE
  5
25A
330
1F
100
AcDbEntity
  8
0
100
AcDbLine
 10
-6.525461032630674
 20
42.04256269641832
 30
0.0
 11
-6.844248758988824
 21
42.20478603645856
 31
0.0
  0
LINE
  5
25B
330
1F
100
AcDbEntity
  8
0
100
AcDbLine
 10
-6.844248758988824
 20
42.20478603645856
 30
0.0
 11
-7.115501274079365
 21
42.43189871251489
 31
0.0
  0
LINE
  5
25C
330
1F
100
AcDbEntity
  8
0
100
AcDbLine
 10
-7.115501274079365
 20
42.43189871251489
 30
0.0
 11
-7.332050569854013
 21
42.71333734430564
 31
0.0
  0
LINE
  5
25D
330
1F
100
AcDbEntity
  8
0
100
AcDbLine
 10
-7.332050569854013
 20
42.71333734430564
 30
0.0
 11
-7.486728638264477
 21
43.0385385515491
 31
0.0
  0
LINE
  5
25E
330
1F
100
AcDbEntity
  8
0
100
AcDbLine
 10
-7.486728638264477
 20
43.0385385515491
 30
0.0
 11
-7.579535479310754
 21
43.40750233424527
 31
0.0
  0
LINE
  5
25F
330
1F
100
AcDbEntity
  8
0
100
AcDbLine
 10
-7.579535479310754
 20
43.40750233424527
 30
0.0
 11
-7.610471092992847
 21
43.82022869239417
 31
0.0
  0
LINE
  5
260
330
1F
100
AcDbEntity
  8
0
100
AcDbLine
 10
-7.610471092992847
 20
43.82022869239417
 30
0.0
 11
-7.575479895809749
 21
44.25200686140825
 31
0.0
  0
LINE
  5
261
330
1F
100
AcDbEntity
  8
0
100
AcDbLine
 10
-7.575479895809749
 20
44.25200686140825
 30
0.0
 11
-7.470506304260451
 21
44.63587255557324
 31
0.0
  0
LINE
  5
262
330
1F
100
AcDbEntity
  8
0
100
AcDbLine
 10
-7.470506304260451
 20
44.63587255557324
 30
0.0
 11
-7.295550318344957
 21
44.97182577488913
 31
0.0
  0
LINE
  5
263
330
1F
100
AcDbEntity
  8
0
100
AcDbLine
 10
-7.295550318344957
 20
44.97182577488913
 30
0.0
 11
-7.050611938063267
 21
45.25986651935594
 31
0.0
  0
LINE
  5
264
330
1F
100
AcDbEntity
  8
0
100
AcDbLine
 10
-7.050611938063267
 20
45.25986651935594
 30
0.0
 11
-6.73569116341538
 21
45.49999478897364
 31
0.0
  0
LINE
  5
265
330
1F
100
AcDbEntity
  8
0
100
AcDbLine
 10
-6.73569116341538
 20
45.49999478897364
 30
0.0
 11
-6.350787994401294
 21
45.69221058374226
 31
0.0
  0
LINE
  5
266
330
1F
100
AcDbEntity
  8
0
100
AcDbLine
 10
-6.350787994401294
 20
45.69221058374226
 30
0.0
 11
-5.371034473274535
 21
45.93290474873219
 31
0.0
  0
LINE
  5
267
330
1F
100
AcDbEntity
  8
0
100
AcDbLine
 10
-5.371034473274535
 20
45.93290474873219
 30
0.0
 11
-3.83783527810351
 21
46.13209991975835
 31
0.0
  0
LINE
  5
268
330
1F
100
AcDbEntity
  8
0
100
AcDbLine
 10
-3.83783527810351
 20
46.13209991975835
 30
0.0
 11
-3.905742722771517
 21
46.4067478070823
 31
0.0
  0
LINE
  5
269
330
1F
100
AcDbEntity
  8
0
100
AcDbLine
 10
-3.905742722771517
 20
46.4067478070823
 30
0.0
 11
-4.109465056775544
 21
46.62706973867184
 31
0.0
  0
LINE
  5
26A
330
1F
100
AcDbEntity
  8
0
100
AcDbLine
 10
-4.109465056775544
 20
46.62706973867184
 30
0.0
 11
-4.427875519552203
 21
46.77193895396358
 31
0.0
  0
LINE
  5
26B
330
1F
100
AcDbEntity
  8
0
100
AcDbLine
 10
-4.427875519552203
 20
46.77193895396358
 30
0.0
 11
-4.839847350538119
 21
46.82022869239417
 31
0.0
  0
LINE
  5
26C
330
1F
100
AcDbEntity
  8
0
100
AcDbLine
 10
-4.839847350538119
 20
46.82022869239417
 30
0.0
 11
-5.366130046715181
 21
46.78325686140825
 31
0.0
  0
LINE
  5
26D
330
1F
100
AcDbEntity
  8
0
100
AcDbLine
 10
-5.366130046715181
 20
46.78325686140825
 30
0.0
 11
-5.906748758988823
 21
46.6723413684505
 31
0.0
  0
LINE
  5
26E
330
1F
100
AcDbEntity
  8
0
100
AcDbLine
 10
-5.906748758988823
 20
46.6723413684505
 30
0.0
 11
-7.030994231825844
 21
46.22867939661952
 31
0.0
  0
LINE
  5
26F
330
1F
100
AcDbEntity
  8
0
100
AcDbLine
 10
-7.030994231825844
 20
46.22867939661952
 30
0.0
 11
-7.030994231825844
 21
47.90071158977847
 31
0.0
  0
LINE
  5
270
330
1F
100
AcDbEntity
  8
0
100
AcDbLine
 10
-7.030994231825844
 20
47.90071158977847
 30
0.0
 11
-6.4666079139184
 21
48.09839770647867
 31
0.0
  0
LINE
  5
271
330
1F
100
AcDbEntity
  8
0
100
AcDbLine
 10
-6.4666079139184
 20
48.09839770647867
 30
0.0
 11
-5.775461032630673
 21
48.25684841070403
 31
0.0
  0
LINE
  5
272
330
1F
100
AcDbEntity
  8
0
100
AcDbLine
 10
-5.775461032630673
 20
48.25684841070403
 30
0.0
 11
-4.483710529612566
 21
48.39568140869196
 31
0.0
  0
LINE
  5
273
330
1F
100
AcDbEntity
  8
0
100
AcDbLine
 10
-4.483710529612566
 20
48.39568140869196
 30
0.0
 11
-3.750121495407333
 21
48.35361651935594
 31
0.0
  0
LINE
  5
274
330
1F
100
AcDbEntity
  8
0
100
AcDbLine
 10
-3.750121495407333
 20
48.35361651935594
 30
0.0
 11
-3.124807109089426
 21
48.22742185134789
 31
0.0
  0
LINE
  5
275
330
1F
100
AcDbEntity
  8
0
100
AcDbLine
 10
-3.124807109089426
 20
48.22742185134789
 30
0.0
 11
-2.607767370658844
 21
48.01709740466781
 31
0.0
  0
LINE
  5
276
330
1F
100
AcDbEntity
  8
0
100
AcDbLine
 10
-2.607767370658844
 20
48.01709740466781
 30
0.0
 11
-2.199002280115582
 21
47.7226431793157
 31
0.0
  0
LINE
  5
277
330
1F
100
AcDbEntity
  8
0
100
AcDbLine
 10
-2.199002280115582
 20
47.7226431793157
 30
0.0
 11
-1.888702984340932
 21
47.32972315919497
 31
0.0
  0
LINE
  5
278
330
1F
100
AcDbEntity
  8
0
100
AcDbLine
 10
-1.888702984340932
 20
47.32972315919497
 30
0.0
 11
-1.667060630216183
 21
46.82400132820906
 31
0.0
  0
LINE
  5
279
330
1F
100
AcDbEntity
  8
0
100
AcDbLine
 10
-1.667060630216183
 20
46.82400132820906
 30
0.0
 11
-1.534075217741336
 21
46.20547768635795
 31
0.0
  0
LINE
  5
27A
330
1F
100
AcDbEntity
  8
0
100
AcDbLine
 10
-1.534075217741336
 20
46.20547768635795
 30
0.0
 11
-1.489746746916386
 21
45.47415223364165
 31
0.0
  0
LINE
  5
27B
330
1F
100
AcDbEntity
  8
0
100
AcDbLine
 10
-1.489746746916386
 20
45.47415223364165
 30
0.0
 11
-1.489746746916386
 21
42.06368945698169
 31
0.0
  0
LINE
  5
27C
330
1F
100
AcDbEntity
  8
0
100
AcDbLine
 10
-1.489746746916386
 20
42.06368945698169
 30
0.0
 11
-3.83783527810351
 21
42.06368945698169
 31
0.0
  0
LINE
  5
27D
330
1F
100
AcDbEntity
  8
0
100
AcDbLine
 10
-5.35896203866689
 20
44.16429307871208
 30
0.0
 11
-5.318972099029062
 21
43.93340776684085
 31
0.0
  0
LINE
  5
27E
330
1F
100
AcDbEntity
  8
0
100
AcDbLine
 10
-5.318972099029062
 20
43.93340776684085
 30
0.0
 11
-5.199002280115582
 21
43.74779408474829
 31
0.0
  0
LINE
  5
27F
330
1F
100
AcDbEntity
  8
0
100
AcDbLine
 10
-5.199002280115582
 20
43.74779408474829
 30
0.0
 11
-5.005088799230271
 21
43.62556068434588
 31
0.0
  0
LINE
  5
280
330
1F
100
AcDbEntity
  8
0
100
AcDbLine
 10
-5.005088799230271
 20
43.62556068434588
 30
0.0
 11
-4.743267873676951
 21
43.58481621754508
 31
0.0
  0
LINE
  5
281
330
1F
100
AcDbEntity
  8
0
100
AcDbLine
 10
-4.743267873676951
 20
43.58481621754508
 30
0.0
 11
-4.377322199632684
 21
43.66026893384286
 31
0.0
  0
LINE
  5
282
330
1F
100
AcDbEntity
  8
0
100
AcDbLine
 10
-4.377322199632684
 20
43.66026893384286
 30
0.0
 11
-4.088338296212163
 21
43.88662708273622
 31
0.0
  0
LINE
  5
283
330
1F
100
AcDbEntity
  8
0
100
AcDbLine
 10
-4.088338296212163
 20
43.88662708273622
 30
0.0
 11
-3.900461032630674
 21
44.23069146905413
 31
0.0
  0
LINE
  5
284
330
1F
100
AcDbEntity
  8
0
100
AcDbLine
 10
-3.900461032630674
 20
44.23069146905413
 30
0.0
 11
-3.83783527810351
 21
44.65926289762555
 31
0.0
  0
LINE
  5
285
330
1F
100
AcDbEntity
  8
0
100
AcDbLine
 10
-3.83783527810351
 20
44.65926289762555
 30
0.0
 11
-3.83783527810351
 21
44.89467537247465
 31
0.0
  0
LINE
  5
286
330
1F
100
AcDbEntity
  8
0
100
AcDbLine
 10
-3.83783527810351
 20
44.89467537247465
 30
0.0
 11
-4.707050569854014
 21
44.77395102639819
 31
0.0
  0
LINE
  5
287
330
1F
100
AcDbEntity
  8
0
100
AcDbLine
 10
-4.707050569854014
 20
44.77395102639819
 30
0.0
 11
-4.992261837459647
 21
44.69510293786701
 31
0.0
  0
LINE
  5
288
330
1F
100
AcDbEntity
  8
0
100
AcDbLine
 10
-4.992261837459647
 20
44.69510293786701
 30
0.0
 11
-5.195984171463673
 21
44.56721058374225
 31
0.0
  0
LINE
  5
289
330
1F
100
AcDbEntity
  8
0
100
AcDbLine
 10
-5.195984171463673
 20
44.56721058374225
 30
0.0
 11
-5.318217571866088
 21
44.39027396402395
 31
0.0
  0
LINE
  5
28A
330
1F
100
AcDbEntity
  8
0
100
AcDbLine
 10
-5.318217571866088
 20
44.39027396402395
 30
0.0
 11
-5.35896203866689
 21
44.16429307871208
 31
0.0
  0
LINE
  5
28B
330
1F
100
AcDbEntity
  8
0
100
AcDbLine
 10
2.391540979441763
 20
49.91077195195151
 30
0.0
 11
2.292697921091666
 21
49.41882024168994
 31
0.0
  0
LINE
  5
28C
330
1F
100
AcDbEntity
  8
0
100
AcDbLine
 10
2.292697921091666
 20
49.41882024168994
 30
0.0
 11
1.996168746041358
 21
49.02948422559336
 31
0.0
  0
LINE
  5
28D
330
1F
100
AcDbEntity
  8
0
100
AcDbLine
 10
1.996168746041358
 20
49.02948422559336
 30
0.0
 11
1.538170758113792
 21
48.7759630988328
 31
0.0
  0
LINE
  5
28E
330
1F
100
AcDbEntity
  8
0
100
AcDbLine
 10
1.538170758113792
 20
48.7759630988328
 30
0.0
 11
0.9549212611319003
 21
48.69145605657928
 31
0.0
  0
LINE
  5
28F
330
1F
100
AcDbEntity
  8
0
100
AcDbLine
 10
0.9549212611319003
 20
48.69145605657928
 30
0.0
 11
0.3837441987576559
 21
48.77898120748471
 31
0.0
  0
LINE
  5
290
330
1F
100
AcDbEntity
  8
0
100
AcDbLine
 10
0.3837441987576559
 20
48.77898120748471
 30
0.0
 11
-0.0742537891699096
 21
49.04155666020101
 31
0.0
  0
LINE
  5
291
330
1F
100
AcDbEntity
  8
0
100
AcDbLine
 10
-0.0742537891699096
 20
49.04155666020101
 30
0.0
 11
-0.3753101271980755
 21
49.4339107849495
 31
0.0
  0
LINE
  5
292
330
1F
100
AcDbEntity
  8
0
100
AcDbLine
 10
-0.3753101271980755
 20
49.4339107849495
 30
0.0
 11
-0.4756622398741327
 21
49.91077195195151
 31
0.0
  0
LINE
  5
293
330
1F
100
AcDbEntity
  8
0
100
AcDbLine
 10
-0.4756622398741327
 20
49.91077195195151
 30
0.0
 11
-0.3783282358499902
 21
50.39140575476841
 31
0.0
  0
LINE
  5
294
330
1F
100
AcDbEntity
  8
0
100
AcDbLine
 10
-0.3783282358499902
 20
50.39140575476841
 30
0.0
 11
-0.086326223777557
 21
50.77093291774628
 31
0.0
  0
LINE
  5
295
330
1F
100
AcDbEntity
  8
0
100
AcDbLine
 10
-0.086326223777557
 20
50.77093291774628
 30
0.0
 11
0.3686536554980938
 21
51.01766330004004
 31
0.0
  0
LINE
  5
296
330
1F
100
AcDbEntity
  8
0
100
AcDbLine
 10
0.3686536554980938
 20
51.01766330004004
 30
0.0
 11
0.9549212611319003
 21
51.09990676080464
 31
0.0
  0
LINE
  5
297
330
1F
100
AcDbEntity
  8
0
100
AcDbLine
 10
0.9549212611319003
 20
51.09990676080464
 30
0.0
 11
1.538170758113792
 21
51.01766330004004
 31
0.0
  0
LINE
  5
298
330
1F
100
AcDbEntity
  8
0
100
AcDbLine
 10
1.538170758113792
 20
51.01766330004004
 30
0.0
 11
1.996168746041358
 21
50.77093291774628
 31
0.0
  0
LINE
  5
299
330
1F
100
AcDbEntity
  8
0
100
AcDbLine
 10
1.996168746041358
 20
50.77093291774628
 30
0.0
 11
2.292697921091666
 21
50.39140575476841
 31
0.0
  0
LINE
  5
29A
330
1F
100
AcDbEntity
  8
0
100
AcDbLine
 10
2.292697921091666
 20
50.39140575476841
 30
0.0
 11
2.391540979441763
 21
49.91077195195151
 31
0.0
  0
LINE
  5
29B
330
1F
100
AcDbEntity
  8
0
100
AcDbLine
 10
-0.3307930245823834
 20
42.06368945698169
 30
0.0
 11
-0.3307930245823834
 21
48.24477597609638
 31
0.0
  0
LINE
  5
29C
330
1F
100
AcDbEntity
  8
0
100
AcDbLine
 10
-0.3307930245823834
 20
48.24477597609638
 30
0.0
 11
2.240635546846187
 21
48.24477597609638
 31
0.0
  0
LINE
  5
29D
330
1F
100
AcDbEntity
  8
0
100
AcDbLine
 10
2.240635546846187
 20
48.24477597609638
 30
0.0
 11
2.240635546846187
 21
42.06368945698169
 31
0.0
  0
LINE
  5
29E
330
1F
100
AcDbEntity
  8
0
100
AcDbLine
 10
2.240635546846187
 20
42.06368945698169
 30
0.0
 11
-0.3307930245823834
 21
42.06368945698169
 31
0.0
  0
LINE
  5
29F
330
1F
100
AcDbEntity
  8
0
100
AcDbLine
 10
10.17826130137335
 20
42.92686853142838
 30
0.0
 11
10.10827890700715
 21
42.08575937649879
 31
0.0
  0
LINE
  5
2A0
330
1F
100
AcDbEntity
  8
0
100
AcDbLine
 10
10.10827890700715
 20
42.08575937649879
 30
0.0
 11
9.898331723908564
 21
41.34311601633783
 31
0.0
  0
LINE
  5
2A1
330
1F
100
AcDbEntity
  8
0
100
AcDbLine
 10
9.898331723908564
 20
41.34311601633783
 30
0.0
 11
9.548419752077582
 21
40.69893845094548
 31
0.0
  0
LINE
  5
2A2
330
1F
100
AcDbEntity
  8
0
100
AcDbLine
 10
9.548419752077582
 20
40.69893845094548
 30
0.0
 11
9.058542991514196
 21
40.15322668032174
 31
0.0
  0
LINE
  5
2A3
330
1F
100
AcDbEntity
  8
0
100
AcDbLine
 10
9.058542991514196
 20
40.15322668032174
 30
0.0
 11
8.434360395940761
 21
39.71880766623723
 31
0.0
  0
LINE
  5
2A4
330
1F
100
AcDbEntity
  8
0
100
AcDbLine
 10
8.434360395940761
 20
39.71880766623723
 30
0.0
 11
7.68153091907959
 21
39.40850837046258
 31
0.0
  0
LINE
  5
2A5
330
1F
100
AcDbEntity
  8
0
100
AcDbLine
 10
7.68153091907959
 20
39.40850837046258
 30
0.0
 11
6.800054560930699
 21
39.22232879299779
 31
0.0
  0
LINE
  5
2A6
330
1F
100
AcDbEntity
  8
0
100
AcDbLine
 10
6.800054560930699
 20
39.22232879299779
 30
0.0
 11
5.789931321494077
 21
39.16026893384286
 31
0.0
  0
LINE
  5
2A7
330
1F
100
AcDbEntity
  8
0
100
AcDbLine
 10
5.789931321494077
 20
39.16026893384286
 30
0.0
 11
4.667194902983008
 21
39.25081219340021
 31
0.0
  0
LINE
  5
2A8
330
1F
100
AcDbEntity
  8
0
100
AcDbLine
 10
4.667194902983008
 20
39.25081219340021
 30
0.0
 11
3.888522870789851
 21
39.45604358173019
 31
0.0
  0
LINE
  5
2A9
330
1F
100
AcDbEntity
  8
0
100
AcDbLine
 10
3.888522870789851
 20
39.45604358173019
 30
0.0
 11
3.888522870789851
 21
41.47214016120705
 31
0.0
  0
LINE
  5
2AA
330
1F
100
AcDbEntity
  8
0
100
AcDbLine
 10
3.888522870789851
 20
41.47214016120705
 30
0.0
 11
4.308039973405545
 21
41.25483633826942
 31
0.0
  0
LINE
  5
2AB
330
1F
100
AcDbEntity
  8
0
100
AcDbLine
 10
4.308039973405545
 20
41.25483633826942
 30
0.0
 11
4.793955466363289
 21
41.08582225376237
 31
0.0
  0
LINE
  5
2AC
330
1F
100
AcDbEntity
  8
0
100
AcDbLine
 10
4.793955466363289
 20
41.08582225376237
 30
0.0
 11
5.717496713848198
 21
40.94095303847063
 31
0.0
  0
LINE
  5
2AD
330
1F
100
AcDbEntity
  8
0
100
AcDbLine
 10
5.717496713848198
 20
40.94095303847063
 30
0.0
 11
6.494659691715406
 21
41.04507778696158
 31
0.0
  0
LINE
  5
2AE
330
1F
100
AcDbEntity
  8
0
100
AcDbLine
 10
6.494659691715406
 20
41.04507778696158
 30
0.0
 11
7.099790476423653
 21
41.35745203243441
 31
0.0
  0
LINE
  5
2AF
330
1F
100
AcDbEntity
  8
0
100
AcDbLine
 10
7.099790476423653
 20
41.35745203243441
 30
0.0
 11
7.326903152479996
 21
41.5826783905833
 31
0.0
  0
LINE
  5
2B0
330
1F
100
AcDbEntity
  8
0
100
AcDbLine
 10
7.326903152479996
 20
41.5826783905833
 30
0.0
 11
7.489126492520234
 21
41.8418584710662
 31
0.0
  0
LINE
  5
2B1
330
1F
100
AcDbEntity
  8
0
100
AcDbLine
 10
7.489126492520234
 20
41.8418584710662
 30
0.0
 11
7.586460496544377
 21
42.1349922738831
 31
0.0
  0
LINE
  5
2B2
330
1F
100
AcDbEntity
  8
0
100
AcDbLine
 10
7.586460496544377
 20
42.1349922738831
 30
0.0
 11
7.618905164552424
 21
42.46207979903401
 31
0.0
  0
LINE
  5
2B3
330
1F
100
AcDbEntity
  8
0
100
AcDbLine
 10
7.618905164552424
 20
42.46207979903401
 30
0.0
 11
7.618905164552424
 21
42.84236148917485
 31
0.0
  0
LINE
  5
2B4
330
1F
100
AcDbEntity
  8
0
100
AcDbLine
 10
7.594760295337135
 20
42.84236148917485
 30
0.0
 11
7.26503192511581
 21
42.46207979903401
 31
0.0
  0
LINE
  5
2B5
330
1F
100
AcDbEntity
  8
0
100
AcDbLine
 10
7.26503192511581
 20
42.46207979903401
 30
0.0
 11
6.831178806403535
 21
42.16630515114668
 31
0.0
  0
LINE
  5
2B6
330
1F
100
AcDbEntity
  8
0
100
AcDbLine
 10
6.831178806403535
 20
42.16630515114668
 30
0.0
 11
6.327909188697294
 21
41.97616430607626
 31
0.0
  0
LINE
  5
2B7
330
1F
100
AcDbEntity
  8
0
100
AcDbLine
 10
6.327909188697294
 20
41.97616430607626
 30
0.0
 11
5.789931321494077
 21
41.91278402438612
 31
0.0
  0
LINE
  5
2B8
330
1F
100
AcDbEntity
  8
0
100
AcDbLine
 10
5.789931321494077
 20
41.91278402438612
 30
0.0
 11
5.223658685679192
 21
41.96465776684084
 31
0.0
  0
LINE
  5
2B9
330
1F
100
AcDbEntity
  8
0
100
AcDbLine
 10
5.223658685679192
 20
41.96465776684084
 30
0.0
 11
4.720011804391461
 21
42.12027899420504
 31
0.0
  0
LINE
  5
2BA
330
1F
100
AcDbEntity
  8
0
100
AcDbLine
 10
4.720011804391461
 20
42.12027899420504
 30
0.0
 11
4.278990677630903
 21
42.37964770647867
 31
0.0
  0
LINE
  5
2BB
330
1F
100
AcDbEntity
  8
0
100
AcDbLine
 10
4.278990677630903
 20
42.37964770647867
 30
0.0
 11
3.900595305397498
 21
42.74276390366177
 31
0.0
  0
LINE
  5
2BC
330
1F
100
AcDbEntity
  8
0
100
AcDbLine
 10
3.900595305397498
 20
42.74276390366177
 30
0.0
 11
3.596898122298908
 21
43.1971778875652
 31
0.0
  0
LINE
  5
2BD
330
1F
100
AcDbEntity
  8
0
100
AcDbLine
 10
3.596898122298908
 20
43.1971778875652
 30
0.0
 11
3.379971562942767
 21
43.7304399599998
 31
0.0
  0
LINE
  5
2BE
330
1F
100
AcDbEntity
  8
0
100
AcDbLine
 10
3.379971562942767
 20
43.7304399599998
 30
0.0
 11
3.249815627329087
 21
44.3425501209656
 31
0.0
  0
LINE
  5
2BF
330
1F
100
AcDbEntity
  8
0
100
AcDbLine
 10
3.249815627329087
 20
44.3425501209656
 30
0.0
 11
3.206430315457856
 21
45.03350837046258
 31
0.0
  0
LINE
  5
2C0
330
1F
100
AcDbEntity
  8
0
100
AcDbLine
 10
3.206430315457856
 20
45.03350837046258
 30
0.0
 11
3.296973575015201
 21
45.97666732418492
 31
0.0
  0
LINE
  5
2C1
330
1F
100
AcDbEntity
  8
0
100
AcDbLine
 10
3.296973575015201
 20
45.97666732418492
 30
0.0
 11
3.568603353687234
 21
46.8021200404827
 31
0.0
  0
LINE
  5
2C2
330
1F
100
AcDbEntity
  8
0
100
AcDbLine
 10
3.568603353687234
 20
46.8021200404827
 30
0.0
 11
4.001701945236536
 21
47.4804399599998
 31
0.0
  0
LINE
  5
2C3
330
1F
100
AcDbEntity
  8
0
100
AcDbLine
 10
4.001701945236536
 20
47.4804399599998
 30
0.0
 11
4.576651643425664
 21
47.98220052338009
 31
0.0
  0
LINE
  5
2C4
330
1F
100
AcDbEntity
  8
0
100
AcDbLine
 10
4.576651643425664
 20
47.98220052338009
 30
0.0
 11
5.255726090105743
 21
48.29231118736399
 31
0.0
  0
LINE
  5
2C5
330
1F
100
AcDbEntity
  8
0
100
AcDbLine
 10
5.255726090105743
 20
48.29231118736399
 30
0.0
 11
6.001198927127879
 21
48.39568140869196
 31
0.0
  0
LINE
  5
2C6
330
1F
100
AcDbEntity
  8
0
100
AcDbLine
 10
6.001198927127879
 20
48.39568140869196
 30
0.0
 11
6.501450436182204
 21
48.34625987951691
 31
0.0
  0
LINE
  5
2C7
330
1F
100
AcDbEntity
  8
0
100
AcDbLine
 10
6.501450436182204
 20
48.34625987951691
 30
0.0
 11
6.933794500568526
 21
48.19799529199176
 31
0.0
  0
LINE
  5
2C8
330
1F
100
AcDbEntity
  8
0
100
AcDbLine
 10
6.933794500568526
 20
48.19799529199176
 30
0.0
 11
7.298231120286832
 21
47.95088764611651
 31
0.0
  0
LINE
  5
2C9
330
1F
100
AcDbEntity
  8
0
100
AcDbLine
 10
7.298231120286832
 20
47.95088764611651
 30
0.0
 11
7.594760295337135
 21
47.60493694189115
 31
0.0
  0
LINE
  5
2CA
330
1F
100
AcDbEntity
  8
0
100
AcDbLine
 10
7.618905164552424
 20
47.60493694189115
 30
0.0
 11
7.618905164552424
 21
48.24477597609638
 31
0.0
  0
LINE
  5
2CB
330
1F
100
AcDbEntity
  8
0
100
AcDbLine
 10
7.618905164552424
 20
48.24477597609638
 30
0.0
 11
10.17826130137335
 21
48.24477597609638
 31
0.0
  0
LINE
  5
2CC
330
1F
100
AcDbEntity
  8
0
100
AcDbLine
 10
10.17826130137335
 20
48.24477597609638
 30
0.0
 11
10.17826130137335
 21
42.92686853142838
 31
0.0
  0
LINE
  5
2CD
330
1F
100
AcDbEntity
  8
0
100
AcDbLine
 10
7.661158685679184
 20
45.3292830183499
 30
0.0
 11
7.600041985477978
 21
45.81670756563361
 31
0.0
  0
LINE
  5
2CE
330
1F
100
AcDbEntity
  8
0
100
AcDbLine
 10
7.600041985477978
 20
45.81670756563361
 30
0.0
 11
7.416691884874355
 21
46.19246209279658
 31
0.0
  0
LINE
  5
2CF
330
1F
100
AcDbEntity
  8
0
100
AcDbLine
 10
7.416691884874355
 20
46.19246209279658
 30
0.0
 11
7.1322351444317
 21
46.43240173062355
 31
0.0
  0
LINE
  5
2D0
330
1F
100
AcDbEntity
  8
0
100
AcDbLine
 10
7.1322351444317
 20
46.43240173062355
 30
0.0
 11
6.767798524713394
 21
46.51238160989919
 31
0.0
  0
LINE
  5
2D1
330
1F
100
AcDbEntity
  8
0
100
AcDbLine
 10
6.767798524713394
 20
46.51238160989919
 30
0.0
 11
6.376953454290852
 21
46.41580213303804
 31
0.0
  0
LINE
  5
2D2
330
1F
100
AcDbEntity
  8
0
100
AcDbLine
 10
6.376953454290852
 20
46.41580213303804
 30
0.0
 11
6.073633534773752
 21
46.12606370245453
 31
0.0
  0
LINE
  5
2D3
330
1F
100
AcDbEntity
  8
0
100
AcDbLine
 10
6.073633534773752
 20
46.12606370245453
 30
0.0
 11
5.878965526725461
 21
45.67485645899377
 31
0.0
  0
LINE
  5
2D4
330
1F
100
AcDbEntity
  8
0
100
AcDbLine
 10
5.878965526725461
 20
45.67485645899377
 30
0.0
 11
5.814076190709367
 21
45.09387054350081
 31
0.0
  0
LINE
  5
2D5
330
1F
100
AcDbEntity
  8
0
100
AcDbLine
 10
5.814076190709367
 20
45.09387054350081
 30
0.0
 11
5.868402146443774
 21
44.55815625778652
 31
0.0
  0
LINE
  5
2D6
330
1F
100
AcDbEntity
  8
0
100
AcDbLine
 10
5.868402146443774
 20
44.55815625778652
 30
0.0
 11
6.031380013646992
 21
44.14618442680061
 31
0.0
  0
LINE
  5
2D7
330
1F
100
AcDbEntity
  8
0
100
AcDbLine
 10
6.031380013646992
 20
44.14618442680061
 30
0.0
 11
6.312064118274757
 21
43.88360897408431
 31
0.0
  0
LINE
  5
2D8
330
1F
100
AcDbEntity
  8
0
100
AcDbLine
 10
6.312064118274757
 20
43.88360897408431
 30
0.0
 11
6.71950878628281
 21
43.79608382317888
 31
0.0
  0
LINE
  5
2D9
330
1F
100
AcDbEntity
  8
0
100
AcDbLine
 10
6.71950878628281
 20
43.79608382317888
 30
0.0
 11
7.112617438194275
 21
43.88587255557324
 31
0.0
  0
LINE
  5
2DA
330
1F
100
AcDbEntity
  8
0
100
AcDbLine
 10
7.112617438194275
 20
43.88587255557324
 30
0.0
 11
7.410655667570537
 21
44.15523875275634
 31
0.0
  0
LINE
  5
2DB
330
1F
100
AcDbEntity
  8
0
100
AcDbLine
 10
7.410655667570537
 20
44.15523875275634
 30
0.0
 11
7.598532931152024
 21
44.57551038253501
 31
0.0
  0
LINE
  5
2DC
330
1F
100
AcDbEntity
  8
0
100
AcDbLine
 10
7.598532931152024
 20
44.57551038253501
 30
0.0
 11
7.661158685679184
 21
45.1180154127161
 31
0.0
  0
LINE
  5
2DD
330
1F
100
AcDbEntity
  8
0
100
AcDbLine
 10
7.661158685679184
 20
45.1180154127161
 30
0.0
 11
7.661158685679184
 21
45.3292830183499
 31
0.0
  0
LINE
  5
2DE
330
1F
100
AcDbEntity
  8
0
100
AcDbLine
 10
15.39958926918019
 20
42.06368945698169
 30
0.0
 11
15.39958926918019
 21
45.58884036241429
 31
0.0
  0
LINE
  5
2DF
330
1F
100
AcDbEntity
  8
0
100
AcDbLine
 10
15.39958926918019
 20
45.58884036241429
 30
0.0
 11
15.35544943014598
 21
45.99288965818894
 31
0.0
  0
LINE
  5
2E0
330
1F
100
AcDbEntity
  8
0
100
AcDbLine
 10
15.35544943014598
 20
45.99288965818894
 30
0.0
 11
15.22302991304337
 21
46.28149629802797
 31
0.0
  0
LINE
  5
2E1
330
1F
100
AcDbEntity
  8
0
100
AcDbLine
 10
15.22302991304337
 20
46.28149629802797
 30
0.0
 11
15.00233071787234
 21
46.45466028193139
 31
0.0
  0
LINE
  5
2E2
330
1F
100
AcDbEntity
  8
0
100
AcDbLine
 10
15.00233071787234
 20
46.45466028193139
 30
0.0
 11
14.69335184463291
 21
46.51238160989919
 31
0.0
  0
LINE
  5
2E3
330
1F
100
AcDbEntity
  8
0
100
AcDbLine
 10
14.69335184463291
 20
46.51238160989919
 30
0.0
 11
14.3900319251158
 21
46.44673774672012
 31
0.0
  0
LINE
  5
2E4
330
1F
100
AcDbEntity
  8
0
100
AcDbLine
 10
14.3900319251158
 20
46.44673774672012
 30
0.0
 11
14.16820093920031
 21
46.2498061571829
 31
0.0
  0
LINE
  5
2E5
330
1F
100
AcDbEntity
  8
0
100
AcDbLine
 10
14.16820093920031
 20
46.2498061571829
 30
0.0
 11
14.03238604986429
 21
45.95025887348069
 31
0.0
  0
LINE
  5
2E6
330
1F
100
AcDbEntity
  8
0
100
AcDbLine
 10
14.03238604986429
 20
45.95025887348069
 30
0.0
 11
13.98711442008562
 21
45.57676792780664
 31
0.0
  0
LINE
  5
2E7
330
1F
100
AcDbEntity
  8
0
100
AcDbLine
 10
13.98711442008562
 20
45.57676792780664
 30
0.0
 11
13.98711442008562
 21
42.06368945698169
 31
0.0
  0
LINE
  5
2E8
330
1F
100
AcDbEntity
  8
0
100
AcDbLine
 10
13.98711442008562
 20
42.06368945698169
 30
0.0
 11
11.41568584865705
 21
42.06368945698169
 31
0.0
  0
LINE
  5
2E9
330
1F
100
AcDbEntity
  8
0
100
AcDbLine
 10
11.41568584865705
 20
42.06368945698169
 30
0.0
 11
11.41568584865705
 21
51.21459488957727
 31
0.0
  0
LINE
  5
2EA
330
1F
100
AcDbEntity
  8
0
100
AcDbLine
 10
11.41568584865705
 20
51.21459488957727
 30
0.0
 11
13.98711442008562
 21
51.21459488957727
 31
0.0
  0
LINE
  5
2EB
330
1F
100
AcDbEntity
  8
0
100
AcDbLine
 10
13.98711442008562
 20
51.21459488957727
 30
0.0
 11
13.98711442008562
 21
47.40574177086499
 31
0.0
  0
LINE
  5
2EC
330
1F
100
AcDbEntity
  8
0
100
AcDbLine
 10
14.01125928930091
 20
47.40574177086499
 30
0.0
 11
14.37871401767114
 21
47.82752245496962
 31
0.0
  0
LINE
  5
2ED
330
1F
100
AcDbEntity
  8
0
100
AcDbLine
 10
14.37871401767114
 20
47.82752245496962
 30
0.0
 11
14.81709429936128
 21
48.13914217327948
 31
0.0
  0
LINE
  5
2EE
330
1F
100
AcDbEntity
  8
0
100
AcDbLine
 10
14.81709429936128
 20
48.13914217327948
 30
0.0
 11
15.30829148245987
 21
48.33154659983884
 31
0.0
  0
LINE
  5
2EF
330
1F
100
AcDbEntity
  8
0
100
AcDbLine
 10
15.30829148245987
 20
48.33154659983884
 30
0.0
 11
15.83419691505544
 21
48.39568140869196
 31
0.0
  0
LINE
  5
2F0
330
1F
100
AcDbEntity
  8
0
100
AcDbLine
 10
15.83419691505544
 20
48.39568140869196
 30
0.0
 11
16.30539912833512
 21
48.35550283726338
 31
0.0
  0
LINE
  5
2F1
330
1F
100
AcDbEntity
  8
0
100
AcDbLine
 10
16.30539912833512
 20
48.35550283726338
 30
0.0
 11
16.71699369573954
 21
48.23496712297767
 31
0.0
  0
LINE
  5
2F2
330
1F
100
AcDbEntity
  8
0
100
AcDbLine
 10
16.71699369573954
 20
48.23496712297767
 30
0.0
 11
17.06898061726872
 21
48.03407426583481
 31
0.0
  0
LINE
  5
2F3
330
1F
100
AcDbEntity
  8
0
100
AcDbLine
 10
17.06898061726872
 20
48.03407426583481
 30
0.0
 11
17.36135989292265
 21
47.75282426583481
 31
0.0
  0
LINE
  5
2F4
330
1F
100
AcDbEntity
  8
0
100
AcDbLine
 10
17.36135989292265
 20
47.75282426583481
 30
0.0
 11
17.59111341404941
 21
47.3934807044666
 31
0.0
  0
LINE
  5
2F5
330
1F
100
AcDbEntity
  8
0
100
AcDbLine
 10
17.59111341404941
 20
47.3934807044666
 30
0.0
 11
17.7552230719971
 21
46.95830716321912
 31
0.0
  0
LINE
  5
2F6
330
1F
100
AcDbEntity
  8
0
100
AcDbLine
 10
17.7552230719971
 20
46.95830716321912
 30
0.0
 11
17.85368886676571
 21
46.44730364209235
 31
0.0
  0
LINE
  5
2F7
330
1F
100
AcDbEntity
  8
0
100
AcDbLine
 10
17.85368886676571
 20
46.44730364209235
 30
0.0
 11
17.88651079835525
 21
45.86047014108632
 31
0.0
  0
LINE
  5
2F8
330
1F
100
AcDbEntity
  8
0
100
AcDbLine
 10
17.88651079835525
 20
45.86047014108632
 30
0.0
 11
17.88651079835525
 21
42.06368945698169
 31
0.0
  0
LINE
  5
2F9
330
1F
100
AcDbEntity
  8
0
100
AcDbLine
 10
17.88651079835525
 20
42.06368945698169
 30
0.0
 11
15.39958926918019
 21
42.06368945698169
 31
0.0
  0
LINE
  5
2FA
330
1F
100
AcDbEntity
  8
0
100
AcDbLine
 10
23.39757719674559
 20
42.14819649923521
 30
0.0
 11
22.82413655288241
 21
41.9882367406839
 31
0.0
  0
LINE
  5
2FB
330
1F
100
AcDbEntity
  8
0
100
AcDbLine
 10
22.82413655288241
 20
41.9882367406839
 30
0.0
 11
21.86437800157456
 21
41.91278402438612
 31
0.0
  0
LINE
  5
2FC
330
1F
100
AcDbEntity
  8
0
100
AcDbLine
 10
21.86437800157456
 20
41.91278402438612
 30
0.0
 11
21.35639258909971
 21
41.94975585537203
 31
0.0
  0
LINE
  5
2FD
330
1F
100
AcDbEntity
  8
0
100
AcDbLine
 10
21.35639258909971
 20
41.94975585537203
 30
0.0
 11
20.90688303175565
 21
42.06067134832978
 31
0.0
  0
LINE
  5
2FE
330
1F
100
AcDbEntity
  8
0
100
AcDbLine
 10
20.90688303175565
 20
42.06067134832978
 30
0.0
 11
20.51584932954237
 21
42.24553050325936
 31
0.0
  0
LINE
  5
2FF
330
1F
100
AcDbEntity
  8
0
100
AcDbLine
 10
20.51584932954237
 20
42.24553050325936
 30
0.0
 11
20.18329148245987
 21
42.50433332016077
 31
0.0
  0
LINE
  5
300
330
1F
100
AcDbEntity
  8
0
100
AcDbLine
 10
20.18329148245987
 20
42.50433332016077
 30
0.0
 11
19.9178865528824
 21
42.83142084531167
 31
0.0
  0
LINE
  5
301
330
1F
100
AcDbEntity
  8
0
100
AcDbLine
 10
19.9178865528824
 20
42.83142084531167
 30
0.0
 11
19.72831160318421
 21
43.22113412498975
 31
0.0
  0
LINE
  5
302
330
1F
100
AcDbEntity
  8
0
100
AcDbLine
 10
19.72831160318421
 20
43.22113412498975
 30
0.0
 11
19.6145666333653
 21
43.67347315919498
 31
0.0
  0
LINE
  5
303
330
1F
100
AcDbEntity
  8
0
100
AcDbLine
 10
19.6145666333653
 20
43.67347315919498
 30
0.0
 11
19.57665164342566
 21
44.18843794792737
 31
0.0
  0
LINE
  5
304
330
1F
100
AcDbEntity
  8
0
100
AcDbLine
 10
19.57665164342566
 20
44.18843794792737
 30
0.0
 11
19.57665164342566
 21
46.46409187146861
 31
0.0
  0
LINE
  5
305
330
1F
100
AcDbEntity
  8
0
100
AcDbLine
 10
19.57665164342566
 20
46.46409187146861
 30
0.0
 11
18.60482065751017
 21
46.46409187146861
 31
0.0
  0
LINE
  5
306
330
1F
100
AcDbEntity
  8
0
100
AcDbLine
 10
18.60482065751017
 20
46.46409187146861
 30
0.0
 11
18.60482065751017
 21
48.24477597609638
 31
0.0
  0
LINE
  5
307
330
1F
100
AcDbEntity
  8
0
100
AcDbLine
 10
18.60482065751017
 20
48.24477597609638
 30
0.0
 11
19.57665164342566
 21
48.24477597609638
 31
0.0
  0
LINE
  5
308
330
1F
100
AcDbEntity
  8
0
100
AcDbLine
 10
19.57665164342566
 20
48.24477597609638
 30
0.0
 11
19.57665164342566
 21
49.45805565416479
 31
0.0
  0
LINE
  5
309
330
1F
100
AcDbEntity
  8
0
100
AcDbLine
 10
19.57665164342566
 20
49.45805565416479
 30
0.0
 11
22.1118629110313
 21
50.15825686140825
 31
0.0
  0
LINE
  5
30A
330
1F
100
AcDbEntity
  8
0
100
AcDbLine
 10
22.1118629110313
 20
50.15825686140825
 30
0.0
 11
22.1118629110313
 21
48.24477597609638
 31
0.0
  0
LINE
  5
30B
330
1F
100
AcDbEntity
  8
0
100
AcDbLine
 10
22.1118629110313
 20
48.24477597609638
 30
0.0
 11
23.39757719674559
 21
48.24477597609638
 31
0.0
  0
LINE
  5
30C
330
1F
100
AcDbEntity
  8
0
100
AcDbLine
 10
23.39757719674559
 20
48.24477597609638
 30
0.0
 11
23.39757719674559
 21
46.46409187146861
 31
0.0
  0
LINE
  5
30D
330
1F
100
AcDbEntity
  8
0
100
AcDbLine
 10
23.39757719674559
 20
46.46409187146861
 30
0.0
 11
22.1118629110313
 21
46.46409187146861
 31
0.0
  0
LINE
  5
30E
330
1F
100
AcDbEntity
  8
0
100
AcDbLine
 10
22.1118629110313
 20
46.46409187146861
 30
0.0
 11
22.1118629110313
 21
44.61097315919497
 31
0.0
  0
LINE
  5
30F
330
1F
100
AcDbEntity
  8
0
100
AcDbLine
 10
22.1118629110313
 20
44.61097315919497
 30
0.0
 11
22.15223011425062
 21
44.25445907468793
 31
0.0
  0
LINE
  5
310
330
1F
100
AcDbEntity
  8
0
100
AcDbLine
 10
22.15223011425062
 20
44.25445907468793
 30
0.0
 11
22.27333172390856
 21
43.9998061571829
 31
0.0
  0
LINE
  5
311
330
1F
100
AcDbEntity
  8
0
100
AcDbLine
 10
22.27333172390856
 20
43.9998061571829
 30
0.0
 11
22.47516774000514
 21
43.84701440667988
 31
0.0
  0
LINE
  5
312
330
1F
100
AcDbEntity
  8
0
100
AcDbLine
 10
22.47516774000514
 20
43.84701440667988
 30
0.0
 11
22.75773816254035
 21
43.79608382317888
 31
0.0
  0
LINE
  5
313
330
1F
100
AcDbEntity
  8
0
100
AcDbLine
 10
22.75773816254035
 20
43.79608382317888
 30
0.0
 11
23.39757719674559
 21
43.92888060386298
 31
0.0
  0
LINE
  5
314
330
1F
100
AcDbEntity
  8
0
100
AcDbLine
 10
23.39757719674559
 20
43.92888060386298
 30
0.0
 11
23.39757719674559
 21
42.14819649923521
 31
0.0
  0
LINE
  5
315
330
1F
100
AcDbEntity
  8
0
100
AcDbLine
 10
50.19510205137252
 20
66.94424239640338
 30
0.0
 11
48.7817696751636
 21
68.24265935888526
 31
0.0
  0
LINE
  5
316
330
1F
100
AcDbEntity
  8
0
100
AcDbLine
 10
48.7817696751636
 20
68.24265935888526
 30
0.0
 11
47.86371849169751
 21
68.53991288295445
 31
0.0
  0
LINE
  5
317
330
1F
100
AcDbEntity
  8
0
100
AcDbLine
 10
41.25544613920972
 20
66.38069042281151
 30
0.0
 11
42.28238379467334
 21
65.78973717150795
 31
0.0
  0
LINE
  5
318
330
1F
100
AcDbEntity
  8
0
100
AcDbLine
 10
48.49511720402129
 20
67.24912867857992
 30
0.0
 11
50.19510205137252
 21
66.94424239640338
 31
0.0
  0
LINE
  5
319
330
1F
100
AcDbEntity
  8
0
100
AcDbLine
 10
42.04798085602187
 20
65.67423625576555
 30
0.0
 11
40.77755067326689
 21
59.52350534760116
 31
0.0
  0
LINE
  5
31A
330
1F
100
AcDbEntity
  8
0
100
AcDbLine
 10
42.2294708821298
 20
71.13759489215228
 30
0.0
 11
34.44575378111192
 21
71.65238202228063
 31
0.0
  0
LINE
  5
31B
330
1F
100
AcDbEntity
  8
0
100
AcDbLine
 10
43.91843063443712
 20
62.83697045042065
 30
0.0
 11
44.21610820062335
 21
63.0197326028797
 31
0.0
  0
LINE
  5
31C
330
1F
100
AcDbEntity
  8
0
100
AcDbLine
 10
42.04798085602187
 20
65.67423625576555
 30
0.0
 11
43.91843063443712
 21
62.83697045042065
 31
0.0
  0
LINE
  5
31D
330
1F
100
AcDbEntity
  8
0
100
AcDbLine
 10
44.86531668186432
 20
62.22592575971645
 30
0.0
 11
44.21610820062335
 21
63.0197326028797
 31
0.0
  0
LINE
  5
31E
330
1F
100
AcDbEntity
  8
0
100
AcDbLine
 10
47.88407251331709
 20
64.88170153895351
 30
0.0
 11
48.49511720402129
 21
67.24912867857992
 31
0.0
  0
LINE
  5
31F
330
1F
100
AcDbEntity
  8
0
100
AcDbLine
 10
44.49258366095587
 20
64.51787340250364
 30
0.0
 11
47.84506063854619
 21
65.15817699928598
 31
0.0
  0
LINE
  5
320
330
1F
100
AcDbEntity
  8
0
100
AcDbLine
 10
47.86371849169751
 20
68.53991288295445
 30
0.0
 11
45.67975184371099
 21
67.463773866761
 31
0.0
  0
LINE
  5
321
330
1F
100
AcDbEntity
  8
0
100
AcDbLine
 10
40.77755067326689
 20
59.52350534760116
 30
0.0
 11
44.86531668186432
 21
62.22592575971645
 31
0.0
  0
LINE
  5
322
330
1F
100
AcDbEntity
  8
0
100
AcDbLine
 10
42.2294708821298
 20
71.13759489215228
 30
0.0
 11
41.25544613920972
 21
66.38069042281151
 31
0.0
  0
LINE
  5
323
330
1F
100
AcDbEntity
  8
0
100
AcDbLine
 10
34.38850809530675
 20
70.77376675570244
 30
0.0
 11
38.72815512144637
 21
68.3367967088758
 31
0.0
  0
LINE
  5
324
330
1F
100
AcDbEntity
  8
0
100
AcDbLine
 10
48.7817696751636
 20
68.24265935888526
 30
0.0
 11
48.49511720402129
 21
67.24912867857992
 31
0.0
  0
LINE
  5
325
330
1F
100
AcDbEntity
  8
0
100
AcDbLine
 10
47.84506063854619
 20
65.15817699928598
 30
0.0
 11
45.67975184371099
 21
67.463773866761
 31
0.0
  0
LINE
  5
326
330
1F
100
AcDbEntity
  8
0
100
AcDbLine
 10
35.58133857063699
 20
70.77376675570244
 30
0.0
 11
34.38850809530675
 21
70.77376675570244
 31
0.0
  0
LINE
  5
327
330
1F
100
AcDbEntity
  8
0
100
AcDbLine
 10
34.44575378111192
 20
71.65238202228063
 30
0.0
 11
35.58133857063699
 21
70.77376675570244
 31
0.0
  0
LINE
  5
328
330
1F
100
AcDbEntity
  8
0
100
AcDbLine
 10
35.58133857063699
 20
70.77376675570244
 30
0.0
 11
38.72815512144637
 21
68.3367967088758
 31
0.0
  0
LINE
  5
329
330
1F
100
AcDbEntity
  8
0
100
AcDbLine
 10
44.21610820062335
 20
63.0197326028797
 30
0.0
 11
44.29201173957969
 21
63.05789639341643
 31
0.0
  0
LINE
  5
32A
330
1F
100
AcDbEntity
  8
0
100
AcDbLine
 10
42.28238379467334
 20
65.78973717150795
 30
0.0
 11
42.04798085602187
 21
65.67423625576555
 31
0.0
  0
LINE
  5
32B
330
1F
100
AcDbEntity
  8
0
100
AcDbLine
 10
45.67975184371099
 20
67.463773866761
 30
0.0
 11
42.28238379467334
 21
65.78973717150795
 31
0.0
  0
LINE
  5
32C
330
1F
100
AcDbEntity
  8
0
100
AcDbLine
 10
45.67975184371099
 20
67.463773866761
 30
0.0
 11
42.2294708821298
 21
71.13759489215228
 31
0.0
  0
LINE
  5
32D
330
1F
100
AcDbEntity
  8
0
100
AcDbLine
 10
44.29201173957969
 20
63.05789639341643
 30
0.0
 11
47.88407251331709
 21
64.88170153895351
 31
0.0
  0
LINE
  5
32E
330
1F
100
AcDbEntity
  8
0
100
AcDbLine
 10
38.72815512144637
 20
68.3367967088758
 30
0.0
 11
41.25544613920972
 21
66.38069042281151
 31
0.0
  0
LINE
  5
32F
330
1F
100
AcDbEntity
  8
0
100
AcDbLine
 10
42.28238379467334
 20
65.78973717150795
 30
0.0
 11
44.49258366095587
 21
64.51787340250364
 31
0.0
  0
ENDSEC
  0
SECTION
  2
OBJECTS
  0
DICTIONARY
  5
C
330
0
100
AcDbDictionary
  3
ACAD_GROUP
350
D
  3
ACAD_LAYOUT
350
1A
  3
ACAD_MATERIAL
350
43
  3
ACAD_MLEADERSTYLE
350
352
  3
ACAD_MLINESTYLE
350
17
  3
ACAD_PLOTSETTINGS
350
19
  3
ACAD_SCALELIST
350
47
  3
ACAD_VISUALSTYLE
350
2A
  3
ACDBHEADERROUNDTRIPXREC
350
330
  3
ACDBVARIABLEDICTIONARY
350
350
  0
DICTIONARY
  5
357
330
8
100
AcDbDictionary
280
     1
  3
ACAD_XREC_ROUNDTRIP
360
358
  0
DICTIONARY
  5
D
102
{ACAD_REACTORS
330
C
102
}
330
C
100
AcDbDictionary
  0
DICTIONARY
  5
1A
102
{ACAD_REACTORS
330
C
102
}
330
C
100
AcDbDictionary
  0
DICTIONARY
  5
43
102
{ACAD_REACTORS
330
C
102
}
330
C
100
AcDbDictionary
  3
BYBLOCK
350
45
  3
BYLAYER
350
44
  3
GLOBAL
350
46
  0
DICTIONARY
  5
352
102
{ACAD_REACTORS
330
C
102
}
330
C
100
AcDbDictionary
  0
DICTIONARY
  5
17
102
{ACAD_REACTORS
330
C
102
}
330
C
100
AcDbDictionary
  3
STANDARD
350
18
  0
DICTIONARY
  5
19
102
{ACAD_REACTORS
330
C
102
}
330
C
100
AcDbDictionary
  0
DICTIONARY
  5
47
102
{ACAD_REACTORS
330
C
102
}
330
C
100
AcDbDictionary
  3
A0
350
48
  3
A1
350
49
  3
A2
350
4A
  3
A3
350
4B
  3
A4
350
4C
  3
A5
350
4D
  3
A6
350
4E
  3
A7
350
4F
  3
A8
350
50
  3
A9
350
51
  3
B0
350
52
  3
B1
350
53
  3
B2
350
54
  3
B3
350
55
  3
B4
350
56
  3
B5
350
57
  3
B6
350
58
  3
B7
350
59
  3
B8
350
5A
  3
B9
350
5B
  3
C0
350
5C
  3
C1
350
5D
  3
C2
350
5E
  3
C3
350
5F
  3
C4
350
60
  3
C5
350
61
  3
C6
350
62
  3
C7
350
63
  3
C8
350
64
  3
C9
350
65
  3
D0
350
66
  3
D1
350
67
  3
D2
350
68
  0
DICTIONARY
  5
2A
102
{ACAD_REACTORS
330
C
102
}
330
C
100
AcDbDictionary
  3
2DWIREFRAME
350
2F
  3
BASIC
350
32
  3
BRIGHTEN
350
36
  3
COLORCHANGE
350
3A
  3
CONCEPTUAL
350
34
  3
DIM
350
35
  3
EDGECOLOROFF
350
3D
  3
FACEPATTERN
350
39
  3
FLAT
350
2B
  3
FLATWITHEDGES
350
2C
  3
GOURAUD
350
2D
  3
GOURAUDWITHEDGES
350
2E
  3
HIDDEN
350
31
  3
JITTEROFF
350
3B
  3
LINEPATTERN
350
38
  3
OVERHANGOFF
350
3C
  3
REALISTIC
350
33
  3
SHADED
350
42
  3
SHADED_WITH_EDGES
350
41
  3
SHADES_OF_GRAY
350
3E
  3
SKETCHY
350
3F
  3
THICKEN
350
37
  3
WIREFRAME
350
30
  3
X-RAY
350
40
  0
DICTIONARY
  5
330
102
{ACAD_REACTORS
330
C
102
}
330
C
100
AcDbDictionary
  3
CEPSNTYPE
350
339
  3
DIMSTYLEDATA
350
34F
  3
FINGERPRINTGUID
350
33A
  3
HYPERLINKBASE
350
333
  3
INSUNITS
350
338
  3
LAYOUTDICT
350
335
  3
LWETCUNION
350
337
  3
PLOTSETDICT
350
336
  3
PSVPSCALE
350
33C
  3
PUCSBASE
350
33F
  3
PUCSORGBACK
350
345
  3
PUCSORGBOTTOM
350
341
  3
PUCSORGFRONT
350
344
  3
PUCSORGLEFT
350
342
  3
PUCSORGRIGHT
350
343
  3
PUCSORGTOP
350
340
  3
PUCSORTHOREF
350
33D
  3
PUCSORTHOVIEW
350
33E
  3
STYLESHEET
350
334
  3
TSTACKALIGN
350
331
  3
TSTACKSIZE
350
332
  3
UCSBASE
350
348
  3
UCSORGBACK
350
34E
  3
UCSORGBOTTOM
350
34A
  3
UCSORGFRONT
350
34D
  3
UCSORGLEFT
350
34B
  3
UCSORGRIGHT
350
34C
  3
UCSORGTOP
350
349
  3
UCSORTHOREF
350
346
  3
UCSORTHOVIEW
350
347
  3
VERSIONGUID
350
33B
  0
DICTIONARY
  5
350
102
{ACAD_REACTORS
330
C
102
}
330
C
100
AcDbDictionary
  3
CANNOSCALE
350
359
  3
DIMASSOC
350
355
  3
HIDETEXT
350
356
  3
MSLTSCALE
350
35A
  0
XRECORD
  5
358
102
{ACAD_REACTORS
330
357
102
}
330
357
100
AcDbXrecord
102
VTR_0.000_0.000_1.000_1.000_GRIDDISPLAY
 70
     3
102
VTR_0.000_0.000_1.000_1.000_GRIDMAJOR
 70
     5
102
VTR_0.000_0.000_1.000_1.000_DEFAULTLIGHTING
280
     1
102
VTR_0.000_0.000_1.000_1.000_DEFAULTLIGHTINGTYPE
 70
     1
102
VTR_0.000_0.000_1.000_1.000_BRIGHTNESS
141
0.0
102
VTR_0.000_0.000_1.000_1.000_CONTRAST
142
0.0
  0
MATERIAL
  5
45
102
{ACAD_REACTORS
330
43
102
}
102
{ACAD_XDICTIONARY
360
35D
102
}
330
43
100
AcDbMaterial
  1
BYBLOCK
  0
MATERIAL
  5
44
102
{ACAD_REACTORS
330
43
102
}
102
{ACAD_XDICTIONARY
360
35B
102
}
330
43
100
AcDbMaterial
  1
BYLAYER
  0
MATERIAL
  5
46
102
{ACAD_REACTORS
330
43
102
}
102
{ACAD_XDICTIONARY
360
35F
102
}
330
43
100
AcDbMaterial
  1
GLOBAL
  0
MLINESTYLE
  5
18
102
{ACAD_REACTORS
330
17
102
}
330
17
100
AcDbMlineStyle
  2
Standard
 70
     0
  3

 62
   256
 51
90.0
 52
90.0
 71
     2
 49
0.5
 62
   256
  6
BYLAYER
 49
-0.5
 62
   256
  6
BYLAYER
  0
ACAD_PROXY_OBJECT
  5
48
102
{ACAD_REACTORS
330
47
102
}
330
47
100
AcDbProxyObject
 90
      499
 91
      503
 93
       41
310
903313A31580
  0
ACAD_PROXY_OBJECT
  5
49
102
{ACAD_REACTORS
330
47
102
}
330
47
100
AcDbProxyObject
 90
      499
 91
      503
 93
      105
310
903313A324000000000000004000
  0
ACAD_PROXY_OBJECT
  5
4A
102
{ACAD_REACTORS
330
47
102
}
330
47
100
AcDbProxyObject
 90
      499
 91
      503
 93
      105
310
903313A344000000000000104000
  0
ACAD_PROXY_OBJECT
  5
4B
102
{ACAD_REACTORS
330
47
102
}
330
47
100
AcDbProxyObject
 90
      499
 91
      503
 93
      105
310
903313A354000000000000144000
  0
ACAD_PROXY_OBJECT
  5
4C
102
{ACAD_REACTORS
330
47
102
}
330
47
100
AcDbProxyObject
 90
      499
 91
      503
 93
      105
310
903313A384000000000000204000
  0
ACAD_PROXY_OBJECT
  5
4D
102
{ACAD_REACTORS
330
47
102
}
330
47
100
AcDbProxyObject
 90
      499
 91
      503
 93
      113
310
904313A31304000000000000244000
  0
ACAD_PROXY_OBJECT
  5
4E
102
{ACAD_REACTORS
330
47
102
}
330
47
100
AcDbProxyObject
 90
      499
 91
      503
 93
      113
310
904313A31364000000000000304000
  0
ACAD_PROXY_OBJECT
  5
4F
102
{ACAD_REACTORS
330
47
102
}
330
47
100
AcDbProxyObject
 90
      499
 91
      503
 93
      113
310
904313A32304000000000000344000
  0
ACAD_PROXY_OBJECT
  5
50
102
{ACAD_REACTORS
330
47
102
}
330
47
100
AcDbProxyObject
 90
      499
 91
      503
 93
      113
310
904313A333040000000000003E4000
  0
ACAD_PROXY_OBJECT
  5
51
102
{ACAD_REACTORS
330
47
102
}
330
47
100
AcDbProxyObject
 90
      499
 91
      503
 93
      113
310
904313A34304000000000000444000
  0
ACAD_PROXY_OBJECT
  5
52
102
{ACAD_REACTORS
330
47
102
}
330
47
100
AcDbProxyObject
 90
      499
 91
      503
 93
      113
310
904313A35304000000000000494000
  0
ACAD_PROXY_OBJECT
  5
53
102
{ACAD_REACTORS
330
47
102
}
330
47
100
AcDbProxyObject
 90
      499
 91
      503
 93
      121
310
905313A3130304000000000000594000
  0
ACAD_PROXY_OBJECT
  5
54
102
{ACAD_REACTORS
330
47
102
}
330
47
100
AcDbProxyObject
 90
      499
 91
      503
 93
      105
310
903323A310000000000000010100
  0
ACAD_PROXY_OBJECT
  5
55
102
{ACAD_REACTORS
330
47
102
}
330
47
100
AcDbProxyObject
 90
      499
 91
      503
 93
      105
310
903343A310000000000000410100
  0
ACAD_PROXY_OBJECT
  5
56
102
{ACAD_REACTORS
330
47
102
}
330
47
100
AcDbProxyObject
 90
      499
 91
      503
 93
      105
310
903383A310000000000000810100
  0
ACAD_PROXY_OBJECT
  5
57
102
{ACAD_REACTORS
330
47
102
}
330
47
100
AcDbProxyObject
 90
      499
 91
      503
 93
      113
310
90431303A310000000000000910100
  0
ACAD_PROXY_OBJECT
  5
58
102
{ACAD_REACTORS
330
47
102
}
330
47
100
AcDbProxyObject
 90
      499
 91
      503
 93
      121
310
9053130303A310000000000001650100
  0
ACAD_PROXY_OBJECT
  5
59
102
{ACAD_REACTORS
330
47
102
}
330
47
100
AcDbProxyObject
 90
      499
 91
      503
 93
      257
310
90E312F31323822203D2031272D3022000000000000200FC000000000000284000
  0
ACAD_PROXY_OBJECT
  5
5A
102
{ACAD_REACTORS
330
47
102
}
330
47
100
AcDbProxyObject
 90
      499
 91
      503
 93
      249
310
90D312F363422203D2031272D3022000000000000240FC000000000000284000
  0
ACAD_PROXY_OBJECT
  5
5B
102
{ACAD_REACTORS
330
47
102
}
330
47
100
AcDbProxyObject
 90
      499
 91
      503
 93
      249
310
90D312F333222203D2031272D3022000000000000280FC000000000000284000
  0
ACAD_PROXY_OBJECT
  5
5C
102
{ACAD_REACTORS
330
47
102
}
330
47
100
AcDbProxyObject
 90
      499
 91
      503
 93
      249
310
90D312F313622203D2031272D30220000000000002C0FC000000000000284000
  0
ACAD_PROXY_OBJECT
  5
5D
102
{ACAD_REACTORS
330
47
102
}
330
47
100
AcDbProxyObject
 90
      499
 91
      503
 93
      249
310
90D332F333222203D2031272D30220000000000002E0FC000000000000284000
  0
ACAD_PROXY_OBJECT
  5
5E
102
{ACAD_REACTORS
330
47
102
}
330
47
100
AcDbProxyObject
 90
      499
 91
      503
 93
      241
310
90C312F3822203D2031272D3022000000000000300FC000000000000284000
  0
ACAD_PROXY_OBJECT
  5
5F
102
{ACAD_REACTORS
330
47
102
}
330
47
100
AcDbProxyObject
 90
      499
 91
      503
 93
      249
310
90D332F313622203D2031272D3022000000000000320FC000000000000284000
  0
ACAD_PROXY_OBJECT
  5
60
102
{ACAD_REACTORS
330
47
102
}
330
47
100
AcDbProxyObject
 90
      499
 91
      503
 93
      241
310
90C312F3422203D2031272D3022000000000000340FC000000000000284000
  0
ACAD_PROXY_OBJECT
  5
61
102
{ACAD_REACTORS
330
47
102
}
330
47
100
AcDbProxyObject
 90
      499
 91
      503
 93
      241
310
90C332F3822203D2031272D3022000000000000360FC000000000000284000
  0
ACAD_PROXY_OBJECT
  5
62
102
{ACAD_REACTORS
330
47
102
}
330
47
100
AcDbProxyObject
 90
      499
 91
      503
 93
      241
310
90C312F3222203D2031272D3022000000000000380FC000000000000284000
  0
ACAD_PROXY_OBJECT
  5
63
102
{ACAD_REACTORS
330
47
102
}
330
47
100
AcDbProxyObject
 90
      499
 91
      503
 93
      241
310
90C332F3422203D2031272D30220000000000003A0FC000000000000284000
  0
ACAD_PROXY_OBJECT
  5
64
102
{ACAD_REACTORS
330
47
102
}
330
47
100
AcDbProxyObject
 90
      499
 91
      503
 93
      161
310
90A3122203D2031272D30224000000000000284000
  0
ACAD_PROXY_OBJECT
  5
65
102
{ACAD_REACTORS
330
47
102
}
330
47
100
AcDbProxyObject
 90
      499
 91
      503
 93
      257
310
90E312D312F3222203D2031272D30220000000000003E0FC000000000000284000
  0
ACAD_PROXY_OBJECT
  5
66
102
{ACAD_REACTORS
330
47
102
}
330
47
100
AcDbProxyObject
 90
      499
 91
      503
 93
      225
310
90A3322203D2031272D302200000000000002100000000000000284000
  0
ACAD_PROXY_OBJECT
  5
67
102
{ACAD_REACTORS
330
47
102
}
330
47
100
AcDbProxyObject
 90
      499
 91
      503
 93
      225
310
90A3622203D2031272D302200000000000006100000000000000284000
  0
ACAD_PROXY_OBJECT
  5
68
102
{ACAD_REACTORS
330
47
102
}
330
47
100
AcDbProxyObject
 90
      499
 91
      503
 93
      249
310
90D31272D3022203D2031272D30220000000000000A100000000000000284000
  0
ACAD_PROXY_OBJECT
  5
2F
102
{ACAD_REACTORS
330
2A
102
}
330
2A
100
AcDbProxyObject
 90
      499
 91
      501
 93
      436
310
42CC9915DA5C99599C985B595049028333333333333E33F0000000000000F90107901411070040501600405405064090741402480A0340
1001
ACAD
1000
AcDbSavedByObjectVersion
1070
     0
  0
ACAD_PROXY_OBJECT
  5
32
102
{ACAD_REACTORS
330
2A
102
}
330
2A
100
AcDbProxyObject
 90
      499
 91
      501
 93
      388
310
4150985CDA58D07406404333333333333E33F0000000000000F90107A41107004050150841D405064090741402480A0350
1001
ACAD
1000
AcDbSavedByObjectVersion
1070
     0
  0
ACAD_PROXY_OBJECT
  5
36
102
{ACAD_REACTORS
330
2A
102
}
330
2A
100
AcDbProxyObject
 90
      499
 91
      501
 93
      428
310
42109C9A59DA1D195B90C409028333333333333E33F0000000000000F9010790141107004050150841D405064090741402480A029950
1001
ACAD
1000
AcDbSavedByObjectVersion
1070
     0
  0
ACAD_PROXY_OBJECT
  5
3A
102
{ACAD_REACTORS
330
2A
102
}
330
2A
100
AcDbProxyObject
 90
      499
 91
      501
 93
      452
310
42D0DBDB1BDC90DA185B99D95104090240C333333333333E33F0000000000000F90108901411070040501508421405064090741402480A0350
1001
ACAD
1000
AcDbSavedByObjectVersion
1070
     0
  0
ACAD_PROXY_OBJECT
  5
34
102
{ACAD_REACTORS
330
2A
102
}
330
2A
100
AcDbProxyObject
 90
      499
 91
      501
 93
      500
310
4290DBDB98D95C1D1D585B10940D028333333333333E33F0000000000000F90107902409070040501000000000018199010841D405064090740C02480A0340
1001
ACAD
1000
AcDbSavedByObjectVersion
1070
     0
  0
ACAD_PROXY_OBJECT
  5
35
102
{ACAD_REACTORS
330
2A
102
}
330
2A
100
AcDbProxyObject
 90
      499
 91
      501
 93
      412
310
40D11A5B50B409028333333333333E33F0000000000000F9010790141107004050150841D405064090741402480A02677FFFFFD0
1001
ACAD
1000
AcDbSavedByObjectVersion
1070
     0
  0
ACAD_PROXY_OBJECT
  5
3D
102
{ACAD_REACTORS
330
2A
102
}
330
2A
100
AcDbProxyObject
 90
      499
 91
      501
 93
      452
310
43115919D950DBDB1BDC93D999916409028333333333333E33F0000000000000F9010790141107004050150841D405064090741402480A0350
1001
ACAD
1000
AcDbSavedByObjectVersion
1070
     0
  0
ACAD_PROXY_OBJECT
  5
39
102
{ACAD_REACTORS
330
2A
102
}
330
2A
100
AcDbProxyObject
 90
      499
 91
      501
 93
      444
310
42D19858D95C185D1D195C9B90F409028333333333333E33F0000000000000F9010790141107004050150841D405064090741402480A0350
1001
ACAD
1000
AcDbSavedByObjectVersion
1070
     0
  0
ACAD_PROXY_OBJECT
  5
2B
102
{ACAD_REACTORS
330
2A
102
}
330
2A
100
AcDbProxyObject
 90
      499
 91
      501
 93
      380
310
41119B185D240901404333333333333E33F0000000000000F9010740A907004050150841D405064090741402480A1B50
1001
ACAD
1000
AcDbSavedByObjectVersion
1070
     0
  0
ACAD_PROXY_OBJECT
  5
2C
102
{ACAD_REACTORS
330
2A
102
}
330
2A
100
AcDbProxyObject
 90
      499
 91
      501
 93
      468
310
43519B185D15DA5D1A115919D95CD0140901404333333333333E33F0000000000000F90107409019070040501600405405064090741402480A1B50
1001
ACAD
1000
AcDbSavedByObjectVersion
1070
     0
  0
ACAD_PROXY_OBJECT
  5
2D
102
{ACAD_REACTORS
330
2A
102
}
330
2A
100
AcDbProxyObject
 90
      499
 91
      501
 93
      404
310
41D1DBDD5C985D5910240902404333333333333E33F0000000000000F9010740A9070040501641D405064090741402480A1B50
1001
ACAD
1000
AcDbSavedByObjectVersion
1070
     0
  0
ACAD_PROXY_OBJECT
  5
2E
102
{ACAD_REACTORS
330
2A
102
}
330
2A
100
AcDbProxyObject
 90
      499
 91
      501
 93
      492
310
4411DBDD5C985D5915DA5D1A115919D95CD0340902404333333333333E33F0000000000000F90107409019070040501600405405064090741402480A1B50
1001
ACAD
1000
AcDbSavedByObjectVersion
1070
     0
  0
ACAD_PROXY_OBJECT
  5
31
102
{ACAD_REACTORS
330
2A
102
}
330
2A
100
AcDbProxyObject
 90
      499
 91
      501
 93
      476
310
41921A5919195B90640502408333333333333E33F0000000000000F901079024090700405020000000000001110200405405064090740C02480A0340
1001
ACAD
1000
AcDbSavedByObjectVersion
1070
     0
  0
ACAD_PROXY_OBJECT
  5
3B
102
{ACAD_REACTORS
330
2A
102
}
330
2A
100
AcDbProxyObject
 90
      499
 91
      501
 93
      428
310
42529A5D1D195C93D999914409028333333333333E33F0000000000000F9010790141107004050150A41D405064090741402480A0350
1001
ACAD
1000
AcDbSavedByObjectVersion
1070
     0
  0
ACAD_PROXY_OBJECT
  5
38
102
{ACAD_REACTORS
330
2A
102
}
330
2A
100
AcDbProxyObject
 90
      499
 91
      501
 93
      444
310
42D31A5B995C185D1D195C9B90E409028333333333333E33F0000000000000F9010790141107004050750841D405064090741402483A0350
1001
ACAD
1000
AcDbSavedByObjectVersion
1070
     0
  0
ACAD_PROXY_OBJECT
  5
3C
102
{ACAD_REACTORS
330
2A
102
}
330
2A
100
AcDbProxyObject
 90
      499
 91
      501
 93
      444
310
42D3DD995C9A185B99D3D999915409028333333333333E33F0000000000000F9010790141107004050150941D405064090741402480A0350
1001
ACAD
1000
AcDbSavedByObjectVersion
1070
     0
  0
ACAD_PROXY_OBJECT
  5
33
102
{ACAD_REACTORS
330
2A
102
}
330
2A
100
AcDbProxyObject
 90
      499
 91
      501
 93
      428
310
425499585B1A5CDD1A58D08409038333333333333E33F0000000000000F9010740A907004050150800405405064090740C02480A1B40
1001
ACAD
1000
AcDbSavedByObjectVersion
1070
     0
  0
ACAD_PROXY_OBJECT
  5
42
102
{ACAD_REACTORS
330
2A
102
}
330
2A
100
AcDbProxyObject
 90
      499
 91
      501
 93
      420
310
4194DA1859195911B40902404333333333333E33F0000000000000F9010740A41107004050150800405405064090840C02480A0B40
1001
ACAD
1000
AcDbSavedByObjectVersion
1070
     0
  0
ACAD_PROXY_OBJECT
  5
41
102
{ACAD_REACTORS
330
2A
102
}
330
2A
100
AcDbProxyObject
 90
      499
 91
      501
 93
      516
310
4454DA18591959081DDA5D1A08195919D95CD1A40902404333333333333E33F0000000000000F901074090142907004050250800405405064090740C02480A0B40
1001
ACAD
1000
AcDbSavedByObjectVersion
1070
     0
  0
ACAD_PROXY_OBJECT
  5
3E
102
{ACAD_REACTORS
330
2A
102
}
330
2A
100
AcDbProxyObject
 90
      499
 91
      501
 93
      532
310
4394DA1859195CC81BD98811DC985E5174090240C333333333333E33F0000000000000F901079024090741D01000000000000111010841D405064090740C02480A0340
1001
ACAD
1000
AcDbSavedByObjectVersion
1070
     0
  0
ACAD_PROXY_OBJECT
  5
3F
102
{ACAD_REACTORS
330
2A
102
}
330
2A
100
AcDbProxyObject
 90
      499
 91
      501
 93
      476
310
41D4DAD95D18DA1E51840502408333333333333E33F0000000000000F901079024090741D01000000000000111010B41D405064090741802480A0340
1001
ACAD
1000
AcDbSavedByObjectVersion
1070
     0
  0
ACAD_PROXY_OBJECT
  5
37
102
{ACAD_REACTORS
330
2A
102
}
330
2A
100
AcDbProxyObject
 90
      499
 91
      501
 93
      412
310
41D51A1A58DAD95B90D409028333333333333E33F0000000000000F9010790141107004050150C41D405064090741402480A0350
1001
ACAD
1000
AcDbSavedByObjectVersion
1070
     0
  0
ACAD_PROXY_OBJECT
  5
30
102
{ACAD_REACTORS
330
2A
102
}
330
2A
100
AcDbProxyObject
 90
      499
 91
      501
 93
      420
310
4255DA5C99599C985B595059028333333333333E33F0000000000000F90107901411070040501600405405064090740C02480A0340
1001
ACAD
1000
AcDbSavedByObjectVersion
1070
     0
  0
ACAD_PROXY_OBJECT
  5
40
102
{ACAD_REACTORS
330
2A
102
}
330
2A
100
AcDbProxyObject
 90
      499
 91
      501
 93
      404
310
41560B54985E51940902404000000000000E03F0000000000000F9010740501907004050150841D405064090740C02480A1B40
1001
ACAD
1000
AcDbSavedByObjectVersion
1070
     0
  0
XRECORD
  5
339
102
{ACAD_REACTORS
330
330
102
}
330
330
100
AcDbXrecord
 90
        0
  0
XRECORD
  5
34F
102
{ACAD_REACTORS
330
330
102
}
330
330
100
AcDbXrecord
1000
DSTYLE
1002
{
1070
   340
340
11
1002
}
  0
XRECORD
  5
33A
102
{ACAD_REACTORS
330
330
102
}
330
330
100
AcDbXrecord
  1
{07DDC480-2916-456A-B729-C4166011E542}
  0
XRECORD
  5
333
102
{ACAD_REACTORS
330
330
102
}
330
330
100
AcDbXrecord
  1

  0
XRECORD
  5
338
102
{ACAD_REACTORS
330
330
102
}
330
330
100
AcDbXrecord
 90
        1
  0
XRECORD
  5
335
102
{ACAD_REACTORS
330
330
102
}
330
330
100
AcDbXrecord
340
1A
  0
XRECORD
  5
337
102
{ACAD_REACTORS
330
330
102
}
330
330
100
AcDbXrecord
 90
    10781
  0
XRECORD
  5
336
102
{ACAD_REACTORS
330
330
102
}
330
330
100
AcDbXrecord
340
19
  0
XRECORD
  5
33C
102
{ACAD_REACTORS
330
330
102
}
330
330
100
AcDbXrecord
 40
0.0
  0
XRECORD
  5
33F
102
{ACAD_REACTORS
330
330
102
}
330
330
100
AcDbXrecord
340
0
  0
XRECORD
  5
345
102
{ACAD_REACTORS
330
330
102
}
330
330
100
AcDbXrecord
 10
0.0
 20
0.0
 30
0.0
  0
XRECORD
  5
341
102
{ACAD_REACTORS
330
330
102
}
330
330
100
AcDbXrecord
 10
0.0
 20
0.0
 30
0.0
  0
XRECORD
  5
344
102
{ACAD_REACTORS
330
330
102
}
330
330
100
AcDbXrecord
 10
0.0
 20
0.0
 30
0.0
  0
XRECORD
  5
342
102
{ACAD_REACTORS
330
330
102
}
330
330
100
AcDbXrecord
 10
0.0
 20
0.0
 30
0.0
  0
XRECORD
  5
343
102
{ACAD_REACTORS
330
330
102
}
330
330
100
AcDbXrecord
 10
0.0
 20
0.0
 30
0.0
  0
XRECORD
  5
340
102
{ACAD_REACTORS
330
330
102
}
330
330
100
AcDbXrecord
 10
0.0
 20
0.0
 30
0.0
  0
XRECORD
  5
33D
102
{ACAD_REACTORS
330
330
102
}
330
330
100
AcDbXrecord
340
0
  0
XRECORD
  5
33E
102
{ACAD_REACTORS
330
330
102
}
330
330
100
AcDbXrecord
 70
     0
  0
XRECORD
  5
334
102
{ACAD_REACTORS
330
330
102
}
330
330
100
AcDbXrecord
  1

  0
XRECORD
  5
331
102
{ACAD_REACTORS
330
330
102
}
330
330
100
AcDbXrecord
 90
        1
  0
XRECORD
  5
332
102
{ACAD_REACTORS
330
330
102
}
330
330
100
AcDbXrecord
 90
       70
  0
XRECORD
  5
348
102
{ACAD_REACTORS
330
330
102
}
330
330
100
AcDbXrecord
340
0
  0
XRECORD
  5
34E
102
{ACAD_REACTORS
330
330
102
}
330
330
100
AcDbXrecord
 10
0.0
 20
0.0
 30
0.0
  0
XRECORD
  5
34A
102
{ACAD_REACTORS
330
330
102
}
330
330
100
AcDbXrecord
 10
0.0
 20
0.0
 30
0.0
  0
XRECORD
  5
34D
102
{ACAD_REACTORS
330
330
102
}
330
330
100
AcDbXrecord
 10
0.0
 20
0.0
 30
0.0
  0
XRECORD
  5
34B
102
{ACAD_REACTORS
330
330
102
}
330
330
100
AcDbXrecord
 10
0.0
 20
0.0
 30
0.0
  0
XRECORD
  5
34C
102
{ACAD_REACTORS
330
330
102
}
330
330
100
AcDbXrecord
 10
0.0
 20
0.0
 30
0.0
  0
XRECORD
  5
349
102
{ACAD_REACTORS
330
330
102
}
330
330
100
AcDbXrecord
 10
0.0
 20
0.0
 30
0.0
  0
XRECORD
  5
346
102
{ACAD_REACTORS
330
330
102
}
330
330
100
AcDbXrecord
340
0
  0
XRECORD
  5
347
102
{ACAD_REACTORS
330
330
102
}
330
330
100
AcDbXrecord
 70
     0
  0
XRECORD
  5
33B
102
{ACAD_REACTORS
330
330
102
}
330
330
100
AcDbXrecord
  1
{FAEB1C32-E019-11D5-929B-00C0DF256EC4}
  0
DICTIONARYVAR
  5
359
102
{ACAD_REACTORS
330
350
102
}
330
350
100
DictionaryVariables
280
     0
  1
1:1
  0
DICTIONARYVAR
  5
355
102
{ACAD_REACTORS
330
350
102
}
330
350
100
DictionaryVariables
280
     0
  1
2
  0
DICTIONARYVAR
  5
356
102
{ACAD_REACTORS
330
350
102
}
330
350
100
DictionaryVariables
280
     0
  1
1
  0
DICTIONARYVAR
  5
35A
102
{ACAD_REACTORS
330
350
102
}
330
350
100
DictionaryVariables
280
     0
  1
1
  0
DICTIONARY
  5
35D
330
45
100
AcDbDictionary
280
     1
  3
ACAD_XREC_ROUNDTRIP
360
35E
  0
DICTIONARY
  5
35B
330
44
100
AcDbDictionary
280
     1
  3
ACAD_XREC_ROUNDTRIP
360
35C
  0
DICTIONARY
  5
35F
330
46
100
AcDbDictionary
280
     1
  3
ACAD_XREC_ROUNDTRIP
360
360
  0
XRECORD
  5
35E
102
{ACAD_REACTORS
330
35D
102
}
330
35D
100
AcDbXrecord
102
MATERIAL
148
0.0
149
0.0
149
0.0
 93
        0
 94
      127
282
     0
 72
     1
 77
     1
171
     1
175
     1
179
     1
273
     0
  0
XRECORD
  5
35C
102
{ACAD_REACTORS
330
35B
102
}
330
35B
100
AcDbXrecord
102
MATERIAL
148
0.0
149
0.0
149
0.0
 93
        0
 94
      127
282
     0
 72
     1
 77
     1
171
     1
175
     1
179
     1
273
     0
  0
XRECORD
  5
360
102
{ACAD_REACTORS
330
35F
102
}
330
35F
100
AcDbXrecord
102
MATERIAL
148
0.0
149
0.0
149
0.0
 93
        0
 94
      127
282
     0
 72
     1
 77
     1
171
     1
175
     1
179
     1
273
     0
  0
ENDSEC
  0
EOF
