  0
SECTION
  2
HEADER
  9
$ACADVER
  1
AC1014
  9
$ACADMAINTVER
 70
     9
  9
$DWGCODEPAGE
  3
ANSI_1252
  9
$INSBASE
 10
0.0
 20
0.0
 30
0.0
  9
$EXTMIN
 10
1.000000000000000E+20
 20
1.000000000000000E+20
 30
1.000000000000000E+20
  9
$EXTMAX
 10
-1.000000000000000E+20
 20
-1.000000000000000E+20
 30
-1.000000000000000E+20
  9
$LIMMIN
 10
0.0
 20
0.0
  9
$LIMMAX
 10
12.0
 20
9.0
  9
$ORTHOMODE
 70
     0
  9
$REGENMODE
 70
     1
  9
$FILLMODE
 70
     1
  9
$QTEXTMODE
 70
     0
  9
$MIRRTEXT
 70
     1
  9
$DRAGMODE
 70
     2
  9
$LTSCALE
 40
1.0
  9
$OSMODE
 70
    37
  9
$ATTMODE
 70
     1
  9
$TEXTSIZE
 40
0.2
  9
$TRACEWID
 40
0.05
  9
$TEXTSTYLE
  7
STANDARD
  9
$CLAYER
  8
0
  9
$CELTYPE
  6
BYLAYER
  9
$CECOLOR
 62
   256
  9
$CELTSCALE
 40
1.0
  9
$DELOBJ
 70
     1
  9
$DISPSILH
 70
     0
  9
$DIMSCALE
 40
1.0
  9
$DIMASZ
 40
0.18
  9
$DIMEXO
 40
0.0625
  9
$DIMDLI
 40
0.38
  9
$DIMRND
 40
0.0
  9
$DIMDLE
 40
0.0
  9
$DIMEXE
 40
0.18
  9
$DIMTP
 40
0.0
  9
$DIMTM
 40
0.0
  9
$DIMTXT
 40
0.18
  9
$DIMCEN
 40
0.09
  9
$DIMTSZ
 40
0.0
  9
$DIMTOL
 70
     0
  9
$DIMLIM
 70
     0
  9
$DIMTIH
 70
     1
  9
$DIMTOH
 70
     1
  9
$DIMSE1
 70
     0
  9
$DIMSE2
 70
     0
  9
$DIMTAD
 70
     0
  9
$DIMZIN
 70
     0
  9
$DIMBLK
  1

  9
$DIMASO
 70
     1
  9
$DIMSHO
 70
     1
  9
$DIMPOST
  1

  9
$DIMAPOST
  1

  9
$DIMALT
 70
     0
  9
$DIMALTD
 70
     2
  9
$DIMALTF
 40
25.4
  9
$DIMLFAC
 40
1.0
  9
$DIMTOFL
 70
     0
  9
$DIMTVP
 40
0.0
  9
$DIMTIX
 70
     0
  9
$DIMSOXD
 70
     0
  9
$DIMSAH
 70
     0
  9
$DIMBLK1
  1

  9
$DIMBLK2
  1

  9
$DIMSTYLE
  2
STANDARD
  9
$DIMCLRD
 70
     0
  9
$DIMCLRE
 70
     0
  9
$DIMCLRT
 70
     0
  9
$DIMTFAC
 40
1.0
  9
$DIMGAP
 40
0.09
  9
$DIMJUST
 70
     0
  9
$DIMSD1
 70
     0
  9
$DIMSD2
 70
     0
  9
$DIMTOLJ
 70
     1
  9
$DIMTZIN
 70
     0
  9
$DIMALTZ
 70
     0
  9
$DIMALTTZ
 70
     0
  9
$DIMFIT
 70
     3
  9
$DIMUPT
 70
     0
  9
$DIMUNIT
 70
     2
  9
$DIMDEC
 70
     4
  9
$DIMTDEC
 70
     4
  9
$DIMALTU
 70
     2
  9
$DIMALTTD
 70
     2
  9
$DIMTXSTY
  7
STANDARD
  9
$DIMAUNIT
 70
     0
  9
$LUNITS
 70
     2
  9
$LUPREC
 70
     4
  9
$SKETCHINC
 40
0.1
  9
$FILLETRAD
 40
0.5
  9
$AUNITS
 70
     0
  9
$AUPREC
 70
     0
  9
$MENU
  1
.
  9
$ELEVATION
 40
0.0
  9
$PELEVATION
 40
0.0
  9
$THICKNESS
 40
0.0
  9
$LIMCHECK
 70
     0
  9
$CHAMFERA
 40
0.0
  9
$CHAMFERB
 40
0.0
  9
$CHAMFERC
 40
0.0
  9
$CHAMFERD
 40
0.0
  9
$SKPOLY
 70
     0
  9
$TDCREATE
 40
2456913.67147132
  9
$TDUPDATE
 40
2456913.671471817
  9
$TDINDWG
 40
0.0000000116
  9
$TDUSRTIMER
 40
0.0000000116
  9
$USRTIMER
 70
     1
  9
$ANGBASE
 50
0.0
  9
$ANGDIR
 70
     0
  9
$PDMODE
 70
     0
  9
$PDSIZE
 40
0.0
  9
$PLINEWID
 40
0.0
  9
$COORDS
 70
     1
  9
$SPLFRAME
 70
     0
  9
$SPLINETYPE
 70
     6
  9
$SPLINESEGS
 70
     8
  9
$ATTDIA
 70
     0
  9
$ATTREQ
 70
     1
  9
$HANDLING
 70
     1
  9
$HANDSEED
  5
3A4
  9
$SURFTAB1
 70
     6
  9
$SURFTAB2
 70
     6
  9
$SURFTYPE
 70
     6
  9
$SURFU
 70
     6
  9
$SURFV
 70
     6
  9
$UCSNAME
  2

  9
$UCSORG
 10
0.0
 20
0.0
 30
0.0
  9
$UCSXDIR
 10
1.0
 20
0.0
 30
0.0
  9
$UCSYDIR
 10
0.0
 20
1.0
 30
0.0
  9
$PUCSNAME
  2

  9
$PUCSORG
 10
0.0
 20
0.0
 30
0.0
  9
$PUCSXDIR
 10
1.0
 20
0.0
 30
0.0
  9
$PUCSYDIR
 10
0.0
 20
1.0
 30
0.0
  9
$USERI1
 70
     0
  9
$USERI2
 70
     0
  9
$USERI3
 70
     0
  9
$USERI4
 70
     0
  9
$USERI5
 70
     0
  9
$USERR1
 40
0.0
  9
$USERR2
 40
0.0
  9
$USERR3
 40
0.0
  9
$USERR4
 40
0.0
  9
$USERR5
 40
0.0
  9
$WORLDVIEW
 70
     1
  9
$SHADEDGE
 70
     3
  9
$SHADEDIF
 70
    70
  9
$TILEMODE
 70
     1
  9
$MAXACTVP
 70
    64
  9
$PINSBASE
 10
0.0
 20
0.0
 30
0.0
  9
$PLIMCHECK
 70
     0
  9
$PEXTMIN
 10
1.000000000000000E+20
 20
1.000000000000000E+20
 30
1.000000000000000E+20
  9
$PEXTMAX
 10
-1.000000000000000E+20
 20
-1.000000000000000E+20
 30
-1.000000000000000E+20
  9
$PLIMMIN
 10
0.0
 20
0.0
  9
$PLIMMAX
 10
12.0
 20
9.0
  9
$UNITMODE
 70
     0
  9
$VISRETAIN
 70
     1
  9
$PLINEGEN
 70
     0
  9
$PSLTSCALE
 70
     1
  9
$TREEDEPTH
 70
  3020
  9
$PICKSTYLE
 70
     1
  9
$CMLSTYLE
  2
STANDARD
  9
$CMLJUST
 70
     0
  9
$CMLSCALE
 40
1.0
  9
$PROXYGRAPHICS
 70
     1
  9
$MEASUREMENT
 70
     0
  0
ENDSEC
  0
SECTION
  2
CLASSES
  0
CLASS
  1
ACDBDICTIONARYWDFLT
  2
AcDbDictionaryWithDefault
  3
ObjectDBX Classes
 90
        0
280
     0
281
     0
  0
CLASS
  1
VISUALSTYLE
  2
AcDbVisualStyle
  3
ObjectDBX Classes
 90
     4095
280
     0
281
     0
  0
CLASS
  1
MATERIAL
  2
AcDbMaterial
  3
ObjectDBX Classes
 90
     1153
280
     0
281
     0
  0
CLASS
  1
SCALE
  2
AcDbScale
  3
ObjectDBX Classes
 90
     1153
280
     0
281
     0
  0
CLASS
  1
SUN
  2
AcDbSun
  3
SCENEOE
 90
     1153
280
     0
281
     0
  0
CLASS
  1
DICTIONARYVAR
  2
AcDbDictionaryVar
  3
ObjectDBX Classes
 90
        0
280
     0
281
     0
  0
CLASS
  1
XRECORD
  2
AcDbXrecord
  3
ObjectDBX Classes
 90
        0
280
     0
281
     0
  0
CLASS
  1
LWPOLYLINE
  2
AcDbPolyline
  3
ObjectDBX Classes
 90
        0
280
     0
281
     1
  0
CLASS
  1
HATCH
  2
AcDbHatch
  3
ObjectDBX Classes
 90
        0
280
     0
281
     1
  0
CLASS
  1
ACDBPLACEHOLDER
  2
AcDbPlaceHolder
  3
ObjectDBX Classes
 90
        0
280
     0
281
     0
  0
CLASS
  1
LAYOUT
  2
AcDbLayout
  3
ObjectDBX Classes
 90
        0
280
     0
281
     0
  0
ENDSEC
  0
SECTION
  2
TABLES
  0
TABLE
  2
VPORT
  5
8
102
{ACAD_XDICTIONARY
360
39A
102
}
330
0
100
AcDbSymbolTable
 70
     1
  0
VPORT
  5
29
330
8
100
AcDbSymbolTableRecord
100
AcDbViewportTableRecord
  2
*ACTIVE
 70
     0
 10
0.0
 20
0.0
 11
1.0
 21
1.0
 12
0.0
 22
0.0
 13
0.0
 23
0.0
 14
0.5
 24
0.5
 15
0.5
 25
0.5
 16
0.0
 26
0.0
 36
1.0
 17
0.0
 27
0.0
 37
-1000.0
 40
155.7670113189873
 41
2.199770378874856
 42
50.0
 43
500.8303583126126
 44
648.7714607389352
 50
0.0
 51
0.0
 71
     0
 72
   100
 73
     1
 74
     3
 75
     0
 76
     0
 77
     0
 78
     0
  0
ENDTAB
  0
TABLE
  2
LTYPE
  5
5
330
0
100
AcDbSymbolTable
 70
     1
  0
LTYPE
  5
14
330
5
100
AcDbSymbolTableRecord
100
AcDbLinetypeTableRecord
  2
BYBLOCK
 70
     0
  3

 72
    65
 73
     0
 40
0.0
  0
LTYPE
  5
15
330
5
100
AcDbSymbolTableRecord
100
AcDbLinetypeTableRecord
  2
BYLAYER
 70
     0
  3

 72
    65
 73
     0
 40
0.0
  0
LTYPE
  5
16
330
5
100
AcDbSymbolTableRecord
100
AcDbLinetypeTableRecord
  2
CONTINUOUS
 70
     0
  3
Solid line
 72
    65
 73
     0
 40
0.0
  0
ENDTAB
  0
TABLE
  2
LAYER
  5
2
330
0
100
AcDbSymbolTable
 70
     3
  0
LAYER
  5
10
330
2
100
AcDbSymbolTableRecord
100
AcDbLayerTableRecord
  2
0
 70
     0
 62
     7
  6
CONTINUOUS
  0
LAYER
  5
6A
330
2
100
AcDbSymbolTableRecord
100
AcDbLayerTableRecord
  2
PROFILEEDGES
 70
     0
 62
     7
  6
CONTINUOUS
  0
LAYER
  5
6B
330
2
100
AcDbSymbolTableRecord
100
AcDbLayerTableRecord
  2
SECTIONCUTEDGES
 70
     0
 62
     7
  6
CONTINUOUS
  0
ENDTAB
  0
TABLE
  2
STYLE
  5
3
330
0
100
AcDbSymbolTable
 70
     1
  0
STYLE
  5
11
330
3
100
AcDbSymbolTableRecord
100
AcDbTextStyleTableRecord
  2
STANDARD
 70
     0
 40
0.0
 41
1.0
 50
0.0
 71
     0
 42
0.2
  3
txt
  4

  0
ENDTAB
  0
TABLE
  2
VIEW
  5
6
330
0
100
AcDbSymbolTable
 70
     0
  0
ENDTAB
  0
TABLE
  2
UCS
  5
7
330
0
100
AcDbSymbolTable
 70
     0
  0
ENDTAB
  0
TABLE
  2
APPID
  5
9
330
0
100
AcDbSymbolTable
 70
     1
  0
APPID
  5
12
330
9
100
AcDbSymbolTableRecord
100
AcDbRegAppTableRecord
  2
ACAD
 70
     0
  0
ENDTAB
  0
TABLE
  2
DIMSTYLE
  5
A
330
0
100
AcDbSymbolTable
 70
     1
  0
DIMSTYLE
105
27
330
A
100
AcDbSymbolTableRecord
100
AcDbDimStyleTableRecord
  2
STANDARD
 70
     0
  3

  4

  5

  6

  7

 40
1.0
 41
0.18
 42
0.0625
 43
0.38
 44
0.18
 45
0.0
 46
0.0
 47
0.0
 48
0.0
140
0.18
141
0.09
142
0.0
143
25.4
144
1.0
145
0.0
146
1.0
147
0.09
 71
     0
 72
     0
 73
     1
 74
     1
 75
     0
 76
     0
 77
     0
 78
     0
170
     0
171
     2
172
     0
173
     0
174
     0
175
     0
176
     0
177
     0
178
     0
270
     2
271
     4
272
     4
273
     2
274
     2
340
11
275
     0
280
     0
281
     0
282
     0
283
     1
284
     0
285
     0
286
     0
287
     3
288
     0
  0
ENDTAB
  0
TABLE
  2
BLOCK_RECORD
  5
1
330
0
100
AcDbSymbolTable
 70
     1
  0
BLOCK_RECORD
  5
1F
330
1
100
AcDbSymbolTableRecord
100
AcDbBlockTableRecord
  2
*MODEL_SPACE
  0
BLOCK_RECORD
  5
1B
330
1
100
AcDbSymbolTableRecord
100
AcDbBlockTableRecord
  2
*PAPER_SPACE
  0
ENDTAB
  0
ENDSEC
  0
SECTION
  2
BLOCKS
  0
BLOCK
  5
20
330
1F
100
AcDbEntity
  8
0
100
AcDbBlockBegin
  2
*MODEL_SPACE
 70
     0
 10
0.0
 20
0.0
 30
0.0
  3
*MODEL_SPACE
  1

  0
ENDBLK
  5
21
330
1F
100
AcDbEntity
  8
0
100
AcDbBlockEnd
  0
BLOCK
  5
1C
330
1B
100
AcDbEntity
 67
     1
  8
0
100
AcDbBlockBegin
  2
*PAPER_SPACE
 70
     0
 10
0.0
 20
0.0
 30
0.0
  3
*PAPER_SPACE
  1

  0
ENDBLK
  5
1D
330
1B
100
AcDbEntity
 67
     1
  8
0
100
AcDbBlockEnd
  0
ENDSEC
  0
SECTION
  2
ENTITIES
  0
LINE
  5
6C
330
1F
100
AcDbEntity
  8
0
100
AcDbLine
 10
-53.3564419776247
 20
73.34862884956868
 30
0.0
 11
51.58291241978164
 21
74.60784487345106
 31
0.0
  0
LINE
  5
6D
330
1F
100
AcDbEntity
  8
0
100
AcDbLine
 10
-52.80101912402083
 20
29.12690387895822
 30
0.0
 11
-28.08964913015684
 21
29.42342707797201
 31
0.0
  0
LINE
  5
6E
330
1F
100
AcDbEntity
  8
0
100
AcDbLine
 10
-22.09008016609795
 20
29.49541869083557
 30
0.0
 11
21.37912128939052
 21
30.01702581651724
 31
0.0
  0
LINE
  5
6F
330
1F
100
AcDbEntity
  8
0
100
AcDbLine
 10
27.37868930712453
 20
30.0890174180254
 30
0.0
 11
52.11363590204261
 21
30.38582352361896
 31
0.0
  0
LINE
  5
70
330
1F
100
AcDbEntity
  8
0
100
AcDbLine
 10
2.616743752374612
 20
32.0418735527765
 30
0.0
 11
46.08706892447677
 21
32.56349416245542
 31
0.0
  0
LINE
  5
71
330
1F
100
AcDbEntity
  8
0
100
AcDbLine
 10
-46.85314943746155
 20
31.44826134158939
 30
0.0
 11
-3.382824265359394
 21
31.96988195126831
 31
0.0
  0
LINE
  5
72
330
1F
100
AcDbEntity
  8
0
100
AcDbLine
 10
-20.84512812940772
 20
-74.23900683616657
 30
0.0
 11
22.62407332608075
 21
-73.71739971048488
 31
0.0
  0
LINE
  5
73
330
1F
100
AcDbEntity
  8
0
100
AcDbLine
 10
-51.5560670873306
 20
-74.6075216480439
 30
0.0
 11
-26.84469709346661
 21
-74.31099844903012
 31
0.0
  0
LINE
  5
74
330
1F
100
AcDbEntity
  8
0
100
AcDbLine
 10
28.62364134381476
 20
-73.64540810897671
 30
0.0
 11
53.35858793873285
 21
-73.34860200338316
 31
0.0
  0
LINE
  5
75
330
1F
100
AcDbEntity
  8
0
100
AcDbLine
 10
-53.3564419776247
 20
73.34862884956868
 30
0.0
 11
-52.80101912402083
 21
29.12690387895822
 31
0.0
  0
LINE
  5
76
330
1F
100
AcDbEntity
  8
0
100
AcDbLine
 10
-52.80101912402083
 20
29.12690387895822
 30
0.0
 11
-52.74702120435716
 21
24.62757939826897
 31
0.0
  0
LINE
  5
77
330
1F
100
AcDbEntity
  8
0
100
AcDbLine
 10
52.11363590204261
 20
30.38582352361896
 30
0.0
 11
52.16763382170627
 21
25.8864990429297
 31
0.0
  0
LINE
  5
78
330
1F
100
AcDbEntity
  8
0
100
AcDbLine
 10
22.62407332608075
 20
-73.71739971048488
 30
0.0
 11
28.62364134381476
 21
-73.64540810897671
 31
0.0
  0
LINE
  5
79
330
1F
100
AcDbEntity
  8
0
100
AcDbLine
 10
51.58291241978164
 20
74.60784487345106
 30
0.0
 11
52.11363590204261
 21
30.38582352361896
 31
0.0
  0
LINE
  5
7A
330
1F
100
AcDbEntity
  8
0
100
AcDbLine
 10
-26.84469709346661
 20
-74.31099844903012
 30
0.0
 11
-20.84512812940772
 21
-74.23900683616657
 31
0.0
  0
LINE
  5
7B
330
1F
100
AcDbEntity
  8
0
100
AcDbLine
 10
-44.11250901783401
 20
45.14396315071946
 30
0.0
 11
-33.67990066851678
 21
45.26914886088307
 31
0.0
  0
LINE
  5
7C
330
1F
100
AcDbEntity
  8
0
100
AcDbLine
 10
-44.16050716864616
 20
49.14336268910991
 30
0.0
 11
-33.72789881932894
 21
49.26854839927351
 31
0.0
  0
LINE
  5
7D
330
1F
100
AcDbEntity
  8
0
100
AcDbLine
 10
-50.07316496800763
 20
47.07242621841289
 30
0.0
 11
-39.64028692670329
 21
47.19761516473582
 31
0.0
  0
LINE
  5
7E
330
1F
100
AcDbEntity
  8
0
100
AcDbLine
 10
-38.20039060244711
 20
47.2148931490978
 30
0.0
 11
-27.76751256114251
 21
47.34008209542074
 31
0.0
  0
LINE
  5
7F
330
1F
100
AcDbEntity
  8
0
100
AcDbLine
 10
-46.72068846721033
 20
68.34936044260498
 30
0.0
 11
-47.08721868960335
 21
68.13401037271827
 31
0.0
  0
LINE
  5
80
330
1F
100
AcDbEntity
  8
0
100
AcDbLine
 10
-45.91940087883027
 20
68.62818470938711
 30
0.0
 11
-46.3291829409191
 21
68.5150301061196
 31
0.0
  0
LINE
  5
81
330
1F
100
AcDbEntity
  8
0
100
AcDbLine
 10
-42.83398602160235
 20
67.6071302333482
 30
0.0
 11
-43.13687946997078
 21
67.90540688272864
 31
0.0
  0
LINE
  5
82
330
1F
100
AcDbEntity
  8
0
100
AcDbLine
 10
-45.073245834189
 20
68.69013598320578
 30
0.0
 11
-45.49835376563926
 21
68.68688814577325
 31
0.0
  0
LINE
  5
83
330
1F
100
AcDbEntity
  8
0
100
AcDbLine
 10
-47.08721868960335
 20
68.13401037271827
 30
0.0
 11
-47.42250217437159
 21
67.87266459586162
 31
0.0
  0
LINE
  5
84
330
1F
100
AcDbEntity
  8
0
100
AcDbLine
 10
-48.34643650958298
 20
66.46687305083762
 30
0.0
 11
-48.45332512330347
 21
66.05544179818963
 31
0.0
  0
LINE
  5
85
330
1F
100
AcDbEntity
  8
0
100
AcDbLine
 10
-45.49835376563926
 20
68.68688814577325
 30
0.0
 11
-45.91940087883027
 21
68.62818470938711
 31
0.0
  0
LINE
  5
86
330
1F
100
AcDbEntity
  8
0
100
AcDbLine
 10
-47.97701455597281
 20
67.23058320333551
 30
0.0
 11
-48.18675559221674
 21
66.86083377831076
 31
0.0
  0
LINE
  5
87
330
1F
100
AcDbEntity
  8
0
100
AcDbLine
 10
-46.3291829409191
 20
68.5150301061196
 30
0.0
 11
-46.72068846721033
 21
68.34936044260498
 31
0.0
  0
LINE
  5
88
330
1F
100
AcDbEntity
  8
0
100
AcDbLine
 10
-42.07840687922496
 20
66.10414636606654
 30
0.0
 11
-42.19157032327148
 21
66.51389641434866
 31
0.0
  0
LINE
  5
89
330
1F
100
AcDbEntity
  8
0
100
AcDbLine
 10
-42.57261982577748
 20
67.27187294226118
 30
0.0
 11
-42.83398602160235
 21
67.6071302333482
 31
0.0
  0
LINE
  5
8A
330
1F
100
AcDbEntity
  8
0
100
AcDbLine
 10
-42.35725293057124
 20
66.90537135466893
 30
0.0
 11
-42.57261982577748
 21
67.27187294226118
 31
0.0
  0
LINE
  5
8B
330
1F
100
AcDbEntity
  8
0
100
AcDbLine
 10
-47.72080212813245
 20
67.56979481073573
 30
0.0
 11
-47.97701455597281
 21
67.23058320333551
 31
0.0
  0
LINE
  5
8C
330
1F
100
AcDbEntity
  8
0
100
AcDbLine
 10
-47.42250217437159
 20
67.87266459586162
 30
0.0
 11
-47.72080212813245
 21
67.56979481073573
 31
0.0
  0
LINE
  5
8D
330
1F
100
AcDbEntity
  8
0
100
AcDbLine
 10
-48.16479037413887
 20
63.98626579492842
 30
0.0
 11
-47.94942347893262
 21
63.61976420733618
 31
0.0
  0
LINE
  5
8E
330
1F
100
AcDbEntity
  8
0
100
AcDbLine
 10
-44.65135079904888
 20
68.63787265028574
 30
0.0
 11
-45.073245834189
 21
68.69013598320578
 31
0.0
  0
LINE
  5
8F
330
1F
100
AcDbEntity
  8
0
100
AcDbLine
 10
-43.13687946997078
 20
67.90540688272864
 30
0.0
 11
-43.47611758000327
 21
68.16159929423368
 31
0.0
  0
LINE
  5
90
330
1F
100
AcDbEntity
  8
0
100
AcDbLine
 10
-44.2398874012415
 20
68.53099238712952
 30
0.0
 11
-44.65135079904888
 21
68.63787265028574
 31
0.0
  0
LINE
  5
91
330
1F
100
AcDbEntity
  8
0
100
AcDbLine
 10
-45.02368953907084
 20
62.20474900382412
 30
0.0
 11
-44.60264242587983
 21
62.26345244021025
 31
0.0
  0
LINE
  5
92
330
1F
100
AcDbEntity
  8
0
100
AcDbLine
 10
-43.47611758000327
 20
68.16159929423368
 30
0.0
 11
-43.84589589358257
 21
68.37132394467255
 31
0.0
  0
LINE
  5
93
330
1F
100
AcDbEntity
  8
0
100
AcDbLine
 10
-48.18675559221674
 20
66.86083377831076
 30
0.0
 11
-48.34643650958298
 21
66.46687305083762
 31
0.0
  0
LINE
  5
94
330
1F
100
AcDbEntity
  8
0
100
AcDbLine
 10
-42.01645076514789
 20
65.2580574264274
 30
0.0
 11
-42.01969885633427
 21
65.68313214675291
 31
0.0
  0
LINE
  5
95
330
1F
100
AcDbEntity
  8
0
100
AcDbLine
 10
-45.44879747052111
 20
62.20150116639158
 30
0.0
 11
-45.02368953907084
 21
62.20474900382412
 31
0.0
  0
LINE
  5
96
330
1F
100
AcDbEntity
  8
0
100
AcDbLine
 10
-42.80124117657765
 20
63.32184233886159
 30
0.0
 11
-42.54502874873729
 21
63.66105394626184
 31
0.0
  0
LINE
  5
97
330
1F
100
AcDbEntity
  8
0
100
AcDbLine
 10
-46.67614741112753
 20
62.52031320492484
 30
0.0
 11
-46.2821559034686
 21
62.36064476246784
 31
0.0
  0
LINE
  5
98
330
1F
100
AcDbEntity
  8
0
100
AcDbLine
 10
-42.19157032327148
 20
66.51389641434866
 30
0.0
 11
-42.35725293057124
 21
66.90537135466893
 31
0.0
  0
LINE
  5
99
330
1F
100
AcDbEntity
  8
0
100
AcDbLine
 10
-47.94942347893262
 20
63.61976420733618
 30
0.0
 11
-47.68805728310775
 21
63.28450691624916
 31
0.0
  0
LINE
  5
9A
330
1F
100
AcDbEntity
  8
0
100
AcDbLine
 10
-43.84589589358257
 20
68.37132394467255
 30
0.0
 11
-44.2398874012415
 21
68.53099238712952
 31
0.0
  0
LINE
  5
9B
330
1F
100
AcDbEntity
  8
0
100
AcDbLine
 10
-45.87069250566122
 20
62.25376449931162
 30
0.0
 11
-45.44879747052111
 21
62.20150116639158
 31
0.0
  0
LINE
  5
9C
330
1F
100
AcDbEntity
  8
0
100
AcDbLine
 10
-48.5055925395622
 20
65.63357972316996
 30
0.0
 11
-48.50234444837583
 21
65.20850500284445
 31
0.0
  0
LINE
  5
9D
330
1F
100
AcDbEntity
  8
0
100
AcDbLine
 10
-43.09954113033852
 20
63.01897255373576
 30
0.0
 11
-42.80124117657765
 21
63.32184233886159
 31
0.0
  0
LINE
  5
9E
330
1F
100
AcDbEntity
  8
0
100
AcDbLine
 10
-42.54502874873729
 20
63.66105394626184
 30
0.0
 11
-42.33528771249336
 21
64.03080337128658
 31
0.0
  0
LINE
  5
9F
330
1F
100
AcDbEntity
  8
0
100
AcDbLine
 10
-48.44363642548514
 20
64.7874907835308
 30
0.0
 11
-48.33047298143861
 21
64.37774073524868
 31
0.0
  0
LINE
  5
A0
330
1F
100
AcDbEntity
  8
0
100
AcDbLine
 10
-42.33528771249336
 20
64.03080337128658
 30
0.0
 11
-42.17560679512712
 21
64.42476409875977
 31
0.0
  0
LINE
  5
A1
330
1F
100
AcDbEntity
  8
0
100
AcDbLine
 10
-47.38516383473932
 20
62.98623026686872
 30
0.0
 11
-47.04592572470683
 21
62.73003785536368
 31
0.0
  0
LINE
  5
A2
330
1F
100
AcDbEntity
  8
0
100
AcDbLine
 10
-47.68805728310775
 20
63.28450691624916
 30
0.0
 11
-47.38516383473932
 21
62.98623026686872
 31
0.0
  0
LINE
  5
A3
330
1F
100
AcDbEntity
  8
0
100
AcDbLine
 10
-42.01969885633427
 20
65.68313214675291
 30
0.0
 11
-42.07840687922496
 21
66.10414636606654
 31
0.0
  0
LINE
  5
A4
330
1F
100
AcDbEntity
  8
0
100
AcDbLine
 10
-42.17560679512712
 20
64.42476409875977
 30
0.0
 11
-42.06871818140672
 21
64.83619535140774
 31
0.0
  0
LINE
  5
A5
330
1F
100
AcDbEntity
  8
0
100
AcDbLine
 10
-43.43482461510675
 20
62.75762677687906
 30
0.0
 11
-43.09954113033852
 21
63.01897255373576
 31
0.0
  0
LINE
  5
A6
330
1F
100
AcDbEntity
  8
0
100
AcDbLine
 10
-48.45332512330347
 20
66.05544179818963
 30
0.0
 11
-48.5055925395622
 21
65.63357972316996
 31
0.0
  0
LINE
  5
A7
330
1F
100
AcDbEntity
  8
0
100
AcDbLine
 10
-44.60264242587983
 20
62.26345244021025
 30
0.0
 11
-44.19286036379099
 21
62.37660704347776
 31
0.0
  0
LINE
  5
A8
330
1F
100
AcDbEntity
  8
0
100
AcDbLine
 10
-42.06871818140672
 20
64.83619535140774
 30
0.0
 11
-42.01645076514789
 21
65.2580574264274
 31
0.0
  0
LINE
  5
A9
330
1F
100
AcDbEntity
  8
0
100
AcDbLine
 10
-43.80135483749977
 20
62.54227670699239
 30
0.0
 11
-43.43482461510675
 21
62.75762677687906
 31
0.0
  0
LINE
  5
AA
330
1F
100
AcDbEntity
  8
0
100
AcDbLine
 10
-48.33047298143861
 20
64.37774073524868
 30
0.0
 11
-48.16479037413887
 21
63.98626579492842
 31
0.0
  0
LINE
  5
AB
330
1F
100
AcDbEntity
  8
0
100
AcDbLine
 10
-44.19286036379099
 20
62.37660704347776
 30
0.0
 11
-43.80135483749977
 21
62.54227670699239
 31
0.0
  0
LINE
  5
AC
330
1F
100
AcDbEntity
  8
0
100
AcDbLine
 10
-48.50234444837583
 20
65.20850500284445
 30
0.0
 11
-48.44363642548514
 21
64.7874907835308
 31
0.0
  0
LINE
  5
AD
330
1F
100
AcDbEntity
  8
0
100
AcDbLine
 10
-47.04592572470683
 20
62.73003785536368
 30
0.0
 11
-46.67614741112753
 21
62.52031320492484
 31
0.0
  0
LINE
  5
AE
330
1F
100
AcDbEntity
  8
0
100
AcDbLine
 10
-46.2821559034686
 20
62.36064476246784
 30
0.0
 11
-45.87069250566122
 21
62.25376449931162
 31
0.0
  0
LINE
  5
AF
330
1F
100
AcDbEntity
  8
0
100
AcDbLine
 10
49.63649170289465
 20
67.90173857185272
 30
0.0
 11
48.2076806791439
 21
69.18300261174538
 31
0.0
  0
LINE
  5
B0
330
1F
100
AcDbEntity
  8
0
100
AcDbLine
 10
48.2076806791439
 20
69.18300261174538
 30
0.0
 11
47.28612868778013
 21
69.4691961843215
 31
0.0
  0
LINE
  5
B1
330
1F
100
AcDbEntity
  8
0
100
AcDbLine
 10
40.70424178268959
 20
67.23100783841737
 30
0.0
 11
41.73819666749704
 21
66.6524651127099
 31
0.0
  0
LINE
  5
B2
330
1F
100
AcDbEntity
  8
0
100
AcDbLine
 10
47.93297075498971
 20
68.1861816472856
 30
0.0
 11
49.63649170289465
 21
67.90173857185272
 31
0.0
  0
LINE
  5
B3
330
1F
100
AcDbEntity
  8
0
100
AcDbLine
 10
41.50519656275753
 20
66.53416902827531
 30
0.0
 11
40.30866377465451
 21
60.36911805564604
 31
0.0
  0
LINE
  5
B4
330
1F
100
AcDbEntity
  8
0
100
AcDbLine
 10
41.62111574417745
 20
71.99888515665485
 30
0.0
 11
33.83178184020774
 21
72.42020129934122
 31
0.0
  0
LINE
  5
B5
330
1F
100
AcDbEntity
  8
0
100
AcDbLine
 10
43.40955755232194
 20
63.71977191940992
 30
0.0
 11
43.70502062526412
 21
63.90607835057538
 31
0.0
  0
LINE
  5
B6
330
1F
100
AcDbEntity
  8
0
100
AcDbLine
 10
41.50519656275753
 20
66.53416902827531
 30
0.0
 11
43.40955755232194
 21
63.71977191940992
 31
0.0
  0
LINE
  5
B7
330
1F
100
AcDbEntity
  8
0
100
AcDbLine
 10
44.36370768055676
 20
63.120180263092
 30
0.0
 11
43.70502062526412
 21
63.90607835057538
 31
0.0
  0
LINE
  5
B8
330
1F
100
AcDbEntity
  8
0
100
AcDbLine
 10
47.35037808891833
 20
65.8117782139574
 30
0.0
 11
47.93297075498971
 21
68.1861816472856
 31
0.0
  0
LINE
  5
B9
330
1F
100
AcDbEntity
  8
0
100
AcDbLine
 10
43.96349918317112
 20
65.40731157471818
 30
0.0
 11
47.30805144517689
 21
66.08774408317444
 31
0.0
  0
LINE
  5
BA
330
1F
100
AcDbEntity
  8
0
100
AcDbLine
 10
47.28612868778013
 20
69.4691961843215
 30
0.0
 11
45.11523244963571
 21
68.36701417039798
 31
0.0
  0
LINE
  5
BB
330
1F
100
AcDbEntity
  8
0
100
AcDbLine
 10
40.30866377465451
 20
60.36911805564604
 30
0.0
 11
44.36370768055676
 21
63.120180263092
 31
0.0
  0
LINE
  5
BC
330
1F
100
AcDbEntity
  8
0
100
AcDbLine
 10
41.62111574417745
 20
71.99888515665485
 30
0.0
 11
40.70424178268959
 21
67.23100783841737
 31
0.0
  0
LINE
  5
BD
330
1F
100
AcDbEntity
  8
0
100
AcDbLine
 10
33.78508325294053
 20
71.5410310583472
 30
0.0
 11
38.15366035127889
 21
69.15649652815841
 31
0.0
  0
LINE
  5
BE
330
1F
100
AcDbEntity
  8
0
100
AcDbLine
 10
48.2076806791439
 20
69.18300261174538
 30
0.0
 11
47.93297075498971
 21
68.1861816472856
 31
0.0
  0
LINE
  5
BF
330
1F
100
AcDbEntity
  8
0
100
AcDbLine
 10
47.30805144517689
 20
66.08774408317444
 30
0.0
 11
45.11523244963571
 21
68.36701417039798
 31
0.0
  0
LINE
  5
C0
330
1F
100
AcDbEntity
  8
0
100
AcDbLine
 10
34.97782784800215
 20
71.55534335438833
 30
0.0
 11
33.78508325294053
 21
71.5410310583472
 31
0.0
  0
LINE
  5
C1
330
1F
100
AcDbEntity
  8
0
100
AcDbLine
 10
33.83178184020774
 20
72.42020129934122
 30
0.0
 11
34.97782784800215
 21
71.55534335438833
 31
0.0
  0
LINE
  5
C2
330
1F
100
AcDbEntity
  8
0
100
AcDbLine
 10
34.97782784800215
 20
71.55534335438833
 30
0.0
 11
38.15366035127889
 21
69.15649652815841
 31
0.0
  0
LINE
  5
C3
330
1F
100
AcDbEntity
  8
0
100
AcDbLine
 10
43.70502062526412
 20
63.90607835057538
 30
0.0
 11
43.78046075154657
 21
63.94514714836094
 31
0.0
  0
LINE
  5
C4
330
1F
100
AcDbEntity
  8
0
100
AcDbLine
 10
41.73819666749704
 20
66.6524651127099
 30
0.0
 11
41.50519656275753
 21
66.53416902827531
 31
0.0
  0
LINE
  5
C5
330
1F
100
AcDbEntity
  8
0
100
AcDbLine
 10
45.11523244963571
 20
68.36701417039798
 30
0.0
 11
41.73819666749704
 21
66.6524651127099
 31
0.0
  0
LINE
  5
C6
330
1F
100
AcDbEntity
  8
0
100
AcDbLine
 10
45.11523244963571
 20
68.36701417039798
 30
0.0
 11
41.62111574417745
 21
71.99888515665485
 31
0.0
  0
LINE
  5
C7
330
1F
100
AcDbEntity
  8
0
100
AcDbLine
 10
43.78046075154657
 20
63.94514714836094
 30
0.0
 11
47.35037808891833
 21
65.8117782139574
 31
0.0
  0
LINE
  5
C8
330
1F
100
AcDbEntity
  8
0
100
AcDbLine
 10
38.15366035127889
 20
69.15649652815841
 30
0.0
 11
40.70424178268959
 21
67.23100783841737
 31
0.0
  0
LINE
  5
C9
330
1F
100
AcDbEntity
  8
0
100
AcDbLine
 10
41.73819666749704
 20
66.6524651127099
 30
0.0
 11
43.96349918317112
 21
65.40731157471818
 31
0.0
  0
LINE
  5
CA
330
1F
100
AcDbEntity
  8
0
100
AcDbLine
 10
-24.63002263898258
 20
59.03588670582325
 30
0.0
 11
-24.63835229795149
 21
59.72994749090609
 31
0.0
  0
LINE
  5
CB
330
1F
100
AcDbEntity
  8
0
100
AcDbLine
 10
-24.63835229795149
 20
59.72994749090609
 30
0.0
 11
-24.60134115474814
 21
60.41851616100275
 31
0.0
  0
LINE
  5
CC
330
1F
100
AcDbEntity
  8
0
100
AcDbLine
 10
-24.60134115474814
 20
60.41851616100275
 30
0.0
 11
-24.47263436176058
 21
61.01160624468216
 31
0.0
  0
LINE
  5
CD
330
1F
100
AcDbEntity
  8
0
100
AcDbLine
 10
-24.47263436176058
 20
61.01160624468216
 30
0.0
 11
-24.24582193047544
 21
61.54098460503941
 31
0.0
  0
LINE
  5
CE
330
1F
100
AcDbEntity
  8
0
100
AcDbLine
 10
-24.24582193047544
 20
61.54098460503941
 30
0.0
 11
-23.91449387237931
 21
62.03841810516959
 31
0.0
  0
LINE
  5
CF
330
1F
100
AcDbEntity
  8
0
100
AcDbLine
 10
-23.91449387237931
 20
62.03841810516959
 30
0.0
 11
-23.38761854652313
 21
62.58950560043407
 31
0.0
  0
LINE
  5
D0
330
1F
100
AcDbEntity
  8
0
100
AcDbLine
 10
-23.38761854652313
 20
62.58950560043407
 30
0.0
 11
-22.5741643119578
 21
63.27984594619421
 31
0.0
  0
LINE
  5
D1
330
1F
100
AcDbEntity
  8
0
100
AcDbLine
 10
-22.5741643119578
 20
63.27984594619421
 30
0.0
 11
-21.66912315110122
 21
64.07239130631578
 31
0.0
  0
LINE
  5
D2
330
1F
100
AcDbEntity
  8
0
100
AcDbLine
 10
-21.66912315110122
 20
64.07239130631578
 30
0.0
 11
-21.33666035312596
 21
64.53814847604895
 31
0.0
  0
LINE
  5
D3
330
1F
100
AcDbEntity
  8
0
100
AcDbLine
 10
-21.33666035312596
 20
64.53814847604895
 30
0.0
 11
-21.23079291828629
 21
65.0223132539511
 31
0.0
  0
LINE
  5
D4
330
1F
100
AcDbEntity
  8
0
100
AcDbLine
 10
-21.23079291828629
 20
65.0223132539511
 30
0.0
 11
-21.30020909802062
 21
65.39911882811069
 31
0.0
  0
LINE
  5
D5
330
1F
100
AcDbEntity
  8
0
100
AcDbLine
 10
-21.30020909802062
 20
65.39911882811069
 30
0.0
 11
-21.4980998873753
 21
65.6664860526168
 31
0.0
  0
LINE
  5
D6
330
1F
100
AcDbEntity
  8
0
100
AcDbLine
 10
-21.4980998873753
 20
65.6664860526168
 30
0.0
 11
-21.82446528635033
 21
65.8244149274695
 31
0.0
  0
LINE
  5
D7
330
1F
100
AcDbEntity
  8
0
100
AcDbLine
 10
-21.82446528635033
 20
65.8244149274695
 30
0.0
 11
-22.27930529494571
 21
65.87290545266876
 31
0.0
  0
LINE
  5
D8
330
1F
100
AcDbEntity
  8
0
100
AcDbLine
 10
-22.27930529494571
 20
65.87290545266876
 30
0.0
 11
-22.79969386290101
 21
65.81874888741812
 31
0.0
  0
LINE
  5
D9
330
1F
100
AcDbEntity
  8
0
100
AcDbLine
 10
-22.79969386290101
 20
65.81874888741812
 30
0.0
 11
-23.3045975918137
 21
65.66895376939651
 31
0.0
  0
LINE
  5
DA
330
1F
100
AcDbEntity
  8
0
100
AcDbLine
 10
-23.3045975918137
 20
65.66895376939651
 30
0.0
 11
-23.79401648168382
 21
65.42352009860396
 31
0.0
  0
LINE
  5
DB
330
1F
100
AcDbEntity
  8
0
100
AcDbLine
 10
-23.79401648168382
 20
65.42352009860396
 30
0.0
 11
-24.26795053251135
 21
65.0824478750404
 31
0.0
  0
LINE
  5
DC
330
1F
100
AcDbEntity
  8
0
100
AcDbLine
 10
-24.26795053251135
 20
65.0824478750404
 30
0.0
 11
-24.29322923668656
 21
67.18877147498749
 31
0.0
  0
LINE
  5
DD
330
1F
100
AcDbEntity
  8
0
100
AcDbLine
 10
-24.29322923668656
 20
67.18877147498749
 30
0.0
 11
-23.60203566645412
 21
67.50340157859273
 31
0.0
  0
LINE
  5
DE
330
1F
100
AcDbEntity
  8
0
100
AcDbLine
 10
-23.60203566645412
 20
67.50340157859273
 30
0.0
 11
-22.95627942363857
 21
67.70581712273919
 31
0.0
  0
LINE
  5
DF
330
1F
100
AcDbEntity
  8
0
100
AcDbLine
 10
-22.95627942363857
 20
67.70581712273919
 30
0.0
 11
-22.32452616035125
 21
67.81752193386998
 31
0.0
  0
LINE
  5
E0
330
1F
100
AcDbEntity
  8
0
100
AcDbLine
 10
-22.32452616035125
 20
67.81752193386998
 30
0.0
 11
-21.6753415287035
 21
67.86001983842827
 31
0.0
  0
LINE
  5
E1
330
1F
100
AcDbEntity
  8
0
100
AcDbLine
 10
-21.6753415287035
 20
67.86001983842827
 30
0.0
 11
-21.00863951591247
 21
67.82614390439416
 31
0.0
  0
LINE
  5
E2
330
1F
100
AcDbEntity
  8
0
100
AcDbLine
 10
-21.00863951591247
 20
67.82614390439416
 30
0.0
 11
-20.42090663261963
 21
67.70756838121243
 31
0.0
  0
LINE
  5
E3
330
1F
100
AcDbEntity
  8
0
100
AcDbLine
 10
-20.42090663261963
 20
67.70756838121243
 30
0.0
 11
-19.91214287882498
 21
67.50429326888306
 31
0.0
  0
LINE
  5
E4
330
1F
100
AcDbEntity
  8
0
100
AcDbLine
 10
-19.91214287882498
 20
67.50429326888306
 30
0.0
 11
-19.48234825452851
 21
67.21631856740609
 31
0.0
  0
LINE
  5
E5
330
1F
100
AcDbEntity
  8
0
100
AcDbLine
 10
-19.48234825452851
 20
67.21631856740609
 30
0.0
 11
-19.13991250073341
 21
66.85108882978189
 31
0.0
  0
LINE
  5
E6
330
1F
100
AcDbEntity
  8
0
100
AcDbLine
 10
-19.13991250073341
 20
66.85108882978189
 30
0.0
 11
-18.89322535844284
 21
66.41604860901091
 31
0.0
  0
LINE
  5
E7
330
1F
100
AcDbEntity
  8
0
100
AcDbLine
 10
-18.89322535844284
 20
66.41604860901091
 30
0.0
 11
-18.74228682765682
 21
65.91119790509313
 31
0.0
  0
LINE
  5
E8
330
1F
100
AcDbEntity
  8
0
100
AcDbLine
 10
-18.74228682765682
 20
65.91119790509313
 30
0.0
 11
-18.68709690837533
 21
65.33653671802854
 31
0.0
  0
LINE
  5
E9
330
1F
100
AcDbEntity
  8
0
100
AcDbLine
 10
-18.68709690837533
 20
65.33653671802854
 30
0.0
 11
-18.77782041103256
 21
64.47076525410812
 31
0.0
  0
LINE
  5
EA
330
1F
100
AcDbEntity
  8
0
100
AcDbLine
 10
-18.77782041103256
 20
64.47076525410812
 30
0.0
 11
-19.07244478231173
 21
63.7443973264832
 31
0.0
  0
LINE
  5
EB
330
1F
100
AcDbEntity
  8
0
100
AcDbLine
 10
-19.07244478231173
 20
63.7443973264832
 30
0.0
 11
-19.64238536934139
 21
63.07206946480741
 31
0.0
  0
LINE
  5
EC
330
1F
100
AcDbEntity
  8
0
100
AcDbLine
 10
-19.64238536934139
 20
63.07206946480741
 30
0.0
 11
-20.55905751925003
 21
62.36841819873439
 31
0.0
  0
LINE
  5
ED
330
1F
100
AcDbEntity
  8
0
100
AcDbLine
 10
-20.55905751925003
 20
62.36841819873439
 30
0.0
 11
-21.66313464603497
 21
61.56141215303442
 31
0.0
  0
LINE
  5
EE
330
1F
100
AcDbEntity
  8
0
100
AcDbLine
 10
-21.66313464603497
 20
61.56141215303442
 30
0.0
 11
-21.86783510584733
 21
61.32731743751084
 31
0.0
  0
LINE
  5
EF
330
1F
100
AcDbEntity
  8
0
100
AcDbLine
 10
-21.86783510584733
 20
61.32731743751084
 30
0.0
 11
-21.93869209912979
 21
61.13255489885442
 31
0.0
  0
LINE
  5
F0
330
1F
100
AcDbEntity
  8
0
100
AcDbLine
 10
-21.93869209912979
 20
61.13255489885442
 30
0.0
 11
-18.55865377927963
 21
61.17311354759142
 31
0.0
  0
LINE
  5
F1
330
1F
100
AcDbEntity
  8
0
100
AcDbLine
 10
-18.55865377927963
 20
61.17311354759142
 30
0.0
 11
-18.53388209782427
 21
59.10903712586676
 31
0.0
  0
LINE
  5
F2
330
1F
100
AcDbEntity
  8
0
100
AcDbLine
 10
-18.53388209782427
 20
59.10903712586676
 30
0.0
 11
-24.63002263898258
 21
59.03588670582325
 31
0.0
  0
LINE
  5
F3
330
1F
100
AcDbEntity
  8
0
100
AcDbLine
 10
-14.37001332317126
 20
60.2334414166051
 30
0.0
 11
-14.46062832963734
 21
59.73587825395617
 31
0.0
  0
LINE
  5
F4
330
1F
100
AcDbEntity
  8
0
100
AcDbLine
 10
-14.46062832963734
 20
59.73587825395617
 30
0.0
 11
-14.74565593975163
 21
59.34161539979261
 31
0.0
  0
LINE
  5
F5
330
1F
100
AcDbEntity
  8
0
100
AcDbLine
 10
-14.74565593975163
 20
59.34161539979261
 30
0.0
 11
-15.20284223537644
 21
59.08260983587552
 31
0.0
  0
LINE
  5
F6
330
1F
100
AcDbEntity
  8
0
100
AcDbLine
 10
-15.20284223537644
 20
59.08260983587552
 30
0.0
 11
-15.80993329837407
 21
58.99081854396591
 31
0.0
  0
LINE
  5
F7
330
1F
100
AcDbEntity
  8
0
100
AcDbLine
 10
-15.80993329837407
 20
58.99081854396591
 30
0.0
 11
-16.37609277029941
 21
59.0723040708092
 31
0.0
  0
LINE
  5
F8
330
1F
100
AcDbEntity
  8
0
100
AcDbLine
 10
-16.37609277029941
 20
59.0723040708092
 30
0.0
 11
-16.8311999469877
 21
59.33168043998164
 31
0.0
  0
LINE
  5
F9
330
1F
100
AcDbEntity
  8
0
100
AcDbLine
 10
-16.8311999469877
 20
59.33168043998164
 30
0.0
 11
-17.13244300285812
 21
59.722680972989
 31
0.0
  0
LINE
  5
FA
330
1F
100
AcDbEntity
  8
0
100
AcDbLine
 10
-17.13244300285812
 20
59.722680972989
 30
0.0
 11
-17.23701011232987
 21
60.19903899133711
 31
0.0
  0
LINE
  5
FB
330
1F
100
AcDbEntity
  8
0
100
AcDbLine
 10
-17.23701011232987
 20
60.19903899133711
 30
0.0
 11
-17.14545049950458
 21
60.68076851542245
 31
0.0
  0
LINE
  5
FC
330
1F
100
AcDbEntity
  8
0
100
AcDbLine
 10
-17.14545049950458
 20
60.68076851542245
 30
0.0
 11
-16.85802366121543
 21
61.06374232094298
 31
0.0
  0
LINE
  5
FD
330
1F
100
AcDbEntity
  8
0
100
AcDbLine
 10
-16.85802366121543
 20
61.06374232094298
 30
0.0
 11
-16.40452824399263
 21
61.31591289343958
 31
0.0
  0
LINE
  5
FE
330
1F
100
AcDbEntity
  8
0
100
AcDbLine
 10
-16.40452824399263
 20
61.31591289343958
 30
0.0
 11
-15.81476289436638
 21
61.40523271845313
 31
0.0
  0
LINE
  5
FF
330
1F
100
AcDbEntity
  8
0
100
AcDbLine
 10
-15.81476289436638
 20
61.40523271845313
 30
0.0
 11
-15.23509534315162
 21
61.329945461641
 31
0.0
  0
LINE
  5
100
330
1F
100
AcDbEntity
  8
0
100
AcDbLine
 10
-15.23509534315162
 20
61.329945461641
 30
0.0
 11
-14.77567862487918
 21
61.08872934561131
 31
0.0
  0
LINE
  5
101
330
1F
100
AcDbEntity
  8
0
100
AcDbLine
 10
-14.77567862487918
 20
61.08872934561131
 30
0.0
 11
-14.47461664855156
 21
60.71281709054053
 31
0.0
  0
LINE
  5
102
330
1F
100
AcDbEntity
  8
0
100
AcDbLine
 10
-14.47461664855156
 20
60.71281709054053
 30
0.0
 11
-14.37001332317126
 21
60.2334414166051
 31
0.0
  0
LINE
  5
103
330
1F
100
AcDbEntity
  8
0
100
AcDbLine
 10
-13.27067957120046
 20
59.17219273604294
 30
0.0
 11
-13.27900923016937
 21
59.8662535211258
 31
0.0
  0
LINE
  5
104
330
1F
100
AcDbEntity
  8
0
100
AcDbLine
 10
-13.27900923016937
 20
59.8662535211258
 30
0.0
 11
-13.24199808696603
 21
60.55482219122246
 31
0.0
  0
LINE
  5
105
330
1F
100
AcDbEntity
  8
0
100
AcDbLine
 10
-13.24199808696603
 20
60.55482219122246
 30
0.0
 11
-13.11329129397847
 21
61.14791227490186
 31
0.0
  0
LINE
  5
106
330
1F
100
AcDbEntity
  8
0
100
AcDbLine
 10
-13.11329129397847
 20
61.14791227490186
 30
0.0
 11
-12.88647886269333
 21
61.67729063525912
 31
0.0
  0
LINE
  5
107
330
1F
100
AcDbEntity
  8
0
100
AcDbLine
 10
-12.88647886269333
 20
61.67729063525912
 30
0.0
 11
-12.5551508045972
 21
62.17472413538928
 31
0.0
  0
LINE
  5
108
330
1F
100
AcDbEntity
  8
0
100
AcDbLine
 10
-12.5551508045972
 20
62.17472413538928
 30
0.0
 11
-12.02827547874102
 21
62.72581163065377
 31
0.0
  0
LINE
  5
109
330
1F
100
AcDbEntity
  8
0
100
AcDbLine
 10
-12.02827547874102
 20
62.72581163065377
 30
0.0
 11
-11.21482124417569
 21
63.41615197641391
 31
0.0
  0
LINE
  5
10A
330
1F
100
AcDbEntity
  8
0
100
AcDbLine
 10
-11.21482124417569
 20
63.41615197641391
 30
0.0
 11
-10.3097800833191
 21
64.20869733653548
 31
0.0
  0
LINE
  5
10B
330
1F
100
AcDbEntity
  8
0
100
AcDbLine
 10
-10.3097800833191
 20
64.20869733653548
 30
0.0
 11
-9.977317285343842
 21
64.67445450626863
 31
0.0
  0
LINE
  5
10C
330
1F
100
AcDbEntity
  8
0
100
AcDbLine
 10
-9.977317285343842
 20
64.67445450626863
 30
0.0
 11
-9.871449850504183
 21
65.15861928417081
 31
0.0
  0
LINE
  5
10D
330
1F
100
AcDbEntity
  8
0
100
AcDbLine
 10
-9.871449850504183
 20
65.15861928417081
 30
0.0
 11
-9.940866030238507
 21
65.53542485833037
 31
0.0
  0
LINE
  5
10E
330
1F
100
AcDbEntity
  8
0
100
AcDbLine
 10
-9.940866030238507
 20
65.53542485833037
 30
0.0
 11
-10.13875681959319
 21
65.80279208283652
 31
0.0
  0
LINE
  5
10F
330
1F
100
AcDbEntity
  8
0
100
AcDbLine
 10
-10.13875681959319
 20
65.80279208283652
 30
0.0
 11
-10.46512221856822
 21
65.9607209576892
 31
0.0
  0
LINE
  5
110
330
1F
100
AcDbEntity
  8
0
100
AcDbLine
 10
-10.46512221856822
 20
65.9607209576892
 30
0.0
 11
-10.9199622271636
 21
66.00921148288846
 31
0.0
  0
LINE
  5
111
330
1F
100
AcDbEntity
  8
0
100
AcDbLine
 10
-10.9199622271636
 20
66.00921148288846
 30
0.0
 11
-11.44035079511889
 21
65.95505491763782
 31
0.0
  0
LINE
  5
112
330
1F
100
AcDbEntity
  8
0
100
AcDbLine
 10
-11.44035079511889
 20
65.95505491763782
 30
0.0
 11
-11.94525452403159
 21
65.80525979961622
 31
0.0
  0
LINE
  5
113
330
1F
100
AcDbEntity
  8
0
100
AcDbLine
 10
-11.94525452403159
 20
65.80525979961622
 30
0.0
 11
-12.43467341390171
 21
65.55982612882364
 31
0.0
  0
LINE
  5
114
330
1F
100
AcDbEntity
  8
0
100
AcDbLine
 10
-12.43467341390171
 20
65.55982612882364
 30
0.0
 11
-12.90860746472924
 21
65.2187539052601
 31
0.0
  0
LINE
  5
115
330
1F
100
AcDbEntity
  8
0
100
AcDbLine
 10
-12.90860746472924
 20
65.2187539052601
 30
0.0
 11
-12.93388616890445
 21
67.32507750520718
 31
0.0
  0
LINE
  5
116
330
1F
100
AcDbEntity
  8
0
100
AcDbLine
 10
-12.93388616890445
 20
67.32507750520718
 30
0.0
 11
-12.242692598672
 21
67.63970760881243
 31
0.0
  0
LINE
  5
117
330
1F
100
AcDbEntity
  8
0
100
AcDbLine
 10
-12.242692598672
 20
67.63970760881243
 30
0.0
 11
-11.59693635585646
 21
67.84212315295888
 31
0.0
  0
LINE
  5
118
330
1F
100
AcDbEntity
  8
0
100
AcDbLine
 10
-11.59693635585646
 20
67.84212315295888
 30
0.0
 11
-10.96518309256914
 21
67.95382796408967
 31
0.0
  0
LINE
  5
119
330
1F
100
AcDbEntity
  8
0
100
AcDbLine
 10
-10.96518309256914
 20
67.95382796408967
 30
0.0
 11
-10.31599846092138
 21
67.99632586864796
 31
0.0
  0
LINE
  5
11A
330
1F
100
AcDbEntity
  8
0
100
AcDbLine
 10
-10.31599846092138
 20
67.99632586864796
 30
0.0
 11
-9.64929644813036
 21
67.96244993461384
 31
0.0
  0
LINE
  5
11B
330
1F
100
AcDbEntity
  8
0
100
AcDbLine
 10
-9.64929644813036
 20
67.96244993461384
 30
0.0
 11
-9.061563564837517
 21
67.84387441143211
 31
0.0
  0
LINE
  5
11C
330
1F
100
AcDbEntity
  8
0
100
AcDbLine
 10
-9.061563564837517
 20
67.84387441143211
 30
0.0
 11
-8.552799811042865
 21
67.64059929910276
 31
0.0
  0
LINE
  5
11D
330
1F
100
AcDbEntity
  8
0
100
AcDbLine
 10
-8.552799811042865
 20
67.64059929910276
 30
0.0
 11
-8.123005186746399
 21
67.35262459762578
 31
0.0
  0
LINE
  5
11E
330
1F
100
AcDbEntity
  8
0
100
AcDbLine
 10
-8.123005186746399
 20
67.35262459762578
 30
0.0
 11
-7.780569432951298
 21
66.9873948600016
 31
0.0
  0
LINE
  5
11F
330
1F
100
AcDbEntity
  8
0
100
AcDbLine
 10
-7.780569432951298
 20
66.9873948600016
 30
0.0
 11
-7.533882290660729
 21
66.5523546392306
 31
0.0
  0
LINE
  5
120
330
1F
100
AcDbEntity
  8
0
100
AcDbLine
 10
-7.533882290660729
 20
66.5523546392306
 30
0.0
 11
-7.382943759874705
 21
66.04750393531283
 31
0.0
  0
LINE
  5
121
330
1F
100
AcDbEntity
  8
0
100
AcDbLine
 10
-7.382943759874705
 20
66.04750393531283
 30
0.0
 11
-7.32775384059322
 21
65.47284274824825
 31
0.0
  0
LINE
  5
122
330
1F
100
AcDbEntity
  8
0
100
AcDbLine
 10
-7.32775384059322
 20
65.47284274824825
 30
0.0
 11
-7.418477343250446
 21
64.60707128432782
 31
0.0
  0
LINE
  5
123
330
1F
100
AcDbEntity
  8
0
100
AcDbLine
 10
-7.418477343250446
 20
64.60707128432782
 30
0.0
 11
-7.71310171452962
 21
63.88070335670289
 31
0.0
  0
LINE
  5
124
330
1F
100
AcDbEntity
  8
0
100
AcDbLine
 10
-7.71310171452962
 20
63.88070335670289
 30
0.0
 11
-8.283042301559274
 21
63.20837549502711
 31
0.0
  0
LINE
  5
125
330
1F
100
AcDbEntity
  8
0
100
AcDbLine
 10
-8.283042301559274
 20
63.20837549502711
 30
0.0
 11
-9.19971445146792
 21
62.50472422895409
 31
0.0
  0
LINE
  5
126
330
1F
100
AcDbEntity
  8
0
100
AcDbLine
 10
-9.19971445146792
 20
62.50472422895409
 30
0.0
 11
-10.30379157825286
 21
61.69771818325412
 31
0.0
  0
LINE
  5
127
330
1F
100
AcDbEntity
  8
0
100
AcDbLine
 10
-10.30379157825286
 20
61.69771818325412
 30
0.0
 11
-10.50849203806521
 21
61.46362346773053
 31
0.0
  0
LINE
  5
128
330
1F
100
AcDbEntity
  8
0
100
AcDbLine
 10
-10.50849203806521
 20
61.46362346773053
 30
0.0
 11
-10.57934903134767
 21
61.26886092907412
 31
0.0
  0
LINE
  5
129
330
1F
100
AcDbEntity
  8
0
100
AcDbLine
 10
-10.57934903134767
 20
61.26886092907412
 30
0.0
 11
-7.199310711497522
 21
61.30941957781111
 31
0.0
  0
LINE
  5
12A
330
1F
100
AcDbEntity
  8
0
100
AcDbLine
 10
-7.199310711497522
 20
61.30941957781111
 30
0.0
 11
-7.174539030042156
 21
59.24534315608646
 31
0.0
  0
LINE
  5
12B
330
1F
100
AcDbEntity
  8
0
100
AcDbLine
 10
-7.174539030042156
 20
59.24534315608646
 30
0.0
 11
-13.27067957120046
 21
59.17219273604294
 31
0.0
  0
LINE
  5
12C
330
1F
100
AcDbEntity
  8
0
100
AcDbLine
 10
0.1358791016142392
 20
62.26061171062821
 30
0.0
 11
0.0411025614694108
 21
61.41818181116044
 31
0.0
  0
LINE
  5
12D
330
1F
100
AcDbEntity
  8
0
100
AcDbLine
 10
0.0411025614694108
 20
61.41818181116044
 30
0.0
 11
-0.2645220131986485
 21
60.66527359809939
 31
0.0
  0
LINE
  5
12E
330
1F
100
AcDbEntity
  8
0
100
AcDbLine
 10
-0.2645220131986485
 20
60.66527359809939
 30
0.0
 11
-0.7693033240017755
 21
60.0337173074288
 31
0.0
  0
LINE
  5
12F
330
1F
100
AcDbEntity
  8
0
100
AcDbLine
 10
-0.7693033240017755
 20
60.0337173074288
 30
0.0
 11
-1.461550072551827
 21
59.5553431751324
 31
0.0
  0
LINE
  5
130
330
1F
100
AcDbEntity
  8
0
100
AcDbLine
 10
-1.461550072551827
 20
59.5553431751324
 30
0.0
 11
-2.319627003893273
 21
59.250782921249
 31
0.0
  0
LINE
  5
131
330
1F
100
AcDbEntity
  8
0
100
AcDbLine
 10
-2.319627003893273
 20
59.250782921249
 30
0.0
 11
-3.321898863070568
 21
59.14066826581742
 31
0.0
  0
LINE
  5
132
330
1F
100
AcDbEntity
  8
0
100
AcDbLine
 10
-3.321898863070568
 20
59.14066826581742
 30
0.0
 11
-4.569519334406365
 21
59.22831255406442
 31
0.0
  0
LINE
  5
133
330
1F
100
AcDbEntity
  8
0
100
AcDbLine
 10
-4.569519334406365
 20
59.22831255406442
 30
0.0
 11
-5.637949551566767
 21
59.47504771760566
 31
0.0
  0
LINE
  5
134
330
1F
100
AcDbEntity
  8
0
100
AcDbLine
 10
-5.637949551566767
 20
59.47504771760566
 30
0.0
 11
-5.661996914850925
 21
61.47877102758397
 31
0.0
  0
LINE
  5
135
330
1F
100
AcDbEntity
  8
0
100
AcDbLine
 10
-5.661996914850925
 20
61.47877102758397
 30
0.0
 11
-4.72663152218637
 21
61.12782409204825
 31
0.0
  0
LINE
  5
136
330
1F
100
AcDbEntity
  8
0
100
AcDbLine
 10
-4.72663152218637
 20
61.12782409204825
 30
0.0
 11
-3.742859249137501
 21
61.01890522584478
 31
0.0
  0
LINE
  5
137
330
1F
100
AcDbEntity
  8
0
100
AcDbLine
 10
-3.742859249137501
 20
61.01890522584478
 30
0.0
 11
-3.160376062566709
 21
61.0862565151522
 31
0.0
  0
LINE
  5
138
330
1F
100
AcDbEntity
  8
0
100
AcDbLine
 10
-3.160376062566709
 20
61.0862565151522
 30
0.0
 11
-2.740798699938324
 21
61.27237662821353
 31
0.0
  0
LINE
  5
139
330
1F
100
AcDbEntity
  8
0
100
AcDbLine
 10
-2.740798699938324
 20
61.27237662821353
 30
0.0
 11
-2.488527242607889
 21
61.56664945085429
 31
0.0
  0
LINE
  5
13A
330
1F
100
AcDbEntity
  8
0
100
AcDbLine
 10
-2.488527242607889
 20
61.56664945085429
 30
0.0
 11
-2.407961771930968
 21
61.95845886890004
 31
0.0
  0
LINE
  5
13B
330
1F
100
AcDbEntity
  8
0
100
AcDbLine
 10
-2.407961771930968
 20
61.95845886890004
 30
0.0
 11
-2.511804563231502
 21
62.37446377550181
 31
0.0
  0
LINE
  5
13C
330
1F
100
AcDbEntity
  8
0
100
AcDbLine
 10
-2.511804563231502
 20
62.37446377550181
 30
0.0
 11
-2.811888710027989
 21
62.66889932971505
 31
0.0
  0
LINE
  5
13D
330
1F
100
AcDbEntity
  8
0
100
AcDbLine
 10
-2.811888710027989
 20
62.66889932971505
 30
0.0
 11
-3.308214212320432
 21
62.84176553153974
 31
0.0
  0
LINE
  5
13E
330
1F
100
AcDbEntity
  8
0
100
AcDbLine
 10
-3.308214212320432
 20
62.84176553153974
 30
0.0
 11
-4.000781070108826
 21
62.89306238097588
 31
0.0
  0
LINE
  5
13F
330
1F
100
AcDbEntity
  8
0
100
AcDbLine
 10
-4.000781070108826
 20
62.89306238097588
 30
0.0
 11
-4.76234593889661
 21
62.846197883629
 31
0.0
  0
LINE
  5
140
330
1F
100
AcDbEntity
  8
0
100
AcDbLine
 10
-4.76234593889661
 20
62.846197883629
 30
0.0
 11
-5.465665474187205
 21
62.72458004510453
 31
0.0
  0
LINE
  5
141
330
1F
100
AcDbEntity
  8
0
100
AcDbLine
 10
-5.465665474187205
 20
62.72458004510453
 30
0.0
 11
-5.202097002171371
 21
67.92489397902074
 31
0.0
  0
LINE
  5
142
330
1F
100
AcDbEntity
  8
0
100
AcDbLine
 10
-5.202097002171371
 20
67.92489397902074
 30
0.0
 11
-0.3131130038166887
 21
67.98355916737248
 31
0.0
  0
LINE
  5
143
330
1F
100
AcDbEntity
  8
0
100
AcDbLine
 10
-0.3131130038166887
 20
67.98355916737248
 30
0.0
 11
-0.2890656405325306
 21
65.97983585739416
 31
0.0
  0
LINE
  5
144
330
1F
100
AcDbEntity
  8
0
100
AcDbLine
 10
-0.2890656405325306
 20
65.97983585739416
 30
0.0
 11
-3.186241343261233
 21
65.94507130133388
 31
0.0
  0
LINE
  5
145
330
1F
100
AcDbEntity
  8
0
100
AcDbLine
 10
-3.186241343261233
 20
65.94507130133388
 30
0.0
 11
-3.256183506016175
 21
64.73095978901411
 31
0.0
  0
LINE
  5
146
330
1F
100
AcDbEntity
  8
0
100
AcDbLine
 10
-3.256183506016175
 20
64.73095978901411
 30
0.0
 11
-2.598717781090925
 21
64.77506610733394
 31
0.0
  0
LINE
  5
147
330
1F
100
AcDbEntity
  8
0
100
AcDbLine
 10
-2.598717781090925
 20
64.77506610733394
 30
0.0
 11
-1.998775297102297
 21
64.73944594155084
 31
0.0
  0
LINE
  5
148
330
1F
100
AcDbEntity
  8
0
100
AcDbLine
 10
-1.998775297102297
 20
64.73944594155084
 30
0.0
 11
-1.466462215080225
 21
64.61737595092514
 31
0.0
  0
LINE
  5
149
330
1F
100
AcDbEntity
  8
0
100
AcDbLine
 10
-1.466462215080225
 20
64.61737595092514
 30
0.0
 11
-1.001778535024704
 21
64.40885613545689
 31
0.0
  0
LINE
  5
14A
330
1F
100
AcDbEntity
  8
0
100
AcDbLine
 10
-1.001778535024704
 20
64.40885613545689
 30
0.0
 11
-0.604724256935734
 21
64.11388649514603
 31
0.0
  0
LINE
  5
14B
330
1F
100
AcDbEntity
  8
0
100
AcDbLine
 10
-0.604724256935734
 20
64.11388649514603
 30
0.0
 11
-0.2860068641970884
 21
63.74441090656455
 31
0.0
  0
LINE
  5
14C
330
1F
100
AcDbEntity
  8
0
100
AcDbLine
 10
-0.2860068641970884
 20
63.74441090656455
 30
0.0
 11
-0.0563338401925443
 21
63.31237324628443
 31
0.0
  0
LINE
  5
14D
330
1F
100
AcDbEntity
  8
0
100
AcDbLine
 10
-0.0563338401925443
 20
63.31237324628443
 30
0.0
 11
0.0842948150778982
 21
62.81777351430564
 31
0.0
  0
LINE
  5
14E
330
1F
100
AcDbEntity
  8
0
100
AcDbLine
 10
0.0842948150778982
 20
62.81777351430564
 30
0.0
 11
0.1358791016142392
 21
62.26061171062821
 31
0.0
  0
LINE
  5
14F
330
1F
100
AcDbEntity
  8
0
100
AcDbLine
 10
9.629080045784308
 20
59.44697758123611
 30
0.0
 11
9.586345273682944
 21
63.00781117426986
 31
0.0
  0
LINE
  5
150
330
1F
100
AcDbEntity
  8
0
100
AcDbLine
 10
9.586345273682944
 20
63.00781117426986
 30
0.0
 11
9.54167730702113
 21
63.39736333563076
 31
0.0
  0
LINE
  5
151
330
1F
100
AcDbEntity
  8
0
100
AcDbLine
 10
9.54167730702113
 20
63.39736333563076
 30
0.0
 11
9.418393315969597
 21
63.6727937658677
 31
0.0
  0
LINE
  5
152
330
1F
100
AcDbEntity
  8
0
100
AcDbLine
 10
9.418393315969597
 20
63.6727937658677
 30
0.0
 11
9.205912572824527
 21
63.83548454699704
 31
0.0
  0
LINE
  5
153
330
1F
100
AcDbEntity
  8
0
100
AcDbLine
 10
9.205912572824527
 20
63.83548454699704
 30
0.0
 11
8.893654349882112
 21
63.88681776103513
 31
0.0
  0
LINE
  5
154
330
1F
100
AcDbEntity
  8
0
100
AcDbLine
 10
8.893654349882112
 20
63.88681776103513
 30
0.0
 11
8.577581561361633
 21
63.81587255089823
 31
0.0
  0
LINE
  5
155
330
1F
100
AcDbEntity
  8
0
100
AcDbLine
 10
8.577581561361633
 20
63.81587255089823
 30
0.0
 11
8.341585556054328
 21
63.61158320718571
 31
0.0
  0
LINE
  5
156
330
1F
100
AcDbEntity
  8
0
100
AcDbLine
 10
8.341585556054328
 20
63.61158320718571
 30
0.0
 11
8.196047874166936
 21
63.28916475361145
 31
0.0
  0
LINE
  5
157
330
1F
100
AcDbEntity
  8
0
100
AcDbLine
 10
8.196047874166936
 20
63.28916475361145
 30
0.0
 11
8.15135005590617
 21
62.86383221388934
 31
0.0
  0
LINE
  5
158
330
1F
100
AcDbEntity
  8
0
100
AcDbLine
 10
8.15135005590617
 20
62.86383221388934
 30
0.0
 11
8.192563759847992
 21
59.42974015552288
 31
0.0
  0
LINE
  5
159
330
1F
100
AcDbEntity
  8
0
100
AcDbLine
 10
8.192563759847992
 20
59.42974015552288
 30
0.0
 11
5.621320323676272
 21
59.39888661201939
 31
0.0
  0
LINE
  5
15A
330
1F
100
AcDbEntity
  8
0
100
AcDbLine
 10
5.621320323676272
 20
59.39888661201939
 30
0.0
 11
5.579309869746119
 21
62.8993670933068
 31
0.0
  0
LINE
  5
15B
330
1F
100
AcDbEntity
  8
0
100
AcDbLine
 10
5.579309869746119
 20
62.8993670933068
 30
0.0
 11
5.533970412407628
 21
63.31343317967973
 31
0.0
  0
LINE
  5
15C
330
1F
100
AcDbEntity
  8
0
100
AcDbLine
 10
5.533970412407628
 20
63.31343317967973
 30
0.0
 11
5.409323835680142
 21
63.60808758438112
 31
0.0
  0
LINE
  5
15D
330
1F
100
AcDbEntity
  8
0
100
AcDbLine
 10
5.409323835680142
 20
63.60808758438112
 30
0.0
 11
5.205370139563663
 21
63.78333030741091
 31
0.0
  0
LINE
  5
15E
330
1F
100
AcDbEntity
  8
0
100
AcDbLine
 10
5.205370139563663
 20
63.78333030741091
 30
0.0
 11
4.922109324058184
 21
63.83916134876915
 31
0.0
  0
LINE
  5
15F
330
1F
100
AcDbEntity
  8
0
100
AcDbLine
 10
4.922109324058184
 20
63.83916134876915
 30
0.0
 11
4.578893621278911
 21
63.76638139312554
 31
0.0
  0
LINE
  5
160
330
1F
100
AcDbEntity
  8
0
100
AcDbLine
 10
4.578893621278911
 20
63.76638139312554
 30
0.0
 11
4.333898265763412
 21
63.55745692679435
 31
0.0
  0
LINE
  5
161
330
1F
100
AcDbEntity
  8
0
100
AcDbLine
 10
4.333898265763412
 20
63.55745692679435
 30
0.0
 11
4.188523555464543
 21
63.22145902307716
 31
0.0
  0
LINE
  5
162
330
1F
100
AcDbEntity
  8
0
100
AcDbLine
 10
4.188523555464543
 20
63.22145902307716
 30
0.0
 11
4.144169788335096
 21
62.76745875527554
 31
0.0
  0
LINE
  5
163
330
1F
100
AcDbEntity
  8
0
100
AcDbLine
 10
4.144169788335096
 20
62.76745875527554
 30
0.0
 11
4.184804037739952
 21
59.38164918630616
 31
0.0
  0
LINE
  5
164
330
1F
100
AcDbEntity
  8
0
100
AcDbLine
 10
4.184804037739952
 20
59.38164918630616
 30
0.0
 11
1.613560601568237
 21
59.35079564280266
 31
0.0
  0
LINE
  5
165
330
1F
100
AcDbEntity
  8
0
100
AcDbLine
 10
1.613560601568237
 20
59.35079564280266
 30
0.0
 11
1.53939042083638
 21
65.53095428562735
 31
0.0
  0
LINE
  5
166
330
1F
100
AcDbEntity
  8
0
100
AcDbLine
 10
1.53939042083638
 20
65.53095428562735
 30
0.0
 11
4.110633857008096
 21
65.56180782913084
 31
0.0
  0
LINE
  5
167
330
1F
100
AcDbEntity
  8
0
100
AcDbLine
 10
4.110633857008096
 20
65.56180782913084
 30
0.0
 11
4.122367811381689
 21
64.58408741884023
 31
0.0
  0
LINE
  5
168
330
1F
100
AcDbEntity
  8
0
100
AcDbLine
 10
4.146510942237765
 20
64.58437712347406
 30
0.0
 11
4.601910535862067
 21
65.11800745237659
 31
0.0
  0
LINE
  5
169
330
1F
100
AcDbEntity
  8
0
100
AcDbLine
 10
4.601910535862067
 20
65.11800745237659
 30
0.0
 11
5.31193569664051
 21
65.56113235672758
 31
0.0
  0
LINE
  5
16A
330
1F
100
AcDbEntity
  8
0
100
AcDbLine
 10
5.31193569664051
 20
65.56113235672758
 30
0.0
 11
5.725401852001136
 21
65.69058994809845
 31
0.0
  0
LINE
  5
16B
330
1F
100
AcDbEntity
  8
0
100
AcDbLine
 10
5.725401852001136
 20
65.69058994809845
 30
0.0
 11
6.173060749774278
 21
65.73746035468963
 31
0.0
  0
LINE
  5
16C
330
1F
100
AcDbEntity
  8
0
100
AcDbLine
 10
6.173060749774278
 20
65.73746035468963
 30
0.0
 11
6.779681081727892
 21
65.67985053521764
 31
0.0
  0
LINE
  5
16D
330
1F
100
AcDbEntity
  8
0
100
AcDbLine
 10
6.779681081727892
 20
65.67985053521764
 30
0.0
 11
7.283741445932803
 21
65.4912321742576
 31
0.0
  0
LINE
  5
16E
330
1F
100
AcDbEntity
  8
0
100
AcDbLine
 10
7.283741445932803
 20
65.4912321742576
 30
0.0
 11
7.700458054854007
 21
65.16122454265007
 31
0.0
  0
LINE
  5
16F
330
1F
100
AcDbEntity
  8
0
100
AcDbLine
 10
7.700458054854007
 20
65.16122454265007
 30
0.0
 11
8.045047120956504
 21
64.67944691123559
 31
0.0
  0
LINE
  5
170
330
1F
100
AcDbEntity
  8
0
100
AcDbLine
 10
8.045047120956504
 20
64.67944691123559
 30
0.0
 11
8.419787559861318
 21
65.14344782238749
 31
0.0
  0
LINE
  5
171
330
1F
100
AcDbEntity
  8
0
100
AcDbLine
 10
8.419787559861318
 20
65.14344782238749
 30
0.0
 11
8.904602616006592
 21
65.4895550086926
 31
0.0
  0
LINE
  5
172
330
1F
100
AcDbEntity
  8
0
100
AcDbLine
 10
8.904602616006592
 20
65.4895550086926
 30
0.0
 11
9.475475914216224
 21
65.70691697096154
 31
0.0
  0
LINE
  5
173
330
1F
100
AcDbEntity
  8
0
100
AcDbLine
 10
9.475475914216224
 20
65.70691697096154
 30
0.0
 11
10.10839107931409
 21
65.78468221000485
 31
0.0
  0
LINE
  5
174
330
1F
100
AcDbEntity
  8
0
100
AcDbLine
 10
10.10839107931409
 20
65.78468221000485
 30
0.0
 11
10.56645419012045
 21
65.75056628855948
 31
0.0
  0
LINE
  5
175
330
1F
100
AcDbEntity
  8
0
100
AcDbLine
 10
10.56645419012045
 20
65.75056628855948
 30
0.0
 11
10.96888250558259
 21
65.63655791271151
 31
0.0
  0
LINE
  5
176
330
1F
100
AcDbEntity
  8
0
100
AcDbLine
 10
10.96888250558259
 20
65.63655791271151
 30
0.0
 11
11.31567602570053
 21
65.44265708246091
 31
0.0
  0
LINE
  5
177
330
1F
100
AcDbEntity
  8
0
100
AcDbLine
 10
11.31567602570053
 20
65.44265708246091
 30
0.0
 11
11.60683475047427
 21
65.16886379780769
 31
0.0
  0
LINE
  5
178
330
1F
100
AcDbEntity
  8
0
100
AcDbLine
 10
11.60683475047427
 20
65.16886379780769
 30
0.0
 11
11.83815475542507
 21
64.81965474914888
 31
0.0
  0
LINE
  5
179
330
1F
100
AcDbEntity
  8
0
100
AcDbLine
 10
11.83815475542507
 20
64.81965474914888
 30
0.0
 11
12.0054321160742
 21
64.39950662688155
 31
0.0
  0
LINE
  5
17A
330
1F
100
AcDbEntity
  8
0
100
AcDbLine
 10
12.0054321160742
 20
64.39950662688155
 30
0.0
 11
12.10866683242167
 21
63.90841943100565
 31
0.0
  0
LINE
  5
17B
330
1F
100
AcDbEntity
  8
0
100
AcDbLine
 10
12.10866683242167
 20
63.90841943100565
 30
0.0
 11
12.14785890446748
 21
63.34639316152122
 31
0.0
  0
LINE
  5
17C
330
1F
100
AcDbEntity
  8
0
100
AcDbLine
 10
12.14785890446748
 20
63.34639316152122
 30
0.0
 11
12.19428769924201
 21
59.47775869858116
 31
0.0
  0
LINE
  5
17D
330
1F
100
AcDbEntity
  8
0
100
AcDbLine
 10
12.19428769924201
 20
59.47775869858116
 30
0.0
 11
9.629080045784308
 21
59.44697758123611
 31
0.0
  0
LINE
  5
17E
330
1F
100
AcDbEntity
  8
0
100
AcDbLine
 10
21.37471320726358
 20
59.58791888559718
 30
0.0
 11
21.33197843516222
 21
63.14875247863093
 31
0.0
  0
LINE
  5
17F
330
1F
100
AcDbEntity
  8
0
100
AcDbLine
 10
21.33197843516222
 20
63.14875247863093
 30
0.0
 11
21.2873104685004
 21
63.53830463999183
 31
0.0
  0
LINE
  5
180
330
1F
100
AcDbEntity
  8
0
100
AcDbLine
 10
21.2873104685004
 20
63.53830463999183
 30
0.0
 11
21.16402647744887
 21
63.81373507022876
 31
0.0
  0
LINE
  5
181
330
1F
100
AcDbEntity
  8
0
100
AcDbLine
 10
21.16402647744887
 20
63.81373507022876
 30
0.0
 11
20.9515457343038
 21
63.9764258513581
 31
0.0
  0
LINE
  5
182
330
1F
100
AcDbEntity
  8
0
100
AcDbLine
 10
20.9515457343038
 20
63.9764258513581
 30
0.0
 11
20.63928751136139
 21
64.0277590653962
 31
0.0
  0
LINE
  5
183
330
1F
100
AcDbEntity
  8
0
100
AcDbLine
 10
20.63928751136139
 20
64.0277590653962
 30
0.0
 11
20.32321472284091
 21
63.95681385525931
 31
0.0
  0
LINE
  5
184
330
1F
100
AcDbEntity
  8
0
100
AcDbLine
 10
20.32321472284091
 20
63.95681385525931
 30
0.0
 11
20.0872187175336
 21
63.75252451154678
 31
0.0
  0
LINE
  5
185
330
1F
100
AcDbEntity
  8
0
100
AcDbLine
 10
20.0872187175336
 20
63.75252451154678
 30
0.0
 11
19.94168103564621
 21
63.43010605797252
 31
0.0
  0
LINE
  5
186
330
1F
100
AcDbEntity
  8
0
100
AcDbLine
 10
19.94168103564621
 20
63.43010605797252
 30
0.0
 11
19.89698321738544
 21
63.0047735182504
 31
0.0
  0
LINE
  5
187
330
1F
100
AcDbEntity
  8
0
100
AcDbLine
 10
19.89698321738544
 20
63.0047735182504
 30
0.0
 11
19.93819692132726
 21
59.57068145988395
 31
0.0
  0
LINE
  5
188
330
1F
100
AcDbEntity
  8
0
100
AcDbLine
 10
19.93819692132726
 20
59.57068145988395
 30
0.0
 11
17.36695348515555
 21
59.53982791638045
 31
0.0
  0
LINE
  5
189
330
1F
100
AcDbEntity
  8
0
100
AcDbLine
 10
17.36695348515555
 20
59.53982791638045
 30
0.0
 11
17.32494303122539
 21
63.04030839766787
 31
0.0
  0
LINE
  5
18A
330
1F
100
AcDbEntity
  8
0
100
AcDbLine
 10
17.32494303122539
 20
63.04030839766787
 30
0.0
 11
17.2796035738869
 21
63.45437448404081
 31
0.0
  0
LINE
  5
18B
330
1F
100
AcDbEntity
  8
0
100
AcDbLine
 10
17.2796035738869
 20
63.45437448404081
 30
0.0
 11
17.15495699715942
 21
63.74902888874219
 31
0.0
  0
LINE
  5
18C
330
1F
100
AcDbEntity
  8
0
100
AcDbLine
 10
17.15495699715942
 20
63.74902888874219
 30
0.0
 11
16.95100330104294
 21
63.92427161177199
 31
0.0
  0
LINE
  5
18D
330
1F
100
AcDbEntity
  8
0
100
AcDbLine
 10
16.95100330104294
 20
63.92427161177199
 30
0.0
 11
16.66774248553746
 21
63.98010265313022
 31
0.0
  0
LINE
  5
18E
330
1F
100
AcDbEntity
  8
0
100
AcDbLine
 10
16.66774248553746
 20
63.98010265313022
 30
0.0
 11
16.32452678275818
 21
63.90732269748661
 31
0.0
  0
LINE
  5
18F
330
1F
100
AcDbEntity
  8
0
100
AcDbLine
 10
16.32452678275818
 20
63.90732269748661
 30
0.0
 11
16.07953142724269
 21
63.69839823115542
 31
0.0
  0
LINE
  5
190
330
1F
100
AcDbEntity
  8
0
100
AcDbLine
 10
16.07953142724269
 20
63.69839823115542
 30
0.0
 11
15.93415671694382
 21
63.36240032743824
 31
0.0
  0
LINE
  5
191
330
1F
100
AcDbEntity
  8
0
100
AcDbLine
 10
15.93415671694382
 20
63.36240032743824
 30
0.0
 11
15.88980294981437
 21
62.90840005963661
 31
0.0
  0
LINE
  5
192
330
1F
100
AcDbEntity
  8
0
100
AcDbLine
 10
15.88980294981437
 20
62.90840005963661
 30
0.0
 11
15.93043719921923
 21
59.52259049066723
 31
0.0
  0
LINE
  5
193
330
1F
100
AcDbEntity
  8
0
100
AcDbLine
 10
15.93043719921923
 20
59.52259049066723
 30
0.0
 11
13.35919376304751
 21
59.49173694716373
 31
0.0
  0
LINE
  5
194
330
1F
100
AcDbEntity
  8
0
100
AcDbLine
 10
13.35919376304751
 20
59.49173694716373
 30
0.0
 11
13.28502358231565
 21
65.67189558998841
 31
0.0
  0
LINE
  5
195
330
1F
100
AcDbEntity
  8
0
100
AcDbLine
 10
13.28502358231565
 20
65.67189558998841
 30
0.0
 11
15.85626701848737
 21
65.7027491334919
 31
0.0
  0
LINE
  5
196
330
1F
100
AcDbEntity
  8
0
100
AcDbLine
 10
15.85626701848737
 20
65.7027491334919
 30
0.0
 11
15.86800097286096
 21
64.72502872320129
 31
0.0
  0
LINE
  5
197
330
1F
100
AcDbEntity
  8
0
100
AcDbLine
 10
15.89214410371704
 20
64.72531842783512
 30
0.0
 11
16.34754369734134
 21
65.25894875673765
 31
0.0
  0
LINE
  5
198
330
1F
100
AcDbEntity
  8
0
100
AcDbLine
 10
16.34754369734134
 20
65.25894875673765
 30
0.0
 11
17.05756885811978
 21
65.70207366108865
 31
0.0
  0
LINE
  5
199
330
1F
100
AcDbEntity
  8
0
100
AcDbLine
 10
17.05756885811978
 20
65.70207366108865
 30
0.0
 11
17.47103501348041
 21
65.83153125245951
 31
0.0
  0
LINE
  5
19A
330
1F
100
AcDbEntity
  8
0
100
AcDbLine
 10
17.47103501348041
 20
65.83153125245951
 30
0.0
 11
17.91869391125355
 21
65.8784016590507
 31
0.0
  0
LINE
  5
19B
330
1F
100
AcDbEntity
  8
0
100
AcDbLine
 10
17.91869391125355
 20
65.8784016590507
 30
0.0
 11
18.52531424320717
 21
65.8207918395787
 31
0.0
  0
LINE
  5
19C
330
1F
100
AcDbEntity
  8
0
100
AcDbLine
 10
18.52531424320717
 20
65.8207918395787
 30
0.0
 11
19.02937460741208
 21
65.63217347861867
 31
0.0
  0
LINE
  5
19D
330
1F
100
AcDbEntity
  8
0
100
AcDbLine
 10
19.02937460741208
 20
65.63217347861867
 30
0.0
 11
19.44609121633328
 21
65.30216584701114
 31
0.0
  0
LINE
  5
19E
330
1F
100
AcDbEntity
  8
0
100
AcDbLine
 10
19.44609121633328
 20
65.30216584701114
 30
0.0
 11
19.79068028243578
 21
64.82038821559665
 31
0.0
  0
LINE
  5
19F
330
1F
100
AcDbEntity
  8
0
100
AcDbLine
 10
19.79068028243578
 20
64.82038821559665
 30
0.0
 11
20.16542072134059
 21
65.28438912674854
 31
0.0
  0
LINE
  5
1A0
330
1F
100
AcDbEntity
  8
0
100
AcDbLine
 10
20.16542072134059
 20
65.28438912674854
 30
0.0
 11
20.65023577748586
 21
65.63049631305368
 31
0.0
  0
LINE
  5
1A1
330
1F
100
AcDbEntity
  8
0
100
AcDbLine
 10
20.65023577748586
 20
65.63049631305368
 30
0.0
 11
21.22110907569549
 21
65.84785827532261
 31
0.0
  0
LINE
  5
1A2
330
1F
100
AcDbEntity
  8
0
100
AcDbLine
 10
21.22110907569549
 20
65.84785827532261
 30
0.0
 11
21.85402424079336
 21
65.92562351436591
 31
0.0
  0
LINE
  5
1A3
330
1F
100
AcDbEntity
  8
0
100
AcDbLine
 10
21.85402424079336
 20
65.92562351436591
 30
0.0
 11
22.31208735159973
 21
65.89150759292055
 31
0.0
  0
LINE
  5
1A4
330
1F
100
AcDbEntity
  8
0
100
AcDbLine
 10
22.31208735159973
 20
65.89150759292055
 30
0.0
 11
22.71451566706187
 21
65.77749921707256
 31
0.0
  0
LINE
  5
1A5
330
1F
100
AcDbEntity
  8
0
100
AcDbLine
 10
22.71451566706187
 20
65.77749921707256
 30
0.0
 11
23.06130918717981
 21
65.58359838682198
 31
0.0
  0
LINE
  5
1A6
330
1F
100
AcDbEntity
  8
0
100
AcDbLine
 10
23.06130918717981
 20
65.58359838682198
 30
0.0
 11
23.35246791195354
 21
65.30980510216875
 31
0.0
  0
LINE
  5
1A7
330
1F
100
AcDbEntity
  8
0
100
AcDbLine
 10
23.35246791195354
 20
65.30980510216875
 30
0.0
 11
23.58378791690435
 21
64.96059605350996
 31
0.0
  0
LINE
  5
1A8
330
1F
100
AcDbEntity
  8
0
100
AcDbLine
 10
23.58378791690435
 20
64.96059605350996
 30
0.0
 11
23.75106527755347
 21
64.54044793124261
 31
0.0
  0
LINE
  5
1A9
330
1F
100
AcDbEntity
  8
0
100
AcDbLine
 10
23.75106527755347
 20
64.54044793124261
 30
0.0
 11
23.85429999390095
 21
64.04936073536672
 31
0.0
  0
LINE
  5
1AA
330
1F
100
AcDbEntity
  8
0
100
AcDbLine
 10
23.85429999390095
 20
64.04936073536672
 30
0.0
 11
23.89349206594676
 21
63.48733446588228
 31
0.0
  0
LINE
  5
1AB
330
1F
100
AcDbEntity
  8
0
100
AcDbLine
 10
23.89349206594676
 20
63.48733446588228
 30
0.0
 11
23.93992086072129
 21
59.61870000294223
 31
0.0
  0
LINE
  5
1AC
330
1F
100
AcDbEntity
  8
0
100
AcDbLine
 10
23.93992086072129
 20
59.61870000294223
 30
0.0
 11
21.37471320726358
 21
59.58791888559718
 31
0.0
  0
LINE
  5
1AD
330
1F
100
AcDbEntity
  8
0
100
AcDbLine
 10
-18.13433152635031
 20
44.42780480584649
 30
0.0
 11
-18.24007811521598
 21
43.61919678595874
 31
0.0
  0
LINE
  5
1AE
330
1F
100
AcDbEntity
  8
0
100
AcDbLine
 10
-18.24007811521598
 20
43.61919678595874
 30
0.0
 11
-18.57803338150958
 21
42.91947172224065
 31
0.0
  0
LINE
  5
1AF
330
1F
100
AcDbEntity
  8
0
100
AcDbLine
 10
-18.57803338150958
 20
42.91947172224065
 30
0.0
 11
-19.12587097527631
 21
42.35455128527864
 31
0.0
  0
LINE
  5
1B0
330
1F
100
AcDbEntity
  8
0
100
AcDbLine
 10
-19.12587097527631
 20
42.35455128527864
 30
0.0
 11
-19.86126454656136
 21
41.95035714565912
 31
0.0
  0
LINE
  5
1B1
330
1F
100
AcDbEntity
  8
0
100
AcDbLine
 10
-19.86126454656136
 20
41.95035714565912
 30
0.0
 11
-20.77587867822439
 21
41.70397123376266
 31
0.0
  0
LINE
  5
1B2
330
1F
100
AcDbEntity
  8
0
100
AcDbLine
 10
-20.77587867822439
 20
41.70397123376266
 30
0.0
 11
-21.86137795312509
 21
41.61247547996982
 31
0.0
  0
LINE
  5
1B3
330
1F
100
AcDbEntity
  8
0
100
AcDbLine
 10
-21.86137795312509
 20
41.61247547996982
 30
0.0
 11
-23.16346533252129
 21
41.71153855513995
 31
0.0
  0
LINE
  5
1B4
330
1F
100
AcDbEntity
  8
0
100
AcDbLine
 10
-23.16346533252129
 20
41.71153855513995
 30
0.0
 11
-24.35362524940174
 21
42.04131955195688
 31
0.0
  0
LINE
  5
1B5
330
1F
100
AcDbEntity
  8
0
100
AcDbLine
 10
-24.35362524940174
 20
42.04131955195688
 30
0.0
 11
-24.38209095353028
 21
44.41319684358784
 31
0.0
  0
LINE
  5
1B6
330
1F
100
AcDbEntity
  8
0
100
AcDbLine
 10
-24.38209095353028
 20
44.41319684358784
 30
0.0
 11
-23.80588179428123
 21
44.0602037933143
 31
0.0
  0
LINE
  5
1B7
330
1F
100
AcDbEntity
  8
0
100
AcDbLine
 10
-23.80588179428123
 20
44.0602037933143
 30
0.0
 11
-23.17325620491729
 21
43.7848490090227
 31
0.0
  0
LINE
  5
1B8
330
1F
100
AcDbEntity
  8
0
100
AcDbLine
 10
-23.17325620491729
 20
43.7848490090227
 30
0.0
 11
-22.53578995782183
 21
43.60914928527101
 31
0.0
  0
LINE
  5
1B9
330
1F
100
AcDbEntity
  8
0
100
AcDbLine
 10
-22.53578995782183
 20
43.60914928527101
 30
0.0
 11
-21.94505882537821
 21
43.5551214166172
 31
0.0
  0
LINE
  5
1BA
330
1F
100
AcDbEntity
  8
0
100
AcDbLine
 10
-21.94505882537821
 20
43.5551214166172
 30
0.0
 11
-21.56526626722922
 21
43.59815937333841
 31
0.0
  0
LINE
  5
1BB
330
1F
100
AcDbEntity
  8
0
100
AcDbLine
 10
-21.56526626722922
 20
43.59815937333841
 30
0.0
 11
-21.28296973817281
 21
43.71698872900085
 31
0.0
  0
LINE
  5
1BC
330
1F
100
AcDbEntity
  8
0
100
AcDbLine
 10
-21.28296973817281
 20
43.71698872900085
 30
0.0
 11
-21.10869564204994
 21
43.90846508223989
 31
0.0
  0
LINE
  5
1BD
330
1F
100
AcDbEntity
  8
0
100
AcDbLine
 10
-21.10869564204994
 20
43.90846508223989
 30
0.0
 11
-21.05297038270161
 21
44.16944403169094
 31
0.0
  0
LINE
  5
1BE
330
1F
100
AcDbEntity
  8
0
100
AcDbLine
 10
-21.05297038270161
 20
44.16944403169094
 30
0.0
 11
-21.1751227023779
 21
44.53920335884095
 31
0.0
  0
LINE
  5
1BF
330
1F
100
AcDbEntity
  8
0
100
AcDbLine
 10
-21.1751227023779
 20
44.53920335884095
 30
0.0
 11
-21.53481925745246
 21
44.83367811863623
 31
0.0
  0
LINE
  5
1C0
330
1F
100
AcDbEntity
  8
0
100
AcDbLine
 10
-21.53481925745246
 20
44.83367811863623
 30
0.0
 11
-22.42362462953473
 21
45.2032922904239
 31
0.0
  0
LINE
  5
1C1
330
1F
100
AcDbEntity
  8
0
100
AcDbLine
 10
-22.42362462953473
 20
45.2032922904239
 30
0.0
 11
-23.34285037983326
 21
45.6555389133403
 31
0.0
  0
LINE
  5
1C2
330
1F
100
AcDbEntity
  8
0
100
AcDbLine
 10
-23.34285037983326
 20
45.6555389133403
 30
0.0
 11
-24.00251338000148
 21
46.23464184669004
 31
0.0
  0
LINE
  5
1C3
330
1F
100
AcDbEntity
  8
0
100
AcDbLine
 10
-24.00251338000148
 20
46.23464184669004
 30
0.0
 11
-24.23500884878673
 21
46.57176442977741
 31
0.0
  0
LINE
  5
1C4
330
1F
100
AcDbEntity
  8
0
100
AcDbLine
 10
-24.23500884878673
 20
46.57176442977741
 30
0.0
 11
-24.4026136300394
 21
46.94060109047311
 31
0.0
  0
LINE
  5
1C5
330
1F
100
AcDbEntity
  8
0
100
AcDbLine
 10
-24.4026136300394
 20
46.94060109047311
 30
0.0
 11
-24.5053277237595
 21
47.34115182877714
 31
0.0
  0
LINE
  5
1C6
330
1F
100
AcDbEntity
  8
0
100
AcDbLine
 10
-24.5053277237595
 20
47.34115182877714
 30
0.0
 11
-24.54315112994702
 21
47.77341664468951
 31
0.0
  0
LINE
  5
1C7
330
1F
100
AcDbEntity
  8
0
100
AcDbLine
 10
-24.54315112994702
 20
47.77341664468951
 30
0.0
 11
-24.49070268108107
 21
48.37030743497355
 31
0.0
  0
LINE
  5
1C8
330
1F
100
AcDbEntity
  8
0
100
AcDbLine
 10
-24.49070268108107
 20
48.37030743497355
 30
0.0
 11
-24.31829151652206
 21
48.90563508150193
 31
0.0
  0
LINE
  5
1C9
330
1F
100
AcDbEntity
  8
0
100
AcDbLine
 10
-24.31829151652206
 20
48.90563508150193
 30
0.0
 11
-24.02591763626999
 21
49.37939958427463
 31
0.0
  0
LINE
  5
1CA
330
1F
100
AcDbEntity
  8
0
100
AcDbLine
 10
-24.02591763626999
 20
49.37939958427463
 30
0.0
 11
-23.61358104032487
 21
49.79160094329166
 31
0.0
  0
LINE
  5
1CB
330
1F
100
AcDbEntity
  8
0
100
AcDbLine
 10
-23.61358104032487
 20
49.79160094329166
 30
0.0
 11
-23.09995794313662
 21
50.12654734192282
 31
0.0
  0
LINE
  5
1CC
330
1F
100
AcDbEntity
  8
0
100
AcDbLine
 10
-23.09995794313662
 20
50.12654734192282
 30
0.0
 11
-22.50372455915518
 21
50.36854696353795
 31
0.0
  0
LINE
  5
1CD
330
1F
100
AcDbEntity
  8
0
100
AcDbLine
 10
-22.50372455915518
 20
50.36854696353795
 30
0.0
 11
-21.82488088838056
 21
50.51759980813705
 31
0.0
  0
LINE
  5
1CE
330
1F
100
AcDbEntity
  8
0
100
AcDbLine
 10
-21.82488088838056
 20
50.51759980813705
 30
0.0
 11
-21.06342693081275
 21
50.57370587572011
 31
0.0
  0
LINE
  5
1CF
330
1F
100
AcDbEntity
  8
0
100
AcDbLine
 10
-21.06342693081275
 20
50.57370587572011
 30
0.0
 11
-20.23005432537552
 21
50.54748881853963
 31
0.0
  0
LINE
  5
1D0
330
1F
100
AcDbEntity
  8
0
100
AcDbLine
 10
-20.23005432537552
 20
50.54748881853963
 30
0.0
 11
-19.53787072736363
 21
50.46525194606368
 31
0.0
  0
LINE
  5
1D1
330
1F
100
AcDbEntity
  8
0
100
AcDbLine
 10
-19.53787072736363
 20
50.46525194606368
 30
0.0
 11
-18.66323744340589
 21
50.27051694602346
 31
0.0
  0
LINE
  5
1D2
330
1F
100
AcDbEntity
  8
0
100
AcDbLine
 10
-18.66323744340589
 20
50.27051694602346
 30
0.0
 11
-18.63679983015675
 21
48.06762836728224
 31
0.0
  0
LINE
  5
1D3
330
1F
100
AcDbEntity
  8
0
100
AcDbLine
 10
-18.63679983015675
 20
48.06762836728224
 30
0.0
 11
-19.72560088974423
 21
48.50274972655539
 31
0.0
  0
LINE
  5
1D4
330
1F
100
AcDbEntity
  8
0
100
AcDbLine
 10
-19.72560088974423
 20
48.50274972655539
 30
0.0
 11
-20.2618666483794
 21
48.60836142194111
 31
0.0
  0
LINE
  5
1D5
330
1F
100
AcDbEntity
  8
0
100
AcDbLine
 10
-20.2618666483794
 20
48.60836142194111
 30
0.0
 11
-20.79270922624217
 21
48.63934046115958
 31
0.0
  0
LINE
  5
1D6
330
1F
100
AcDbEntity
  8
0
100
AcDbLine
 10
-20.79270922624217
 20
48.63934046115958
 30
0.0
 11
-21.18454618788779
 21
48.59389441043096
 31
0.0
  0
LINE
  5
1D7
330
1F
100
AcDbEntity
  8
0
100
AcDbLine
 10
-21.18454618788779
 20
48.59389441043096
 30
0.0
 11
-21.49090436200601
 21
48.46798562506324
 31
0.0
  0
LINE
  5
1D8
330
1F
100
AcDbEntity
  8
0
100
AcDbLine
 10
-21.49090436200601
 20
48.46798562506324
 30
0.0
 11
-21.68776737342074
 21
48.27246560424582
 31
0.0
  0
LINE
  5
1D9
330
1F
100
AcDbEntity
  8
0
100
AcDbLine
 10
-21.68776737342074
 20
48.27246560424582
 30
0.0
 11
-21.75111884695586
 21
48.01818584716816
 31
0.0
  0
LINE
  5
1DA
330
1F
100
AcDbEntity
  8
0
100
AcDbLine
 10
-21.75111884695586
 20
48.01818584716816
 30
0.0
 11
-21.69457251688985
 21
47.77062645726768
 31
0.0
  0
LINE
  5
1DB
330
1F
100
AcDbEntity
  8
0
100
AcDbLine
 10
-21.69457251688985
 20
47.77062645726768
 30
0.0
 11
-21.5314523902327
 21
47.57112629328326
 31
0.0
  0
LINE
  5
1DC
330
1F
100
AcDbEntity
  8
0
100
AcDbLine
 10
-21.5314523902327
 20
47.57112629328326
 30
0.0
 11
-20.62959762319126
 21
47.12018027295495
 31
0.0
  0
LINE
  5
1DD
330
1F
100
AcDbEntity
  8
0
100
AcDbLine
 10
-20.62959762319126
 20
47.12018027295495
 30
0.0
 11
-19.47370879024641
 21
46.56514032466237
 31
0.0
  0
LINE
  5
1DE
330
1F
100
AcDbEntity
  8
0
100
AcDbLine
 10
-19.47370879024641
 20
46.56514032466237
 30
0.0
 11
-19.04322155564054
 21
46.26661061858213
 31
0.0
  0
LINE
  5
1DF
330
1F
100
AcDbEntity
  8
0
100
AcDbLine
 10
-19.04322155564054
 20
46.26661061858213
 30
0.0
 11
-18.71103910894571
 21
45.95407442454594
 31
0.0
  0
LINE
  5
1E0
330
1F
100
AcDbEntity
  8
0
100
AcDbLine
 10
-18.71103910894571
 20
45.95407442454594
 30
0.0
 11
-18.46272234547902
 21
45.61902799486661
 31
0.0
  0
LINE
  5
1E1
330
1F
100
AcDbEntity
  8
0
100
AcDbLine
 10
-18.46272234547902
 20
45.61902799486661
 30
0.0
 11
-18.28383216055755
 21
45.25296758185691
 31
0.0
  0
LINE
  5
1E2
330
1F
100
AcDbEntity
  8
0
100
AcDbLine
 10
-18.28383216055755
 20
45.25296758185691
 30
0.0
 11
-18.17436855418132
 21
44.85589318551688
 31
0.0
  0
LINE
  5
1E3
330
1F
100
AcDbEntity
  8
0
100
AcDbLine
 10
-18.17436855418132
 20
44.85589318551688
 30
0.0
 11
-18.13433152635031
 21
44.42780480584649
 31
0.0
  0
LINE
  5
1E4
330
1F
100
AcDbEntity
  8
0
100
AcDbLine
 10
-12.93124437724597
 20
41.95504333029973
 30
0.0
 11
-13.50272429192399
 21
41.78822709911834
 31
0.0
  0
LINE
  5
1E5
330
1F
100
AcDbEntity
  8
0
100
AcDbLine
 10
-13.50272429192399
 20
41.78822709911834
 30
0.0
 11
-14.46150834573886
 21
41.70126995024046
 31
0.0
  0
LINE
  5
1E6
330
1F
100
AcDbEntity
  8
0
100
AcDbLine
 10
-14.46150834573886
 20
41.70126995024046
 30
0.0
 11
-14.96990082964532
 21
41.73214111728728
 31
0.0
  0
LINE
  5
1E7
330
1F
100
AcDbEntity
  8
0
100
AcDbLine
 10
-14.96990082964532
 20
41.73214111728728
 30
0.0
 11
-15.42070895826945
 21
41.83764647463343
 31
0.0
  0
LINE
  5
1E8
330
1F
100
AcDbEntity
  8
0
100
AcDbLine
 10
-15.42070895826945
 20
41.83764647463343
 30
0.0
 11
-15.81393273161127
 21
42.01778602227892
 31
0.0
  0
LINE
  5
1E9
330
1F
100
AcDbEntity
  8
0
100
AcDbLine
 10
-15.81393273161127
 20
42.01778602227892
 30
0.0
 11
-16.14957214967076
 21
42.27255976022373
 31
0.0
  0
LINE
  5
1EA
330
1F
100
AcDbEntity
  8
0
100
AcDbLine
 10
-16.14957214967076
 20
42.27255976022373
 30
0.0
 11
-16.41888286996799
 21
42.59641369684444
 31
0.0
  0
LINE
  5
1EB
330
1F
100
AcDbEntity
  8
0
100
AcDbLine
 10
-16.41888286996799
 20
42.59641369684444
 30
0.0
 11
-16.61312055002299
 21
42.98379384051761
 31
0.0
  0
LINE
  5
1EC
330
1F
100
AcDbEntity
  8
0
100
AcDbLine
 10
-16.61312055002299
 20
42.98379384051761
 30
0.0
 11
-16.73228518983577
 21
43.43470019124325
 31
0.0
  0
LINE
  5
1ED
330
1F
100
AcDbEntity
  8
0
100
AcDbLine
 10
-16.73228518983577
 20
43.43470019124325
 30
0.0
 11
-16.77637678940633
 21
43.94913274902135
 31
0.0
  0
LINE
  5
1EE
330
1F
100
AcDbEntity
  8
0
100
AcDbLine
 10
-16.77637678940633
 20
43.94913274902135
 30
0.0
 11
-16.80368358446093
 21
46.22444506185817
 31
0.0
  0
LINE
  5
1EF
330
1F
100
AcDbEntity
  8
0
100
AcDbLine
 10
-16.80368358446093
 20
46.22444506185817
 30
0.0
 11
-17.77544460141785
 21
46.21278445034628
 31
0.0
  0
LINE
  5
1F0
330
1F
100
AcDbEntity
  8
0
100
AcDbLine
 10
-17.77544460141785
 20
46.21278445034628
 30
0.0
 11
-17.79681198746853
 21
47.99320124686316
 31
0.0
  0
LINE
  5
1F1
330
1F
100
AcDbEntity
  8
0
100
AcDbLine
 10
-17.79681198746853
 20
47.99320124686316
 30
0.0
 11
-16.82505097051162
 21
48.00486185837504
 31
0.0
  0
LINE
  5
1F2
330
1F
100
AcDbEntity
  8
0
100
AcDbLine
 10
-16.82505097051162
 20
48.00486185837504
 30
0.0
 11
-16.83960976575293
 21
49.21795940447637
 31
0.0
  0
LINE
  5
1F3
330
1F
100
AcDbEntity
  8
0
100
AcDbLine
 10
-16.83960976575293
 20
49.21795940447637
 30
0.0
 11
-14.31298311665135
 21
49.94847448728661
 31
0.0
  0
LINE
  5
1F4
330
1F
100
AcDbEntity
  8
0
100
AcDbLine
 10
-14.31298311665135
 20
49.94847448728661
 30
0.0
 11
-14.290022230624
 21
48.03528084492779
 31
0.0
  0
LINE
  5
1F5
330
1F
100
AcDbEntity
  8
0
100
AcDbLine
 10
-14.290022230624
 20
48.03528084492779
 30
0.0
 11
-13.00440051253814
 21
48.05070761667955
 31
0.0
  0
LINE
  5
1F6
330
1F
100
AcDbEntity
  8
0
100
AcDbLine
 10
-13.00440051253814
 20
48.05070761667955
 30
0.0
 11
-12.98303312648746
 21
46.27029082016266
 31
0.0
  0
LINE
  5
1F7
330
1F
100
AcDbEntity
  8
0
100
AcDbLine
 10
-12.98303312648746
 20
46.27029082016266
 30
0.0
 11
-14.26865484457332
 21
46.25486404841092
 31
0.0
  0
LINE
  5
1F8
330
1F
100
AcDbEntity
  8
0
100
AcDbLine
 10
-14.26865484457332
 20
46.25486404841092
 30
0.0
 11
-14.24641827671719
 21
44.40202351779844
 31
0.0
  0
LINE
  5
1F9
330
1F
100
AcDbEntity
  8
0
100
AcDbLine
 10
-14.24641827671719
 20
44.40202351779844
 30
0.0
 11
-14.20177597561848
 21
44.04604730148134
 31
0.0
  0
LINE
  5
1FA
330
1F
100
AcDbEntity
  8
0
100
AcDbLine
 10
-14.20177597561848
 20
44.04604730148134
 30
0.0
 11
-14.0776273676337
 21
43.79288566110558
 31
0.0
  0
LINE
  5
1FB
330
1F
100
AcDbEntity
  8
0
100
AcDbLine
 10
-14.0776273676337
 20
43.79288566110558
 30
0.0
 11
-13.87397245276285
 21
43.64253859667114
 31
0.0
  0
LINE
  5
1FC
330
1F
100
AcDbEntity
  8
0
100
AcDbLine
 10
-13.87397245276285
 20
43.64253859667114
 30
0.0
 11
-13.59081123100592
 21
43.59500610817803
 31
0.0
  0
LINE
  5
1FD
330
1F
100
AcDbEntity
  8
0
100
AcDbLine
 10
-13.59081123100592
 20
43.59500610817803
 30
0.0
 11
-12.95261176329666
 21
43.7354601268166
 31
0.0
  0
LINE
  5
1FE
330
1F
100
AcDbEntity
  8
0
100
AcDbLine
 10
-12.95261176329666
 20
43.7354601268166
 30
0.0
 11
-12.93124437724597
 21
41.95504333029973
 31
0.0
  0
LINE
  5
1FF
330
1F
100
AcDbEntity
  8
0
100
AcDbLine
 10
-7.527651108530624
 20
45.91321985902673
 30
0.0
 11
-7.921425621284222
 21
46.02921838221958
 31
0.0
  0
LINE
  5
200
330
1F
100
AcDbEntity
  8
0
100
AcDbLine
 10
-7.921425621284222
 20
46.02921838221958
 30
0.0
 11
-8.332510732191542
 21
46.07861120401606
 31
0.0
  0
LINE
  5
201
330
1F
100
AcDbEntity
  8
0
100
AcDbLine
 10
-8.332510732191542
 20
46.07861120401606
 30
0.0
 11
-8.888584338768249
 21
45.97988686885017
 31
0.0
  0
LINE
  5
202
330
1F
100
AcDbEntity
  8
0
100
AcDbLine
 10
-8.888584338768249
 20
45.97988686885017
 30
0.0
 11
-9.283255005840534
 21
45.6989957827873
 31
0.0
  0
LINE
  5
203
330
1F
100
AcDbEntity
  8
0
100
AcDbLine
 10
-9.283255005840534
 20
45.6989957827873
 30
0.0
 11
-9.516522733408404
 21
45.23593794582747
 31
0.0
  0
LINE
  5
204
330
1F
100
AcDbEntity
  8
0
100
AcDbLine
 10
-9.516522733408404
 20
45.23593794582747
 30
0.0
 11
-9.588387521471855
 21
44.59071335797066
 31
0.0
  0
LINE
  5
205
330
1F
100
AcDbEntity
  8
0
100
AcDbLine
 10
-9.588387521471855
 20
44.59071335797066
 30
0.0
 11
-9.55622779467015
 21
41.9110351964334
 31
0.0
  0
LINE
  5
206
330
1F
100
AcDbEntity
  8
0
100
AcDbLine
 10
-9.55622779467015
 20
41.9110351964334
 30
0.0
 11
-12.12747123084187
 21
41.8801816529299
 31
0.0
  0
LINE
  5
207
330
1F
100
AcDbEntity
  8
0
100
AcDbLine
 10
-12.12747123084187
 20
41.8801816529299
 30
0.0
 11
-12.20164141157373
 21
48.06034029575458
 31
0.0
  0
LINE
  5
208
330
1F
100
AcDbEntity
  8
0
100
AcDbLine
 10
-12.20164141157373
 20
48.06034029575458
 30
0.0
 11
-9.630397975402008
 21
48.09119383925808
 31
0.0
  0
LINE
  5
209
330
1F
100
AcDbEntity
  8
0
100
AcDbLine
 10
-9.630397975402008
 20
48.09119383925808
 30
0.0
 11
-9.617360248320235
 21
47.00483782782406
 31
0.0
  0
LINE
  5
20A
330
1F
100
AcDbEntity
  8
0
100
AcDbLine
 10
-9.593217117464166
 20
47.0051275324579
 30
0.0
 11
-9.31421025061351
 21
47.52381435997941
 31
0.0
  0
LINE
  5
20B
330
1F
100
AcDbEntity
  8
0
100
AcDbLine
 10
-9.31421025061351
 20
47.52381435997941
 30
0.0
 11
-8.933928929233492
 21
47.90337523430527
 31
0.0
  0
LINE
  5
20C
330
1F
100
AcDbEntity
  8
0
100
AcDbLine
 10
-8.933928929233492
 20
47.90337523430527
 30
0.0
 11
-8.465881232613537
 21
48.1376118854043
 31
0.0
  0
LINE
  5
20D
330
1F
100
AcDbEntity
  8
0
100
AcDbLine
 10
-8.465881232613537
 20
48.1376118854043
 30
0.0
 11
-7.923575240043055
 21
48.22032604324536
 31
0.0
  0
LINE
  5
20E
330
1F
100
AcDbEntity
  8
0
100
AcDbLine
 10
-7.923575240043055
 20
48.22032604324536
 30
0.0
 11
-7.5545233126825
 21
48.15232030481575
 31
0.0
  0
LINE
  5
20F
330
1F
100
AcDbEntity
  8
0
100
AcDbLine
 10
-7.5545233126825
 20
48.15232030481575
 30
0.0
 11
-7.527651108530624
 21
45.91321985902673
 31
0.0
  0
LINE
  5
210
330
1F
100
AcDbEntity
  8
0
100
AcDbLine
 10
-3.309192685661389
 20
41.98599627043839
 30
0.0
 11
-3.320492049132258
 21
42.92750481368121
 31
0.0
  0
LINE
  5
211
330
1F
100
AcDbEntity
  8
0
100
AcDbLine
 10
-3.344635179988331
 20
42.92721510904737
 30
0.0
 11
-3.687465937204613
 21
42.44511129475509
 31
0.0
  0
LINE
  5
212
330
1F
100
AcDbEntity
  8
0
100
AcDbLine
 10
-3.687465937204613
 20
42.44511129475509
 30
0.0
 11
-4.1134185309225
 21
42.09857864264968
 31
0.0
  0
LINE
  5
213
330
1F
100
AcDbEntity
  8
0
100
AcDbLine
 10
-4.1134185309225
 20
42.09857864264968
 30
0.0
 11
-4.622492961141992
 21
41.88761715273117
 31
0.0
  0
LINE
  5
214
330
1F
100
AcDbEntity
  8
0
100
AcDbLine
 10
-4.622492961141992
 20
41.88761715273117
 30
0.0
 11
-5.214689227863091
 21
41.81222682499953
 31
0.0
  0
LINE
  5
215
330
1F
100
AcDbEntity
  8
0
100
AcDbLine
 10
-5.214689227863091
 20
41.81222682499953
 30
0.0
 11
-5.628906901209985
 21
41.83970090407385
 31
0.0
  0
LINE
  5
216
330
1F
100
AcDbEntity
  8
0
100
AcDbLine
 10
-5.628906901209985
 20
41.83970090407385
 30
0.0
 11
-5.996371427718037
 21
41.93262493427333
 31
0.0
  0
LINE
  5
217
330
1F
100
AcDbEntity
  8
0
100
AcDbLine
 10
-5.996371427718037
 20
41.93262493427333
 30
0.0
 11
-6.317082807387248
 21
42.09099891559799
 31
0.0
  0
LINE
  5
218
330
1F
100
AcDbEntity
  8
0
100
AcDbLine
 10
-6.317082807387248
 20
42.09099891559799
 30
0.0
 11
-6.591041040217607
 21
42.31482284804783
 31
0.0
  0
LINE
  5
219
330
1F
100
AcDbEntity
  8
0
100
AcDbLine
 10
-6.591041040217607
 20
42.31482284804783
 30
0.0
 11
-6.810951878556275
 21
42.59362094313041
 31
0.0
  0
LINE
  5
21A
330
1F
100
AcDbEntity
  8
0
100
AcDbLine
 10
-6.810951878556275
 20
42.59362094313041
 30
0.0
 11
-6.969521074750385
 21
42.91691741235328
 31
0.0
  0
LINE
  5
21B
330
1F
100
AcDbEntity
  8
0
100
AcDbLine
 10
-6.969521074750385
 20
42.91691741235328
 30
0.0
 11
-7.066748628799929
 21
43.28471225571644
 31
0.0
  0
LINE
  5
21C
330
1F
100
AcDbEntity
  8
0
100
AcDbLine
 10
-7.066748628799929
 20
43.28471225571644
 30
0.0
 11
-7.102634540704916
 21
43.6970054732199
 31
0.0
  0
LINE
  5
21D
330
1F
100
AcDbEntity
  8
0
100
AcDbLine
 10
-7.102634540704916
 20
43.6970054732199
 30
0.0
 11
-7.072827001203025
 21
44.12913867106772
 31
0.0
  0
LINE
  5
21E
330
1F
100
AcDbEntity
  8
0
100
AcDbLine
 10
-7.072827001203025
 20
44.12913867106772
 30
0.0
 11
-6.97246717831209
 21
44.51420627724152
 31
0.0
  0
LINE
  5
21F
330
1F
100
AcDbEntity
  8
0
100
AcDbLine
 10
-6.97246717831209
 20
44.51420627724152
 30
0.0
 11
-6.801555072032106
 21
44.85220829174129
 31
0.0
  0
LINE
  5
220
330
1F
100
AcDbEntity
  8
0
100
AcDbLine
 10
-6.801555072032106
 20
44.85220829174129
 30
0.0
 11
-6.56009068236308
 21
45.14314471456705
 31
0.0
  0
LINE
  5
221
330
1F
100
AcDbEntity
  8
0
100
AcDbLine
 10
-6.56009068236308
 20
45.14314471456705
 30
0.0
 11
-6.24807400930501
 21
45.38701554571879
 31
0.0
  0
LINE
  5
222
330
1F
100
AcDbEntity
  8
0
100
AcDbLine
 10
-6.24807400930501
 20
45.38701554571879
 30
0.0
 11
-5.865505052857893
 21
45.58382078519651
 31
0.0
  0
LINE
  5
223
330
1F
100
AcDbEntity
  8
0
100
AcDbLine
 10
-5.865505052857893
 20
45.58382078519651
 30
0.0
 11
-4.888710289796526
 21
45.83623448912989
 31
0.0
  0
LINE
  5
224
330
1F
100
AcDbEntity
  8
0
100
AcDbLine
 10
-4.888710289796526
 20
45.83623448912989
 30
0.0
 11
-3.358011730400913
 21
46.05379600214135
 31
0.0
  0
LINE
  5
225
330
1F
100
AcDbEntity
  8
0
100
AcDbLine
 10
-3.358011730400913
 20
46.05379600214135
 30
0.0
 11
-3.429209933612622
 21
46.32758786630451
 31
0.0
  0
LINE
  5
226
330
1F
100
AcDbEntity
  8
0
100
AcDbLine
 10
-3.429209933612622
 20
46.32758786630451
 30
0.0
 11
-3.635561361535648
 21
46.54543234133065
 31
0.0
  0
LINE
  5
227
330
1F
100
AcDbEntity
  8
0
100
AcDbLine
 10
-3.635561361535648
 20
46.54543234133065
 30
0.0
 11
-3.955687263311008
 21
46.68645932966314
 31
0.0
  0
LINE
  5
228
330
1F
100
AcDbEntity
  8
0
100
AcDbLine
 10
-3.955687263311008
 20
46.68645932966314
 30
0.0
 11
-4.368208888079712
 21
46.72979873374538
 31
0.0
  0
LINE
  5
229
330
1F
100
AcDbEntity
  8
0
100
AcDbLine
 10
-4.368208888079712
 20
46.72979873374538
 30
0.0
 11
-4.894010048578301
 21
46.68651779711012
 31
0.0
  0
LINE
  5
22A
330
1F
100
AcDbEntity
  8
0
100
AcDbLine
 10
-4.894010048578301
 20
46.68651779711012
 30
0.0
 11
-5.433258903262951
 21
46.56913228645926
 31
0.0
  0
LINE
  5
22B
330
1F
100
AcDbEntity
  8
0
100
AcDbLine
 10
-5.433258903262951
 20
46.56913228645926
 30
0.0
 11
-6.552099695190438
 21
46.11204754311072
 31
0.0
  0
LINE
  5
22C
330
1F
100
AcDbEntity
  8
0
100
AcDbLine
 10
-6.552099695190438
 20
46.11204754311072
 30
0.0
 11
-6.572163308532943
 21
47.78382873848419
 31
0.0
  0
LINE
  5
22D
330
1F
100
AcDbEntity
  8
0
100
AcDbLine
 10
-6.572163308532943
 20
47.78382873848419
 30
0.0
 11
-6.01018976678296
 21
47.98825702526934
 31
0.0
  0
LINE
  5
22E
330
1F
100
AcDbEntity
  8
0
100
AcDbLine
 10
-6.01018976678296
 20
47.98825702526934
 30
0.0
 11
-5.320993981227307
 21
48.15497673874702
 31
0.0
  0
LINE
  5
22F
330
1F
100
AcDbEntity
  8
0
100
AcDbLine
 10
-5.320993981227307
 20
48.15497673874702
 30
0.0
 11
-4.031002412221212
 21
48.30928809367381
 31
0.0
  0
LINE
  5
230
330
1F
100
AcDbEntity
  8
0
100
AcDbLine
 10
-4.031002412221212
 20
48.30928809367381
 30
0.0
 11
-3.296961435032633
 21
48.27603156049579
 31
0.0
  0
LINE
  5
231
330
1F
100
AcDbEntity
  8
0
100
AcDbLine
 10
-3.296961435032633
 20
48.27603156049579
 30
0.0
 11
-2.670177791825634
 21
48.15735873360396
 31
0.0
  0
LINE
  5
232
330
1F
100
AcDbEntity
  8
0
100
AcDbLine
 10
-2.670177791825634
 20
48.15735873360396
 30
0.0
 11
-2.150651482600214
 21
47.95326961299832
 31
0.0
  0
LINE
  5
233
330
1F
100
AcDbEntity
  8
0
100
AcDbLine
 10
-2.150651482600214
 20
47.95326961299832
 30
0.0
 11
-1.738382507356365
 21
47.66376419867887
 31
0.0
  0
LINE
  5
234
330
1F
100
AcDbEntity
  8
0
100
AcDbLine
 10
-1.738382507356365
 20
47.66376419867887
 30
0.0
 11
-1.423390693618151
 21
47.27462631911335
 31
0.0
  0
LINE
  5
235
330
1F
100
AcDbEntity
  8
0
100
AcDbLine
 10
-1.423390693618151
 20
47.27462631911335
 30
0.0
 11
-1.195695868909633
 21
46.77163980276951
 31
0.0
  0
LINE
  5
236
330
1F
100
AcDbEntity
  8
0
100
AcDbLine
 10
-1.195695868909633
 20
46.77163980276951
 30
0.0
 11
-1.055298033230808
 21
46.15480464964733
 31
0.0
  0
LINE
  5
237
330
1F
100
AcDbEntity
  8
0
100
AcDbLine
 10
-1.055298033230808
 20
46.15480464964733
 30
0.0
 11
-1.002197186581677
 21
45.42412085974683
 31
0.0
  0
LINE
  5
238
330
1F
100
AcDbEntity
  8
0
100
AcDbLine
 10
-1.002197186581677
 20
45.42412085974683
 30
0.0
 11
-0.9612732099083371
 21
42.01417004607891
 31
0.0
  0
LINE
  5
239
330
1F
100
AcDbEntity
  8
0
100
AcDbLine
 10
-0.9612732099083371
 20
42.01417004607891
 30
0.0
 11
-3.309192685661389
 21
41.98599627043839
 31
0.0
  0
LINE
  5
23A
330
1F
100
AcDbEntity
  8
0
100
AcDbLine
 10
-4.855416201952051
 20
44.06803316727919
 30
0.0
 11
-4.812658624466803
 21
43.83766233814925
 31
0.0
  0
LINE
  5
23B
330
1F
100
AcDbEntity
  8
0
100
AcDbLine
 10
-4.812658624466803
 20
43.83766233814925
 30
0.0
 11
-4.690470164649223
 21
43.65351598942864
 31
0.0
  0
LINE
  5
23C
330
1F
100
AcDbEntity
  8
0
100
AcDbLine
 10
-4.690470164649223
 20
43.65351598942864
 30
0.0
 11
-4.495103900664692
 21
43.5336276284828
 31
0.0
  0
LINE
  5
23D
330
1F
100
AcDbEntity
  8
0
100
AcDbLine
 10
-4.495103900664692
 20
43.5336276284828
 30
0.0
 11
-4.23281291067859
 21
43.49603076267719
 31
0.0
  0
LINE
  5
23E
330
1F
100
AcDbEntity
  8
0
100
AcDbLine
 10
-4.23281291067859
 20
43.49603076267719
 30
0.0
 11
-3.86779898135525
 21
43.57586298821668
 31
0.0
  0
LINE
  5
23F
330
1F
100
AcDbEntity
  8
0
100
AcDbLine
 10
-3.86779898135525
 20
43.57586298821668
 30
0.0
 11
-3.581552077063672
 21
43.80565455960166
 31
0.0
  0
LINE
  5
240
330
1F
100
AcDbEntity
  8
0
100
AcDbLine
 10
-3.581552077063672
 20
43.80565455960166
 30
0.0
 11
-3.397816953665751
 21
44.1519215607378
 31
0.0
  0
LINE
  5
241
330
1F
100
AcDbEntity
  8
0
100
AcDbLine
 10
-3.397816953665751
 20
44.1519215607378
 30
0.0
 11
-3.340338367023401
 21
44.58118007553078
 31
0.0
  0
LINE
  5
242
330
1F
100
AcDbEntity
  8
0
100
AcDbLine
 10
-3.340338367023401
 20
44.58118007553078
 30
0.0
 11
-3.343163207891119
 21
44.81655721134149
 31
0.0
  0
LINE
  5
243
330
1F
100
AcDbEntity
  8
0
100
AcDbLine
 10
-3.343163207891119
 20
44.81655721134149
 30
0.0
 11
-4.210867282367309
 21
44.68542162103073
 31
0.0
  0
LINE
  5
244
330
1F
100
AcDbEntity
  8
0
100
AcDbLine
 10
-4.210867282367309
 20
44.68542162103073
 30
0.0
 11
-4.495111874993523
 21
44.6031632328249
 31
0.0
  0
LINE
  5
245
330
1F
100
AcDbEntity
  8
0
100
AcDbLine
 10
-4.495111874993523
 20
44.6031632328249
 30
0.0
 11
-4.697284892466386
 21
44.47284569446437
 31
0.0
  0
LINE
  5
246
330
1F
100
AcDbEntity
  8
0
100
AcDbLine
 10
-4.697284892466386
 20
44.47284569446437
 30
0.0
 11
-4.817386334785896
 21
44.29446900594913
 31
0.0
  0
LINE
  5
247
330
1F
100
AcDbEntity
  8
0
100
AcDbLine
 10
-4.817386334785896
 20
44.29446900594913
 30
0.0
 11
-4.855416201952051
 21
44.06803316727919
 31
0.0
  0
LINE
  5
248
330
1F
100
AcDbEntity
  8
0
100
AcDbLine
 10
2.825573712948079
 20
49.90664459299152
 30
0.0
 11
2.732640964101388
 21
49.41358075391413
 31
0.0
  0
LINE
  5
249
330
1F
100
AcDbEntity
  8
0
100
AcDbLine
 10
2.732640964101388
 20
49.41358075391413
 30
0.0
 11
2.440804990479549
 21
49.02074524811597
 31
0.0
  0
LINE
  5
24A
330
1F
100
AcDbEntity
  8
0
100
AcDbLine
 10
2.440804990479549
 20
49.02074524811597
 30
0.0
 11
1.985882113372499
 21
48.7617668440083
 31
0.0
  0
LINE
  5
24B
330
1F
100
AcDbEntity
  8
0
100
AcDbLine
 10
1.985882113372499
 20
48.7617668440083
 30
0.0
 11
1.403688654070189
 21
48.67027431000233
 31
0.0
  0
LINE
  5
24C
330
1F
100
AcDbEntity
  8
0
100
AcDbLine
 10
1.403688654070189
 20
48.67027431000233
 30
0.0
 11
0.8315024534079762
 21
48.75093299679034
 31
0.0
  0
LINE
  5
24D
330
1F
100
AcDbEntity
  8
0
100
AcDbLine
 10
0.8315024534079762
 20
48.75093299679034
 30
0.0
 11
0.3703866559370866
 21
49.00797369811383
 31
0.0
  0
LINE
  5
24E
330
1F
100
AcDbEntity
  8
0
100
AcDbLine
 10
0.3703866559370866
 20
49.00797369811383
 30
0.0
 11
0.0646439249625736
 21
49.39665666981187
 31
0.0
  0
LINE
  5
24F
330
1F
100
AcDbEntity
  8
0
100
AcDbLine
 10
0.0646439249625736
 20
49.39665666981187
 30
0.0
 11
-0.0414230762105376
 21
49.87224216772353
 31
0.0
  0
LINE
  5
250
330
1F
100
AcDbEntity
  8
0
100
AcDbLine
 10
-0.0414230762105376
 20
49.87224216772353
 30
0.0
 11
0.0501365366147475
 21
50.35397169180887
 31
0.0
  0
LINE
  5
251
330
1F
100
AcDbEntity
  8
0
100
AcDbLine
 10
0.0501365366147475
 20
50.35397169180887
 30
0.0
 11
0.3375633749038925
 21
50.73694549732941
 31
0.0
  0
LINE
  5
252
330
1F
100
AcDbEntity
  8
0
100
AcDbLine
 10
0.3375633749038925
 20
50.73694549732941
 30
0.0
 11
0.7895498464481868
 21
50.98909796328639
 31
0.0
  0
LINE
  5
253
330
1F
100
AcDbEntity
  8
0
100
AcDbLine
 10
0.7895498464481868
 20
50.98909796328639
 30
0.0
 11
1.374788359038931
 21
51.07836346868109
 31
0.0
  0
LINE
  5
254
330
1F
100
AcDbEntity
  8
0
100
AcDbLine
 10
1.374788359038931
 20
51.07836346868109
 30
0.0
 11
1.958982747289205
 21
51.00313053148781
 31
0.0
  0
LINE
  5
255
330
1F
100
AcDbEntity
  8
0
100
AcDbLine
 10
1.958982747289205
 20
51.00313053148781
 30
0.0
 11
2.419908411240149
 21
50.76193252199773
 31
0.0
  0
LINE
  5
256
330
1F
100
AcDbEntity
  8
0
100
AcDbLine
 10
2.419908411240149
 20
50.76193252199773
 30
0.0
 11
2.720970387567775
 21
50.38602026692695
 31
0.0
  0
LINE
  5
257
330
1F
100
AcDbEntity
  8
0
100
AcDbLine
 10
2.720970387567775
 20
50.38602026692695
 30
0.0
 11
2.825573712948079
 21
49.90664459299152
 31
0.0
  0
LINE
  5
258
330
1F
100
AcDbEntity
  8
0
100
AcDbLine
 10
0.1975970711831432
 20
42.02807586850302
 30
0.0
 11
0.123426890451284
 21
48.2082345113277
 31
0.0
  0
LINE
  5
259
330
1F
100
AcDbEntity
  8
0
100
AcDbLine
 10
0.123426890451284
 20
48.2082345113277
 30
0.0
 11
2.694670326623002
 21
48.23908805483121
 31
0.0
  0
LINE
  5
25A
330
1F
100
AcDbEntity
  8
0
100
AcDbLine
 10
2.694670326623002
 20
48.23908805483121
 30
0.0
 11
2.768840507354859
 21
42.05892941200653
 31
0.0
  0
LINE
  5
25B
330
1F
100
AcDbEntity
  8
0
100
AcDbLine
 10
2.768840507354859
 20
42.05892941200653
 30
0.0
 11
0.1975970711831432
 21
42.02807586850302
 31
0.0
  0
LINE
  5
25C
330
1F
100
AcDbEntity
  8
0
100
AcDbLine
 10
10.6955370264404
 20
43.0172193083526
 30
0.0
 11
10.6356525916167
 21
42.17539672608763
 31
0.0
  0
LINE
  5
25D
330
1F
100
AcDbEntity
  8
0
100
AcDbLine
 10
10.6356525916167
 20
42.17539672608763
 30
0.0
 11
10.43463190109492
 21
41.43034577580961
 31
0.0
  0
LINE
  5
25E
330
1F
100
AcDbEntity
  8
0
100
AcDbLine
 10
10.43463190109492
 20
41.43034577580961
 30
0.0
 11
10.09247495487507
 21
40.78206645751852
 31
0.0
  0
LINE
  5
25F
330
1F
100
AcDbEntity
  8
0
100
AcDbLine
 10
10.09247495487507
 20
40.78206645751852
 30
0.0
 11
9.609181752957117
 21
40.23055877121438
 31
0.0
  0
LINE
  5
260
330
1F
100
AcDbEntity
  8
0
100
AcDbLine
 10
9.609181752957117
 20
40.23055877121438
 30
0.0
 11
8.990256924024111
 21
39.78871565266684
 31
0.0
  0
LINE
  5
261
330
1F
100
AcDbEntity
  8
0
100
AcDbLine
 10
8.990256924024111
 20
39.78871565266684
 30
0.0
 11
8.24120509675903
 21
39.46943003764554
 31
0.0
  0
LINE
  5
262
330
1F
100
AcDbEntity
  8
0
100
AcDbLine
 10
8.24120509675903
 20
39.46943003764554
 30
0.0
 11
7.362026271161906
 21
39.27270192615049
 31
0.0
  0
LINE
  5
263
330
1F
100
AcDbEntity
  8
0
100
AcDbLine
 10
7.362026271161906
 20
39.27270192615049
 30
0.0
 11
6.352720447232703
 21
39.19853131818167
 31
0.0
  0
LINE
  5
264
330
1F
100
AcDbEntity
  8
0
100
AcDbLine
 10
6.352720447232703
 20
39.19853131818167
 30
0.0
 11
5.228978385168518
 21
39.27558972032782
 31
0.0
  0
LINE
  5
265
330
1F
100
AcDbEntity
  8
0
100
AcDbLine
 10
5.228978385168518
 20
39.27558972032782
 30
0.0
 11
4.447899733278064
 21
39.47144732582415
 31
0.0
  0
LINE
  5
266
330
1F
100
AcDbEntity
  8
0
100
AcDbLine
 10
4.447899733278064
 20
39.47144732582415
 30
0.0
 11
4.423707506359666
 21
41.48724125815173
 31
0.0
  0
LINE
  5
267
330
1F
100
AcDbEntity
  8
0
100
AcDbLine
 10
4.423707506359666
 20
41.48724125815173
 30
0.0
 11
4.845801950400282
 21
41.27500367387783
 31
0.0
  0
LINE
  5
268
330
1F
100
AcDbEntity
  8
0
100
AcDbLine
 10
4.845801950400282
 20
41.27500367387783
 30
0.0
 11
5.333710549758125
 21
41.11184526674403
 31
0.0
  0
LINE
  5
269
330
1F
100
AcDbEntity
  8
0
100
AcDbLine
 10
5.333710549758125
 20
41.11184526674403
 30
0.0
 11
6.2589236686138
 21
40.97807900079704
 31
0.0
  0
LINE
  5
26A
330
1F
100
AcDbEntity
  8
0
100
AcDbLine
 10
6.2589236686138
 20
40.97807900079704
 30
0.0
 11
7.034781244198298
 21
41.09151298646105
 31
0.0
  0
LINE
  5
26B
330
1F
100
AcDbEntity
  8
0
100
AcDbLine
 10
7.034781244198298
 20
41.09151298646105
 30
0.0
 11
7.636120114742605
 21
41.41110106213385
 31
0.0
  0
LINE
  5
26C
330
1F
100
AcDbEntity
  8
0
100
AcDbLine
 10
7.636120114742605
 20
41.41110106213385
 30
0.0
 11
7.860513827181214
 21
41.63901864454937
 31
0.0
  0
LINE
  5
26D
330
1F
100
AcDbEntity
  8
0
100
AcDbLine
 10
7.860513827181214
 20
41.63901864454937
 30
0.0
 11
8.01961544647282
 21
41.90010627111878
 31
0.0
  0
LINE
  5
26E
330
1F
100
AcDbEntity
  8
0
100
AcDbLine
 10
8.01961544647282
 20
41.90010627111878
 30
0.0
 11
8.11342497261742
 21
42.19436394184207
 31
0.0
  0
LINE
  5
26F
330
1F
100
AcDbEntity
  8
0
100
AcDbLine
 10
8.11342497261742
 20
42.19436394184207
 30
0.0
 11
8.141942405615028
 21
42.52179165671924
 31
0.0
  0
LINE
  5
270
330
1F
100
AcDbEntity
  8
0
100
AcDbLine
 10
8.141942405615028
 20
42.52179165671924
 30
0.0
 11
8.137379201136405
 21
42.90201626072115
 31
0.0
  0
LINE
  5
271
330
1F
100
AcDbEntity
  8
0
100
AcDbLine
 10
8.11323607028034
 20
42.90172655608731
 30
0.0
 11
7.788094644005725
 21
42.51754567317958
 31
0.0
  0
LINE
  5
272
330
1F
100
AcDbEntity
  8
0
100
AcDbLine
 10
7.788094644005725
 20
42.51754567317958
 30
0.0
 11
7.357821920474598
 21
42.21660979548331
 31
0.0
  0
LINE
  5
273
330
1F
100
AcDbEntity
  8
0
100
AcDbLine
 10
7.357821920474598
 20
42.21660979548331
 30
0.0
 11
6.856870138932639
 21
42.02045896252084
 31
0.0
  0
LINE
  5
274
330
1F
100
AcDbEntity
  8
0
100
AcDbLine
 10
6.856870138932639
 20
42.02045896252084
 30
0.0
 11
6.319691538625545
 21
41.95063321381454
 31
0.0
  0
LINE
  5
275
330
1F
100
AcDbEntity
  8
0
100
AcDbLine
 10
6.319691538625545
 20
41.95063321381454
 30
0.0
 11
5.75283721183834
 21
41.99570469023112
 31
0.0
  0
LINE
  5
276
330
1F
100
AcDbEntity
  8
0
100
AcDbLine
 10
5.75283721183834
 20
41.99570469023112
 30
0.0
 11
5.247359208852299
 21
42.14525949885572
 31
0.0
  0
LINE
  5
277
330
1F
100
AcDbEntity
  8
0
100
AcDbLine
 10
5.247359208852299
 20
42.14525949885572
 30
0.0
 11
4.803257529667439
 21
42.39929763968835
 31
0.0
  0
LINE
  5
278
330
1F
100
AcDbEntity
  8
0
100
AcDbLine
 10
4.803257529667439
 20
42.39929763968835
 30
0.0
 11
4.420532174283743
 21
42.757819112729
 31
0.0
  0
LINE
  5
279
330
1F
100
AcDbEntity
  8
0
100
AcDbLine
 10
4.420532174283743
 20
42.757819112729
 30
0.0
 11
4.111404098752071
 21
43.20852094099691
 31
0.0
  0
LINE
  5
27A
330
1F
100
AcDbEntity
  8
0
100
AcDbLine
 10
4.111404098752071
 20
43.20852094099691
 30
0.0
 11
3.888094259123261
 21
43.73910014751132
 31
0.0
  0
LINE
  5
27B
330
1F
100
AcDbEntity
  8
0
100
AcDbLine
 10
3.888094259123261
 20
43.73910014751132
 30
0.0
 11
3.750602655397325
 21
44.34955673227222
 31
0.0
  0
LINE
  5
27C
330
1F
100
AcDbEntity
  8
0
100
AcDbLine
 10
3.750602655397325
 20
44.34955673227222
 30
0.0
 11
3.698929287574252
 21
45.03989069527962
 31
0.0
  0
LINE
  5
27D
330
1F
100
AcDbEntity
  8
0
100
AcDbLine
 10
3.698929287574252
 20
45.03989069527962
 30
0.0
 11
3.778148556859373
 21
45.98399445869299
 31
0.0
  0
LINE
  5
27E
330
1F
100
AcDbEntity
  8
0
100
AcDbLine
 10
3.778148556859373
 20
45.98399445869299
 30
0.0
 11
4.039853727998902
 21
46.81258243895477
 31
0.0
  0
LINE
  5
27F
330
1F
100
AcDbEntity
  8
0
100
AcDbLine
 10
4.039853727998902
 20
46.81258243895477
 30
0.0
 11
4.464781612280741
 21
47.49599710907363
 31
0.0
  0
LINE
  5
280
330
1F
100
AcDbEntity
  8
0
100
AcDbLine
 10
4.464781612280741
 20
47.49599710907363
 30
0.0
 11
5.03366902099278
 21
48.00458094205825
 31
0.0
  0
LINE
  5
281
330
1F
100
AcDbEntity
  8
0
100
AcDbLine
 10
5.03366902099278
 20
48.00458094205825
 30
0.0
 11
5.708973391715229
 21
48.32279299648168
 31
0.0
  0
LINE
  5
282
330
1F
100
AcDbEntity
  8
0
100
AcDbLine
 10
5.708973391715229
 20
48.32279299648168
 30
0.0
 11
6.453152162028271
 21
48.43509233091695
 31
0.0
  0
LINE
  5
283
330
1F
100
AcDbEntity
  8
0
100
AcDbLine
 10
6.453152162028271
 20
48.43509233091695
 30
0.0
 11
6.953960689955202
 21
48.39168053855693
 31
0.0
  0
LINE
  5
284
330
1F
100
AcDbEntity
  8
0
100
AcDbLine
 10
6.953960689955202
 20
48.39168053855693
 30
0.0
 11
7.388052733354788
 21
48.24862573142961
 31
0.0
  0
LINE
  5
285
330
1F
100
AcDbEntity
  8
0
100
AcDbLine
 10
7.388052733354788
 20
48.24862573142961
 30
0.0
 11
7.755428292227019
 21
48.00592790953501
 31
0.0
  0
LINE
  5
286
330
1F
100
AcDbEntity
  8
0
100
AcDbLine
 10
7.755428292227019
 20
48.00592790953501
 30
0.0
 11
8.05608736657191
 21
47.66358707287313
 31
0.0
  0
LINE
  5
287
330
1F
100
AcDbEntity
  8
0
100
AcDbLine
 10
8.080230497427975
 20
47.66387677750696
 30
0.0
 11
8.072552724813152
 21
48.30361976201811
 31
0.0
  0
LINE
  5
288
330
1F
100
AcDbEntity
  8
0
100
AcDbLine
 10
8.072552724813152
 20
48.30361976201811
 30
0.0
 11
10.63172459555684
 21
48.33432845320469
 31
0.0
  0
LINE
  5
289
330
1F
100
AcDbEntity
  8
0
100
AcDbLine
 10
10.63172459555684
 20
48.33432845320469
 30
0.0
 11
10.6955370264404
 21
43.0172193083526
 31
0.0
  0
LINE
  5
28A
330
1F
100
AcDbEntity
  8
0
100
AcDbLine
 10
8.149787771480701
 20
45.38907144777935
 30
0.0
 11
8.082826602268751
 21
45.87568951027661
 31
0.0
  0
LINE
  5
28B
330
1F
100
AcDbEntity
  8
0
100
AcDbLine
 10
8.082826602268751
 20
45.87568951027661
 30
0.0
 11
7.894980821714669
 21
46.24918768633436
 31
0.0
  0
LINE
  5
28C
330
1F
100
AcDbEntity
  8
0
100
AcDbLine
 10
7.894980821714669
 20
46.24918768633436
 30
0.0
 11
7.607665396586008
 21
46.48567822280866
 31
0.0
  0
LINE
  5
28D
330
1F
100
AcDbEntity
  8
0
100
AcDbLine
 10
7.607665396586008
 20
46.48567822280866
 30
0.0
 11
7.242295293650312
 21
46.5612733665556
 31
0.0
  0
LINE
  5
28E
330
1F
100
AcDbEntity
  8
0
100
AcDbLine
 10
7.242295293650312
 20
46.5612733665556
 30
0.0
 11
6.852637271991572
 21
46.46001879400124
 31
0.0
  0
LINE
  5
28F
330
1F
100
AcDbEntity
  8
0
100
AcDbLine
 10
6.852637271991572
 20
46.46001879400124
 30
0.0
 11
6.552815917833968
 21
46.16668444315628
 31
0.0
  0
LINE
  5
290
330
1F
100
AcDbEntity
  8
0
100
AcDbLine
 10
6.552815917833968
 20
46.16668444315628
 30
0.0
 11
6.363576203636677
 21
45.71320918924212
 31
0.0
  0
LINE
  5
291
330
1F
100
AcDbEntity
  8
0
100
AcDbLine
 10
6.363576203636677
 20
45.71320918924212
 30
0.0
 11
6.305663101858874
 21
45.13153190748022
 31
0.0
  0
LINE
  5
292
330
1F
100
AcDbEntity
  8
0
100
AcDbLine
 10
6.305663101858874
 20
45.13153190748022
 30
0.0
 11
6.366413470054526
 21
44.59654987615762
 31
0.0
  0
LINE
  5
293
330
1F
100
AcDbEntity
  8
0
100
AcDbLine
 10
6.366413470054526
 20
44.59654987615762
 30
0.0
 11
6.534323074851518
 21
44.18659539476728
 31
0.0
  0
LINE
  5
294
330
1F
100
AcDbEntity
  8
0
100
AcDbLine
 10
6.534323074851518
 20
44.18659539476728
 30
0.0
 11
6.818137755098119
 21
43.92742717503906
 31
0.0
  0
LINE
  5
295
330
1F
100
AcDbEntity
  8
0
100
AcDbLine
 10
6.818137755098119
 20
43.92742717503906
 30
0.0
 11
7.226603349642601
 21
43.84480392870286
 31
0.0
  0
LINE
  5
296
330
1F
100
AcDbEntity
  8
0
100
AcDbLine
 10
7.226603349642601
 20
43.84480392870286
 30
0.0
 11
7.618606275613353
 21
43.93929593599517
 31
0.0
  0
LINE
  5
297
330
1F
100
AcDbEntity
  8
0
100
AcDbLine
 10
7.618606275613353
 20
43.93929593599517
 30
0.0
 11
7.91339077727898
 21
44.2121977387371
 31
0.0
  0
LINE
  5
298
330
1F
100
AcDbEntity
  8
0
100
AcDbLine
 10
7.91339077727898
 20
44.2121977387371
 30
0.0
 11
8.096211448985747
 21
44.63466054345299
 31
0.0
  0
LINE
  5
299
330
1F
100
AcDbEntity
  8
0
100
AcDbLine
 10
8.096211448985747
 20
44.63466054345299
 30
0.0
 11
8.152322885079936
 21
45.17783555666718
 31
0.0
  0
LINE
  5
29A
330
1F
100
AcDbEntity
  8
0
100
AcDbLine
 10
8.152322885079936
 20
45.17783555666718
 30
0.0
 11
8.149787771480701
 21
45.38907144777935
 31
0.0
  0
LINE
  5
29B
330
1F
100
AcDbEntity
  8
0
100
AcDbLine
 10
15.92684682391438
 20
42.21681843744698
 30
0.0
 11
15.88454664271574
 21
45.74144016343293
 31
0.0
  0
LINE
  5
29C
330
1F
100
AcDbEntity
  8
0
100
AcDbLine
 10
15.88454664271574
 20
45.74144016343293
 30
0.0
 11
15.83556157686094
 21
46.14489918890123
 31
0.0
  0
LINE
  5
29D
330
1F
100
AcDbEntity
  8
0
100
AcDbLine
 10
15.83556157686094
 20
46.14489918890123
 30
0.0
 11
15.69968844731607
 21
46.4318736555872
 31
0.0
  0
LINE
  5
29E
330
1F
100
AcDbEntity
  8
0
100
AcDbLine
 10
15.69968844731607
 20
46.4318736555872
 30
0.0
 11
15.47692725408113
 21
46.60236356349085
 31
0.0
  0
LINE
  5
29F
330
1F
100
AcDbEntity
  8
0
100
AcDbLine
 10
15.47692725408113
 20
46.60236356349085
 30
0.0
 11
15.16727799715611
 21
46.65636891261216
 31
0.0
  0
LINE
  5
2A0
330
1F
100
AcDbEntity
  8
0
100
AcDbLine
 10
15.16727799715611
 20
46.65636891261216
 30
0.0
 11
14.86476761178789
 21
46.58709548912546
 31
0.0
  0
LINE
  5
2A1
330
1F
100
AcDbEntity
  8
0
100
AcDbLine
 10
14.86476761178789
 20
46.58709548912546
 30
0.0
 11
14.6453156850813
 21
46.38753180072968
 31
0.0
  0
LINE
  5
2A2
330
1F
100
AcDbEntity
  8
0
100
AcDbLine
 10
14.6453156850813
 20
46.38753180072968
 30
0.0
 11
14.51310500294051
 21
46.08639989512317
 31
0.0
  0
LINE
  5
2A3
330
1F
100
AcDbEntity
  8
0
100
AcDbLine
 10
14.51310500294051
 20
46.08639989512317
 30
0.0
 11
14.47231835126974
 21
45.71242182000428
 31
0.0
  0
LINE
  5
2A4
330
1F
100
AcDbEntity
  8
0
100
AcDbLine
 10
14.47231835126974
 20
45.71242182000428
 30
0.0
 11
14.51447366883413
 21
42.1998707163676
 31
0.0
  0
LINE
  5
2A5
330
1F
100
AcDbEntity
  8
0
100
AcDbLine
 10
14.51447366883413
 20
42.1998707163676
 30
0.0
 11
11.94323023266241
 21
42.16901717286409
 31
0.0
  0
LINE
  5
2A6
330
1F
100
AcDbEntity
  8
0
100
AcDbLine
 10
11.94323023266241
 20
42.16901717286409
 30
0.0
 11
11.83342359790704
 21
51.31854891360845
 31
0.0
  0
LINE
  5
2A7
330
1F
100
AcDbEntity
  8
0
100
AcDbLine
 10
11.83342359790704
 20
51.31854891360845
 30
0.0
 11
14.40466703407876
 21
51.34940245711195
 31
0.0
  0
LINE
  5
2A8
330
1F
100
AcDbEntity
  8
0
100
AcDbLine
 10
14.40466703407876
 20
51.34940245711195
 30
0.0
 11
14.45037151068209
 21
47.54112110591822
 31
0.0
  0
LINE
  5
2A9
330
1F
100
AcDbEntity
  8
0
100
AcDbLine
 10
14.47451464153816
 20
47.54141081055206
 30
0.0
 11
14.83688174103269
 21
47.96753712127575
 31
0.0
  0
LINE
  5
2AA
330
1F
100
AcDbEntity
  8
0
100
AcDbLine
 10
14.83688174103269
 20
47.96753712127575
 30
0.0
 11
15.27149116807938
 21
48.28437001042429
 31
0.0
  0
LINE
  5
2AB
330
1F
100
AcDbEntity
  8
0
100
AcDbLine
 10
15.27149116807938
 20
48.28437001042429
 30
0.0
 11
15.76034422226187
 21
48.48263923276033
 31
0.0
  0
LINE
  5
2AC
330
1F
100
AcDbEntity
  8
0
100
AcDbLine
 10
15.76034422226187
 20
48.48263923276033
 30
0.0
 11
16.2854422031638
 21
48.55307454304655
 31
0.0
  0
LINE
  5
2AD
330
1F
100
AcDbEntity
  8
0
100
AcDbLine
 10
16.2854422031638
 20
48.55307454304655
 30
0.0
 11
16.75709261555955
 21
48.51855577003509
 31
0.0
  0
LINE
  5
2AE
330
1F
100
AcDbEntity
  8
0
100
AcDbLine
 10
16.75709261555955
 20
48.51855577003509
 30
0.0
 11
17.17010392221979
 21
48.40297670869655
 31
0.0
  0
LINE
  5
2AF
330
1F
100
AcDbEntity
  8
0
100
AcDbLine
 10
17.17010392221979
 20
48.40297670869655
 30
0.0
 11
17.52447612314453
 21
48.20633735903091
 31
0.0
  0
LINE
  5
2B0
330
1F
100
AcDbEntity
  8
0
100
AcDbLine
 10
17.52447612314453
 20
48.20633735903091
 30
0.0
 11
17.82020921833377
 21
47.92863772103819
 31
0.0
  0
LINE
  5
2B1
330
1F
100
AcDbEntity
  8
0
100
AcDbLine
 10
17.82020921833377
 20
47.92863772103819
 30
0.0
 11
18.05425815449906
 21
47.57210482332963
 31
0.0
  0
LINE
  5
2B2
330
1F
100
AcDbEntity
  8
0
100
AcDbLine
 10
18.05425815449906
 20
47.57210482332963
 30
0.0
 11
18.223577878352
 21
47.1389656945165
 31
0.0
  0
LINE
  5
2B3
330
1F
100
AcDbEntity
  8
0
100
AcDbLine
 10
18.223577878352
 20
47.1389656945165
 30
0.0
 11
18.32816838989257
 21
46.62922033459879
 31
0.0
  0
LINE
  5
2B4
330
1F
100
AcDbEntity
  8
0
100
AcDbLine
 10
18.32816838989257
 20
46.62922033459879
 30
0.0
 11
18.36802968912076
 21
46.04286874357652
 31
0.0
  0
LINE
  5
2B5
330
1F
100
AcDbEntity
  8
0
100
AcDbLine
 10
18.36802968912076
 20
46.04286874357652
 30
0.0
 11
18.41358930208984
 21
42.24665801473206
 31
0.0
  0
LINE
  5
2B6
330
1F
100
AcDbEntity
  8
0
100
AcDbLine
 10
18.41358930208984
 20
42.24665801473206
 30
0.0
 11
15.92684682391438
 21
42.21681843744698
 31
0.0
  0
LINE
  5
2B7
330
1F
100
AcDbEntity
  8
0
100
AcDbLine
 10
23.9232448745487
 20
42.39727745384993
 30
0.0
 11
23.35176495987069
 21
42.23046122266854
 31
0.0
  0
LINE
  5
2B8
330
1F
100
AcDbEntity
  8
0
100
AcDbLine
 10
23.35176495987069
 20
42.23046122266854
 30
0.0
 11
22.39298090605581
 21
42.14350407379065
 31
0.0
  0
LINE
  5
2B9
330
1F
100
AcDbEntity
  8
0
100
AcDbLine
 10
22.39298090605581
 20
42.14350407379065
 30
0.0
 11
21.88458842214936
 21
42.17437524083748
 31
0.0
  0
LINE
  5
2BA
330
1F
100
AcDbEntity
  8
0
100
AcDbLine
 10
21.88458842214936
 20
42.17437524083748
 30
0.0
 11
21.43378029352522
 21
42.27988059818363
 31
0.0
  0
LINE
  5
2BB
330
1F
100
AcDbEntity
  8
0
100
AcDbLine
 10
21.43378029352522
 20
42.27988059818363
 30
0.0
 11
21.04055652018342
 21
42.46002014582911
 31
0.0
  0
LINE
  5
2BC
330
1F
100
AcDbEntity
  8
0
100
AcDbLine
 10
21.04055652018342
 20
42.46002014582911
 30
0.0
 11
20.70491710212391
 21
42.71479388377392
 31
0.0
  0
LINE
  5
2BD
330
1F
100
AcDbEntity
  8
0
100
AcDbLine
 10
20.70491710212391
 20
42.71479388377392
 30
0.0
 11
20.43560638182669
 21
43.03864782039464
 31
0.0
  0
LINE
  5
2BE
330
1F
100
AcDbEntity
  8
0
100
AcDbLine
 10
20.43560638182669
 20
43.03864782039464
 30
0.0
 11
20.24136870177168
 21
43.42602796406781
 31
0.0
  0
LINE
  5
2BF
330
1F
100
AcDbEntity
  8
0
100
AcDbLine
 10
20.24136870177168
 20
43.42602796406781
 30
0.0
 11
20.1222040619589
 21
43.87693431479344
 31
0.0
  0
LINE
  5
2C0
330
1F
100
AcDbEntity
  8
0
100
AcDbLine
 10
20.1222040619589
 20
43.87693431479344
 30
0.0
 11
20.07811246238835
 21
44.39136687257155
 31
0.0
  0
LINE
  5
2C1
330
1F
100
AcDbEntity
  8
0
100
AcDbLine
 10
20.07811246238835
 20
44.39136687257155
 30
0.0
 11
20.05080566733374
 21
46.66667918540837
 31
0.0
  0
LINE
  5
2C2
330
1F
100
AcDbEntity
  8
0
100
AcDbLine
 10
20.05080566733374
 20
46.66667918540837
 30
0.0
 11
19.07904465037683
 21
46.65501857389648
 31
0.0
  0
LINE
  5
2C3
330
1F
100
AcDbEntity
  8
0
100
AcDbLine
 10
19.07904465037683
 20
46.65501857389648
 30
0.0
 11
19.05767726432614
 21
48.43543537041335
 31
0.0
  0
LINE
  5
2C4
330
1F
100
AcDbEntity
  8
0
100
AcDbLine
 10
19.05767726432614
 20
48.43543537041335
 30
0.0
 11
20.02943828128306
 21
48.44709598192524
 31
0.0
  0
LINE
  5
2C5
330
1F
100
AcDbEntity
  8
0
100
AcDbLine
 10
20.02943828128306
 20
48.44709598192524
 30
0.0
 11
20.01487948604175
 21
49.66019352802657
 31
0.0
  0
LINE
  5
2C6
330
1F
100
AcDbEntity
  8
0
100
AcDbLine
 10
20.01487948604175
 20
49.66019352802657
 30
0.0
 11
22.54150613514333
 21
50.3907086108368
 31
0.0
  0
LINE
  5
2C7
330
1F
100
AcDbEntity
  8
0
100
AcDbLine
 10
22.54150613514333
 20
50.3907086108368
 30
0.0
 11
22.56446702117068
 21
48.47751496847799
 31
0.0
  0
LINE
  5
2C8
330
1F
100
AcDbEntity
  8
0
100
AcDbLine
 10
22.56446702117068
 20
48.47751496847799
 30
0.0
 11
23.85008873925654
 21
48.49294174022974
 31
0.0
  0
LINE
  5
2C9
330
1F
100
AcDbEntity
  8
0
100
AcDbLine
 10
23.85008873925654
 20
48.49294174022974
 30
0.0
 11
23.87145612530722
 21
46.71252494371286
 31
0.0
  0
LINE
  5
2CA
330
1F
100
AcDbEntity
  8
0
100
AcDbLine
 10
23.87145612530722
 20
46.71252494371286
 30
0.0
 11
22.58583440722136
 21
46.69709817196112
 31
0.0
  0
LINE
  5
2CB
330
1F
100
AcDbEntity
  8
0
100
AcDbLine
 10
22.58583440722136
 20
46.69709817196112
 30
0.0
 11
22.60807097507749
 21
44.84425764134863
 31
0.0
  0
LINE
  5
2CC
330
1F
100
AcDbEntity
  8
0
100
AcDbLine
 10
22.60807097507749
 20
44.84425764134863
 30
0.0
 11
22.65271327617619
 21
44.48828142503154
 31
0.0
  0
LINE
  5
2CD
330
1F
100
AcDbEntity
  8
0
100
AcDbLine
 10
22.65271327617619
 20
44.48828142503154
 30
0.0
 11
22.77686188416097
 21
44.23511978465577
 31
0.0
  0
LINE
  5
2CE
330
1F
100
AcDbEntity
  8
0
100
AcDbLine
 10
22.77686188416097
 20
44.23511978465577
 30
0.0
 11
22.98051679903183
 21
44.08477272022133
 31
0.0
  0
LINE
  5
2CF
330
1F
100
AcDbEntity
  8
0
100
AcDbLine
 10
22.98051679903183
 20
44.08477272022133
 30
0.0
 11
23.26367802078876
 21
44.03724023172822
 31
0.0
  0
LINE
  5
2D0
330
1F
100
AcDbEntity
  8
0
100
AcDbLine
 10
23.26367802078876
 20
44.03724023172822
 30
0.0
 11
23.90187748849802
 21
44.1776942503668
 31
0.0
  0
LINE
  5
2D1
330
1F
100
AcDbEntity
  8
0
100
AcDbLine
 10
23.90187748849802
 20
44.1776942503668
 30
0.0
 11
23.9232448745487
 21
42.39727745384993
 31
0.0
  0
LINE
  5
2D2
330
1F
100
AcDbEntity
  8
0
100
AcDbLine
 10
2.670741672038284
 20
27.54254907208724
 30
0.0
 11
46.14106684414044
 21
28.06416968176616
 31
0.0
  0
LINE
  5
2D3
330
1F
100
AcDbEntity
  8
0
100
AcDbLine
 10
-22.03608224643428
 20
24.99609421014631
 30
0.0
 11
21.43311920905419
 21
25.51770133582798
 31
0.0
  0
LINE
  5
2D4
330
1F
100
AcDbEntity
  8
0
100
AcDbLine
 10
-46.79915151779788
 20
26.94893686090014
 30
0.0
 11
-3.328826345695722
 21
27.47055747057908
 31
0.0
  0
LINE
  5
2D5
330
1F
100
AcDbEntity
  8
0
100
AcDbLine
 10
27.43268722678821
 20
25.58969293733616
 30
0.0
 11
52.16763382170627
 21
25.8864990429297
 31
0.0
  0
LINE
  5
2D6
330
1F
100
AcDbEntity
  8
0
100
AcDbLine
 10
-52.74702120435716
 20
24.62757939826897
 30
0.0
 11
-28.03565121049317
 21
24.92410259728274
 31
0.0
  0
LINE
  5
2D7
330
1F
100
AcDbEntity
  8
0
100
AcDbLine
 10
-52.74702120435716
 20
24.62757939826897
 30
0.0
 11
-52.69302328469348
 21
20.1282549175797
 31
0.0
  0
LINE
  5
2D8
330
1F
100
AcDbEntity
  8
0
100
AcDbLine
 10
52.16763382170627
 20
25.8864990429297
 30
0.0
 11
52.22163174136995
 21
21.38717456224044
 31
0.0
  0
LINE
  5
2D9
330
1F
100
AcDbEntity
  8
0
100
AcDbLine
 10
2.724739591701957
 20
23.04322459139797
 30
0.0
 11
46.19506476380411
 21
23.56484520107691
 31
0.0
  0
LINE
  5
2DA
330
1F
100
AcDbEntity
  8
0
100
AcDbLine
 10
-21.98208432677061
 20
20.49676972945704
 30
0.0
 11
21.48711712871787
 21
21.01837685513871
 31
0.0
  0
LINE
  5
2DB
330
1F
100
AcDbEntity
  8
0
100
AcDbLine
 10
27.48668514645188
 20
21.09036845664689
 30
0.0
 11
52.22163174136995
 21
21.38717456224044
 31
0.0
  0
LINE
  5
2DC
330
1F
100
AcDbEntity
  8
0
100
AcDbLine
 10
-52.69302328469348
 20
20.1282549175797
 30
0.0
 11
-27.9816532908295
 21
20.42477811659348
 31
0.0
  0
LINE
  5
2DD
330
1F
100
AcDbEntity
  8
0
100
AcDbLine
 10
-46.74515359813421
 20
22.44961238021087
 30
0.0
 11
-3.274828426032049
 21
22.97123298988981
 31
0.0
  0
LINE
  5
2DE
330
1F
100
AcDbEntity
  8
0
100
AcDbLine
 10
-52.69302328469348
 20
20.1282549175797
 30
0.0
 11
-52.63902536502981
 21
15.62893043689044
 31
0.0
  0
LINE
  5
2DF
330
1F
100
AcDbEntity
  8
0
100
AcDbLine
 10
52.22163174136995
 20
21.38717456224044
 30
0.0
 11
52.27562966103362
 21
16.88785008155118
 31
0.0
  0
LINE
  5
2E0
330
1F
100
AcDbEntity
  8
0
100
AcDbLine
 10
-21.92808640710694
 20
15.99744524876778
 30
0.0
 11
21.54111504838154
 21
16.51905237444946
 31
0.0
  0
LINE
  5
2E1
330
1F
100
AcDbEntity
  8
0
100
AcDbLine
 10
2.778737511365629
 20
18.54390011070872
 30
0.0
 11
46.24906268346778
 21
19.06552072038765
 31
0.0
  0
LINE
  5
2E2
330
1F
100
AcDbEntity
  8
0
100
AcDbLine
 10
27.54068306611555
 20
16.59104397595764
 30
0.0
 11
52.27562966103362
 21
16.88785008155118
 31
0.0
  0
LINE
  5
2E3
330
1F
100
AcDbEntity
  8
0
100
AcDbLine
 10
-52.63902536502981
 20
15.62893043689044
 30
0.0
 11
-27.92765537116582
 21
15.92545363590422
 31
0.0
  0
LINE
  5
2E4
330
1F
100
AcDbEntity
  8
0
100
AcDbLine
 10
-46.69115567847054
 20
17.95028789952162
 30
0.0
 11
-3.220830506368377
 21
18.47190850920055
 31
0.0
  0
LINE
  5
2E5
330
1F
100
AcDbEntity
  8
0
100
AcDbLine
 10
-52.63902536502981
 20
15.62893043689044
 30
0.0
 11
-52.58502744536614
 21
11.12960595620119
 31
0.0
  0
LINE
  5
2E6
330
1F
100
AcDbEntity
  8
0
100
AcDbLine
 10
52.27562966103362
 20
16.88785008155118
 30
0.0
 11
52.32962758069731
 21
12.38852560086192
 31
0.0
  0
LINE
  5
2E7
330
1F
100
AcDbEntity
  8
0
100
AcDbLine
 10
2.832735431029302
 20
14.04457563001945
 30
0.0
 11
46.30306060313146
 21
14.56619623969839
 31
0.0
  0
LINE
  5
2E8
330
1F
100
AcDbEntity
  8
0
100
AcDbLine
 10
-21.87408848744326
 20
11.49812076807853
 30
0.0
 11
21.59511296804521
 21
12.0197278937602
 31
0.0
  0
LINE
  5
2E9
330
1F
100
AcDbEntity
  8
0
100
AcDbLine
 10
-52.58502744536614
 20
11.12960595620119
 30
0.0
 11
-27.87365745150215
 21
11.42612915521496
 31
0.0
  0
LINE
  5
2EA
330
1F
100
AcDbEntity
  8
0
100
AcDbLine
 10
-46.63715775880686
 20
13.45096341883235
 30
0.0
 11
-3.166832586704699
 21
13.97258402851129
 31
0.0
  0
LINE
  5
2EB
330
1F
100
AcDbEntity
  8
0
100
AcDbLine
 10
27.59468098577922
 20
12.09171949526838
 30
0.0
 11
52.32962758069731
 21
12.38852560086192
 31
0.0
  0
LINE
  5
2EC
330
1F
100
AcDbEntity
  8
0
100
AcDbLine
 10
-52.58502744536614
 20
11.12960595620119
 30
0.0
 11
-52.53102952570246
 21
6.630281475511919
 31
0.0
  0
LINE
  5
2ED
330
1F
100
AcDbEntity
  8
0
100
AcDbLine
 10
52.32962758069731
 20
12.38852560086192
 30
0.0
 11
52.38362550036096
 21
7.889201120172656
 31
0.0
  0
LINE
  5
2EE
330
1F
100
AcDbEntity
  8
0
100
AcDbLine
 10
27.6486789054429
 20
7.592395014579111
 30
0.0
 11
52.38362550036096
 21
7.889201120172656
 31
0.0
  0
LINE
  5
2EF
330
1F
100
AcDbEntity
  8
0
100
AcDbLine
 10
-52.47703160603879
 20
2.130956994822663
 30
0.0
 11
-27.76566161217481
 21
2.427480193836441
 31
0.0
  0
LINE
  5
2F0
330
1F
100
AcDbEntity
  8
0
100
AcDbLine
 10
-46.52916191947951
 20
4.452314457453828
 30
0.0
 11
-3.058836747377354
 21
4.973935067132762
 31
0.0
  0
LINE
  5
2F1
330
1F
100
AcDbEntity
  8
0
100
AcDbLine
 10
-52.53102952570246
 20
6.630281475511919
 30
0.0
 11
-27.81965953183848
 21
6.926804674525697
 31
0.0
  0
LINE
  5
2F2
330
1F
100
AcDbEntity
  8
0
100
AcDbLine
 10
27.70267682510657
 20
3.093070533889855
 30
0.0
 11
52.43762342002465
 21
3.3898766394834
 31
0.0
  0
LINE
  5
2F3
330
1F
100
AcDbEntity
  8
0
100
AcDbLine
 10
3.048727109683992
 20
-3.952722292737584
 30
0.0
 11
46.51905228178615
 21
-3.43110168305865
 31
0.0
  0
LINE
  5
2F4
330
1F
100
AcDbEntity
  8
0
100
AcDbLine
 10
-21.65809680878857
 20
-6.49917715467852
 30
0.0
 11
21.8111046466999
 21
-5.977570028996845
 31
0.0
  0
LINE
  5
2F5
330
1F
100
AcDbEntity
  8
0
100
AcDbLine
 10
-21.82009056777958
 20
6.998796287389259
 30
0.0
 11
21.64911088770888
 21
7.520403413070934
 31
0.0
  0
LINE
  5
2F6
330
1F
100
AcDbEntity
  8
0
100
AcDbLine
 10
2.886733350692974
 20
9.545251149330195
 30
0.0
 11
46.35705852279514
 21
10.06687175900913
 31
0.0
  0
LINE
  5
2F7
330
1F
100
AcDbEntity
  8
0
100
AcDbLine
 10
-46.58315983914319
 20
8.951638938143095
 30
0.0
 11
-3.112834667041027
 21
9.47325954782203
 31
0.0
  0
LINE
  5
2F8
330
1F
100
AcDbEntity
  8
0
100
AcDbLine
 10
2.940731270356646
 20
5.045926668640928
 30
0.0
 11
46.41105644245881
 21
5.567547278319862
 31
0.0
  0
LINE
  5
2F9
330
1F
100
AcDbEntity
  8
0
100
AcDbLine
 10
-21.71209472845224
 20
-1.999852673989265
 30
0.0
 11
21.75710672703623
 21
-1.478245548307589
 31
0.0
  0
LINE
  5
2FA
330
1F
100
AcDbEntity
  8
0
100
AcDbLine
 10
2.994729190020319
 20
0.5466021879516717
 30
0.0
 11
46.46505436212248
 21
1.068222797630606
 31
0.0
  0
LINE
  5
2FB
330
1F
100
AcDbEntity
  8
0
100
AcDbLine
 10
27.75667474477024
 20
-1.406253946799412
 30
0.0
 11
52.49162133968831
 21
-1.109447841205868
 31
0.0
  0
LINE
  5
2FC
330
1F
100
AcDbEntity
  8
0
100
AcDbLine
 10
-21.76609264811591
 20
2.499471806700003
 30
0.0
 11
21.70310880737255
 21
3.021078932381678
 31
0.0
  0
LINE
  5
2FD
330
1F
100
AcDbEntity
  8
0
100
AcDbLine
 10
-52.42303368637512
 20
-2.368367485866604
 30
0.0
 11
-27.71166369251113
 21
-2.071844286852826
 31
0.0
  0
LINE
  5
2FE
330
1F
100
AcDbEntity
  8
0
100
AcDbLine
 10
-52.36903576671145
 20
-6.86769196655586
 30
0.0
 11
-27.65766577284746
 21
-6.571168767542082
 31
0.0
  0
LINE
  5
2FF
330
1F
100
AcDbEntity
  8
0
100
AcDbLine
 10
27.81067266443391
 20
-5.905578427488668
 30
0.0
 11
52.54561925935199
 21
-5.608772321895124
 31
0.0
  0
LINE
  5
300
330
1F
100
AcDbEntity
  8
0
100
AcDbLine
 10
-46.47516399981584
 20
-0.047010023235428
 30
0.0
 11
-3.004838827713681
 21
0.474610586443506
 31
0.0
  0
LINE
  5
301
330
1F
100
AcDbEntity
  8
0
100
AcDbLine
 10
-46.42116608015217
 20
-4.546334503924684
 30
0.0
 11
-2.950840908050009
 21
-4.02471389424575
 31
0.0
  0
LINE
  5
302
330
1F
100
AcDbEntity
  8
0
100
AcDbLine
 10
-52.47703160603879
 20
2.130956994822663
 30
0.0
 11
-52.42303368637512
 21
-2.368367485866604
 31
0.0
  0
LINE
  5
303
330
1F
100
AcDbEntity
  8
0
100
AcDbLine
 10
-52.53102952570246
 20
6.630281475511919
 30
0.0
 11
-52.47703160603879
 21
2.130956994822663
 31
0.0
  0
LINE
  5
304
330
1F
100
AcDbEntity
  8
0
100
AcDbLine
 10
52.38362550036096
 20
7.889201120172656
 30
0.0
 11
52.43762342002465
 21
3.3898766394834
 31
0.0
  0
LINE
  5
305
330
1F
100
AcDbEntity
  8
0
100
AcDbLine
 10
-52.36903576671145
 20
-6.86769196655586
 30
0.0
 11
-52.31503784704778
 21
-11.36701644724513
 31
0.0
  0
LINE
  5
306
330
1F
100
AcDbEntity
  8
0
100
AcDbLine
 10
-52.42303368637512
 20
-2.368367485866604
 30
0.0
 11
-52.36903576671145
 21
-6.86769196655586
 31
0.0
  0
LINE
  5
307
330
1F
100
AcDbEntity
  8
0
100
AcDbLine
 10
52.43762342002465
 20
3.3898766394834
 30
0.0
 11
52.49162133968831
 21
-1.109447841205868
 31
0.0
  0
LINE
  5
308
330
1F
100
AcDbEntity
  8
0
100
AcDbLine
 10
52.49162133968831
 20
-1.109447841205868
 30
0.0
 11
52.54561925935199
 21
-5.608772321895124
 31
0.0
  0
LINE
  5
309
330
1F
100
AcDbEntity
  8
0
100
AcDbLine
 10
52.54561925935199
 20
-5.608772321895124
 30
0.0
 11
52.59961717901567
 21
-10.10809680258439
 31
0.0
  0
LINE
  5
30A
330
1F
100
AcDbEntity
  8
0
100
AcDbLine
 10
-21.49610304979755
 20
-19.9971505967463
 30
0.0
 11
21.97309840569092
 21
-19.47554347106463
 31
0.0
  0
LINE
  5
30B
330
1F
100
AcDbEntity
  8
0
100
AcDbLine
 10
-52.2610399273841
 20
-15.86634092793438
 30
0.0
 11
-27.54966993352012
 21
-15.56981772892061
 31
0.0
  0
LINE
  5
30C
330
1F
100
AcDbEntity
  8
0
100
AcDbLine
 10
3.21072086867502
 20
-17.45069573480538
 30
0.0
 11
46.68104604077718
 21
-16.92907512512644
 31
0.0
  0
LINE
  5
30D
330
1F
100
AcDbEntity
  8
0
100
AcDbLine
 10
27.97266642342493
 20
-19.40355186955645
 30
0.0
 11
52.70761301834302
 21
-19.1067457639629
 31
0.0
  0
LINE
  5
30E
330
1F
100
AcDbEntity
  8
0
100
AcDbLine
 10
27.86467058409758
 20
-10.40490290817793
 30
0.0
 11
52.59961717901567
 21
-10.10809680258439
 31
0.0
  0
LINE
  5
30F
330
1F
100
AcDbEntity
  8
0
100
AcDbLine
 10
-46.31317024082482
 20
-13.54498346530321
 30
0.0
 11
-2.842845068722665
 21
-13.02336285562427
 31
0.0
  0
LINE
  5
310
330
1F
100
AcDbEntity
  8
0
100
AcDbLine
 10
27.91866850376126
 20
-14.90422738886719
 30
0.0
 11
52.65361509867934
 21
-14.60742128327365
 31
0.0
  0
LINE
  5
311
330
1F
100
AcDbEntity
  8
0
100
AcDbLine
 10
3.264718788338692
 20
-21.95002021549463
 30
0.0
 11
46.73504396044085
 21
-21.4283996058157
 31
0.0
  0
LINE
  5
312
330
1F
100
AcDbEntity
  8
0
100
AcDbLine
 10
-21.44210513013388
 20
-24.49647507743556
 30
0.0
 11
22.02709632535459
 21
-23.97486795175389
 31
0.0
  0
LINE
  5
313
330
1F
100
AcDbEntity
  8
0
100
AcDbLine
 10
-21.6040988891249
 20
-10.99850163536779
 30
0.0
 11
21.86510256636357
 21
-10.47689450968611
 31
0.0
  0
LINE
  5
314
330
1F
100
AcDbEntity
  8
0
100
AcDbLine
 10
3.102725029347675
 20
-8.45204677342685
 30
0.0
 11
46.57305020144983
 21
-7.930426163747917
 31
0.0
  0
LINE
  5
315
330
1F
100
AcDbEntity
  8
0
100
AcDbLine
 10
-46.3671681604885
 20
-9.04565898461395
 30
0.0
 11
-2.896842988386337
 21
-8.524038374935017
 31
0.0
  0
LINE
  5
316
330
1F
100
AcDbEntity
  8
0
100
AcDbLine
 10
-52.31503784704778
 20
-11.36701644724513
 30
0.0
 11
-27.60366785318379
 21
-11.07049324823135
 31
0.0
  0
LINE
  5
317
330
1F
100
AcDbEntity
  8
0
100
AcDbLine
 10
3.156722949011348
 20
-12.95137125411611
 30
0.0
 11
46.6270481211135
 21
-12.42975064443717
 31
0.0
  0
LINE
  5
318
330
1F
100
AcDbEntity
  8
0
100
AcDbLine
 10
-46.20517440149748
 20
-22.54363242668173
 30
0.0
 11
-2.734849229395319
 21
-22.0220118170028
 31
0.0
  0
LINE
  5
319
330
1F
100
AcDbEntity
  8
0
100
AcDbLine
 10
28.0266643430886
 20
-23.90287635024572
 30
0.0
 11
52.76161093800668
 21
-23.60607024465217
 31
0.0
  0
LINE
  5
31A
330
1F
100
AcDbEntity
  8
0
100
AcDbLine
 10
-46.25917232116115
 20
-18.04430794599248
 30
0.0
 11
-2.788847149058992
 21
-17.52268733631354
 31
0.0
  0
LINE
  5
31B
330
1F
100
AcDbEntity
  8
0
100
AcDbLine
 10
-52.20704200772043
 20
-20.36566540862364
 30
0.0
 11
-27.49567201385644
 21
-20.06914220960986
 31
0.0
  0
LINE
  5
31C
330
1F
100
AcDbEntity
  8
0
100
AcDbLine
 10
-52.15304408805676
 20
-24.86498988931291
 30
0.0
 11
-27.44167409419277
 21
-24.56846669029913
 31
0.0
  0
LINE
  5
31D
330
1F
100
AcDbEntity
  8
0
100
AcDbLine
 10
-21.55010096946122
 20
-15.49782611605704
 30
0.0
 11
21.91910048602725
 21
-14.97621899037537
 31
0.0
  0
LINE
  5
31E
330
1F
100
AcDbEntity
  8
0
100
AcDbLine
 10
-52.15304408805676
 20
-24.86498988931291
 30
0.0
 11
-52.09904616839309
 21
-29.36431437000216
 31
0.0
  0
LINE
  5
31F
330
1F
100
AcDbEntity
  8
0
100
AcDbLine
 10
-52.2610399273841
 20
-15.86634092793438
 30
0.0
 11
-52.20704200772043
 21
-20.36566540862364
 31
0.0
  0
LINE
  5
320
330
1F
100
AcDbEntity
  8
0
100
AcDbLine
 10
-52.31503784704778
 20
-11.36701644724513
 30
0.0
 11
-52.2610399273841
 21
-15.86634092793438
 31
0.0
  0
LINE
  5
321
330
1F
100
AcDbEntity
  8
0
100
AcDbLine
 10
52.70761301834302
 20
-19.1067457639629
 30
0.0
 11
52.76161093800668
 21
-23.60607024465217
 31
0.0
  0
LINE
  5
322
330
1F
100
AcDbEntity
  8
0
100
AcDbLine
 10
52.59961717901567
 20
-10.10809680258439
 30
0.0
 11
52.65361509867934
 21
-14.60742128327365
 31
0.0
  0
LINE
  5
323
330
1F
100
AcDbEntity
  8
0
100
AcDbLine
 10
-52.20704200772043
 20
-20.36566540862364
 30
0.0
 11
-52.15304408805676
 21
-24.86498988931291
 31
0.0
  0
LINE
  5
324
330
1F
100
AcDbEntity
  8
0
100
AcDbLine
 10
52.76161093800668
 20
-23.60607024465217
 30
0.0
 11
52.81560885767036
 21
-28.10539472534143
 31
0.0
  0
LINE
  5
325
330
1F
100
AcDbEntity
  8
0
100
AcDbLine
 10
52.65361509867934
 20
-14.60742128327365
 30
0.0
 11
52.70761301834302
 21
-19.1067457639629
 31
0.0
  0
LINE
  5
326
330
1F
100
AcDbEntity
  8
0
100
AcDbLine
 10
28.08066226275227
 20
-28.40220083093497
 30
0.0
 11
52.81560885767036
 21
-28.10539472534143
 31
0.0
  0
LINE
  5
327
330
1F
100
AcDbEntity
  8
0
100
AcDbLine
 10
-46.09717856217014
 20
-31.54228138806025
 30
0.0
 11
-2.626853390067969
 21
-31.02066077838132
 31
0.0
  0
LINE
  5
328
330
1F
100
AcDbEntity
  8
0
100
AcDbLine
 10
-46.15117648183381
 20
-27.04295690737099
 30
0.0
 11
-2.680851309731647
 21
-26.52133629769206
 31
0.0
  0
LINE
  5
329
330
1F
100
AcDbEntity
  8
0
100
AcDbLine
 10
-45.98918272284278
 20
-40.54093034943877
 30
0.0
 11
-2.518857550740624
 21
-40.01930973975984
 31
0.0
  0
LINE
  5
32A
330
1F
100
AcDbEntity
  8
0
100
AcDbLine
 10
-46.04318064250646
 20
-36.04160586874951
 30
0.0
 11
-2.572855470404297
 21
-35.51998525907058
 31
0.0
  0
LINE
  5
32B
330
1F
100
AcDbEntity
  8
0
100
AcDbLine
 10
-21.3881072104702
 20
-28.99579955812482
 30
0.0
 11
22.08109424501826
 21
-28.47419243244314
 31
0.0
  0
LINE
  5
32C
330
1F
100
AcDbEntity
  8
0
100
AcDbLine
 10
-21.22611345147918
 20
-42.4937730001926
 30
0.0
 11
22.24308800400928
 21
-41.97216587451093
 31
0.0
  0
LINE
  5
32D
330
1F
100
AcDbEntity
  8
0
100
AcDbLine
 10
-52.09904616839309
 20
-29.36431437000216
 30
0.0
 11
-27.38767617452909
 21
-29.06779117098839
 31
0.0
  0
LINE
  5
32E
330
1F
100
AcDbEntity
  8
0
100
AcDbLine
 10
3.318716708002365
 20
-26.44934469618389
 30
0.0
 11
46.78904188010452
 21
-25.92772408650496
 31
0.0
  0
LINE
  5
32F
330
1F
100
AcDbEntity
  8
0
100
AcDbLine
 10
3.372714627666038
 20
-30.94866917687315
 30
0.0
 11
46.84303979976819
 21
-30.42704856719422
 31
0.0
  0
LINE
  5
330
330
1F
100
AcDbEntity
  8
0
100
AcDbLine
 10
28.13466018241595
 20
-32.90152531162423
 30
0.0
 11
52.86960677733403
 21
-32.60471920603069
 31
0.0
  0
LINE
  5
331
330
1F
100
AcDbEntity
  8
0
100
AcDbLine
 10
28.24265602174329
 20
-41.90017427300275
 30
0.0
 11
52.97760261666137
 21
-41.60336816740921
 31
0.0
  0
LINE
  5
332
330
1F
100
AcDbEntity
  8
0
100
AcDbLine
 10
3.480710466993382
 20
-39.94731813825167
 30
0.0
 11
46.95103563909554
 21
-39.42569752857274
 31
0.0
  0
LINE
  5
333
330
1F
100
AcDbEntity
  8
0
100
AcDbLine
 10
-51.93705240940206
 20
-42.86228781206994
 30
0.0
 11
-27.22568241553807
 21
-42.56576461305617
 31
0.0
  0
LINE
  5
334
330
1F
100
AcDbEntity
  8
0
100
AcDbLine
 10
-51.99105032906573
 20
-38.36296333138068
 30
0.0
 11
-27.27968033520175
 21
-38.06644013236691
 31
0.0
  0
LINE
  5
335
330
1F
100
AcDbEntity
  8
0
100
AcDbLine
 10
-21.33410929080653
 20
-33.49512403881408
 30
0.0
 11
22.13509216468194
 21
-32.97351691313241
 31
0.0
  0
LINE
  5
336
330
1F
100
AcDbEntity
  8
0
100
AcDbLine
 10
-52.04504824872942
 20
-33.86363885069142
 30
0.0
 11
-27.33367825486542
 21
-33.56711565167765
 31
0.0
  0
LINE
  5
337
330
1F
100
AcDbEntity
  8
0
100
AcDbLine
 10
-21.28011137114285
 20
-37.99444851950334
 30
0.0
 11
22.18909008434561
 21
-37.47284139382167
 31
0.0
  0
LINE
  5
338
330
1F
100
AcDbEntity
  8
0
100
AcDbLine
 10
3.42671254732971
 20
-35.44799365756241
 30
0.0
 11
46.89703771943187
 21
-34.92637304788349
 31
0.0
  0
LINE
  5
339
330
1F
100
AcDbEntity
  8
0
100
AcDbLine
 10
28.18865810207962
 20
-37.40084979231349
 30
0.0
 11
52.92360469699771
 21
-37.10404368671995
 31
0.0
  0
LINE
  5
33A
330
1F
100
AcDbEntity
  8
0
100
AcDbLine
 10
-51.93705240940206
 20
-42.86228781206994
 30
0.0
 11
-51.88305448973838
 21
-47.36161229275921
 31
0.0
  0
LINE
  5
33B
330
1F
100
AcDbEntity
  8
0
100
AcDbLine
 10
-51.99105032906573
 20
-38.36296333138068
 30
0.0
 11
-51.93705240940206
 21
-42.86228781206994
 31
0.0
  0
LINE
  5
33C
330
1F
100
AcDbEntity
  8
0
100
AcDbLine
 10
-52.04504824872942
 20
-33.86363885069142
 30
0.0
 11
-51.99105032906573
 21
-38.36296333138068
 31
0.0
  0
LINE
  5
33D
330
1F
100
AcDbEntity
  8
0
100
AcDbLine
 10
-52.09904616839309
 20
-29.36431437000216
 30
0.0
 11
-52.04504824872942
 21
-33.86363885069142
 31
0.0
  0
LINE
  5
33E
330
1F
100
AcDbEntity
  8
0
100
AcDbLine
 10
52.81560885767036
 20
-28.10539472534143
 30
0.0
 11
52.86960677733403
 21
-32.60471920603069
 31
0.0
  0
LINE
  5
33F
330
1F
100
AcDbEntity
  8
0
100
AcDbLine
 10
52.86960677733403
 20
-32.60471920603069
 30
0.0
 11
52.92360469699771
 21
-37.10404368671995
 31
0.0
  0
LINE
  5
340
330
1F
100
AcDbEntity
  8
0
100
AcDbLine
 10
52.97760261666137
 20
-41.60336816740921
 30
0.0
 11
53.03160053632506
 21
-46.10269264809848
 31
0.0
  0
LINE
  5
341
330
1F
100
AcDbEntity
  8
0
100
AcDbLine
 10
52.92360469699771
 20
-37.10404368671995
 30
0.0
 11
52.97760261666137
 21
-41.60336816740921
 31
0.0
  0
LINE
  5
342
330
1F
100
AcDbEntity
  8
0
100
AcDbLine
 10
-45.61119728519707
 20
-72.0362017142636
 30
0.0
 11
-2.140872113094912
 21
-71.51458110458466
 31
0.0
  0
LINE
  5
343
330
1F
100
AcDbEntity
  8
0
100
AcDbLine
 10
-51.55906697175635
 20
-74.35755917689477
 30
0.0
 11
-26.84769697789236
 21
-74.06103597788099
 31
0.0
  0
LINE
  5
344
330
1F
100
AcDbEntity
  8
0
100
AcDbLine
 10
-45.7731910441881
 20
-58.53822827219581
 30
0.0
 11
-2.302865872085934
 21
-58.01660766251688
 31
0.0
  0
LINE
  5
345
330
1F
100
AcDbEntity
  8
0
100
AcDbLine
 10
-20.84812801383347
 20
-73.98904436501743
 30
0.0
 11
22.621073441655
 21
-73.46743723933575
 31
0.0
  0
LINE
  5
346
330
1F
100
AcDbEntity
  8
0
100
AcDbLine
 10
-45.71919312452442
 20
-63.03755275288507
 30
0.0
 11
-2.248867952422262
 21
-62.51593214320614
 31
0.0
  0
LINE
  5
347
330
1F
100
AcDbEntity
  8
0
100
AcDbLine
 10
28.45864770039799
 20
-59.8974721957598
 30
0.0
 11
53.19359429531606
 21
-59.60066609016625
 31
0.0
  0
LINE
  5
348
330
1F
100
AcDbEntity
  8
0
100
AcDbLine
 10
-20.90212593349715
 20
-69.48971988432817
 30
0.0
 11
22.56707552199133
 21
-68.9681127586465
 31
0.0
  0
LINE
  5
349
330
1F
100
AcDbEntity
  8
0
100
AcDbLine
 10
3.804697984975417
 20
-66.94326502238724
 30
0.0
 11
47.27502315707758
 21
-66.4216444127083
 31
0.0
  0
LINE
  5
34A
330
1F
100
AcDbEntity
  8
0
100
AcDbLine
 10
3.858695904639089
 20
-71.44258950307649
 30
0.0
 11
47.32902107674125
 21
-70.92096889339757
 31
0.0
  0
LINE
  5
34B
330
1F
100
AcDbEntity
  8
0
100
AcDbLine
 10
28.62064145938901
 20
-73.39544563782759
 30
0.0
 11
53.35558805430709
 21
-73.09863953223403
 31
0.0
  0
LINE
  5
34C
330
1F
100
AcDbEntity
  8
0
100
AcDbLine
 10
3.6427042259844
 20
-53.44529158031946
 30
0.0
 11
47.11302939808656
 21
-52.92367097064052
 31
0.0
  0
LINE
  5
34D
330
1F
100
AcDbEntity
  8
0
100
AcDbLine
 10
28.35065186107065
 20
-50.89882323438128
 30
0.0
 11
53.08559845598872
 21
-50.60201712878773
 31
0.0
  0
LINE
  5
34E
330
1F
100
AcDbEntity
  8
0
100
AcDbLine
 10
-21.11811761215184
 20
-51.49242196157113
 30
0.0
 11
22.35108384333664
 21
-50.97081483588945
 31
0.0
  0
LINE
  5
34F
330
1F
100
AcDbEntity
  8
0
100
AcDbLine
 10
3.534708386657055
 20
-44.44664261894093
 30
0.0
 11
47.00503355875922
 21
-43.925022009262
 31
0.0
  0
LINE
  5
350
330
1F
100
AcDbEntity
  8
0
100
AcDbLine
 10
-51.82905657007471
 20
-51.86093677344846
 30
0.0
 11
-27.11768657621073
 21
-51.56441357443469
 31
0.0
  0
LINE
  5
351
330
1F
100
AcDbEntity
  8
0
100
AcDbLine
 10
28.29665394140697
 20
-46.39949875369201
 30
0.0
 11
53.03160053632506
 21
-46.10269264809848
 31
0.0
  0
LINE
  5
352
330
1F
100
AcDbEntity
  8
0
100
AcDbLine
 10
-51.77505865041104
 20
-56.36026125413773
 30
0.0
 11
-27.06368865654705
 21
-56.06373805512394
 31
0.0
  0
LINE
  5
353
330
1F
100
AcDbEntity
  8
0
100
AcDbLine
 10
-45.88118688351544
 20
-49.53957931081729
 30
0.0
 11
-2.410861711413279
 21
-49.01795870113836
 31
0.0
  0
LINE
  5
354
330
1F
100
AcDbEntity
  8
0
100
AcDbLine
 10
3.588706306320727
 20
-48.94596709963019
 30
0.0
 11
47.05903147842289
 21
-48.42434648995127
 31
0.0
  0
LINE
  5
355
330
1F
100
AcDbEntity
  8
0
100
AcDbLine
 10
-51.88305448973838
 20
-47.36161229275921
 30
0.0
 11
-27.1716844958744
 21
-47.06508909374543
 31
0.0
  0
LINE
  5
356
330
1F
100
AcDbEntity
  8
0
100
AcDbLine
 10
28.40464978073432
 20
-55.39814771507054
 30
0.0
 11
53.1395963756524
 21
-55.101341609477
 31
0.0
  0
LINE
  5
357
330
1F
100
AcDbEntity
  8
0
100
AcDbLine
 10
-21.06411969248816
 20
-55.99174644226038
 30
0.0
 11
22.40508176300031
 21
-55.47013931657872
 31
0.0
  0
LINE
  5
358
330
1F
100
AcDbEntity
  8
0
100
AcDbLine
 10
28.51264562006167
 20
-64.39679667644906
 30
0.0
 11
53.24759221497975
 21
-64.09999057085551
 31
0.0
  0
LINE
  5
359
330
1F
100
AcDbEntity
  8
0
100
AcDbLine
 10
-51.61306489142002
 20
-69.85823469620551
 30
0.0
 11
-26.90169489755604
 21
-69.56171149719174
 31
0.0
  0
LINE
  5
35A
330
1F
100
AcDbEntity
  8
0
100
AcDbLine
 10
-45.93518480317911
 20
-45.04025483012803
 30
0.0
 11
-2.464859631076952
 21
-44.5186342204491
 31
0.0
  0
LINE
  5
35B
330
1F
100
AcDbEntity
  8
0
100
AcDbLine
 10
-21.17211553181551
 20
-46.99309748088186
 30
0.0
 11
22.29708592367295
 21
-46.47149035520019
 31
0.0
  0
LINE
  5
35C
330
1F
100
AcDbEntity
  8
0
100
AcDbLine
 10
3.750700065311745
 20
-62.44394054169797
 30
0.0
 11
47.2210252374139
 21
-61.92231993201904
 31
0.0
  0
LINE
  5
35D
330
1F
100
AcDbEntity
  8
0
100
AcDbLine
 10
-21.01012177282449
 20
-60.49107092294965
 30
0.0
 11
22.45907968266398
 21
-59.96946379726797
 31
0.0
  0
LINE
  5
35E
330
1F
100
AcDbEntity
  8
0
100
AcDbLine
 10
-51.72106073074737
 20
-60.85958573482699
 30
0.0
 11
-27.00969073688338
 21
-60.56306253581321
 31
0.0
  0
LINE
  5
35F
330
1F
100
AcDbEntity
  8
0
100
AcDbLine
 10
-51.6670628110837
 20
-65.35891021551625
 30
0.0
 11
-26.95569281721971
 21
-65.06238701650247
 31
0.0
  0
LINE
  5
360
330
1F
100
AcDbEntity
  8
0
100
AcDbLine
 10
28.56664353972534
 20
-68.89612115713832
 30
0.0
 11
53.3015901346434
 21
-68.59931505154478
 31
0.0
  0
LINE
  5
361
330
1F
100
AcDbEntity
  8
0
100
AcDbLine
 10
-20.95612385316082
 20
-64.9903954036389
 30
0.0
 11
22.51307760232766
 21
-64.46878827795723
 31
0.0
  0
LINE
  5
362
330
1F
100
AcDbEntity
  8
0
100
AcDbLine
 10
-45.66519520486075
 20
-67.53687723357433
 30
0.0
 11
-2.194870032758589
 21
-67.0152566238954
 31
0.0
  0
LINE
  5
363
330
1F
100
AcDbEntity
  8
0
100
AcDbLine
 10
3.696702145648072
 20
-57.94461606100871
 30
0.0
 11
47.16702731775023
 21
-57.42299545132979
 31
0.0
  0
LINE
  5
364
330
1F
100
AcDbEntity
  8
0
100
AcDbLine
 10
-45.82718896385177
 20
-54.03890379150654
 30
0.0
 11
-2.356863791749607
 21
-53.51728318182762
 31
0.0
  0
LINE
  5
365
330
1F
100
AcDbEntity
  8
0
100
AcDbLine
 10
-51.55906697175635
 20
-74.35755917689477
 30
0.0
 11
-51.5560670873306
 21
-74.6075216480439
 31
0.0
  0
LINE
  5
366
330
1F
100
AcDbEntity
  8
0
100
AcDbLine
 10
-51.82905657007471
 20
-51.86093677344846
 30
0.0
 11
-51.77505865041104
 21
-56.36026125413773
 31
0.0
  0
LINE
  5
367
330
1F
100
AcDbEntity
  8
0
100
AcDbLine
 10
-51.88305448973838
 20
-47.36161229275921
 30
0.0
 11
-51.82905657007471
 21
-51.86093677344846
 31
0.0
  0
LINE
  5
368
330
1F
100
AcDbEntity
  8
0
100
AcDbLine
 10
53.19359429531606
 20
-59.60066609016625
 30
0.0
 11
53.24759221497975
 21
-64.09999057085551
 31
0.0
  0
LINE
  5
369
330
1F
100
AcDbEntity
  8
0
100
AcDbLine
 10
53.08559845598872
 20
-50.60201712878773
 30
0.0
 11
53.1395963756524
 21
-55.101341609477
 31
0.0
  0
LINE
  5
36A
330
1F
100
AcDbEntity
  8
0
100
AcDbLine
 10
53.03160053632506
 20
-46.10269264809848
 30
0.0
 11
53.08559845598872
 21
-50.60201712878773
 31
0.0
  0
LINE
  5
36B
330
1F
100
AcDbEntity
  8
0
100
AcDbLine
 10
-51.77505865041104
 20
-56.36026125413773
 30
0.0
 11
-51.72106073074737
 21
-60.85958573482699
 31
0.0
  0
LINE
  5
36C
330
1F
100
AcDbEntity
  8
0
100
AcDbLine
 10
53.35558805430709
 20
-73.09863953223403
 30
0.0
 11
53.35858793873285
 21
-73.34860200338316
 31
0.0
  0
LINE
  5
36D
330
1F
100
AcDbEntity
  8
0
100
AcDbLine
 10
53.24759221497975
 20
-64.09999057085551
 30
0.0
 11
53.3015901346434
 21
-68.59931505154478
 31
0.0
  0
LINE
  5
36E
330
1F
100
AcDbEntity
  8
0
100
AcDbLine
 10
53.1395963756524
 20
-55.101341609477
 30
0.0
 11
53.19359429531606
 21
-59.60066609016625
 31
0.0
  0
LINE
  5
36F
330
1F
100
AcDbEntity
  8
0
100
AcDbLine
 10
-51.61306489142002
 20
-69.85823469620551
 30
0.0
 11
-51.55906697175635
 21
-74.35755917689477
 31
0.0
  0
LINE
  5
370
330
1F
100
AcDbEntity
  8
0
100
AcDbLine
 10
-51.72106073074737
 20
-60.85958573482699
 30
0.0
 11
-51.6670628110837
 21
-65.35891021551625
 31
0.0
  0
LINE
  5
371
330
1F
100
AcDbEntity
  8
0
100
AcDbLine
 10
53.3015901346434
 20
-68.59931505154478
 30
0.0
 11
53.35558805430709
 21
-73.09863953223403
 31
0.0
  0
LINE
  5
372
330
1F
100
AcDbEntity
  8
0
100
AcDbLine
 10
-51.6670628110837
 20
-65.35891021551625
 30
0.0
 11
-51.61306489142002
 21
-69.85823469620551
 31
0.0
  0
ENDSEC
  0
SECTION
  2
OBJECTS
  0
DICTIONARY
  5
C
330
0
100
AcDbDictionary
  3
ACAD_GROUP
350
D
  3
ACAD_LAYOUT
350
1A
  3
ACAD_MATERIAL
350
43
  3
ACAD_MLEADERSTYLE
350
395
  3
ACAD_MLINESTYLE
350
17
  3
ACAD_PLOTSETTINGS
350
19
  3
ACAD_SCALELIST
350
47
  3
ACAD_VISUALSTYLE
350
2A
  3
ACDBHEADERROUNDTRIPXREC
350
373
  3
ACDBVARIABLEDICTIONARY
350
393
  0
DICTIONARY
  5
39A
330
8
100
AcDbDictionary
280
     1
  3
ACAD_XREC_ROUNDTRIP
360
39B
  0
DICTIONARY
  5
D
102
{ACAD_REACTORS
330
C
102
}
330
C
100
AcDbDictionary
  0
DICTIONARY
  5
1A
102
{ACAD_REACTORS
330
C
102
}
330
C
100
AcDbDictionary
  0
DICTIONARY
  5
43
102
{ACAD_REACTORS
330
C
102
}
330
C
100
AcDbDictionary
  3
BYBLOCK
350
45
  3
BYLAYER
350
44
  3
GLOBAL
350
46
  0
DICTIONARY
  5
395
102
{ACAD_REACTORS
330
C
102
}
330
C
100
AcDbDictionary
  0
DICTIONARY
  5
17
102
{ACAD_REACTORS
330
C
102
}
330
C
100
AcDbDictionary
  3
STANDARD
350
18
  0
DICTIONARY
  5
19
102
{ACAD_REACTORS
330
C
102
}
330
C
100
AcDbDictionary
  0
DICTIONARY
  5
47
102
{ACAD_REACTORS
330
C
102
}
330
C
100
AcDbDictionary
  3
A0
350
48
  3
A1
350
49
  3
A2
350
4A
  3
A3
350
4B
  3
A4
350
4C
  3
A5
350
4D
  3
A6
350
4E
  3
A7
350
4F
  3
A8
350
50
  3
A9
350
51
  3
B0
350
52
  3
B1
350
53
  3
B2
350
54
  3
B3
350
55
  3
B4
350
56
  3
B5
350
57
  3
B6
350
58
  3
B7
350
59
  3
B8
350
5A
  3
B9
350
5B
  3
C0
350
5C
  3
C1
350
5D
  3
C2
350
5E
  3
C3
350
5F
  3
C4
350
60
  3
C5
350
61
  3
C6
350
62
  3
C7
350
63
  3
C8
350
64
  3
C9
350
65
  3
D0
350
66
  3
D1
350
67
  3
D2
350
68
  0
DICTIONARY
  5
2A
102
{ACAD_REACTORS
330
C
102
}
330
C
100
AcDbDictionary
  3
2DWIREFRAME
350
2F
  3
BASIC
350
32
  3
BRIGHTEN
350
36
  3
COLORCHANGE
350
3A
  3
CONCEPTUAL
350
34
  3
DIM
350
35
  3
EDGECOLOROFF
350
3D
  3
FACEPATTERN
350
39
  3
FLAT
350
2B
  3
FLATWITHEDGES
350
2C
  3
GOURAUD
350
2D
  3
GOURAUDWITHEDGES
350
2E
  3
HIDDEN
350
31
  3
JITTEROFF
350
3B
  3
LINEPATTERN
350
38
  3
OVERHANGOFF
350
3C
  3
REALISTIC
350
33
  3
SHADED
350
42
  3
SHADED_WITH_EDGES
350
41
  3
SHADES_OF_GRAY
350
3E
  3
SKETCHY
350
3F
  3
THICKEN
350
37
  3
WIREFRAME
350
30
  3
X-RAY
350
40
  0
DICTIONARY
  5
373
102
{ACAD_REACTORS
330
C
102
}
330
C
100
AcDbDictionary
  3
CEPSNTYPE
350
37C
  3
DIMSTYLEDATA
350
392
  3
FINGERPRINTGUID
350
37D
  3
HYPERLINKBASE
350
376
  3
INSUNITS
350
37B
  3
LAYOUTDICT
350
378
  3
LWETCUNION
350
37A
  3
PLOTSETDICT
350
379
  3
PSVPSCALE
350
37F
  3
PUCSBASE
350
382
  3
PUCSORGBACK
350
388
  3
PUCSORGBOTTOM
350
384
  3
PUCSORGFRONT
350
387
  3
PUCSORGLEFT
350
385
  3
PUCSORGRIGHT
350
386
  3
PUCSORGTOP
350
383
  3
PUCSORTHOREF
350
380
  3
PUCSORTHOVIEW
350
381
  3
STYLESHEET
350
377
  3
TSTACKALIGN
350
374
  3
TSTACKSIZE
350
375
  3
UCSBASE
350
38B
  3
UCSORGBACK
350
391
  3
UCSORGBOTTOM
350
38D
  3
UCSORGFRONT
350
390
  3
UCSORGLEFT
350
38E
  3
UCSORGRIGHT
350
38F
  3
UCSORGTOP
350
38C
  3
UCSORTHOREF
350
389
  3
UCSORTHOVIEW
350
38A
  3
VERSIONGUID
350
37E
  0
DICTIONARY
  5
393
102
{ACAD_REACTORS
330
C
102
}
330
C
100
AcDbDictionary
  3
CANNOSCALE
350
39C
  3
DIMASSOC
350
398
  3
HIDETEXT
350
399
  3
MSLTSCALE
350
39D
  0
XRECORD
  5
39B
102
{ACAD_REACTORS
330
39A
102
}
330
39A
100
AcDbXrecord
102
VTR_0.000_0.000_1.000_1.000_GRIDDISPLAY
 70
     3
102
VTR_0.000_0.000_1.000_1.000_GRIDMAJOR
 70
     5
102
VTR_0.000_0.000_1.000_1.000_DEFAULTLIGHTING
280
     1
102
VTR_0.000_0.000_1.000_1.000_DEFAULTLIGHTINGTYPE
 70
     1
102
VTR_0.000_0.000_1.000_1.000_BRIGHTNESS
141
0.0
102
VTR_0.000_0.000_1.000_1.000_CONTRAST
142
0.0
  0
MATERIAL
  5
45
102
{ACAD_REACTORS
330
43
102
}
102
{ACAD_XDICTIONARY
360
3A0
102
}
330
43
100
AcDbMaterial
  1
BYBLOCK
  0
MATERIAL
  5
44
102
{ACAD_REACTORS
330
43
102
}
102
{ACAD_XDICTIONARY
360
39E
102
}
330
43
100
AcDbMaterial
  1
BYLAYER
  0
MATERIAL
  5
46
102
{ACAD_REACTORS
330
43
102
}
102
{ACAD_XDICTIONARY
360
3A2
102
}
330
43
100
AcDbMaterial
  1
GLOBAL
  0
MLINESTYLE
  5
18
102
{ACAD_REACTORS
330
17
102
}
330
17
100
AcDbMlineStyle
  2
Standard
 70
     0
  3

 62
   256
 51
90.0
 52
90.0
 71
     2
 49
0.5
 62
   256
  6
BYLAYER
 49
-0.5
 62
   256
  6
BYLAYER
  0
ACAD_PROXY_OBJECT
  5
48
102
{ACAD_REACTORS
330
47
102
}
330
47
100
AcDbProxyObject
 90
      499
 91
      503
 93
       41
310
903313A31580
  0
ACAD_PROXY_OBJECT
  5
49
102
{ACAD_REACTORS
330
47
102
}
330
47
100
AcDbProxyObject
 90
      499
 91
      503
 93
      105
310
903313A324000000000000004000
  0
ACAD_PROXY_OBJECT
  5
4A
102
{ACAD_REACTORS
330
47
102
}
330
47
100
AcDbProxyObject
 90
      499
 91
      503
 93
      105
310
903313A344000000000000104000
  0
ACAD_PROXY_OBJECT
  5
4B
102
{ACAD_REACTORS
330
47
102
}
330
47
100
AcDbProxyObject
 90
      499
 91
      503
 93
      105
310
903313A354000000000000144000
  0
ACAD_PROXY_OBJECT
  5
4C
102
{ACAD_REACTORS
330
47
102
}
330
47
100
AcDbProxyObject
 90
      499
 91
      503
 93
      105
310
903313A384000000000000204000
  0
ACAD_PROXY_OBJECT
  5
4D
102
{ACAD_REACTORS
330
47
102
}
330
47
100
AcDbProxyObject
 90
      499
 91
      503
 93
      113
310
904313A31304000000000000244000
  0
ACAD_PROXY_OBJECT
  5
4E
102
{ACAD_REACTORS
330
47
102
}
330
47
100
AcDbProxyObject
 90
      499
 91
      503
 93
      113
310
904313A31364000000000000304000
  0
ACAD_PROXY_OBJECT
  5
4F
102
{ACAD_REACTORS
330
47
102
}
330
47
100
AcDbProxyObject
 90
      499
 91
      503
 93
      113
310
904313A32304000000000000344000
  0
ACAD_PROXY_OBJECT
  5
50
102
{ACAD_REACTORS
330
47
102
}
330
47
100
AcDbProxyObject
 90
      499
 91
      503
 93
      113
310
904313A333040000000000003E4000
  0
ACAD_PROXY_OBJECT
  5
51
102
{ACAD_REACTORS
330
47
102
}
330
47
100
AcDbProxyObject
 90
      499
 91
      503
 93
      113
310
904313A34304000000000000444000
  0
ACAD_PROXY_OBJECT
  5
52
102
{ACAD_REACTORS
330
47
102
}
330
47
100
AcDbProxyObject
 90
      499
 91
      503
 93
      113
310
904313A35304000000000000494000
  0
ACAD_PROXY_OBJECT
  5
53
102
{ACAD_REACTORS
330
47
102
}
330
47
100
AcDbProxyObject
 90
      499
 91
      503
 93
      121
310
905313A3130304000000000000594000
  0
ACAD_PROXY_OBJECT
  5
54
102
{ACAD_REACTORS
330
47
102
}
330
47
100
AcDbProxyObject
 90
      499
 91
      503
 93
      105
310
903323A310000000000000010100
  0
ACAD_PROXY_OBJECT
  5
55
102
{ACAD_REACTORS
330
47
102
}
330
47
100
AcDbProxyObject
 90
      499
 91
      503
 93
      105
310
903343A310000000000000410100
  0
ACAD_PROXY_OBJECT
  5
56
102
{ACAD_REACTORS
330
47
102
}
330
47
100
AcDbProxyObject
 90
      499
 91
      503
 93
      105
310
903383A310000000000000810100
  0
ACAD_PROXY_OBJECT
  5
57
102
{ACAD_REACTORS
330
47
102
}
330
47
100
AcDbProxyObject
 90
      499
 91
      503
 93
      113
310
90431303A310000000000000910100
  0
ACAD_PROXY_OBJECT
  5
58
102
{ACAD_REACTORS
330
47
102
}
330
47
100
AcDbProxyObject
 90
      499
 91
      503
 93
      121
310
9053130303A310000000000001650100
  0
ACAD_PROXY_OBJECT
  5
59
102
{ACAD_REACTORS
330
47
102
}
330
47
100
AcDbProxyObject
 90
      499
 91
      503
 93
      257
310
90E312F31323822203D2031272D3022000000000000200FC000000000000284000
  0
ACAD_PROXY_OBJECT
  5
5A
102
{ACAD_REACTORS
330
47
102
}
330
47
100
AcDbProxyObject
 90
      499
 91
      503
 93
      249
310
90D312F363422203D2031272D3022000000000000240FC000000000000284000
  0
ACAD_PROXY_OBJECT
  5
5B
102
{ACAD_REACTORS
330
47
102
}
330
47
100
AcDbProxyObject
 90
      499
 91
      503
 93
      249
310
90D312F333222203D2031272D3022000000000000280FC000000000000284000
  0
ACAD_PROXY_OBJECT
  5
5C
102
{ACAD_REACTORS
330
47
102
}
330
47
100
AcDbProxyObject
 90
      499
 91
      503
 93
      249
310
90D312F313622203D2031272D30220000000000002C0FC000000000000284000
  0
ACAD_PROXY_OBJECT
  5
5D
102
{ACAD_REACTORS
330
47
102
}
330
47
100
AcDbProxyObject
 90
      499
 91
      503
 93
      249
310
90D332F333222203D2031272D30220000000000002E0FC000000000000284000
  0
ACAD_PROXY_OBJECT
  5
5E
102
{ACAD_REACTORS
330
47
102
}
330
47
100
AcDbProxyObject
 90
      499
 91
      503
 93
      241
310
90C312F3822203D2031272D3022000000000000300FC000000000000284000
  0
ACAD_PROXY_OBJECT
  5
5F
102
{ACAD_REACTORS
330
47
102
}
330
47
100
AcDbProxyObject
 90
      499
 91
      503
 93
      249
310
90D332F313622203D2031272D3022000000000000320FC000000000000284000
  0
ACAD_PROXY_OBJECT
  5
60
102
{ACAD_REACTORS
330
47
102
}
330
47
100
AcDbProxyObject
 90
      499
 91
      503
 93
      241
310
90C312F3422203D2031272D3022000000000000340FC000000000000284000
  0
ACAD_PROXY_OBJECT
  5
61
102
{ACAD_REACTORS
330
47
102
}
330
47
100
AcDbProxyObject
 90
      499
 91
      503
 93
      241
310
90C332F3822203D2031272D3022000000000000360FC000000000000284000
  0
ACAD_PROXY_OBJECT
  5
62
102
{ACAD_REACTORS
330
47
102
}
330
47
100
AcDbProxyObject
 90
      499
 91
      503
 93
      241
310
90C312F3222203D2031272D3022000000000000380FC000000000000284000
  0
ACAD_PROXY_OBJECT
  5
63
102
{ACAD_REACTORS
330
47
102
}
330
47
100
AcDbProxyObject
 90
      499
 91
      503
 93
      241
310
90C332F3422203D2031272D30220000000000003A0FC000000000000284000
  0
ACAD_PROXY_OBJECT
  5
64
102
{ACAD_REACTORS
330
47
102
}
330
47
100
AcDbProxyObject
 90
      499
 91
      503
 93
      161
310
90A3122203D2031272D30224000000000000284000
  0
ACAD_PROXY_OBJECT
  5
65
102
{ACAD_REACTORS
330
47
102
}
330
47
100
AcDbProxyObject
 90
      499
 91
      503
 93
      257
310
90E312D312F3222203D2031272D30220000000000003E0FC000000000000284000
  0
ACAD_PROXY_OBJECT
  5
66
102
{ACAD_REACTORS
330
47
102
}
330
47
100
AcDbProxyObject
 90
      499
 91
      503
 93
      225
310
90A3322203D2031272D302200000000000002100000000000000284000
  0
ACAD_PROXY_OBJECT
  5
67
102
{ACAD_REACTORS
330
47
102
}
330
47
100
AcDbProxyObject
 90
      499
 91
      503
 93
      225
310
90A3622203D2031272D302200000000000006100000000000000284000
  0
ACAD_PROXY_OBJECT
  5
68
102
{ACAD_REACTORS
330
47
102
}
330
47
100
AcDbProxyObject
 90
      499
 91
      503
 93
      249
310
90D31272D3022203D2031272D30220000000000000A100000000000000284000
  0
ACAD_PROXY_OBJECT
  5
2F
102
{ACAD_REACTORS
330
2A
102
}
330
2A
100
AcDbProxyObject
 90
      499
 91
      501
 93
      436
310
42CC9915DA5C99599C985B595049028333333333333E33F0000000000000F90107901411070040501600405405064090741402480A0340
1001
ACAD
1000
AcDbSavedByObjectVersion
1070
     0
  0
ACAD_PROXY_OBJECT
  5
32
102
{ACAD_REACTORS
330
2A
102
}
330
2A
100
AcDbProxyObject
 90
      499
 91
      501
 93
      388
310
4150985CDA58D07406404333333333333E33F0000000000000F90107A41107004050150841D405064090741402480A0350
1001
ACAD
1000
AcDbSavedByObjectVersion
1070
     0
  0
ACAD_PROXY_OBJECT
  5
36
102
{ACAD_REACTORS
330
2A
102
}
330
2A
100
AcDbProxyObject
 90
      499
 91
      501
 93
      428
310
42109C9A59DA1D195B90C409028333333333333E33F0000000000000F9010790141107004050150841D405064090741402480A029950
1001
ACAD
1000
AcDbSavedByObjectVersion
1070
     0
  0
ACAD_PROXY_OBJECT
  5
3A
102
{ACAD_REACTORS
330
2A
102
}
330
2A
100
AcDbProxyObject
 90
      499
 91
      501
 93
      452
310
42D0DBDB1BDC90DA185B99D95104090240C333333333333E33F0000000000000F90108901411070040501508421405064090741402480A0350
1001
ACAD
1000
AcDbSavedByObjectVersion
1070
     0
  0
ACAD_PROXY_OBJECT
  5
34
102
{ACAD_REACTORS
330
2A
102
}
330
2A
100
AcDbProxyObject
 90
      499
 91
      501
 93
      500
310
4290DBDB98D95C1D1D585B10940D028333333333333E33F0000000000000F90107902409070040501000000000018199010841D405064090740C02480A0340
1001
ACAD
1000
AcDbSavedByObjectVersion
1070
     0
  0
ACAD_PROXY_OBJECT
  5
35
102
{ACAD_REACTORS
330
2A
102
}
330
2A
100
AcDbProxyObject
 90
      499
 91
      501
 93
      412
310
40D11A5B50B409028333333333333E33F0000000000000F9010790141107004050150841D405064090741402480A02677FFFFFD0
1001
ACAD
1000
AcDbSavedByObjectVersion
1070
     0
  0
ACAD_PROXY_OBJECT
  5
3D
102
{ACAD_REACTORS
330
2A
102
}
330
2A
100
AcDbProxyObject
 90
      499
 91
      501
 93
      452
310
43115919D950DBDB1BDC93D999916409028333333333333E33F0000000000000F9010790141107004050150841D405064090741402480A0350
1001
ACAD
1000
AcDbSavedByObjectVersion
1070
     0
  0
ACAD_PROXY_OBJECT
  5
39
102
{ACAD_REACTORS
330
2A
102
}
330
2A
100
AcDbProxyObject
 90
      499
 91
      501
 93
      444
310
42D19858D95C185D1D195C9B90F409028333333333333E33F0000000000000F9010790141107004050150841D405064090741402480A0350
1001
ACAD
1000
AcDbSavedByObjectVersion
1070
     0
  0
ACAD_PROXY_OBJECT
  5
2B
102
{ACAD_REACTORS
330
2A
102
}
330
2A
100
AcDbProxyObject
 90
      499
 91
      501
 93
      380
310
41119B185D240901404333333333333E33F0000000000000F9010740A907004050150841D405064090741402480A1B50
1001
ACAD
1000
AcDbSavedByObjectVersion
1070
     0
  0
ACAD_PROXY_OBJECT
  5
2C
102
{ACAD_REACTORS
330
2A
102
}
330
2A
100
AcDbProxyObject
 90
      499
 91
      501
 93
      468
310
43519B185D15DA5D1A115919D95CD0140901404333333333333E33F0000000000000F90107409019070040501600405405064090741402480A1B50
1001
ACAD
1000
AcDbSavedByObjectVersion
1070
     0
  0
ACAD_PROXY_OBJECT
  5
2D
102
{ACAD_REACTORS
330
2A
102
}
330
2A
100
AcDbProxyObject
 90
      499
 91
      501
 93
      404
310
41D1DBDD5C985D5910240902404333333333333E33F0000000000000F9010740A9070040501641D405064090741402480A1B50
1001
ACAD
1000
AcDbSavedByObjectVersion
1070
     0
  0
ACAD_PROXY_OBJECT
  5
2E
102
{ACAD_REACTORS
330
2A
102
}
330
2A
100
AcDbProxyObject
 90
      499
 91
      501
 93
      492
310
4411DBDD5C985D5915DA5D1A115919D95CD0340902404333333333333E33F0000000000000F90107409019070040501600405405064090741402480A1B50
1001
ACAD
1000
AcDbSavedByObjectVersion
1070
     0
  0
ACAD_PROXY_OBJECT
  5
31
102
{ACAD_REACTORS
330
2A
102
}
330
2A
100
AcDbProxyObject
 90
      499
 91
      501
 93
      476
310
41921A5919195B90640502408333333333333E33F0000000000000F901079024090700405020000000000001110200405405064090740C02480A0340
1001
ACAD
1000
AcDbSavedByObjectVersion
1070
     0
  0
ACAD_PROXY_OBJECT
  5
3B
102
{ACAD_REACTORS
330
2A
102
}
330
2A
100
AcDbProxyObject
 90
      499
 91
      501
 93
      428
310
42529A5D1D195C93D999914409028333333333333E33F0000000000000F9010790141107004050150A41D405064090741402480A0350
1001
ACAD
1000
AcDbSavedByObjectVersion
1070
     0
  0
ACAD_PROXY_OBJECT
  5
38
102
{ACAD_REACTORS
330
2A
102
}
330
2A
100
AcDbProxyObject
 90
      499
 91
      501
 93
      444
310
42D31A5B995C185D1D195C9B90E409028333333333333E33F0000000000000F9010790141107004050750841D405064090741402483A0350
1001
ACAD
1000
AcDbSavedByObjectVersion
1070
     0
  0
ACAD_PROXY_OBJECT
  5
3C
102
{ACAD_REACTORS
330
2A
102
}
330
2A
100
AcDbProxyObject
 90
      499
 91
      501
 93
      444
310
42D3DD995C9A185B99D3D999915409028333333333333E33F0000000000000F9010790141107004050150941D405064090741402480A0350
1001
ACAD
1000
AcDbSavedByObjectVersion
1070
     0
  0
ACAD_PROXY_OBJECT
  5
33
102
{ACAD_REACTORS
330
2A
102
}
330
2A
100
AcDbProxyObject
 90
      499
 91
      501
 93
      428
310
425499585B1A5CDD1A58D08409038333333333333E33F0000000000000F9010740A907004050150800405405064090740C02480A1B40
1001
ACAD
1000
AcDbSavedByObjectVersion
1070
     0
  0
ACAD_PROXY_OBJECT
  5
42
102
{ACAD_REACTORS
330
2A
102
}
330
2A
100
AcDbProxyObject
 90
      499
 91
      501
 93
      420
310
4194DA1859195911B40902404333333333333E33F0000000000000F9010740A41107004050150800405405064090840C02480A0B40
1001
ACAD
1000
AcDbSavedByObjectVersion
1070
     0
  0
ACAD_PROXY_OBJECT
  5
41
102
{ACAD_REACTORS
330
2A
102
}
330
2A
100
AcDbProxyObject
 90
      499
 91
      501
 93
      516
310
4454DA18591959081DDA5D1A08195919D95CD1A40902404333333333333E33F0000000000000F901074090142907004050250800405405064090740C02480A0B40
1001
ACAD
1000
AcDbSavedByObjectVersion
1070
     0
  0
ACAD_PROXY_OBJECT
  5
3E
102
{ACAD_REACTORS
330
2A
102
}
330
2A
100
AcDbProxyObject
 90
      499
 91
      501
 93
      532
310
4394DA1859195CC81BD98811DC985E5174090240C333333333333E33F0000000000000F901079024090741D01000000000000111010841D405064090740C02480A0340
1001
ACAD
1000
AcDbSavedByObjectVersion
1070
     0
  0
ACAD_PROXY_OBJECT
  5
3F
102
{ACAD_REACTORS
330
2A
102
}
330
2A
100
AcDbProxyObject
 90
      499
 91
      501
 93
      476
310
41D4DAD95D18DA1E51840502408333333333333E33F0000000000000F901079024090741D01000000000000111010B41D405064090741802480A0340
1001
ACAD
1000
AcDbSavedByObjectVersion
1070
     0
  0
ACAD_PROXY_OBJECT
  5
37
102
{ACAD_REACTORS
330
2A
102
}
330
2A
100
AcDbProxyObject
 90
      499
 91
      501
 93
      412
310
41D51A1A58DAD95B90D409028333333333333E33F0000000000000F9010790141107004050150C41D405064090741402480A0350
1001
ACAD
1000
AcDbSavedByObjectVersion
1070
     0
  0
ACAD_PROXY_OBJECT
  5
30
102
{ACAD_REACTORS
330
2A
102
}
330
2A
100
AcDbProxyObject
 90
      499
 91
      501
 93
      420
310
4255DA5C99599C985B595059028333333333333E33F0000000000000F90107901411070040501600405405064090740C02480A0340
1001
ACAD
1000
AcDbSavedByObjectVersion
1070
     0
  0
ACAD_PROXY_OBJECT
  5
40
102
{ACAD_REACTORS
330
2A
102
}
330
2A
100
AcDbProxyObject
 90
      499
 91
      501
 93
      404
310
41560B54985E51940902404000000000000E03F0000000000000F9010740501907004050150841D405064090740C02480A1B40
1001
ACAD
1000
AcDbSavedByObjectVersion
1070
     0
  0
XRECORD
  5
37C
102
{ACAD_REACTORS
330
373
102
}
330
373
100
AcDbXrecord
 90
        0
  0
XRECORD
  5
392
102
{ACAD_REACTORS
330
373
102
}
330
373
100
AcDbXrecord
1000
DSTYLE
1002
{
1070
   340
340
11
1002
}
  0
XRECORD
  5
37D
102
{ACAD_REACTORS
330
373
102
}
330
373
100
AcDbXrecord
  1
{A8F22706-98B2-48D1-B87E-58D3C5A686B9}
  0
XRECORD
  5
376
102
{ACAD_REACTORS
330
373
102
}
330
373
100
AcDbXrecord
  1

  0
XRECORD
  5
37B
102
{ACAD_REACTORS
330
373
102
}
330
373
100
AcDbXrecord
 90
        1
  0
XRECORD
  5
378
102
{ACAD_REACTORS
330
373
102
}
330
373
100
AcDbXrecord
340
1A
  0
XRECORD
  5
37A
102
{ACAD_REACTORS
330
373
102
}
330
373
100
AcDbXrecord
 90
    10781
  0
XRECORD
  5
379
102
{ACAD_REACTORS
330
373
102
}
330
373
100
AcDbXrecord
340
19
  0
XRECORD
  5
37F
102
{ACAD_REACTORS
330
373
102
}
330
373
100
AcDbXrecord
 40
0.0
  0
XRECORD
  5
382
102
{ACAD_REACTORS
330
373
102
}
330
373
100
AcDbXrecord
340
0
  0
XRECORD
  5
388
102
{ACAD_REACTORS
330
373
102
}
330
373
100
AcDbXrecord
 10
0.0
 20
0.0
 30
0.0
  0
XRECORD
  5
384
102
{ACAD_REACTORS
330
373
102
}
330
373
100
AcDbXrecord
 10
0.0
 20
0.0
 30
0.0
  0
XRECORD
  5
387
102
{ACAD_REACTORS
330
373
102
}
330
373
100
AcDbXrecord
 10
0.0
 20
0.0
 30
0.0
  0
XRECORD
  5
385
102
{ACAD_REACTORS
330
373
102
}
330
373
100
AcDbXrecord
 10
0.0
 20
0.0
 30
0.0
  0
XRECORD
  5
386
102
{ACAD_REACTORS
330
373
102
}
330
373
100
AcDbXrecord
 10
0.0
 20
0.0
 30
0.0
  0
XRECORD
  5
383
102
{ACAD_REACTORS
330
373
102
}
330
373
100
AcDbXrecord
 10
0.0
 20
0.0
 30
0.0
  0
XRECORD
  5
380
102
{ACAD_REACTORS
330
373
102
}
330
373
100
AcDbXrecord
340
0
  0
XRECORD
  5
381
102
{ACAD_REACTORS
330
373
102
}
330
373
100
AcDbXrecord
 70
     0
  0
XRECORD
  5
377
102
{ACAD_REACTORS
330
373
102
}
330
373
100
AcDbXrecord
  1

  0
XRECORD
  5
374
102
{ACAD_REACTORS
330
373
102
}
330
373
100
AcDbXrecord
 90
        1
  0
XRECORD
  5
375
102
{ACAD_REACTORS
330
373
102
}
330
373
100
AcDbXrecord
 90
       70
  0
XRECORD
  5
38B
102
{ACAD_REACTORS
330
373
102
}
330
373
100
AcDbXrecord
340
0
  0
XRECORD
  5
391
102
{ACAD_REACTORS
330
373
102
}
330
373
100
AcDbXrecord
 10
0.0
 20
0.0
 30
0.0
  0
XRECORD
  5
38D
102
{ACAD_REACTORS
330
373
102
}
330
373
100
AcDbXrecord
 10
0.0
 20
0.0
 30
0.0
  0
XRECORD
  5
390
102
{ACAD_REACTORS
330
373
102
}
330
373
100
AcDbXrecord
 10
0.0
 20
0.0
 30
0.0
  0
XRECORD
  5
38E
102
{ACAD_REACTORS
330
373
102
}
330
373
100
AcDbXrecord
 10
0.0
 20
0.0
 30
0.0
  0
XRECORD
  5
38F
102
{ACAD_REACTORS
330
373
102
}
330
373
100
AcDbXrecord
 10
0.0
 20
0.0
 30
0.0
  0
XRECORD
  5
38C
102
{ACAD_REACTORS
330
373
102
}
330
373
100
AcDbXrecord
 10
0.0
 20
0.0
 30
0.0
  0
XRECORD
  5
389
102
{ACAD_REACTORS
330
373
102
}
330
373
100
AcDbXrecord
340
0
  0
XRECORD
  5
38A
102
{ACAD_REACTORS
330
373
102
}
330
373
100
AcDbXrecord
 70
     0
  0
XRECORD
  5
37E
102
{ACAD_REACTORS
330
373
102
}
330
373
100
AcDbXrecord
  1
{FAEB1C32-E019-11D5-929B-00C0DF256EC4}
  0
DICTIONARYVAR
  5
39C
102
{ACAD_REACTORS
330
393
102
}
330
393
100
DictionaryVariables
280
     0
  1
1:1
  0
DICTIONARYVAR
  5
398
102
{ACAD_REACTORS
330
393
102
}
330
393
100
DictionaryVariables
280
     0
  1
2
  0
DICTIONARYVAR
  5
399
102
{ACAD_REACTORS
330
393
102
}
330
393
100
DictionaryVariables
280
     0
  1
1
  0
DICTIONARYVAR
  5
39D
102
{ACAD_REACTORS
330
393
102
}
330
393
100
DictionaryVariables
280
     0
  1
1
  0
DICTIONARY
  5
3A0
330
45
100
AcDbDictionary
280
     1
  3
ACAD_XREC_ROUNDTRIP
360
3A1
  0
DICTIONARY
  5
39E
330
44
100
AcDbDictionary
280
     1
  3
ACAD_XREC_ROUNDTRIP
360
39F
  0
DICTIONARY
  5
3A2
330
46
100
AcDbDictionary
280
     1
  3
ACAD_XREC_ROUNDTRIP
360
3A3
  0
XRECORD
  5
3A1
102
{ACAD_REACTORS
330
3A0
102
}
330
3A0
100
AcDbXrecord
102
MATERIAL
148
0.0
149
0.0
149
0.0
 93
        0
 94
      127
282
     0
 72
     1
 77
     1
171
     1
175
     1
179
     1
273
     0
  0
XRECORD
  5
39F
102
{ACAD_REACTORS
330
39E
102
}
330
39E
100
AcDbXrecord
102
MATERIAL
148
0.0
149
0.0
149
0.0
 93
        0
 94
      127
282
     0
 72
     1
 77
     1
171
     1
175
     1
179
     1
273
     0
  0
XRECORD
  5
3A3
102
{ACAD_REACTORS
330
3A2
102
}
330
3A2
100
AcDbXrecord
102
MATERIAL
148
0.0
149
0.0
149
0.0
 93
        0
 94
      127
282
     0
 72
     1
 77
     1
171
     1
175
     1
179
     1
273
     0
  0
ENDSEC
  0
EOF
