  0
SECTION
  2
HEADER
  9
$ACADVER
  1
AC1014
  9
$ACADMAINTVER
 70
     9
  9
$DWGCODEPAGE
  3
ANSI_1252
  9
$INSBASE
 10
0.0
 20
0.0
 30
0.0
  9
$EXTMIN
 10
1.000000000000000E+20
 20
1.000000000000000E+20
 30
1.000000000000000E+20
  9
$EXTMAX
 10
-1.000000000000000E+20
 20
-1.000000000000000E+20
 30
-1.000000000000000E+20
  9
$LIMMIN
 10
0.0
 20
0.0
  9
$LIMMAX
 10
12.0
 20
9.0
  9
$ORTHOMODE
 70
     0
  9
$REGENMODE
 70
     1
  9
$FILLMODE
 70
     1
  9
$QTEXTMODE
 70
     0
  9
$MIRRTEXT
 70
     1
  9
$DRAGMODE
 70
     2
  9
$LTSCALE
 40
1.0
  9
$OSMODE
 70
    37
  9
$ATTMODE
 70
     1
  9
$TEXTSIZE
 40
0.2
  9
$TRACEWID
 40
0.05
  9
$TEXTSTYLE
  7
STANDARD
  9
$CLAYER
  8
0
  9
$CELTYPE
  6
BYLAYER
  9
$CECOLOR
 62
   256
  9
$CELTSCALE
 40
1.0
  9
$DELOBJ
 70
     1
  9
$DISPSILH
 70
     0
  9
$DIMSCALE
 40
1.0
  9
$DIMASZ
 40
0.18
  9
$DIMEXO
 40
0.0625
  9
$DIMDLI
 40
0.38
  9
$DIMRND
 40
0.0
  9
$DIMDLE
 40
0.0
  9
$DIMEXE
 40
0.18
  9
$DIMTP
 40
0.0
  9
$DIMTM
 40
0.0
  9
$DIMTXT
 40
0.18
  9
$DIMCEN
 40
0.09
  9
$DIMTSZ
 40
0.0
  9
$DIMTOL
 70
     0
  9
$DIMLIM
 70
     0
  9
$DIMTIH
 70
     1
  9
$DIMTOH
 70
     1
  9
$DIMSE1
 70
     0
  9
$DIMSE2
 70
     0
  9
$DIMTAD
 70
     0
  9
$DIMZIN
 70
     0
  9
$DIMBLK
  1

  9
$DIMASO
 70
     1
  9
$DIMSHO
 70
     1
  9
$DIMPOST
  1

  9
$DIMAPOST
  1

  9
$DIMALT
 70
     0
  9
$DIMALTD
 70
     2
  9
$DIMALTF
 40
25.4
  9
$DIMLFAC
 40
1.0
  9
$DIMTOFL
 70
     0
  9
$DIMTVP
 40
0.0
  9
$DIMTIX
 70
     0
  9
$DIMSOXD
 70
     0
  9
$DIMSAH
 70
     0
  9
$DIMBLK1
  1

  9
$DIMBLK2
  1

  9
$DIMSTYLE
  2
STANDARD
  9
$DIMCLRD
 70
     0
  9
$DIMCLRE
 70
     0
  9
$DIMCLRT
 70
     0
  9
$DIMTFAC
 40
1.0
  9
$DIMGAP
 40
0.09
  9
$DIMJUST
 70
     0
  9
$DIMSD1
 70
     0
  9
$DIMSD2
 70
     0
  9
$DIMTOLJ
 70
     1
  9
$DIMTZIN
 70
     0
  9
$DIMALTZ
 70
     0
  9
$DIMALTTZ
 70
     0
  9
$DIMFIT
 70
     3
  9
$DIMUPT
 70
     0
  9
$DIMUNIT
 70
     2
  9
$DIMDEC
 70
     4
  9
$DIMTDEC
 70
     4
  9
$DIMALTU
 70
     2
  9
$DIMALTTD
 70
     2
  9
$DIMTXSTY
  7
STANDARD
  9
$DIMAUNIT
 70
     0
  9
$LUNITS
 70
     2
  9
$LUPREC
 70
     4
  9
$SKETCHINC
 40
0.1
  9
$FILLETRAD
 40
0.5
  9
$AUNITS
 70
     0
  9
$AUPREC
 70
     0
  9
$MENU
  1
.
  9
$ELEVATION
 40
0.0
  9
$PELEVATION
 40
0.0
  9
$THICKNESS
 40
0.0
  9
$LIMCHECK
 70
     0
  9
$CHAMFERA
 40
0.0
  9
$CHAMFERB
 40
0.0
  9
$CHAMFERC
 40
0.0
  9
$CHAMFERD
 40
0.0
  9
$SKPOLY
 70
     0
  9
$TDCREATE
 40
2456913.672922986
  9
$TDUPDATE
 40
2456913.672923113
  9
$TDINDWG
 40
0.0000000116
  9
$TDUSRTIMER
 40
0.0000000116
  9
$USRTIMER
 70
     1
  9
$ANGBASE
 50
0.0
  9
$ANGDIR
 70
     0
  9
$PDMODE
 70
     0
  9
$PDSIZE
 40
0.0
  9
$PLINEWID
 40
0.0
  9
$COORDS
 70
     1
  9
$SPLFRAME
 70
     0
  9
$SPLINETYPE
 70
     6
  9
$SPLINESEGS
 70
     8
  9
$ATTDIA
 70
     0
  9
$ATTREQ
 70
     1
  9
$HANDLING
 70
     1
  9
$HANDSEED
  5
330
  9
$SURFTAB1
 70
     6
  9
$SURFTAB2
 70
     6
  9
$SURFTYPE
 70
     6
  9
$SURFU
 70
     6
  9
$SURFV
 70
     6
  9
$UCSNAME
  2

  9
$UCSORG
 10
0.0
 20
0.0
 30
0.0
  9
$UCSXDIR
 10
1.0
 20
0.0
 30
0.0
  9
$UCSYDIR
 10
0.0
 20
1.0
 30
0.0
  9
$PUCSNAME
  2

  9
$PUCSORG
 10
0.0
 20
0.0
 30
0.0
  9
$PUCSXDIR
 10
1.0
 20
0.0
 30
0.0
  9
$PUCSYDIR
 10
0.0
 20
1.0
 30
0.0
  9
$USERI1
 70
     0
  9
$USERI2
 70
     0
  9
$USERI3
 70
     0
  9
$USERI4
 70
     0
  9
$USERI5
 70
     0
  9
$USERR1
 40
0.0
  9
$USERR2
 40
0.0
  9
$USERR3
 40
0.0
  9
$USERR4
 40
0.0
  9
$USERR5
 40
0.0
  9
$WORLDVIEW
 70
     1
  9
$SHADEDGE
 70
     3
  9
$SHADEDIF
 70
    70
  9
$TILEMODE
 70
     1
  9
$MAXACTVP
 70
    64
  9
$PINSBASE
 10
0.0
 20
0.0
 30
0.0
  9
$PLIMCHECK
 70
     0
  9
$PEXTMIN
 10
1.000000000000000E+20
 20
1.000000000000000E+20
 30
1.000000000000000E+20
  9
$PEXTMAX
 10
-1.000000000000000E+20
 20
-1.000000000000000E+20
 30
-1.000000000000000E+20
  9
$PLIMMIN
 10
0.0
 20
0.0
  9
$PLIMMAX
 10
12.0
 20
9.0
  9
$UNITMODE
 70
     0
  9
$VISRETAIN
 70
     1
  9
$PLINEGEN
 70
     0
  9
$PSLTSCALE
 70
     1
  9
$TREEDEPTH
 70
  3020
  9
$PICKSTYLE
 70
     1
  9
$CMLSTYLE
  2
STANDARD
  9
$CMLJUST
 70
     0
  9
$CMLSCALE
 40
1.0
  9
$PROXYGRAPHICS
 70
     1
  9
$MEASUREMENT
 70
     0
  0
ENDSEC
  0
SECTION
  2
CLASSES
  0
CLASS
  1
ACDBDICTIONARYWDFLT
  2
AcDbDictionaryWithDefault
  3
ObjectDBX Classes
 90
        0
280
     0
281
     0
  0
CLASS
  1
VISUALSTYLE
  2
AcDbVisualStyle
  3
ObjectDBX Classes
 90
     4095
280
     0
281
     0
  0
CLASS
  1
MATERIAL
  2
AcDbMaterial
  3
ObjectDBX Classes
 90
     1153
280
     0
281
     0
  0
CLASS
  1
SCALE
  2
AcDbScale
  3
ObjectDBX Classes
 90
     1153
280
     0
281
     0
  0
CLASS
  1
SUN
  2
AcDbSun
  3
SCENEOE
 90
     1153
280
     0
281
     0
  0
CLASS
  1
DICTIONARYVAR
  2
AcDbDictionaryVar
  3
ObjectDBX Classes
 90
        0
280
     0
281
     0
  0
CLASS
  1
XRECORD
  2
AcDbXrecord
  3
ObjectDBX Classes
 90
        0
280
     0
281
     0
  0
CLASS
  1
LWPOLYLINE
  2
AcDbPolyline
  3
ObjectDBX Classes
 90
        0
280
     0
281
     1
  0
CLASS
  1
HATCH
  2
AcDbHatch
  3
ObjectDBX Classes
 90
        0
280
     0
281
     1
  0
CLASS
  1
ACDBPLACEHOLDER
  2
AcDbPlaceHolder
  3
ObjectDBX Classes
 90
        0
280
     0
281
     0
  0
CLASS
  1
LAYOUT
  2
AcDbLayout
  3
ObjectDBX Classes
 90
        0
280
     0
281
     0
  0
ENDSEC
  0
SECTION
  2
TABLES
  0
TABLE
  2
VPORT
  5
8
102
{ACAD_XDICTIONARY
360
326
102
}
330
0
100
AcDbSymbolTable
 70
     1
  0
VPORT
  5
29
330
8
100
AcDbSymbolTableRecord
100
AcDbViewportTableRecord
  2
*ACTIVE
 70
     0
 10
0.0
 20
0.0
 11
1.0
 21
1.0
 12
0.0
 22
0.0
 13
0.0
 23
0.0
 14
0.5
 24
0.5
 15
0.5
 25
0.5
 16
0.0
 26
0.0
 36
1.0
 17
0.0
 27
0.0
 37
-1000.0
 40
155.7670113189873
 41
2.199770378874856
 42
50.0
 43
406.5721753714737
 44
524.8615476762457
 50
0.0
 51
0.0
 71
     0
 72
   100
 73
     1
 74
     3
 75
     0
 76
     0
 77
     0
 78
     0
  0
ENDTAB
  0
TABLE
  2
LTYPE
  5
5
330
0
100
AcDbSymbolTable
 70
     1
  0
LTYPE
  5
14
330
5
100
AcDbSymbolTableRecord
100
AcDbLinetypeTableRecord
  2
BYBLOCK
 70
     0
  3

 72
    65
 73
     0
 40
0.0
  0
LTYPE
  5
15
330
5
100
AcDbSymbolTableRecord
100
AcDbLinetypeTableRecord
  2
BYLAYER
 70
     0
  3

 72
    65
 73
     0
 40
0.0
  0
LTYPE
  5
16
330
5
100
AcDbSymbolTableRecord
100
AcDbLinetypeTableRecord
  2
CONTINUOUS
 70
     0
  3
Solid line
 72
    65
 73
     0
 40
0.0
  0
ENDTAB
  0
TABLE
  2
LAYER
  5
2
330
0
100
AcDbSymbolTable
 70
     3
  0
LAYER
  5
10
330
2
100
AcDbSymbolTableRecord
100
AcDbLayerTableRecord
  2
0
 70
     0
 62
     7
  6
CONTINUOUS
  0
LAYER
  5
6A
330
2
100
AcDbSymbolTableRecord
100
AcDbLayerTableRecord
  2
PROFILEEDGES
 70
     0
 62
     7
  6
CONTINUOUS
  0
LAYER
  5
6B
330
2
100
AcDbSymbolTableRecord
100
AcDbLayerTableRecord
  2
SECTIONCUTEDGES
 70
     0
 62
     7
  6
CONTINUOUS
  0
ENDTAB
  0
TABLE
  2
STYLE
  5
3
330
0
100
AcDbSymbolTable
 70
     1
  0
STYLE
  5
11
330
3
100
AcDbSymbolTableRecord
100
AcDbTextStyleTableRecord
  2
STANDARD
 70
     0
 40
0.0
 41
1.0
 50
0.0
 71
     0
 42
0.2
  3
txt
  4

  0
ENDTAB
  0
TABLE
  2
VIEW
  5
6
330
0
100
AcDbSymbolTable
 70
     0
  0
ENDTAB
  0
TABLE
  2
UCS
  5
7
330
0
100
AcDbSymbolTable
 70
     0
  0
ENDTAB
  0
TABLE
  2
APPID
  5
9
330
0
100
AcDbSymbolTable
 70
     1
  0
APPID
  5
12
330
9
100
AcDbSymbolTableRecord
100
AcDbRegAppTableRecord
  2
ACAD
 70
     0
  0
ENDTAB
  0
TABLE
  2
DIMSTYLE
  5
A
330
0
100
AcDbSymbolTable
 70
     1
  0
DIMSTYLE
105
27
330
A
100
AcDbSymbolTableRecord
100
AcDbDimStyleTableRecord
  2
STANDARD
 70
     0
  3

  4

  5

  6

  7

 40
1.0
 41
0.18
 42
0.0625
 43
0.38
 44
0.18
 45
0.0
 46
0.0
 47
0.0
 48
0.0
140
0.18
141
0.09
142
0.0
143
25.4
144
1.0
145
0.0
146
1.0
147
0.09
 71
     0
 72
     0
 73
     1
 74
     1
 75
     0
 76
     0
 77
     0
 78
     0
170
     0
171
     2
172
     0
173
     0
174
     0
175
     0
176
     0
177
     0
178
     0
270
     2
271
     4
272
     4
273
     2
274
     2
340
11
275
     0
280
     0
281
     0
282
     0
283
     1
284
     0
285
     0
286
     0
287
     3
288
     0
  0
ENDTAB
  0
TABLE
  2
BLOCK_RECORD
  5
1
330
0
100
AcDbSymbolTable
 70
     1
  0
BLOCK_RECORD
  5
1F
330
1
100
AcDbSymbolTableRecord
100
AcDbBlockTableRecord
  2
*MODEL_SPACE
  0
BLOCK_RECORD
  5
1B
330
1
100
AcDbSymbolTableRecord
100
AcDbBlockTableRecord
  2
*PAPER_SPACE
  0
ENDTAB
  0
ENDSEC
  0
SECTION
  2
BLOCKS
  0
BLOCK
  5
20
330
1F
100
AcDbEntity
  8
0
100
AcDbBlockBegin
  2
*MODEL_SPACE
 70
     0
 10
0.0
 20
0.0
 30
0.0
  3
*MODEL_SPACE
  1

  0
ENDBLK
  5
21
330
1F
100
AcDbEntity
  8
0
100
AcDbBlockEnd
  0
BLOCK
  5
1C
330
1B
100
AcDbEntity
 67
     1
  8
0
100
AcDbBlockBegin
  2
*PAPER_SPACE
 70
     0
 10
0.0
 20
0.0
 30
0.0
  3
*PAPER_SPACE
  1

  0
ENDBLK
  5
1D
330
1B
100
AcDbEntity
 67
     1
  8
0
100
AcDbBlockEnd
  0
ENDSEC
  0
SECTION
  2
ENTITIES
  0
LINE
  5
6C
330
1F
100
AcDbEntity
  8
0
100
AcDbLine
 10
-52.4734551323785
 20
73.98933037651895
 30
0.0
 11
52.4734551323785
 21
73.98933037651895
 31
0.0
  0
LINE
  5
6D
330
1F
100
AcDbEntity
  8
0
100
AcDbLine
 10
-52.44875398262589
 20
29.01066962348087
 30
0.0
 11
-27.73560471505849
 21
29.01066962348087
 31
0.0
  0
LINE
  5
6E
330
1F
100
AcDbEntity
  8
0
100
AcDbLine
 10
-21.73560376866543
 20
29.01066962348087
 30
0.0
 11
21.73672756618926
 21
29.01066962348087
 31
0.0
  0
LINE
  5
6F
330
1F
100
AcDbEntity
  8
0
100
AcDbLine
 10
27.73672756618925
 20
29.01066962348087
 30
0.0
 11
52.4734551323785
 21
29.01066962348087
 31
0.0
  0
LINE
  5
70
330
1F
100
AcDbEntity
  8
0
100
AcDbLine
 10
2.999999999999995
 20
32.01066962348087
 30
0.0
 11
46.47345513237852
 21
32.01066962348087
 31
0.0
  0
LINE
  5
71
330
1F
100
AcDbEntity
  8
0
100
AcDbLine
 10
-46.47345513237852
 20
32.01066962348087
 30
0.0
 11
-2.999999999999995
 21
32.01066962348087
 31
0.0
  0
LINE
  5
72
330
1F
100
AcDbEntity
  8
0
100
AcDbLine
 10
-21.73560376866543
 20
-73.98933037651895
 30
0.0
 11
21.73672756618926
 21
-73.98933037651895
 31
0.0
  0
LINE
  5
73
330
1F
100
AcDbEntity
  8
0
100
AcDbLine
 10
-52.44875398262589
 20
-73.98933037651895
 30
0.0
 11
-27.73560471505849
 21
-73.98933037651895
 31
0.0
  0
LINE
  5
74
330
1F
100
AcDbEntity
  8
0
100
AcDbLine
 10
27.73672756618925
 20
-73.98933037651895
 30
0.0
 11
52.4734551323785
 21
-73.98933037651895
 31
0.0
  0
LINE
  5
75
330
1F
100
AcDbEntity
  8
0
100
AcDbLine
 10
-52.4734551323785
 20
73.98933037651895
 30
0.0
 11
-52.44875398262589
 21
29.01066962348087
 31
0.0
  0
LINE
  5
76
330
1F
100
AcDbEntity
  8
0
100
AcDbLine
 10
-52.44875398262589
 20
29.01066962348087
 30
0.0
 11
-52.44875398262589
 21
23.01066962348088
 31
0.0
  0
LINE
  5
77
330
1F
100
AcDbEntity
  8
0
100
AcDbLine
 10
52.4734551323785
 20
29.01066962348087
 30
0.0
 11
52.4734551323785
 21
23.01066962348088
 31
0.0
  0
LINE
  5
78
330
1F
100
AcDbEntity
  8
0
100
AcDbLine
 10
21.73672756618926
 20
-73.98933037651895
 30
0.0
 11
27.73672756618925
 21
-73.98933037651895
 31
0.0
  0
LINE
  5
79
330
1F
100
AcDbEntity
  8
0
100
AcDbLine
 10
52.4734551323785
 20
73.98933037651895
 30
0.0
 11
52.4734551323785
 21
29.01066962348087
 31
0.0
  0
LINE
  5
7A
330
1F
100
AcDbEntity
  8
0
100
AcDbLine
 10
-27.73560471505849
 20
-73.98933037651895
 30
0.0
 11
-21.73560376866543
 21
-73.98933037651895
 31
0.0
  0
LINE
  5
7B
330
1F
100
AcDbEntity
  8
0
100
AcDbLine
 10
-43.56865710047079
 20
45.67356893384287
 30
0.0
 11
-33.13529758010566
 21
45.67356893384287
 31
0.0
  0
LINE
  5
7C
330
1F
100
AcDbEntity
  8
0
100
AcDbLine
 10
-43.56865710047079
 20
49.67356893384287
 30
0.0
 11
-33.13529758010566
 21
49.67356893384287
 31
0.0
  0
LINE
  5
7D
330
1F
100
AcDbEntity
  8
0
100
AcDbLine
 10
-49.50574142776188
 20
47.67356893384287
 30
0.0
 11
-39.07211219599117
 21
47.67356893384287
 31
0.0
  0
LINE
  5
7E
330
1F
100
AcDbEntity
  8
0
100
AcDbLine
 10
-37.63211219599116
 20
47.67356893384287
 30
0.0
 11
-27.19848296422023
 21
47.67356893384287
 31
0.0
  0
LINE
  5
7F
330
1F
100
AcDbEntity
  8
0
100
AcDbLine
 10
-45.89817297327952
 20
68.91040536251609
 30
0.0
 11
-46.26726110975888
 21
68.69945216631261
 31
0.0
  0
LINE
  5
80
330
1F
100
AcDbEntity
  8
0
100
AcDbLine
 10
-45.09359705153097
 20
69.1796162571431
 30
0.0
 11
-45.50470751953595
 21
69.07137815583418
 31
0.0
  0
LINE
  5
81
330
1F
100
AcDbEntity
  8
0
100
AcDbLine
 10
-42.02065747399939
 20
68.12153197276868
 30
0.0
 11
-42.31994965339283
 21
68.42344503116826
 31
0.0
  0
LINE
  5
82
330
1F
100
AcDbEntity
  8
0
100
AcDbLine
 10
-44.24675948282515
 20
69.23141444120226
 30
0.0
 11
-44.67187578335347
 21
69.23326768252018
 31
0.0
  0
LINE
  5
83
330
1F
100
AcDbEntity
  8
0
100
AcDbLine
 10
-46.26726110975888
 20
68.69945216631261
 30
0.0
 11
-46.60565672862826
 21
68.44212803489803
 31
0.0
  0
LINE
  5
84
330
1F
100
AcDbEntity
  8
0
100
AcDbLine
 10
-47.54639470991009
 20
67.04741466089337
 30
0.0
 11
-47.65821299852169
 21
66.63726350118486
 31
0.0
  0
LINE
  5
85
330
1F
100
AcDbEntity
  8
0
100
AcDbLine
 10
-44.67187578335347
 20
69.23326768252018
 30
0.0
 11
-45.09359705153097
 21
69.1796162571431
 31
0.0
  0
LINE
  5
86
330
1F
100
AcDbEntity
  8
0
100
AcDbLine
 10
-47.16783446882231
 20
67.80669660030124
 30
0.0
 11
-47.38199757314711
 21
67.43946170513983
 31
0.0
  0
LINE
  5
87
330
1F
100
AcDbEntity
  8
0
100
AcDbLine
 10
-45.50470751953595
 20
69.07137815583418
 30
0.0
 11
-45.89817297327952
 21
68.91040536251609
 31
0.0
  0
LINE
  5
88
330
1F
100
AcDbEntity
  8
0
100
AcDbLine
 10
-41.28316925175435
 20
66.60947229567137
 30
0.0
 11
-41.39140735306327
 21
67.02058276367639
 31
0.0
  0
LINE
  5
89
330
1F
100
AcDbEntity
  8
0
100
AcDbLine
 10
-41.76333334258484
 20
67.78313635389928
 30
0.0
 11
-42.02065747399939
 21
68.12153197276868
 31
0.0
  0
LINE
  5
8A
330
1F
100
AcDbEntity
  8
0
100
AcDbLine
 10
-41.55238014638136
 20
67.41404821741993
 30
0.0
 11
-41.76333334258484
 21
67.78313635389928
 31
0.0
  0
LINE
  5
8B
330
1F
100
AcDbEntity
  8
0
100
AcDbLine
 10
-46.90756978702782
 20
68.1428358555046
 30
0.0
 11
-47.16783446882231
 21
67.80669660030124
 31
0.0
  0
LINE
  5
8C
330
1F
100
AcDbEntity
  8
0
100
AcDbLine
 10
-46.60565672862826
 20
68.44212803489803
 30
0.0
 11
-46.90756978702782
 21
68.1428358555046
 31
0.0
  0
LINE
  5
8D
330
1F
100
AcDbEntity
  8
0
100
AcDbLine
 10
-47.39453011837568
 20
64.56461253561794
 30
0.0
 11
-47.1835769221722
 21
64.19552439913859
 31
0.0
  0
LINE
  5
8E
330
1F
100
AcDbEntity
  8
0
100
AcDbLine
 10
-43.82552200771262
 20
69.17408824266211
 30
0.0
 11
-44.24675948282515
 21
69.23141444120226
 31
0.0
  0
LINE
  5
8F
330
1F
100
AcDbEntity
  8
0
100
AcDbLine
 10
-42.31994965339283
 20
68.42344503116826
 30
0.0
 11
-42.65608890859622
 21
68.68370971296272
 31
0.0
  0
LINE
  5
90
330
1F
100
AcDbEntity
  8
0
100
AcDbLine
 10
-43.41537084800409
 20
69.0622699540505
 30
0.0
 11
-43.82552200771262
 21
69.17408824266211
 31
0.0
  0
LINE
  5
91
330
1F
100
AcDbEntity
  8
0
100
AcDbLine
 10
-44.27503448140361
 20
62.7453930705177
 30
0.0
 11
-43.85331321322607
 21
62.79904449589477
 31
0.0
  0
LINE
  5
92
330
1F
100
AcDbEntity
  8
0
100
AcDbLine
 10
-42.65608890859622
 20
68.68370971296272
 30
0.0
 11
-43.0233238037576
 21
68.89787281728755
 31
0.0
  0
LINE
  5
93
330
1F
100
AcDbEntity
  8
0
100
AcDbLine
 10
-47.38199757314711
 20
67.43946170513983
 30
0.0
 11
-47.54639470991009
 21
67.04741466089337
 31
0.0
  0
LINE
  5
94
330
1F
100
AcDbEntity
  8
0
100
AcDbLine
 10
-41.23137106769517
 20
65.76263472696554
 30
0.0
 11
-41.22951782637728
 21
66.18775102749385
 31
0.0
  0
LINE
  5
95
330
1F
100
AcDbEntity
  8
0
100
AcDbLine
 10
-44.70015078193189
 20
62.74724631183561
 30
0.0
 11
-44.27503448140361
 21
62.7453930705177
 31
0.0
  0
LINE
  5
96
330
1F
100
AcDbEntity
  8
0
100
AcDbLine
 10
-42.03934047772922
 20
63.83582489753322
 30
0.0
 11
-41.77907579593473
 21
64.1719641527366
 31
0.0
  0
LINE
  5
97
330
1F
100
AcDbEntity
  8
0
100
AcDbLine
 10
-45.92358646099944
 20
63.08078793575032
 30
0.0
 11
-45.53153941675294
 21
62.91639079898736
 31
0.0
  0
LINE
  5
98
330
1F
100
AcDbEntity
  8
0
100
AcDbLine
 10
-41.39140735306327
 20
67.02058276367639
 30
0.0
 11
-41.55238014638136
 21
67.41404821741993
 31
0.0
  0
LINE
  5
99
330
1F
100
AcDbEntity
  8
0
100
AcDbLine
 10
-47.1835769221722
 20
64.19552439913859
 30
0.0
 11
-46.92625279075764
 21
63.85712878026919
 31
0.0
  0
LINE
  5
9A
330
1F
100
AcDbEntity
  8
0
100
AcDbLine
 10
-43.0233238037576
 20
68.89787281728755
 30
0.0
 11
-43.41537084800409
 21
69.0622699540505
 31
0.0
  0
LINE
  5
9B
330
1F
100
AcDbEntity
  8
0
100
AcDbLine
 10
-45.12138825704442
 20
62.80457251037579
 30
0.0
 11
-44.70015078193189
 21
62.74724631183561
 31
0.0
  0
LINE
  5
9C
330
1F
100
AcDbEntity
  8
0
100
AcDbLine
 10
-47.71553919706187
 20
66.21602602607231
 30
0.0
 11
-47.71739243837976
 21
65.79090972554403
 31
0.0
  0
LINE
  5
9D
330
1F
100
AcDbEntity
  8
0
100
AcDbLine
 10
-42.34125353612878
 20
63.53653271813983
 30
0.0
 11
-42.03934047772922
 21
63.83582489753322
 31
0.0
  0
LINE
  5
9E
330
1F
100
AcDbEntity
  8
0
100
AcDbLine
 10
-41.77907579593473
 20
64.1719641527366
 30
0.0
 11
-41.56491269160993
 21
64.53919904789804
 31
0.0
  0
LINE
  5
9F
330
1F
100
AcDbEntity
  8
0
100
AcDbLine
 10
-47.66374101300269
 20
65.36918845736649
 30
0.0
 11
-47.55550291169376
 21
64.95807798936148
 31
0.0
  0
LINE
  5
A0
330
1F
100
AcDbEntity
  8
0
100
AcDbLine
 10
-41.56491269160993
 20
64.53919904789804
 30
0.0
 11
-41.40051555484695
 21
64.9312460921445
 31
0.0
  0
LINE
  5
A1
330
1F
100
AcDbEntity
  8
0
100
AcDbLine
 10
-46.62696061136421
 20
63.55521572186961
 30
0.0
 11
-46.29082135616082
 21
63.29495104007515
 31
0.0
  0
LINE
  5
A2
330
1F
100
AcDbEntity
  8
0
100
AcDbLine
 10
-46.92625279075764
 20
63.85712878026919
 30
0.0
 11
-46.62696061136421
 21
63.55521572186961
 31
0.0
  0
LINE
  5
A3
330
1F
100
AcDbEntity
  8
0
100
AcDbLine
 10
-41.22951782637728
 20
66.18775102749385
 30
0.0
 11
-41.28316925175435
 21
66.60947229567137
 31
0.0
  0
LINE
  5
A4
330
1F
100
AcDbEntity
  8
0
100
AcDbLine
 10
-41.40051555484695
 20
64.9312460921445
 30
0.0
 11
-41.2886972662354
 21
65.34139725185301
 31
0.0
  0
LINE
  5
A5
330
1F
100
AcDbEntity
  8
0
100
AcDbLine
 10
-42.6796491549982
 20
63.27920858672523
 30
0.0
 11
-42.34125353612878
 21
63.53653271813983
 31
0.0
  0
LINE
  5
A6
330
1F
100
AcDbEntity
  8
0
100
AcDbLine
 10
-47.65821299852169
 20
66.63726350118486
 30
0.0
 11
-47.71553919706187
 21
66.21602602607231
 31
0.0
  0
LINE
  5
A7
330
1F
100
AcDbEntity
  8
0
100
AcDbLine
 10
-43.85331321322607
 20
62.79904449589477
 30
0.0
 11
-43.44220274522109
 21
62.90728259720369
 31
0.0
  0
LINE
  5
A8
330
1F
100
AcDbEntity
  8
0
100
AcDbLine
 10
-41.2886972662354
 20
65.34139725185301
 30
0.0
 11
-41.23137106769517
 21
65.76263472696554
 31
0.0
  0
LINE
  5
A9
330
1F
100
AcDbEntity
  8
0
100
AcDbLine
 10
-43.04873729147752
 20
63.06825539052178
 30
0.0
 11
-42.6796491549982
 21
63.27920858672523
 31
0.0
  0
LINE
  5
AA
330
1F
100
AcDbEntity
  8
0
100
AcDbLine
 10
-47.55550291169376
 20
64.95807798936148
 30
0.0
 11
-47.39453011837568
 21
64.56461253561794
 31
0.0
  0
LINE
  5
AB
330
1F
100
AcDbEntity
  8
0
100
AcDbLine
 10
-43.44220274522109
 20
62.90728259720369
 30
0.0
 11
-43.04873729147752
 21
63.06825539052178
 31
0.0
  0
LINE
  5
AC
330
1F
100
AcDbEntity
  8
0
100
AcDbLine
 10
-47.71739243837976
 20
65.79090972554403
 30
0.0
 11
-47.66374101300269
 21
65.36918845736649
 31
0.0
  0
LINE
  5
AD
330
1F
100
AcDbEntity
  8
0
100
AcDbLine
 10
-46.29082135616082
 20
63.29495104007515
 30
0.0
 11
-45.92358646099944
 21
63.08078793575032
 31
0.0
  0
LINE
  5
AE
330
1F
100
AcDbEntity
  8
0
100
AcDbLine
 10
-45.53153941675294
 20
62.91639079898736
 30
0.0
 11
-45.12138825704442
 21
62.80457251037579
 31
0.0
  0
LINE
  5
AF
330
1F
100
AcDbEntity
  8
0
100
AcDbLine
 10
50.65044666236096
 20
67.21636062352009
 30
0.0
 11
49.23711428615204
 21
68.51477758600197
 31
0.0
  0
LINE
  5
B0
330
1F
100
AcDbEntity
  8
0
100
AcDbLine
 10
49.23711428615204
 20
68.51477758600197
 30
0.0
 11
48.31906310268594
 21
68.81203111007117
 31
0.0
  0
LINE
  5
B1
330
1F
100
AcDbEntity
  8
0
100
AcDbLine
 10
41.71079075019816
 20
66.65280864992822
 30
0.0
 11
42.73772840566178
 21
66.06185539862466
 31
0.0
  0
LINE
  5
B2
330
1F
100
AcDbEntity
  8
0
100
AcDbLine
 10
48.95046181500972
 20
67.52124690569663
 30
0.0
 11
50.65044666236096
 21
67.21636062352009
 31
0.0
  0
LINE
  5
B3
330
1F
100
AcDbEntity
  8
0
100
AcDbLine
 10
42.5033254670103
 20
65.94635448288226
 30
0.0
 11
41.23289528425533
 21
59.79562357471787
 31
0.0
  0
LINE
  5
B4
330
1F
100
AcDbEntity
  8
0
100
AcDbLine
 10
42.68481549311823
 20
71.40971311926899
 30
0.0
 11
34.90109839210035
 21
71.92450024939735
 31
0.0
  0
LINE
  5
B5
330
1F
100
AcDbEntity
  8
0
100
AcDbLine
 10
44.37377524542555
 20
63.10908867753736
 30
0.0
 11
44.67145281161179
 21
63.29185082999641
 31
0.0
  0
LINE
  5
B6
330
1F
100
AcDbEntity
  8
0
100
AcDbLine
 10
42.5033254670103
 20
65.94635448288226
 30
0.0
 11
44.37377524542555
 21
63.10908867753736
 31
0.0
  0
LINE
  5
B7
330
1F
100
AcDbEntity
  8
0
100
AcDbLine
 10
45.32066129285275
 20
62.49804398683316
 30
0.0
 11
44.67145281161179
 21
63.29185082999641
 31
0.0
  0
LINE
  5
B8
330
1F
100
AcDbEntity
  8
0
100
AcDbLine
 10
48.33941712430553
 20
65.15381976607021
 30
0.0
 11
48.95046181500972
 21
67.52124690569663
 31
0.0
  0
LINE
  5
B9
330
1F
100
AcDbEntity
  8
0
100
AcDbLine
 10
44.94792827194431
 20
64.78999162962035
 30
0.0
 11
48.30040524953462
 21
65.43029522640269
 31
0.0
  0
LINE
  5
BA
330
1F
100
AcDbEntity
  8
0
100
AcDbLine
 10
48.31906310268594
 20
68.81203111007117
 30
0.0
 11
46.13509645469942
 21
67.73589209387771
 31
0.0
  0
LINE
  5
BB
330
1F
100
AcDbEntity
  8
0
100
AcDbLine
 10
41.23289528425533
 20
59.79562357471787
 30
0.0
 11
45.32066129285275
 21
62.49804398683316
 31
0.0
  0
LINE
  5
BC
330
1F
100
AcDbEntity
  8
0
100
AcDbLine
 10
42.68481549311823
 20
71.40971311926899
 30
0.0
 11
41.71079075019816
 21
66.65280864992822
 31
0.0
  0
LINE
  5
BD
330
1F
100
AcDbEntity
  8
0
100
AcDbLine
 10
34.84385270629519
 20
71.04588498281915
 30
0.0
 11
39.1834997324348
 21
68.60891493599252
 31
0.0
  0
LINE
  5
BE
330
1F
100
AcDbEntity
  8
0
100
AcDbLine
 10
49.23711428615204
 20
68.51477758600197
 30
0.0
 11
48.95046181500972
 21
67.52124690569663
 31
0.0
  0
LINE
  5
BF
330
1F
100
AcDbEntity
  8
0
100
AcDbLine
 10
48.30040524953462
 20
65.43029522640269
 30
0.0
 11
46.13509645469942
 21
67.73589209387771
 31
0.0
  0
LINE
  5
C0
330
1F
100
AcDbEntity
  8
0
100
AcDbLine
 10
36.03668318162543
 20
71.04588498281915
 30
0.0
 11
34.84385270629519
 21
71.04588498281915
 31
0.0
  0
LINE
  5
C1
330
1F
100
AcDbEntity
  8
0
100
AcDbLine
 10
34.90109839210035
 20
71.92450024939735
 30
0.0
 11
36.03668318162543
 21
71.04588498281915
 31
0.0
  0
LINE
  5
C2
330
1F
100
AcDbEntity
  8
0
100
AcDbLine
 10
36.03668318162543
 20
71.04588498281915
 30
0.0
 11
39.1834997324348
 21
68.60891493599252
 31
0.0
  0
LINE
  5
C3
330
1F
100
AcDbEntity
  8
0
100
AcDbLine
 10
44.67145281161179
 20
63.29185082999641
 30
0.0
 11
44.74735635056813
 21
63.33001462053314
 31
0.0
  0
LINE
  5
C4
330
1F
100
AcDbEntity
  8
0
100
AcDbLine
 10
42.73772840566178
 20
66.06185539862466
 30
0.0
 11
42.5033254670103
 21
65.94635448288226
 31
0.0
  0
LINE
  5
C5
330
1F
100
AcDbEntity
  8
0
100
AcDbLine
 10
46.13509645469942
 20
67.73589209387771
 30
0.0
 11
42.73772840566178
 21
66.06185539862466
 31
0.0
  0
LINE
  5
C6
330
1F
100
AcDbEntity
  8
0
100
AcDbLine
 10
46.13509645469942
 20
67.73589209387771
 30
0.0
 11
42.68481549311823
 21
71.40971311926899
 31
0.0
  0
LINE
  5
C7
330
1F
100
AcDbEntity
  8
0
100
AcDbLine
 10
44.74735635056813
 20
63.33001462053314
 30
0.0
 11
48.33941712430553
 21
65.15381976607021
 31
0.0
  0
LINE
  5
C8
330
1F
100
AcDbEntity
  8
0
100
AcDbLine
 10
39.1834997324348
 20
68.60891493599252
 30
0.0
 11
41.71079075019816
 21
66.65280864992822
 31
0.0
  0
LINE
  5
C9
330
1F
100
AcDbEntity
  8
0
100
AcDbLine
 10
42.73772840566178
 20
66.06185539862466
 30
0.0
 11
44.94792827194431
 21
64.78999162962035
 31
0.0
  0
LINE
  5
CA
330
1F
100
AcDbEntity
  8
0
100
AcDbLine
 10
-17.85517005070935
 20
61.80664587527231
 30
0.0
 11
-17.91175958793269
 21
61.21698289740511
 31
0.0
  0
LINE
  5
CB
330
1F
100
AcDbEntity
  8
0
100
AcDbLine
 10
-17.91175958793269
 20
61.21698289740511
 30
0.0
 11
-18.08152819960271
 21
60.69749094569484
 31
0.0
  0
LINE
  5
CC
330
1F
100
AcDbEntity
  8
0
100
AcDbLine
 10
-18.08152819960271
 20
60.69749094569484
 30
0.0
 11
-18.36447588571941
 21
60.24817002014153
 31
0.0
  0
LINE
  5
CD
330
1F
100
AcDbEntity
  8
0
100
AcDbLine
 10
-18.36447588571941
 20
60.24817002014153
 30
0.0
 11
-18.76060264628279
 21
59.86902012074514
 31
0.0
  0
LINE
  5
CE
330
1F
100
AcDbEntity
  8
0
100
AcDbLine
 10
-18.76060264628279
 20
59.86902012074514
 30
0.0
 11
-19.26198594608159
 21
59.56796378271697
 31
0.0
  0
LINE
  5
CF
330
1F
100
AcDbEntity
  8
0
100
AcDbLine
 10
-19.26198594608159
 20
59.56796378271697
 30
0.0
 11
-19.86070324990452
 21
59.35292354126829
 31
0.0
  0
LINE
  5
D0
330
1F
100
AcDbEntity
  8
0
100
AcDbLine
 10
-19.86070324990452
 20
59.35292354126829
 30
0.0
 11
-20.55675455775161
 21
59.22389939639907
 31
0.0
  0
LINE
  5
D1
330
1F
100
AcDbEntity
  8
0
100
AcDbLine
 10
-20.55675455775161
 20
59.22389939639907
 30
0.0
 11
-21.35013986962283
 21
59.18089134810933
 31
0.0
  0
LINE
  5
D2
330
1F
100
AcDbEntity
  8
0
100
AcDbLine
 10
-21.35013986962283
 20
59.18089134810933
 30
0.0
 11
-22.59360063421036
 21
59.28652515092623
 31
0.0
  0
LINE
  5
D3
330
1F
100
AcDbEntity
  8
0
100
AcDbLine
 10
-22.59360063421036
 20
59.28652515092623
 30
0.0
 11
-23.64993866237937
 21
59.567209255554
 31
0.0
  0
LINE
  5
D4
330
1F
100
AcDbEntity
  8
0
100
AcDbLine
 10
-23.64993866237937
 20
59.567209255554
 30
0.0
 11
-23.64993866237937
 21
61.58330583503086
 31
0.0
  0
LINE
  5
D5
330
1F
100
AcDbEntity
  8
0
100
AcDbLine
 10
-23.64993866237937
 20
61.58330583503086
 30
0.0
 11
-23.21684007083008
 21
61.36751106641919
 31
0.0
  0
LINE
  5
D6
330
1F
100
AcDbEntity
  8
0
100
AcDbLine
 10
-23.21684007083008
 20
61.36751106641919
 30
0.0
 11
-22.72639741489446
 21
61.20302414489002
 31
0.0
  0
LINE
  5
D7
330
1F
100
AcDbEntity
  8
0
100
AcDbLine
 10
-22.72639741489446
 20
61.20302414489002
 30
0.0
 11
-22.20426461811378
 21
61.09889939639907
 31
0.0
  0
LINE
  5
D8
330
1F
100
AcDbEntity
  8
0
100
AcDbLine
 10
-22.20426461811378
 20
61.09889939639907
 30
0.0
 11
-21.67609560402927
 21
61.06419114690209
 31
0.0
  0
LINE
  5
D9
330
1F
100
AcDbEntity
  8
0
100
AcDbLine
 10
-21.67609560402927
 20
61.06419114690209
 30
0.0
 11
-21.13208151952223
 21
61.11927162979948
 31
0.0
  0
LINE
  5
DA
330
1F
100
AcDbEntity
  8
0
100
AcDbLine
 10
-21.13208151952223
 20
61.11927162979948
 30
0.0
 11
-20.73142759598098
 21
61.28451307849163
 31
0.0
  0
LINE
  5
DB
330
1F
100
AcDbEntity
  8
0
100
AcDbLine
 10
-20.73142759598098
 20
61.28451307849163
 30
0.0
 11
-20.48469721368722
 21
61.55237022134877
 31
0.0
  0
LINE
  5
DC
330
1F
100
AcDbEntity
  8
0
100
AcDbLine
 10
-20.48469721368722
 20
61.55237022134877
 30
0.0
 11
-20.40245375292263
 21
61.91529778674112
 31
0.0
  0
LINE
  5
DD
330
1F
100
AcDbEntity
  8
0
100
AcDbLine
 10
-20.40245375292263
 20
61.91529778674112
 30
0.0
 11
-20.50356039276167
 21
62.28652515092622
 31
0.0
  0
LINE
  5
DE
330
1F
100
AcDbEntity
  8
0
100
AcDbLine
 10
-20.50356039276167
 20
62.28652515092622
 30
0.0
 11
-20.80688031227877
 21
62.56720925555399
 31
0.0
  0
LINE
  5
DF
330
1F
100
AcDbEntity
  8
0
100
AcDbLine
 10
-20.80688031227877
 20
62.56720925555399
 30
0.0
 11
-21.29128675091056
 21
62.74376861169081
 31
0.0
  0
LINE
  5
E0
330
1F
100
AcDbEntity
  8
0
100
AcDbLine
 10
-21.29128675091056
 20
62.74376861169081
 30
0.0
 11
-21.93565294809366
 21
62.80262173040309
 31
0.0
  0
LINE
  5
E1
330
1F
100
AcDbEntity
  8
0
100
AcDbLine
 10
-21.93565294809366
 20
62.80262173040309
 30
0.0
 11
-22.76865093602122
 21
62.80262173040309
 31
0.0
  0
LINE
  5
E2
330
1F
100
AcDbEntity
  8
0
100
AcDbLine
 10
-22.76865093602122
 20
62.80262173040309
 30
0.0
 11
-22.76865093602122
 21
64.69799396380348
 31
0.0
  0
LINE
  5
E3
330
1F
100
AcDbEntity
  8
0
100
AcDbLine
 10
-22.76865093602122
 20
64.69799396380348
 30
0.0
 11
-22.03223242495483
 21
64.69799396380348
 31
0.0
  0
LINE
  5
E4
330
1F
100
AcDbEntity
  8
0
100
AcDbLine
 10
-22.03223242495483
 20
64.69799396380348
 30
0.0
 11
-21.39767508089044
 21
64.75458350102683
 31
0.0
  0
LINE
  5
E5
330
1F
100
AcDbEntity
  8
0
100
AcDbLine
 10
-21.39767508089044
 20
64.75458350102683
 30
0.0
 11
-20.95476763622243
 21
64.92435211269685
 31
0.0
  0
LINE
  5
E6
330
1F
100
AcDbEntity
  8
0
100
AcDbLine
 10
-20.95476763622243
 20
64.92435211269685
 30
0.0
 11
-20.69445576499507
 21
65.18466398392421
 31
0.0
  0
LINE
  5
E7
330
1F
100
AcDbEntity
  8
0
100
AcDbLine
 10
-20.69445576499507
 20
65.18466398392421
 30
0.0
 11
-20.60768514125261
 21
65.51288329981959
 31
0.0
  0
LINE
  5
E8
330
1F
100
AcDbEntity
  8
0
100
AcDbLine
 10
-20.60768514125261
 20
65.51288329981959
 30
0.0
 11
-20.67332900443169
 21
65.82073038231457
 31
0.0
  0
LINE
  5
E9
330
1F
100
AcDbEntity
  8
0
100
AcDbLine
 10
-20.67332900443169
 20
65.82073038231457
 30
0.0
 11
-20.87026059396891
 21
66.05614285716366
 31
0.0
  0
LINE
  5
EA
330
1F
100
AcDbEntity
  8
0
100
AcDbLine
 10
-20.87026059396891
 20
66.05614285716366
 30
0.0
 11
-21.20300707284215
 21
66.20553923543326
 31
0.0
  0
LINE
  5
EB
330
1F
100
AcDbEntity
  8
0
100
AcDbLine
 10
-21.20300707284215
 20
66.20553923543326
 30
0.0
 11
-21.67609560402927
 21
66.25533802818981
 31
0.0
  0
LINE
  5
EC
330
1F
100
AcDbEntity
  8
0
100
AcDbLine
 10
-21.67609560402927
 20
66.25533802818981
 30
0.0
 11
-22.51512980926066
 21
66.13461368211335
 31
0.0
  0
LINE
  5
ED
330
1F
100
AcDbEntity
  8
0
100
AcDbLine
 10
-22.51512980926066
 20
66.13461368211335
 30
0.0
 11
-23.35416401449205
 21
65.77244064388398
 31
0.0
  0
LINE
  5
EE
330
1F
100
AcDbEntity
  8
0
100
AcDbLine
 10
-23.35416401449205
 20
65.77244064388398
 30
0.0
 11
-23.35416401449205
 21
67.6979939638035
 31
0.0
  0
LINE
  5
EF
330
1F
100
AcDbEntity
  8
0
100
AcDbLine
 10
-23.35416401449205
 20
67.6979939638035
 30
0.0
 11
-22.27669922575965
 21
68.02394969820993
 31
0.0
  0
LINE
  5
F0
330
1F
100
AcDbEntity
  8
0
100
AcDbLine
 10
-22.27669922575965
 20
68.02394969820993
 30
0.0
 11
-21.14490848129285
 21
68.13260160967874
 31
0.0
  0
LINE
  5
F1
330
1F
100
AcDbEntity
  8
0
100
AcDbLine
 10
-21.14490848129285
 20
68.13260160967874
 30
0.0
 11
-20.46545677103128
 21
68.09600704227432
 31
0.0
  0
LINE
  5
F2
330
1F
100
AcDbEntity
  8
0
100
AcDbLine
 10
-20.46545677103128
 20
68.09600704227432
 30
0.0
 11
-19.86372135855644
 21
67.98622334006103
 31
0.0
  0
LINE
  5
F3
330
1F
100
AcDbEntity
  8
0
100
AcDbLine
 10
-19.86372135855644
 20
67.98622334006103
 30
0.0
 11
-19.33970224386831
 21
67.80325050303891
 31
0.0
  0
LINE
  5
F4
330
1F
100
AcDbEntity
  8
0
100
AcDbLine
 10
-19.33970224386831
 20
67.80325050303891
 30
0.0
 11
-18.8933994269669
 21
67.54708853120792
 31
0.0
  0
LINE
  5
F5
330
1F
100
AcDbEntity
  8
0
100
AcDbLine
 10
-18.8933994269669
 20
67.54708853120792
 30
0.0
 11
-18.53688534245986
 21
67.22603722336083
 31
0.0
  0
LINE
  5
F6
330
1F
100
AcDbEntity
  8
0
100
AcDbLine
 10
-18.53688534245986
 20
67.22603722336083
 30
0.0
 11
-18.28223242495483
 21
66.84839637829042
 31
0.0
  0
LINE
  5
F7
330
1F
100
AcDbEntity
  8
0
100
AcDbLine
 10
-18.28223242495483
 20
66.84839637829042
 30
0.0
 11
-18.12944067445181
 21
66.41416599599665
 31
0.0
  0
LINE
  5
F8
330
1F
100
AcDbEntity
  8
0
100
AcDbLine
 10
-18.12944067445181
 20
66.41416599599665
 30
0.0
 11
-18.0785100909508
 21
65.92334607647955
 31
0.0
  0
LINE
  5
F9
330
1F
100
AcDbEntity
  8
0
100
AcDbLine
 10
-18.0785100909508
 20
65.92334607647955
 30
0.0
 11
-18.18791652958259
 21
65.17938229378336
 31
0.0
  0
LINE
  5
FA
330
1F
100
AcDbEntity
  8
0
100
AcDbLine
 10
-18.18791652958259
 20
65.17938229378336
 30
0.0
 11
-18.51613584547796
 21
64.56519718311938
 31
0.0
  0
LINE
  5
FB
330
1F
100
AcDbEntity
  8
0
100
AcDbLine
 10
-18.51613584547796
 20
64.56519718311938
 30
0.0
 11
-19.04204127807354
 21
64.11097183100671
 31
0.0
  0
LINE
  5
FC
330
1F
100
AcDbEntity
  8
0
100
AcDbLine
 10
-19.04204127807354
 20
64.11097183100671
 30
0.0
 11
-19.74450606680593
 21
63.84688732396446
 31
0.0
  0
LINE
  5
FD
330
1F
100
AcDbEntity
  8
0
100
AcDbLine
 10
-19.74450606680593
 20
63.84688732396446
 30
0.0
 11
-19.74450606680593
 21
63.81670623744535
 31
0.0
  0
LINE
  5
FE
330
1F
100
AcDbEntity
  8
0
100
AcDbLine
 10
-19.74450606680593
 20
63.81670623744535
 30
0.0
 11
-18.96130687163491
 21
63.58959356138901
 31
0.0
  0
LINE
  5
FF
330
1F
100
AcDbEntity
  8
0
100
AcDbLine
 10
-18.96130687163491
 20
63.58959356138901
 30
0.0
 11
-18.63874650946187
 21
63.39624597587594
 31
0.0
  0
LINE
  5
100
330
1F
100
AcDbEntity
  8
0
100
AcDbLine
 10
-18.63874650946187
 20
63.39624597587594
 30
0.0
 11
-18.36221230423048
 21
63.14970422537291
 31
0.0
  0
LINE
  5
101
330
1F
100
AcDbEntity
  8
0
100
AcDbLine
 10
-18.36221230423048
 20
63.14970422537291
 30
0.0
 11
-18.14038131831499
 21
62.86090895374313
 31
0.0
  0
LINE
  5
102
330
1F
100
AcDbEntity
  8
0
100
AcDbLine
 10
-18.14038131831499
 20
62.86090895374313
 30
0.0
 11
-17.98193061408963
 21
62.54080080484977
 31
0.0
  0
LINE
  5
103
330
1F
100
AcDbEntity
  8
0
100
AcDbLine
 10
-17.98193061408963
 20
62.54080080484977
 30
0.0
 11
-17.88686019155443
 21
62.18937977869283
 31
0.0
  0
LINE
  5
104
330
1F
100
AcDbEntity
  8
0
100
AcDbLine
 10
-17.88686019155443
 20
62.18937977869283
 30
0.0
 11
-17.85517005070935
 21
61.80664587527231
 31
0.0
  0
LINE
  5
105
330
1F
100
AcDbEntity
  8
0
100
AcDbLine
 10
-8.33605536258058
 20
59.3317967807049
 30
0.0
 11
-8.33605536258058
 21
62.89316498996044
 31
0.0
  0
LINE
  5
106
330
1F
100
AcDbEntity
  8
0
100
AcDbLine
 10
-8.33605536258058
 20
62.89316498996044
 30
0.0
 11
-8.376045302218408
 21
63.28325553321999
 31
0.0
  0
LINE
  5
107
330
1F
100
AcDbEntity
  8
0
100
AcDbLine
 10
-8.376045302218408
 20
63.28325553321999
 30
0.0
 11
-8.496015121131888
 21
63.56016700203286
 31
0.0
  0
LINE
  5
108
330
1F
100
AcDbEntity
  8
0
100
AcDbLine
 10
-8.496015121131888
 20
63.56016700203286
 30
0.0
 11
-8.706528199602714
 21
63.72540845072502
 31
0.0
  0
LINE
  5
109
330
1F
100
AcDbEntity
  8
0
100
AcDbLine
 10
-8.706528199602714
 20
63.72540845072502
 30
0.0
 11
-9.018147917912572
 21
63.78048893362241
 31
0.0
  0
LINE
  5
10A
330
1F
100
AcDbEntity
  8
0
100
AcDbLine
 10
-9.018147917912572
 20
63.78048893362241
 30
0.0
 11
-9.335049326363274
 21
63.71333601611738
 31
0.0
  0
LINE
  5
10B
330
1F
100
AcDbEntity
  8
0
100
AcDbLine
 10
-9.335049326363274
 20
63.71333601611738
 30
0.0
 11
-9.573479909864282
 21
63.51187726360229
 31
0.0
  0
LINE
  5
10C
330
1F
100
AcDbEntity
  8
0
100
AcDbLine
 10
-9.573479909864282
 20
63.51187726360229
 30
0.0
 11
-9.7228762881339
 21
63.19120321933669
 31
0.0
  0
LINE
  5
10D
330
1F
100
AcDbEntity
  8
0
100
AcDbLine
 10
-9.7228762881339
 20
63.19120321933669
 30
0.0
 11
-9.772675080890439
 21
62.76640442658015
 31
0.0
  0
LINE
  5
10E
330
1F
100
AcDbEntity
  8
0
100
AcDbLine
 10
-9.772675080890439
 20
62.76640442658015
 30
0.0
 11
-9.772675080890439
 21
59.3317967807049
 31
0.0
  0
LINE
  5
10F
330
1F
100
AcDbEntity
  8
0
100
AcDbLine
 10
-9.772675080890439
 20
59.3317967807049
 30
0.0
 11
-12.34410365231901
 21
59.3317967807049
 31
0.0
  0
LINE
  5
110
330
1F
100
AcDbEntity
  8
0
100
AcDbLine
 10
-12.34410365231901
 20
59.3317967807049
 30
0.0
 11
-12.34410365231901
 21
62.8328028169222
 31
0.0
  0
LINE
  5
111
330
1F
100
AcDbEntity
  8
0
100
AcDbLine
 10
-12.34410365231901
 20
62.8328028169222
 30
0.0
 11
-12.38447085553833
 21
63.24741549297854
 31
0.0
  0
LINE
  5
112
330
1F
100
AcDbEntity
  8
0
100
AcDbLine
 10
-12.38447085553833
 20
63.24741549297854
 30
0.0
 11
-12.50557246519628
 21
63.54356740444735
 31
0.0
  0
LINE
  5
113
330
1F
100
AcDbEntity
  8
0
100
AcDbLine
 10
-12.50557246519628
 20
63.54356740444735
 30
0.0
 11
-12.70740848129286
 21
63.72125855132865
 31
0.0
  0
LINE
  5
114
330
1F
100
AcDbEntity
  8
0
100
AcDbLine
 10
-12.70740848129286
 20
63.72125855132865
 30
0.0
 11
-12.98997890382807
 21
63.78048893362241
 31
0.0
  0
LINE
  5
115
330
1F
100
AcDbEntity
  8
0
100
AcDbLine
 10
-12.98997890382807
 20
63.78048893362241
 30
0.0
 11
-13.33404329014597
 21
63.71182696179142
 31
0.0
  0
LINE
  5
116
330
1F
100
AcDbEntity
  8
0
100
AcDbLine
 10
-13.33404329014597
 20
63.71182696179142
 30
0.0
 11
-13.58152819960272
 21
63.50584104629846
 31
0.0
  0
LINE
  5
117
330
1F
100
AcDbEntity
  8
0
100
AcDbLine
 10
-13.58152819960272
 20
63.50584104629846
 30
0.0
 11
-13.73092457787233
 21
63.17158551309927
 31
0.0
  0
LINE
  5
118
330
1F
100
AcDbEntity
  8
0
100
AcDbLine
 10
-13.73092457787233
 20
63.17158551309927
 30
0.0
 11
-13.78072337062887
 21
62.71811468814957
 31
0.0
  0
LINE
  5
119
330
1F
100
AcDbEntity
  8
0
100
AcDbLine
 10
-13.78072337062887
 20
62.71811468814957
 30
0.0
 11
-13.78072337062887
 21
59.3317967807049
 31
0.0
  0
LINE
  5
11A
330
1F
100
AcDbEntity
  8
0
100
AcDbLine
 10
-13.78072337062887
 20
59.3317967807049
 30
0.0
 11
-16.35215194205744
 21
59.3317967807049
 31
0.0
  0
LINE
  5
11B
330
1F
100
AcDbEntity
  8
0
100
AcDbLine
 10
-16.35215194205744
 20
59.3317967807049
 30
0.0
 11
-16.35215194205744
 21
65.51288329981959
 31
0.0
  0
LINE
  5
11C
330
1F
100
AcDbEntity
  8
0
100
AcDbLine
 10
-16.35215194205744
 20
65.51288329981959
 30
0.0
 11
-13.78072337062887
 21
65.51288329981959
 31
0.0
  0
LINE
  5
11D
330
1F
100
AcDbEntity
  8
0
100
AcDbLine
 10
-13.78072337062887
 20
65.51288329981959
 30
0.0
 11
-13.78072337062887
 21
64.53501609660027
 31
0.0
  0
LINE
  5
11E
330
1F
100
AcDbEntity
  8
0
100
AcDbLine
 10
-13.75657850141358
 20
64.53501609660027
 30
0.0
 11
-13.29480787767113
 21
65.06318511068478
 31
0.0
  0
LINE
  5
11F
330
1F
100
AcDbEntity
  8
0
100
AcDbLine
 10
-13.29480787767113
 20
65.06318511068478
 30
0.0
 11
-12.57951612716811
 21
65.49779275656003
 31
0.0
  0
LINE
  5
120
330
1F
100
AcDbEntity
  8
0
100
AcDbLine
 10
-12.57951612716811
 20
65.49779275656003
 30
0.0
 11
-12.16452618753028
 21
65.62228973845139
 31
0.0
  0
LINE
  5
121
330
1F
100
AcDbEntity
  8
0
100
AcDbLine
 10
-12.16452618753028
 20
65.62228973845139
 30
0.0
 11
-11.71633705272143
 21
65.66378873241517
 31
0.0
  0
LINE
  5
122
330
1F
100
AcDbEntity
  8
0
100
AcDbLine
 10
-11.71633705272143
 20
65.66378873241517
 30
0.0
 11
-11.1104517408502
 21
65.59889939639906
 31
0.0
  0
LINE
  5
123
330
1F
100
AcDbEntity
  8
0
100
AcDbLine
 10
-11.1104517408502
 20
65.59889939639906
 30
0.0
 11
-10.60869117746992
 21
65.40423138835078
 31
0.0
  0
LINE
  5
124
330
1F
100
AcDbEntity
  8
0
100
AcDbLine
 10
-10.60869117746992
 20
65.40423138835078
 30
0.0
 11
-10.19596481932102
 21
65.0692213279886
 31
0.0
  0
LINE
  5
125
330
1F
100
AcDbEntity
  8
0
100
AcDbLine
 10
-10.19596481932102
 20
65.0692213279886
 30
0.0
 11
-9.85718212314396
 21
64.58330583503086
 31
0.0
  0
LINE
  5
126
330
1F
100
AcDbEntity
  8
0
100
AcDbLine
 10
-9.85718212314396
 20
64.58330583503086
 30
0.0
 11
-9.476900433003115
 21
65.04281287728438
 31
0.0
  0
LINE
  5
127
330
1F
100
AcDbEntity
  8
0
100
AcDbLine
 10
-9.476900433003115
 20
65.04281287728438
 30
0.0
 11
-8.987966831393459
 21
65.38310462778739
 31
0.0
  0
LINE
  5
128
330
1F
100
AcDbEntity
  8
0
100
AcDbLine
 10
-8.987966831393459
 20
65.38310462778739
 30
0.0
 11
-8.414526187530276
 21
65.59361770625823
 31
0.0
  0
LINE
  5
129
330
1F
100
AcDbEntity
  8
0
100
AcDbLine
 10
-8.414526187530276
 20
65.59361770625823
 30
0.0
 11
-7.780723370628869
 21
65.66378873241517
 31
0.0
  0
LINE
  5
12A
330
1F
100
AcDbEntity
  8
0
100
AcDbLine
 10
-7.780723370628869
 20
65.66378873241517
 30
0.0
 11
-7.323102646282794
 21
65.62417605635882
 31
0.0
  0
LINE
  5
12B
330
1F
100
AcDbEntity
  8
0
100
AcDbLine
 10
-7.323102646282794
 20
65.62417605635882
 30
0.0
 11
-6.922071459160055
 21
65.5053380281898
 31
0.0
  0
LINE
  5
12C
330
1F
100
AcDbEntity
  8
0
100
AcDbLine
 10
-6.922071459160055
 20
65.5053380281898
 30
0.0
 11
-6.577629809260658
 21
65.30727464790812
 31
0.0
  0
LINE
  5
12D
330
1F
100
AcDbEntity
  8
0
100
AcDbLine
 10
-6.577629809260658
 20
65.30727464790812
 30
0.0
 11
-6.289777696584605
 21
65.02998591551375
 31
0.0
  0
LINE
  5
12E
330
1F
100
AcDbEntity
  8
0
100
AcDbLine
 10
-6.289777696584605
 20
65.02998591551375
 30
0.0
 11
-6.062665020528266
 21
64.67799899398457
 31
0.0
  0
LINE
  5
12F
330
1F
100
AcDbEntity
  8
0
100
AcDbLine
 10
-6.062665020528266
 20
64.67799899398457
 30
0.0
 11
-5.900441680488023
 21
64.25584104629846
 31
0.0
  0
LINE
  5
130
330
1F
100
AcDbEntity
  8
0
100
AcDbLine
 10
-5.900441680488023
 20
64.25584104629846
 30
0.0
 11
-5.803107676463878
 21
63.76351207245541
 31
0.0
  0
LINE
  5
131
330
1F
100
AcDbEntity
  8
0
100
AcDbLine
 10
-5.803107676463878
 20
63.76351207245541
 30
0.0
 11
-5.770663008455831
 21
63.20101207245541
 31
0.0
  0
LINE
  5
132
330
1F
100
AcDbEntity
  8
0
100
AcDbLine
 10
-5.770663008455831
 20
63.20101207245541
 30
0.0
 11
-5.770663008455831
 21
59.3317967807049
 31
0.0
  0
LINE
  5
133
330
1F
100
AcDbEntity
  8
0
100
AcDbLine
 10
-5.770663008455831
 20
59.3317967807049
 30
0.0
 11
-8.33605536258058
 21
59.3317967807049
 31
0.0
  0
LINE
  5
134
330
1F
100
AcDbEntity
  8
0
100
AcDbLine
 10
3.410423510658856
 20
59.3317967807049
 30
0.0
 11
3.410423510658856
 21
62.89316498996044
 31
0.0
  0
LINE
  5
135
330
1F
100
AcDbEntity
  8
0
100
AcDbLine
 10
3.410423510658856
 20
62.89316498996044
 30
0.0
 11
3.37043357102103
 21
63.28325553321999
 31
0.0
  0
LINE
  5
136
330
1F
100
AcDbEntity
  8
0
100
AcDbLine
 10
3.37043357102103
 20
63.28325553321999
 30
0.0
 11
3.250463752107547
 21
63.56016700203286
 31
0.0
  0
LINE
  5
137
330
1F
100
AcDbEntity
  8
0
100
AcDbLine
 10
3.250463752107547
 20
63.56016700203286
 30
0.0
 11
3.03995067363672
 21
63.72540845072502
 31
0.0
  0
LINE
  5
138
330
1F
100
AcDbEntity
  8
0
100
AcDbLine
 10
3.03995067363672
 20
63.72540845072502
 30
0.0
 11
2.728330955326867
 21
63.78048893362241
 31
0.0
  0
LINE
  5
139
330
1F
100
AcDbEntity
  8
0
100
AcDbLine
 10
2.728330955326867
 20
63.78048893362241
 30
0.0
 11
2.411429546876159
 21
63.71333601611738
 31
0.0
  0
LINE
  5
13A
330
1F
100
AcDbEntity
  8
0
100
AcDbLine
 10
2.411429546876159
 20
63.71333601611738
 30
0.0
 11
2.172998963375153
 21
63.51187726360229
 31
0.0
  0
LINE
  5
13B
330
1F
100
AcDbEntity
  8
0
100
AcDbLine
 10
2.172998963375153
 20
63.51187726360229
 30
0.0
 11
2.023602585105538
 21
63.19120321933669
 31
0.0
  0
LINE
  5
13C
330
1F
100
AcDbEntity
  8
0
100
AcDbLine
 10
2.023602585105538
 20
63.19120321933669
 30
0.0
 11
1.973803792348999
 21
62.76640442658015
 31
0.0
  0
LINE
  5
13D
330
1F
100
AcDbEntity
  8
0
100
AcDbLine
 10
1.973803792348999
 20
62.76640442658015
 30
0.0
 11
1.973803792348999
 21
59.3317967807049
 31
0.0
  0
LINE
  5
13E
330
1F
100
AcDbEntity
  8
0
100
AcDbLine
 10
1.973803792348999
 20
59.3317967807049
 30
0.0
 11
-0.597624779079574
 21
59.3317967807049
 31
0.0
  0
LINE
  5
13F
330
1F
100
AcDbEntity
  8
0
100
AcDbLine
 10
-0.597624779079574
 20
59.3317967807049
 30
0.0
 11
-0.597624779079574
 21
62.8328028169222
 31
0.0
  0
LINE
  5
140
330
1F
100
AcDbEntity
  8
0
100
AcDbLine
 10
-0.597624779079574
 20
62.8328028169222
 30
0.0
 11
-0.6379919822988898
 21
63.24741549297854
 31
0.0
  0
LINE
  5
141
330
1F
100
AcDbEntity
  8
0
100
AcDbLine
 10
-0.6379919822988898
 20
63.24741549297854
 30
0.0
 11
-0.7590935919568371
 21
63.54356740444735
 31
0.0
  0
LINE
  5
142
330
1F
100
AcDbEntity
  8
0
100
AcDbLine
 10
-0.7590935919568371
 20
63.54356740444735
 30
0.0
 11
-0.960929608053416
 21
63.72125855132865
 31
0.0
  0
LINE
  5
143
330
1F
100
AcDbEntity
  8
0
100
AcDbLine
 10
-0.960929608053416
 20
63.72125855132865
 30
0.0
 11
-1.243500030588629
 21
63.78048893362241
 31
0.0
  0
LINE
  5
144
330
1F
100
AcDbEntity
  8
0
100
AcDbLine
 10
-1.243500030588629
 20
63.78048893362241
 30
0.0
 11
-1.587564416906535
 21
63.71182696179142
 31
0.0
  0
LINE
  5
145
330
1F
100
AcDbEntity
  8
0
100
AcDbLine
 10
-1.587564416906535
 20
63.71182696179142
 30
0.0
 11
-1.835049326363277
 21
63.50584104629846
 31
0.0
  0
LINE
  5
146
330
1F
100
AcDbEntity
  8
0
100
AcDbLine
 10
-1.835049326363277
 20
63.50584104629846
 30
0.0
 11
-1.984445704632895
 21
63.17158551309927
 31
0.0
  0
LINE
  5
147
330
1F
100
AcDbEntity
  8
0
100
AcDbLine
 10
-1.984445704632895
 20
63.17158551309927
 30
0.0
 11
-2.034244497389434
 21
62.71811468814957
 31
0.0
  0
LINE
  5
148
330
1F
100
AcDbEntity
  8
0
100
AcDbLine
 10
-2.034244497389434
 20
62.71811468814957
 30
0.0
 11
-2.034244497389434
 21
59.3317967807049
 31
0.0
  0
LINE
  5
149
330
1F
100
AcDbEntity
  8
0
100
AcDbLine
 10
-2.034244497389434
 20
59.3317967807049
 30
0.0
 11
-4.605673068818004
 21
59.3317967807049
 31
0.0
  0
LINE
  5
14A
330
1F
100
AcDbEntity
  8
0
100
AcDbLine
 10
-4.605673068818004
 20
59.3317967807049
 30
0.0
 11
-4.605673068818004
 21
65.51288329981959
 31
0.0
  0
LINE
  5
14B
330
1F
100
AcDbEntity
  8
0
100
AcDbLine
 10
-4.605673068818004
 20
65.51288329981959
 30
0.0
 11
-2.034244497389434
 21
65.51288329981959
 31
0.0
  0
LINE
  5
14C
330
1F
100
AcDbEntity
  8
0
100
AcDbLine
 10
-2.034244497389434
 20
65.51288329981959
 30
0.0
 11
-2.034244497389434
 21
64.53501609660027
 31
0.0
  0
LINE
  5
14D
330
1F
100
AcDbEntity
  8
0
100
AcDbLine
 10
-2.010099628174141
 20
64.53501609660027
 30
0.0
 11
-1.548329004431687
 21
65.06318511068478
 31
0.0
  0
LINE
  5
14E
330
1F
100
AcDbEntity
  8
0
100
AcDbLine
 10
-1.548329004431687
 20
65.06318511068478
 30
0.0
 11
-0.8330372539286677
 21
65.49779275656003
 31
0.0
  0
LINE
  5
14F
330
1F
100
AcDbEntity
  8
0
100
AcDbLine
 10
-0.8330372539286677
 20
65.49779275656003
 30
0.0
 11
-0.4180473142908399
 21
65.62228973845139
 31
0.0
  0
LINE
  5
150
330
1F
100
AcDbEntity
  8
0
100
AcDbLine
 10
-0.4180473142908399
 20
65.62228973845139
 30
0.0
 11
0.0301418205180128
 21
65.66378873241517
 31
0.0
  0
LINE
  5
151
330
1F
100
AcDbEntity
  8
0
100
AcDbLine
 10
0.0301418205180128
 20
65.66378873241517
 30
0.0
 11
0.6360271323892394
 21
65.59889939639906
 31
0.0
  0
LINE
  5
152
330
1F
100
AcDbEntity
  8
0
100
AcDbLine
 10
0.6360271323892394
 20
65.59889939639906
 30
0.0
 11
1.13778769576952
 21
65.40423138835078
 31
0.0
  0
LINE
  5
153
330
1F
100
AcDbEntity
  8
0
100
AcDbLine
 10
1.13778769576952
 20
65.40423138835078
 30
0.0
 11
1.550514053918416
 21
65.0692213279886
 31
0.0
  0
LINE
  5
154
330
1F
100
AcDbEntity
  8
0
100
AcDbLine
 10
1.550514053918416
 20
65.0692213279886
 30
0.0
 11
1.889296750095478
 21
64.58330583503086
 31
0.0
  0
LINE
  5
155
330
1F
100
AcDbEntity
  8
0
100
AcDbLine
 10
1.889296750095478
 20
64.58330583503086
 30
0.0
 11
2.269578440236321
 21
65.04281287728438
 31
0.0
  0
LINE
  5
156
330
1F
100
AcDbEntity
  8
0
100
AcDbLine
 10
2.269578440236321
 20
65.04281287728438
 30
0.0
 11
2.75851204184598
 21
65.38310462778739
 31
0.0
  0
LINE
  5
157
330
1F
100
AcDbEntity
  8
0
100
AcDbLine
 10
2.75851204184598
 20
65.38310462778739
 30
0.0
 11
3.331952685709159
 21
65.59361770625823
 31
0.0
  0
LINE
  5
158
330
1F
100
AcDbEntity
  8
0
100
AcDbLine
 10
3.331952685709159
 20
65.59361770625823
 30
0.0
 11
3.965755502610569
 21
65.66378873241517
 31
0.0
  0
LINE
  5
159
330
1F
100
AcDbEntity
  8
0
100
AcDbLine
 10
3.965755502610569
 20
65.66378873241517
 30
0.0
 11
4.423376226956645
 21
65.62417605635882
 31
0.0
  0
LINE
  5
15A
330
1F
100
AcDbEntity
  8
0
100
AcDbLine
 10
4.423376226956645
 20
65.62417605635882
 30
0.0
 11
4.824407414079384
 21
65.5053380281898
 31
0.0
  0
LINE
  5
15B
330
1F
100
AcDbEntity
  8
0
100
AcDbLine
 10
4.824407414079384
 20
65.5053380281898
 30
0.0
 11
5.16884906397878
 21
65.30727464790812
 31
0.0
  0
LINE
  5
15C
330
1F
100
AcDbEntity
  8
0
100
AcDbLine
 10
5.16884906397878
 20
65.30727464790812
 30
0.0
 11
5.456701176654834
 21
65.02998591551375
 31
0.0
  0
LINE
  5
15D
330
1F
100
AcDbEntity
  8
0
100
AcDbLine
 10
5.456701176654834
 20
65.02998591551375
 30
0.0
 11
5.683813852711173
 21
64.67799899398457
 31
0.0
  0
LINE
  5
15E
330
1F
100
AcDbEntity
  8
0
100
AcDbLine
 10
5.683813852711173
 20
64.67799899398457
 30
0.0
 11
5.846037192751409
 21
64.25584104629846
 31
0.0
  0
LINE
  5
15F
330
1F
100
AcDbEntity
  8
0
100
AcDbLine
 10
5.846037192751409
 20
64.25584104629846
 30
0.0
 11
5.943371196775558
 21
63.76351207245541
 31
0.0
  0
LINE
  5
160
330
1F
100
AcDbEntity
  8
0
100
AcDbLine
 10
5.943371196775558
 20
63.76351207245541
 30
0.0
 11
5.975815864783605
 21
63.20101207245541
 31
0.0
  0
LINE
  5
161
330
1F
100
AcDbEntity
  8
0
100
AcDbLine
 10
5.975815864783605
 20
63.20101207245541
 30
0.0
 11
5.975815864783605
 21
59.3317967807049
 31
0.0
  0
LINE
  5
162
330
1F
100
AcDbEntity
  8
0
100
AcDbLine
 10
5.975815864783605
 20
59.3317967807049
 30
0.0
 11
3.410423510658856
 21
59.3317967807049
 31
0.0
  0
LINE
  5
163
330
1F
100
AcDbEntity
  8
0
100
AcDbLine
 10
-17.51110566439144
 20
44.64568008050369
 30
0.0
 11
-17.62654832032706
 21
43.83833601611737
 31
0.0
  0
LINE
  5
164
330
1F
100
AcDbEntity
  8
0
100
AcDbLine
 10
-17.62654832032706
 20
43.83833601611737
 30
0.0
 11
-17.9728762881339
 21
43.14266197185178
 31
0.0
  0
LINE
  5
165
330
1F
100
AcDbEntity
  8
0
100
AcDbLine
 10
-17.9728762881339
 20
43.14266197185178
 30
0.0
 11
-18.52745375292263
 21
42.58431187124816
 31
0.0
  0
LINE
  5
166
330
1F
100
AcDbEntity
  8
0
100
AcDbLine
 10
-18.52745375292263
 20
42.58431187124816
 30
0.0
 11
-19.26764489980392
 21
42.18893963784775
 31
0.0
  0
LINE
  5
167
330
1F
100
AcDbEntity
  8
0
100
AcDbLine
 10
-19.26764489980392
 20
42.18893963784775
 30
0.0
 11
-20.18514992998501
 21
41.95352716299866
 31
0.0
  0
LINE
  5
168
330
1F
100
AcDbEntity
  8
0
100
AcDbLine
 10
-20.18514992998501
 20
41.95352716299866
 30
0.0
 11
-21.27166904467314
 21
41.87505633804896
 31
0.0
  0
LINE
  5
169
330
1F
100
AcDbEntity
  8
0
100
AcDbLine
 10
-21.27166904467314
 20
41.87505633804896
 30
0.0
 11
-22.57247387364698
 21
41.9897444668216
 31
0.0
  0
LINE
  5
16A
330
1F
100
AcDbEntity
  8
0
100
AcDbLine
 10
-22.57247387364698
 20
41.9897444668216
 30
0.0
 11
-23.75859057384819
 21
42.33380885313951
 31
0.0
  0
LINE
  5
16B
330
1F
100
AcDbEntity
  8
0
100
AcDbLine
 10
-23.75859057384819
 20
42.33380885313951
 30
0.0
 11
-23.75859057384819
 21
44.70604225354192
 31
0.0
  0
LINE
  5
16C
330
1F
100
AcDbEntity
  8
0
100
AcDbLine
 10
-23.75859057384819
 20
44.70604225354192
 30
0.0
 11
-23.18665898431096
 21
44.34613279680148
 31
0.0
  0
LINE
  5
16D
330
1F
100
AcDbEntity
  8
0
100
AcDbLine
 10
-23.18665898431096
 20
44.34613279680148
 30
0.0
 11
-22.55738333038742
 21
44.06318511068478
 31
0.0
  0
LINE
  5
16E
330
1F
100
AcDbEntity
  8
0
100
AcDbLine
 10
-22.55738333038742
 20
44.06318511068478
 30
0.0
 11
-21.92207145916006
 21
43.87983501008116
 31
0.0
  0
LINE
  5
16F
330
1F
100
AcDbEntity
  8
0
100
AcDbLine
 10
-21.92207145916006
 20
43.87983501008116
 30
0.0
 11
-21.33203121771136
 21
43.81871830987996
 31
0.0
  0
LINE
  5
170
330
1F
100
AcDbEntity
  8
0
100
AcDbLine
 10
-21.33203121771136
 20
43.81871830987996
 30
0.0
 11
-20.95174952757052
 21
43.85719919519182
 31
0.0
  0
LINE
  5
171
330
1F
100
AcDbEntity
  8
0
100
AcDbLine
 10
-20.95174952757052
 20
43.85719919519182
 30
0.0
 11
-20.66804731429084
 21
43.97264185112744
 31
0.0
  0
LINE
  5
172
330
1F
100
AcDbEntity
  8
0
100
AcDbLine
 10
-20.66804731429084
 20
43.97264185112744
 30
0.0
 11
-20.49148795815402
 21
44.16202816903488
 31
0.0
  0
LINE
  5
173
330
1F
100
AcDbEntity
  8
0
100
AcDbLine
 10
-20.49148795815402
 20
44.16202816903488
 30
0.0
 11
-20.43263483944175
 21
44.42234004026225
 31
0.0
  0
LINE
  5
174
330
1F
100
AcDbEntity
  8
0
100
AcDbLine
 10
-20.43263483944175
 20
44.42234004026225
 30
0.0
 11
-20.55034107686629
 21
44.79356740444736
 31
0.0
  0
LINE
  5
175
330
1F
100
AcDbEntity
  8
0
100
AcDbLine
 10
-20.55034107686629
 20
44.79356740444736
 30
0.0
 11
-20.90647789779185
 21
45.09236016098659
 31
0.0
  0
LINE
  5
176
330
1F
100
AcDbEntity
  8
0
100
AcDbLine
 10
-20.90647789779185
 20
45.09236016098659
 30
0.0
 11
-21.79078373280191
 21
45.47264185112743
 31
0.0
  0
LINE
  5
177
330
1F
100
AcDbEntity
  8
0
100
AcDbLine
 10
-21.79078373280191
 20
45.47264185112743
 30
0.0
 11
-22.70451612716811
 21
45.93592152919584
 31
0.0
  0
LINE
  5
178
330
1F
100
AcDbEntity
  8
0
100
AcDbLine
 10
-22.70451612716811
 20
45.93592152919584
 30
0.0
 11
-23.35718212314396
 21
46.52294366199263
 31
0.0
  0
LINE
  5
179
330
1F
100
AcDbEntity
  8
0
100
AcDbLine
 10
-23.35718212314396
 20
46.52294366199263
 30
0.0
 11
-23.58561522173551
 21
46.86285814891416
 31
0.0
  0
LINE
  5
17A
330
1F
100
AcDbEntity
  8
0
100
AcDbLine
 10
-23.58561522173551
 20
46.86285814891416
 30
0.0
 11
-23.74878172072948
 21
47.23370824951778
 31
0.0
  0
LINE
  5
17B
330
1F
100
AcDbEntity
  8
0
100
AcDbLine
 10
-23.74878172072948
 20
47.23370824951778
 30
0.0
 11
-23.84668162012585
 21
47.63549396380349
 31
0.0
  0
LINE
  5
17C
330
1F
100
AcDbEntity
  8
0
100
AcDbLine
 10
-23.84668162012585
 20
47.63549396380349
 30
0.0
 11
-23.87931491992465
 21
48.0682152917713
 31
0.0
  0
LINE
  5
17D
330
1F
100
AcDbEntity
  8
0
100
AcDbLine
 10
-23.87931491992465
 20
48.0682152917713
 30
0.0
 11
-23.81970727404939
 21
48.66448038231456
 31
0.0
  0
LINE
  5
17E
330
1F
100
AcDbEntity
  8
0
100
AcDbLine
 10
-23.81970727404939
 20
48.66448038231456
 30
0.0
 11
-23.64088433642364
 21
49.19774245474917
 31
0.0
  0
LINE
  5
17F
330
1F
100
AcDbEntity
  8
0
100
AcDbLine
 10
-23.64088433642364
 20
49.19774245474917
 30
0.0
 11
-23.34284610704738
 21
49.66800150907512
 31
0.0
  0
LINE
  5
180
330
1F
100
AcDbEntity
  8
0
100
AcDbLine
 10
-23.34284610704738
 20
49.66800150907512
 30
0.0
 11
-22.92559258592062
 21
50.07525754529242
 31
0.0
  0
LINE
  5
181
330
1F
100
AcDbEntity
  8
0
100
AcDbLine
 10
-22.92559258592062
 20
50.07525754529242
 30
0.0
 11
-22.40798695211781
 21
50.40404275656003
 31
0.0
  0
LINE
  5
182
330
1F
100
AcDbEntity
  8
0
100
AcDbLine
 10
-22.40798695211781
 20
50.40404275656003
 30
0.0
 11
-21.80889238471338
 21
50.6388893360369
 31
0.0
  0
LINE
  5
183
330
1F
100
AcDbEntity
  8
0
100
AcDbLine
 10
-21.80889238471338
 20
50.6388893360369
 30
0.0
 11
-21.12830888370734
 21
50.77979728372301
 31
0.0
  0
LINE
  5
184
330
1F
100
AcDbEntity
  8
0
100
AcDbLine
 10
-21.12830888370734
 20
50.77979728372301
 30
0.0
 11
-20.36623644909969
 21
50.82676659961838
 31
0.0
  0
LINE
  5
185
330
1F
100
AcDbEntity
  8
0
100
AcDbLine
 10
-20.36623644909969
 20
50.82676659961838
 30
0.0
 11
-19.53323846117213
 21
50.79054929579544
 31
0.0
  0
LINE
  5
186
330
1F
100
AcDbEntity
  8
0
100
AcDbLine
 10
-19.53323846117213
 20
50.79054929579544
 30
0.0
 11
-18.8420915798844
 21
50.7000060362381
 31
0.0
  0
LINE
  5
187
330
1F
100
AcDbEntity
  8
0
100
AcDbLine
 10
-18.8420915798844
 20
50.7000060362381
 30
0.0
 11
-17.96985817948199
 21
50.49477464790812
 31
0.0
  0
LINE
  5
188
330
1F
100
AcDbEntity
  8
0
100
AcDbLine
 10
-17.96985817948199
 20
50.49477464790812
 30
0.0
 11
-17.96985817948199
 21
48.29155533201275
 31
0.0
  0
LINE
  5
189
330
1F
100
AcDbEntity
  8
0
100
AcDbLine
 10
-17.96985817948199
 20
48.29155533201275
 30
0.0
 11
-19.05335918551821
 21
48.7397444668216
 31
0.0
  0
LINE
  5
18A
330
1F
100
AcDbEntity
  8
0
100
AcDbLine
 10
-19.05335918551821
 20
48.7397444668216
 30
0.0
 11
-19.58831894406951
 21
48.85179175052382
 31
0.0
  0
LINE
  5
18B
330
1F
100
AcDbEntity
  8
0
100
AcDbLine
 10
-19.58831894406951
 20
48.85179175052382
 30
0.0
 11
-20.11875153964295
 21
48.88914084509121
 31
0.0
  0
LINE
  5
18C
330
1F
100
AcDbEntity
  8
0
100
AcDbLine
 10
-20.11875153964295
 20
48.88914084509121
 30
0.0
 11
-20.51110566439144
 21
48.84839637829042
 31
0.0
  0
LINE
  5
18D
330
1F
100
AcDbEntity
  8
0
100
AcDbLine
 10
-20.51110566439144
 20
48.84839637829042
 30
0.0
 11
-20.81895274688641
 21
48.72616297788799
 31
0.0
  0
LINE
  5
18E
330
1F
100
AcDbEntity
  8
0
100
AcDbLine
 10
-20.81895274688641
 20
48.72616297788799
 30
0.0
 11
-21.01814791791257
 21
48.53300402416567
 31
0.0
  0
LINE
  5
18F
330
1F
100
AcDbEntity
  8
0
100
AcDbLine
 10
-21.01814791791257
 20
48.53300402416567
 30
0.0
 11
-21.08454630825462
 21
48.2794828974051
 31
0.0
  0
LINE
  5
190
330
1F
100
AcDbEntity
  8
0
100
AcDbLine
 10
-21.08454630825462
 20
48.2794828974051
 30
0.0
 11
-21.0309748796832
 21
48.03124346078538
 31
0.0
  0
LINE
  5
191
330
1F
100
AcDbEntity
  8
0
100
AcDbLine
 10
-21.0309748796832
 20
48.03124346078538
 30
0.0
 11
-20.87026059396891
 21
47.8297847082703
 31
0.0
  0
LINE
  5
192
330
1F
100
AcDbEntity
  8
0
100
AcDbLine
 10
-20.87026059396891
 20
47.8297847082703
 30
0.0
 11
-19.97388232435121
 21
47.36801408452784
 31
0.0
  0
LINE
  5
193
330
1F
100
AcDbEntity
  8
0
100
AcDbLine
 10
-19.97388232435121
 20
47.36801408452784
 30
0.0
 11
-18.82473745513591
 21
46.79910060364253
 31
0.0
  0
LINE
  5
194
330
1F
100
AcDbEntity
  8
0
100
AcDbLine
 10
-18.82473745513591
 20
46.79910060364253
 30
0.0
 11
-18.39786371268118
 21
46.49540342054394
 31
0.0
  0
LINE
  5
195
330
1F
100
AcDbEntity
  8
0
100
AcDbLine
 10
-18.39786371268118
 20
46.49540342054394
 30
0.0
 11
-18.06945576499507
 21
46.17887927567472
 31
0.0
  0
LINE
  5
196
330
1F
100
AcDbEntity
  8
0
100
AcDbLine
 10
-18.06945576499507
 20
46.17887927567472
 30
0.0
 11
-17.82517759598099
 21
45.84085110666063
 31
0.0
  0
LINE
  5
197
330
1F
100
AcDbEntity
  8
0
100
AcDbLine
 10
-17.82517759598099
 20
45.84085110666063
 30
0.0
 11
-17.65069318954235
 21
45.47264185112743
 31
0.0
  0
LINE
  5
198
330
1F
100
AcDbEntity
  8
0
100
AcDbLine
 10
-17.65069318954235
 20
45.47264185112743
 30
0.0
 11
-17.54600254567917
 21
45.07425150907512
 31
0.0
  0
LINE
  5
199
330
1F
100
AcDbEntity
  8
0
100
AcDbLine
 10
-17.54600254567917
 20
45.07425150907512
 30
0.0
 11
-17.51110566439144
 21
44.64568008050369
 31
0.0
  0
LINE
  5
19A
330
1F
100
AcDbEntity
  8
0
100
AcDbLine
 10
-12.33806743501519
 20
42.11046881289806
 30
0.0
 11
-12.91150807887837
 21
41.95050905434675
 31
0.0
  0
LINE
  5
19B
330
1F
100
AcDbEntity
  8
0
100
AcDbLine
 10
-12.91150807887837
 20
41.95050905434675
 30
0.0
 11
-13.87126663018621
 21
41.87505633804896
 31
0.0
  0
LINE
  5
19C
330
1F
100
AcDbEntity
  8
0
100
AcDbLine
 10
-13.87126663018621
 20
41.87505633804896
 30
0.0
 11
-14.37925204266106
 21
41.91202816903488
 31
0.0
  0
LINE
  5
19D
330
1F
100
AcDbEntity
  8
0
100
AcDbLine
 10
-14.37925204266106
 20
41.91202816903488
 30
0.0
 11
-14.82876160000513
 21
42.02294366199263
 31
0.0
  0
LINE
  5
19E
330
1F
100
AcDbEntity
  8
0
100
AcDbLine
 10
-14.82876160000513
 20
42.02294366199263
 30
0.0
 11
-15.21979530221841
 21
42.2078028169222
 31
0.0
  0
LINE
  5
19F
330
1F
100
AcDbEntity
  8
0
100
AcDbLine
 10
-15.21979530221841
 20
42.2078028169222
 30
0.0
 11
-15.5523531493009
 21
42.46660563382361
 31
0.0
  0
LINE
  5
1A0
330
1F
100
AcDbEntity
  8
0
100
AcDbLine
 10
-15.5523531493009
 20
42.46660563382361
 30
0.0
 11
-15.81775807887837
 21
42.79369315897452
 31
0.0
  0
LINE
  5
1A1
330
1F
100
AcDbEntity
  8
0
100
AcDbLine
 10
-15.81775807887837
 20
42.79369315897452
 30
0.0
 11
-16.00733302857656
 21
43.18340643865259
 31
0.0
  0
LINE
  5
1A2
330
1F
100
AcDbEntity
  8
0
100
AcDbLine
 10
-16.00733302857656
 20
43.18340643865259
 30
0.0
 11
-16.12107799839547
 21
43.63574547285782
 31
0.0
  0
LINE
  5
1A3
330
1F
100
AcDbEntity
  8
0
100
AcDbLine
 10
-16.12107799839547
 20
43.63574547285782
 30
0.0
 11
-16.15899298833511
 21
44.15071026159021
 31
0.0
  0
LINE
  5
1A4
330
1F
100
AcDbEntity
  8
0
100
AcDbLine
 10
-16.15899298833511
 20
44.15071026159021
 30
0.0
 11
-16.15899298833511
 21
46.42636418513145
 31
0.0
  0
LINE
  5
1A5
330
1F
100
AcDbEntity
  8
0
100
AcDbLine
 10
-16.15899298833511
 20
46.42636418513145
 30
0.0
 11
-17.1308239742506
 21
46.42636418513145
 31
0.0
  0
LINE
  5
1A6
330
1F
100
AcDbEntity
  8
0
100
AcDbLine
 10
-17.1308239742506
 20
46.42636418513145
 30
0.0
 11
-17.1308239742506
 21
48.20704828975923
 31
0.0
  0
LINE
  5
1A7
330
1F
100
AcDbEntity
  8
0
100
AcDbLine
 10
-17.1308239742506
 20
48.20704828975923
 30
0.0
 11
-16.15899298833511
 21
48.20704828975923
 31
0.0
  0
LINE
  5
1A8
330
1F
100
AcDbEntity
  8
0
100
AcDbLine
 10
-16.15899298833511
 20
48.20704828975923
 30
0.0
 11
-16.15899298833511
 21
49.42032796782763
 31
0.0
  0
LINE
  5
1A9
330
1F
100
AcDbEntity
  8
0
100
AcDbLine
 10
-16.15899298833511
 20
49.42032796782763
 30
0.0
 11
-13.62378172072948
 21
50.1205291750711
 31
0.0
  0
LINE
  5
1AA
330
1F
100
AcDbEntity
  8
0
100
AcDbLine
 10
-13.62378172072948
 20
50.1205291750711
 30
0.0
 11
-13.62378172072948
 21
48.20704828975923
 31
0.0
  0
LINE
  5
1AB
330
1F
100
AcDbEntity
  8
0
100
AcDbLine
 10
-13.62378172072948
 20
48.20704828975923
 30
0.0
 11
-12.33806743501519
 21
48.20704828975923
 31
0.0
  0
LINE
  5
1AC
330
1F
100
AcDbEntity
  8
0
100
AcDbLine
 10
-12.33806743501519
 20
48.20704828975923
 30
0.0
 11
-12.33806743501519
 21
46.42636418513145
 31
0.0
  0
LINE
  5
1AD
330
1F
100
AcDbEntity
  8
0
100
AcDbLine
 10
-12.33806743501519
 20
46.42636418513145
 30
0.0
 11
-13.62378172072948
 21
46.42636418513145
 31
0.0
  0
LINE
  5
1AE
330
1F
100
AcDbEntity
  8
0
100
AcDbLine
 10
-13.62378172072948
 20
46.42636418513145
 30
0.0
 11
-13.62378172072948
 21
44.57324547285781
 31
0.0
  0
LINE
  5
1AF
330
1F
100
AcDbEntity
  8
0
100
AcDbLine
 10
-13.62378172072948
 20
44.57324547285781
 30
0.0
 11
-13.58341451751016
 21
44.21673138835078
 31
0.0
  0
LINE
  5
1B0
330
1F
100
AcDbEntity
  8
0
100
AcDbLine
 10
-13.58341451751016
 20
44.21673138835078
 30
0.0
 11
-13.46231290785221
 21
43.96207847084575
 31
0.0
  0
LINE
  5
1B1
330
1F
100
AcDbEntity
  8
0
100
AcDbLine
 10
-13.46231290785221
 20
43.96207847084575
 30
0.0
 11
-13.26047689175563
 21
43.80928672034273
 31
0.0
  0
LINE
  5
1B2
330
1F
100
AcDbEntity
  8
0
100
AcDbLine
 10
-13.26047689175563
 20
43.80928672034273
 30
0.0
 11
-12.97790646922042
 21
43.75835613684172
 31
0.0
  0
LINE
  5
1B3
330
1F
100
AcDbEntity
  8
0
100
AcDbLine
 10
-12.97790646922042
 20
43.75835613684172
 30
0.0
 11
-12.33806743501519
 21
43.89115291752583
 31
0.0
  0
LINE
  5
1B4
330
1F
100
AcDbEntity
  8
0
100
AcDbLine
 10
-12.33806743501519
 20
43.89115291752583
 30
0.0
 11
-12.33806743501519
 21
42.11046881289806
 31
0.0
  0
LINE
  5
1B5
330
1F
100
AcDbEntity
  8
0
100
AcDbLine
 10
-6.887363209663076
 20
46.00382897386385
 30
0.0
 11
-7.279717334411566
 21
46.12455331994031
 31
0.0
  0
LINE
  5
1B6
330
1F
100
AcDbEntity
  8
0
100
AcDbLine
 10
-7.279717334411566
 20
46.12455331994031
 30
0.0
 11
-7.690180111071525
 21
46.17887927567472
 31
0.0
  0
LINE
  5
1B7
330
1F
100
AcDbEntity
  8
0
100
AcDbLine
 10
-7.690180111071525
 20
46.17887927567472
 30
0.0
 11
-8.247398420930683
 21
46.08682696179142
 31
0.0
  0
LINE
  5
1B8
330
1F
100
AcDbEntity
  8
0
100
AcDbLine
 10
-8.247398420930683
 20
46.08682696179142
 30
0.0
 11
-8.645411499401506
 21
45.81067002014152
 31
0.0
  0
LINE
  5
1B9
330
1F
100
AcDbEntity
  8
0
100
AcDbLine
 10
-8.645411499401506
 20
45.81067002014152
 30
0.0
 11
-8.884219346484002
 21
45.35040845072503
 31
0.0
  0
LINE
  5
1BA
330
1F
100
AcDbEntity
  8
0
100
AcDbLine
 10
-8.884219346484002
 20
45.35040845072503
 30
0.0
 11
-8.963821962178168
 21
44.70604225354192
 31
0.0
  0
LINE
  5
1BB
330
1F
100
AcDbEntity
  8
0
100
AcDbLine
 10
-8.963821962178168
 20
44.70604225354192
 30
0.0
 11
-8.963821962178168
 21
42.02596177064454
 31
0.0
  0
LINE
  5
1BC
330
1F
100
AcDbEntity
  8
0
100
AcDbLine
 10
-8.963821962178168
 20
42.02596177064454
 30
0.0
 11
-11.53525053360674
 21
42.02596177064454
 31
0.0
  0
LINE
  5
1BD
330
1F
100
AcDbEntity
  8
0
100
AcDbLine
 10
-11.53525053360674
 20
42.02596177064454
 30
0.0
 11
-11.53525053360674
 21
48.20704828975923
 31
0.0
  0
LINE
  5
1BE
330
1F
100
AcDbEntity
  8
0
100
AcDbLine
 10
-11.53525053360674
 20
48.20704828975923
 30
0.0
 11
-8.963821962178168
 21
48.20704828975923
 31
0.0
  0
LINE
  5
1BF
330
1F
100
AcDbEntity
  8
0
100
AcDbLine
 10
-8.963821962178168
 20
48.20704828975923
 30
0.0
 11
-8.963821962178168
 21
47.1205291750711
 31
0.0
  0
LINE
  5
1C0
330
1F
100
AcDbEntity
  8
0
100
AcDbLine
 10
-8.939677092962874
 20
47.1205291750711
 30
0.0
 11
-8.65446582535724
 21
47.63587122738498
 31
0.0
  0
LINE
  5
1C1
330
1F
100
AcDbEntity
  8
0
100
AcDbLine
 10
-8.65446582535724
 20
47.63587122738498
 30
0.0
 11
-8.269656972238527
 21
48.01087122738498
 31
0.0
  0
LINE
  5
1C2
330
1F
100
AcDbEntity
  8
0
100
AcDbLine
 10
-8.269656972238527
 20
48.01087122738498
 30
0.0
 11
-7.79883202254034
 21
48.23949295776728
 31
0.0
  0
LINE
  5
1C3
330
1F
100
AcDbEntity
  8
0
100
AcDbLine
 10
-7.79883202254034
 20
48.23949295776728
 30
0.0
 11
-7.255572465196274
 21
48.31570020122803
 31
0.0
  0
LINE
  5
1C4
330
1F
100
AcDbEntity
  8
0
100
AcDbLine
 10
-7.255572465196274
 20
48.31570020122803
 30
0.0
 11
-6.887363209663076
 21
48.24326559358217
 31
0.0
  0
LINE
  5
1C5
330
1F
100
AcDbEntity
  8
0
100
AcDbLine
 10
-6.887363209663076
 20
48.24326559358217
 30
0.0
 11
-6.887363209663076
 21
46.00382897386385
 31
0.0
  0
LINE
  5
1C6
330
1F
100
AcDbEntity
  8
0
100
AcDbLine
 10
-2.716337052721425
 20
42.02596177064454
 30
0.0
 11
-2.716337052721425
 21
42.96761167004092
 31
0.0
  0
LINE
  5
1C7
330
1F
100
AcDbEntity
  8
0
100
AcDbLine
 10
-2.740481921936718
 20
42.96761167004092
 30
0.0
 11
-3.089073471232493
 21
42.48961871229444
 31
0.0
  0
LINE
  5
1C8
330
1F
100
AcDbEntity
  8
0
100
AcDbLine
 10
-3.089073471232493
 20
42.48961871229444
 30
0.0
 11
-3.519153954129877
 21
42.14819517104696
 31
0.0
  0
LINE
  5
1C9
330
1F
100
AcDbEntity
  8
0
100
AcDbLine
 10
-3.519153954129877
 20
42.14819517104696
 30
0.0
 11
-4.030723370628871
 21
41.94334104629846
 31
0.0
  0
LINE
  5
1CA
330
1F
100
AcDbEntity
  8
0
100
AcDbLine
 10
-4.030723370628871
 20
41.94334104629846
 30
0.0
 11
-4.623781720729473
 21
41.87505633804896
 31
0.0
  0
LINE
  5
1CB
330
1F
100
AcDbEntity
  8
0
100
AcDbLine
 10
-4.623781720729473
 20
41.87505633804896
 30
0.0
 11
-5.037639869622833
 21
41.90750100605702
 31
0.0
  0
LINE
  5
1CC
330
1F
100
AcDbEntity
  8
0
100
AcDbLine
 10
-5.037639869622833
 20
41.90750100605702
 30
0.0
 11
-5.40396280724859
 21
42.00483501008116
 31
0.0
  0
LINE
  5
1CD
330
1F
100
AcDbEntity
  8
0
100
AcDbLine
 10
-5.40396280724859
 20
42.00483501008116
 30
0.0
 11
-5.72275053360674
 21
42.1670583501214
 31
0.0
  0
LINE
  5
1CE
330
1F
100
AcDbEntity
  8
0
100
AcDbLine
 10
-5.72275053360674
 20
42.1670583501214
 30
0.0
 11
-5.994003048697279
 21
42.39417102617774
 31
0.0
  0
LINE
  5
1CF
330
1F
100
AcDbEntity
  8
0
100
AcDbLine
 10
-5.994003048697279
 20
42.39417102617774
 30
0.0
 11
-6.210552344471927
 21
42.67560965796849
 31
0.0
  0
LINE
  5
1D0
330
1F
100
AcDbEntity
  8
0
100
AcDbLine
 10
-6.210552344471927
 20
42.67560965796849
 30
0.0
 11
-6.365230412882393
 21
43.00081086521195
 31
0.0
  0
LINE
  5
1D1
330
1F
100
AcDbEntity
  8
0
100
AcDbLine
 10
-6.365230412882393
 20
43.00081086521195
 30
0.0
 11
-6.458037253928668
 21
43.36977464790812
 31
0.0
  0
LINE
  5
1D2
330
1F
100
AcDbEntity
  8
0
100
AcDbLine
 10
-6.458037253928668
 20
43.36977464790812
 30
0.0
 11
-6.488972867610761
 21
43.78250100605701
 31
0.0
  0
LINE
  5
1D3
330
1F
100
AcDbEntity
  8
0
100
AcDbLine
 10
-6.488972867610761
 20
43.78250100605701
 30
0.0
 11
-6.453981670427663
 21
44.2142791750711
 31
0.0
  0
LINE
  5
1D4
330
1F
100
AcDbEntity
  8
0
100
AcDbLine
 10
-6.453981670427663
 20
44.2142791750711
 30
0.0
 11
-6.349008078878366
 21
44.59814486923609
 31
0.0
  0
LINE
  5
1D5
330
1F
100
AcDbEntity
  8
0
100
AcDbLine
 10
-6.349008078878366
 20
44.59814486923609
 30
0.0
 11
-6.174052092962872
 21
44.93409808855198
 31
0.0
  0
LINE
  5
1D6
330
1F
100
AcDbEntity
  8
0
100
AcDbLine
 10
-6.174052092962872
 20
44.93409808855198
 30
0.0
 11
-5.929113712681182
 21
45.22213883301878
 31
0.0
  0
LINE
  5
1D7
330
1F
100
AcDbEntity
  8
0
100
AcDbLine
 10
-5.929113712681182
 20
45.22213883301878
 30
0.0
 11
-5.614192938033295
 21
45.46226710263649
 31
0.0
  0
LINE
  5
1D8
330
1F
100
AcDbEntity
  8
0
100
AcDbLine
 10
-5.614192938033295
 20
45.46226710263649
 30
0.0
 11
-5.229289769019209
 21
45.6544828974051
 31
0.0
  0
LINE
  5
1D9
330
1F
100
AcDbEntity
  8
0
100
AcDbLine
 10
-5.229289769019209
 20
45.6544828974051
 30
0.0
 11
-4.249536247892451
 21
45.89517706239504
 31
0.0
  0
LINE
  5
1DA
330
1F
100
AcDbEntity
  8
0
100
AcDbLine
 10
-4.249536247892451
 20
45.89517706239504
 30
0.0
 11
-2.716337052721425
 21
46.0943722334212
 31
0.0
  0
LINE
  5
1DB
330
1F
100
AcDbEntity
  8
0
100
AcDbLine
 10
-2.716337052721425
 20
46.0943722334212
 30
0.0
 11
-2.784244497389432
 21
46.36902012074514
 31
0.0
  0
LINE
  5
1DC
330
1F
100
AcDbEntity
  8
0
100
AcDbLine
 10
-2.784244497389432
 20
46.36902012074514
 30
0.0
 11
-2.987966831393459
 21
46.58934205233468
 31
0.0
  0
LINE
  5
1DD
330
1F
100
AcDbEntity
  8
0
100
AcDbLine
 10
-2.987966831393459
 20
46.58934205233468
 30
0.0
 11
-3.306377294170118
 21
46.73421126762643
 31
0.0
  0
LINE
  5
1DE
330
1F
100
AcDbEntity
  8
0
100
AcDbLine
 10
-3.306377294170118
 20
46.73421126762643
 30
0.0
 11
-3.718349125156034
 21
46.78250100605701
 31
0.0
  0
LINE
  5
1DF
330
1F
100
AcDbEntity
  8
0
100
AcDbLine
 10
-3.718349125156034
 20
46.78250100605701
 30
0.0
 11
-4.244631821333097
 21
46.74552917507109
 31
0.0
  0
LINE
  5
1E0
330
1F
100
AcDbEntity
  8
0
100
AcDbLine
 10
-4.244631821333097
 20
46.74552917507109
 30
0.0
 11
-4.785250533606738
 21
46.63461368211335
 31
0.0
  0
LINE
  5
1E1
330
1F
100
AcDbEntity
  8
0
100
AcDbLine
 10
-4.785250533606738
 20
46.63461368211335
 30
0.0
 11
-5.909496006443759
 21
46.19095171028237
 31
0.0
  0
LINE
  5
1E2
330
1F
100
AcDbEntity
  8
0
100
AcDbLine
 10
-5.909496006443759
 20
46.19095171028237
 30
0.0
 11
-5.909496006443759
 21
47.86298390344132
 31
0.0
  0
LINE
  5
1E3
330
1F
100
AcDbEntity
  8
0
100
AcDbLine
 10
-5.909496006443759
 20
47.86298390344132
 30
0.0
 11
-5.345109688536315
 21
48.06067002014152
 31
0.0
  0
LINE
  5
1E4
330
1F
100
AcDbEntity
  8
0
100
AcDbLine
 10
-5.345109688536315
 20
48.06067002014152
 30
0.0
 11
-4.653962807248588
 21
48.21912072436687
 31
0.0
  0
LINE
  5
1E5
330
1F
100
AcDbEntity
  8
0
100
AcDbLine
 10
-4.653962807248588
 20
48.21912072436687
 30
0.0
 11
-3.36221230423048
 21
48.3579537223548
 31
0.0
  0
LINE
  5
1E6
330
1F
100
AcDbEntity
  8
0
100
AcDbLine
 10
-3.36221230423048
 20
48.3579537223548
 30
0.0
 11
-2.628623270025248
 21
48.31588883301878
 31
0.0
  0
LINE
  5
1E7
330
1F
100
AcDbEntity
  8
0
100
AcDbLine
 10
-2.628623270025248
 20
48.31588883301878
 30
0.0
 11
-2.003308883707341
 21
48.18969416501074
 31
0.0
  0
LINE
  5
1E8
330
1F
100
AcDbEntity
  8
0
100
AcDbLine
 10
-2.003308883707341
 20
48.18969416501074
 30
0.0
 11
-1.486269145276759
 21
47.97936971833066
 31
0.0
  0
LINE
  5
1E9
330
1F
100
AcDbEntity
  8
0
100
AcDbLine
 10
-1.486269145276759
 20
47.97936971833066
 30
0.0
 11
-1.077504054733497
 21
47.68491549297854
 31
0.0
  0
LINE
  5
1EA
330
1F
100
AcDbEntity
  8
0
100
AcDbLine
 10
-1.077504054733497
 20
47.68491549297854
 30
0.0
 11
-0.7672047589588475
 21
47.29199547285782
 31
0.0
  0
LINE
  5
1EB
330
1F
100
AcDbEntity
  8
0
100
AcDbLine
 10
-0.7672047589588475
 20
47.29199547285782
 30
0.0
 11
-0.5455624048340981
 21
46.7862736418719
 31
0.0
  0
LINE
  5
1EC
330
1F
100
AcDbEntity
  8
0
100
AcDbLine
 10
-0.5455624048340981
 20
46.7862736418719
 30
0.0
 11
-0.4125769923592512
 21
46.1677500000208
 31
0.0
  0
LINE
  5
1ED
330
1F
100
AcDbEntity
  8
0
100
AcDbLine
 10
-0.4125769923592512
 20
46.1677500000208
 30
0.0
 11
-0.3682485215343013
 21
45.4364245473045
 31
0.0
  0
LINE
  5
1EE
330
1F
100
AcDbEntity
  8
0
100
AcDbLine
 10
-0.3682485215343013
 20
45.4364245473045
 30
0.0
 11
-0.3682485215343013
 21
42.02596177064454
 31
0.0
  0
LINE
  5
1EF
330
1F
100
AcDbEntity
  8
0
100
AcDbLine
 10
-0.3682485215343013
 20
42.02596177064454
 30
0.0
 11
-2.716337052721425
 21
42.02596177064454
 31
0.0
  0
LINE
  5
1F0
330
1F
100
AcDbEntity
  8
0
100
AcDbLine
 10
-4.237463813284806
 20
44.12656539237492
 30
0.0
 11
-4.197473873646977
 21
43.89568008050369
 31
0.0
  0
LINE
  5
1F1
330
1F
100
AcDbEntity
  8
0
100
AcDbLine
 10
-4.197473873646977
 20
43.89568008050369
 30
0.0
 11
-4.077504054733497
 21
43.71006639841114
 31
0.0
  0
LINE
  5
1F2
330
1F
100
AcDbEntity
  8
0
100
AcDbLine
 10
-4.077504054733497
 20
43.71006639841114
 30
0.0
 11
-3.883590573848187
 21
43.58783299800873
 31
0.0
  0
LINE
  5
1F3
330
1F
100
AcDbEntity
  8
0
100
AcDbLine
 10
-3.883590573848187
 20
43.58783299800873
 30
0.0
 11
-3.621769648294866
 21
43.54708853120792
 31
0.0
  0
LINE
  5
1F4
330
1F
100
AcDbEntity
  8
0
100
AcDbLine
 10
-3.621769648294866
 20
43.54708853120792
 30
0.0
 11
-3.2558239742506
 21
43.62254124750571
 31
0.0
  0
LINE
  5
1F5
330
1F
100
AcDbEntity
  8
0
100
AcDbLine
 10
-3.2558239742506
 20
43.62254124750571
 30
0.0
 11
-2.966840070830078
 21
43.84889939639907
 31
0.0
  0
LINE
  5
1F6
330
1F
100
AcDbEntity
  8
0
100
AcDbLine
 10
-2.966840070830078
 20
43.84889939639907
 30
0.0
 11
-2.778962807248589
 21
44.19296378271697
 31
0.0
  0
LINE
  5
1F7
330
1F
100
AcDbEntity
  8
0
100
AcDbLine
 10
-2.778962807248589
 20
44.19296378271697
 30
0.0
 11
-2.716337052721425
 21
44.6215352112884
 31
0.0
  0
LINE
  5
1F8
330
1F
100
AcDbEntity
  8
0
100
AcDbLine
 10
-2.716337052721425
 20
44.6215352112884
 30
0.0
 11
-2.716337052721425
 21
44.8569476861375
 31
0.0
  0
LINE
  5
1F9
330
1F
100
AcDbEntity
  8
0
100
AcDbLine
 10
-2.716337052721425
 20
44.8569476861375
 30
0.0
 11
-3.585552344471929
 21
44.73622334006104
 31
0.0
  0
LINE
  5
1FA
330
1F
100
AcDbEntity
  8
0
100
AcDbLine
 10
-3.585552344471929
 20
44.73622334006104
 30
0.0
 11
-3.870763612077562
 21
44.65737525152985
 31
0.0
  0
LINE
  5
1FB
330
1F
100
AcDbEntity
  8
0
100
AcDbLine
 10
-3.870763612077562
 20
44.65737525152985
 30
0.0
 11
-4.074485946081588
 21
44.5294828974051
 31
0.0
  0
LINE
  5
1FC
330
1F
100
AcDbEntity
  8
0
100
AcDbLine
 10
-4.074485946081588
 20
44.5294828974051
 30
0.0
 11
-4.196719346484002
 21
44.35254627768679
 31
0.0
  0
LINE
  5
1FD
330
1F
100
AcDbEntity
  8
0
100
AcDbLine
 10
-4.196719346484002
 20
44.35254627768679
 30
0.0
 11
-4.237463813284806
 21
44.12656539237492
 31
0.0
  0
LINE
  5
1FE
330
1F
100
AcDbEntity
  8
0
100
AcDbLine
 10
3.513039204823848
 20
49.87304426561435
 30
0.0
 11
3.41419614647375
 21
49.38109255535279
 31
0.0
  0
LINE
  5
1FF
330
1F
100
AcDbEntity
  8
0
100
AcDbLine
 10
3.41419614647375
 20
49.38109255535279
 30
0.0
 11
3.117666971423443
 21
48.99175653925621
 31
0.0
  0
LINE
  5
200
330
1F
100
AcDbEntity
  8
0
100
AcDbLine
 10
3.117666971423443
 20
48.99175653925621
 30
0.0
 11
2.659668983495877
 21
48.73823541249565
 31
0.0
  0
LINE
  5
201
330
1F
100
AcDbEntity
  8
0
100
AcDbLine
 10
2.659668983495877
 20
48.73823541249565
 30
0.0
 11
2.076419486513985
 21
48.65372837024213
 31
0.0
  0
LINE
  5
202
330
1F
100
AcDbEntity
  8
0
100
AcDbLine
 10
2.076419486513985
 20
48.65372837024213
 30
0.0
 11
1.505242424139741
 21
48.74125352114756
 31
0.0
  0
LINE
  5
203
330
1F
100
AcDbEntity
  8
0
100
AcDbLine
 10
1.505242424139741
 20
48.74125352114756
 30
0.0
 11
1.047244436212175
 21
49.00382897386385
 31
0.0
  0
LINE
  5
204
330
1F
100
AcDbEntity
  8
0
100
AcDbLine
 10
1.047244436212175
 20
49.00382897386385
 30
0.0
 11
0.7461880981840094
 21
49.39618309861235
 31
0.0
  0
LINE
  5
205
330
1F
100
AcDbEntity
  8
0
100
AcDbLine
 10
0.7461880981840094
 20
49.39618309861235
 30
0.0
 11
0.6458359855079522
 21
49.87304426561435
 31
0.0
  0
LINE
  5
206
330
1F
100
AcDbEntity
  8
0
100
AcDbLine
 10
0.6458359855079522
 20
49.87304426561435
 30
0.0
 11
0.7431699895320947
 21
50.35367806843126
 31
0.0
  0
LINE
  5
207
330
1F
100
AcDbEntity
  8
0
100
AcDbLine
 10
0.7431699895320947
 20
50.35367806843126
 30
0.0
 11
1.035172001604528
 21
50.73320523140912
 31
0.0
  0
LINE
  5
208
330
1F
100
AcDbEntity
  8
0
100
AcDbLine
 10
1.035172001604528
 20
50.73320523140912
 30
0.0
 11
1.490151880880179
 21
50.97993561370289
 31
0.0
  0
LINE
  5
209
330
1F
100
AcDbEntity
  8
0
100
AcDbLine
 10
1.490151880880179
 20
50.97993561370289
 30
0.0
 11
2.076419486513985
 21
51.06217907446748
 31
0.0
  0
LINE
  5
20A
330
1F
100
AcDbEntity
  8
0
100
AcDbLine
 10
2.076419486513985
 20
51.06217907446748
 30
0.0
 11
2.659668983495877
 21
50.97993561370289
 31
0.0
  0
LINE
  5
20B
330
1F
100
AcDbEntity
  8
0
100
AcDbLine
 10
2.659668983495877
 20
50.97993561370289
 30
0.0
 11
3.117666971423443
 21
50.73320523140912
 31
0.0
  0
LINE
  5
20C
330
1F
100
AcDbEntity
  8
0
100
AcDbLine
 10
3.117666971423443
 20
50.73320523140912
 30
0.0
 11
3.41419614647375
 21
50.35367806843126
 31
0.0
  0
LINE
  5
20D
330
1F
100
AcDbEntity
  8
0
100
AcDbLine
 10
3.41419614647375
 20
50.35367806843126
 30
0.0
 11
3.513039204823848
 21
49.87304426561435
 31
0.0
  0
LINE
  5
20E
330
1F
100
AcDbEntity
  8
0
100
AcDbLine
 10
0.7907052007997015
 20
42.02596177064454
 30
0.0
 11
0.7907052007997015
 21
48.20704828975923
 31
0.0
  0
LINE
  5
20F
330
1F
100
AcDbEntity
  8
0
100
AcDbLine
 10
0.7907052007997015
 20
48.20704828975923
 30
0.0
 11
3.362133772228272
 21
48.20704828975923
 31
0.0
  0
LINE
  5
210
330
1F
100
AcDbEntity
  8
0
100
AcDbLine
 10
3.362133772228272
 20
48.20704828975923
 30
0.0
 11
3.362133772228272
 21
42.02596177064454
 31
0.0
  0
LINE
  5
211
330
1F
100
AcDbEntity
  8
0
100
AcDbLine
 10
3.362133772228272
 20
42.02596177064454
 30
0.0
 11
0.7907052007997015
 21
42.02596177064454
 31
0.0
  0
LINE
  5
212
330
1F
100
AcDbEntity
  8
0
100
AcDbLine
 10
11.29975952675544
 20
42.88914084509122
 30
0.0
 11
11.22977713238924
 21
42.04803169016164
 31
0.0
  0
LINE
  5
213
330
1F
100
AcDbEntity
  8
0
100
AcDbLine
 10
11.22977713238924
 20
42.04803169016164
 30
0.0
 11
11.01982994929065
 21
41.30538833000067
 31
0.0
  0
LINE
  5
214
330
1F
100
AcDbEntity
  8
0
100
AcDbLine
 10
11.01982994929065
 20
41.30538833000067
 30
0.0
 11
10.66991797745967
 21
40.66121076460832
 31
0.0
  0
LINE
  5
215
330
1F
100
AcDbEntity
  8
0
100
AcDbLine
 10
10.66991797745967
 20
40.66121076460832
 30
0.0
 11
10.18004121689628
 21
40.11549899398458
 31
0.0
  0
LINE
  5
216
330
1F
100
AcDbEntity
  8
0
100
AcDbLine
 10
10.18004121689628
 20
40.11549899398458
 30
0.0
 11
9.555858621322846
 21
39.68107997990007
 31
0.0
  0
LINE
  5
217
330
1F
100
AcDbEntity
  8
0
100
AcDbLine
 10
9.555858621322846
 20
39.68107997990007
 30
0.0
 11
8.803029144461675
 21
39.37078068412542
 31
0.0
  0
LINE
  5
218
330
1F
100
AcDbEntity
  8
0
100
AcDbLine
 10
8.803029144461675
 20
39.37078068412542
 30
0.0
 11
7.921552786312784
 21
39.18460110666064
 31
0.0
  0
LINE
  5
219
330
1F
100
AcDbEntity
  8
0
100
AcDbLine
 10
7.921552786312784
 20
39.18460110666064
 30
0.0
 11
6.911429546876162
 21
39.12254124750571
 31
0.0
  0
LINE
  5
21A
330
1F
100
AcDbEntity
  8
0
100
AcDbLine
 10
6.911429546876162
 20
39.12254124750571
 30
0.0
 11
5.788693128365093
 21
39.21308450706305
 31
0.0
  0
LINE
  5
21B
330
1F
100
AcDbEntity
  8
0
100
AcDbLine
 10
5.788693128365093
 20
39.21308450706305
 30
0.0
 11
5.010021096171936
 21
39.41831589539303
 31
0.0
  0
LINE
  5
21C
330
1F
100
AcDbEntity
  8
0
100
AcDbLine
 10
5.010021096171936
 20
39.41831589539303
 30
0.0
 11
5.010021096171936
 21
41.43441247486989
 31
0.0
  0
LINE
  5
21D
330
1F
100
AcDbEntity
  8
0
100
AcDbLine
 10
5.010021096171936
 20
41.43441247486989
 30
0.0
 11
5.42953819878763
 21
41.21710865193226
 31
0.0
  0
LINE
  5
21E
330
1F
100
AcDbEntity
  8
0
100
AcDbLine
 10
5.42953819878763
 20
41.21710865193226
 30
0.0
 11
5.915453691745374
 21
41.04809456742522
 31
0.0
  0
LINE
  5
21F
330
1F
100
AcDbEntity
  8
0
100
AcDbLine
 10
5.915453691745374
 20
41.04809456742522
 30
0.0
 11
6.838994939230283
 21
40.90322535213348
 31
0.0
  0
LINE
  5
220
330
1F
100
AcDbEntity
  8
0
100
AcDbLine
 10
6.838994939230283
 20
40.90322535213348
 30
0.0
 11
7.616157917097492
 21
41.00735010062442
 31
0.0
  0
LINE
  5
221
330
1F
100
AcDbEntity
  8
0
100
AcDbLine
 10
7.616157917097492
 20
41.00735010062442
 30
0.0
 11
8.221288701805738
 21
41.31972434609725
 31
0.0
  0
LINE
  5
222
330
1F
100
AcDbEntity
  8
0
100
AcDbLine
 10
8.221288701805738
 20
41.31972434609725
 30
0.0
 11
8.448401377862082
 21
41.54495070424615
 31
0.0
  0
LINE
  5
223
330
1F
100
AcDbEntity
  8
0
100
AcDbLine
 10
8.448401377862082
 20
41.54495070424615
 30
0.0
 11
8.610624717902319
 21
41.80413078472904
 31
0.0
  0
LINE
  5
224
330
1F
100
AcDbEntity
  8
0
100
AcDbLine
 10
8.610624717902319
 20
41.80413078472904
 30
0.0
 11
8.707958721926461
 21
42.09726458754594
 31
0.0
  0
LINE
  5
225
330
1F
100
AcDbEntity
  8
0
100
AcDbLine
 10
8.707958721926461
 20
42.09726458754594
 30
0.0
 11
8.740403389934508
 21
42.42435211269685
 31
0.0
  0
LINE
  5
226
330
1F
100
AcDbEntity
  8
0
100
AcDbLine
 10
8.740403389934508
 20
42.42435211269685
 30
0.0
 11
8.740403389934508
 21
42.80463380283769
 31
0.0
  0
LINE
  5
227
330
1F
100
AcDbEntity
  8
0
100
AcDbLine
 10
8.71625852071922
 20
42.80463380283769
 30
0.0
 11
8.386530150497896
 21
42.42435211269685
 31
0.0
  0
LINE
  5
228
330
1F
100
AcDbEntity
  8
0
100
AcDbLine
 10
8.386530150497896
 20
42.42435211269685
 30
0.0
 11
7.952677031785619
 21
42.12857746480953
 31
0.0
  0
LINE
  5
229
330
1F
100
AcDbEntity
  8
0
100
AcDbLine
 10
7.952677031785619
 20
42.12857746480953
 30
0.0
 11
7.449407414079379
 21
41.93843661973911
 31
0.0
  0
LINE
  5
22A
330
1F
100
AcDbEntity
  8
0
100
AcDbLine
 10
7.449407414079379
 20
41.93843661973911
 30
0.0
 11
6.911429546876162
 21
41.87505633804896
 31
0.0
  0
LINE
  5
22B
330
1F
100
AcDbEntity
  8
0
100
AcDbLine
 10
6.911429546876162
 20
41.87505633804896
 30
0.0
 11
6.345156911061276
 21
41.92693008050369
 31
0.0
  0
LINE
  5
22C
330
1F
100
AcDbEntity
  8
0
100
AcDbLine
 10
6.345156911061276
 20
41.92693008050369
 30
0.0
 11
5.841510029773546
 21
42.08255130786788
 31
0.0
  0
LINE
  5
22D
330
1F
100
AcDbEntity
  8
0
100
AcDbLine
 10
5.841510029773546
 20
42.08255130786788
 30
0.0
 11
5.400488903012987
 21
42.34192002014152
 31
0.0
  0
LINE
  5
22E
330
1F
100
AcDbEntity
  8
0
100
AcDbLine
 10
5.400488903012987
 20
42.34192002014152
 30
0.0
 11
5.022093530779583
 21
42.70503621732462
 31
0.0
  0
LINE
  5
22F
330
1F
100
AcDbEntity
  8
0
100
AcDbLine
 10
5.022093530779583
 20
42.70503621732462
 30
0.0
 11
4.718396347680993
 21
43.15945020122804
 31
0.0
  0
LINE
  5
230
330
1F
100
AcDbEntity
  8
0
100
AcDbLine
 10
4.718396347680993
 20
43.15945020122804
 30
0.0
 11
4.501469788324852
 21
43.69271227366265
 31
0.0
  0
LINE
  5
231
330
1F
100
AcDbEntity
  8
0
100
AcDbLine
 10
4.501469788324852
 20
43.69271227366265
 30
0.0
 11
4.371313852711172
 21
44.30482243462844
 31
0.0
  0
LINE
  5
232
330
1F
100
AcDbEntity
  8
0
100
AcDbLine
 10
4.371313852711172
 20
44.30482243462844
 30
0.0
 11
4.327928540839942
 21
44.99578068412542
 31
0.0
  0
LINE
  5
233
330
1F
100
AcDbEntity
  8
0
100
AcDbLine
 10
4.327928540839942
 20
44.99578068412542
 30
0.0
 11
4.418471800397286
 21
45.93893963784776
 31
0.0
  0
LINE
  5
234
330
1F
100
AcDbEntity
  8
0
100
AcDbLine
 10
4.418471800397286
 20
45.93893963784776
 30
0.0
 11
4.690101579069319
 21
46.76439235414555
 31
0.0
  0
LINE
  5
235
330
1F
100
AcDbEntity
  8
0
100
AcDbLine
 10
4.690101579069319
 20
46.76439235414555
 30
0.0
 11
5.12320017061862
 21
47.44271227366264
 31
0.0
  0
LINE
  5
236
330
1F
100
AcDbEntity
  8
0
100
AcDbLine
 10
5.12320017061862
 20
47.44271227366264
 30
0.0
 11
5.698149868807748
 21
47.94447283704293
 31
0.0
  0
LINE
  5
237
330
1F
100
AcDbEntity
  8
0
100
AcDbLine
 10
5.698149868807748
 20
47.94447283704293
 30
0.0
 11
6.377224315487829
 21
48.25458350102683
 31
0.0
  0
LINE
  5
238
330
1F
100
AcDbEntity
  8
0
100
AcDbLine
 10
6.377224315487829
 20
48.25458350102683
 30
0.0
 11
7.122697152509963
 21
48.3579537223548
 31
0.0
  0
LINE
  5
239
330
1F
100
AcDbEntity
  8
0
100
AcDbLine
 10
7.122697152509963
 20
48.3579537223548
 30
0.0
 11
7.62294866156429
 21
48.30853219317975
 31
0.0
  0
LINE
  5
23A
330
1F
100
AcDbEntity
  8
0
100
AcDbLine
 10
7.62294866156429
 20
48.30853219317975
 30
0.0
 11
8.055292725950611
 21
48.1602676056546
 31
0.0
  0
LINE
  5
23B
330
1F
100
AcDbEntity
  8
0
100
AcDbLine
 10
8.055292725950611
 20
48.1602676056546
 30
0.0
 11
8.419729345668918
 21
47.91315995977935
 31
0.0
  0
LINE
  5
23C
330
1F
100
AcDbEntity
  8
0
100
AcDbLine
 10
8.419729345668918
 20
47.91315995977935
 30
0.0
 11
8.71625852071922
 21
47.567209255554
 31
0.0
  0
LINE
  5
23D
330
1F
100
AcDbEntity
  8
0
100
AcDbLine
 10
8.740403389934508
 20
47.567209255554
 30
0.0
 11
8.740403389934508
 21
48.20704828975923
 31
0.0
  0
LINE
  5
23E
330
1F
100
AcDbEntity
  8
0
100
AcDbLine
 10
8.740403389934508
 20
48.20704828975923
 30
0.0
 11
11.29975952675544
 21
48.20704828975923
 31
0.0
  0
LINE
  5
23F
330
1F
100
AcDbEntity
  8
0
100
AcDbLine
 10
11.29975952675544
 20
48.20704828975923
 30
0.0
 11
11.29975952675544
 21
42.88914084509122
 31
0.0
  0
LINE
  5
240
330
1F
100
AcDbEntity
  8
0
100
AcDbLine
 10
8.782656911061268
 20
45.29155533201275
 30
0.0
 11
8.721540210860063
 21
45.77897987929645
 31
0.0
  0
LINE
  5
241
330
1F
100
AcDbEntity
  8
0
100
AcDbLine
 10
8.721540210860063
 20
45.77897987929645
 30
0.0
 11
8.53819011025644
 21
46.15473440645943
 31
0.0
  0
LINE
  5
242
330
1F
100
AcDbEntity
  8
0
100
AcDbLine
 10
8.53819011025644
 20
46.15473440645943
 30
0.0
 11
8.253733369813785
 21
46.39467404428639
 31
0.0
  0
LINE
  5
243
330
1F
100
AcDbEntity
  8
0
100
AcDbLine
 10
8.253733369813785
 20
46.39467404428639
 30
0.0
 11
7.889296750095479
 21
46.47465392356204
 31
0.0
  0
LINE
  5
244
330
1F
100
AcDbEntity
  8
0
100
AcDbLine
 10
7.889296750095479
 20
46.47465392356204
 30
0.0
 11
7.498451679672938
 21
46.37807444670088
 31
0.0
  0
LINE
  5
245
330
1F
100
AcDbEntity
  8
0
100
AcDbLine
 10
7.498451679672938
 20
46.37807444670088
 30
0.0
 11
7.195131760155837
 21
46.08833601611737
 31
0.0
  0
LINE
  5
246
330
1F
100
AcDbEntity
  8
0
100
AcDbLine
 10
7.195131760155837
 20
46.08833601611737
 30
0.0
 11
7.000463752107546
 21
45.63712877265662
 31
0.0
  0
LINE
  5
247
330
1F
100
AcDbEntity
  8
0
100
AcDbLine
 10
7.000463752107546
 20
45.63712877265662
 30
0.0
 11
6.935574416091451
 21
45.05614285716365
 31
0.0
  0
LINE
  5
248
330
1F
100
AcDbEntity
  8
0
100
AcDbLine
 10
6.935574416091451
 20
45.05614285716365
 30
0.0
 11
6.989900371825859
 21
44.52042857144937
 31
0.0
  0
LINE
  5
249
330
1F
100
AcDbEntity
  8
0
100
AcDbLine
 10
6.989900371825859
 20
44.52042857144937
 30
0.0
 11
7.152878239029077
 21
44.10845674046345
 31
0.0
  0
LINE
  5
24A
330
1F
100
AcDbEntity
  8
0
100
AcDbLine
 10
7.152878239029077
 20
44.10845674046345
 30
0.0
 11
7.433562343656842
 21
43.84588128774715
 31
0.0
  0
LINE
  5
24B
330
1F
100
AcDbEntity
  8
0
100
AcDbLine
 10
7.433562343656842
 20
43.84588128774715
 30
0.0
 11
7.841007011664895
 21
43.75835613684172
 31
0.0
  0
LINE
  5
24C
330
1F
100
AcDbEntity
  8
0
100
AcDbLine
 10
7.841007011664895
 20
43.75835613684172
 30
0.0
 11
8.23411566357636
 21
43.84814486923609
 31
0.0
  0
LINE
  5
24D
330
1F
100
AcDbEntity
  8
0
100
AcDbLine
 10
8.23411566357636
 20
43.84814486923609
 30
0.0
 11
8.532153892952621
 21
44.11751106641918
 31
0.0
  0
LINE
  5
24E
330
1F
100
AcDbEntity
  8
0
100
AcDbLine
 10
8.532153892952621
 20
44.11751106641918
 30
0.0
 11
8.720031156534109
 21
44.53778269619786
 31
0.0
  0
LINE
  5
24F
330
1F
100
AcDbEntity
  8
0
100
AcDbLine
 10
8.720031156534109
 20
44.53778269619786
 30
0.0
 11
8.782656911061268
 21
45.08028772637895
 31
0.0
  0
LINE
  5
250
330
1F
100
AcDbEntity
  8
0
100
AcDbLine
 10
8.782656911061268
 20
45.08028772637895
 30
0.0
 11
8.782656911061268
 21
45.29155533201275
 31
0.0
  0
LINE
  5
251
330
1F
100
AcDbEntity
  8
0
100
AcDbLine
 10
16.52108749456228
 20
42.02596177064454
 30
0.0
 11
16.52108749456228
 21
45.55111267607713
 31
0.0
  0
LINE
  5
252
330
1F
100
AcDbEntity
  8
0
100
AcDbLine
 10
16.52108749456228
 20
45.55111267607713
 30
0.0
 11
16.47694765552807
 21
45.95516197185178
 31
0.0
  0
LINE
  5
253
330
1F
100
AcDbEntity
  8
0
100
AcDbLine
 10
16.47694765552807
 20
45.95516197185178
 30
0.0
 11
16.34452813842545
 21
46.24376861169081
 31
0.0
  0
LINE
  5
254
330
1F
100
AcDbEntity
  8
0
100
AcDbLine
 10
16.34452813842545
 20
46.24376861169081
 30
0.0
 11
16.12382894325443
 21
46.41693259559423
 31
0.0
  0
LINE
  5
255
330
1F
100
AcDbEntity
  8
0
100
AcDbLine
 10
16.12382894325443
 20
46.41693259559423
 30
0.0
 11
15.81485007001499
 21
46.47465392356204
 31
0.0
  0
LINE
  5
256
330
1F
100
AcDbEntity
  8
0
100
AcDbLine
 10
15.81485007001499
 20
46.47465392356204
 30
0.0
 11
15.51153015049789
 21
46.40901006038297
 31
0.0
  0
LINE
  5
257
330
1F
100
AcDbEntity
  8
0
100
AcDbLine
 10
15.51153015049789
 20
46.40901006038297
 30
0.0
 11
15.2896991645824
 21
46.21207847084575
 31
0.0
  0
LINE
  5
258
330
1F
100
AcDbEntity
  8
0
100
AcDbLine
 10
15.2896991645824
 20
46.21207847084575
 30
0.0
 11
15.15388427524638
 21
45.91253118714354
 31
0.0
  0
LINE
  5
259
330
1F
100
AcDbEntity
  8
0
100
AcDbLine
 10
15.15388427524638
 20
45.91253118714354
 30
0.0
 11
15.10861264546771
 21
45.53904024146949
 31
0.0
  0
LINE
  5
25A
330
1F
100
AcDbEntity
  8
0
100
AcDbLine
 10
15.10861264546771
 20
45.53904024146949
 30
0.0
 11
15.10861264546771
 21
42.02596177064454
 31
0.0
  0
LINE
  5
25B
330
1F
100
AcDbEntity
  8
0
100
AcDbLine
 10
15.10861264546771
 20
42.02596177064454
 30
0.0
 11
12.53718407403914
 21
42.02596177064454
 31
0.0
  0
LINE
  5
25C
330
1F
100
AcDbEntity
  8
0
100
AcDbLine
 10
12.53718407403914
 20
42.02596177064454
 30
0.0
 11
12.53718407403914
 21
51.17686720324011
 31
0.0
  0
LINE
  5
25D
330
1F
100
AcDbEntity
  8
0
100
AcDbLine
 10
12.53718407403914
 20
51.17686720324011
 30
0.0
 11
15.10861264546771
 21
51.17686720324011
 31
0.0
  0
LINE
  5
25E
330
1F
100
AcDbEntity
  8
0
100
AcDbLine
 10
15.10861264546771
 20
51.17686720324011
 30
0.0
 11
15.10861264546771
 21
47.36801408452784
 31
0.0
  0
LINE
  5
25F
330
1F
100
AcDbEntity
  8
0
100
AcDbLine
 10
15.132757514683
 20
47.36801408452784
 30
0.0
 11
15.50021224305322
 21
47.78979476863247
 31
0.0
  0
LINE
  5
260
330
1F
100
AcDbEntity
  8
0
100
AcDbLine
 10
15.50021224305322
 20
47.78979476863247
 30
0.0
 11
15.93859252474337
 21
48.10141448694232
 31
0.0
  0
LINE
  5
261
330
1F
100
AcDbEntity
  8
0
100
AcDbLine
 10
15.93859252474337
 20
48.10141448694232
 30
0.0
 11
16.42978970784196
 21
48.29381891350168
 31
0.0
  0
LINE
  5
262
330
1F
100
AcDbEntity
  8
0
100
AcDbLine
 10
16.42978970784196
 20
48.29381891350168
 30
0.0
 11
16.95569514043753
 21
48.3579537223548
 31
0.0
  0
LINE
  5
263
330
1F
100
AcDbEntity
  8
0
100
AcDbLine
 10
16.95569514043753
 20
48.3579537223548
 30
0.0
 11
17.42689735371721
 21
48.31777515092623
 31
0.0
  0
LINE
  5
264
330
1F
100
AcDbEntity
  8
0
100
AcDbLine
 10
17.42689735371721
 20
48.31777515092623
 30
0.0
 11
17.83849192112163
 21
48.19723943664052
 31
0.0
  0
LINE
  5
265
330
1F
100
AcDbEntity
  8
0
100
AcDbLine
 10
17.83849192112163
 20
48.19723943664052
 30
0.0
 11
18.1904788426508
 21
47.99634657949765
 31
0.0
  0
LINE
  5
266
330
1F
100
AcDbEntity
  8
0
100
AcDbLine
 10
18.1904788426508
 20
47.99634657949765
 30
0.0
 11
18.48285811830473
 21
47.71509657949766
 31
0.0
  0
LINE
  5
267
330
1F
100
AcDbEntity
  8
0
100
AcDbLine
 10
18.48285811830473
 20
47.71509657949766
 30
0.0
 11
18.71261163943149
 21
47.35575301812945
 31
0.0
  0
LINE
  5
268
330
1F
100
AcDbEntity
  8
0
100
AcDbLine
 10
18.71261163943149
 20
47.35575301812945
 30
0.0
 11
18.87672129737918
 21
46.92057947688197
 31
0.0
  0
LINE
  5
269
330
1F
100
AcDbEntity
  8
0
100
AcDbLine
 10
18.87672129737918
 20
46.92057947688197
 30
0.0
 11
18.97518709214779
 21
46.4095759557552
 31
0.0
  0
LINE
  5
26A
330
1F
100
AcDbEntity
  8
0
100
AcDbLine
 10
18.97518709214779
 20
46.4095759557552
 30
0.0
 11
19.00800902373733
 21
45.82274245474917
 31
0.0
  0
LINE
  5
26B
330
1F
100
AcDbEntity
  8
0
100
AcDbLine
 10
19.00800902373733
 20
45.82274245474917
 30
0.0
 11
19.00800902373733
 21
42.02596177064454
 31
0.0
  0
LINE
  5
26C
330
1F
100
AcDbEntity
  8
0
100
AcDbLine
 10
19.00800902373733
 20
42.02596177064454
 30
0.0
 11
16.52108749456228
 21
42.02596177064454
 31
0.0
  0
LINE
  5
26D
330
1F
100
AcDbEntity
  8
0
100
AcDbLine
 10
24.51907542212767
 20
42.11046881289806
 30
0.0
 11
23.94563477826449
 21
41.95050905434675
 31
0.0
  0
LINE
  5
26E
330
1F
100
AcDbEntity
  8
0
100
AcDbLine
 10
23.94563477826449
 20
41.95050905434675
 30
0.0
 11
22.98587622695664
 21
41.87505633804896
 31
0.0
  0
LINE
  5
26F
330
1F
100
AcDbEntity
  8
0
100
AcDbLine
 10
22.98587622695664
 20
41.87505633804896
 30
0.0
 11
22.4778908144818
 21
41.91202816903488
 31
0.0
  0
LINE
  5
270
330
1F
100
AcDbEntity
  8
0
100
AcDbLine
 10
22.4778908144818
 20
41.91202816903488
 30
0.0
 11
22.02838125713773
 21
42.02294366199263
 31
0.0
  0
LINE
  5
271
330
1F
100
AcDbEntity
  8
0
100
AcDbLine
 10
22.02838125713773
 20
42.02294366199263
 30
0.0
 11
21.63734755492446
 21
42.2078028169222
 31
0.0
  0
LINE
  5
272
330
1F
100
AcDbEntity
  8
0
100
AcDbLine
 10
21.63734755492446
 20
42.2078028169222
 30
0.0
 11
21.30478970784196
 21
42.46660563382361
 31
0.0
  0
LINE
  5
273
330
1F
100
AcDbEntity
  8
0
100
AcDbLine
 10
21.30478970784196
 20
42.46660563382361
 30
0.0
 11
21.03938477826449
 21
42.79369315897452
 31
0.0
  0
LINE
  5
274
330
1F
100
AcDbEntity
  8
0
100
AcDbLine
 10
21.03938477826449
 20
42.79369315897452
 30
0.0
 11
20.8498098285663
 21
43.18340643865259
 31
0.0
  0
LINE
  5
275
330
1F
100
AcDbEntity
  8
0
100
AcDbLine
 10
20.8498098285663
 20
43.18340643865259
 30
0.0
 11
20.73606485874739
 21
43.63574547285782
 31
0.0
  0
LINE
  5
276
330
1F
100
AcDbEntity
  8
0
100
AcDbLine
 10
20.73606485874739
 20
43.63574547285782
 30
0.0
 11
20.69814986880775
 21
44.15071026159021
 31
0.0
  0
LINE
  5
277
330
1F
100
AcDbEntity
  8
0
100
AcDbLine
 10
20.69814986880775
 20
44.15071026159021
 30
0.0
 11
20.69814986880775
 21
46.42636418513145
 31
0.0
  0
LINE
  5
278
330
1F
100
AcDbEntity
  8
0
100
AcDbLine
 10
20.69814986880775
 20
46.42636418513145
 30
0.0
 11
19.72631888289225
 21
46.42636418513145
 31
0.0
  0
LINE
  5
279
330
1F
100
AcDbEntity
  8
0
100
AcDbLine
 10
19.72631888289225
 20
46.42636418513145
 30
0.0
 11
19.72631888289225
 21
48.20704828975923
 31
0.0
  0
LINE
  5
27A
330
1F
100
AcDbEntity
  8
0
100
AcDbLine
 10
19.72631888289225
 20
48.20704828975923
 30
0.0
 11
20.69814986880775
 21
48.20704828975923
 31
0.0
  0
LINE
  5
27B
330
1F
100
AcDbEntity
  8
0
100
AcDbLine
 10
20.69814986880775
 20
48.20704828975923
 30
0.0
 11
20.69814986880775
 21
49.42032796782763
 31
0.0
  0
LINE
  5
27C
330
1F
100
AcDbEntity
  8
0
100
AcDbLine
 10
20.69814986880775
 20
49.42032796782763
 30
0.0
 11
23.23336113641339
 21
50.1205291750711
 31
0.0
  0
LINE
  5
27D
330
1F
100
AcDbEntity
  8
0
100
AcDbLine
 10
23.23336113641339
 20
50.1205291750711
 30
0.0
 11
23.23336113641339
 21
48.20704828975923
 31
0.0
  0
LINE
  5
27E
330
1F
100
AcDbEntity
  8
0
100
AcDbLine
 10
23.23336113641339
 20
48.20704828975923
 30
0.0
 11
24.51907542212767
 21
48.20704828975923
 31
0.0
  0
LINE
  5
27F
330
1F
100
AcDbEntity
  8
0
100
AcDbLine
 10
24.51907542212767
 20
48.20704828975923
 30
0.0
 11
24.51907542212767
 21
46.42636418513145
 31
0.0
  0
LINE
  5
280
330
1F
100
AcDbEntity
  8
0
100
AcDbLine
 10
24.51907542212767
 20
46.42636418513145
 30
0.0
 11
23.23336113641339
 21
46.42636418513145
 31
0.0
  0
LINE
  5
281
330
1F
100
AcDbEntity
  8
0
100
AcDbLine
 10
23.23336113641339
 20
46.42636418513145
 30
0.0
 11
23.23336113641339
 21
44.57324547285781
 31
0.0
  0
LINE
  5
282
330
1F
100
AcDbEntity
  8
0
100
AcDbLine
 10
23.23336113641339
 20
44.57324547285781
 30
0.0
 11
23.2737283396327
 21
44.21673138835078
 31
0.0
  0
LINE
  5
283
330
1F
100
AcDbEntity
  8
0
100
AcDbLine
 10
23.2737283396327
 20
44.21673138835078
 30
0.0
 11
23.39482994929065
 21
43.96207847084575
 31
0.0
  0
LINE
  5
284
330
1F
100
AcDbEntity
  8
0
100
AcDbLine
 10
23.39482994929065
 20
43.96207847084575
 30
0.0
 11
23.59666596538723
 21
43.80928672034273
 31
0.0
  0
LINE
  5
285
330
1F
100
AcDbEntity
  8
0
100
AcDbLine
 10
23.59666596538723
 20
43.80928672034273
 30
0.0
 11
23.87923638792244
 21
43.75835613684172
 31
0.0
  0
LINE
  5
286
330
1F
100
AcDbEntity
  8
0
100
AcDbLine
 10
23.87923638792244
 20
43.75835613684172
 30
0.0
 11
24.51907542212767
 21
43.89115291752583
 31
0.0
  0
LINE
  5
287
330
1F
100
AcDbEntity
  8
0
100
AcDbLine
 10
24.51907542212767
 20
43.89115291752583
 30
0.0
 11
24.51907542212767
 21
42.11046881289806
 31
0.0
  0
LINE
  5
288
330
1F
100
AcDbEntity
  8
0
100
AcDbLine
 10
-21.73560376866543
 20
23.01066962348088
 30
0.0
 11
21.73672756618926
 21
23.01066962348088
 31
0.0
  0
LINE
  5
289
330
1F
100
AcDbEntity
  8
0
100
AcDbLine
 10
-52.44875398262589
 20
23.01066962348088
 30
0.0
 11
-27.73560471505849
 21
23.01066962348088
 31
0.0
  0
LINE
  5
28A
330
1F
100
AcDbEntity
  8
0
100
AcDbLine
 10
2.999999999999995
 20
26.01066962348087
 30
0.0
 11
46.47345513237852
 21
26.01066962348087
 31
0.0
  0
LINE
  5
28B
330
1F
100
AcDbEntity
  8
0
100
AcDbLine
 10
27.73672756618925
 20
23.01066962348088
 30
0.0
 11
52.4734551323785
 21
23.01066962348088
 31
0.0
  0
LINE
  5
28C
330
1F
100
AcDbEntity
  8
0
100
AcDbLine
 10
-46.47345513237852
 20
26.01066962348087
 30
0.0
 11
-2.999999999999995
 21
26.01066962348087
 31
0.0
  0
LINE
  5
28D
330
1F
100
AcDbEntity
  8
0
100
AcDbLine
 10
-52.44875398262589
 20
23.01066962348088
 30
0.0
 11
-52.44875398262589
 21
17.01066962348089
 31
0.0
  0
LINE
  5
28E
330
1F
100
AcDbEntity
  8
0
100
AcDbLine
 10
52.4734551323785
 20
23.01066962348088
 30
0.0
 11
52.4734551323785
 21
17.01066962348089
 31
0.0
  0
LINE
  5
28F
330
1F
100
AcDbEntity
  8
0
100
AcDbLine
 10
2.999999999999995
 20
20.01066962348088
 30
0.0
 11
46.47345513237852
 21
20.01066962348088
 31
0.0
  0
LINE
  5
290
330
1F
100
AcDbEntity
  8
0
100
AcDbLine
 10
-21.73560376866543
 20
17.01066962348089
 30
0.0
 11
21.73672756618926
 21
17.01066962348089
 31
0.0
  0
LINE
  5
291
330
1F
100
AcDbEntity
  8
0
100
AcDbLine
 10
-52.44875398262589
 20
17.01066962348089
 30
0.0
 11
-27.73560471505849
 21
17.01066962348089
 31
0.0
  0
LINE
  5
292
330
1F
100
AcDbEntity
  8
0
100
AcDbLine
 10
27.73672756618925
 20
17.01066962348089
 30
0.0
 11
52.4734551323785
 21
17.01066962348089
 31
0.0
  0
LINE
  5
293
330
1F
100
AcDbEntity
  8
0
100
AcDbLine
 10
-46.47345513237852
 20
20.01066962348088
 30
0.0
 11
-2.999999999999995
 21
20.01066962348088
 31
0.0
  0
LINE
  5
294
330
1F
100
AcDbEntity
  8
0
100
AcDbLine
 10
-52.44875398262589
 20
17.01066962348089
 30
0.0
 11
-52.44875398262589
 21
11.0106696234809
 31
0.0
  0
LINE
  5
295
330
1F
100
AcDbEntity
  8
0
100
AcDbLine
 10
52.4734551323785
 20
17.01066962348089
 30
0.0
 11
52.4734551323785
 21
11.0106696234809
 31
0.0
  0
LINE
  5
296
330
1F
100
AcDbEntity
  8
0
100
AcDbLine
 10
2.999999999999995
 20
14.0106696234809
 30
0.0
 11
46.47345513237852
 21
14.0106696234809
 31
0.0
  0
LINE
  5
297
330
1F
100
AcDbEntity
  8
0
100
AcDbLine
 10
-52.44875398262589
 20
11.0106696234809
 30
0.0
 11
-27.73560471505849
 21
11.0106696234809
 31
0.0
  0
LINE
  5
298
330
1F
100
AcDbEntity
  8
0
100
AcDbLine
 10
27.73672756618925
 20
11.0106696234809
 30
0.0
 11
52.4734551323785
 21
11.0106696234809
 31
0.0
  0
LINE
  5
299
330
1F
100
AcDbEntity
  8
0
100
AcDbLine
 10
-46.47345513237852
 20
14.0106696234809
 30
0.0
 11
-2.999999999999995
 21
14.0106696234809
 31
0.0
  0
LINE
  5
29A
330
1F
100
AcDbEntity
  8
0
100
AcDbLine
 10
-21.73560376866543
 20
11.0106696234809
 30
0.0
 11
21.73672756618926
 21
11.0106696234809
 31
0.0
  0
LINE
  5
29B
330
1F
100
AcDbEntity
  8
0
100
AcDbLine
 10
-52.44875398262589
 20
11.0106696234809
 30
0.0
 11
-52.44875398262589
 21
5.010669623480911
 31
0.0
  0
LINE
  5
29C
330
1F
100
AcDbEntity
  8
0
100
AcDbLine
 10
52.4734551323785
 20
11.0106696234809
 30
0.0
 11
52.4734551323785
 21
5.010669623480911
 31
0.0
  0
LINE
  5
29D
330
1F
100
AcDbEntity
  8
0
100
AcDbLine
 10
-21.73560376866543
 20
5.010669623480911
 30
0.0
 11
21.73672756618926
 21
5.010669623480911
 31
0.0
  0
LINE
  5
29E
330
1F
100
AcDbEntity
  8
0
100
AcDbLine
 10
-46.47345513237852
 20
8.010669623480906
 30
0.0
 11
-2.999999999999995
 21
8.010669623480906
 31
0.0
  0
LINE
  5
29F
330
1F
100
AcDbEntity
  8
0
100
AcDbLine
 10
27.73672756618925
 20
5.010669623480911
 30
0.0
 11
52.4734551323785
 21
5.010669623480911
 31
0.0
  0
LINE
  5
2A0
330
1F
100
AcDbEntity
  8
0
100
AcDbLine
 10
2.999999999999995
 20
8.010669623480906
 30
0.0
 11
46.47345513237852
 21
8.010669623480906
 31
0.0
  0
LINE
  5
2A1
330
1F
100
AcDbEntity
  8
0
100
AcDbLine
 10
-52.44875398262589
 20
5.010669623480911
 30
0.0
 11
-27.73560471505849
 21
5.010669623480911
 31
0.0
  0
LINE
  5
2A2
330
1F
100
AcDbEntity
  8
0
100
AcDbLine
 10
-52.44875398262589
 20
5.010669623480911
 30
0.0
 11
-52.44875398262589
 21
-0.9893303765190775
 31
0.0
  0
LINE
  5
2A3
330
1F
100
AcDbEntity
  8
0
100
AcDbLine
 10
52.4734551323785
 20
5.010669623480911
 30
0.0
 11
52.4734551323785
 21
-0.9893303765190775
 31
0.0
  0
LINE
  5
2A4
330
1F
100
AcDbEntity
  8
0
100
AcDbLine
 10
27.73672756618925
 20
-6.989330376519066
 30
0.0
 11
52.4734551323785
 21
-6.989330376519066
 31
0.0
  0
LINE
  5
2A5
330
1F
100
AcDbEntity
  8
0
100
AcDbLine
 10
2.999999999999995
 20
2.010669623480917
 30
0.0
 11
46.47345513237852
 21
2.010669623480917
 31
0.0
  0
LINE
  5
2A6
330
1F
100
AcDbEntity
  8
0
100
AcDbLine
 10
-21.73560376866543
 20
-6.989330376519066
 30
0.0
 11
21.73672756618926
 21
-6.989330376519066
 31
0.0
  0
LINE
  5
2A7
330
1F
100
AcDbEntity
  8
0
100
AcDbLine
 10
-46.47345513237852
 20
2.010669623480917
 30
0.0
 11
-2.999999999999995
 21
2.010669623480917
 31
0.0
  0
LINE
  5
2A8
330
1F
100
AcDbEntity
  8
0
100
AcDbLine
 10
2.999999999999995
 20
-9.98933037651906
 30
0.0
 11
46.47345513237852
 21
-9.98933037651906
 31
0.0
  0
LINE
  5
2A9
330
1F
100
AcDbEntity
  8
0
100
AcDbLine
 10
-21.73560376866543
 20
-0.9893303765190775
 30
0.0
 11
21.73672756618926
 21
-0.9893303765190775
 31
0.0
  0
LINE
  5
2AA
330
1F
100
AcDbEntity
  8
0
100
AcDbLine
 10
27.73672756618925
 20
-0.9893303765190775
 30
0.0
 11
52.4734551323785
 21
-0.9893303765190775
 31
0.0
  0
LINE
  5
2AB
330
1F
100
AcDbEntity
  8
0
100
AcDbLine
 10
-52.44875398262589
 20
-0.9893303765190775
 30
0.0
 11
-27.73560471505849
 21
-0.9893303765190775
 31
0.0
  0
LINE
  5
2AC
330
1F
100
AcDbEntity
  8
0
100
AcDbLine
 10
-52.44875398262589
 20
-6.989330376519066
 30
0.0
 11
-27.73560471505849
 21
-6.989330376519066
 31
0.0
  0
LINE
  5
2AD
330
1F
100
AcDbEntity
  8
0
100
AcDbLine
 10
-46.47345513237852
 20
-3.989330376519072
 30
0.0
 11
-2.999999999999995
 21
-3.989330376519072
 31
0.0
  0
LINE
  5
2AE
330
1F
100
AcDbEntity
  8
0
100
AcDbLine
 10
-46.47345513237852
 20
-15.98933037651905
 30
0.0
 11
-2.999999999999995
 21
-15.98933037651905
 31
0.0
  0
LINE
  5
2AF
330
1F
100
AcDbEntity
  8
0
100
AcDbLine
 10
-21.73560376866543
 20
-18.98933037651905
 30
0.0
 11
21.73672756618926
 21
-18.98933037651905
 31
0.0
  0
LINE
  5
2B0
330
1F
100
AcDbEntity
  8
0
100
AcDbLine
 10
27.73672756618925
 20
-18.98933037651905
 30
0.0
 11
52.4734551323785
 21
-18.98933037651905
 31
0.0
  0
LINE
  5
2B1
330
1F
100
AcDbEntity
  8
0
100
AcDbLine
 10
2.999999999999995
 20
-3.989330376519072
 30
0.0
 11
46.47345513237852
 21
-3.989330376519072
 31
0.0
  0
LINE
  5
2B2
330
1F
100
AcDbEntity
  8
0
100
AcDbLine
 10
27.73672756618925
 20
-12.98933037651905
 30
0.0
 11
52.4734551323785
 21
-12.98933037651905
 31
0.0
  0
LINE
  5
2B3
330
1F
100
AcDbEntity
  8
0
100
AcDbLine
 10
-46.47345513237852
 20
-9.98933037651906
 30
0.0
 11
-2.999999999999995
 21
-9.98933037651906
 31
0.0
  0
LINE
  5
2B4
330
1F
100
AcDbEntity
  8
0
100
AcDbLine
 10
2.999999999999995
 20
-15.98933037651905
 30
0.0
 11
46.47345513237852
 21
-15.98933037651905
 31
0.0
  0
LINE
  5
2B5
330
1F
100
AcDbEntity
  8
0
100
AcDbLine
 10
-52.44875398262589
 20
-18.98933037651905
 30
0.0
 11
-27.73560471505849
 21
-18.98933037651905
 31
0.0
  0
LINE
  5
2B6
330
1F
100
AcDbEntity
  8
0
100
AcDbLine
 10
-52.44875398262589
 20
-12.98933037651905
 30
0.0
 11
-27.73560471505849
 21
-12.98933037651905
 31
0.0
  0
LINE
  5
2B7
330
1F
100
AcDbEntity
  8
0
100
AcDbLine
 10
-21.73560376866543
 20
-12.98933037651905
 30
0.0
 11
21.73672756618926
 21
-12.98933037651905
 31
0.0
  0
LINE
  5
2B8
330
1F
100
AcDbEntity
  8
0
100
AcDbLine
 10
-52.44875398262589
 20
-18.98933037651905
 30
0.0
 11
-52.44875398262589
 21
-24.98933037651904
 31
0.0
  0
LINE
  5
2B9
330
1F
100
AcDbEntity
  8
0
100
AcDbLine
 10
-52.44875398262589
 20
-12.98933037651905
 30
0.0
 11
-52.44875398262589
 21
-18.98933037651905
 31
0.0
  0
LINE
  5
2BA
330
1F
100
AcDbEntity
  8
0
100
AcDbLine
 10
-52.44875398262589
 20
-0.9893303765190775
 30
0.0
 11
-52.44875398262589
 21
-6.989330376519066
 31
0.0
  0
LINE
  5
2BB
330
1F
100
AcDbEntity
  8
0
100
AcDbLine
 10
52.4734551323785
 20
-6.989330376519066
 30
0.0
 11
52.4734551323785
 21
-12.98933037651905
 31
0.0
  0
LINE
  5
2BC
330
1F
100
AcDbEntity
  8
0
100
AcDbLine
 10
52.4734551323785
 20
-0.9893303765190775
 30
0.0
 11
52.4734551323785
 21
-6.989330376519066
 31
0.0
  0
LINE
  5
2BD
330
1F
100
AcDbEntity
  8
0
100
AcDbLine
 10
-52.44875398262589
 20
-6.989330376519066
 30
0.0
 11
-52.44875398262589
 21
-12.98933037651905
 31
0.0
  0
LINE
  5
2BE
330
1F
100
AcDbEntity
  8
0
100
AcDbLine
 10
52.4734551323785
 20
-18.98933037651905
 30
0.0
 11
52.4734551323785
 21
-24.98933037651904
 31
0.0
  0
LINE
  5
2BF
330
1F
100
AcDbEntity
  8
0
100
AcDbLine
 10
52.4734551323785
 20
-12.98933037651905
 30
0.0
 11
52.4734551323785
 21
-18.98933037651905
 31
0.0
  0
LINE
  5
2C0
330
1F
100
AcDbEntity
  8
0
100
AcDbLine
 10
-46.47345513237852
 20
-27.98933037651903
 30
0.0
 11
-2.999999999999995
 21
-27.98933037651903
 31
0.0
  0
LINE
  5
2C1
330
1F
100
AcDbEntity
  8
0
100
AcDbLine
 10
-46.47345513237852
 20
-39.98933037651901
 30
0.0
 11
-2.999999999999995
 21
-39.98933037651901
 31
0.0
  0
LINE
  5
2C2
330
1F
100
AcDbEntity
  8
0
100
AcDbLine
 10
-46.47345513237852
 20
-21.98933037651904
 30
0.0
 11
-2.999999999999995
 21
-21.98933037651904
 31
0.0
  0
LINE
  5
2C3
330
1F
100
AcDbEntity
  8
0
100
AcDbLine
 10
27.73672756618925
 20
-30.98933037651902
 30
0.0
 11
52.4734551323785
 21
-30.98933037651902
 31
0.0
  0
LINE
  5
2C4
330
1F
100
AcDbEntity
  8
0
100
AcDbLine
 10
-21.73560376866543
 20
-24.98933037651904
 30
0.0
 11
21.73672756618926
 21
-24.98933037651904
 31
0.0
  0
LINE
  5
2C5
330
1F
100
AcDbEntity
  8
0
100
AcDbLine
 10
27.73672756618925
 20
-24.98933037651904
 30
0.0
 11
52.4734551323785
 21
-24.98933037651904
 31
0.0
  0
LINE
  5
2C6
330
1F
100
AcDbEntity
  8
0
100
AcDbLine
 10
-52.44875398262589
 20
-24.98933037651904
 30
0.0
 11
-27.73560471505849
 21
-24.98933037651904
 31
0.0
  0
LINE
  5
2C7
330
1F
100
AcDbEntity
  8
0
100
AcDbLine
 10
-52.44875398262589
 20
-30.98933037651902
 30
0.0
 11
-27.73560471505849
 21
-30.98933037651902
 31
0.0
  0
LINE
  5
2C8
330
1F
100
AcDbEntity
  8
0
100
AcDbLine
 10
-21.73560376866543
 20
-42.989330376519
 30
0.0
 11
21.73672756618926
 21
-42.989330376519
 31
0.0
  0
LINE
  5
2C9
330
1F
100
AcDbEntity
  8
0
100
AcDbLine
 10
27.73672756618925
 20
-42.989330376519
 30
0.0
 11
52.4734551323785
 21
-42.989330376519
 31
0.0
  0
LINE
  5
2CA
330
1F
100
AcDbEntity
  8
0
100
AcDbLine
 10
2.999999999999995
 20
-27.98933037651903
 30
0.0
 11
46.47345513237852
 21
-27.98933037651903
 31
0.0
  0
LINE
  5
2CB
330
1F
100
AcDbEntity
  8
0
100
AcDbLine
 10
2.999999999999995
 20
-21.98933037651904
 30
0.0
 11
46.47345513237852
 21
-21.98933037651904
 31
0.0
  0
LINE
  5
2CC
330
1F
100
AcDbEntity
  8
0
100
AcDbLine
 10
-21.73560376866543
 20
-30.98933037651902
 30
0.0
 11
21.73672756618926
 21
-30.98933037651902
 31
0.0
  0
LINE
  5
2CD
330
1F
100
AcDbEntity
  8
0
100
AcDbLine
 10
2.999999999999995
 20
-33.98933037651901
 30
0.0
 11
46.47345513237852
 21
-33.98933037651901
 31
0.0
  0
LINE
  5
2CE
330
1F
100
AcDbEntity
  8
0
100
AcDbLine
 10
-46.47345513237852
 20
-33.98933037651901
 30
0.0
 11
-2.999999999999995
 21
-33.98933037651901
 31
0.0
  0
LINE
  5
2CF
330
1F
100
AcDbEntity
  8
0
100
AcDbLine
 10
2.999999999999995
 20
-39.98933037651901
 30
0.0
 11
46.47345513237852
 21
-39.98933037651901
 31
0.0
  0
LINE
  5
2D0
330
1F
100
AcDbEntity
  8
0
100
AcDbLine
 10
27.73672756618925
 20
-36.98933037651901
 30
0.0
 11
52.4734551323785
 21
-36.98933037651901
 31
0.0
  0
LINE
  5
2D1
330
1F
100
AcDbEntity
  8
0
100
AcDbLine
 10
-52.44875398262589
 20
-42.989330376519
 30
0.0
 11
-27.73560471505849
 21
-42.989330376519
 31
0.0
  0
LINE
  5
2D2
330
1F
100
AcDbEntity
  8
0
100
AcDbLine
 10
-52.44875398262589
 20
-36.98933037651901
 30
0.0
 11
-27.73560471505849
 21
-36.98933037651901
 31
0.0
  0
LINE
  5
2D3
330
1F
100
AcDbEntity
  8
0
100
AcDbLine
 10
-21.73560376866543
 20
-36.98933037651901
 30
0.0
 11
21.73672756618926
 21
-36.98933037651901
 31
0.0
  0
LINE
  5
2D4
330
1F
100
AcDbEntity
  8
0
100
AcDbLine
 10
-52.44875398262589
 20
-30.98933037651902
 30
0.0
 11
-52.44875398262589
 21
-36.98933037651901
 31
0.0
  0
LINE
  5
2D5
330
1F
100
AcDbEntity
  8
0
100
AcDbLine
 10
-52.44875398262589
 20
-24.98933037651904
 30
0.0
 11
-52.44875398262589
 21
-30.98933037651902
 31
0.0
  0
LINE
  5
2D6
330
1F
100
AcDbEntity
  8
0
100
AcDbLine
 10
52.4734551323785
 20
-30.98933037651902
 30
0.0
 11
52.4734551323785
 21
-36.98933037651901
 31
0.0
  0
LINE
  5
2D7
330
1F
100
AcDbEntity
  8
0
100
AcDbLine
 10
52.4734551323785
 20
-24.98933037651904
 30
0.0
 11
52.4734551323785
 21
-30.98933037651902
 31
0.0
  0
LINE
  5
2D8
330
1F
100
AcDbEntity
  8
0
100
AcDbLine
 10
-52.44875398262589
 20
-42.989330376519
 30
0.0
 11
-52.44875398262589
 21
-48.98933037651899
 31
0.0
  0
LINE
  5
2D9
330
1F
100
AcDbEntity
  8
0
100
AcDbLine
 10
-52.44875398262589
 20
-36.98933037651901
 30
0.0
 11
-52.44875398262589
 21
-42.989330376519
 31
0.0
  0
LINE
  5
2DA
330
1F
100
AcDbEntity
  8
0
100
AcDbLine
 10
52.4734551323785
 20
-42.989330376519
 30
0.0
 11
52.4734551323785
 21
-48.98933037651899
 31
0.0
  0
LINE
  5
2DB
330
1F
100
AcDbEntity
  8
0
100
AcDbLine
 10
52.4734551323785
 20
-36.98933037651901
 30
0.0
 11
52.4734551323785
 21
-42.989330376519
 31
0.0
  0
LINE
  5
2DC
330
1F
100
AcDbEntity
  8
0
100
AcDbLine
 10
-46.47345513237852
 20
-63.98933037651896
 30
0.0
 11
-2.999999999999995
 21
-63.98933037651896
 31
0.0
  0
LINE
  5
2DD
330
1F
100
AcDbEntity
  8
0
100
AcDbLine
 10
-21.73560376866543
 20
-48.98933037651899
 30
0.0
 11
21.73672756618926
 21
-48.98933037651899
 31
0.0
  0
LINE
  5
2DE
330
1F
100
AcDbEntity
  8
0
100
AcDbLine
 10
-52.44875398262589
 20
-48.98933037651899
 30
0.0
 11
-27.73560471505849
 21
-48.98933037651899
 31
0.0
  0
LINE
  5
2DF
330
1F
100
AcDbEntity
  8
0
100
AcDbLine
 10
27.73672756618925
 20
-54.98933037651898
 30
0.0
 11
52.4734551323785
 21
-54.98933037651898
 31
0.0
  0
LINE
  5
2E0
330
1F
100
AcDbEntity
  8
0
100
AcDbLine
 10
-52.44875398262589
 20
-54.98933037651898
 30
0.0
 11
-27.73560471505849
 21
-54.98933037651898
 31
0.0
  0
LINE
  5
2E1
330
1F
100
AcDbEntity
  8
0
100
AcDbLine
 10
-21.73560376866543
 20
-66.98933037651895
 30
0.0
 11
21.73672756618926
 21
-66.98933037651895
 31
0.0
  0
LINE
  5
2E2
330
1F
100
AcDbEntity
  8
0
100
AcDbLine
 10
27.73672756618925
 20
-66.98933037651895
 30
0.0
 11
52.4734551323785
 21
-66.98933037651895
 31
0.0
  0
LINE
  5
2E3
330
1F
100
AcDbEntity
  8
0
100
AcDbLine
 10
27.73672756618925
 20
-48.98933037651899
 30
0.0
 11
52.4734551323785
 21
-48.98933037651899
 31
0.0
  0
LINE
  5
2E4
330
1F
100
AcDbEntity
  8
0
100
AcDbLine
 10
-46.47345513237852
 20
-45.98933037651899
 30
0.0
 11
-2.999999999999995
 21
-45.98933037651899
 31
0.0
  0
LINE
  5
2E5
330
1F
100
AcDbEntity
  8
0
100
AcDbLine
 10
2.999999999999995
 20
-51.98933037651899
 30
0.0
 11
46.47345513237852
 21
-51.98933037651899
 31
0.0
  0
LINE
  5
2E6
330
1F
100
AcDbEntity
  8
0
100
AcDbLine
 10
2.999999999999995
 20
-45.98933037651899
 30
0.0
 11
46.47345513237852
 21
-45.98933037651899
 31
0.0
  0
LINE
  5
2E7
330
1F
100
AcDbEntity
  8
0
100
AcDbLine
 10
-21.73560376866543
 20
-54.98933037651898
 30
0.0
 11
21.73672756618926
 21
-54.98933037651898
 31
0.0
  0
LINE
  5
2E8
330
1F
100
AcDbEntity
  8
0
100
AcDbLine
 10
-46.47345513237852
 20
-51.98933037651899
 30
0.0
 11
-2.999999999999995
 21
-51.98933037651899
 31
0.0
  0
LINE
  5
2E9
330
1F
100
AcDbEntity
  8
0
100
AcDbLine
 10
-46.47345513237852
 20
-57.98933037651897
 30
0.0
 11
-2.999999999999995
 21
-57.98933037651897
 31
0.0
  0
LINE
  5
2EA
330
1F
100
AcDbEntity
  8
0
100
AcDbLine
 10
-21.73560376866543
 20
-60.98933037651896
 30
0.0
 11
21.73672756618926
 21
-60.98933037651896
 31
0.0
  0
LINE
  5
2EB
330
1F
100
AcDbEntity
  8
0
100
AcDbLine
 10
27.73672756618925
 20
-60.98933037651896
 30
0.0
 11
52.4734551323785
 21
-60.98933037651896
 31
0.0
  0
LINE
  5
2EC
330
1F
100
AcDbEntity
  8
0
100
AcDbLine
 10
2.999999999999995
 20
-63.98933037651896
 30
0.0
 11
46.47345513237852
 21
-63.98933037651896
 31
0.0
  0
LINE
  5
2ED
330
1F
100
AcDbEntity
  8
0
100
AcDbLine
 10
-52.44875398262589
 20
-66.98933037651895
 30
0.0
 11
-27.73560471505849
 21
-66.98933037651895
 31
0.0
  0
LINE
  5
2EE
330
1F
100
AcDbEntity
  8
0
100
AcDbLine
 10
-52.44875398262589
 20
-60.98933037651896
 30
0.0
 11
-27.73560471505849
 21
-60.98933037651896
 31
0.0
  0
LINE
  5
2EF
330
1F
100
AcDbEntity
  8
0
100
AcDbLine
 10
2.999999999999995
 20
-57.98933037651897
 30
0.0
 11
46.47345513237852
 21
-57.98933037651897
 31
0.0
  0
LINE
  5
2F0
330
1F
100
AcDbEntity
  8
0
100
AcDbLine
 10
-52.44875398262589
 20
-66.98933037651895
 30
0.0
 11
-52.44875398262589
 21
-72.98933037651895
 31
0.0
  0
LINE
  5
2F1
330
1F
100
AcDbEntity
  8
0
100
AcDbLine
 10
-52.44875398262589
 20
-48.98933037651899
 30
0.0
 11
-52.44875398262589
 21
-54.98933037651898
 31
0.0
  0
LINE
  5
2F2
330
1F
100
AcDbEntity
  8
0
100
AcDbLine
 10
52.4734551323785
 20
-54.98933037651898
 30
0.0
 11
52.4734551323785
 21
-60.98933037651896
 31
0.0
  0
LINE
  5
2F3
330
1F
100
AcDbEntity
  8
0
100
AcDbLine
 10
52.4734551323785
 20
-48.98933037651899
 30
0.0
 11
52.4734551323785
 21
-54.98933037651898
 31
0.0
  0
LINE
  5
2F4
330
1F
100
AcDbEntity
  8
0
100
AcDbLine
 10
-52.44875398262589
 20
-54.98933037651898
 30
0.0
 11
-52.44875398262589
 21
-60.98933037651896
 31
0.0
  0
LINE
  5
2F5
330
1F
100
AcDbEntity
  8
0
100
AcDbLine
 10
52.4734551323785
 20
-66.98933037651895
 30
0.0
 11
52.4734551323785
 21
-72.98933037651895
 31
0.0
  0
LINE
  5
2F6
330
1F
100
AcDbEntity
  8
0
100
AcDbLine
 10
52.4734551323785
 20
-60.98933037651896
 30
0.0
 11
52.4734551323785
 21
-66.98933037651895
 31
0.0
  0
LINE
  5
2F7
330
1F
100
AcDbEntity
  8
0
100
AcDbLine
 10
-52.44875398262589
 20
-60.98933037651896
 30
0.0
 11
-52.44875398262589
 21
-66.98933037651895
 31
0.0
  0
LINE
  5
2F8
330
1F
100
AcDbEntity
  8
0
100
AcDbLine
 10
27.73672756618925
 20
-72.98933037651895
 30
0.0
 11
52.4734551323785
 21
-72.98933037651895
 31
0.0
  0
LINE
  5
2F9
330
1F
100
AcDbEntity
  8
0
100
AcDbLine
 10
-21.73560376866543
 20
-72.98933037651895
 30
0.0
 11
21.73672756618926
 21
-72.98933037651895
 31
0.0
  0
LINE
  5
2FA
330
1F
100
AcDbEntity
  8
0
100
AcDbLine
 10
-46.47345513237852
 20
-69.98933037651895
 30
0.0
 11
-2.999999999999995
 21
-69.98933037651895
 31
0.0
  0
LINE
  5
2FB
330
1F
100
AcDbEntity
  8
0
100
AcDbLine
 10
2.999999999999995
 20
-69.98933037651895
 30
0.0
 11
46.47345513237852
 21
-69.98933037651895
 31
0.0
  0
LINE
  5
2FC
330
1F
100
AcDbEntity
  8
0
100
AcDbLine
 10
-52.44875398262589
 20
-72.98933037651895
 30
0.0
 11
-27.73560471505849
 21
-72.98933037651895
 31
0.0
  0
LINE
  5
2FD
330
1F
100
AcDbEntity
  8
0
100
AcDbLine
 10
-52.44875398262589
 20
-72.98933037651895
 30
0.0
 11
-52.44875398262589
 21
-73.98933037651895
 31
0.0
  0
LINE
  5
2FE
330
1F
100
AcDbEntity
  8
0
100
AcDbLine
 10
52.4734551323785
 20
-72.98933037651895
 30
0.0
 11
52.4734551323785
 21
-73.98933037651895
 31
0.0
  0
ENDSEC
  0
SECTION
  2
OBJECTS
  0
DICTIONARY
  5
C
330
0
100
AcDbDictionary
  3
ACAD_GROUP
350
D
  3
ACAD_LAYOUT
350
1A
  3
ACAD_MATERIAL
350
43
  3
ACAD_MLEADERSTYLE
350
321
  3
ACAD_MLINESTYLE
350
17
  3
ACAD_PLOTSETTINGS
350
19
  3
ACAD_SCALELIST
350
47
  3
ACAD_VISUALSTYLE
350
2A
  3
ACDBHEADERROUNDTRIPXREC
350
2FF
  3
ACDBVARIABLEDICTIONARY
350
31F
  0
DICTIONARY
  5
326
330
8
100
AcDbDictionary
280
     1
  3
ACAD_XREC_ROUNDTRIP
360
327
  0
DICTIONARY
  5
D
102
{ACAD_REACTORS
330
C
102
}
330
C
100
AcDbDictionary
  0
DICTIONARY
  5
1A
102
{ACAD_REACTORS
330
C
102
}
330
C
100
AcDbDictionary
  0
DICTIONARY
  5
43
102
{ACAD_REACTORS
330
C
102
}
330
C
100
AcDbDictionary
  3
BYBLOCK
350
45
  3
BYLAYER
350
44
  3
GLOBAL
350
46
  0
DICTIONARY
  5
321
102
{ACAD_REACTORS
330
C
102
}
330
C
100
AcDbDictionary
  0
DICTIONARY
  5
17
102
{ACAD_REACTORS
330
C
102
}
330
C
100
AcDbDictionary
  3
STANDARD
350
18
  0
DICTIONARY
  5
19
102
{ACAD_REACTORS
330
C
102
}
330
C
100
AcDbDictionary
  0
DICTIONARY
  5
47
102
{ACAD_REACTORS
330
C
102
}
330
C
100
AcDbDictionary
  3
A0
350
48
  3
A1
350
49
  3
A2
350
4A
  3
A3
350
4B
  3
A4
350
4C
  3
A5
350
4D
  3
A6
350
4E
  3
A7
350
4F
  3
A8
350
50
  3
A9
350
51
  3
B0
350
52
  3
B1
350
53
  3
B2
350
54
  3
B3
350
55
  3
B4
350
56
  3
B5
350
57
  3
B6
350
58
  3
B7
350
59
  3
B8
350
5A
  3
B9
350
5B
  3
C0
350
5C
  3
C1
350
5D
  3
C2
350
5E
  3
C3
350
5F
  3
C4
350
60
  3
C5
350
61
  3
C6
350
62
  3
C7
350
63
  3
C8
350
64
  3
C9
350
65
  3
D0
350
66
  3
D1
350
67
  3
D2
350
68
  0
DICTIONARY
  5
2A
102
{ACAD_REACTORS
330
C
102
}
330
C
100
AcDbDictionary
  3
2DWIREFRAME
350
2F
  3
BASIC
350
32
  3
BRIGHTEN
350
36
  3
COLORCHANGE
350
3A
  3
CONCEPTUAL
350
34
  3
DIM
350
35
  3
EDGECOLOROFF
350
3D
  3
FACEPATTERN
350
39
  3
FLAT
350
2B
  3
FLATWITHEDGES
350
2C
  3
GOURAUD
350
2D
  3
GOURAUDWITHEDGES
350
2E
  3
HIDDEN
350
31
  3
JITTEROFF
350
3B
  3
LINEPATTERN
350
38
  3
OVERHANGOFF
350
3C
  3
REALISTIC
350
33
  3
SHADED
350
42
  3
SHADED_WITH_EDGES
350
41
  3
SHADES_OF_GRAY
350
3E
  3
SKETCHY
350
3F
  3
THICKEN
350
37
  3
WIREFRAME
350
30
  3
X-RAY
350
40
  0
DICTIONARY
  5
2FF
102
{ACAD_REACTORS
330
C
102
}
330
C
100
AcDbDictionary
  3
CEPSNTYPE
350
308
  3
DIMSTYLEDATA
350
31E
  3
FINGERPRINTGUID
350
309
  3
HYPERLINKBASE
350
302
  3
INSUNITS
350
307
  3
LAYOUTDICT
350
304
  3
LWETCUNION
350
306
  3
PLOTSETDICT
350
305
  3
PSVPSCALE
350
30B
  3
PUCSBASE
350
30E
  3
PUCSORGBACK
350
314
  3
PUCSORGBOTTOM
350
310
  3
PUCSORGFRONT
350
313
  3
PUCSORGLEFT
350
311
  3
PUCSORGRIGHT
350
312
  3
PUCSORGTOP
350
30F
  3
PUCSORTHOREF
350
30C
  3
PUCSORTHOVIEW
350
30D
  3
STYLESHEET
350
303
  3
TSTACKALIGN
350
300
  3
TSTACKSIZE
350
301
  3
UCSBASE
350
317
  3
UCSORGBACK
350
31D
  3
UCSORGBOTTOM
350
319
  3
UCSORGFRONT
350
31C
  3
UCSORGLEFT
350
31A
  3
UCSORGRIGHT
350
31B
  3
UCSORGTOP
350
318
  3
UCSORTHOREF
350
315
  3
UCSORTHOVIEW
350
316
  3
VERSIONGUID
350
30A
  0
DICTIONARY
  5
31F
102
{ACAD_REACTORS
330
C
102
}
330
C
100
AcDbDictionary
  3
CANNOSCALE
350
328
  3
DIMASSOC
350
324
  3
HIDETEXT
350
325
  3
MSLTSCALE
350
329
  0
XRECORD
  5
327
102
{ACAD_REACTORS
330
326
102
}
330
326
100
AcDbXrecord
102
VTR_0.000_0.000_1.000_1.000_GRIDDISPLAY
 70
     3
102
VTR_0.000_0.000_1.000_1.000_GRIDMAJOR
 70
     5
102
VTR_0.000_0.000_1.000_1.000_DEFAULTLIGHTING
280
     1
102
VTR_0.000_0.000_1.000_1.000_DEFAULTLIGHTINGTYPE
 70
     1
102
VTR_0.000_0.000_1.000_1.000_BRIGHTNESS
141
0.0
102
VTR_0.000_0.000_1.000_1.000_CONTRAST
142
0.0
  0
MATERIAL
  5
45
102
{ACAD_REACTORS
330
43
102
}
102
{ACAD_XDICTIONARY
360
32C
102
}
330
43
100
AcDbMaterial
  1
BYBLOCK
  0
MATERIAL
  5
44
102
{ACAD_REACTORS
330
43
102
}
102
{ACAD_XDICTIONARY
360
32A
102
}
330
43
100
AcDbMaterial
  1
BYLAYER
  0
MATERIAL
  5
46
102
{ACAD_REACTORS
330
43
102
}
102
{ACAD_XDICTIONARY
360
32E
102
}
330
43
100
AcDbMaterial
  1
GLOBAL
  0
MLINESTYLE
  5
18
102
{ACAD_REACTORS
330
17
102
}
330
17
100
AcDbMlineStyle
  2
Standard
 70
     0
  3

 62
   256
 51
90.0
 52
90.0
 71
     2
 49
0.5
 62
   256
  6
BYLAYER
 49
-0.5
 62
   256
  6
BYLAYER
  0
ACAD_PROXY_OBJECT
  5
48
102
{ACAD_REACTORS
330
47
102
}
330
47
100
AcDbProxyObject
 90
      499
 91
      503
 93
       41
310
903313A31580
  0
ACAD_PROXY_OBJECT
  5
49
102
{ACAD_REACTORS
330
47
102
}
330
47
100
AcDbProxyObject
 90
      499
 91
      503
 93
      105
310
903313A324000000000000004000
  0
ACAD_PROXY_OBJECT
  5
4A
102
{ACAD_REACTORS
330
47
102
}
330
47
100
AcDbProxyObject
 90
      499
 91
      503
 93
      105
310
903313A344000000000000104000
  0
ACAD_PROXY_OBJECT
  5
4B
102
{ACAD_REACTORS
330
47
102
}
330
47
100
AcDbProxyObject
 90
      499
 91
      503
 93
      105
310
903313A354000000000000144000
  0
ACAD_PROXY_OBJECT
  5
4C
102
{ACAD_REACTORS
330
47
102
}
330
47
100
AcDbProxyObject
 90
      499
 91
      503
 93
      105
310
903313A384000000000000204000
  0
ACAD_PROXY_OBJECT
  5
4D
102
{ACAD_REACTORS
330
47
102
}
330
47
100
AcDbProxyObject
 90
      499
 91
      503
 93
      113
310
904313A31304000000000000244000
  0
ACAD_PROXY_OBJECT
  5
4E
102
{ACAD_REACTORS
330
47
102
}
330
47
100
AcDbProxyObject
 90
      499
 91
      503
 93
      113
310
904313A31364000000000000304000
  0
ACAD_PROXY_OBJECT
  5
4F
102
{ACAD_REACTORS
330
47
102
}
330
47
100
AcDbProxyObject
 90
      499
 91
      503
 93
      113
310
904313A32304000000000000344000
  0
ACAD_PROXY_OBJECT
  5
50
102
{ACAD_REACTORS
330
47
102
}
330
47
100
AcDbProxyObject
 90
      499
 91
      503
 93
      113
310
904313A333040000000000003E4000
  0
ACAD_PROXY_OBJECT
  5
51
102
{ACAD_REACTORS
330
47
102
}
330
47
100
AcDbProxyObject
 90
      499
 91
      503
 93
      113
310
904313A34304000000000000444000
  0
ACAD_PROXY_OBJECT
  5
52
102
{ACAD_REACTORS
330
47
102
}
330
47
100
AcDbProxyObject
 90
      499
 91
      503
 93
      113
310
904313A35304000000000000494000
  0
ACAD_PROXY_OBJECT
  5
53
102
{ACAD_REACTORS
330
47
102
}
330
47
100
AcDbProxyObject
 90
      499
 91
      503
 93
      121
310
905313A3130304000000000000594000
  0
ACAD_PROXY_OBJECT
  5
54
102
{ACAD_REACTORS
330
47
102
}
330
47
100
AcDbProxyObject
 90
      499
 91
      503
 93
      105
310
903323A310000000000000010100
  0
ACAD_PROXY_OBJECT
  5
55
102
{ACAD_REACTORS
330
47
102
}
330
47
100
AcDbProxyObject
 90
      499
 91
      503
 93
      105
310
903343A310000000000000410100
  0
ACAD_PROXY_OBJECT
  5
56
102
{ACAD_REACTORS
330
47
102
}
330
47
100
AcDbProxyObject
 90
      499
 91
      503
 93
      105
310
903383A310000000000000810100
  0
ACAD_PROXY_OBJECT
  5
57
102
{ACAD_REACTORS
330
47
102
}
330
47
100
AcDbProxyObject
 90
      499
 91
      503
 93
      113
310
90431303A310000000000000910100
  0
ACAD_PROXY_OBJECT
  5
58
102
{ACAD_REACTORS
330
47
102
}
330
47
100
AcDbProxyObject
 90
      499
 91
      503
 93
      121
310
9053130303A310000000000001650100
  0
ACAD_PROXY_OBJECT
  5
59
102
{ACAD_REACTORS
330
47
102
}
330
47
100
AcDbProxyObject
 90
      499
 91
      503
 93
      257
310
90E312F31323822203D2031272D3022000000000000200FC000000000000284000
  0
ACAD_PROXY_OBJECT
  5
5A
102
{ACAD_REACTORS
330
47
102
}
330
47
100
AcDbProxyObject
 90
      499
 91
      503
 93
      249
310
90D312F363422203D2031272D3022000000000000240FC000000000000284000
  0
ACAD_PROXY_OBJECT
  5
5B
102
{ACAD_REACTORS
330
47
102
}
330
47
100
AcDbProxyObject
 90
      499
 91
      503
 93
      249
310
90D312F333222203D2031272D3022000000000000280FC000000000000284000
  0
ACAD_PROXY_OBJECT
  5
5C
102
{ACAD_REACTORS
330
47
102
}
330
47
100
AcDbProxyObject
 90
      499
 91
      503
 93
      249
310
90D312F313622203D2031272D30220000000000002C0FC000000000000284000
  0
ACAD_PROXY_OBJECT
  5
5D
102
{ACAD_REACTORS
330
47
102
}
330
47
100
AcDbProxyObject
 90
      499
 91
      503
 93
      249
310
90D332F333222203D2031272D30220000000000002E0FC000000000000284000
  0
ACAD_PROXY_OBJECT
  5
5E
102
{ACAD_REACTORS
330
47
102
}
330
47
100
AcDbProxyObject
 90
      499
 91
      503
 93
      241
310
90C312F3822203D2031272D3022000000000000300FC000000000000284000
  0
ACAD_PROXY_OBJECT
  5
5F
102
{ACAD_REACTORS
330
47
102
}
330
47
100
AcDbProxyObject
 90
      499
 91
      503
 93
      249
310
90D332F313622203D2031272D3022000000000000320FC000000000000284000
  0
ACAD_PROXY_OBJECT
  5
60
102
{ACAD_REACTORS
330
47
102
}
330
47
100
AcDbProxyObject
 90
      499
 91
      503
 93
      241
310
90C312F3422203D2031272D3022000000000000340FC000000000000284000
  0
ACAD_PROXY_OBJECT
  5
61
102
{ACAD_REACTORS
330
47
102
}
330
47
100
AcDbProxyObject
 90
      499
 91
      503
 93
      241
310
90C332F3822203D2031272D3022000000000000360FC000000000000284000
  0
ACAD_PROXY_OBJECT
  5
62
102
{ACAD_REACTORS
330
47
102
}
330
47
100
AcDbProxyObject
 90
      499
 91
      503
 93
      241
310
90C312F3222203D2031272D3022000000000000380FC000000000000284000
  0
ACAD_PROXY_OBJECT
  5
63
102
{ACAD_REACTORS
330
47
102
}
330
47
100
AcDbProxyObject
 90
      499
 91
      503
 93
      241
310
90C332F3422203D2031272D30220000000000003A0FC000000000000284000
  0
ACAD_PROXY_OBJECT
  5
64
102
{ACAD_REACTORS
330
47
102
}
330
47
100
AcDbProxyObject
 90
      499
 91
      503
 93
      161
310
90A3122203D2031272D30224000000000000284000
  0
ACAD_PROXY_OBJECT
  5
65
102
{ACAD_REACTORS
330
47
102
}
330
47
100
AcDbProxyObject
 90
      499
 91
      503
 93
      257
310
90E312D312F3222203D2031272D30220000000000003E0FC000000000000284000
  0
ACAD_PROXY_OBJECT
  5
66
102
{ACAD_REACTORS
330
47
102
}
330
47
100
AcDbProxyObject
 90
      499
 91
      503
 93
      225
310
90A3322203D2031272D302200000000000002100000000000000284000
  0
ACAD_PROXY_OBJECT
  5
67
102
{ACAD_REACTORS
330
47
102
}
330
47
100
AcDbProxyObject
 90
      499
 91
      503
 93
      225
310
90A3622203D2031272D302200000000000006100000000000000284000
  0
ACAD_PROXY_OBJECT
  5
68
102
{ACAD_REACTORS
330
47
102
}
330
47
100
AcDbProxyObject
 90
      499
 91
      503
 93
      249
310
90D31272D3022203D2031272D30220000000000000A100000000000000284000
  0
ACAD_PROXY_OBJECT
  5
2F
102
{ACAD_REACTORS
330
2A
102
}
330
2A
100
AcDbProxyObject
 90
      499
 91
      501
 93
      436
310
42CC9915DA5C99599C985B595049028333333333333E33F0000000000000F90107901411070040501600405405064090741402480A0340
1001
ACAD
1000
AcDbSavedByObjectVersion
1070
     0
  0
ACAD_PROXY_OBJECT
  5
32
102
{ACAD_REACTORS
330
2A
102
}
330
2A
100
AcDbProxyObject
 90
      499
 91
      501
 93
      388
310
4150985CDA58D07406404333333333333E33F0000000000000F90107A41107004050150841D405064090741402480A0350
1001
ACAD
1000
AcDbSavedByObjectVersion
1070
     0
  0
ACAD_PROXY_OBJECT
  5
36
102
{ACAD_REACTORS
330
2A
102
}
330
2A
100
AcDbProxyObject
 90
      499
 91
      501
 93
      428
310
42109C9A59DA1D195B90C409028333333333333E33F0000000000000F9010790141107004050150841D405064090741402480A029950
1001
ACAD
1000
AcDbSavedByObjectVersion
1070
     0
  0
ACAD_PROXY_OBJECT
  5
3A
102
{ACAD_REACTORS
330
2A
102
}
330
2A
100
AcDbProxyObject
 90
      499
 91
      501
 93
      452
310
42D0DBDB1BDC90DA185B99D95104090240C333333333333E33F0000000000000F90108901411070040501508421405064090741402480A0350
1001
ACAD
1000
AcDbSavedByObjectVersion
1070
     0
  0
ACAD_PROXY_OBJECT
  5
34
102
{ACAD_REACTORS
330
2A
102
}
330
2A
100
AcDbProxyObject
 90
      499
 91
      501
 93
      500
310
4290DBDB98D95C1D1D585B10940D028333333333333E33F0000000000000F90107902409070040501000000000018199010841D405064090740C02480A0340
1001
ACAD
1000
AcDbSavedByObjectVersion
1070
     0
  0
ACAD_PROXY_OBJECT
  5
35
102
{ACAD_REACTORS
330
2A
102
}
330
2A
100
AcDbProxyObject
 90
      499
 91
      501
 93
      412
310
40D11A5B50B409028333333333333E33F0000000000000F9010790141107004050150841D405064090741402480A02677FFFFFD0
1001
ACAD
1000
AcDbSavedByObjectVersion
1070
     0
  0
ACAD_PROXY_OBJECT
  5
3D
102
{ACAD_REACTORS
330
2A
102
}
330
2A
100
AcDbProxyObject
 90
      499
 91
      501
 93
      452
310
43115919D950DBDB1BDC93D999916409028333333333333E33F0000000000000F9010790141107004050150841D405064090741402480A0350
1001
ACAD
1000
AcDbSavedByObjectVersion
1070
     0
  0
ACAD_PROXY_OBJECT
  5
39
102
{ACAD_REACTORS
330
2A
102
}
330
2A
100
AcDbProxyObject
 90
      499
 91
      501
 93
      444
310
42D19858D95C185D1D195C9B90F409028333333333333E33F0000000000000F9010790141107004050150841D405064090741402480A0350
1001
ACAD
1000
AcDbSavedByObjectVersion
1070
     0
  0
ACAD_PROXY_OBJECT
  5
2B
102
{ACAD_REACTORS
330
2A
102
}
330
2A
100
AcDbProxyObject
 90
      499
 91
      501
 93
      380
310
41119B185D240901404333333333333E33F0000000000000F9010740A907004050150841D405064090741402480A1B50
1001
ACAD
1000
AcDbSavedByObjectVersion
1070
     0
  0
ACAD_PROXY_OBJECT
  5
2C
102
{ACAD_REACTORS
330
2A
102
}
330
2A
100
AcDbProxyObject
 90
      499
 91
      501
 93
      468
310
43519B185D15DA5D1A115919D95CD0140901404333333333333E33F0000000000000F90107409019070040501600405405064090741402480A1B50
1001
ACAD
1000
AcDbSavedByObjectVersion
1070
     0
  0
ACAD_PROXY_OBJECT
  5
2D
102
{ACAD_REACTORS
330
2A
102
}
330
2A
100
AcDbProxyObject
 90
      499
 91
      501
 93
      404
310
41D1DBDD5C985D5910240902404333333333333E33F0000000000000F9010740A9070040501641D405064090741402480A1B50
1001
ACAD
1000
AcDbSavedByObjectVersion
1070
     0
  0
ACAD_PROXY_OBJECT
  5
2E
102
{ACAD_REACTORS
330
2A
102
}
330
2A
100
AcDbProxyObject
 90
      499
 91
      501
 93
      492
310
4411DBDD5C985D5915DA5D1A115919D95CD0340902404333333333333E33F0000000000000F90107409019070040501600405405064090741402480A1B50
1001
ACAD
1000
AcDbSavedByObjectVersion
1070
     0
  0
ACAD_PROXY_OBJECT
  5
31
102
{ACAD_REACTORS
330
2A
102
}
330
2A
100
AcDbProxyObject
 90
      499
 91
      501
 93
      476
310
41921A5919195B90640502408333333333333E33F0000000000000F901079024090700405020000000000001110200405405064090740C02480A0340
1001
ACAD
1000
AcDbSavedByObjectVersion
1070
     0
  0
ACAD_PROXY_OBJECT
  5
3B
102
{ACAD_REACTORS
330
2A
102
}
330
2A
100
AcDbProxyObject
 90
      499
 91
      501
 93
      428
310
42529A5D1D195C93D999914409028333333333333E33F0000000000000F9010790141107004050150A41D405064090741402480A0350
1001
ACAD
1000
AcDbSavedByObjectVersion
1070
     0
  0
ACAD_PROXY_OBJECT
  5
38
102
{ACAD_REACTORS
330
2A
102
}
330
2A
100
AcDbProxyObject
 90
      499
 91
      501
 93
      444
310
42D31A5B995C185D1D195C9B90E409028333333333333E33F0000000000000F9010790141107004050750841D405064090741402483A0350
1001
ACAD
1000
AcDbSavedByObjectVersion
1070
     0
  0
ACAD_PROXY_OBJECT
  5
3C
102
{ACAD_REACTORS
330
2A
102
}
330
2A
100
AcDbProxyObject
 90
      499
 91
      501
 93
      444
310
42D3DD995C9A185B99D3D999915409028333333333333E33F0000000000000F9010790141107004050150941D405064090741402480A0350
1001
ACAD
1000
AcDbSavedByObjectVersion
1070
     0
  0
ACAD_PROXY_OBJECT
  5
33
102
{ACAD_REACTORS
330
2A
102
}
330
2A
100
AcDbProxyObject
 90
      499
 91
      501
 93
      428
310
425499585B1A5CDD1A58D08409038333333333333E33F0000000000000F9010740A907004050150800405405064090740C02480A1B40
1001
ACAD
1000
AcDbSavedByObjectVersion
1070
     0
  0
ACAD_PROXY_OBJECT
  5
42
102
{ACAD_REACTORS
330
2A
102
}
330
2A
100
AcDbProxyObject
 90
      499
 91
      501
 93
      420
310
4194DA1859195911B40902404333333333333E33F0000000000000F9010740A41107004050150800405405064090840C02480A0B40
1001
ACAD
1000
AcDbSavedByObjectVersion
1070
     0
  0
ACAD_PROXY_OBJECT
  5
41
102
{ACAD_REACTORS
330
2A
102
}
330
2A
100
AcDbProxyObject
 90
      499
 91
      501
 93
      516
310
4454DA18591959081DDA5D1A08195919D95CD1A40902404333333333333E33F0000000000000F901074090142907004050250800405405064090740C02480A0B40
1001
ACAD
1000
AcDbSavedByObjectVersion
1070
     0
  0
ACAD_PROXY_OBJECT
  5
3E
102
{ACAD_REACTORS
330
2A
102
}
330
2A
100
AcDbProxyObject
 90
      499
 91
      501
 93
      532
310
4394DA1859195CC81BD98811DC985E5174090240C333333333333E33F0000000000000F901079024090741D01000000000000111010841D405064090740C02480A0340
1001
ACAD
1000
AcDbSavedByObjectVersion
1070
     0
  0
ACAD_PROXY_OBJECT
  5
3F
102
{ACAD_REACTORS
330
2A
102
}
330
2A
100
AcDbProxyObject
 90
      499
 91
      501
 93
      476
310
41D4DAD95D18DA1E51840502408333333333333E33F0000000000000F901079024090741D01000000000000111010B41D405064090741802480A0340
1001
ACAD
1000
AcDbSavedByObjectVersion
1070
     0
  0
ACAD_PROXY_OBJECT
  5
37
102
{ACAD_REACTORS
330
2A
102
}
330
2A
100
AcDbProxyObject
 90
      499
 91
      501
 93
      412
310
41D51A1A58DAD95B90D409028333333333333E33F0000000000000F9010790141107004050150C41D405064090741402480A0350
1001
ACAD
1000
AcDbSavedByObjectVersion
1070
     0
  0
ACAD_PROXY_OBJECT
  5
30
102
{ACAD_REACTORS
330
2A
102
}
330
2A
100
AcDbProxyObject
 90
      499
 91
      501
 93
      420
310
4255DA5C99599C985B595059028333333333333E33F0000000000000F90107901411070040501600405405064090740C02480A0340
1001
ACAD
1000
AcDbSavedByObjectVersion
1070
     0
  0
ACAD_PROXY_OBJECT
  5
40
102
{ACAD_REACTORS
330
2A
102
}
330
2A
100
AcDbProxyObject
 90
      499
 91
      501
 93
      404
310
41560B54985E51940902404000000000000E03F0000000000000F9010740501907004050150841D405064090740C02480A1B40
1001
ACAD
1000
AcDbSavedByObjectVersion
1070
     0
  0
XRECORD
  5
308
102
{ACAD_REACTORS
330
2FF
102
}
330
2FF
100
AcDbXrecord
 90
        0
  0
XRECORD
  5
31E
102
{ACAD_REACTORS
330
2FF
102
}
330
2FF
100
AcDbXrecord
1000
DSTYLE
1002
{
1070
   340
340
11
1002
}
  0
XRECORD
  5
309
102
{ACAD_REACTORS
330
2FF
102
}
330
2FF
100
AcDbXrecord
  1
{47E96AD3-D31E-4182-A0EA-8B90313DD8B1}
  0
XRECORD
  5
302
102
{ACAD_REACTORS
330
2FF
102
}
330
2FF
100
AcDbXrecord
  1

  0
XRECORD
  5
307
102
{ACAD_REACTORS
330
2FF
102
}
330
2FF
100
AcDbXrecord
 90
        1
  0
XRECORD
  5
304
102
{ACAD_REACTORS
330
2FF
102
}
330
2FF
100
AcDbXrecord
340
1A
  0
XRECORD
  5
306
102
{ACAD_REACTORS
330
2FF
102
}
330
2FF
100
AcDbXrecord
 90
    10781
  0
XRECORD
  5
305
102
{ACAD_REACTORS
330
2FF
102
}
330
2FF
100
AcDbXrecord
340
19
  0
XRECORD
  5
30B
102
{ACAD_REACTORS
330
2FF
102
}
330
2FF
100
AcDbXrecord
 40
0.0
  0
XRECORD
  5
30E
102
{ACAD_REACTORS
330
2FF
102
}
330
2FF
100
AcDbXrecord
340
0
  0
XRECORD
  5
314
102
{ACAD_REACTORS
330
2FF
102
}
330
2FF
100
AcDbXrecord
 10
0.0
 20
0.0
 30
0.0
  0
XRECORD
  5
310
102
{ACAD_REACTORS
330
2FF
102
}
330
2FF
100
AcDbXrecord
 10
0.0
 20
0.0
 30
0.0
  0
XRECORD
  5
313
102
{ACAD_REACTORS
330
2FF
102
}
330
2FF
100
AcDbXrecord
 10
0.0
 20
0.0
 30
0.0
  0
XRECORD
  5
311
102
{ACAD_REACTORS
330
2FF
102
}
330
2FF
100
AcDbXrecord
 10
0.0
 20
0.0
 30
0.0
  0
XRECORD
  5
312
102
{ACAD_REACTORS
330
2FF
102
}
330
2FF
100
AcDbXrecord
 10
0.0
 20
0.0
 30
0.0
  0
XRECORD
  5
30F
102
{ACAD_REACTORS
330
2FF
102
}
330
2FF
100
AcDbXrecord
 10
0.0
 20
0.0
 30
0.0
  0
XRECORD
  5
30C
102
{ACAD_REACTORS
330
2FF
102
}
330
2FF
100
AcDbXrecord
340
0
  0
XRECORD
  5
30D
102
{ACAD_REACTORS
330
2FF
102
}
330
2FF
100
AcDbXrecord
 70
     0
  0
XRECORD
  5
303
102
{ACAD_REACTORS
330
2FF
102
}
330
2FF
100
AcDbXrecord
  1

  0
XRECORD
  5
300
102
{ACAD_REACTORS
330
2FF
102
}
330
2FF
100
AcDbXrecord
 90
        1
  0
XRECORD
  5
301
102
{ACAD_REACTORS
330
2FF
102
}
330
2FF
100
AcDbXrecord
 90
       70
  0
XRECORD
  5
317
102
{ACAD_REACTORS
330
2FF
102
}
330
2FF
100
AcDbXrecord
340
0
  0
XRECORD
  5
31D
102
{ACAD_REACTORS
330
2FF
102
}
330
2FF
100
AcDbXrecord
 10
0.0
 20
0.0
 30
0.0
  0
XRECORD
  5
319
102
{ACAD_REACTORS
330
2FF
102
}
330
2FF
100
AcDbXrecord
 10
0.0
 20
0.0
 30
0.0
  0
XRECORD
  5
31C
102
{ACAD_REACTORS
330
2FF
102
}
330
2FF
100
AcDbXrecord
 10
0.0
 20
0.0
 30
0.0
  0
XRECORD
  5
31A
102
{ACAD_REACTORS
330
2FF
102
}
330
2FF
100
AcDbXrecord
 10
0.0
 20
0.0
 30
0.0
  0
XRECORD
  5
31B
102
{ACAD_REACTORS
330
2FF
102
}
330
2FF
100
AcDbXrecord
 10
0.0
 20
0.0
 30
0.0
  0
XRECORD
  5
318
102
{ACAD_REACTORS
330
2FF
102
}
330
2FF
100
AcDbXrecord
 10
0.0
 20
0.0
 30
0.0
  0
XRECORD
  5
315
102
{ACAD_REACTORS
330
2FF
102
}
330
2FF
100
AcDbXrecord
340
0
  0
XRECORD
  5
316
102
{ACAD_REACTORS
330
2FF
102
}
330
2FF
100
AcDbXrecord
 70
     0
  0
XRECORD
  5
30A
102
{ACAD_REACTORS
330
2FF
102
}
330
2FF
100
AcDbXrecord
  1
{FAEB1C32-E019-11D5-929B-00C0DF256EC4}
  0
DICTIONARYVAR
  5
328
102
{ACAD_REACTORS
330
31F
102
}
330
31F
100
DictionaryVariables
280
     0
  1
1:1
  0
DICTIONARYVAR
  5
324
102
{ACAD_REACTORS
330
31F
102
}
330
31F
100
DictionaryVariables
280
     0
  1
2
  0
DICTIONARYVAR
  5
325
102
{ACAD_REACTORS
330
31F
102
}
330
31F
100
DictionaryVariables
280
     0
  1
1
  0
DICTIONARYVAR
  5
329
102
{ACAD_REACTORS
330
31F
102
}
330
31F
100
DictionaryVariables
280
     0
  1
1
  0
DICTIONARY
  5
32C
330
45
100
AcDbDictionary
280
     1
  3
ACAD_XREC_ROUNDTRIP
360
32D
  0
DICTIONARY
  5
32A
330
44
100
AcDbDictionary
280
     1
  3
ACAD_XREC_ROUNDTRIP
360
32B
  0
DICTIONARY
  5
32E
330
46
100
AcDbDictionary
280
     1
  3
ACAD_XREC_ROUNDTRIP
360
32F
  0
XRECORD
  5
32D
102
{ACAD_REACTORS
330
32C
102
}
330
32C
100
AcDbXrecord
102
MATERIAL
148
0.0
149
0.0
149
0.0
 93
        0
 94
      127
282
     0
 72
     1
 77
     1
171
     1
175
     1
179
     1
273
     0
  0
XRECORD
  5
32B
102
{ACAD_REACTORS
330
32A
102
}
330
32A
100
AcDbXrecord
102
MATERIAL
148
0.0
149
0.0
149
0.0
 93
        0
 94
      127
282
     0
 72
     1
 77
     1
171
     1
175
     1
179
     1
273
     0
  0
XRECORD
  5
32F
102
{ACAD_REACTORS
330
32E
102
}
330
32E
100
AcDbXrecord
102
MATERIAL
148
0.0
149
0.0
149
0.0
 93
        0
 94
      127
282
     0
 72
     1
 77
     1
171
     1
175
     1
179
     1
273
     0
  0
ENDSEC
  0
EOF
