  0
SECTION
  2
HEADER
  9
$ACADVER
  1
AC1014
  9
$ACADMAINTVER
 70
     9
  9
$DWGCODEPAGE
  3
ANSI_1252
  9
$INSBASE
 10
0.0
 20
0.0
 30
0.0
  9
$EXTMIN
 10
1.000000000000000E+20
 20
1.000000000000000E+20
 30
1.000000000000000E+20
  9
$EXTMAX
 10
-1.000000000000000E+20
 20
-1.000000000000000E+20
 30
-1.000000000000000E+20
  9
$LIMMIN
 10
0.0
 20
0.0
  9
$LIMMAX
 10
12.0
 20
9.0
  9
$ORTHOMODE
 70
     0
  9
$REGENMODE
 70
     1
  9
$FILLMODE
 70
     1
  9
$QTEXTMODE
 70
     0
  9
$MIRRTEXT
 70
     1
  9
$DRAGMODE
 70
     2
  9
$LTSCALE
 40
1.0
  9
$OSMODE
 70
    37
  9
$ATTMODE
 70
     1
  9
$TEXTSIZE
 40
0.2
  9
$TRACEWID
 40
0.05
  9
$TEXTSTYLE
  7
STANDARD
  9
$CLAYER
  8
0
  9
$CELTYPE
  6
BYLAYER
  9
$CECOLOR
 62
   256
  9
$CELTSCALE
 40
1.0
  9
$DELOBJ
 70
     1
  9
$DISPSILH
 70
     0
  9
$DIMSCALE
 40
1.0
  9
$DIMASZ
 40
0.18
  9
$DIMEXO
 40
0.0625
  9
$DIMDLI
 40
0.38
  9
$DIMRND
 40
0.0
  9
$DIMDLE
 40
0.0
  9
$DIMEXE
 40
0.18
  9
$DIMTP
 40
0.0
  9
$DIMTM
 40
0.0
  9
$DIMTXT
 40
0.18
  9
$DIMCEN
 40
0.09
  9
$DIMTSZ
 40
0.0
  9
$DIMTOL
 70
     0
  9
$DIMLIM
 70
     0
  9
$DIMTIH
 70
     1
  9
$DIMTOH
 70
     1
  9
$DIMSE1
 70
     0
  9
$DIMSE2
 70
     0
  9
$DIMTAD
 70
     0
  9
$DIMZIN
 70
     0
  9
$DIMBLK
  1

  9
$DIMASO
 70
     1
  9
$DIMSHO
 70
     1
  9
$DIMPOST
  1

  9
$DIMAPOST
  1

  9
$DIMALT
 70
     0
  9
$DIMALTD
 70
     2
  9
$DIMALTF
 40
25.4
  9
$DIMLFAC
 40
1.0
  9
$DIMTOFL
 70
     0
  9
$DIMTVP
 40
0.0
  9
$DIMTIX
 70
     0
  9
$DIMSOXD
 70
     0
  9
$DIMSAH
 70
     0
  9
$DIMBLK1
  1

  9
$DIMBLK2
  1

  9
$DIMSTYLE
  2
STANDARD
  9
$DIMCLRD
 70
     0
  9
$DIMCLRE
 70
     0
  9
$DIMCLRT
 70
     0
  9
$DIMTFAC
 40
1.0
  9
$DIMGAP
 40
0.09
  9
$DIMJUST
 70
     0
  9
$DIMSD1
 70
     0
  9
$DIMSD2
 70
     0
  9
$DIMTOLJ
 70
     1
  9
$DIMTZIN
 70
     0
  9
$DIMALTZ
 70
     0
  9
$DIMALTTZ
 70
     0
  9
$DIMFIT
 70
     3
  9
$DIMUPT
 70
     0
  9
$DIMUNIT
 70
     2
  9
$DIMDEC
 70
     4
  9
$DIMTDEC
 70
     4
  9
$DIMALTU
 70
     2
  9
$DIMALTTD
 70
     2
  9
$DIMTXSTY
  7
STANDARD
  9
$DIMAUNIT
 70
     0
  9
$LUNITS
 70
     2
  9
$LUPREC
 70
     4
  9
$SKETCHINC
 40
0.1
  9
$FILLETRAD
 40
0.5
  9
$AUNITS
 70
     0
  9
$AUPREC
 70
     0
  9
$MENU
  1
.
  9
$ELEVATION
 40
0.0
  9
$PELEVATION
 40
0.0
  9
$THICKNESS
 40
0.0
  9
$LIMCHECK
 70
     0
  9
$CHAMFERA
 40
0.0
  9
$CHAMFERB
 40
0.0
  9
$CHAMFERC
 40
0.0
  9
$CHAMFERD
 40
0.0
  9
$SKPOLY
 70
     0
  9
$TDCREATE
 40
2456913.553196725
  9
$TDUPDATE
 40
2456913.553197095
  9
$TDINDWG
 40
0.0000000116
  9
$TDUSRTIMER
 40
0.0000000116
  9
$USRTIMER
 70
     1
  9
$ANGBASE
 50
0.0
  9
$ANGDIR
 70
     0
  9
$PDMODE
 70
     0
  9
$PDSIZE
 40
0.0
  9
$PLINEWID
 40
0.0
  9
$COORDS
 70
     1
  9
$SPLFRAME
 70
     0
  9
$SPLINETYPE
 70
     6
  9
$SPLINESEGS
 70
     8
  9
$ATTDIA
 70
     0
  9
$ATTREQ
 70
     1
  9
$HANDLING
 70
     1
  9
$HANDSEED
  5
3AC
  9
$SURFTAB1
 70
     6
  9
$SURFTAB2
 70
     6
  9
$SURFTYPE
 70
     6
  9
$SURFU
 70
     6
  9
$SURFV
 70
     6
  9
$UCSNAME
  2

  9
$UCSORG
 10
0.0
 20
0.0
 30
0.0
  9
$UCSXDIR
 10
1.0
 20
0.0
 30
0.0
  9
$UCSYDIR
 10
0.0
 20
1.0
 30
0.0
  9
$PUCSNAME
  2

  9
$PUCSORG
 10
0.0
 20
0.0
 30
0.0
  9
$PUCSXDIR
 10
1.0
 20
0.0
 30
0.0
  9
$PUCSYDIR
 10
0.0
 20
1.0
 30
0.0
  9
$USERI1
 70
     0
  9
$USERI2
 70
     0
  9
$USERI3
 70
     0
  9
$USERI4
 70
     0
  9
$USERI5
 70
     0
  9
$USERR1
 40
0.0
  9
$USERR2
 40
0.0
  9
$USERR3
 40
0.0
  9
$USERR4
 40
0.0
  9
$USERR5
 40
0.0
  9
$WORLDVIEW
 70
     1
  9
$SHADEDGE
 70
     3
  9
$SHADEDIF
 70
    70
  9
$TILEMODE
 70
     1
  9
$MAXACTVP
 70
    64
  9
$PINSBASE
 10
0.0
 20
0.0
 30
0.0
  9
$PLIMCHECK
 70
     0
  9
$PEXTMIN
 10
1.000000000000000E+20
 20
1.000000000000000E+20
 30
1.000000000000000E+20
  9
$PEXTMAX
 10
-1.000000000000000E+20
 20
-1.000000000000000E+20
 30
-1.000000000000000E+20
  9
$PLIMMIN
 10
0.0
 20
0.0
  9
$PLIMMAX
 10
12.0
 20
9.0
  9
$UNITMODE
 70
     0
  9
$VISRETAIN
 70
     1
  9
$PLINEGEN
 70
     0
  9
$PSLTSCALE
 70
     1
  9
$TREEDEPTH
 70
  3020
  9
$PICKSTYLE
 70
     1
  9
$CMLSTYLE
  2
STANDARD
  9
$CMLJUST
 70
     0
  9
$CMLSCALE
 40
1.0
  9
$PROXYGRAPHICS
 70
     1
  9
$MEASUREMENT
 70
     0
  0
ENDSEC
  0
SECTION
  2
CLASSES
  0
CLASS
  1
ACDBDICTIONARYWDFLT
  2
AcDbDictionaryWithDefault
  3
ObjectDBX Classes
 90
        0
280
     0
281
     0
  0
CLASS
  1
VISUALSTYLE
  2
AcDbVisualStyle
  3
ObjectDBX Classes
 90
     4095
280
     0
281
     0
  0
CLASS
  1
MATERIAL
  2
AcDbMaterial
  3
ObjectDBX Classes
 90
     1153
280
     0
281
     0
  0
CLASS
  1
SCALE
  2
AcDbScale
  3
ObjectDBX Classes
 90
     1153
280
     0
281
     0
  0
CLASS
  1
SUN
  2
AcDbSun
  3
SCENEOE
 90
     1153
280
     0
281
     0
  0
CLASS
  1
DICTIONARYVAR
  2
AcDbDictionaryVar
  3
ObjectDBX Classes
 90
        0
280
     0
281
     0
  0
CLASS
  1
XRECORD
  2
AcDbXrecord
  3
ObjectDBX Classes
 90
        0
280
     0
281
     0
  0
CLASS
  1
LWPOLYLINE
  2
AcDbPolyline
  3
ObjectDBX Classes
 90
        0
280
     0
281
     1
  0
CLASS
  1
HATCH
  2
AcDbHatch
  3
ObjectDBX Classes
 90
        0
280
     0
281
     1
  0
CLASS
  1
ACDBPLACEHOLDER
  2
AcDbPlaceHolder
  3
ObjectDBX Classes
 90
        0
280
     0
281
     0
  0
CLASS
  1
LAYOUT
  2
AcDbLayout
  3
ObjectDBX Classes
 90
        0
280
     0
281
     0
  0
ENDSEC
  0
SECTION
  2
TABLES
  0
TABLE
  2
VPORT
  5
8
102
{ACAD_XDICTIONARY
360
3A2
102
}
330
0
100
AcDbSymbolTable
 70
     1
  0
VPORT
  5
29
330
8
100
AcDbSymbolTableRecord
100
AcDbViewportTableRecord
  2
*ACTIVE
 70
     0
 10
0.0
 20
0.0
 11
1.0
 21
1.0
 12
0.0
 22
0.0
 13
0.0
 23
0.0
 14
0.5
 24
0.5
 15
0.5
 25
0.5
 16
0.0
 26
0.0
 36
1.0
 17
0.0
 27
0.0
 37
-1000.0
 40
155.7670113189873
 41
2.199770378874857
 42
50.0
 43
776.4620320979177
 44
976.9491503418994
 50
0.0
 51
0.0
 71
     0
 72
   100
 73
     1
 74
     3
 75
     0
 76
     0
 77
     0
 78
     0
  0
ENDTAB
  0
TABLE
  2
LTYPE
  5
5
330
0
100
AcDbSymbolTable
 70
     1
  0
LTYPE
  5
14
330
5
100
AcDbSymbolTableRecord
100
AcDbLinetypeTableRecord
  2
BYBLOCK
 70
     0
  3

 72
    65
 73
     0
 40
0.0
  0
LTYPE
  5
15
330
5
100
AcDbSymbolTableRecord
100
AcDbLinetypeTableRecord
  2
BYLAYER
 70
     0
  3

 72
    65
 73
     0
 40
0.0
  0
LTYPE
  5
16
330
5
100
AcDbSymbolTableRecord
100
AcDbLinetypeTableRecord
  2
CONTINUOUS
 70
     0
  3
Solid line
 72
    65
 73
     0
 40
0.0
  0
ENDTAB
  0
TABLE
  2
LAYER
  5
2
330
0
100
AcDbSymbolTable
 70
     3
  0
LAYER
  5
10
330
2
100
AcDbSymbolTableRecord
100
AcDbLayerTableRecord
  2
0
 70
     0
 62
     7
  6
CONTINUOUS
  0
LAYER
  5
6A
330
2
100
AcDbSymbolTableRecord
100
AcDbLayerTableRecord
  2
PROFILEEDGES
 70
     0
 62
     7
  6
CONTINUOUS
  0
LAYER
  5
6B
330
2
100
AcDbSymbolTableRecord
100
AcDbLayerTableRecord
  2
SECTIONCUTEDGES
 70
     0
 62
     7
  6
CONTINUOUS
  0
ENDTAB
  0
TABLE
  2
STYLE
  5
3
330
0
100
AcDbSymbolTable
 70
     1
  0
STYLE
  5
11
330
3
100
AcDbSymbolTableRecord
100
AcDbTextStyleTableRecord
  2
STANDARD
 70
     0
 40
0.0
 41
1.0
 50
0.0
 71
     0
 42
0.2
  3
txt
  4

  0
ENDTAB
  0
TABLE
  2
VIEW
  5
6
330
0
100
AcDbSymbolTable
 70
     0
  0
ENDTAB
  0
TABLE
  2
UCS
  5
7
330
0
100
AcDbSymbolTable
 70
     0
  0
ENDTAB
  0
TABLE
  2
APPID
  5
9
330
0
100
AcDbSymbolTable
 70
     1
  0
APPID
  5
12
330
9
100
AcDbSymbolTableRecord
100
AcDbRegAppTableRecord
  2
ACAD
 70
     0
  0
ENDTAB
  0
TABLE
  2
DIMSTYLE
  5
A
330
0
100
AcDbSymbolTable
 70
     1
  0
DIMSTYLE
105
27
330
A
100
AcDbSymbolTableRecord
100
AcDbDimStyleTableRecord
  2
STANDARD
 70
     0
  3

  4

  5

  6

  7

 40
1.0
 41
0.18
 42
0.0625
 43
0.38
 44
0.18
 45
0.0
 46
0.0
 47
0.0
 48
0.0
140
0.18
141
0.09
142
0.0
143
25.4
144
1.0
145
0.0
146
1.0
147
0.09
 71
     0
 72
     0
 73
     1
 74
     1
 75
     0
 76
     0
 77
     0
 78
     0
170
     0
171
     2
172
     0
173
     0
174
     0
175
     0
176
     0
177
     0
178
     0
270
     2
271
     4
272
     4
273
     2
274
     2
340
11
275
     0
280
     0
281
     0
282
     0
283
     1
284
     0
285
     0
286
     0
287
     3
288
     0
  0
ENDTAB
  0
TABLE
  2
BLOCK_RECORD
  5
1
330
0
100
AcDbSymbolTable
 70
     1
  0
BLOCK_RECORD
  5
1F
330
1
100
AcDbSymbolTableRecord
100
AcDbBlockTableRecord
  2
*MODEL_SPACE
  0
BLOCK_RECORD
  5
1B
330
1
100
AcDbSymbolTableRecord
100
AcDbBlockTableRecord
  2
*PAPER_SPACE
  0
ENDTAB
  0
ENDSEC
  0
SECTION
  2
BLOCKS
  0
BLOCK
  5
20
330
1F
100
AcDbEntity
  8
0
100
AcDbBlockBegin
  2
*MODEL_SPACE
 70
     0
 10
0.0
 20
0.0
 30
0.0
  3
*MODEL_SPACE
  1

  0
ENDBLK
  5
21
330
1F
100
AcDbEntity
  8
0
100
AcDbBlockEnd
  0
BLOCK
  5
1C
330
1B
100
AcDbEntity
 67
     1
  8
0
100
AcDbBlockBegin
  2
*PAPER_SPACE
 70
     0
 10
0.0
 20
0.0
 30
0.0
  3
*PAPER_SPACE
  1

  0
ENDBLK
  5
1D
330
1B
100
AcDbEntity
 67
     1
  8
0
100
AcDbBlockEnd
  0
ENDSEC
  0
SECTION
  2
ENTITIES
  0
LINE
  5
6C
330
1F
100
AcDbEntity
  8
0
100
AcDbLine
 10
-52.47345513237855
 20
73.98933037651895
 30
0.0
 11
52.47345513237846
 21
73.98933037651895
 31
0.0
  0
LINE
  5
6D
330
1F
100
AcDbEntity
  8
0
100
AcDbLine
 10
-52.44875398262589
 20
30.51066962348084
 30
0.0
 11
-27.73560471505853
 21
30.51066962348084
 31
0.0
  0
LINE
  5
6E
330
1F
100
AcDbEntity
  8
0
100
AcDbLine
 10
-21.73560376866552
 20
30.51066962348084
 30
0.0
 11
21.73672756618922
 21
30.51066962348084
 31
0.0
  0
LINE
  5
6F
330
1F
100
AcDbEntity
  8
0
100
AcDbLine
 10
27.73672756618921
 20
30.51066962348084
 30
0.0
 11
52.47345513237846
 21
30.51066962348084
 31
0.0
  0
LINE
  5
70
330
1F
100
AcDbEntity
  8
0
100
AcDbLine
 10
2.999999999999949
 20
32.01066962348087
 30
0.0
 11
46.47345513237847
 21
32.01066962348087
 31
0.0
  0
LINE
  5
71
330
1F
100
AcDbEntity
  8
0
100
AcDbLine
 10
-46.47345513237856
 20
32.01066962348087
 30
0.0
 11
-3.00000000000004
 21
32.01066962348087
 31
0.0
  0
LINE
  5
72
330
1F
100
AcDbEntity
  8
0
100
AcDbLine
 10
27.73672756618921
 20
-73.98933037651896
 30
0.0
 11
52.47345513237846
 21
-73.98933037651896
 31
0.0
  0
LINE
  5
73
330
1F
100
AcDbEntity
  8
0
100
AcDbLine
 10
-52.47345513237855
 20
73.98933037651895
 30
0.0
 11
-52.44875398262589
 21
30.51066962348084
 31
0.0
  0
LINE
  5
74
330
1F
100
AcDbEntity
  8
0
100
AcDbLine
 10
-52.44875398262589
 20
30.51066962348084
 30
0.0
 11
-52.44875398262589
 21
27.5106696234808
 31
0.0
  0
LINE
  5
75
330
1F
100
AcDbEntity
  8
0
100
AcDbLine
 10
52.47345513237846
 20
30.51066962348084
 30
0.0
 11
52.47345513237846
 21
27.5106696234808
 31
0.0
  0
LINE
  5
76
330
1F
100
AcDbEntity
  8
0
100
AcDbLine
 10
21.73672756618922
 20
-73.98933037651896
 30
0.0
 11
27.73672756618921
 21
-73.98933037651896
 31
0.0
  0
LINE
  5
77
330
1F
100
AcDbEntity
  8
0
100
AcDbLine
 10
52.47345513237846
 20
73.98933037651895
 30
0.0
 11
52.47345513237846
 21
30.51066962348084
 31
0.0
  0
LINE
  5
78
330
1F
100
AcDbEntity
  8
0
100
AcDbLine
 10
-27.73560471505853
 20
-73.98933037651896
 30
0.0
 11
-21.73560376866552
 21
-73.98933037651896
 31
0.0
  0
LINE
  5
79
330
1F
100
AcDbEntity
  8
0
100
AcDbLine
 10
-43.56865710047084
 20
45.67356893384285
 30
0.0
 11
-33.13529758010571
 21
45.67356893384285
 31
0.0
  0
LINE
  5
7A
330
1F
100
AcDbEntity
  8
0
100
AcDbLine
 10
-43.56865710047084
 20
49.67356893384284
 30
0.0
 11
-33.13529758010571
 21
49.67356893384284
 31
0.0
  0
LINE
  5
7B
330
1F
100
AcDbEntity
  8
0
100
AcDbLine
 10
-49.50574142776188
 20
47.67356893384284
 30
0.0
 11
-39.07211219599122
 21
47.67356893384284
 31
0.0
  0
LINE
  5
7C
330
1F
100
AcDbEntity
  8
0
100
AcDbLine
 10
-37.6321121959912
 20
47.67356893384284
 30
0.0
 11
-27.19848296422028
 21
47.67356893384284
 31
0.0
  0
LINE
  5
7D
330
1F
100
AcDbEntity
  8
0
100
AcDbLine
 10
-45.89817297327952
 20
68.91040536251607
 30
0.0
 11
-46.26726110975888
 21
68.6994521663126
 31
0.0
  0
LINE
  5
7E
330
1F
100
AcDbEntity
  8
0
100
AcDbLine
 10
-45.09359705153101
 20
69.17961625714308
 30
0.0
 11
-45.504707519536
 21
69.07137815583415
 31
0.0
  0
LINE
  5
7F
330
1F
100
AcDbEntity
  8
0
100
AcDbLine
 10
-42.02065747399944
 20
68.12153197276865
 30
0.0
 11
-42.31994965339288
 21
68.42344503116826
 31
0.0
  0
LINE
  5
80
330
1F
100
AcDbEntity
  8
0
100
AcDbLine
 10
-44.24675948282519
 20
69.23141444120222
 30
0.0
 11
-44.67187578335352
 21
69.23326768252015
 31
0.0
  0
LINE
  5
81
330
1F
100
AcDbEntity
  8
0
100
AcDbLine
 10
-46.26726110975888
 20
68.6994521663126
 30
0.0
 11
-46.6056567286283
 21
68.44212803489799
 31
0.0
  0
LINE
  5
82
330
1F
100
AcDbEntity
  8
0
100
AcDbLine
 10
-47.54639470991014
 20
67.04741466089334
 30
0.0
 11
-47.65821299852178
 21
66.63726350118486
 31
0.0
  0
LINE
  5
83
330
1F
100
AcDbEntity
  8
0
100
AcDbLine
 10
-44.67187578335352
 20
69.23326768252015
 30
0.0
 11
-45.09359705153101
 21
69.17961625714308
 31
0.0
  0
LINE
  5
84
330
1F
100
AcDbEntity
  8
0
100
AcDbLine
 10
-47.16783446882235
 20
67.80669660030122
 30
0.0
 11
-47.38199757314715
 21
67.43946170513979
 31
0.0
  0
LINE
  5
85
330
1F
100
AcDbEntity
  8
0
100
AcDbLine
 10
-45.504707519536
 20
69.07137815583415
 30
0.0
 11
-45.89817297327952
 21
68.91040536251607
 31
0.0
  0
LINE
  5
86
330
1F
100
AcDbEntity
  8
0
100
AcDbLine
 10
-41.2831692517544
 20
66.60947229567131
 30
0.0
 11
-41.39140735306336
 21
67.02058276367639
 31
0.0
  0
LINE
  5
87
330
1F
100
AcDbEntity
  8
0
100
AcDbLine
 10
-41.76333334258484
 20
67.78313635389928
 30
0.0
 11
-42.02065747399944
 21
68.12153197276865
 31
0.0
  0
LINE
  5
88
330
1F
100
AcDbEntity
  8
0
100
AcDbLine
 10
-41.5523801463814
 20
67.41404821741992
 30
0.0
 11
-41.76333334258484
 21
67.78313635389928
 31
0.0
  0
LINE
  5
89
330
1F
100
AcDbEntity
  8
0
100
AcDbLine
 10
-46.90756978702787
 20
68.14283585550456
 30
0.0
 11
-47.16783446882235
 21
67.80669660030122
 31
0.0
  0
LINE
  5
8A
330
1F
100
AcDbEntity
  8
0
100
AcDbLine
 10
-46.6056567286283
 20
68.44212803489799
 30
0.0
 11
-46.90756978702787
 21
68.14283585550456
 31
0.0
  0
LINE
  5
8B
330
1F
100
AcDbEntity
  8
0
100
AcDbLine
 10
-47.39453011837572
 20
64.56461253561791
 30
0.0
 11
-47.18357692217229
 21
64.19552439913855
 31
0.0
  0
LINE
  5
8C
330
1F
100
AcDbEntity
  8
0
100
AcDbLine
 10
-43.82552200771266
 20
69.17408824266208
 30
0.0
 11
-44.24675948282519
 21
69.23141444120222
 31
0.0
  0
LINE
  5
8D
330
1F
100
AcDbEntity
  8
0
100
AcDbLine
 10
-42.31994965339288
 20
68.42344503116826
 30
0.0
 11
-42.65608890859626
 21
68.6837097129627
 31
0.0
  0
LINE
  5
8E
330
1F
100
AcDbEntity
  8
0
100
AcDbLine
 10
-43.41537084800414
 20
69.06226995405049
 30
0.0
 11
-43.82552200771266
 21
69.17408824266208
 31
0.0
  0
LINE
  5
8F
330
1F
100
AcDbEntity
  8
0
100
AcDbLine
 10
-44.27503448140361
 20
62.74539307051767
 30
0.0
 11
-43.85331321322612
 21
62.79904449589475
 31
0.0
  0
LINE
  5
90
330
1F
100
AcDbEntity
  8
0
100
AcDbLine
 10
-42.65608890859626
 20
68.6837097129627
 30
0.0
 11
-43.02332380375765
 21
68.89787281728755
 31
0.0
  0
LINE
  5
91
330
1F
100
AcDbEntity
  8
0
100
AcDbLine
 10
-47.38199757314715
 20
67.43946170513979
 30
0.0
 11
-47.54639470991014
 21
67.04741466089334
 31
0.0
  0
LINE
  5
92
330
1F
100
AcDbEntity
  8
0
100
AcDbLine
 10
-41.23137106769521
 20
65.7626347269655
 30
0.0
 11
-41.22951782637733
 21
66.18775102749382
 31
0.0
  0
LINE
  5
93
330
1F
100
AcDbEntity
  8
0
100
AcDbLine
 10
-44.70015078193194
 20
62.74724631183561
 30
0.0
 11
-44.27503448140361
 21
62.74539307051767
 31
0.0
  0
LINE
  5
94
330
1F
100
AcDbEntity
  8
0
100
AcDbLine
 10
-42.03934047772926
 20
63.83582489753318
 30
0.0
 11
-41.77907579593478
 21
64.17196415273656
 31
0.0
  0
LINE
  5
95
330
1F
100
AcDbEntity
  8
0
100
AcDbLine
 10
-45.92358646099948
 20
63.08078793575028
 30
0.0
 11
-45.53153941675299
 21
62.91639079898734
 31
0.0
  0
LINE
  5
96
330
1F
100
AcDbEntity
  8
0
100
AcDbLine
 10
-41.39140735306336
 20
67.02058276367639
 30
0.0
 11
-41.5523801463814
 21
67.41404821741992
 31
0.0
  0
LINE
  5
97
330
1F
100
AcDbEntity
  8
0
100
AcDbLine
 10
-47.18357692217229
 20
64.19552439913855
 30
0.0
 11
-46.92625279075769
 21
63.85712878026917
 31
0.0
  0
LINE
  5
98
330
1F
100
AcDbEntity
  8
0
100
AcDbLine
 10
-43.02332380375765
 20
68.89787281728755
 30
0.0
 11
-43.41537084800414
 21
69.06226995405049
 31
0.0
  0
LINE
  5
99
330
1F
100
AcDbEntity
  8
0
100
AcDbLine
 10
-45.12138825704447
 20
62.80457251037574
 30
0.0
 11
-44.70015078193194
 21
62.74724631183561
 31
0.0
  0
LINE
  5
9A
330
1F
100
AcDbEntity
  8
0
100
AcDbLine
 10
-47.71553919706191
 20
66.21602602607229
 30
0.0
 11
-47.7173924383798
 21
65.790909725544
 31
0.0
  0
LINE
  5
9B
330
1F
100
AcDbEntity
  8
0
100
AcDbLine
 10
-42.34125353612882
 20
63.53653271813983
 30
0.0
 11
-42.03934047772926
 21
63.83582489753318
 31
0.0
  0
LINE
  5
9C
330
1F
100
AcDbEntity
  8
0
100
AcDbLine
 10
-41.77907579593478
 20
64.17196415273656
 30
0.0
 11
-41.56491269160998
 21
64.53919904789804
 31
0.0
  0
LINE
  5
9D
330
1F
100
AcDbEntity
  8
0
100
AcDbLine
 10
-47.66374101300273
 20
65.36918845736646
 30
0.0
 11
-47.55550291169376
 21
64.95807798936144
 31
0.0
  0
LINE
  5
9E
330
1F
100
AcDbEntity
  8
0
100
AcDbLine
 10
-41.56491269160998
 20
64.53919904789804
 30
0.0
 11
-41.40051555484699
 21
64.93124609214449
 31
0.0
  0
LINE
  5
9F
330
1F
100
AcDbEntity
  8
0
100
AcDbLine
 10
-46.62696061136425
 20
63.55521572186957
 30
0.0
 11
-46.29082135616087
 21
63.29495104007513
 31
0.0
  0
LINE
  5
A0
330
1F
100
AcDbEntity
  8
0
100
AcDbLine
 10
-46.92625279075769
 20
63.85712878026917
 30
0.0
 11
-46.62696061136425
 21
63.55521572186957
 31
0.0
  0
LINE
  5
A1
330
1F
100
AcDbEntity
  8
0
100
AcDbLine
 10
-41.22951782637733
 20
66.18775102749382
 30
0.0
 11
-41.2831692517544
 21
66.60947229567131
 31
0.0
  0
LINE
  5
A2
330
1F
100
AcDbEntity
  8
0
100
AcDbLine
 10
-41.40051555484699
 20
64.93124609214449
 30
0.0
 11
-41.28869726623544
 21
65.34139725185297
 31
0.0
  0
LINE
  5
A3
330
1F
100
AcDbEntity
  8
0
100
AcDbLine
 10
-42.67964915499824
 20
63.27920858672523
 30
0.0
 11
-42.34125353612882
 21
63.53653271813983
 31
0.0
  0
LINE
  5
A4
330
1F
100
AcDbEntity
  8
0
100
AcDbLine
 10
-47.65821299852178
 20
66.63726350118486
 30
0.0
 11
-47.71553919706191
 21
66.21602602607229
 31
0.0
  0
LINE
  5
A5
330
1F
100
AcDbEntity
  8
0
100
AcDbLine
 10
-43.85331321322612
 20
62.79904449589475
 30
0.0
 11
-43.44220274522113
 21
62.90728259720367
 31
0.0
  0
LINE
  5
A6
330
1F
100
AcDbEntity
  8
0
100
AcDbLine
 10
-41.28869726623544
 20
65.34139725185297
 30
0.0
 11
-41.23137106769521
 21
65.7626347269655
 31
0.0
  0
LINE
  5
A7
330
1F
100
AcDbEntity
  8
0
100
AcDbLine
 10
-43.04873729147761
 20
63.06825539052176
 30
0.0
 11
-42.67964915499824
 21
63.27920858672523
 31
0.0
  0
LINE
  5
A8
330
1F
100
AcDbEntity
  8
0
100
AcDbLine
 10
-47.55550291169376
 20
64.95807798936144
 30
0.0
 11
-47.39453011837572
 21
64.56461253561791
 31
0.0
  0
LINE
  5
A9
330
1F
100
AcDbEntity
  8
0
100
AcDbLine
 10
-43.44220274522113
 20
62.90728259720367
 30
0.0
 11
-43.04873729147761
 21
63.06825539052176
 31
0.0
  0
LINE
  5
AA
330
1F
100
AcDbEntity
  8
0
100
AcDbLine
 10
-47.7173924383798
 20
65.790909725544
 30
0.0
 11
-47.66374101300273
 21
65.36918845736646
 31
0.0
  0
LINE
  5
AB
330
1F
100
AcDbEntity
  8
0
100
AcDbLine
 10
-46.29082135616087
 20
63.29495104007513
 30
0.0
 11
-45.92358646099948
 21
63.08078793575028
 31
0.0
  0
LINE
  5
AC
330
1F
100
AcDbEntity
  8
0
100
AcDbLine
 10
-45.53153941675299
 20
62.91639079898734
 30
0.0
 11
-45.12138825704447
 21
62.80457251037574
 31
0.0
  0
LINE
  5
AD
330
1F
100
AcDbEntity
  8
0
100
AcDbLine
 10
50.44669808948173
 20
67.30653913258826
 30
0.0
 11
49.03336571327281
 21
68.60495609507014
 31
0.0
  0
LINE
  5
AE
330
1F
100
AcDbEntity
  8
0
100
AcDbLine
 10
49.03336571327281
 20
68.60495609507014
 30
0.0
 11
48.11531452980672
 21
68.90220961913934
 31
0.0
  0
LINE
  5
AF
330
1F
100
AcDbEntity
  8
0
100
AcDbLine
 10
41.50704217731894
 20
66.7429871589964
 30
0.0
 11
42.53397983278254
 21
66.15203390769284
 31
0.0
  0
LINE
  5
B0
330
1F
100
AcDbEntity
  8
0
100
AcDbLine
 10
48.7467132421305
 20
67.61142541476481
 30
0.0
 11
50.44669808948173
 21
67.30653913258826
 31
0.0
  0
LINE
  5
B1
330
1F
100
AcDbEntity
  8
0
100
AcDbLine
 10
42.29957689413107
 20
66.03653299195044
 30
0.0
 11
41.02914671137611
 21
59.88580208378604
 31
0.0
  0
LINE
  5
B2
330
1F
100
AcDbEntity
  8
0
100
AcDbLine
 10
42.481066920239
 20
71.49989162833717
 30
0.0
 11
34.69734981922112
 21
72.01467875846552
 31
0.0
  0
LINE
  5
B3
330
1F
100
AcDbEntity
  8
0
100
AcDbLine
 10
44.17002667254632
 20
63.19926718660553
 30
0.0
 11
44.46770423873255
 21
63.38202933906458
 31
0.0
  0
LINE
  5
B4
330
1F
100
AcDbEntity
  8
0
100
AcDbLine
 10
42.29957689413107
 20
66.03653299195044
 30
0.0
 11
44.17002667254632
 21
63.19926718660553
 31
0.0
  0
LINE
  5
B5
330
1F
100
AcDbEntity
  8
0
100
AcDbLine
 10
45.11691271997353
 20
62.58822249590133
 30
0.0
 11
44.46770423873255
 21
63.38202933906458
 31
0.0
  0
LINE
  5
B6
330
1F
100
AcDbEntity
  8
0
100
AcDbLine
 10
48.13566855142629
 20
65.2439982751384
 30
0.0
 11
48.7467132421305
 21
67.61142541476481
 31
0.0
  0
LINE
  5
B7
330
1F
100
AcDbEntity
  8
0
100
AcDbLine
 10
44.74417969906508
 20
64.88017013868851
 30
0.0
 11
48.09665667665539
 21
65.52047373547086
 31
0.0
  0
LINE
  5
B8
330
1F
100
AcDbEntity
  8
0
100
AcDbLine
 10
48.11531452980672
 20
68.90220961913934
 30
0.0
 11
45.93134788182019
 21
67.82607060294589
 31
0.0
  0
LINE
  5
B9
330
1F
100
AcDbEntity
  8
0
100
AcDbLine
 10
41.02914671137611
 20
59.88580208378604
 30
0.0
 11
45.11691271997353
 21
62.58822249590133
 31
0.0
  0
LINE
  5
BA
330
1F
100
AcDbEntity
  8
0
100
AcDbLine
 10
42.481066920239
 20
71.49989162833717
 30
0.0
 11
41.50704217731894
 21
66.7429871589964
 31
0.0
  0
LINE
  5
BB
330
1F
100
AcDbEntity
  8
0
100
AcDbLine
 10
34.64010413341596
 20
71.13606349188733
 30
0.0
 11
38.97975115955558
 21
68.69909344506068
 31
0.0
  0
LINE
  5
BC
330
1F
100
AcDbEntity
  8
0
100
AcDbLine
 10
49.03336571327281
 20
68.60495609507014
 30
0.0
 11
48.7467132421305
 21
67.61142541476481
 31
0.0
  0
LINE
  5
BD
330
1F
100
AcDbEntity
  8
0
100
AcDbLine
 10
48.09665667665539
 20
65.52047373547086
 30
0.0
 11
45.93134788182019
 21
67.82607060294589
 31
0.0
  0
LINE
  5
BE
330
1F
100
AcDbEntity
  8
0
100
AcDbLine
 10
35.8329346087462
 20
71.13606349188733
 30
0.0
 11
34.64010413341596
 21
71.13606349188733
 31
0.0
  0
LINE
  5
BF
330
1F
100
AcDbEntity
  8
0
100
AcDbLine
 10
34.69734981922112
 20
72.01467875846552
 30
0.0
 11
35.8329346087462
 21
71.13606349188733
 31
0.0
  0
LINE
  5
C0
330
1F
100
AcDbEntity
  8
0
100
AcDbLine
 10
35.8329346087462
 20
71.13606349188733
 30
0.0
 11
38.97975115955558
 21
68.69909344506068
 31
0.0
  0
LINE
  5
C1
330
1F
100
AcDbEntity
  8
0
100
AcDbLine
 10
44.46770423873255
 20
63.38202933906458
 30
0.0
 11
44.5436077776889
 21
63.42019312960132
 31
0.0
  0
LINE
  5
C2
330
1F
100
AcDbEntity
  8
0
100
AcDbLine
 10
42.53397983278254
 20
66.15203390769284
 30
0.0
 11
42.29957689413107
 21
66.03653299195044
 31
0.0
  0
LINE
  5
C3
330
1F
100
AcDbEntity
  8
0
100
AcDbLine
 10
45.93134788182019
 20
67.82607060294589
 30
0.0
 11
42.53397983278254
 21
66.15203390769284
 31
0.0
  0
LINE
  5
C4
330
1F
100
AcDbEntity
  8
0
100
AcDbLine
 10
45.93134788182019
 20
67.82607060294589
 30
0.0
 11
42.481066920239
 21
71.49989162833717
 31
0.0
  0
LINE
  5
C5
330
1F
100
AcDbEntity
  8
0
100
AcDbLine
 10
44.5436077776889
 20
63.42019312960132
 30
0.0
 11
48.13566855142629
 21
65.2439982751384
 31
0.0
  0
LINE
  5
C6
330
1F
100
AcDbEntity
  8
0
100
AcDbLine
 10
38.97975115955558
 20
68.69909344506068
 30
0.0
 11
41.50704217731894
 21
66.7429871589964
 31
0.0
  0
LINE
  5
C7
330
1F
100
AcDbEntity
  8
0
100
AcDbLine
 10
42.53397983278254
 20
66.15203390769284
 30
0.0
 11
44.74417969906508
 21
64.88017013868851
 31
0.0
  0
LINE
  5
C8
330
1F
100
AcDbEntity
  8
0
100
AcDbLine
 10
-21.9653980179656
 20
59.33266986747611
 30
0.0
 11
-21.9653980179656
 21
65.56204612502138
 31
0.0
  0
LINE
  5
C9
330
1F
100
AcDbEntity
  8
0
100
AcDbLine
 10
-21.9653980179656
 20
65.56204612502138
 30
0.0
 11
-22.84064952701993
 21
65.18478254353245
 31
0.0
  0
LINE
  5
CA
330
1F
100
AcDbEntity
  8
0
100
AcDbLine
 10
-22.84064952701993
 20
65.18478254353245
 30
0.0
 11
-23.86680646866983
 21
64.99464169846203
 31
0.0
  0
LINE
  5
CB
330
1F
100
AcDbEntity
  8
0
100
AcDbLine
 10
-23.86680646866983
 20
64.99464169846203
 30
0.0
 11
-23.86680646866983
 21
66.92623123568536
 31
0.0
  0
LINE
  5
CC
330
1F
100
AcDbEntity
  8
0
100
AcDbLine
 10
-23.86680646866983
 20
66.92623123568536
 30
0.0
 11
-23.07983463768391
 21
67.10505417331112
 31
0.0
  0
LINE
  5
CD
330
1F
100
AcDbEntity
  8
0
100
AcDbLine
 10
-23.07983463768391
 20
67.10505417331112
 30
0.0
 11
-22.34869781675836
 21
67.36385699021253
 31
0.0
  0
LINE
  5
CE
330
1F
100
AcDbEntity
  8
0
100
AcDbLine
 10
-22.34869781675836
 20
67.36385699021253
 30
0.0
 11
-21.63717870207023
 21
67.71773022964915
 31
0.0
  0
LINE
  5
CF
330
1F
100
AcDbEntity
  8
0
100
AcDbLine
 10
-21.63717870207023
 20
67.71773022964915
 30
0.0
 11
-20.90905998979659
 21
68.18176443488055
 31
0.0
  0
LINE
  5
D0
330
1F
100
AcDbEntity
  8
0
100
AcDbLine
 10
-20.90905998979659
 20
68.18176443488055
 30
0.0
 11
-19.39396944653703
 21
68.18176443488055
 31
0.0
  0
LINE
  5
D1
330
1F
100
AcDbEntity
  8
0
100
AcDbLine
 10
-19.39396944653703
 20
68.18176443488055
 30
0.0
 11
-19.39396944653703
 21
59.33266986747611
 31
0.0
  0
LINE
  5
D2
330
1F
100
AcDbEntity
  8
0
100
AcDbLine
 10
-19.39396944653703
 20
59.33266986747611
 30
0.0
 11
-21.9653980179656
 21
59.33266986747611
 31
0.0
  0
LINE
  5
D3
330
1F
100
AcDbEntity
  8
0
100
AcDbLine
 10
-14.963385945531
 20
60.4071165475566
 30
0.0
 11
-15.05996542239216
 21
59.91063767431716
 31
0.0
  0
LINE
  5
D4
330
1F
100
AcDbEntity
  8
0
100
AcDbLine
 10
-15.05996542239216
 20
59.91063767431716
 30
0.0
 11
-15.34970385297566
 21
59.51979260389462
 31
0.0
  0
LINE
  5
D5
330
1F
100
AcDbEntity
  8
0
100
AcDbLine
 10
-15.34970385297566
 20
59.51979260389462
 30
0.0
 11
-15.80996542239216
 21
59.26627147713405
 31
0.0
  0
LINE
  5
D6
330
1F
100
AcDbEntity
  8
0
100
AcDbLine
 10
-15.80996542239216
 20
59.26627147713405
 30
0.0
 11
-16.41811431575232
 21
59.18176443488053
 31
0.0
  0
LINE
  5
D7
330
1F
100
AcDbEntity
  8
0
100
AcDbLine
 10
-16.41811431575232
 20
59.18176443488053
 30
0.0
 11
-16.98325516082275
 21
59.27004411294894
 31
0.0
  0
LINE
  5
D8
330
1F
100
AcDbEntity
  8
0
100
AcDbLine
 10
-16.98325516082275
 20
59.27004411294894
 30
0.0
 11
-17.43521693144649
 21
59.53488314715418
 31
0.0
  0
LINE
  5
D9
330
1F
100
AcDbEntity
  8
0
100
AcDbLine
 10
-17.43521693144649
 20
59.53488314715418
 30
0.0
 11
-17.73174610649679
 21
59.92950085339161
 31
0.0
  0
LINE
  5
DA
330
1F
100
AcDbEntity
  8
0
100
AcDbLine
 10
-17.73174610649679
 20
59.92950085339161
 30
0.0
 11
-17.83058916484689
 21
60.4071165475566
 31
0.0
  0
LINE
  5
DB
330
1F
100
AcDbEntity
  8
0
100
AcDbLine
 10
-17.83058916484689
 20
60.4071165475566
 30
0.0
 11
-17.73325516082274
 21
60.88775035037349
 31
0.0
  0
LINE
  5
DC
330
1F
100
AcDbEntity
  8
0
100
AcDbLine
 10
-17.73325516082274
 20
60.88775035037349
 30
0.0
 11
-17.44125314875031
 21
61.26727751335136
 31
0.0
  0
LINE
  5
DD
330
1F
100
AcDbEntity
  8
0
100
AcDbLine
 10
-17.44125314875031
 20
61.26727751335136
 30
0.0
 11
-16.9847642151487
 21
61.51400789564512
 31
0.0
  0
LINE
  5
DE
330
1F
100
AcDbEntity
  8
0
100
AcDbLine
 10
-16.9847642151487
 20
61.51400789564512
 30
0.0
 11
-16.39396944653703
 21
61.59625135640972
 31
0.0
  0
LINE
  5
DF
330
1F
100
AcDbEntity
  8
0
100
AcDbLine
 10
-16.39396944653703
 20
61.59625135640972
 30
0.0
 11
-15.81524711253301
 21
61.51400789564512
 31
0.0
  0
LINE
  5
E0
330
1F
100
AcDbEntity
  8
0
100
AcDbLine
 10
-15.81524711253301
 20
61.51400789564512
 30
0.0
 11
-15.3587581789314
 21
61.26727751335136
 31
0.0
  0
LINE
  5
E1
330
1F
100
AcDbEntity
  8
0
100
AcDbLine
 10
-15.3587581789314
 20
61.26727751335136
 30
0.0
 11
-15.0622290038811
 21
60.88775035037349
 31
0.0
  0
LINE
  5
E2
330
1F
100
AcDbEntity
  8
0
100
AcDbLine
 10
-15.0622290038811
 20
60.88775035037349
 30
0.0
 11
-14.963385945531
 21
60.4071165475566
 31
0.0
  0
LINE
  5
E3
330
1F
100
AcDbEntity
  8
0
100
AcDbLine
 10
-7.84064952701993
 20
62.26023525983023
 30
0.0
 11
-7.945528802673854
 21
61.41893747310991
 31
0.0
  0
LINE
  5
E4
330
1F
100
AcDbEntity
  8
0
100
AcDbLine
 10
-7.945528802673854
 20
61.41893747310991
 30
0.0
 11
-8.260166629635622
 21
60.6696920002729
 31
0.0
  0
LINE
  5
E5
330
1F
100
AcDbEntity
  8
0
100
AcDbLine
 10
-8.260166629635622
 20
60.6696920002729
 30
0.0
 11
-8.772490573297596
 21
60.04418898216424
 31
0.0
  0
LINE
  5
E6
330
1F
100
AcDbEntity
  8
0
100
AcDbLine
 10
-8.772490573297596
 20
60.04418898216424
 30
0.0
 11
-9.470428199052122
 21
59.57411855962903
 31
0.0
  0
LINE
  5
E7
330
1F
100
AcDbEntity
  8
0
100
AcDbLine
 10
-9.470428199052122
 20
59.57411855962903
 30
0.0
 11
-10.33209821917285
 21
59.27985296606765
 31
0.0
  0
LINE
  5
E8
330
1F
100
AcDbEntity
  8
0
100
AcDbLine
 10
-10.33209821917285
 20
59.27985296606765
 30
0.0
 11
-11.33561934593341
 21
59.18176443488053
 31
0.0
  0
LINE
  5
E9
330
1F
100
AcDbEntity
  8
0
100
AcDbLine
 10
-11.33561934593341
 20
59.18176443488053
 30
0.0
 11
-12.58209821917285
 21
59.28438012904553
 31
0.0
  0
LINE
  5
EA
330
1F
100
AcDbEntity
  8
0
100
AcDbLine
 10
-12.58209821917285
 20
59.28438012904553
 30
0.0
 11
-13.64749057329759
 21
59.54393747310991
 31
0.0
  0
LINE
  5
EB
330
1F
100
AcDbEntity
  8
0
100
AcDbLine
 10
-13.64749057329759
 20
59.54393747310991
 30
0.0
 11
-13.64749057329759
 21
61.54796161797913
 31
0.0
  0
LINE
  5
EC
330
1F
100
AcDbEntity
  8
0
100
AcDbLine
 10
-13.64749057329759
 20
61.54796161797913
 30
0.0
 11
-12.71640405418291
 21
61.18578857974976
 31
0.0
  0
LINE
  5
ED
330
1F
100
AcDbEntity
  8
0
100
AcDbLine
 10
-12.71640405418291
 20
61.18578857974976
 30
0.0
 11
-11.73400968798572
 21
61.0650642336733
 31
0.0
  0
LINE
  5
EE
330
1F
100
AcDbEntity
  8
0
100
AcDbLine
 10
-11.73400968798572
 20
61.0650642336733
 30
0.0
 11
-11.15076019100383
 21
61.12542640671152
 31
0.0
  0
LINE
  5
EF
330
1F
100
AcDbEntity
  8
0
100
AcDbLine
 10
-11.15076019100383
 20
61.12542640671152
 30
0.0
 11
-10.72897950689921
 21
61.30651292582621
 31
0.0
  0
LINE
  5
F0
330
1F
100
AcDbEntity
  8
0
100
AcDbLine
 10
-10.72897950689921
 20
61.30651292582621
 30
0.0
 11
-10.47319479864971
 21
61.59776041073567
 31
0.0
  0
LINE
  5
F1
330
1F
100
AcDbEntity
  8
0
100
AcDbLine
 10
-10.47319479864971
 20
61.59776041073567
 30
0.0
 11
-10.38793322923321
 21
61.9886054811582
 31
0.0
  0
LINE
  5
F2
330
1F
100
AcDbEntity
  8
0
100
AcDbLine
 10
-10.38793322923321
 20
61.9886054811582
 30
0.0
 11
-10.48677628758331
 21
62.40585900228497
 31
0.0
  0
LINE
  5
F3
330
1F
100
AcDbEntity
  8
0
100
AcDbLine
 10
-10.48677628758331
 20
62.40585900228497
 30
0.0
 11
-10.78330546263361
 21
62.70389723166122
 31
0.0
  0
LINE
  5
F4
330
1F
100
AcDbEntity
  8
0
100
AcDbLine
 10
-10.78330546263361
 20
62.70389723166122
 30
0.0
 11
-11.27752075438411
 21
62.88272016928698
 31
0.0
  0
LINE
  5
F5
330
1F
100
AcDbEntity
  8
0
100
AcDbLine
 10
-11.27752075438411
 20
62.88272016928698
 30
0.0
 11
-11.96942216283482
 21
62.94232781516223
 31
0.0
  0
LINE
  5
F6
330
1F
100
AcDbEntity
  8
0
100
AcDbLine
 10
-11.96942216283482
 20
62.94232781516223
 30
0.0
 11
-12.73149459744246
 21
62.90460145701334
 31
0.0
  0
LINE
  5
F7
330
1F
100
AcDbEntity
  8
0
100
AcDbLine
 10
-12.73149459744246
 20
62.90460145701334
 30
0.0
 11
-13.43622296766379
 21
62.79142238256665
 31
0.0
  0
LINE
  5
F8
330
1F
100
AcDbEntity
  8
0
100
AcDbLine
 10
-13.43622296766379
 20
62.79142238256665
 30
0.0
 11
-13.11026723325736
 21
67.9886054811582
 31
0.0
  0
LINE
  5
F9
330
1F
100
AcDbEntity
  8
0
100
AcDbLine
 10
-13.11026723325736
 20
67.9886054811582
 30
0.0
 11
-8.220931217160773
 21
67.9886054811582
 31
0.0
  0
LINE
  5
FA
330
1F
100
AcDbEntity
  8
0
100
AcDbLine
 10
-8.220931217160773
 20
67.9886054811582
 30
0.0
 11
-8.220931217160773
 21
65.98458133628898
 31
0.0
  0
LINE
  5
FB
330
1F
100
AcDbEntity
  8
0
100
AcDbLine
 10
-8.220931217160773
 20
65.98458133628898
 30
0.0
 11
-11.11831552299578
 21
65.98458133628898
 31
0.0
  0
LINE
  5
FC
330
1F
100
AcDbEntity
  8
0
100
AcDbLine
 10
-11.11831552299578
 20
65.98458133628898
 30
0.0
 11
-11.2028225652493
 21
64.77130165822058
 31
0.0
  0
LINE
  5
FD
330
1F
100
AcDbEntity
  8
0
100
AcDbLine
 10
-11.2028225652493
 20
64.77130165822058
 30
0.0
 11
-10.54487487913261
 21
64.80751896204352
 31
0.0
  0
LINE
  5
FE
330
1F
100
AcDbEntity
  8
0
100
AcDbLine
 10
-10.54487487913261
 20
64.80751896204352
 30
0.0
 11
-9.945403048146687
 21
64.76469954554453
 31
0.0
  0
LINE
  5
FF
330
1F
100
AcDbEntity
  8
0
100
AcDbLine
 10
-9.945403048146687
 20
64.76469954554453
 30
0.0
 11
-9.414593188991757
 21
64.63624129604754
 31
0.0
  0
LINE
  5
100
330
1F
100
AcDbEntity
  8
0
100
AcDbLine
 10
-9.414593188991757
 20
64.63624129604754
 30
0.0
 11
-8.952445301667819
 21
64.42214421355257
 31
0.0
  0
LINE
  5
101
330
1F
100
AcDbEntity
  8
0
100
AcDbLine
 10
-8.952445301667819
 20
64.42214421355257
 30
0.0
 11
-8.558959386174859
 21
64.12240829805961
 31
0.0
  0
LINE
  5
102
330
1F
100
AcDbEntity
  8
0
100
AcDbLine
 10
-8.558959386174859
 20
64.12240829805961
 30
0.0
 11
-8.244698822794575
 21
63.74910598417632
 31
0.0
  0
LINE
  5
103
330
1F
100
AcDbEntity
  8
0
100
AcDbLine
 10
-8.244698822794575
 20
63.74910598417632
 30
0.0
 11
-8.020226991808661
 21
63.31430970651032
 31
0.0
  0
LINE
  5
104
330
1F
100
AcDbEntity
  8
0
100
AcDbLine
 10
-8.020226991808661
 20
63.31430970651032
 30
0.0
 11
-7.885543893217112
 21
62.81801946506162
 31
0.0
  0
LINE
  5
105
330
1F
100
AcDbEntity
  8
0
100
AcDbLine
 10
-7.885543893217112
 20
62.81801946506162
 30
0.0
 11
-7.84064952701993
 21
62.26023525983023
 31
0.0
  0
LINE
  5
106
330
1F
100
AcDbEntity
  8
0
100
AcDbLine
 10
1.618102988070613
 20
59.33266986747611
 30
0.0
 11
1.618102988070613
 21
62.89403807673165
 31
0.0
  0
LINE
  5
107
330
1F
100
AcDbEntity
  8
0
100
AcDbLine
 10
1.618102988070613
 20
62.89403807673165
 30
0.0
 11
1.578113048432787
 21
63.2841286199912
 31
0.0
  0
LINE
  5
108
330
1F
100
AcDbEntity
  8
0
100
AcDbLine
 10
1.578113048432787
 20
63.2841286199912
 30
0.0
 11
1.458143229519304
 21
63.56104008880408
 31
0.0
  0
LINE
  5
109
330
1F
100
AcDbEntity
  8
0
100
AcDbLine
 10
1.458143229519304
 20
63.56104008880408
 30
0.0
 11
1.247630151048483
 21
63.72628153749623
 31
0.0
  0
LINE
  5
10A
330
1F
100
AcDbEntity
  8
0
100
AcDbLine
 10
1.247630151048483
 20
63.72628153749623
 30
0.0
 11
0.936010432738624
 21
63.78136202039362
 31
0.0
  0
LINE
  5
10B
330
1F
100
AcDbEntity
  8
0
100
AcDbLine
 10
0.936010432738624
 20
63.78136202039362
 30
0.0
 11
0.6191090242879216
 21
63.71420910288859
 31
0.0
  0
LINE
  5
10C
330
1F
100
AcDbEntity
  8
0
100
AcDbLine
 10
0.6191090242879216
 20
63.71420910288859
 30
0.0
 11
0.3806784407869132
 21
63.51275035037349
 31
0.0
  0
LINE
  5
10D
330
1F
100
AcDbEntity
  8
0
100
AcDbLine
 10
0.3806784407869132
 20
63.51275035037349
 30
0.0
 11
0.2312820625172947
 21
63.1920763061079
 31
0.0
  0
LINE
  5
10E
330
1F
100
AcDbEntity
  8
0
100
AcDbLine
 10
0.2312820625172947
 20
63.1920763061079
 30
0.0
 11
0.1814832697607562
 21
62.76727751335136
 31
0.0
  0
LINE
  5
10F
330
1F
100
AcDbEntity
  8
0
100
AcDbLine
 10
0.1814832697607562
 20
62.76727751335136
 30
0.0
 11
0.1814832697607562
 21
59.33266986747611
 31
0.0
  0
LINE
  5
110
330
1F
100
AcDbEntity
  8
0
100
AcDbLine
 10
0.1814832697607562
 20
59.33266986747611
 30
0.0
 11
-2.389945301667817
 21
59.33266986747611
 31
0.0
  0
LINE
  5
111
330
1F
100
AcDbEntity
  8
0
100
AcDbLine
 10
-2.389945301667817
 20
59.33266986747611
 30
0.0
 11
-2.389945301667817
 21
62.83367590369341
 31
0.0
  0
LINE
  5
112
330
1F
100
AcDbEntity
  8
0
100
AcDbLine
 10
-2.389945301667817
 20
62.83367590369341
 30
0.0
 11
-2.430312504887133
 21
63.24828857974975
 31
0.0
  0
LINE
  5
113
330
1F
100
AcDbEntity
  8
0
100
AcDbLine
 10
-2.430312504887133
 20
63.24828857974975
 30
0.0
 11
-2.55141411454508
 21
63.54444049121856
 31
0.0
  0
LINE
  5
114
330
1F
100
AcDbEntity
  8
0
100
AcDbLine
 10
-2.55141411454508
 20
63.54444049121856
 30
0.0
 11
-2.753250130641659
 21
63.72213163809985
 31
0.0
  0
LINE
  5
115
330
1F
100
AcDbEntity
  8
0
100
AcDbLine
 10
-2.753250130641659
 20
63.72213163809985
 30
0.0
 11
-3.035820553176869
 21
63.78136202039362
 31
0.0
  0
LINE
  5
116
330
1F
100
AcDbEntity
  8
0
100
AcDbLine
 10
-3.035820553176869
 20
63.78136202039362
 30
0.0
 11
-3.379884939494775
 21
63.71270004856263
 31
0.0
  0
LINE
  5
117
330
1F
100
AcDbEntity
  8
0
100
AcDbLine
 10
-3.379884939494775
 20
63.71270004856263
 30
0.0
 11
-3.62736984895152
 21
63.50671413306967
 31
0.0
  0
LINE
  5
118
330
1F
100
AcDbEntity
  8
0
100
AcDbLine
 10
-3.62736984895152
 20
63.50671413306967
 30
0.0
 11
-3.776766227221138
 21
63.17245859987047
 31
0.0
  0
LINE
  5
119
330
1F
100
AcDbEntity
  8
0
100
AcDbLine
 10
-3.776766227221138
 20
63.17245859987047
 30
0.0
 11
-3.826565019977676
 21
62.71898777492078
 31
0.0
  0
LINE
  5
11A
330
1F
100
AcDbEntity
  8
0
100
AcDbLine
 10
-3.826565019977676
 20
62.71898777492078
 30
0.0
 11
-3.826565019977676
 21
59.33266986747611
 31
0.0
  0
LINE
  5
11B
330
1F
100
AcDbEntity
  8
0
100
AcDbLine
 10
-3.826565019977676
 20
59.33266986747611
 30
0.0
 11
-6.397993591406247
 21
59.33266986747611
 31
0.0
  0
LINE
  5
11C
330
1F
100
AcDbEntity
  8
0
100
AcDbLine
 10
-6.397993591406247
 20
59.33266986747611
 30
0.0
 11
-6.397993591406247
 21
65.5137563865908
 31
0.0
  0
LINE
  5
11D
330
1F
100
AcDbEntity
  8
0
100
AcDbLine
 10
-6.397993591406247
 20
65.5137563865908
 30
0.0
 11
-3.826565019977676
 21
65.5137563865908
 31
0.0
  0
LINE
  5
11E
330
1F
100
AcDbEntity
  8
0
100
AcDbLine
 10
-3.826565019977676
 20
65.5137563865908
 30
0.0
 11
-3.826565019977676
 21
64.53588918337148
 31
0.0
  0
LINE
  5
11F
330
1F
100
AcDbEntity
  8
0
100
AcDbLine
 10
-3.802420150762384
 20
64.53588918337148
 30
0.0
 11
-3.34064952701993
 21
65.06405819745599
 31
0.0
  0
LINE
  5
120
330
1F
100
AcDbEntity
  8
0
100
AcDbLine
 10
-3.34064952701993
 20
65.06405819745599
 30
0.0
 11
-2.62535777651691
 21
65.49866584333124
 31
0.0
  0
LINE
  5
121
330
1F
100
AcDbEntity
  8
0
100
AcDbLine
 10
-2.62535777651691
 20
65.49866584333124
 30
0.0
 11
-2.210367836879083
 21
65.6231628252226
 31
0.0
  0
LINE
  5
122
330
1F
100
AcDbEntity
  8
0
100
AcDbLine
 10
-2.210367836879083
 20
65.6231628252226
 30
0.0
 11
-1.76217870207023
 21
65.66466181918638
 31
0.0
  0
LINE
  5
123
330
1F
100
AcDbEntity
  8
0
100
AcDbLine
 10
-1.76217870207023
 20
65.66466181918638
 30
0.0
 11
-1.156293390199004
 21
65.59977248317027
 31
0.0
  0
LINE
  5
124
330
1F
100
AcDbEntity
  8
0
100
AcDbLine
 10
-1.156293390199004
 20
65.59977248317027
 30
0.0
 11
-0.6545328268187204
 21
65.40510447512199
 31
0.0
  0
LINE
  5
125
330
1F
100
AcDbEntity
  8
0
100
AcDbLine
 10
-0.6545328268187204
 20
65.40510447512199
 30
0.0
 11
-0.2418064686698272
 21
65.07009441475981
 31
0.0
  0
LINE
  5
126
330
1F
100
AcDbEntity
  8
0
100
AcDbLine
 10
-0.2418064686698272
 20
65.07009441475981
 30
0.0
 11
0.0969762275072355
 21
64.58417892180206
 31
0.0
  0
LINE
  5
127
330
1F
100
AcDbEntity
  8
0
100
AcDbLine
 10
0.0969762275072355
 20
64.58417892180206
 30
0.0
 11
0.4772579176480813
 21
65.04368596405558
 31
0.0
  0
LINE
  5
128
330
1F
100
AcDbEntity
  8
0
100
AcDbLine
 10
0.4772579176480813
 20
65.04368596405558
 30
0.0
 11
0.9661915192577369
 21
65.3839777145586
 31
0.0
  0
LINE
  5
129
330
1F
100
AcDbEntity
  8
0
100
AcDbLine
 10
0.9661915192577369
 20
65.3839777145586
 30
0.0
 11
1.539632163120916
 21
65.59449079302944
 31
0.0
  0
LINE
  5
12A
330
1F
100
AcDbEntity
  8
0
100
AcDbLine
 10
1.539632163120916
 20
65.59449079302944
 30
0.0
 11
2.173434980022327
 21
65.66466181918638
 31
0.0
  0
LINE
  5
12B
330
1F
100
AcDbEntity
  8
0
100
AcDbLine
 10
2.173434980022327
 20
65.66466181918638
 30
0.0
 11
2.631055704368402
 21
65.62504914313003
 31
0.0
  0
LINE
  5
12C
330
1F
100
AcDbEntity
  8
0
100
AcDbLine
 10
2.631055704368402
 20
65.62504914313003
 30
0.0
 11
3.032086891491141
 21
65.506211114961
 31
0.0
  0
LINE
  5
12D
330
1F
100
AcDbEntity
  8
0
100
AcDbLine
 10
3.032086891491141
 20
65.506211114961
 30
0.0
 11
3.376528541390537
 21
65.30814773467934
 31
0.0
  0
LINE
  5
12E
330
1F
100
AcDbEntity
  8
0
100
AcDbLine
 10
3.376528541390537
 20
65.30814773467934
 30
0.0
 11
3.664380654066591
 21
65.03085900228496
 31
0.0
  0
LINE
  5
12F
330
1F
100
AcDbEntity
  8
0
100
AcDbLine
 10
3.664380654066591
 20
65.03085900228496
 30
0.0
 11
3.891493330122929
 21
64.67887208075578
 31
0.0
  0
LINE
  5
130
330
1F
100
AcDbEntity
  8
0
100
AcDbLine
 10
3.891493330122929
 20
64.67887208075578
 30
0.0
 11
4.053716670163166
 21
64.25671413306966
 31
0.0
  0
LINE
  5
131
330
1F
100
AcDbEntity
  8
0
100
AcDbLine
 10
4.053716670163166
 20
64.25671413306966
 30
0.0
 11
4.151050674187315
 21
63.76438515922661
 31
0.0
  0
LINE
  5
132
330
1F
100
AcDbEntity
  8
0
100
AcDbLine
 10
4.151050674187315
 20
63.76438515922661
 30
0.0
 11
4.183495342195362
 21
63.20188515922662
 31
0.0
  0
LINE
  5
133
330
1F
100
AcDbEntity
  8
0
100
AcDbLine
 10
4.183495342195362
 20
63.20188515922662
 30
0.0
 11
4.183495342195362
 21
59.33266986747611
 31
0.0
  0
LINE
  5
134
330
1F
100
AcDbEntity
  8
0
100
AcDbLine
 10
4.183495342195362
 20
59.33266986747611
 30
0.0
 11
1.618102988070613
 21
59.33266986747611
 31
0.0
  0
LINE
  5
135
330
1F
100
AcDbEntity
  8
0
100
AcDbLine
 10
13.36458186131005
 20
59.33266986747611
 30
0.0
 11
13.36458186131005
 21
62.89403807673165
 31
0.0
  0
LINE
  5
136
330
1F
100
AcDbEntity
  8
0
100
AcDbLine
 10
13.36458186131005
 20
62.89403807673165
 30
0.0
 11
13.32459192167223
 21
63.2841286199912
 31
0.0
  0
LINE
  5
137
330
1F
100
AcDbEntity
  8
0
100
AcDbLine
 10
13.32459192167223
 20
63.2841286199912
 30
0.0
 11
13.20462210275874
 21
63.56104008880408
 31
0.0
  0
LINE
  5
138
330
1F
100
AcDbEntity
  8
0
100
AcDbLine
 10
13.20462210275874
 20
63.56104008880408
 30
0.0
 11
12.99410902428792
 21
63.72628153749623
 31
0.0
  0
LINE
  5
139
330
1F
100
AcDbEntity
  8
0
100
AcDbLine
 10
12.99410902428792
 20
63.72628153749623
 30
0.0
 11
12.68248930597806
 21
63.78136202039362
 31
0.0
  0
LINE
  5
13A
330
1F
100
AcDbEntity
  8
0
100
AcDbLine
 10
12.68248930597806
 20
63.78136202039362
 30
0.0
 11
12.36558789752736
 21
63.71420910288859
 31
0.0
  0
LINE
  5
13B
330
1F
100
AcDbEntity
  8
0
100
AcDbLine
 10
12.36558789752736
 20
63.71420910288859
 30
0.0
 11
12.12715731402635
 21
63.51275035037349
 31
0.0
  0
LINE
  5
13C
330
1F
100
AcDbEntity
  8
0
100
AcDbLine
 10
12.12715731402635
 20
63.51275035037349
 30
0.0
 11
11.97776093575673
 21
63.1920763061079
 31
0.0
  0
LINE
  5
13D
330
1F
100
AcDbEntity
  8
0
100
AcDbLine
 10
11.97776093575673
 20
63.1920763061079
 30
0.0
 11
11.9279621430002
 21
62.76727751335136
 31
0.0
  0
LINE
  5
13E
330
1F
100
AcDbEntity
  8
0
100
AcDbLine
 10
11.9279621430002
 20
62.76727751335136
 30
0.0
 11
11.9279621430002
 21
59.33266986747611
 31
0.0
  0
LINE
  5
13F
330
1F
100
AcDbEntity
  8
0
100
AcDbLine
 10
11.9279621430002
 20
59.33266986747611
 30
0.0
 11
9.356533571571621
 21
59.33266986747611
 31
0.0
  0
LINE
  5
140
330
1F
100
AcDbEntity
  8
0
100
AcDbLine
 10
9.356533571571621
 20
59.33266986747611
 30
0.0
 11
9.356533571571621
 21
62.83367590369341
 31
0.0
  0
LINE
  5
141
330
1F
100
AcDbEntity
  8
0
100
AcDbLine
 10
9.356533571571621
 20
62.83367590369341
 30
0.0
 11
9.316166368352306
 21
63.24828857974975
 31
0.0
  0
LINE
  5
142
330
1F
100
AcDbEntity
  8
0
100
AcDbLine
 10
9.316166368352306
 20
63.24828857974975
 30
0.0
 11
9.19506475869436
 21
63.54444049121856
 31
0.0
  0
LINE
  5
143
330
1F
100
AcDbEntity
  8
0
100
AcDbLine
 10
9.19506475869436
 20
63.54444049121856
 30
0.0
 11
8.993228742597779
 21
63.72213163809985
 31
0.0
  0
LINE
  5
144
330
1F
100
AcDbEntity
  8
0
100
AcDbLine
 10
8.993228742597779
 20
63.72213163809985
 30
0.0
 11
8.710658320062569
 21
63.78136202039362
 31
0.0
  0
LINE
  5
145
330
1F
100
AcDbEntity
  8
0
100
AcDbLine
 10
8.710658320062569
 20
63.78136202039362
 30
0.0
 11
8.366593933744664
 21
63.71270004856263
 31
0.0
  0
LINE
  5
146
330
1F
100
AcDbEntity
  8
0
100
AcDbLine
 10
8.366593933744664
 20
63.71270004856263
 30
0.0
 11
8.11910902428792
 21
63.50671413306967
 31
0.0
  0
LINE
  5
147
330
1F
100
AcDbEntity
  8
0
100
AcDbLine
 10
8.11910902428792
 20
63.50671413306967
 30
0.0
 11
7.969712646018303
 21
63.17245859987047
 31
0.0
  0
LINE
  5
148
330
1F
100
AcDbEntity
  8
0
100
AcDbLine
 10
7.969712646018303
 20
63.17245859987047
 30
0.0
 11
7.919913853261759
 21
62.71898777492078
 31
0.0
  0
LINE
  5
149
330
1F
100
AcDbEntity
  8
0
100
AcDbLine
 10
7.919913853261759
 20
62.71898777492078
 30
0.0
 11
7.919913853261759
 21
59.33266986747611
 31
0.0
  0
LINE
  5
14A
330
1F
100
AcDbEntity
  8
0
100
AcDbLine
 10
7.919913853261759
 20
59.33266986747611
 30
0.0
 11
5.348485281833192
 21
59.33266986747611
 31
0.0
  0
LINE
  5
14B
330
1F
100
AcDbEntity
  8
0
100
AcDbLine
 10
5.348485281833192
 20
59.33266986747611
 30
0.0
 11
5.348485281833192
 21
65.5137563865908
 31
0.0
  0
LINE
  5
14C
330
1F
100
AcDbEntity
  8
0
100
AcDbLine
 10
5.348485281833192
 20
65.5137563865908
 30
0.0
 11
7.919913853261759
 21
65.5137563865908
 31
0.0
  0
LINE
  5
14D
330
1F
100
AcDbEntity
  8
0
100
AcDbLine
 10
7.919913853261759
 20
65.5137563865908
 30
0.0
 11
7.919913853261759
 21
64.53588918337148
 31
0.0
  0
LINE
  5
14E
330
1F
100
AcDbEntity
  8
0
100
AcDbLine
 10
7.944058722477054
 20
64.53588918337148
 30
0.0
 11
8.405829346219509
 21
65.06405819745599
 31
0.0
  0
LINE
  5
14F
330
1F
100
AcDbEntity
  8
0
100
AcDbLine
 10
8.405829346219509
 20
65.06405819745599
 30
0.0
 11
9.121121096722526
 21
65.49866584333124
 31
0.0
  0
LINE
  5
150
330
1F
100
AcDbEntity
  8
0
100
AcDbLine
 10
9.121121096722526
 20
65.49866584333124
 30
0.0
 11
9.536111036360357
 21
65.6231628252226
 31
0.0
  0
LINE
  5
151
330
1F
100
AcDbEntity
  8
0
100
AcDbLine
 10
9.536111036360357
 20
65.6231628252226
 30
0.0
 11
9.984300171169208
 21
65.66466181918638
 31
0.0
  0
LINE
  5
152
330
1F
100
AcDbEntity
  8
0
100
AcDbLine
 10
9.984300171169208
 20
65.66466181918638
 30
0.0
 11
10.59018548304043
 21
65.59977248317027
 31
0.0
  0
LINE
  5
153
330
1F
100
AcDbEntity
  8
0
100
AcDbLine
 10
10.59018548304043
 20
65.59977248317027
 30
0.0
 11
11.09194604642072
 21
65.40510447512199
 31
0.0
  0
LINE
  5
154
330
1F
100
AcDbEntity
  8
0
100
AcDbLine
 10
11.09194604642072
 20
65.40510447512199
 30
0.0
 11
11.50467240456961
 21
65.07009441475981
 31
0.0
  0
LINE
  5
155
330
1F
100
AcDbEntity
  8
0
100
AcDbLine
 10
11.50467240456961
 20
65.07009441475981
 30
0.0
 11
11.84345510074667
 21
64.58417892180206
 31
0.0
  0
LINE
  5
156
330
1F
100
AcDbEntity
  8
0
100
AcDbLine
 10
11.84345510074667
 20
64.58417892180206
 30
0.0
 11
12.22373679088752
 21
65.04368596405558
 31
0.0
  0
LINE
  5
157
330
1F
100
AcDbEntity
  8
0
100
AcDbLine
 10
12.22373679088752
 20
65.04368596405558
 30
0.0
 11
12.71267039249718
 21
65.3839777145586
 31
0.0
  0
LINE
  5
158
330
1F
100
AcDbEntity
  8
0
100
AcDbLine
 10
12.71267039249718
 20
65.3839777145586
 30
0.0
 11
13.28611103636035
 21
65.59449079302944
 31
0.0
  0
LINE
  5
159
330
1F
100
AcDbEntity
  8
0
100
AcDbLine
 10
13.28611103636035
 20
65.59449079302944
 30
0.0
 11
13.91991385326176
 21
65.66466181918638
 31
0.0
  0
LINE
  5
15A
330
1F
100
AcDbEntity
  8
0
100
AcDbLine
 10
13.91991385326176
 20
65.66466181918638
 30
0.0
 11
14.37753457760784
 21
65.62504914313003
 31
0.0
  0
LINE
  5
15B
330
1F
100
AcDbEntity
  8
0
100
AcDbLine
 10
14.37753457760784
 20
65.62504914313003
 30
0.0
 11
14.77856576473057
 21
65.506211114961
 31
0.0
  0
LINE
  5
15C
330
1F
100
AcDbEntity
  8
0
100
AcDbLine
 10
14.77856576473057
 20
65.506211114961
 30
0.0
 11
15.12300741462997
 21
65.30814773467934
 31
0.0
  0
LINE
  5
15D
330
1F
100
AcDbEntity
  8
0
100
AcDbLine
 10
15.12300741462997
 20
65.30814773467934
 30
0.0
 11
15.41085952730603
 21
65.03085900228496
 31
0.0
  0
LINE
  5
15E
330
1F
100
AcDbEntity
  8
0
100
AcDbLine
 10
15.41085952730603
 20
65.03085900228496
 30
0.0
 11
15.63797220336237
 21
64.67887208075578
 31
0.0
  0
LINE
  5
15F
330
1F
100
AcDbEntity
  8
0
100
AcDbLine
 10
15.63797220336237
 20
64.67887208075578
 30
0.0
 11
15.80019554340261
 21
64.25671413306966
 31
0.0
  0
LINE
  5
160
330
1F
100
AcDbEntity
  8
0
100
AcDbLine
 10
15.80019554340261
 20
64.25671413306966
 30
0.0
 11
15.89752954742675
 21
63.76438515922661
 31
0.0
  0
LINE
  5
161
330
1F
100
AcDbEntity
  8
0
100
AcDbLine
 10
15.89752954742675
 20
63.76438515922661
 30
0.0
 11
15.9299742154348
 21
63.20188515922662
 31
0.0
  0
LINE
  5
162
330
1F
100
AcDbEntity
  8
0
100
AcDbLine
 10
15.9299742154348
 20
63.20188515922662
 30
0.0
 11
15.9299742154348
 21
59.33266986747611
 31
0.0
  0
LINE
  5
163
330
1F
100
AcDbEntity
  8
0
100
AcDbLine
 10
15.9299742154348
 20
59.33266986747611
 30
0.0
 11
13.36458186131005
 21
59.33266986747611
 31
0.0
  0
LINE
  5
164
330
1F
100
AcDbEntity
  8
0
100
AcDbLine
 10
-17.48652477852898
 20
44.6465531672749
 30
0.0
 11
-17.6019674344646
 21
43.83920910288858
 31
0.0
  0
LINE
  5
165
330
1F
100
AcDbEntity
  8
0
100
AcDbLine
 10
-17.6019674344646
 20
43.83920910288858
 30
0.0
 11
-17.94829540227144
 21
43.14353505862299
 31
0.0
  0
LINE
  5
166
330
1F
100
AcDbEntity
  8
0
100
AcDbLine
 10
-17.94829540227144
 20
43.14353505862299
 30
0.0
 11
-18.50287286706017
 21
42.58518495801937
 31
0.0
  0
LINE
  5
167
330
1F
100
AcDbEntity
  8
0
100
AcDbLine
 10
-18.50287286706017
 20
42.58518495801937
 30
0.0
 11
-19.24306401394146
 21
42.18981272461897
 31
0.0
  0
LINE
  5
168
330
1F
100
AcDbEntity
  8
0
100
AcDbLine
 10
-19.24306401394146
 20
42.18981272461897
 30
0.0
 11
-20.16056904412255
 21
41.95440024976988
 31
0.0
  0
LINE
  5
169
330
1F
100
AcDbEntity
  8
0
100
AcDbLine
 10
-20.16056904412255
 20
41.95440024976988
 30
0.0
 11
-21.24708815881068
 21
41.87592942482018
 31
0.0
  0
LINE
  5
16A
330
1F
100
AcDbEntity
  8
0
100
AcDbLine
 10
-21.24708815881068
 20
41.87592942482018
 30
0.0
 11
-22.54789298778452
 21
41.99061755359281
 31
0.0
  0
LINE
  5
16B
330
1F
100
AcDbEntity
  8
0
100
AcDbLine
 10
-22.54789298778452
 20
41.99061755359281
 30
0.0
 11
-23.73400968798573
 21
42.33468193991072
 31
0.0
  0
LINE
  5
16C
330
1F
100
AcDbEntity
  8
0
100
AcDbLine
 10
-23.73400968798573
 20
42.33468193991072
 30
0.0
 11
-23.73400968798573
 21
44.70691534031313
 31
0.0
  0
LINE
  5
16D
330
1F
100
AcDbEntity
  8
0
100
AcDbLine
 10
-23.73400968798573
 20
44.70691534031313
 30
0.0
 11
-23.1620780984485
 21
44.34700588357269
 31
0.0
  0
LINE
  5
16E
330
1F
100
AcDbEntity
  8
0
100
AcDbLine
 10
-23.1620780984485
 20
44.34700588357269
 30
0.0
 11
-22.53280244452496
 21
44.06405819745599
 31
0.0
  0
LINE
  5
16F
330
1F
100
AcDbEntity
  8
0
100
AcDbLine
 10
-22.53280244452496
 20
44.06405819745599
 30
0.0
 11
-21.8974905732976
 21
43.88070809685237
 31
0.0
  0
LINE
  5
170
330
1F
100
AcDbEntity
  8
0
100
AcDbLine
 10
-21.8974905732976
 20
43.88070809685237
 30
0.0
 11
-21.30745033184891
 21
43.81959139665116
 31
0.0
  0
LINE
  5
171
330
1F
100
AcDbEntity
  8
0
100
AcDbLine
 10
-21.30745033184891
 20
43.81959139665116
 30
0.0
 11
-20.92716864170806
 21
43.85807228196303
 31
0.0
  0
LINE
  5
172
330
1F
100
AcDbEntity
  8
0
100
AcDbLine
 10
-20.92716864170806
 20
43.85807228196303
 30
0.0
 11
-20.64346642842838
 21
43.97351493789865
 31
0.0
  0
LINE
  5
173
330
1F
100
AcDbEntity
  8
0
100
AcDbLine
 10
-20.64346642842838
 20
43.97351493789865
 30
0.0
 11
-20.46690707229156
 21
44.16290125580609
 31
0.0
  0
LINE
  5
174
330
1F
100
AcDbEntity
  8
0
100
AcDbLine
 10
-20.46690707229156
 20
44.16290125580609
 30
0.0
 11
-20.40805395357929
 21
44.42321312703346
 31
0.0
  0
LINE
  5
175
330
1F
100
AcDbEntity
  8
0
100
AcDbLine
 10
-20.40805395357929
 20
44.42321312703346
 30
0.0
 11
-20.52576019100383
 21
44.79444049121857
 31
0.0
  0
LINE
  5
176
330
1F
100
AcDbEntity
  8
0
100
AcDbLine
 10
-20.52576019100383
 20
44.79444049121857
 30
0.0
 11
-20.88189701192939
 21
45.0932332477578
 31
0.0
  0
LINE
  5
177
330
1F
100
AcDbEntity
  8
0
100
AcDbLine
 10
-20.88189701192939
 20
45.0932332477578
 30
0.0
 11
-21.76620284693945
 21
45.47351493789864
 31
0.0
  0
LINE
  5
178
330
1F
100
AcDbEntity
  8
0
100
AcDbLine
 10
-21.76620284693945
 20
45.47351493789864
 30
0.0
 11
-22.67993524130565
 21
45.93679461596705
 31
0.0
  0
LINE
  5
179
330
1F
100
AcDbEntity
  8
0
100
AcDbLine
 10
-22.67993524130565
 20
45.93679461596705
 30
0.0
 11
-23.3326012372815
 21
46.52381674876383
 31
0.0
  0
LINE
  5
17A
330
1F
100
AcDbEntity
  8
0
100
AcDbLine
 10
-23.3326012372815
 20
46.52381674876383
 30
0.0
 11
-23.56103433587305
 21
46.86373123568537
 31
0.0
  0
LINE
  5
17B
330
1F
100
AcDbEntity
  8
0
100
AcDbLine
 10
-23.56103433587305
 20
46.86373123568537
 30
0.0
 11
-23.72420083486701
 21
47.23458133628899
 31
0.0
  0
LINE
  5
17C
330
1F
100
AcDbEntity
  8
0
100
AcDbLine
 10
-23.72420083486701
 20
47.23458133628899
 30
0.0
 11
-23.82210073426339
 21
47.6363670505747
 31
0.0
  0
LINE
  5
17D
330
1F
100
AcDbEntity
  8
0
100
AcDbLine
 10
-23.82210073426339
 20
47.6363670505747
 30
0.0
 11
-23.85473403406218
 21
48.06908837854251
 31
0.0
  0
LINE
  5
17E
330
1F
100
AcDbEntity
  8
0
100
AcDbLine
 10
-23.85473403406218
 20
48.06908837854251
 30
0.0
 11
-23.79512638818693
 21
48.66535346908577
 31
0.0
  0
LINE
  5
17F
330
1F
100
AcDbEntity
  8
0
100
AcDbLine
 10
-23.79512638818693
 20
48.66535346908577
 30
0.0
 11
-23.61630345056118
 21
49.19861554152038
 31
0.0
  0
LINE
  5
180
330
1F
100
AcDbEntity
  8
0
100
AcDbLine
 10
-23.61630345056118
 20
49.19861554152038
 30
0.0
 11
-23.31826522118492
 21
49.66887459584633
 31
0.0
  0
LINE
  5
181
330
1F
100
AcDbEntity
  8
0
100
AcDbLine
 10
-23.31826522118492
 20
49.66887459584633
 30
0.0
 11
-22.90101170005816
 21
50.07613063206364
 31
0.0
  0
LINE
  5
182
330
1F
100
AcDbEntity
  8
0
100
AcDbLine
 10
-22.90101170005816
 20
50.07613063206364
 30
0.0
 11
-22.38340606625534
 21
50.40491584333125
 31
0.0
  0
LINE
  5
183
330
1F
100
AcDbEntity
  8
0
100
AcDbLine
 10
-22.38340606625534
 20
50.40491584333125
 30
0.0
 11
-21.78431149885092
 21
50.6397624228081
 31
0.0
  0
LINE
  5
184
330
1F
100
AcDbEntity
  8
0
100
AcDbLine
 10
-21.78431149885092
 20
50.6397624228081
 30
0.0
 11
-21.10372799784488
 21
50.78067037049422
 31
0.0
  0
LINE
  5
185
330
1F
100
AcDbEntity
  8
0
100
AcDbLine
 10
-21.10372799784488
 20
50.78067037049422
 30
0.0
 11
-20.34165556323723
 21
50.8276396863896
 31
0.0
  0
LINE
  5
186
330
1F
100
AcDbEntity
  8
0
100
AcDbLine
 10
-20.34165556323723
 20
50.8276396863896
 30
0.0
 11
-19.50865757530967
 21
50.79142238256665
 31
0.0
  0
LINE
  5
187
330
1F
100
AcDbEntity
  8
0
100
AcDbLine
 10
-19.50865757530967
 20
50.79142238256665
 30
0.0
 11
-18.81751069402194
 21
50.70087912300932
 31
0.0
  0
LINE
  5
188
330
1F
100
AcDbEntity
  8
0
100
AcDbLine
 10
-18.81751069402194
 20
50.70087912300932
 30
0.0
 11
-17.94527729361953
 21
50.49564773467933
 31
0.0
  0
LINE
  5
189
330
1F
100
AcDbEntity
  8
0
100
AcDbLine
 10
-17.94527729361953
 20
50.49564773467933
 30
0.0
 11
-17.94527729361953
 21
48.29242841878396
 31
0.0
  0
LINE
  5
18A
330
1F
100
AcDbEntity
  8
0
100
AcDbLine
 10
-17.94527729361953
 20
48.29242841878396
 30
0.0
 11
-19.02877829965574
 21
48.74061755359281
 31
0.0
  0
LINE
  5
18B
330
1F
100
AcDbEntity
  8
0
100
AcDbLine
 10
-19.02877829965574
 20
48.74061755359281
 30
0.0
 11
-19.56373805820705
 21
48.85266483729502
 31
0.0
  0
LINE
  5
18C
330
1F
100
AcDbEntity
  8
0
100
AcDbLine
 10
-19.56373805820705
 20
48.85266483729502
 30
0.0
 11
-20.09417065378049
 21
48.89001393186243
 31
0.0
  0
LINE
  5
18D
330
1F
100
AcDbEntity
  8
0
100
AcDbLine
 10
-20.09417065378049
 20
48.89001393186243
 30
0.0
 11
-20.48652477852898
 21
48.84926946506162
 31
0.0
  0
LINE
  5
18E
330
1F
100
AcDbEntity
  8
0
100
AcDbLine
 10
-20.48652477852898
 20
48.84926946506162
 30
0.0
 11
-20.79437186102395
 21
48.72703606465921
 31
0.0
  0
LINE
  5
18F
330
1F
100
AcDbEntity
  8
0
100
AcDbLine
 10
-20.79437186102395
 20
48.72703606465921
 30
0.0
 11
-20.99356703205011
 21
48.53387711093688
 31
0.0
  0
LINE
  5
190
330
1F
100
AcDbEntity
  8
0
100
AcDbLine
 10
-20.99356703205011
 20
48.53387711093688
 30
0.0
 11
-21.05996542239216
 21
48.28035598417632
 31
0.0
  0
LINE
  5
191
330
1F
100
AcDbEntity
  8
0
100
AcDbLine
 10
-21.05996542239216
 20
48.28035598417632
 30
0.0
 11
-21.00639399382073
 21
48.03211654755659
 31
0.0
  0
LINE
  5
192
330
1F
100
AcDbEntity
  8
0
100
AcDbLine
 10
-21.00639399382073
 20
48.03211654755659
 30
0.0
 11
-20.84567970810645
 21
47.8306577950415
 31
0.0
  0
LINE
  5
193
330
1F
100
AcDbEntity
  8
0
100
AcDbLine
 10
-20.84567970810645
 20
47.8306577950415
 30
0.0
 11
-19.94930143848874
 21
47.36888717129905
 31
0.0
  0
LINE
  5
194
330
1F
100
AcDbEntity
  8
0
100
AcDbLine
 10
-19.94930143848874
 20
47.36888717129905
 30
0.0
 11
-18.80015656927345
 21
46.79997369041374
 31
0.0
  0
LINE
  5
195
330
1F
100
AcDbEntity
  8
0
100
AcDbLine
 10
-18.80015656927345
 20
46.79997369041374
 30
0.0
 11
-18.37328282681872
 21
46.49627650731514
 31
0.0
  0
LINE
  5
196
330
1F
100
AcDbEntity
  8
0
100
AcDbLine
 10
-18.37328282681872
 20
46.49627650731514
 30
0.0
 11
-18.04487487913261
 21
46.17975236244593
 31
0.0
  0
LINE
  5
197
330
1F
100
AcDbEntity
  8
0
100
AcDbLine
 10
-18.04487487913261
 20
46.17975236244593
 30
0.0
 11
-17.80059671011852
 21
45.84172419343184
 31
0.0
  0
LINE
  5
198
330
1F
100
AcDbEntity
  8
0
100
AcDbLine
 10
-17.80059671011852
 20
45.84172419343184
 30
0.0
 11
-17.62611230367989
 21
45.47351493789864
 31
0.0
  0
LINE
  5
199
330
1F
100
AcDbEntity
  8
0
100
AcDbLine
 10
-17.62611230367989
 20
45.47351493789864
 30
0.0
 11
-17.52142165981671
 21
45.07512459584633
 31
0.0
  0
LINE
  5
19A
330
1F
100
AcDbEntity
  8
0
100
AcDbLine
 10
-17.52142165981671
 20
45.07512459584633
 30
0.0
 11
-17.48652477852898
 21
44.6465531672749
 31
0.0
  0
LINE
  5
19B
330
1F
100
AcDbEntity
  8
0
100
AcDbLine
 10
-12.31348654915272
 20
42.11134189966927
 30
0.0
 11
-12.88692719301591
 21
41.95138214111796
 31
0.0
  0
LINE
  5
19C
330
1F
100
AcDbEntity
  8
0
100
AcDbLine
 10
-12.88692719301591
 20
41.95138214111796
 30
0.0
 11
-13.84668574432375
 21
41.87592942482018
 31
0.0
  0
LINE
  5
19D
330
1F
100
AcDbEntity
  8
0
100
AcDbLine
 10
-13.84668574432375
 20
41.87592942482018
 30
0.0
 11
-14.3546711567986
 21
41.91290125580609
 31
0.0
  0
LINE
  5
19E
330
1F
100
AcDbEntity
  8
0
100
AcDbLine
 10
-14.3546711567986
 20
41.91290125580609
 30
0.0
 11
-14.80418071414267
 21
42.02381674876383
 31
0.0
  0
LINE
  5
19F
330
1F
100
AcDbEntity
  8
0
100
AcDbLine
 10
-14.80418071414267
 20
42.02381674876383
 30
0.0
 11
-15.19521441635595
 21
42.20867590369342
 31
0.0
  0
LINE
  5
1A0
330
1F
100
AcDbEntity
  8
0
100
AcDbLine
 10
-15.19521441635595
 20
42.20867590369342
 30
0.0
 11
-15.52777226343844
 21
42.46747872059482
 31
0.0
  0
LINE
  5
1A1
330
1F
100
AcDbEntity
  8
0
100
AcDbLine
 10
-15.52777226343844
 20
42.46747872059482
 30
0.0
 11
-15.7931771930159
 21
42.79456624574573
 31
0.0
  0
LINE
  5
1A2
330
1F
100
AcDbEntity
  8
0
100
AcDbLine
 10
-15.7931771930159
 20
42.79456624574573
 30
0.0
 11
-15.98275214271409
 21
43.1842795254238
 31
0.0
  0
LINE
  5
1A3
330
1F
100
AcDbEntity
  8
0
100
AcDbLine
 10
-15.98275214271409
 20
43.1842795254238
 30
0.0
 11
-16.09649711253301
 21
43.63661855962903
 31
0.0
  0
LINE
  5
1A4
330
1F
100
AcDbEntity
  8
0
100
AcDbLine
 10
-16.09649711253301
 20
43.63661855962903
 30
0.0
 11
-16.13441210247264
 21
44.15158334836142
 31
0.0
  0
LINE
  5
1A5
330
1F
100
AcDbEntity
  8
0
100
AcDbLine
 10
-16.13441210247264
 20
44.15158334836142
 30
0.0
 11
-16.13441210247264
 21
46.42723727190267
 31
0.0
  0
LINE
  5
1A6
330
1F
100
AcDbEntity
  8
0
100
AcDbLine
 10
-16.13441210247264
 20
46.42723727190267
 30
0.0
 11
-17.10624308838814
 21
46.42723727190267
 31
0.0
  0
LINE
  5
1A7
330
1F
100
AcDbEntity
  8
0
100
AcDbLine
 10
-17.10624308838814
 20
46.42723727190267
 30
0.0
 11
-17.10624308838814
 21
48.20792137653044
 31
0.0
  0
LINE
  5
1A8
330
1F
100
AcDbEntity
  8
0
100
AcDbLine
 10
-17.10624308838814
 20
48.20792137653044
 30
0.0
 11
-16.13441210247264
 21
48.20792137653044
 31
0.0
  0
LINE
  5
1A9
330
1F
100
AcDbEntity
  8
0
100
AcDbLine
 10
-16.13441210247264
 20
48.20792137653044
 30
0.0
 11
-16.13441210247264
 21
49.42120105459885
 31
0.0
  0
LINE
  5
1AA
330
1F
100
AcDbEntity
  8
0
100
AcDbLine
 10
-16.13441210247264
 20
49.42120105459885
 30
0.0
 11
-13.59920083486701
 21
50.12140226184231
 31
0.0
  0
LINE
  5
1AB
330
1F
100
AcDbEntity
  8
0
100
AcDbLine
 10
-13.59920083486701
 20
50.12140226184231
 30
0.0
 11
-13.59920083486701
 21
48.20792137653044
 31
0.0
  0
LINE
  5
1AC
330
1F
100
AcDbEntity
  8
0
100
AcDbLine
 10
-13.59920083486701
 20
48.20792137653044
 30
0.0
 11
-12.31348654915272
 21
48.20792137653044
 31
0.0
  0
LINE
  5
1AD
330
1F
100
AcDbEntity
  8
0
100
AcDbLine
 10
-12.31348654915272
 20
48.20792137653044
 30
0.0
 11
-12.31348654915272
 21
46.42723727190267
 31
0.0
  0
LINE
  5
1AE
330
1F
100
AcDbEntity
  8
0
100
AcDbLine
 10
-12.31348654915272
 20
46.42723727190267
 30
0.0
 11
-13.59920083486701
 21
46.42723727190267
 31
0.0
  0
LINE
  5
1AF
330
1F
100
AcDbEntity
  8
0
100
AcDbLine
 10
-13.59920083486701
 20
46.42723727190267
 30
0.0
 11
-13.59920083486701
 21
44.57411855962903
 31
0.0
  0
LINE
  5
1B0
330
1F
100
AcDbEntity
  8
0
100
AcDbLine
 10
-13.59920083486701
 20
44.57411855962903
 30
0.0
 11
-13.55883363164769
 21
44.21760447512199
 31
0.0
  0
LINE
  5
1B1
330
1F
100
AcDbEntity
  8
0
100
AcDbLine
 10
-13.55883363164769
 20
44.21760447512199
 30
0.0
 11
-13.43773202198975
 21
43.96295155761695
 31
0.0
  0
LINE
  5
1B2
330
1F
100
AcDbEntity
  8
0
100
AcDbLine
 10
-13.43773202198975
 20
43.96295155761695
 30
0.0
 11
-13.23589600589317
 21
43.81015980711393
 31
0.0
  0
LINE
  5
1B3
330
1F
100
AcDbEntity
  8
0
100
AcDbLine
 10
-13.23589600589317
 20
43.81015980711393
 30
0.0
 11
-12.95332558335796
 21
43.75922922361293
 31
0.0
  0
LINE
  5
1B4
330
1F
100
AcDbEntity
  8
0
100
AcDbLine
 10
-12.95332558335796
 20
43.75922922361293
 30
0.0
 11
-12.31348654915272
 21
43.89202600429704
 31
0.0
  0
LINE
  5
1B5
330
1F
100
AcDbEntity
  8
0
100
AcDbLine
 10
-12.31348654915272
 20
43.89202600429704
 30
0.0
 11
-12.31348654915272
 21
42.11134189966927
 31
0.0
  0
LINE
  5
1B6
330
1F
100
AcDbEntity
  8
0
100
AcDbLine
 10
-6.862782323800613
 20
46.00470206063506
 30
0.0
 11
-7.255136448549104
 21
46.12542640671152
 31
0.0
  0
LINE
  5
1B7
330
1F
100
AcDbEntity
  8
0
100
AcDbLine
 10
-7.255136448549104
 20
46.12542640671152
 30
0.0
 11
-7.665599225209062
 21
46.17975236244593
 31
0.0
  0
LINE
  5
1B8
330
1F
100
AcDbEntity
  8
0
100
AcDbLine
 10
-7.665599225209062
 20
46.17975236244593
 30
0.0
 11
-8.22281753506822
 21
46.08770004856263
 31
0.0
  0
LINE
  5
1B9
330
1F
100
AcDbEntity
  8
0
100
AcDbLine
 10
-8.22281753506822
 20
46.08770004856263
 30
0.0
 11
-8.620830613539045
 21
45.81154310691273
 31
0.0
  0
LINE
  5
1BA
330
1F
100
AcDbEntity
  8
0
100
AcDbLine
 10
-8.620830613539045
 20
45.81154310691273
 30
0.0
 11
-8.85963846062154
 21
45.35128153749623
 31
0.0
  0
LINE
  5
1BB
330
1F
100
AcDbEntity
  8
0
100
AcDbLine
 10
-8.85963846062154
 20
45.35128153749623
 30
0.0
 11
-8.939241076315705
 21
44.70691534031313
 31
0.0
  0
LINE
  5
1BC
330
1F
100
AcDbEntity
  8
0
100
AcDbLine
 10
-8.939241076315705
 20
44.70691534031313
 30
0.0
 11
-8.939241076315705
 21
42.02683485741575
 31
0.0
  0
LINE
  5
1BD
330
1F
100
AcDbEntity
  8
0
100
AcDbLine
 10
-8.939241076315705
 20
42.02683485741575
 30
0.0
 11
-11.51066964774427
 21
42.02683485741575
 31
0.0
  0
LINE
  5
1BE
330
1F
100
AcDbEntity
  8
0
100
AcDbLine
 10
-11.51066964774427
 20
42.02683485741575
 30
0.0
 11
-11.51066964774427
 21
48.20792137653044
 31
0.0
  0
LINE
  5
1BF
330
1F
100
AcDbEntity
  8
0
100
AcDbLine
 10
-11.51066964774427
 20
48.20792137653044
 30
0.0
 11
-8.939241076315705
 21
48.20792137653044
 31
0.0
  0
LINE
  5
1C0
330
1F
100
AcDbEntity
  8
0
100
AcDbLine
 10
-8.939241076315705
 20
48.20792137653044
 30
0.0
 11
-8.939241076315705
 21
47.12140226184231
 31
0.0
  0
LINE
  5
1C1
330
1F
100
AcDbEntity
  8
0
100
AcDbLine
 10
-8.915096207100412
 20
47.12140226184231
 30
0.0
 11
-8.629884939494778
 21
47.63674431415619
 31
0.0
  0
LINE
  5
1C2
330
1F
100
AcDbEntity
  8
0
100
AcDbLine
 10
-8.629884939494778
 20
47.63674431415619
 30
0.0
 11
-8.245076086376065
 21
48.01174431415619
 31
0.0
  0
LINE
  5
1C3
330
1F
100
AcDbEntity
  8
0
100
AcDbLine
 10
-8.245076086376065
 20
48.01174431415619
 30
0.0
 11
-7.774251136677877
 21
48.24036604453848
 31
0.0
  0
LINE
  5
1C4
330
1F
100
AcDbEntity
  8
0
100
AcDbLine
 10
-7.774251136677877
 20
48.24036604453848
 30
0.0
 11
-7.230991579333812
 21
48.31657328799925
 31
0.0
  0
LINE
  5
1C5
330
1F
100
AcDbEntity
  8
0
100
AcDbLine
 10
-7.230991579333812
 20
48.31657328799925
 30
0.0
 11
-6.862782323800613
 21
48.24413868035337
 31
0.0
  0
LINE
  5
1C6
330
1F
100
AcDbEntity
  8
0
100
AcDbLine
 10
-6.862782323800613
 20
48.24413868035337
 30
0.0
 11
-6.862782323800613
 21
46.00470206063506
 31
0.0
  0
LINE
  5
1C7
330
1F
100
AcDbEntity
  8
0
100
AcDbLine
 10
-2.691756166858963
 20
42.02683485741575
 30
0.0
 11
-2.691756166858963
 21
42.96848475681212
 31
0.0
  0
LINE
  5
1C8
330
1F
100
AcDbEntity
  8
0
100
AcDbLine
 10
-2.715901036074255
 20
42.96848475681212
 30
0.0
 11
-3.064492585370031
 21
42.49049179906564
 31
0.0
  0
LINE
  5
1C9
330
1F
100
AcDbEntity
  8
0
100
AcDbLine
 10
-3.064492585370031
 20
42.49049179906564
 30
0.0
 11
-3.494573068267415
 21
42.14906825781816
 31
0.0
  0
LINE
  5
1CA
330
1F
100
AcDbEntity
  8
0
100
AcDbLine
 10
-3.494573068267415
 20
42.14906825781816
 30
0.0
 11
-4.006142484766408
 21
41.94421413306967
 31
0.0
  0
LINE
  5
1CB
330
1F
100
AcDbEntity
  8
0
100
AcDbLine
 10
-4.006142484766408
 20
41.94421413306967
 30
0.0
 11
-4.59920083486701
 21
41.87592942482018
 31
0.0
  0
LINE
  5
1CC
330
1F
100
AcDbEntity
  8
0
100
AcDbLine
 10
-4.59920083486701
 20
41.87592942482018
 30
0.0
 11
-5.01305898376037
 21
41.90837409282823
 31
0.0
  0
LINE
  5
1CD
330
1F
100
AcDbEntity
  8
0
100
AcDbLine
 10
-5.01305898376037
 20
41.90837409282823
 30
0.0
 11
-5.379381921386127
 21
42.00570809685237
 31
0.0
  0
LINE
  5
1CE
330
1F
100
AcDbEntity
  8
0
100
AcDbLine
 10
-5.379381921386127
 20
42.00570809685237
 30
0.0
 11
-5.698169647744277
 21
42.16793143689261
 31
0.0
  0
LINE
  5
1CF
330
1F
100
AcDbEntity
  8
0
100
AcDbLine
 10
-5.698169647744277
 20
42.16793143689261
 30
0.0
 11
-5.969422162834817
 21
42.39504411294894
 31
0.0
  0
LINE
  5
1D0
330
1F
100
AcDbEntity
  8
0
100
AcDbLine
 10
-5.969422162834817
 20
42.39504411294894
 30
0.0
 11
-6.185971458609465
 21
42.67648274473969
 31
0.0
  0
LINE
  5
1D1
330
1F
100
AcDbEntity
  8
0
100
AcDbLine
 10
-6.185971458609465
 20
42.67648274473969
 30
0.0
 11
-6.34064952701993
 21
43.00168395198315
 31
0.0
  0
LINE
  5
1D2
330
1F
100
AcDbEntity
  8
0
100
AcDbLine
 10
-6.34064952701993
 20
43.00168395198315
 30
0.0
 11
-6.433456368066206
 21
43.37064773467933
 31
0.0
  0
LINE
  5
1D3
330
1F
100
AcDbEntity
  8
0
100
AcDbLine
 10
-6.433456368066206
 20
43.37064773467933
 30
0.0
 11
-6.4643919817483
 21
43.78337409282822
 31
0.0
  0
LINE
  5
1D4
330
1F
100
AcDbEntity
  8
0
100
AcDbLine
 10
-6.4643919817483
 20
43.78337409282822
 30
0.0
 11
-6.429400784565201
 21
44.21515226184231
 31
0.0
  0
LINE
  5
1D5
330
1F
100
AcDbEntity
  8
0
100
AcDbLine
 10
-6.429400784565201
 20
44.21515226184231
 30
0.0
 11
-6.324427193015904
 21
44.59901795600729
 31
0.0
  0
LINE
  5
1D6
330
1F
100
AcDbEntity
  8
0
100
AcDbLine
 10
-6.324427193015904
 20
44.59901795600729
 30
0.0
 11
-6.14947120710041
 21
44.93497117532319
 31
0.0
  0
LINE
  5
1D7
330
1F
100
AcDbEntity
  8
0
100
AcDbLine
 10
-6.14947120710041
 20
44.93497117532319
 30
0.0
 11
-5.904532826818719
 21
45.22301191978999
 31
0.0
  0
LINE
  5
1D8
330
1F
100
AcDbEntity
  8
0
100
AcDbLine
 10
-5.904532826818719
 20
45.22301191978999
 30
0.0
 11
-5.589612052170833
 21
45.4631401894077
 31
0.0
  0
LINE
  5
1D9
330
1F
100
AcDbEntity
  8
0
100
AcDbLine
 10
-5.589612052170833
 20
45.4631401894077
 30
0.0
 11
-5.204708883156746
 21
45.65535598417632
 31
0.0
  0
LINE
  5
1DA
330
1F
100
AcDbEntity
  8
0
100
AcDbLine
 10
-5.204708883156746
 20
45.65535598417632
 30
0.0
 11
-4.224955362029988
 21
45.89605014916625
 31
0.0
  0
LINE
  5
1DB
330
1F
100
AcDbEntity
  8
0
100
AcDbLine
 10
-4.224955362029988
 20
45.89605014916625
 30
0.0
 11
-2.691756166858963
 21
46.09524532019241
 31
0.0
  0
LINE
  5
1DC
330
1F
100
AcDbEntity
  8
0
100
AcDbLine
 10
-2.691756166858963
 20
46.09524532019241
 30
0.0
 11
-2.75966361152697
 21
46.36989320751635
 31
0.0
  0
LINE
  5
1DD
330
1F
100
AcDbEntity
  8
0
100
AcDbLine
 10
-2.75966361152697
 20
46.36989320751635
 30
0.0
 11
-2.963385945530996
 21
46.59021513910589
 31
0.0
  0
LINE
  5
1DE
330
1F
100
AcDbEntity
  8
0
100
AcDbLine
 10
-2.963385945530996
 20
46.59021513910589
 30
0.0
 11
-3.281796408307656
 21
46.73508435439764
 31
0.0
  0
LINE
  5
1DF
330
1F
100
AcDbEntity
  8
0
100
AcDbLine
 10
-3.281796408307656
 20
46.73508435439764
 30
0.0
 11
-3.693768239293572
 21
46.78337409282822
 31
0.0
  0
LINE
  5
1E0
330
1F
100
AcDbEntity
  8
0
100
AcDbLine
 10
-3.693768239293572
 20
46.78337409282822
 30
0.0
 11
-4.220050935470634
 21
46.74640226184231
 31
0.0
  0
LINE
  5
1E1
330
1F
100
AcDbEntity
  8
0
100
AcDbLine
 10
-4.220050935470634
 20
46.74640226184231
 30
0.0
 11
-4.760669647744276
 21
46.63548676888456
 31
0.0
  0
LINE
  5
1E2
330
1F
100
AcDbEntity
  8
0
100
AcDbLine
 10
-4.760669647744276
 20
46.63548676888456
 30
0.0
 11
-5.884915120581296
 21
46.19182479705358
 31
0.0
  0
LINE
  5
1E3
330
1F
100
AcDbEntity
  8
0
100
AcDbLine
 10
-5.884915120581296
 20
46.19182479705358
 30
0.0
 11
-5.884915120581296
 21
47.86385699021253
 31
0.0
  0
LINE
  5
1E4
330
1F
100
AcDbEntity
  8
0
100
AcDbLine
 10
-5.884915120581296
 20
47.86385699021253
 30
0.0
 11
-5.320528802673853
 21
48.06154310691273
 31
0.0
  0
LINE
  5
1E5
330
1F
100
AcDbEntity
  8
0
100
AcDbLine
 10
-5.320528802673853
 20
48.06154310691273
 30
0.0
 11
-4.629381921386126
 21
48.21999381113808
 31
0.0
  0
LINE
  5
1E6
330
1F
100
AcDbEntity
  8
0
100
AcDbLine
 10
-4.629381921386126
 20
48.21999381113808
 30
0.0
 11
-3.337631418368018
 21
48.35882680912601
 31
0.0
  0
LINE
  5
1E7
330
1F
100
AcDbEntity
  8
0
100
AcDbLine
 10
-3.337631418368018
 20
48.35882680912601
 30
0.0
 11
-2.604042384162785
 21
48.31676191979
 31
0.0
  0
LINE
  5
1E8
330
1F
100
AcDbEntity
  8
0
100
AcDbLine
 10
-2.604042384162785
 20
48.31676191979
 30
0.0
 11
-1.978727997844878
 21
48.19056725178194
 31
0.0
  0
LINE
  5
1E9
330
1F
100
AcDbEntity
  8
0
100
AcDbLine
 10
-1.978727997844878
 20
48.19056725178194
 30
0.0
 11
-1.461688259414296
 21
47.98024280510187
 31
0.0
  0
LINE
  5
1EA
330
1F
100
AcDbEntity
  8
0
100
AcDbLine
 10
-1.461688259414296
 20
47.98024280510187
 30
0.0
 11
-1.052923168871035
 21
47.68578857974975
 31
0.0
  0
LINE
  5
1EB
330
1F
100
AcDbEntity
  8
0
100
AcDbLine
 10
-1.052923168871035
 20
47.68578857974975
 30
0.0
 11
-0.7426238730963852
 21
47.29286855962903
 31
0.0
  0
LINE
  5
1EC
330
1F
100
AcDbEntity
  8
0
100
AcDbLine
 10
-0.7426238730963852
 20
47.29286855962903
 30
0.0
 11
-0.5209815189716357
 21
46.78714672864311
 31
0.0
  0
LINE
  5
1ED
330
1F
100
AcDbEntity
  8
0
100
AcDbLine
 10
-0.5209815189716357
 20
46.78714672864311
 30
0.0
 11
-0.3879961064967888
 21
46.168623086792
 31
0.0
  0
LINE
  5
1EE
330
1F
100
AcDbEntity
  8
0
100
AcDbLine
 10
-0.3879961064967888
 20
46.168623086792
 30
0.0
 11
-0.3436676356718389
 21
45.43729763407571
 31
0.0
  0
LINE
  5
1EF
330
1F
100
AcDbEntity
  8
0
100
AcDbLine
 10
-0.3436676356718389
 20
45.43729763407571
 30
0.0
 11
-0.3436676356718389
 21
42.02683485741575
 31
0.0
  0
LINE
  5
1F0
330
1F
100
AcDbEntity
  8
0
100
AcDbLine
 10
-0.3436676356718389
 20
42.02683485741575
 30
0.0
 11
-2.691756166858963
 21
42.02683485741575
 31
0.0
  0
LINE
  5
1F1
330
1F
100
AcDbEntity
  8
0
100
AcDbLine
 10
-4.212882927422343
 20
44.12743847914614
 30
0.0
 11
-4.172892987784515
 21
43.8965531672749
 31
0.0
  0
LINE
  5
1F2
330
1F
100
AcDbEntity
  8
0
100
AcDbLine
 10
-4.172892987784515
 20
43.8965531672749
 30
0.0
 11
-4.052923168871034
 21
43.71093948518235
 31
0.0
  0
LINE
  5
1F3
330
1F
100
AcDbEntity
  8
0
100
AcDbLine
 10
-4.052923168871034
 20
43.71093948518235
 30
0.0
 11
-3.859009687985724
 21
43.58870608477994
 31
0.0
  0
LINE
  5
1F4
330
1F
100
AcDbEntity
  8
0
100
AcDbLine
 10
-3.859009687985724
 20
43.58870608477994
 30
0.0
 11
-3.597188762432404
 21
43.54796161797913
 31
0.0
  0
LINE
  5
1F5
330
1F
100
AcDbEntity
  8
0
100
AcDbLine
 10
-3.597188762432404
 20
43.54796161797913
 30
0.0
 11
-3.231243088388137
 21
43.62341433427692
 31
0.0
  0
LINE
  5
1F6
330
1F
100
AcDbEntity
  8
0
100
AcDbLine
 10
-3.231243088388137
 20
43.62341433427692
 30
0.0
 11
-2.942259184967616
 21
43.84977248317028
 31
0.0
  0
LINE
  5
1F7
330
1F
100
AcDbEntity
  8
0
100
AcDbLine
 10
-2.942259184967616
 20
43.84977248317028
 30
0.0
 11
-2.754381921386126
 21
44.19383686948818
 31
0.0
  0
LINE
  5
1F8
330
1F
100
AcDbEntity
  8
0
100
AcDbLine
 10
-2.754381921386126
 20
44.19383686948818
 30
0.0
 11
-2.691756166858963
 21
44.62240829805961
 31
0.0
  0
LINE
  5
1F9
330
1F
100
AcDbEntity
  8
0
100
AcDbLine
 10
-2.691756166858963
 20
44.62240829805961
 30
0.0
 11
-2.691756166858963
 21
44.8578207729087
 31
0.0
  0
LINE
  5
1FA
330
1F
100
AcDbEntity
  8
0
100
AcDbLine
 10
-2.691756166858963
 20
44.8578207729087
 30
0.0
 11
-3.560971458609467
 21
44.73709642683225
 31
0.0
  0
LINE
  5
1FB
330
1F
100
AcDbEntity
  8
0
100
AcDbLine
 10
-3.560971458609467
 20
44.73709642683225
 30
0.0
 11
-3.846182726215099
 21
44.65824833830106
 31
0.0
  0
LINE
  5
1FC
330
1F
100
AcDbEntity
  8
0
100
AcDbLine
 10
-3.846182726215099
 20
44.65824833830106
 30
0.0
 11
-4.049905060219126
 21
44.53035598417631
 31
0.0
  0
LINE
  5
1FD
330
1F
100
AcDbEntity
  8
0
100
AcDbLine
 10
-4.049905060219126
 20
44.53035598417631
 30
0.0
 11
-4.17213846062154
 21
44.353419364458
 31
0.0
  0
LINE
  5
1FE
330
1F
100
AcDbEntity
  8
0
100
AcDbLine
 10
-4.17213846062154
 20
44.353419364458
 30
0.0
 11
-4.212882927422343
 21
44.12743847914614
 31
0.0
  0
LINE
  5
1FF
330
1F
100
AcDbEntity
  8
0
100
AcDbLine
 10
3.53762009068631
 20
49.87391735238557
 30
0.0
 11
3.438777032336213
 21
49.381965642124
 31
0.0
  0
LINE
  5
200
330
1F
100
AcDbEntity
  8
0
100
AcDbLine
 10
3.438777032336213
 20
49.381965642124
 30
0.0
 11
3.142247857285905
 21
48.99262962602742
 31
0.0
  0
LINE
  5
201
330
1F
100
AcDbEntity
  8
0
100
AcDbLine
 10
3.142247857285905
 20
48.99262962602742
 30
0.0
 11
2.684249869358339
 21
48.73910849926686
 31
0.0
  0
LINE
  5
202
330
1F
100
AcDbEntity
  8
0
100
AcDbLine
 10
2.684249869358339
 20
48.73910849926686
 30
0.0
 11
2.101000372376448
 21
48.65460145701334
 31
0.0
  0
LINE
  5
203
330
1F
100
AcDbEntity
  8
0
100
AcDbLine
 10
2.101000372376448
 20
48.65460145701334
 30
0.0
 11
1.529823310002203
 21
48.74212660791877
 31
0.0
  0
LINE
  5
204
330
1F
100
AcDbEntity
  8
0
100
AcDbLine
 10
1.529823310002203
 20
48.74212660791877
 30
0.0
 11
1.071825322074638
 21
49.00470206063506
 31
0.0
  0
LINE
  5
205
330
1F
100
AcDbEntity
  8
0
100
AcDbLine
 10
1.071825322074638
 20
49.00470206063506
 30
0.0
 11
0.7707689840464718
 21
49.39705618538355
 31
0.0
  0
LINE
  5
206
330
1F
100
AcDbEntity
  8
0
100
AcDbLine
 10
0.7707689840464718
 20
49.39705618538355
 30
0.0
 11
0.6704168713704146
 21
49.87391735238557
 31
0.0
  0
LINE
  5
207
330
1F
100
AcDbEntity
  8
0
100
AcDbLine
 10
0.6704168713704146
 20
49.87391735238557
 30
0.0
 11
0.7677508753945571
 21
50.35455115520247
 31
0.0
  0
LINE
  5
208
330
1F
100
AcDbEntity
  8
0
100
AcDbLine
 10
0.7677508753945571
 20
50.35455115520247
 30
0.0
 11
1.05975288746699
 21
50.73407831818034
 31
0.0
  0
LINE
  5
209
330
1F
100
AcDbEntity
  8
0
100
AcDbLine
 10
1.05975288746699
 20
50.73407831818034
 30
0.0
 11
1.514732766742641
 21
50.9808087004741
 31
0.0
  0
LINE
  5
20A
330
1F
100
AcDbEntity
  8
0
100
AcDbLine
 10
1.514732766742641
 20
50.9808087004741
 30
0.0
 11
2.101000372376448
 21
51.06305216123869
 31
0.0
  0
LINE
  5
20B
330
1F
100
AcDbEntity
  8
0
100
AcDbLine
 10
2.101000372376448
 20
51.06305216123869
 30
0.0
 11
2.684249869358339
 21
50.9808087004741
 31
0.0
  0
LINE
  5
20C
330
1F
100
AcDbEntity
  8
0
100
AcDbLine
 10
2.684249869358339
 20
50.9808087004741
 30
0.0
 11
3.142247857285905
 21
50.73407831818034
 31
0.0
  0
LINE
  5
20D
330
1F
100
AcDbEntity
  8
0
100
AcDbLine
 10
3.142247857285905
 20
50.73407831818034
 30
0.0
 11
3.438777032336213
 21
50.35455115520247
 31
0.0
  0
LINE
  5
20E
330
1F
100
AcDbEntity
  8
0
100
AcDbLine
 10
3.438777032336213
 20
50.35455115520247
 30
0.0
 11
3.53762009068631
 21
49.87391735238557
 31
0.0
  0
LINE
  5
20F
330
1F
100
AcDbEntity
  8
0
100
AcDbLine
 10
0.815286086662164
 20
42.02683485741575
 30
0.0
 11
0.815286086662164
 21
48.20792137653044
 31
0.0
  0
LINE
  5
210
330
1F
100
AcDbEntity
  8
0
100
AcDbLine
 10
0.815286086662164
 20
48.20792137653044
 30
0.0
 11
3.386714658090734
 21
48.20792137653044
 31
0.0
  0
LINE
  5
211
330
1F
100
AcDbEntity
  8
0
100
AcDbLine
 10
3.386714658090734
 20
48.20792137653044
 30
0.0
 11
3.386714658090734
 21
42.02683485741575
 31
0.0
  0
LINE
  5
212
330
1F
100
AcDbEntity
  8
0
100
AcDbLine
 10
3.386714658090734
 20
42.02683485741575
 30
0.0
 11
0.815286086662164
 21
42.02683485741575
 31
0.0
  0
LINE
  5
213
330
1F
100
AcDbEntity
  8
0
100
AcDbLine
 10
11.3243404126179
 20
42.89001393186243
 30
0.0
 11
11.2543580182517
 21
42.04890477693285
 31
0.0
  0
LINE
  5
214
330
1F
100
AcDbEntity
  8
0
100
AcDbLine
 10
11.2543580182517
 20
42.04890477693285
 30
0.0
 11
11.04441083515311
 21
41.30626141677189
 31
0.0
  0
LINE
  5
215
330
1F
100
AcDbEntity
  8
0
100
AcDbLine
 10
11.04441083515311
 20
41.30626141677189
 30
0.0
 11
10.69449886332213
 21
40.66208385137953
 31
0.0
  0
LINE
  5
216
330
1F
100
AcDbEntity
  8
0
100
AcDbLine
 10
10.69449886332213
 20
40.66208385137953
 30
0.0
 11
10.20462210275874
 21
40.11637208075579
 31
0.0
  0
LINE
  5
217
330
1F
100
AcDbEntity
  8
0
100
AcDbLine
 10
10.20462210275874
 20
40.11637208075579
 30
0.0
 11
9.580439507185309
 21
39.68195306667128
 31
0.0
  0
LINE
  5
218
330
1F
100
AcDbEntity
  8
0
100
AcDbLine
 10
9.580439507185309
 20
39.68195306667128
 30
0.0
 11
8.827610030324138
 21
39.37165377089664
 31
0.0
  0
LINE
  5
219
330
1F
100
AcDbEntity
  8
0
100
AcDbLine
 10
8.827610030324138
 20
39.37165377089664
 30
0.0
 11
7.946133672175247
 21
39.18547419343184
 31
0.0
  0
LINE
  5
21A
330
1F
100
AcDbEntity
  8
0
100
AcDbLine
 10
7.946133672175247
 20
39.18547419343184
 30
0.0
 11
6.936010432738624
 21
39.12341433427692
 31
0.0
  0
LINE
  5
21B
330
1F
100
AcDbEntity
  8
0
100
AcDbLine
 10
6.936010432738624
 20
39.12341433427692
 30
0.0
 11
5.813274014227555
 21
39.21395759383426
 31
0.0
  0
LINE
  5
21C
330
1F
100
AcDbEntity
  8
0
100
AcDbLine
 10
5.813274014227555
 20
39.21395759383426
 30
0.0
 11
5.034601982034398
 21
39.41918898216424
 31
0.0
  0
LINE
  5
21D
330
1F
100
AcDbEntity
  8
0
100
AcDbLine
 10
5.034601982034398
 20
39.41918898216424
 30
0.0
 11
5.034601982034398
 21
41.4352855616411
 31
0.0
  0
LINE
  5
21E
330
1F
100
AcDbEntity
  8
0
100
AcDbLine
 10
5.034601982034398
 20
41.4352855616411
 30
0.0
 11
5.454119084650093
 21
41.21798173870348
 31
0.0
  0
LINE
  5
21F
330
1F
100
AcDbEntity
  8
0
100
AcDbLine
 10
5.454119084650093
 20
41.21798173870348
 30
0.0
 11
5.940034577607836
 21
41.04896765419643
 31
0.0
  0
LINE
  5
220
330
1F
100
AcDbEntity
  8
0
100
AcDbLine
 10
5.940034577607836
 20
41.04896765419643
 30
0.0
 11
6.863575825092745
 21
40.90409843890468
 31
0.0
  0
LINE
  5
221
330
1F
100
AcDbEntity
  8
0
100
AcDbLine
 10
6.863575825092745
 20
40.90409843890468
 30
0.0
 11
7.640738802959953
 21
41.00822318739563
 31
0.0
  0
LINE
  5
222
330
1F
100
AcDbEntity
  8
0
100
AcDbLine
 10
7.640738802959953
 20
41.00822318739563
 30
0.0
 11
8.2458695876682
 21
41.32059743286846
 31
0.0
  0
LINE
  5
223
330
1F
100
AcDbEntity
  8
0
100
AcDbLine
 10
8.2458695876682
 20
41.32059743286846
 30
0.0
 11
8.472982263724544
 21
41.54582379101736
 31
0.0
  0
LINE
  5
224
330
1F
100
AcDbEntity
  8
0
100
AcDbLine
 10
8.472982263724544
 20
41.54582379101736
 30
0.0
 11
8.635205603764781
 21
41.80500387150025
 31
0.0
  0
LINE
  5
225
330
1F
100
AcDbEntity
  8
0
100
AcDbLine
 10
8.635205603764781
 20
41.80500387150025
 30
0.0
 11
8.732539607788924
 21
42.09813767431716
 31
0.0
  0
LINE
  5
226
330
1F
100
AcDbEntity
  8
0
100
AcDbLine
 10
8.732539607788924
 20
42.09813767431716
 30
0.0
 11
8.764984275796971
 21
42.42522519946806
 31
0.0
  0
LINE
  5
227
330
1F
100
AcDbEntity
  8
0
100
AcDbLine
 10
8.764984275796971
 20
42.42522519946806
 30
0.0
 11
8.764984275796971
 21
42.80550688960891
 31
0.0
  0
LINE
  5
228
330
1F
100
AcDbEntity
  8
0
100
AcDbLine
 10
8.740839406581681
 20
42.80550688960891
 30
0.0
 11
8.411111036360358
 21
42.42522519946806
 31
0.0
  0
LINE
  5
229
330
1F
100
AcDbEntity
  8
0
100
AcDbLine
 10
8.411111036360358
 20
42.42522519946806
 30
0.0
 11
7.977257917648082
 21
42.12945055158074
 31
0.0
  0
LINE
  5
22A
330
1F
100
AcDbEntity
  8
0
100
AcDbLine
 10
7.977257917648082
 20
42.12945055158074
 30
0.0
 11
7.473988299941841
 21
41.93930970651031
 31
0.0
  0
LINE
  5
22B
330
1F
100
AcDbEntity
  8
0
100
AcDbLine
 10
7.473988299941841
 20
41.93930970651031
 30
0.0
 11
6.936010432738624
 21
41.87592942482018
 31
0.0
  0
LINE
  5
22C
330
1F
100
AcDbEntity
  8
0
100
AcDbLine
 10
6.936010432738624
 20
41.87592942482018
 30
0.0
 11
6.369737796923739
 21
41.9278031672749
 31
0.0
  0
LINE
  5
22D
330
1F
100
AcDbEntity
  8
0
100
AcDbLine
 10
6.369737796923739
 20
41.9278031672749
 30
0.0
 11
5.866090915636009
 21
42.08342439463909
 31
0.0
  0
LINE
  5
22E
330
1F
100
AcDbEntity
  8
0
100
AcDbLine
 10
5.866090915636009
 20
42.08342439463909
 30
0.0
 11
5.42506978887545
 21
42.34279310691273
 31
0.0
  0
LINE
  5
22F
330
1F
100
AcDbEntity
  8
0
100
AcDbLine
 10
5.42506978887545
 20
42.34279310691273
 30
0.0
 11
5.046674416642046
 21
42.70590930409583
 31
0.0
  0
LINE
  5
230
330
1F
100
AcDbEntity
  8
0
100
AcDbLine
 10
5.046674416642046
 20
42.70590930409583
 30
0.0
 11
4.742977233543455
 21
43.16032328799925
 31
0.0
  0
LINE
  5
231
330
1F
100
AcDbEntity
  8
0
100
AcDbLine
 10
4.742977233543455
 20
43.16032328799925
 30
0.0
 11
4.526050674187315
 21
43.69358536043386
 31
0.0
  0
LINE
  5
232
330
1F
100
AcDbEntity
  8
0
100
AcDbLine
 10
4.526050674187315
 20
43.69358536043386
 30
0.0
 11
4.395894738573634
 21
44.30569552139965
 31
0.0
  0
LINE
  5
233
330
1F
100
AcDbEntity
  8
0
100
AcDbLine
 10
4.395894738573634
 20
44.30569552139965
 30
0.0
 11
4.352509426702404
 21
44.99665377089664
 31
0.0
  0
LINE
  5
234
330
1F
100
AcDbEntity
  8
0
100
AcDbLine
 10
4.352509426702404
 20
44.99665377089664
 30
0.0
 11
4.443052686259748
 21
45.93981272461897
 31
0.0
  0
LINE
  5
235
330
1F
100
AcDbEntity
  8
0
100
AcDbLine
 10
4.443052686259748
 20
45.93981272461897
 30
0.0
 11
4.714682464931781
 21
46.76526544091676
 31
0.0
  0
LINE
  5
236
330
1F
100
AcDbEntity
  8
0
100
AcDbLine
 10
4.714682464931781
 20
46.76526544091676
 30
0.0
 11
5.147781056481083
 21
47.44358536043386
 31
0.0
  0
LINE
  5
237
330
1F
100
AcDbEntity
  8
0
100
AcDbLine
 10
5.147781056481083
 20
47.44358536043386
 30
0.0
 11
5.722730754670211
 21
47.94534592381414
 31
0.0
  0
LINE
  5
238
330
1F
100
AcDbEntity
  8
0
100
AcDbLine
 10
5.722730754670211
 20
47.94534592381414
 30
0.0
 11
6.401805201350291
 21
48.25545658779804
 31
0.0
  0
LINE
  5
239
330
1F
100
AcDbEntity
  8
0
100
AcDbLine
 10
6.401805201350291
 20
48.25545658779804
 30
0.0
 11
7.147278038372426
 21
48.35882680912601
 31
0.0
  0
LINE
  5
23A
330
1F
100
AcDbEntity
  8
0
100
AcDbLine
 10
7.147278038372426
 20
48.35882680912601
 30
0.0
 11
7.647529547426752
 21
48.30940527995097
 31
0.0
  0
LINE
  5
23B
330
1F
100
AcDbEntity
  8
0
100
AcDbLine
 10
7.647529547426752
 20
48.30940527995097
 30
0.0
 11
8.079873611813074
 21
48.16114069242581
 31
0.0
  0
LINE
  5
23C
330
1F
100
AcDbEntity
  8
0
100
AcDbLine
 10
8.079873611813074
 20
48.16114069242581
 30
0.0
 11
8.44431023153138
 21
47.91403304655056
 31
0.0
  0
LINE
  5
23D
330
1F
100
AcDbEntity
  8
0
100
AcDbLine
 10
8.44431023153138
 20
47.91403304655056
 30
0.0
 11
8.740839406581681
 21
47.56808234232521
 31
0.0
  0
LINE
  5
23E
330
1F
100
AcDbEntity
  8
0
100
AcDbLine
 10
8.764984275796971
 20
47.56808234232521
 30
0.0
 11
8.764984275796971
 21
48.20792137653044
 31
0.0
  0
LINE
  5
23F
330
1F
100
AcDbEntity
  8
0
100
AcDbLine
 10
8.764984275796971
 20
48.20792137653044
 30
0.0
 11
11.3243404126179
 21
48.20792137653044
 31
0.0
  0
LINE
  5
240
330
1F
100
AcDbEntity
  8
0
100
AcDbLine
 10
11.3243404126179
 20
48.20792137653044
 30
0.0
 11
11.3243404126179
 21
42.89001393186243
 31
0.0
  0
LINE
  5
241
330
1F
100
AcDbEntity
  8
0
100
AcDbLine
 10
8.807237796923731
 20
45.29242841878396
 30
0.0
 11
8.746121096722526
 21
45.77985296606766
 31
0.0
  0
LINE
  5
242
330
1F
100
AcDbEntity
  8
0
100
AcDbLine
 10
8.746121096722526
 20
45.77985296606766
 30
0.0
 11
8.562770996118903
 21
46.15560749323064
 31
0.0
  0
LINE
  5
243
330
1F
100
AcDbEntity
  8
0
100
AcDbLine
 10
8.562770996118903
 20
46.15560749323064
 30
0.0
 11
8.278314255676248
 21
46.3955471310576
 31
0.0
  0
LINE
  5
244
330
1F
100
AcDbEntity
  8
0
100
AcDbLine
 10
8.278314255676248
 20
46.3955471310576
 30
0.0
 11
7.913877635957941
 21
46.47552701033325
 31
0.0
  0
LINE
  5
245
330
1F
100
AcDbEntity
  8
0
100
AcDbLine
 10
7.913877635957941
 20
46.47552701033325
 30
0.0
 11
7.5230325655354
 21
46.37894753347209
 31
0.0
  0
LINE
  5
246
330
1F
100
AcDbEntity
  8
0
100
AcDbLine
 10
7.5230325655354
 20
46.37894753347209
 30
0.0
 11
7.219712646018299
 21
46.08920910288858
 31
0.0
  0
LINE
  5
247
330
1F
100
AcDbEntity
  8
0
100
AcDbLine
 10
7.219712646018299
 20
46.08920910288858
 30
0.0
 11
7.025044637970009
 21
45.63800185942782
 31
0.0
  0
LINE
  5
248
330
1F
100
AcDbEntity
  8
0
100
AcDbLine
 10
7.025044637970009
 20
45.63800185942782
 30
0.0
 11
6.960155301953914
 21
45.05701594393486
 31
0.0
  0
LINE
  5
249
330
1F
100
AcDbEntity
  8
0
100
AcDbLine
 10
6.960155301953914
 20
45.05701594393486
 30
0.0
 11
7.014481257688321
 21
44.52130165822058
 31
0.0
  0
LINE
  5
24A
330
1F
100
AcDbEntity
  8
0
100
AcDbLine
 10
7.014481257688321
 20
44.52130165822058
 30
0.0
 11
7.177459124891539
 21
44.10932982723466
 31
0.0
  0
LINE
  5
24B
330
1F
100
AcDbEntity
  8
0
100
AcDbLine
 10
7.177459124891539
 20
44.10932982723466
 30
0.0
 11
7.458143229519305
 21
43.84675437451837
 31
0.0
  0
LINE
  5
24C
330
1F
100
AcDbEntity
  8
0
100
AcDbLine
 10
7.458143229519305
 20
43.84675437451837
 30
0.0
 11
7.865587897527357
 21
43.75922922361293
 31
0.0
  0
LINE
  5
24D
330
1F
100
AcDbEntity
  8
0
100
AcDbLine
 10
7.865587897527357
 20
43.75922922361293
 30
0.0
 11
8.258696549438822
 21
43.84901795600729
 31
0.0
  0
LINE
  5
24E
330
1F
100
AcDbEntity
  8
0
100
AcDbLine
 10
8.258696549438822
 20
43.84901795600729
 30
0.0
 11
8.556734778815084
 21
44.1183841531904
 31
0.0
  0
LINE
  5
24F
330
1F
100
AcDbEntity
  8
0
100
AcDbLine
 10
8.556734778815084
 20
44.1183841531904
 30
0.0
 11
8.744612042396572
 21
44.53865578296907
 31
0.0
  0
LINE
  5
250
330
1F
100
AcDbEntity
  8
0
100
AcDbLine
 10
8.744612042396572
 20
44.53865578296907
 30
0.0
 11
8.807237796923731
 21
45.08116081315016
 31
0.0
  0
LINE
  5
251
330
1F
100
AcDbEntity
  8
0
100
AcDbLine
 10
8.807237796923731
 20
45.08116081315016
 30
0.0
 11
8.807237796923731
 21
45.29242841878396
 31
0.0
  0
LINE
  5
252
330
1F
100
AcDbEntity
  8
0
100
AcDbLine
 10
16.54566838042474
 20
42.02683485741575
 30
0.0
 11
16.54566838042474
 21
45.55198576284834
 31
0.0
  0
LINE
  5
253
330
1F
100
AcDbEntity
  8
0
100
AcDbLine
 10
16.54566838042474
 20
45.55198576284834
 30
0.0
 11
16.50152854139053
 21
45.95603505862299
 31
0.0
  0
LINE
  5
254
330
1F
100
AcDbEntity
  8
0
100
AcDbLine
 10
16.50152854139053
 20
45.95603505862299
 30
0.0
 11
16.36910902428792
 21
46.24464169846203
 31
0.0
  0
LINE
  5
255
330
1F
100
AcDbEntity
  8
0
100
AcDbLine
 10
16.36910902428792
 20
46.24464169846203
 30
0.0
 11
16.14840982911689
 21
46.41780568236545
 31
0.0
  0
LINE
  5
256
330
1F
100
AcDbEntity
  8
0
100
AcDbLine
 10
16.14840982911689
 20
46.41780568236545
 30
0.0
 11
15.83943095587746
 21
46.47552701033325
 31
0.0
  0
LINE
  5
257
330
1F
100
AcDbEntity
  8
0
100
AcDbLine
 10
15.83943095587746
 20
46.47552701033325
 30
0.0
 11
15.53611103636035
 21
46.40988314715418
 31
0.0
  0
LINE
  5
258
330
1F
100
AcDbEntity
  8
0
100
AcDbLine
 10
15.53611103636035
 20
46.40988314715418
 30
0.0
 11
15.31428005044486
 21
46.21295155761695
 31
0.0
  0
LINE
  5
259
330
1F
100
AcDbEntity
  8
0
100
AcDbLine
 10
15.31428005044486
 20
46.21295155761695
 30
0.0
 11
15.17846516110884
 21
45.91340427391474
 31
0.0
  0
LINE
  5
25A
330
1F
100
AcDbEntity
  8
0
100
AcDbLine
 10
15.17846516110884
 20
45.91340427391474
 30
0.0
 11
15.13319353133017
 21
45.5399133282407
 31
0.0
  0
LINE
  5
25B
330
1F
100
AcDbEntity
  8
0
100
AcDbLine
 10
15.13319353133017
 20
45.5399133282407
 30
0.0
 11
15.13319353133017
 21
42.02683485741575
 31
0.0
  0
LINE
  5
25C
330
1F
100
AcDbEntity
  8
0
100
AcDbLine
 10
15.13319353133017
 20
42.02683485741575
 30
0.0
 11
12.5617649599016
 21
42.02683485741575
 31
0.0
  0
LINE
  5
25D
330
1F
100
AcDbEntity
  8
0
100
AcDbLine
 10
12.5617649599016
 20
42.02683485741575
 30
0.0
 11
12.5617649599016
 21
51.17774029001132
 31
0.0
  0
LINE
  5
25E
330
1F
100
AcDbEntity
  8
0
100
AcDbLine
 10
12.5617649599016
 20
51.17774029001132
 30
0.0
 11
15.13319353133017
 21
51.17774029001132
 31
0.0
  0
LINE
  5
25F
330
1F
100
AcDbEntity
  8
0
100
AcDbLine
 10
15.13319353133017
 20
51.17774029001132
 30
0.0
 11
15.13319353133017
 21
47.36888717129905
 31
0.0
  0
LINE
  5
260
330
1F
100
AcDbEntity
  8
0
100
AcDbLine
 10
15.15733840054546
 20
47.36888717129905
 30
0.0
 11
15.52479312891568
 21
47.79066785540368
 31
0.0
  0
LINE
  5
261
330
1F
100
AcDbEntity
  8
0
100
AcDbLine
 10
15.52479312891568
 20
47.79066785540368
 30
0.0
 11
15.96317341060583
 21
48.10228757371353
 31
0.0
  0
LINE
  5
262
330
1F
100
AcDbEntity
  8
0
100
AcDbLine
 10
15.96317341060583
 20
48.10228757371353
 30
0.0
 11
16.45437059370441
 21
48.29469200027289
 31
0.0
  0
LINE
  5
263
330
1F
100
AcDbEntity
  8
0
100
AcDbLine
 10
16.45437059370441
 20
48.29469200027289
 30
0.0
 11
16.98027602629999
 21
48.35882680912601
 31
0.0
  0
LINE
  5
264
330
1F
100
AcDbEntity
  8
0
100
AcDbLine
 10
16.98027602629999
 20
48.35882680912601
 30
0.0
 11
17.45147823957967
 21
48.31864823769744
 31
0.0
  0
LINE
  5
265
330
1F
100
AcDbEntity
  8
0
100
AcDbLine
 10
17.45147823957967
 20
48.31864823769744
 30
0.0
 11
17.86307280698409
 21
48.19811252341172
 31
0.0
  0
LINE
  5
266
330
1F
100
AcDbEntity
  8
0
100
AcDbLine
 10
17.86307280698409
 20
48.19811252341172
 30
0.0
 11
18.21505972851326
 21
47.99721966626887
 31
0.0
  0
LINE
  5
267
330
1F
100
AcDbEntity
  8
0
100
AcDbLine
 10
18.21505972851326
 20
47.99721966626887
 30
0.0
 11
18.50743900416719
 21
47.71596966626887
 31
0.0
  0
LINE
  5
268
330
1F
100
AcDbEntity
  8
0
100
AcDbLine
 10
18.50743900416719
 20
47.71596966626887
 30
0.0
 11
18.73719252529396
 21
47.35662610490066
 31
0.0
  0
LINE
  5
269
330
1F
100
AcDbEntity
  8
0
100
AcDbLine
 10
18.73719252529396
 20
47.35662610490066
 30
0.0
 11
18.90130218324164
 21
46.92145256365318
 31
0.0
  0
LINE
  5
26A
330
1F
100
AcDbEntity
  8
0
100
AcDbLine
 10
18.90130218324164
 20
46.92145256365318
 30
0.0
 11
18.99976797801025
 21
46.41044904252641
 31
0.0
  0
LINE
  5
26B
330
1F
100
AcDbEntity
  8
0
100
AcDbLine
 10
18.99976797801025
 20
46.41044904252641
 30
0.0
 11
19.03258990959979
 21
45.82361554152038
 31
0.0
  0
LINE
  5
26C
330
1F
100
AcDbEntity
  8
0
100
AcDbLine
 10
19.03258990959979
 20
45.82361554152038
 30
0.0
 11
19.03258990959979
 21
42.02683485741575
 31
0.0
  0
LINE
  5
26D
330
1F
100
AcDbEntity
  8
0
100
AcDbLine
 10
19.03258990959979
 20
42.02683485741575
 30
0.0
 11
16.54566838042474
 21
42.02683485741575
 31
0.0
  0
LINE
  5
26E
330
1F
100
AcDbEntity
  8
0
100
AcDbLine
 10
24.54365630799013
 20
42.11134189966927
 30
0.0
 11
23.97021566412695
 21
41.95138214111796
 31
0.0
  0
LINE
  5
26F
330
1F
100
AcDbEntity
  8
0
100
AcDbLine
 10
23.97021566412695
 20
41.95138214111796
 30
0.0
 11
23.0104571128191
 21
41.87592942482018
 31
0.0
  0
LINE
  5
270
330
1F
100
AcDbEntity
  8
0
100
AcDbLine
 10
23.0104571128191
 20
41.87592942482018
 30
0.0
 11
22.50247170034426
 21
41.91290125580609
 31
0.0
  0
LINE
  5
271
330
1F
100
AcDbEntity
  8
0
100
AcDbLine
 10
22.50247170034426
 20
41.91290125580609
 30
0.0
 11
22.05296214300019
 21
42.02381674876383
 31
0.0
  0
LINE
  5
272
330
1F
100
AcDbEntity
  8
0
100
AcDbLine
 10
22.05296214300019
 20
42.02381674876383
 30
0.0
 11
21.66192844078692
 21
42.20867590369342
 31
0.0
  0
LINE
  5
273
330
1F
100
AcDbEntity
  8
0
100
AcDbLine
 10
21.66192844078692
 20
42.20867590369342
 30
0.0
 11
21.32937059370442
 21
42.46747872059482
 31
0.0
  0
LINE
  5
274
330
1F
100
AcDbEntity
  8
0
100
AcDbLine
 10
21.32937059370442
 20
42.46747872059482
 30
0.0
 11
21.06396566412695
 21
42.79456624574573
 31
0.0
  0
LINE
  5
275
330
1F
100
AcDbEntity
  8
0
100
AcDbLine
 10
21.06396566412695
 20
42.79456624574573
 30
0.0
 11
20.87439071442876
 21
43.1842795254238
 31
0.0
  0
LINE
  5
276
330
1F
100
AcDbEntity
  8
0
100
AcDbLine
 10
20.87439071442876
 20
43.1842795254238
 30
0.0
 11
20.76064574460985
 21
43.63661855962903
 31
0.0
  0
LINE
  5
277
330
1F
100
AcDbEntity
  8
0
100
AcDbLine
 10
20.76064574460985
 20
43.63661855962903
 30
0.0
 11
20.72273075467021
 21
44.15158334836142
 31
0.0
  0
LINE
  5
278
330
1F
100
AcDbEntity
  8
0
100
AcDbLine
 10
20.72273075467021
 20
44.15158334836142
 30
0.0
 11
20.72273075467021
 21
46.42723727190267
 31
0.0
  0
LINE
  5
279
330
1F
100
AcDbEntity
  8
0
100
AcDbLine
 10
20.72273075467021
 20
46.42723727190267
 30
0.0
 11
19.75089976875472
 21
46.42723727190267
 31
0.0
  0
LINE
  5
27A
330
1F
100
AcDbEntity
  8
0
100
AcDbLine
 10
19.75089976875472
 20
46.42723727190267
 30
0.0
 11
19.75089976875472
 21
48.20792137653044
 31
0.0
  0
LINE
  5
27B
330
1F
100
AcDbEntity
  8
0
100
AcDbLine
 10
19.75089976875472
 20
48.20792137653044
 30
0.0
 11
20.72273075467021
 21
48.20792137653044
 31
0.0
  0
LINE
  5
27C
330
1F
100
AcDbEntity
  8
0
100
AcDbLine
 10
20.72273075467021
 20
48.20792137653044
 30
0.0
 11
20.72273075467021
 21
49.42120105459885
 31
0.0
  0
LINE
  5
27D
330
1F
100
AcDbEntity
  8
0
100
AcDbLine
 10
20.72273075467021
 20
49.42120105459885
 30
0.0
 11
23.25794202227585
 21
50.12140226184231
 31
0.0
  0
LINE
  5
27E
330
1F
100
AcDbEntity
  8
0
100
AcDbLine
 10
23.25794202227585
 20
50.12140226184231
 30
0.0
 11
23.25794202227585
 21
48.20792137653044
 31
0.0
  0
LINE
  5
27F
330
1F
100
AcDbEntity
  8
0
100
AcDbLine
 10
23.25794202227585
 20
48.20792137653044
 30
0.0
 11
24.54365630799013
 21
48.20792137653044
 31
0.0
  0
LINE
  5
280
330
1F
100
AcDbEntity
  8
0
100
AcDbLine
 10
24.54365630799013
 20
48.20792137653044
 30
0.0
 11
24.54365630799013
 21
46.42723727190267
 31
0.0
  0
LINE
  5
281
330
1F
100
AcDbEntity
  8
0
100
AcDbLine
 10
24.54365630799013
 20
46.42723727190267
 30
0.0
 11
23.25794202227585
 21
46.42723727190267
 31
0.0
  0
LINE
  5
282
330
1F
100
AcDbEntity
  8
0
100
AcDbLine
 10
23.25794202227585
 20
46.42723727190267
 30
0.0
 11
23.25794202227585
 21
44.57411855962903
 31
0.0
  0
LINE
  5
283
330
1F
100
AcDbEntity
  8
0
100
AcDbLine
 10
23.25794202227585
 20
44.57411855962903
 30
0.0
 11
23.29830922549516
 21
44.21760447512199
 31
0.0
  0
LINE
  5
284
330
1F
100
AcDbEntity
  8
0
100
AcDbLine
 10
23.29830922549516
 20
44.21760447512199
 30
0.0
 11
23.41941083515311
 21
43.96295155761695
 31
0.0
  0
LINE
  5
285
330
1F
100
AcDbEntity
  8
0
100
AcDbLine
 10
23.41941083515311
 20
43.96295155761695
 30
0.0
 11
23.62124685124969
 21
43.81015980711393
 31
0.0
  0
LINE
  5
286
330
1F
100
AcDbEntity
  8
0
100
AcDbLine
 10
23.62124685124969
 20
43.81015980711393
 30
0.0
 11
23.9038172737849
 21
43.75922922361293
 31
0.0
  0
LINE
  5
287
330
1F
100
AcDbEntity
  8
0
100
AcDbLine
 10
23.9038172737849
 20
43.75922922361293
 30
0.0
 11
24.54365630799013
 21
43.89202600429704
 31
0.0
  0
LINE
  5
288
330
1F
100
AcDbEntity
  8
0
100
AcDbLine
 10
24.54365630799013
 20
43.89202600429704
 30
0.0
 11
24.54365630799013
 21
42.11134189966927
 31
0.0
  0
LINE
  5
289
330
1F
100
AcDbEntity
  8
0
100
AcDbLine
 10
-21.73560376866552
 20
-73.98933037651896
 30
0.0
 11
21.73672756618922
 21
-73.98933037651896
 31
0.0
  0
LINE
  5
28A
330
1F
100
AcDbEntity
  8
0
100
AcDbLine
 10
-52.44875398262589
 20
-73.98933037651896
 30
0.0
 11
-27.73560471505853
 21
-73.98933037651896
 31
0.0
  0
LINE
  5
28B
330
1F
100
AcDbEntity
  8
0
100
AcDbLine
 10
-52.44875398262589
 20
27.5106696234808
 30
0.0
 11
-27.73560471505853
 21
27.5106696234808
 31
0.0
  0
LINE
  5
28C
330
1F
100
AcDbEntity
  8
0
100
AcDbLine
 10
-21.73560376866552
 20
27.5106696234808
 30
0.0
 11
21.73672756618922
 21
27.5106696234808
 31
0.0
  0
LINE
  5
28D
330
1F
100
AcDbEntity
  8
0
100
AcDbLine
 10
27.73672756618921
 20
27.5106696234808
 30
0.0
 11
52.47345513237846
 21
27.5106696234808
 31
0.0
  0
LINE
  5
28E
330
1F
100
AcDbEntity
  8
0
100
AcDbLine
 10
2.999999999999949
 20
29.01066962348082
 30
0.0
 11
46.47345513237847
 21
29.01066962348082
 31
0.0
  0
LINE
  5
28F
330
1F
100
AcDbEntity
  8
0
100
AcDbLine
 10
-46.47345513237856
 20
29.01066962348082
 30
0.0
 11
-3.00000000000004
 21
29.01066962348082
 31
0.0
  0
LINE
  5
290
330
1F
100
AcDbEntity
  8
0
100
AcDbLine
 10
-52.44875398262589
 20
27.5106696234808
 30
0.0
 11
-52.44875398262589
 21
24.51066962348076
 31
0.0
  0
LINE
  5
291
330
1F
100
AcDbEntity
  8
0
100
AcDbLine
 10
52.47345513237846
 20
27.5106696234808
 30
0.0
 11
52.47345513237846
 21
24.51066962348076
 31
0.0
  0
LINE
  5
292
330
1F
100
AcDbEntity
  8
0
100
AcDbLine
 10
-52.44875398262589
 20
24.51066962348076
 30
0.0
 11
-27.73560471505853
 21
24.51066962348076
 31
0.0
  0
LINE
  5
293
330
1F
100
AcDbEntity
  8
0
100
AcDbLine
 10
27.73672756618921
 20
24.51066962348076
 30
0.0
 11
52.47345513237846
 21
24.51066962348076
 31
0.0
  0
LINE
  5
294
330
1F
100
AcDbEntity
  8
0
100
AcDbLine
 10
2.999999999999949
 20
26.01066962348078
 30
0.0
 11
46.47345513237847
 21
26.01066962348078
 31
0.0
  0
LINE
  5
295
330
1F
100
AcDbEntity
  8
0
100
AcDbLine
 10
-21.73560376866552
 20
24.51066962348076
 30
0.0
 11
21.73672756618922
 21
24.51066962348076
 31
0.0
  0
LINE
  5
296
330
1F
100
AcDbEntity
  8
0
100
AcDbLine
 10
-46.47345513237856
 20
26.01066962348078
 30
0.0
 11
-3.00000000000004
 21
26.01066962348078
 31
0.0
  0
LINE
  5
297
330
1F
100
AcDbEntity
  8
0
100
AcDbLine
 10
-52.44875398262589
 20
24.51066962348076
 30
0.0
 11
-52.44875398262589
 21
21.51066962348072
 31
0.0
  0
LINE
  5
298
330
1F
100
AcDbEntity
  8
0
100
AcDbLine
 10
52.47345513237846
 20
24.51066962348076
 30
0.0
 11
52.47345513237846
 21
21.51066962348072
 31
0.0
  0
LINE
  5
299
330
1F
100
AcDbEntity
  8
0
100
AcDbLine
 10
2.999999999999949
 20
23.01066962348074
 30
0.0
 11
46.47345513237847
 21
23.01066962348074
 31
0.0
  0
LINE
  5
29A
330
1F
100
AcDbEntity
  8
0
100
AcDbLine
 10
-21.73560376866552
 20
21.51066962348072
 30
0.0
 11
21.73672756618922
 21
21.51066962348072
 31
0.0
  0
LINE
  5
29B
330
1F
100
AcDbEntity
  8
0
100
AcDbLine
 10
-46.47345513237856
 20
23.01066962348074
 30
0.0
 11
-3.00000000000004
 21
23.01066962348074
 31
0.0
  0
LINE
  5
29C
330
1F
100
AcDbEntity
  8
0
100
AcDbLine
 10
27.73672756618921
 20
21.51066962348072
 30
0.0
 11
52.47345513237846
 21
21.51066962348072
 31
0.0
  0
LINE
  5
29D
330
1F
100
AcDbEntity
  8
0
100
AcDbLine
 10
-52.44875398262589
 20
21.51066962348072
 30
0.0
 11
-27.73560471505853
 21
21.51066962348072
 31
0.0
  0
LINE
  5
29E
330
1F
100
AcDbEntity
  8
0
100
AcDbLine
 10
-52.44875398262589
 20
21.51066962348072
 30
0.0
 11
-52.44875398262589
 21
18.51066962348068
 31
0.0
  0
LINE
  5
29F
330
1F
100
AcDbEntity
  8
0
100
AcDbLine
 10
52.47345513237846
 20
21.51066962348072
 30
0.0
 11
52.47345513237846
 21
18.51066962348068
 31
0.0
  0
LINE
  5
2A0
330
1F
100
AcDbEntity
  8
0
100
AcDbLine
 10
2.999999999999949
 20
20.0106696234807
 30
0.0
 11
46.47345513237847
 21
20.0106696234807
 31
0.0
  0
LINE
  5
2A1
330
1F
100
AcDbEntity
  8
0
100
AcDbLine
 10
27.73672756618921
 20
18.51066962348068
 30
0.0
 11
52.47345513237846
 21
18.51066962348068
 31
0.0
  0
LINE
  5
2A2
330
1F
100
AcDbEntity
  8
0
100
AcDbLine
 10
-52.44875398262589
 20
18.51066962348068
 30
0.0
 11
-27.73560471505853
 21
18.51066962348068
 31
0.0
  0
LINE
  5
2A3
330
1F
100
AcDbEntity
  8
0
100
AcDbLine
 10
-21.73560376866552
 20
18.51066962348068
 30
0.0
 11
21.73672756618922
 21
18.51066962348068
 31
0.0
  0
LINE
  5
2A4
330
1F
100
AcDbEntity
  8
0
100
AcDbLine
 10
-46.47345513237856
 20
20.0106696234807
 30
0.0
 11
-3.00000000000004
 21
20.0106696234807
 31
0.0
  0
LINE
  5
2A5
330
1F
100
AcDbEntity
  8
0
100
AcDbLine
 10
-52.44875398262589
 20
18.51066962348068
 30
0.0
 11
-52.44875398262589
 21
15.51066962348064
 31
0.0
  0
LINE
  5
2A6
330
1F
100
AcDbEntity
  8
0
100
AcDbLine
 10
52.47345513237846
 20
18.51066962348068
 30
0.0
 11
52.47345513237846
 21
15.51066962348064
 31
0.0
  0
LINE
  5
2A7
330
1F
100
AcDbEntity
  8
0
100
AcDbLine
 10
-52.44875398262589
 20
12.5106696234806
 30
0.0
 11
-27.73560471505853
 21
12.5106696234806
 31
0.0
  0
LINE
  5
2A8
330
1F
100
AcDbEntity
  8
0
100
AcDbLine
 10
-52.44875398262589
 20
15.51066962348064
 30
0.0
 11
-27.73560471505853
 21
15.51066962348064
 31
0.0
  0
LINE
  5
2A9
330
1F
100
AcDbEntity
  8
0
100
AcDbLine
 10
27.73672756618921
 20
6.510669623480525
 30
0.0
 11
52.47345513237846
 21
6.510669623480525
 31
0.0
  0
LINE
  5
2AA
330
1F
100
AcDbEntity
  8
0
100
AcDbLine
 10
-21.73560376866552
 20
6.510669623480525
 30
0.0
 11
21.73672756618922
 21
6.510669623480525
 31
0.0
  0
LINE
  5
2AB
330
1F
100
AcDbEntity
  8
0
100
AcDbLine
 10
-21.73560376866552
 20
12.5106696234806
 30
0.0
 11
21.73672756618922
 21
12.5106696234806
 31
0.0
  0
LINE
  5
2AC
330
1F
100
AcDbEntity
  8
0
100
AcDbLine
 10
-46.47345513237856
 20
14.01066962348062
 30
0.0
 11
-3.00000000000004
 21
14.01066962348062
 31
0.0
  0
LINE
  5
2AD
330
1F
100
AcDbEntity
  8
0
100
AcDbLine
 10
-52.44875398262589
 20
6.510669623480525
 30
0.0
 11
-27.73560471505853
 21
6.510669623480525
 31
0.0
  0
LINE
  5
2AE
330
1F
100
AcDbEntity
  8
0
100
AcDbLine
 10
-52.44875398262589
 20
9.510669623480565
 30
0.0
 11
-27.73560471505853
 21
9.510669623480565
 31
0.0
  0
LINE
  5
2AF
330
1F
100
AcDbEntity
  8
0
100
AcDbLine
 10
-46.47345513237856
 20
8.010669623480545
 30
0.0
 11
-3.00000000000004
 21
8.010669623480545
 31
0.0
  0
LINE
  5
2B0
330
1F
100
AcDbEntity
  8
0
100
AcDbLine
 10
27.73672756618921
 20
9.510669623480565
 30
0.0
 11
52.47345513237846
 21
9.510669623480565
 31
0.0
  0
LINE
  5
2B1
330
1F
100
AcDbEntity
  8
0
100
AcDbLine
 10
-46.47345513237856
 20
11.01066962348058
 30
0.0
 11
-3.00000000000004
 21
11.01066962348058
 31
0.0
  0
LINE
  5
2B2
330
1F
100
AcDbEntity
  8
0
100
AcDbLine
 10
27.73672756618921
 20
15.51066962348064
 30
0.0
 11
52.47345513237846
 21
15.51066962348064
 31
0.0
  0
LINE
  5
2B3
330
1F
100
AcDbEntity
  8
0
100
AcDbLine
 10
-46.47345513237856
 20
17.01066962348066
 30
0.0
 11
-3.00000000000004
 21
17.01066962348066
 31
0.0
  0
LINE
  5
2B4
330
1F
100
AcDbEntity
  8
0
100
AcDbLine
 10
-21.73560376866552
 20
15.51066962348064
 30
0.0
 11
21.73672756618922
 21
15.51066962348064
 31
0.0
  0
LINE
  5
2B5
330
1F
100
AcDbEntity
  8
0
100
AcDbLine
 10
2.999999999999949
 20
11.01066962348058
 30
0.0
 11
46.47345513237847
 21
11.01066962348058
 31
0.0
  0
LINE
  5
2B6
330
1F
100
AcDbEntity
  8
0
100
AcDbLine
 10
-21.73560376866552
 20
9.510669623480565
 30
0.0
 11
21.73672756618922
 21
9.510669623480565
 31
0.0
  0
LINE
  5
2B7
330
1F
100
AcDbEntity
  8
0
100
AcDbLine
 10
2.999999999999949
 20
8.010669623480545
 30
0.0
 11
46.47345513237847
 21
8.010669623480545
 31
0.0
  0
LINE
  5
2B8
330
1F
100
AcDbEntity
  8
0
100
AcDbLine
 10
27.73672756618921
 20
12.5106696234806
 30
0.0
 11
52.47345513237846
 21
12.5106696234806
 31
0.0
  0
LINE
  5
2B9
330
1F
100
AcDbEntity
  8
0
100
AcDbLine
 10
2.999999999999949
 20
17.01066962348066
 30
0.0
 11
46.47345513237847
 21
17.01066962348066
 31
0.0
  0
LINE
  5
2BA
330
1F
100
AcDbEntity
  8
0
100
AcDbLine
 10
2.999999999999949
 20
14.01066962348062
 30
0.0
 11
46.47345513237847
 21
14.01066962348062
 31
0.0
  0
LINE
  5
2BB
330
1F
100
AcDbEntity
  8
0
100
AcDbLine
 10
-52.44875398262589
 20
12.5106696234806
 30
0.0
 11
-52.44875398262589
 21
9.510669623480565
 31
0.0
  0
LINE
  5
2BC
330
1F
100
AcDbEntity
  8
0
100
AcDbLine
 10
-52.44875398262589
 20
15.51066962348064
 30
0.0
 11
-52.44875398262589
 21
12.5106696234806
 31
0.0
  0
LINE
  5
2BD
330
1F
100
AcDbEntity
  8
0
100
AcDbLine
 10
52.47345513237846
 20
6.510669623480525
 30
0.0
 11
52.47345513237846
 21
3.510669623480486
 31
0.0
  0
LINE
  5
2BE
330
1F
100
AcDbEntity
  8
0
100
AcDbLine
 10
52.47345513237846
 20
9.510669623480565
 30
0.0
 11
52.47345513237846
 21
6.510669623480525
 31
0.0
  0
LINE
  5
2BF
330
1F
100
AcDbEntity
  8
0
100
AcDbLine
 10
52.47345513237846
 20
15.51066962348064
 30
0.0
 11
52.47345513237846
 21
12.5106696234806
 31
0.0
  0
LINE
  5
2C0
330
1F
100
AcDbEntity
  8
0
100
AcDbLine
 10
-52.44875398262589
 20
6.510669623480525
 30
0.0
 11
-52.44875398262589
 21
3.510669623480486
 31
0.0
  0
LINE
  5
2C1
330
1F
100
AcDbEntity
  8
0
100
AcDbLine
 10
-52.44875398262589
 20
9.510669623480565
 30
0.0
 11
-52.44875398262589
 21
6.510669623480525
 31
0.0
  0
LINE
  5
2C2
330
1F
100
AcDbEntity
  8
0
100
AcDbLine
 10
52.47345513237846
 20
12.5106696234806
 30
0.0
 11
52.47345513237846
 21
9.510669623480565
 31
0.0
  0
LINE
  5
2C3
330
1F
100
AcDbEntity
  8
0
100
AcDbLine
 10
-52.44875398262589
 20
0.510669623480446
 30
0.0
 11
-27.73560471505853
 21
0.510669623480446
 31
0.0
  0
LINE
  5
2C4
330
1F
100
AcDbEntity
  8
0
100
AcDbLine
 10
-52.44875398262589
 20
3.510669623480486
 30
0.0
 11
-27.73560471505853
 21
3.510669623480486
 31
0.0
  0
LINE
  5
2C5
330
1F
100
AcDbEntity
  8
0
100
AcDbLine
 10
-46.47345513237856
 20
-3.989330376519614
 30
0.0
 11
-3.00000000000004
 21
-3.989330376519614
 31
0.0
  0
LINE
  5
2C6
330
1F
100
AcDbEntity
  8
0
100
AcDbLine
 10
-52.44875398262589
 20
-5.489330376519633
 30
0.0
 11
-27.73560471505853
 21
-5.489330376519633
 31
0.0
  0
LINE
  5
2C7
330
1F
100
AcDbEntity
  8
0
100
AcDbLine
 10
-21.73560376866552
 20
0.510669623480446
 30
0.0
 11
21.73672756618922
 21
0.510669623480446
 31
0.0
  0
LINE
  5
2C8
330
1F
100
AcDbEntity
  8
0
100
AcDbLine
 10
-46.47345513237856
 20
5.010669623480505
 30
0.0
 11
-3.00000000000004
 21
5.010669623480505
 31
0.0
  0
LINE
  5
2C9
330
1F
100
AcDbEntity
  8
0
100
AcDbLine
 10
-46.47345513237856
 20
2.010669623480466
 30
0.0
 11
-3.00000000000004
 21
2.010669623480466
 31
0.0
  0
LINE
  5
2CA
330
1F
100
AcDbEntity
  8
0
100
AcDbLine
 10
2.999999999999949
 20
-3.989330376519614
 30
0.0
 11
46.47345513237847
 21
-3.989330376519614
 31
0.0
  0
LINE
  5
2CB
330
1F
100
AcDbEntity
  8
0
100
AcDbLine
 10
-46.47345513237856
 20
-0.9893303765195739
 30
0.0
 11
-3.00000000000004
 21
-0.9893303765195739
 31
0.0
  0
LINE
  5
2CC
330
1F
100
AcDbEntity
  8
0
100
AcDbLine
 10
27.73672756618921
 20
3.510669623480486
 30
0.0
 11
52.47345513237846
 21
3.510669623480486
 31
0.0
  0
LINE
  5
2CD
330
1F
100
AcDbEntity
  8
0
100
AcDbLine
 10
-52.44875398262589
 20
-2.489330376519594
 30
0.0
 11
-27.73560471505853
 21
-2.489330376519594
 31
0.0
  0
LINE
  5
2CE
330
1F
100
AcDbEntity
  8
0
100
AcDbLine
 10
2.999999999999949
 20
5.010669623480505
 30
0.0
 11
46.47345513237847
 21
5.010669623480505
 31
0.0
  0
LINE
  5
2CF
330
1F
100
AcDbEntity
  8
0
100
AcDbLine
 10
27.73672756618921
 20
0.510669623480446
 30
0.0
 11
52.47345513237846
 21
0.510669623480446
 31
0.0
  0
LINE
  5
2D0
330
1F
100
AcDbEntity
  8
0
100
AcDbLine
 10
-21.73560376866552
 20
-2.489330376519594
 30
0.0
 11
21.73672756618922
 21
-2.489330376519594
 31
0.0
  0
LINE
  5
2D1
330
1F
100
AcDbEntity
  8
0
100
AcDbLine
 10
-21.73560376866552
 20
3.510669623480486
 30
0.0
 11
21.73672756618922
 21
3.510669623480486
 31
0.0
  0
LINE
  5
2D2
330
1F
100
AcDbEntity
  8
0
100
AcDbLine
 10
2.999999999999949
 20
2.010669623480466
 30
0.0
 11
46.47345513237847
 21
2.010669623480466
 31
0.0
  0
LINE
  5
2D3
330
1F
100
AcDbEntity
  8
0
100
AcDbLine
 10
2.999999999999949
 20
-0.9893303765195739
 30
0.0
 11
46.47345513237847
 21
-0.9893303765195739
 31
0.0
  0
LINE
  5
2D4
330
1F
100
AcDbEntity
  8
0
100
AcDbLine
 10
-21.73560376866552
 20
-5.489330376519633
 30
0.0
 11
21.73672756618922
 21
-5.489330376519633
 31
0.0
  0
LINE
  5
2D5
330
1F
100
AcDbEntity
  8
0
100
AcDbLine
 10
27.73672756618921
 20
-5.489330376519633
 30
0.0
 11
52.47345513237846
 21
-5.489330376519633
 31
0.0
  0
LINE
  5
2D6
330
1F
100
AcDbEntity
  8
0
100
AcDbLine
 10
27.73672756618921
 20
-2.489330376519594
 30
0.0
 11
52.47345513237846
 21
-2.489330376519594
 31
0.0
  0
LINE
  5
2D7
330
1F
100
AcDbEntity
  8
0
100
AcDbLine
 10
52.47345513237846
 20
3.510669623480486
 30
0.0
 11
52.47345513237846
 21
0.510669623480446
 31
0.0
  0
LINE
  5
2D8
330
1F
100
AcDbEntity
  8
0
100
AcDbLine
 10
-52.44875398262589
 20
0.510669623480446
 30
0.0
 11
-52.44875398262589
 21
-2.489330376519594
 31
0.0
  0
LINE
  5
2D9
330
1F
100
AcDbEntity
  8
0
100
AcDbLine
 10
-52.44875398262589
 20
3.510669623480486
 30
0.0
 11
-52.44875398262589
 21
0.510669623480446
 31
0.0
  0
LINE
  5
2DA
330
1F
100
AcDbEntity
  8
0
100
AcDbLine
 10
52.47345513237846
 20
0.510669623480446
 30
0.0
 11
52.47345513237846
 21
-2.489330376519594
 31
0.0
  0
LINE
  5
2DB
330
1F
100
AcDbEntity
  8
0
100
AcDbLine
 10
-52.44875398262589
 20
-5.489330376519633
 30
0.0
 11
-52.44875398262589
 21
-8.489330376519673
 31
0.0
  0
LINE
  5
2DC
330
1F
100
AcDbEntity
  8
0
100
AcDbLine
 10
-52.44875398262589
 20
-2.489330376519594
 30
0.0
 11
-52.44875398262589
 21
-5.489330376519633
 31
0.0
  0
LINE
  5
2DD
330
1F
100
AcDbEntity
  8
0
100
AcDbLine
 10
52.47345513237846
 20
-5.489330376519633
 30
0.0
 11
52.47345513237846
 21
-8.489330376519673
 31
0.0
  0
LINE
  5
2DE
330
1F
100
AcDbEntity
  8
0
100
AcDbLine
 10
52.47345513237846
 20
-2.489330376519594
 30
0.0
 11
52.47345513237846
 21
-5.489330376519633
 31
0.0
  0
LINE
  5
2DF
330
1F
100
AcDbEntity
  8
0
100
AcDbLine
 10
-52.44875398262589
 20
-11.48933037651971
 30
0.0
 11
-27.73560471505853
 21
-11.48933037651971
 31
0.0
  0
LINE
  5
2E0
330
1F
100
AcDbEntity
  8
0
100
AcDbLine
 10
-52.44875398262589
 20
-8.489330376519673
 30
0.0
 11
-27.73560471505853
 21
-8.489330376519673
 31
0.0
  0
LINE
  5
2E1
330
1F
100
AcDbEntity
  8
0
100
AcDbLine
 10
2.999999999999949
 20
-9.989330376519693
 30
0.0
 11
46.47345513237847
 21
-9.989330376519693
 31
0.0
  0
LINE
  5
2E2
330
1F
100
AcDbEntity
  8
0
100
AcDbLine
 10
2.999999999999949
 20
-6.989330376519653
 30
0.0
 11
46.47345513237847
 21
-6.989330376519653
 31
0.0
  0
LINE
  5
2E3
330
1F
100
AcDbEntity
  8
0
100
AcDbLine
 10
27.73672756618921
 20
-8.489330376519673
 30
0.0
 11
52.47345513237846
 21
-8.489330376519673
 31
0.0
  0
LINE
  5
2E4
330
1F
100
AcDbEntity
  8
0
100
AcDbLine
 10
-46.47345513237856
 20
-15.98933037651977
 30
0.0
 11
-3.00000000000004
 21
-15.98933037651977
 31
0.0
  0
LINE
  5
2E5
330
1F
100
AcDbEntity
  8
0
100
AcDbLine
 10
-21.73560376866552
 20
-17.48933037651979
 30
0.0
 11
21.73672756618922
 21
-17.48933037651979
 31
0.0
  0
LINE
  5
2E6
330
1F
100
AcDbEntity
  8
0
100
AcDbLine
 10
27.73672756618921
 20
-14.48933037651975
 30
0.0
 11
52.47345513237846
 21
-14.48933037651975
 31
0.0
  0
LINE
  5
2E7
330
1F
100
AcDbEntity
  8
0
100
AcDbLine
 10
-46.47345513237856
 20
-6.989330376519653
 30
0.0
 11
-3.00000000000004
 21
-6.989330376519653
 31
0.0
  0
LINE
  5
2E8
330
1F
100
AcDbEntity
  8
0
100
AcDbLine
 10
27.73672756618921
 20
-17.48933037651979
 30
0.0
 11
52.47345513237846
 21
-17.48933037651979
 31
0.0
  0
LINE
  5
2E9
330
1F
100
AcDbEntity
  8
0
100
AcDbLine
 10
-46.47345513237856
 20
-9.989330376519693
 30
0.0
 11
-3.00000000000004
 21
-9.989330376519693
 31
0.0
  0
LINE
  5
2EA
330
1F
100
AcDbEntity
  8
0
100
AcDbLine
 10
-46.47345513237856
 20
-12.98933037651973
 30
0.0
 11
-3.00000000000004
 21
-12.98933037651973
 31
0.0
  0
LINE
  5
2EB
330
1F
100
AcDbEntity
  8
0
100
AcDbLine
 10
-52.44875398262589
 20
-17.48933037651979
 30
0.0
 11
-27.73560471505853
 21
-17.48933037651979
 31
0.0
  0
LINE
  5
2EC
330
1F
100
AcDbEntity
  8
0
100
AcDbLine
 10
2.999999999999949
 20
-15.98933037651977
 30
0.0
 11
46.47345513237847
 21
-15.98933037651977
 31
0.0
  0
LINE
  5
2ED
330
1F
100
AcDbEntity
  8
0
100
AcDbLine
 10
-21.73560376866552
 20
-11.48933037651971
 30
0.0
 11
21.73672756618922
 21
-11.48933037651971
 31
0.0
  0
LINE
  5
2EE
330
1F
100
AcDbEntity
  8
0
100
AcDbLine
 10
2.999999999999949
 20
-12.98933037651973
 30
0.0
 11
46.47345513237847
 21
-12.98933037651973
 31
0.0
  0
LINE
  5
2EF
330
1F
100
AcDbEntity
  8
0
100
AcDbLine
 10
27.73672756618921
 20
-11.48933037651971
 30
0.0
 11
52.47345513237846
 21
-11.48933037651971
 31
0.0
  0
LINE
  5
2F0
330
1F
100
AcDbEntity
  8
0
100
AcDbLine
 10
-21.73560376866552
 20
-14.48933037651975
 30
0.0
 11
21.73672756618922
 21
-14.48933037651975
 31
0.0
  0
LINE
  5
2F1
330
1F
100
AcDbEntity
  8
0
100
AcDbLine
 10
-21.73560376866552
 20
-8.489330376519673
 30
0.0
 11
21.73672756618922
 21
-8.489330376519673
 31
0.0
  0
LINE
  5
2F2
330
1F
100
AcDbEntity
  8
0
100
AcDbLine
 10
-52.44875398262589
 20
-14.48933037651975
 30
0.0
 11
-27.73560471505853
 21
-14.48933037651975
 31
0.0
  0
LINE
  5
2F3
330
1F
100
AcDbEntity
  8
0
100
AcDbLine
 10
-52.44875398262589
 20
-11.48933037651971
 30
0.0
 11
-52.44875398262589
 21
-14.48933037651975
 31
0.0
  0
LINE
  5
2F4
330
1F
100
AcDbEntity
  8
0
100
AcDbLine
 10
-52.44875398262589
 20
-8.489330376519673
 30
0.0
 11
-52.44875398262589
 21
-11.48933037651971
 31
0.0
  0
LINE
  5
2F5
330
1F
100
AcDbEntity
  8
0
100
AcDbLine
 10
52.47345513237846
 20
-8.489330376519673
 30
0.0
 11
52.47345513237846
 21
-11.48933037651971
 31
0.0
  0
LINE
  5
2F6
330
1F
100
AcDbEntity
  8
0
100
AcDbLine
 10
-52.44875398262589
 20
-17.48933037651979
 30
0.0
 11
-52.44875398262589
 21
-20.48933037651983
 31
0.0
  0
LINE
  5
2F7
330
1F
100
AcDbEntity
  8
0
100
AcDbLine
 10
-52.44875398262589
 20
-14.48933037651975
 30
0.0
 11
-52.44875398262589
 21
-17.48933037651979
 31
0.0
  0
LINE
  5
2F8
330
1F
100
AcDbEntity
  8
0
100
AcDbLine
 10
52.47345513237846
 20
-14.48933037651975
 30
0.0
 11
52.47345513237846
 21
-17.48933037651979
 31
0.0
  0
LINE
  5
2F9
330
1F
100
AcDbEntity
  8
0
100
AcDbLine
 10
52.47345513237846
 20
-11.48933037651971
 30
0.0
 11
52.47345513237846
 21
-14.48933037651975
 31
0.0
  0
LINE
  5
2FA
330
1F
100
AcDbEntity
  8
0
100
AcDbLine
 10
52.47345513237846
 20
-17.48933037651979
 30
0.0
 11
52.47345513237846
 21
-20.48933037651983
 31
0.0
  0
LINE
  5
2FB
330
1F
100
AcDbEntity
  8
0
100
AcDbLine
 10
-52.44875398262589
 20
-23.48933037651987
 30
0.0
 11
-27.73560471505853
 21
-23.48933037651987
 31
0.0
  0
LINE
  5
2FC
330
1F
100
AcDbEntity
  8
0
100
AcDbLine
 10
-52.44875398262589
 20
-20.48933037651983
 30
0.0
 11
-27.73560471505853
 21
-20.48933037651983
 31
0.0
  0
LINE
  5
2FD
330
1F
100
AcDbEntity
  8
0
100
AcDbLine
 10
-52.44875398262589
 20
-26.48933037651991
 30
0.0
 11
-27.73560471505853
 21
-26.48933037651991
 31
0.0
  0
LINE
  5
2FE
330
1F
100
AcDbEntity
  8
0
100
AcDbLine
 10
2.999999999999949
 20
-27.98933037651993
 30
0.0
 11
46.47345513237847
 21
-27.98933037651993
 31
0.0
  0
LINE
  5
2FF
330
1F
100
AcDbEntity
  8
0
100
AcDbLine
 10
27.73672756618921
 20
-29.48933037651995
 30
0.0
 11
52.47345513237846
 21
-29.48933037651995
 31
0.0
  0
LINE
  5
300
330
1F
100
AcDbEntity
  8
0
100
AcDbLine
 10
-46.47345513237856
 20
-21.98933037651985
 30
0.0
 11
-3.00000000000004
 21
-21.98933037651985
 31
0.0
  0
LINE
  5
301
330
1F
100
AcDbEntity
  8
0
100
AcDbLine
 10
-21.73560376866552
 20
-20.48933037651983
 30
0.0
 11
21.73672756618922
 21
-20.48933037651983
 31
0.0
  0
LINE
  5
302
330
1F
100
AcDbEntity
  8
0
100
AcDbLine
 10
27.73672756618921
 20
-26.48933037651991
 30
0.0
 11
52.47345513237846
 21
-26.48933037651991
 31
0.0
  0
LINE
  5
303
330
1F
100
AcDbEntity
  8
0
100
AcDbLine
 10
-52.44875398262589
 20
-29.48933037651995
 30
0.0
 11
-27.73560471505853
 21
-29.48933037651995
 31
0.0
  0
LINE
  5
304
330
1F
100
AcDbEntity
  8
0
100
AcDbLine
 10
27.73672756618921
 20
-20.48933037651983
 30
0.0
 11
52.47345513237846
 21
-20.48933037651983
 31
0.0
  0
LINE
  5
305
330
1F
100
AcDbEntity
  8
0
100
AcDbLine
 10
2.999999999999949
 20
-24.98933037651989
 30
0.0
 11
46.47345513237847
 21
-24.98933037651989
 31
0.0
  0
LINE
  5
306
330
1F
100
AcDbEntity
  8
0
100
AcDbLine
 10
2.999999999999949
 20
-21.98933037651985
 30
0.0
 11
46.47345513237847
 21
-21.98933037651985
 31
0.0
  0
LINE
  5
307
330
1F
100
AcDbEntity
  8
0
100
AcDbLine
 10
-46.47345513237856
 20
-18.98933037651981
 30
0.0
 11
-3.00000000000004
 21
-18.98933037651981
 31
0.0
  0
LINE
  5
308
330
1F
100
AcDbEntity
  8
0
100
AcDbLine
 10
-21.73560376866552
 20
-23.48933037651987
 30
0.0
 11
21.73672756618922
 21
-23.48933037651987
 31
0.0
  0
LINE
  5
309
330
1F
100
AcDbEntity
  8
0
100
AcDbLine
 10
27.73672756618921
 20
-23.48933037651987
 30
0.0
 11
52.47345513237846
 21
-23.48933037651987
 31
0.0
  0
LINE
  5
30A
330
1F
100
AcDbEntity
  8
0
100
AcDbLine
 10
2.999999999999949
 20
-18.98933037651981
 30
0.0
 11
46.47345513237847
 21
-18.98933037651981
 31
0.0
  0
LINE
  5
30B
330
1F
100
AcDbEntity
  8
0
100
AcDbLine
 10
-21.73560376866552
 20
-29.48933037651995
 30
0.0
 11
21.73672756618922
 21
-29.48933037651995
 31
0.0
  0
LINE
  5
30C
330
1F
100
AcDbEntity
  8
0
100
AcDbLine
 10
-46.47345513237856
 20
-24.98933037651989
 30
0.0
 11
-3.00000000000004
 21
-24.98933037651989
 31
0.0
  0
LINE
  5
30D
330
1F
100
AcDbEntity
  8
0
100
AcDbLine
 10
-21.73560376866552
 20
-26.48933037651991
 30
0.0
 11
21.73672756618922
 21
-26.48933037651991
 31
0.0
  0
LINE
  5
30E
330
1F
100
AcDbEntity
  8
0
100
AcDbLine
 10
-46.47345513237856
 20
-27.98933037651993
 30
0.0
 11
-3.00000000000004
 21
-27.98933037651993
 31
0.0
  0
LINE
  5
30F
330
1F
100
AcDbEntity
  8
0
100
AcDbLine
 10
-52.44875398262589
 20
-23.48933037651987
 30
0.0
 11
-52.44875398262589
 21
-26.48933037651991
 31
0.0
  0
LINE
  5
310
330
1F
100
AcDbEntity
  8
0
100
AcDbLine
 10
-52.44875398262589
 20
-20.48933037651983
 30
0.0
 11
-52.44875398262589
 21
-23.48933037651987
 31
0.0
  0
LINE
  5
311
330
1F
100
AcDbEntity
  8
0
100
AcDbLine
 10
52.47345513237846
 20
-29.48933037651995
 30
0.0
 11
52.47345513237846
 21
-32.48933037651999
 31
0.0
  0
LINE
  5
312
330
1F
100
AcDbEntity
  8
0
100
AcDbLine
 10
52.47345513237846
 20
-26.48933037651991
 30
0.0
 11
52.47345513237846
 21
-29.48933037651995
 31
0.0
  0
LINE
  5
313
330
1F
100
AcDbEntity
  8
0
100
AcDbLine
 10
52.47345513237846
 20
-20.48933037651983
 30
0.0
 11
52.47345513237846
 21
-23.48933037651987
 31
0.0
  0
LINE
  5
314
330
1F
100
AcDbEntity
  8
0
100
AcDbLine
 10
-52.44875398262589
 20
-26.48933037651991
 30
0.0
 11
-52.44875398262589
 21
-29.48933037651995
 31
0.0
  0
LINE
  5
315
330
1F
100
AcDbEntity
  8
0
100
AcDbLine
 10
52.47345513237846
 20
-23.48933037651987
 30
0.0
 11
52.47345513237846
 21
-26.48933037651991
 31
0.0
  0
LINE
  5
316
330
1F
100
AcDbEntity
  8
0
100
AcDbLine
 10
-52.44875398262589
 20
-29.48933037651995
 30
0.0
 11
-52.44875398262589
 21
-32.48933037651999
 31
0.0
  0
LINE
  5
317
330
1F
100
AcDbEntity
  8
0
100
AcDbLine
 10
-52.44875398262589
 20
-35.48933037652003
 30
0.0
 11
-27.73560471505853
 21
-35.48933037652003
 31
0.0
  0
LINE
  5
318
330
1F
100
AcDbEntity
  8
0
100
AcDbLine
 10
-52.44875398262589
 20
-32.48933037651999
 30
0.0
 11
-27.73560471505853
 21
-32.48933037651999
 31
0.0
  0
LINE
  5
319
330
1F
100
AcDbEntity
  8
0
100
AcDbLine
 10
-46.47345513237856
 20
-36.98933037652005
 30
0.0
 11
-3.00000000000004
 21
-36.98933037652005
 31
0.0
  0
LINE
  5
31A
330
1F
100
AcDbEntity
  8
0
100
AcDbLine
 10
-46.47345513237856
 20
-39.98933037652009
 30
0.0
 11
-3.00000000000004
 21
-39.98933037652009
 31
0.0
  0
LINE
  5
31B
330
1F
100
AcDbEntity
  8
0
100
AcDbLine
 10
27.73672756618921
 20
-35.48933037652003
 30
0.0
 11
52.47345513237846
 21
-35.48933037652003
 31
0.0
  0
LINE
  5
31C
330
1F
100
AcDbEntity
  8
0
100
AcDbLine
 10
-21.73560376866552
 20
-35.48933037652003
 30
0.0
 11
21.73672756618922
 21
-35.48933037652003
 31
0.0
  0
LINE
  5
31D
330
1F
100
AcDbEntity
  8
0
100
AcDbLine
 10
-52.44875398262589
 20
-38.48933037652007
 30
0.0
 11
-27.73560471505853
 21
-38.48933037652007
 31
0.0
  0
LINE
  5
31E
330
1F
100
AcDbEntity
  8
0
100
AcDbLine
 10
-46.47345513237856
 20
-33.98933037652001
 30
0.0
 11
-3.00000000000004
 21
-33.98933037652001
 31
0.0
  0
LINE
  5
31F
330
1F
100
AcDbEntity
  8
0
100
AcDbLine
 10
27.73672756618921
 20
-32.48933037651999
 30
0.0
 11
52.47345513237846
 21
-32.48933037651999
 31
0.0
  0
LINE
  5
320
330
1F
100
AcDbEntity
  8
0
100
AcDbLine
 10
-21.73560376866552
 20
-32.48933037651999
 30
0.0
 11
21.73672756618922
 21
-32.48933037651999
 31
0.0
  0
LINE
  5
321
330
1F
100
AcDbEntity
  8
0
100
AcDbLine
 10
2.999999999999949
 20
-36.98933037652005
 30
0.0
 11
46.47345513237847
 21
-36.98933037652005
 31
0.0
  0
LINE
  5
322
330
1F
100
AcDbEntity
  8
0
100
AcDbLine
 10
2.999999999999949
 20
-33.98933037652001
 30
0.0
 11
46.47345513237847
 21
-33.98933037652001
 31
0.0
  0
LINE
  5
323
330
1F
100
AcDbEntity
  8
0
100
AcDbLine
 10
-46.47345513237856
 20
-30.98933037651997
 30
0.0
 11
-3.00000000000004
 21
-30.98933037651997
 31
0.0
  0
LINE
  5
324
330
1F
100
AcDbEntity
  8
0
100
AcDbLine
 10
-21.73560376866552
 20
-41.48933037652011
 30
0.0
 11
21.73672756618922
 21
-41.48933037652011
 31
0.0
  0
LINE
  5
325
330
1F
100
AcDbEntity
  8
0
100
AcDbLine
 10
-21.73560376866552
 20
-38.48933037652007
 30
0.0
 11
21.73672756618922
 21
-38.48933037652007
 31
0.0
  0
LINE
  5
326
330
1F
100
AcDbEntity
  8
0
100
AcDbLine
 10
-52.44875398262589
 20
-41.48933037652011
 30
0.0
 11
-27.73560471505853
 21
-41.48933037652011
 31
0.0
  0
LINE
  5
327
330
1F
100
AcDbEntity
  8
0
100
AcDbLine
 10
27.73672756618921
 20
-41.48933037652011
 30
0.0
 11
52.47345513237846
 21
-41.48933037652011
 31
0.0
  0
LINE
  5
328
330
1F
100
AcDbEntity
  8
0
100
AcDbLine
 10
2.999999999999949
 20
-39.98933037652009
 30
0.0
 11
46.47345513237847
 21
-39.98933037652009
 31
0.0
  0
LINE
  5
329
330
1F
100
AcDbEntity
  8
0
100
AcDbLine
 10
27.73672756618921
 20
-38.48933037652007
 30
0.0
 11
52.47345513237846
 21
-38.48933037652007
 31
0.0
  0
LINE
  5
32A
330
1F
100
AcDbEntity
  8
0
100
AcDbLine
 10
2.999999999999949
 20
-30.98933037651997
 30
0.0
 11
46.47345513237847
 21
-30.98933037651997
 31
0.0
  0
LINE
  5
32B
330
1F
100
AcDbEntity
  8
0
100
AcDbLine
 10
52.47345513237846
 20
-35.48933037652003
 30
0.0
 11
52.47345513237846
 21
-38.48933037652007
 31
0.0
  0
LINE
  5
32C
330
1F
100
AcDbEntity
  8
0
100
AcDbLine
 10
52.47345513237846
 20
-32.48933037651999
 30
0.0
 11
52.47345513237846
 21
-35.48933037652003
 31
0.0
  0
LINE
  5
32D
330
1F
100
AcDbEntity
  8
0
100
AcDbLine
 10
-52.44875398262589
 20
-35.48933037652003
 30
0.0
 11
-52.44875398262589
 21
-38.48933037652007
 31
0.0
  0
LINE
  5
32E
330
1F
100
AcDbEntity
  8
0
100
AcDbLine
 10
-52.44875398262589
 20
-32.48933037651999
 30
0.0
 11
-52.44875398262589
 21
-35.48933037652003
 31
0.0
  0
LINE
  5
32F
330
1F
100
AcDbEntity
  8
0
100
AcDbLine
 10
52.47345513237846
 20
-41.48933037652011
 30
0.0
 11
52.47345513237846
 21
-44.48933037652015
 31
0.0
  0
LINE
  5
330
330
1F
100
AcDbEntity
  8
0
100
AcDbLine
 10
52.47345513237846
 20
-38.48933037652007
 30
0.0
 11
52.47345513237846
 21
-41.48933037652011
 31
0.0
  0
LINE
  5
331
330
1F
100
AcDbEntity
  8
0
100
AcDbLine
 10
-52.44875398262589
 20
-38.48933037652007
 30
0.0
 11
-52.44875398262589
 21
-41.48933037652011
 31
0.0
  0
LINE
  5
332
330
1F
100
AcDbEntity
  8
0
100
AcDbLine
 10
-52.44875398262589
 20
-41.48933037652011
 30
0.0
 11
-52.44875398262589
 21
-44.48933037652015
 31
0.0
  0
LINE
  5
333
330
1F
100
AcDbEntity
  8
0
100
AcDbLine
 10
-52.44875398262589
 20
-47.48933037652019
 30
0.0
 11
-27.73560471505853
 21
-47.48933037652019
 31
0.0
  0
LINE
  5
334
330
1F
100
AcDbEntity
  8
0
100
AcDbLine
 10
-52.44875398262589
 20
-44.48933037652015
 30
0.0
 11
-27.73560471505853
 21
-44.48933037652015
 31
0.0
  0
LINE
  5
335
330
1F
100
AcDbEntity
  8
0
100
AcDbLine
 10
-46.47345513237856
 20
-45.98933037652017
 30
0.0
 11
-3.00000000000004
 21
-45.98933037652017
 31
0.0
  0
LINE
  5
336
330
1F
100
AcDbEntity
  8
0
100
AcDbLine
 10
2.999999999999949
 20
-51.98933037652025
 30
0.0
 11
46.47345513237847
 21
-51.98933037652025
 31
0.0
  0
LINE
  5
337
330
1F
100
AcDbEntity
  8
0
100
AcDbLine
 10
27.73672756618921
 20
-47.48933037652019
 30
0.0
 11
52.47345513237846
 21
-47.48933037652019
 31
0.0
  0
LINE
  5
338
330
1F
100
AcDbEntity
  8
0
100
AcDbLine
 10
-21.73560376866552
 20
-47.48933037652019
 30
0.0
 11
21.73672756618922
 21
-47.48933037652019
 31
0.0
  0
LINE
  5
339
330
1F
100
AcDbEntity
  8
0
100
AcDbLine
 10
-46.47345513237856
 20
-48.98933037652021
 30
0.0
 11
-3.00000000000004
 21
-48.98933037652021
 31
0.0
  0
LINE
  5
33A
330
1F
100
AcDbEntity
  8
0
100
AcDbLine
 10
2.999999999999949
 20
-48.98933037652021
 30
0.0
 11
46.47345513237847
 21
-48.98933037652021
 31
0.0
  0
LINE
  5
33B
330
1F
100
AcDbEntity
  8
0
100
AcDbLine
 10
2.999999999999949
 20
-42.98933037652013
 30
0.0
 11
46.47345513237847
 21
-42.98933037652013
 31
0.0
  0
LINE
  5
33C
330
1F
100
AcDbEntity
  8
0
100
AcDbLine
 10
-21.73560376866552
 20
-50.48933037652023
 30
0.0
 11
21.73672756618922
 21
-50.48933037652023
 31
0.0
  0
LINE
  5
33D
330
1F
100
AcDbEntity
  8
0
100
AcDbLine
 10
-46.47345513237856
 20
-42.98933037652013
 30
0.0
 11
-3.00000000000004
 21
-42.98933037652013
 31
0.0
  0
LINE
  5
33E
330
1F
100
AcDbEntity
  8
0
100
AcDbLine
 10
-21.73560376866552
 20
-44.48933037652015
 30
0.0
 11
21.73672756618922
 21
-44.48933037652015
 31
0.0
  0
LINE
  5
33F
330
1F
100
AcDbEntity
  8
0
100
AcDbLine
 10
-21.73560376866552
 20
-53.48933037652026
 30
0.0
 11
21.73672756618922
 21
-53.48933037652026
 31
0.0
  0
LINE
  5
340
330
1F
100
AcDbEntity
  8
0
100
AcDbLine
 10
27.73672756618921
 20
-44.48933037652015
 30
0.0
 11
52.47345513237846
 21
-44.48933037652015
 31
0.0
  0
LINE
  5
341
330
1F
100
AcDbEntity
  8
0
100
AcDbLine
 10
27.73672756618921
 20
-50.48933037652023
 30
0.0
 11
52.47345513237846
 21
-50.48933037652023
 31
0.0
  0
LINE
  5
342
330
1F
100
AcDbEntity
  8
0
100
AcDbLine
 10
-46.47345513237856
 20
-51.98933037652025
 30
0.0
 11
-3.00000000000004
 21
-51.98933037652025
 31
0.0
  0
LINE
  5
343
330
1F
100
AcDbEntity
  8
0
100
AcDbLine
 10
-52.44875398262589
 20
-50.48933037652023
 30
0.0
 11
-27.73560471505853
 21
-50.48933037652023
 31
0.0
  0
LINE
  5
344
330
1F
100
AcDbEntity
  8
0
100
AcDbLine
 10
27.73672756618921
 20
-53.48933037652026
 30
0.0
 11
52.47345513237846
 21
-53.48933037652026
 31
0.0
  0
LINE
  5
345
330
1F
100
AcDbEntity
  8
0
100
AcDbLine
 10
-52.44875398262589
 20
-53.48933037652026
 30
0.0
 11
-27.73560471505853
 21
-53.48933037652026
 31
0.0
  0
LINE
  5
346
330
1F
100
AcDbEntity
  8
0
100
AcDbLine
 10
2.999999999999949
 20
-45.98933037652017
 30
0.0
 11
46.47345513237847
 21
-45.98933037652017
 31
0.0
  0
LINE
  5
347
330
1F
100
AcDbEntity
  8
0
100
AcDbLine
 10
52.47345513237846
 20
-47.48933037652019
 30
0.0
 11
52.47345513237846
 21
-50.48933037652023
 31
0.0
  0
LINE
  5
348
330
1F
100
AcDbEntity
  8
0
100
AcDbLine
 10
52.47345513237846
 20
-44.48933037652015
 30
0.0
 11
52.47345513237846
 21
-47.48933037652019
 31
0.0
  0
LINE
  5
349
330
1F
100
AcDbEntity
  8
0
100
AcDbLine
 10
-52.44875398262589
 20
-47.48933037652019
 30
0.0
 11
-52.44875398262589
 21
-50.48933037652023
 31
0.0
  0
LINE
  5
34A
330
1F
100
AcDbEntity
  8
0
100
AcDbLine
 10
-52.44875398262589
 20
-44.48933037652015
 30
0.0
 11
-52.44875398262589
 21
-47.48933037652019
 31
0.0
  0
LINE
  5
34B
330
1F
100
AcDbEntity
  8
0
100
AcDbLine
 10
52.47345513237846
 20
-50.48933037652023
 30
0.0
 11
52.47345513237846
 21
-53.48933037652026
 31
0.0
  0
LINE
  5
34C
330
1F
100
AcDbEntity
  8
0
100
AcDbLine
 10
-52.44875398262589
 20
-53.48933037652026
 30
0.0
 11
-52.44875398262589
 21
-56.48933037652031
 31
0.0
  0
LINE
  5
34D
330
1F
100
AcDbEntity
  8
0
100
AcDbLine
 10
-52.44875398262589
 20
-50.48933037652023
 30
0.0
 11
-52.44875398262589
 21
-53.48933037652026
 31
0.0
  0
LINE
  5
34E
330
1F
100
AcDbEntity
  8
0
100
AcDbLine
 10
52.47345513237846
 20
-53.48933037652026
 30
0.0
 11
52.47345513237846
 21
-56.48933037652031
 31
0.0
  0
LINE
  5
34F
330
1F
100
AcDbEntity
  8
0
100
AcDbLine
 10
-52.44875398262589
 20
-59.48933037652035
 30
0.0
 11
-27.73560471505853
 21
-59.48933037652035
 31
0.0
  0
LINE
  5
350
330
1F
100
AcDbEntity
  8
0
100
AcDbLine
 10
-52.44875398262589
 20
-56.48933037652031
 30
0.0
 11
-27.73560471505853
 21
-56.48933037652031
 31
0.0
  0
LINE
  5
351
330
1F
100
AcDbEntity
  8
0
100
AcDbLine
 10
27.73672756618921
 20
-59.48933037652035
 30
0.0
 11
52.47345513237846
 21
-59.48933037652035
 31
0.0
  0
LINE
  5
352
330
1F
100
AcDbEntity
  8
0
100
AcDbLine
 10
-46.47345513237856
 20
-60.98933037652036
 30
0.0
 11
-3.00000000000004
 21
-60.98933037652036
 31
0.0
  0
LINE
  5
353
330
1F
100
AcDbEntity
  8
0
100
AcDbLine
 10
-52.44875398262589
 20
-62.48933037652039
 30
0.0
 11
-27.73560471505853
 21
-62.48933037652039
 31
0.0
  0
LINE
  5
354
330
1F
100
AcDbEntity
  8
0
100
AcDbLine
 10
-46.47345513237856
 20
-63.98933037652041
 30
0.0
 11
-3.00000000000004
 21
-63.98933037652041
 31
0.0
  0
LINE
  5
355
330
1F
100
AcDbEntity
  8
0
100
AcDbLine
 10
27.73672756618921
 20
-65.48933037652043
 30
0.0
 11
52.47345513237846
 21
-65.48933037652043
 31
0.0
  0
LINE
  5
356
330
1F
100
AcDbEntity
  8
0
100
AcDbLine
 10
2.999999999999949
 20
-60.98933037652036
 30
0.0
 11
46.47345513237847
 21
-60.98933037652036
 31
0.0
  0
LINE
  5
357
330
1F
100
AcDbEntity
  8
0
100
AcDbLine
 10
-46.47345513237856
 20
-54.98933037652029
 30
0.0
 11
-3.00000000000004
 21
-54.98933037652029
 31
0.0
  0
LINE
  5
358
330
1F
100
AcDbEntity
  8
0
100
AcDbLine
 10
-21.73560376866552
 20
-59.48933037652035
 30
0.0
 11
21.73672756618922
 21
-59.48933037652035
 31
0.0
  0
LINE
  5
359
330
1F
100
AcDbEntity
  8
0
100
AcDbLine
 10
-21.73560376866552
 20
-62.48933037652039
 30
0.0
 11
21.73672756618922
 21
-62.48933037652039
 31
0.0
  0
LINE
  5
35A
330
1F
100
AcDbEntity
  8
0
100
AcDbLine
 10
-21.73560376866552
 20
-56.48933037652031
 30
0.0
 11
21.73672756618922
 21
-56.48933037652031
 31
0.0
  0
LINE
  5
35B
330
1F
100
AcDbEntity
  8
0
100
AcDbLine
 10
2.999999999999949
 20
-57.98933037652033
 30
0.0
 11
46.47345513237847
 21
-57.98933037652033
 31
0.0
  0
LINE
  5
35C
330
1F
100
AcDbEntity
  8
0
100
AcDbLine
 10
-21.73560376866552
 20
-65.48933037652043
 30
0.0
 11
21.73672756618922
 21
-65.48933037652043
 31
0.0
  0
LINE
  5
35D
330
1F
100
AcDbEntity
  8
0
100
AcDbLine
 10
27.73672756618921
 20
-62.48933037652039
 30
0.0
 11
52.47345513237846
 21
-62.48933037652039
 31
0.0
  0
LINE
  5
35E
330
1F
100
AcDbEntity
  8
0
100
AcDbLine
 10
-52.44875398262589
 20
-65.48933037652043
 30
0.0
 11
-27.73560471505853
 21
-65.48933037652043
 31
0.0
  0
LINE
  5
35F
330
1F
100
AcDbEntity
  8
0
100
AcDbLine
 10
2.999999999999949
 20
-54.98933037652029
 30
0.0
 11
46.47345513237847
 21
-54.98933037652029
 31
0.0
  0
LINE
  5
360
330
1F
100
AcDbEntity
  8
0
100
AcDbLine
 10
27.73672756618921
 20
-56.48933037652031
 30
0.0
 11
52.47345513237846
 21
-56.48933037652031
 31
0.0
  0
LINE
  5
361
330
1F
100
AcDbEntity
  8
0
100
AcDbLine
 10
-46.47345513237856
 20
-57.98933037652033
 30
0.0
 11
-3.00000000000004
 21
-57.98933037652033
 31
0.0
  0
LINE
  5
362
330
1F
100
AcDbEntity
  8
0
100
AcDbLine
 10
2.999999999999949
 20
-63.98933037652041
 30
0.0
 11
46.47345513237847
 21
-63.98933037652041
 31
0.0
  0
LINE
  5
363
330
1F
100
AcDbEntity
  8
0
100
AcDbLine
 10
-52.44875398262589
 20
-59.48933037652035
 30
0.0
 11
-52.44875398262589
 21
-62.48933037652039
 31
0.0
  0
LINE
  5
364
330
1F
100
AcDbEntity
  8
0
100
AcDbLine
 10
-52.44875398262589
 20
-56.48933037652031
 30
0.0
 11
-52.44875398262589
 21
-59.48933037652035
 31
0.0
  0
LINE
  5
365
330
1F
100
AcDbEntity
  8
0
100
AcDbLine
 10
52.47345513237846
 20
-59.48933037652035
 30
0.0
 11
52.47345513237846
 21
-62.48933037652039
 31
0.0
  0
LINE
  5
366
330
1F
100
AcDbEntity
  8
0
100
AcDbLine
 10
52.47345513237846
 20
-56.48933037652031
 30
0.0
 11
52.47345513237846
 21
-59.48933037652035
 31
0.0
  0
LINE
  5
367
330
1F
100
AcDbEntity
  8
0
100
AcDbLine
 10
-52.44875398262589
 20
-62.48933037652039
 30
0.0
 11
-52.44875398262589
 21
-65.48933037652043
 31
0.0
  0
LINE
  5
368
330
1F
100
AcDbEntity
  8
0
100
AcDbLine
 10
52.47345513237846
 20
-65.48933037652043
 30
0.0
 11
52.47345513237846
 21
-68.48933037652047
 31
0.0
  0
LINE
  5
369
330
1F
100
AcDbEntity
  8
0
100
AcDbLine
 10
52.47345513237846
 20
-62.48933037652039
 30
0.0
 11
52.47345513237846
 21
-65.48933037652043
 31
0.0
  0
LINE
  5
36A
330
1F
100
AcDbEntity
  8
0
100
AcDbLine
 10
-52.44875398262589
 20
-65.48933037652043
 30
0.0
 11
-52.44875398262589
 21
-68.48933037652047
 31
0.0
  0
LINE
  5
36B
330
1F
100
AcDbEntity
  8
0
100
AcDbLine
 10
-52.44875398262589
 20
-71.4893303765205
 30
0.0
 11
-27.73560471505853
 21
-71.4893303765205
 31
0.0
  0
LINE
  5
36C
330
1F
100
AcDbEntity
  8
0
100
AcDbLine
 10
-52.44875398262589
 20
-68.48933037652047
 30
0.0
 11
-27.73560471505853
 21
-68.48933037652047
 31
0.0
  0
LINE
  5
36D
330
1F
100
AcDbEntity
  8
0
100
AcDbLine
 10
-21.73560376866552
 20
-68.48933037652047
 30
0.0
 11
21.73672756618922
 21
-68.48933037652047
 31
0.0
  0
LINE
  5
36E
330
1F
100
AcDbEntity
  8
0
100
AcDbLine
 10
-46.47345513237856
 20
-72.98933037652053
 30
0.0
 11
-3.00000000000004
 21
-72.98933037652053
 31
0.0
  0
LINE
  5
36F
330
1F
100
AcDbEntity
  8
0
100
AcDbLine
 10
27.73672756618921
 20
-71.4893303765205
 30
0.0
 11
52.47345513237846
 21
-71.4893303765205
 31
0.0
  0
LINE
  5
370
330
1F
100
AcDbEntity
  8
0
100
AcDbLine
 10
-46.47345513237856
 20
-66.98933037652044
 30
0.0
 11
-3.00000000000004
 21
-66.98933037652044
 31
0.0
  0
LINE
  5
371
330
1F
100
AcDbEntity
  8
0
100
AcDbLine
 10
27.73672756618921
 20
-68.48933037652047
 30
0.0
 11
52.47345513237846
 21
-68.48933037652047
 31
0.0
  0
LINE
  5
372
330
1F
100
AcDbEntity
  8
0
100
AcDbLine
 10
-46.47345513237856
 20
-69.98933037652048
 30
0.0
 11
-3.00000000000004
 21
-69.98933037652048
 31
0.0
  0
LINE
  5
373
330
1F
100
AcDbEntity
  8
0
100
AcDbLine
 10
-21.73560376866552
 20
-71.4893303765205
 30
0.0
 11
21.73672756618922
 21
-71.4893303765205
 31
0.0
  0
LINE
  5
374
330
1F
100
AcDbEntity
  8
0
100
AcDbLine
 10
2.999999999999949
 20
-69.98933037652048
 30
0.0
 11
46.47345513237847
 21
-69.98933037652048
 31
0.0
  0
LINE
  5
375
330
1F
100
AcDbEntity
  8
0
100
AcDbLine
 10
2.999999999999949
 20
-72.98933037652053
 30
0.0
 11
46.47345513237847
 21
-72.98933037652053
 31
0.0
  0
LINE
  5
376
330
1F
100
AcDbEntity
  8
0
100
AcDbLine
 10
2.999999999999949
 20
-66.98933037652044
 30
0.0
 11
46.47345513237847
 21
-66.98933037652044
 31
0.0
  0
LINE
  5
377
330
1F
100
AcDbEntity
  8
0
100
AcDbLine
 10
52.47345513237846
 20
-71.4893303765205
 30
0.0
 11
52.47345513237846
 21
-73.98933037651896
 31
0.0
  0
LINE
  5
378
330
1F
100
AcDbEntity
  8
0
100
AcDbLine
 10
52.47345513237846
 20
-68.48933037652047
 30
0.0
 11
52.47345513237846
 21
-71.4893303765205
 31
0.0
  0
LINE
  5
379
330
1F
100
AcDbEntity
  8
0
100
AcDbLine
 10
-52.44875398262589
 20
-71.4893303765205
 30
0.0
 11
-52.44875398262589
 21
-73.98933037651896
 31
0.0
  0
LINE
  5
37A
330
1F
100
AcDbEntity
  8
0
100
AcDbLine
 10
-52.44875398262589
 20
-68.48933037652047
 30
0.0
 11
-52.44875398262589
 21
-71.4893303765205
 31
0.0
  0
ENDSEC
  0
SECTION
  2
OBJECTS
  0
DICTIONARY
  5
C
330
0
100
AcDbDictionary
  3
ACAD_GROUP
350
D
  3
ACAD_LAYOUT
350
1A
  3
ACAD_MATERIAL
350
43
  3
ACAD_MLEADERSTYLE
350
39D
  3
ACAD_MLINESTYLE
350
17
  3
ACAD_PLOTSETTINGS
350
19
  3
ACAD_SCALELIST
350
47
  3
ACAD_VISUALSTYLE
350
2A
  3
ACDBHEADERROUNDTRIPXREC
350
37B
  3
ACDBVARIABLEDICTIONARY
350
39B
  0
DICTIONARY
  5
3A2
330
8
100
AcDbDictionary
280
     1
  3
ACAD_XREC_ROUNDTRIP
360
3A3
  0
DICTIONARY
  5
D
102
{ACAD_REACTORS
330
C
102
}
330
C
100
AcDbDictionary
  0
DICTIONARY
  5
1A
102
{ACAD_REACTORS
330
C
102
}
330
C
100
AcDbDictionary
  0
DICTIONARY
  5
43
102
{ACAD_REACTORS
330
C
102
}
330
C
100
AcDbDictionary
  3
BYBLOCK
350
45
  3
BYLAYER
350
44
  3
GLOBAL
350
46
  0
DICTIONARY
  5
39D
102
{ACAD_REACTORS
330
C
102
}
330
C
100
AcDbDictionary
  0
DICTIONARY
  5
17
102
{ACAD_REACTORS
330
C
102
}
330
C
100
AcDbDictionary
  3
STANDARD
350
18
  0
DICTIONARY
  5
19
102
{ACAD_REACTORS
330
C
102
}
330
C
100
AcDbDictionary
  0
DICTIONARY
  5
47
102
{ACAD_REACTORS
330
C
102
}
330
C
100
AcDbDictionary
  3
A0
350
48
  3
A1
350
49
  3
A2
350
4A
  3
A3
350
4B
  3
A4
350
4C
  3
A5
350
4D
  3
A6
350
4E
  3
A7
350
4F
  3
A8
350
50
  3
A9
350
51
  3
B0
350
52
  3
B1
350
53
  3
B2
350
54
  3
B3
350
55
  3
B4
350
56
  3
B5
350
57
  3
B6
350
58
  3
B7
350
59
  3
B8
350
5A
  3
B9
350
5B
  3
C0
350
5C
  3
C1
350
5D
  3
C2
350
5E
  3
C3
350
5F
  3
C4
350
60
  3
C5
350
61
  3
C6
350
62
  3
C7
350
63
  3
C8
350
64
  3
C9
350
65
  3
D0
350
66
  3
D1
350
67
  3
D2
350
68
  0
DICTIONARY
  5
2A
102
{ACAD_REACTORS
330
C
102
}
330
C
100
AcDbDictionary
  3
2DWIREFRAME
350
2F
  3
BASIC
350
32
  3
BRIGHTEN
350
36
  3
COLORCHANGE
350
3A
  3
CONCEPTUAL
350
34
  3
DIM
350
35
  3
EDGECOLOROFF
350
3D
  3
FACEPATTERN
350
39
  3
FLAT
350
2B
  3
FLATWITHEDGES
350
2C
  3
GOURAUD
350
2D
  3
GOURAUDWITHEDGES
350
2E
  3
HIDDEN
350
31
  3
JITTEROFF
350
3B
  3
LINEPATTERN
350
38
  3
OVERHANGOFF
350
3C
  3
REALISTIC
350
33
  3
SHADED
350
42
  3
SHADED_WITH_EDGES
350
41
  3
SHADES_OF_GRAY
350
3E
  3
SKETCHY
350
3F
  3
THICKEN
350
37
  3
WIREFRAME
350
30
  3
X-RAY
350
40
  0
DICTIONARY
  5
37B
102
{ACAD_REACTORS
330
C
102
}
330
C
100
AcDbDictionary
  3
CEPSNTYPE
350
384
  3
DIMSTYLEDATA
350
39A
  3
FINGERPRINTGUID
350
385
  3
HYPERLINKBASE
350
37E
  3
INSUNITS
350
383
  3
LAYOUTDICT
350
380
  3
LWETCUNION
350
382
  3
PLOTSETDICT
350
381
  3
PSVPSCALE
350
387
  3
PUCSBASE
350
38A
  3
PUCSORGBACK
350
390
  3
PUCSORGBOTTOM
350
38C
  3
PUCSORGFRONT
350
38F
  3
PUCSORGLEFT
350
38D
  3
PUCSORGRIGHT
350
38E
  3
PUCSORGTOP
350
38B
  3
PUCSORTHOREF
350
388
  3
PUCSORTHOVIEW
350
389
  3
STYLESHEET
350
37F
  3
TSTACKALIGN
350
37C
  3
TSTACKSIZE
350
37D
  3
UCSBASE
350
393
  3
UCSORGBACK
350
399
  3
UCSORGBOTTOM
350
395
  3
UCSORGFRONT
350
398
  3
UCSORGLEFT
350
396
  3
UCSORGRIGHT
350
397
  3
UCSORGTOP
350
394
  3
UCSORTHOREF
350
391
  3
UCSORTHOVIEW
350
392
  3
VERSIONGUID
350
386
  0
DICTIONARY
  5
39B
102
{ACAD_REACTORS
330
C
102
}
330
C
100
AcDbDictionary
  3
CANNOSCALE
350
3A4
  3
DIMASSOC
350
3A0
  3
HIDETEXT
350
3A1
  3
MSLTSCALE
350
3A5
  0
XRECORD
  5
3A3
102
{ACAD_REACTORS
330
3A2
102
}
330
3A2
100
AcDbXrecord
102
VTR_0.000_0.000_1.000_1.000_GRIDDISPLAY
 70
     3
102
VTR_0.000_0.000_1.000_1.000_GRIDMAJOR
 70
     5
102
VTR_0.000_0.000_1.000_1.000_DEFAULTLIGHTING
280
     1
102
VTR_0.000_0.000_1.000_1.000_DEFAULTLIGHTINGTYPE
 70
     1
102
VTR_0.000_0.000_1.000_1.000_BRIGHTNESS
141
0.0
102
VTR_0.000_0.000_1.000_1.000_CONTRAST
142
0.0
  0
MATERIAL
  5
45
102
{ACAD_REACTORS
330
43
102
}
102
{ACAD_XDICTIONARY
360
3A8
102
}
330
43
100
AcDbMaterial
  1
BYBLOCK
  0
MATERIAL
  5
44
102
{ACAD_REACTORS
330
43
102
}
102
{ACAD_XDICTIONARY
360
3A6
102
}
330
43
100
AcDbMaterial
  1
BYLAYER
  0
MATERIAL
  5
46
102
{ACAD_REACTORS
330
43
102
}
102
{ACAD_XDICTIONARY
360
3AA
102
}
330
43
100
AcDbMaterial
  1
GLOBAL
  0
MLINESTYLE
  5
18
102
{ACAD_REACTORS
330
17
102
}
330
17
100
AcDbMlineStyle
  2
Standard
 70
     0
  3

 62
   256
 51
90.0
 52
90.0
 71
     2
 49
0.5
 62
   256
  6
BYLAYER
 49
-0.5
 62
   256
  6
BYLAYER
  0
ACAD_PROXY_OBJECT
  5
48
102
{ACAD_REACTORS
330
47
102
}
330
47
100
AcDbProxyObject
 90
      499
 91
      503
 93
       41
310
903313A31580
  0
ACAD_PROXY_OBJECT
  5
49
102
{ACAD_REACTORS
330
47
102
}
330
47
100
AcDbProxyObject
 90
      499
 91
      503
 93
      105
310
903313A324000000000000004000
  0
ACAD_PROXY_OBJECT
  5
4A
102
{ACAD_REACTORS
330
47
102
}
330
47
100
AcDbProxyObject
 90
      499
 91
      503
 93
      105
310
903313A344000000000000104000
  0
ACAD_PROXY_OBJECT
  5
4B
102
{ACAD_REACTORS
330
47
102
}
330
47
100
AcDbProxyObject
 90
      499
 91
      503
 93
      105
310
903313A354000000000000144000
  0
ACAD_PROXY_OBJECT
  5
4C
102
{ACAD_REACTORS
330
47
102
}
330
47
100
AcDbProxyObject
 90
      499
 91
      503
 93
      105
310
903313A384000000000000204000
  0
ACAD_PROXY_OBJECT
  5
4D
102
{ACAD_REACTORS
330
47
102
}
330
47
100
AcDbProxyObject
 90
      499
 91
      503
 93
      113
310
904313A31304000000000000244000
  0
ACAD_PROXY_OBJECT
  5
4E
102
{ACAD_REACTORS
330
47
102
}
330
47
100
AcDbProxyObject
 90
      499
 91
      503
 93
      113
310
904313A31364000000000000304000
  0
ACAD_PROXY_OBJECT
  5
4F
102
{ACAD_REACTORS
330
47
102
}
330
47
100
AcDbProxyObject
 90
      499
 91
      503
 93
      113
310
904313A32304000000000000344000
  0
ACAD_PROXY_OBJECT
  5
50
102
{ACAD_REACTORS
330
47
102
}
330
47
100
AcDbProxyObject
 90
      499
 91
      503
 93
      113
310
904313A333040000000000003E4000
  0
ACAD_PROXY_OBJECT
  5
51
102
{ACAD_REACTORS
330
47
102
}
330
47
100
AcDbProxyObject
 90
      499
 91
      503
 93
      113
310
904313A34304000000000000444000
  0
ACAD_PROXY_OBJECT
  5
52
102
{ACAD_REACTORS
330
47
102
}
330
47
100
AcDbProxyObject
 90
      499
 91
      503
 93
      113
310
904313A35304000000000000494000
  0
ACAD_PROXY_OBJECT
  5
53
102
{ACAD_REACTORS
330
47
102
}
330
47
100
AcDbProxyObject
 90
      499
 91
      503
 93
      121
310
905313A3130304000000000000594000
  0
ACAD_PROXY_OBJECT
  5
54
102
{ACAD_REACTORS
330
47
102
}
330
47
100
AcDbProxyObject
 90
      499
 91
      503
 93
      105
310
903323A310000000000000010100
  0
ACAD_PROXY_OBJECT
  5
55
102
{ACAD_REACTORS
330
47
102
}
330
47
100
AcDbProxyObject
 90
      499
 91
      503
 93
      105
310
903343A310000000000000410100
  0
ACAD_PROXY_OBJECT
  5
56
102
{ACAD_REACTORS
330
47
102
}
330
47
100
AcDbProxyObject
 90
      499
 91
      503
 93
      105
310
903383A310000000000000810100
  0
ACAD_PROXY_OBJECT
  5
57
102
{ACAD_REACTORS
330
47
102
}
330
47
100
AcDbProxyObject
 90
      499
 91
      503
 93
      113
310
90431303A310000000000000910100
  0
ACAD_PROXY_OBJECT
  5
58
102
{ACAD_REACTORS
330
47
102
}
330
47
100
AcDbProxyObject
 90
      499
 91
      503
 93
      121
310
9053130303A310000000000001650100
  0
ACAD_PROXY_OBJECT
  5
59
102
{ACAD_REACTORS
330
47
102
}
330
47
100
AcDbProxyObject
 90
      499
 91
      503
 93
      257
310
90E312F31323822203D2031272D3022000000000000200FC000000000000284000
  0
ACAD_PROXY_OBJECT
  5
5A
102
{ACAD_REACTORS
330
47
102
}
330
47
100
AcDbProxyObject
 90
      499
 91
      503
 93
      249
310
90D312F363422203D2031272D3022000000000000240FC000000000000284000
  0
ACAD_PROXY_OBJECT
  5
5B
102
{ACAD_REACTORS
330
47
102
}
330
47
100
AcDbProxyObject
 90
      499
 91
      503
 93
      249
310
90D312F333222203D2031272D3022000000000000280FC000000000000284000
  0
ACAD_PROXY_OBJECT
  5
5C
102
{ACAD_REACTORS
330
47
102
}
330
47
100
AcDbProxyObject
 90
      499
 91
      503
 93
      249
310
90D312F313622203D2031272D30220000000000002C0FC000000000000284000
  0
ACAD_PROXY_OBJECT
  5
5D
102
{ACAD_REACTORS
330
47
102
}
330
47
100
AcDbProxyObject
 90
      499
 91
      503
 93
      249
310
90D332F333222203D2031272D30220000000000002E0FC000000000000284000
  0
ACAD_PROXY_OBJECT
  5
5E
102
{ACAD_REACTORS
330
47
102
}
330
47
100
AcDbProxyObject
 90
      499
 91
      503
 93
      241
310
90C312F3822203D2031272D3022000000000000300FC000000000000284000
  0
ACAD_PROXY_OBJECT
  5
5F
102
{ACAD_REACTORS
330
47
102
}
330
47
100
AcDbProxyObject
 90
      499
 91
      503
 93
      249
310
90D332F313622203D2031272D3022000000000000320FC000000000000284000
  0
ACAD_PROXY_OBJECT
  5
60
102
{ACAD_REACTORS
330
47
102
}
330
47
100
AcDbProxyObject
 90
      499
 91
      503
 93
      241
310
90C312F3422203D2031272D3022000000000000340FC000000000000284000
  0
ACAD_PROXY_OBJECT
  5
61
102
{ACAD_REACTORS
330
47
102
}
330
47
100
AcDbProxyObject
 90
      499
 91
      503
 93
      241
310
90C332F3822203D2031272D3022000000000000360FC000000000000284000
  0
ACAD_PROXY_OBJECT
  5
62
102
{ACAD_REACTORS
330
47
102
}
330
47
100
AcDbProxyObject
 90
      499
 91
      503
 93
      241
310
90C312F3222203D2031272D3022000000000000380FC000000000000284000
  0
ACAD_PROXY_OBJECT
  5
63
102
{ACAD_REACTORS
330
47
102
}
330
47
100
AcDbProxyObject
 90
      499
 91
      503
 93
      241
310
90C332F3422203D2031272D30220000000000003A0FC000000000000284000
  0
ACAD_PROXY_OBJECT
  5
64
102
{ACAD_REACTORS
330
47
102
}
330
47
100
AcDbProxyObject
 90
      499
 91
      503
 93
      161
310
90A3122203D2031272D30224000000000000284000
  0
ACAD_PROXY_OBJECT
  5
65
102
{ACAD_REACTORS
330
47
102
}
330
47
100
AcDbProxyObject
 90
      499
 91
      503
 93
      257
310
90E312D312F3222203D2031272D30220000000000003E0FC000000000000284000
  0
ACAD_PROXY_OBJECT
  5
66
102
{ACAD_REACTORS
330
47
102
}
330
47
100
AcDbProxyObject
 90
      499
 91
      503
 93
      225
310
90A3322203D2031272D302200000000000002100000000000000284000
  0
ACAD_PROXY_OBJECT
  5
67
102
{ACAD_REACTORS
330
47
102
}
330
47
100
AcDbProxyObject
 90
      499
 91
      503
 93
      225
310
90A3622203D2031272D302200000000000006100000000000000284000
  0
ACAD_PROXY_OBJECT
  5
68
102
{ACAD_REACTORS
330
47
102
}
330
47
100
AcDbProxyObject
 90
      499
 91
      503
 93
      249
310
90D31272D3022203D2031272D30220000000000000A100000000000000284000
  0
ACAD_PROXY_OBJECT
  5
2F
102
{ACAD_REACTORS
330
2A
102
}
330
2A
100
AcDbProxyObject
 90
      499
 91
      501
 93
      436
310
42CC9915DA5C99599C985B595049028333333333333E33F0000000000000F90107901411070040501600405405064090741402480A0340
1001
ACAD
1000
AcDbSavedByObjectVersion
1070
     0
  0
ACAD_PROXY_OBJECT
  5
32
102
{ACAD_REACTORS
330
2A
102
}
330
2A
100
AcDbProxyObject
 90
      499
 91
      501
 93
      388
310
4150985CDA58D07406404333333333333E33F0000000000000F90107A41107004050150841D405064090741402480A0350
1001
ACAD
1000
AcDbSavedByObjectVersion
1070
     0
  0
ACAD_PROXY_OBJECT
  5
36
102
{ACAD_REACTORS
330
2A
102
}
330
2A
100
AcDbProxyObject
 90
      499
 91
      501
 93
      428
310
42109C9A59DA1D195B90C409028333333333333E33F0000000000000F9010790141107004050150841D405064090741402480A029950
1001
ACAD
1000
AcDbSavedByObjectVersion
1070
     0
  0
ACAD_PROXY_OBJECT
  5
3A
102
{ACAD_REACTORS
330
2A
102
}
330
2A
100
AcDbProxyObject
 90
      499
 91
      501
 93
      452
310
42D0DBDB1BDC90DA185B99D95104090240C333333333333E33F0000000000000F90108901411070040501508421405064090741402480A0350
1001
ACAD
1000
AcDbSavedByObjectVersion
1070
     0
  0
ACAD_PROXY_OBJECT
  5
34
102
{ACAD_REACTORS
330
2A
102
}
330
2A
100
AcDbProxyObject
 90
      499
 91
      501
 93
      500
310
4290DBDB98D95C1D1D585B10940D028333333333333E33F0000000000000F90107902409070040501000000000018199010841D405064090740C02480A0340
1001
ACAD
1000
AcDbSavedByObjectVersion
1070
     0
  0
ACAD_PROXY_OBJECT
  5
35
102
{ACAD_REACTORS
330
2A
102
}
330
2A
100
AcDbProxyObject
 90
      499
 91
      501
 93
      412
310
40D11A5B50B409028333333333333E33F0000000000000F9010790141107004050150841D405064090741402480A02677FFFFFD0
1001
ACAD
1000
AcDbSavedByObjectVersion
1070
     0
  0
ACAD_PROXY_OBJECT
  5
3D
102
{ACAD_REACTORS
330
2A
102
}
330
2A
100
AcDbProxyObject
 90
      499
 91
      501
 93
      452
310
43115919D950DBDB1BDC93D999916409028333333333333E33F0000000000000F9010790141107004050150841D405064090741402480A0350
1001
ACAD
1000
AcDbSavedByObjectVersion
1070
     0
  0
ACAD_PROXY_OBJECT
  5
39
102
{ACAD_REACTORS
330
2A
102
}
330
2A
100
AcDbProxyObject
 90
      499
 91
      501
 93
      444
310
42D19858D95C185D1D195C9B90F409028333333333333E33F0000000000000F9010790141107004050150841D405064090741402480A0350
1001
ACAD
1000
AcDbSavedByObjectVersion
1070
     0
  0
ACAD_PROXY_OBJECT
  5
2B
102
{ACAD_REACTORS
330
2A
102
}
330
2A
100
AcDbProxyObject
 90
      499
 91
      501
 93
      380
310
41119B185D240901404333333333333E33F0000000000000F9010740A907004050150841D405064090741402480A1B50
1001
ACAD
1000
AcDbSavedByObjectVersion
1070
     0
  0
ACAD_PROXY_OBJECT
  5
2C
102
{ACAD_REACTORS
330
2A
102
}
330
2A
100
AcDbProxyObject
 90
      499
 91
      501
 93
      468
310
43519B185D15DA5D1A115919D95CD0140901404333333333333E33F0000000000000F90107409019070040501600405405064090741402480A1B50
1001
ACAD
1000
AcDbSavedByObjectVersion
1070
     0
  0
ACAD_PROXY_OBJECT
  5
2D
102
{ACAD_REACTORS
330
2A
102
}
330
2A
100
AcDbProxyObject
 90
      499
 91
      501
 93
      404
310
41D1DBDD5C985D5910240902404333333333333E33F0000000000000F9010740A9070040501641D405064090741402480A1B50
1001
ACAD
1000
AcDbSavedByObjectVersion
1070
     0
  0
ACAD_PROXY_OBJECT
  5
2E
102
{ACAD_REACTORS
330
2A
102
}
330
2A
100
AcDbProxyObject
 90
      499
 91
      501
 93
      492
310
4411DBDD5C985D5915DA5D1A115919D95CD0340902404333333333333E33F0000000000000F90107409019070040501600405405064090741402480A1B50
1001
ACAD
1000
AcDbSavedByObjectVersion
1070
     0
  0
ACAD_PROXY_OBJECT
  5
31
102
{ACAD_REACTORS
330
2A
102
}
330
2A
100
AcDbProxyObject
 90
      499
 91
      501
 93
      476
310
41921A5919195B90640502408333333333333E33F0000000000000F901079024090700405020000000000001110200405405064090740C02480A0340
1001
ACAD
1000
AcDbSavedByObjectVersion
1070
     0
  0
ACAD_PROXY_OBJECT
  5
3B
102
{ACAD_REACTORS
330
2A
102
}
330
2A
100
AcDbProxyObject
 90
      499
 91
      501
 93
      428
310
42529A5D1D195C93D999914409028333333333333E33F0000000000000F9010790141107004050150A41D405064090741402480A0350
1001
ACAD
1000
AcDbSavedByObjectVersion
1070
     0
  0
ACAD_PROXY_OBJECT
  5
38
102
{ACAD_REACTORS
330
2A
102
}
330
2A
100
AcDbProxyObject
 90
      499
 91
      501
 93
      444
310
42D31A5B995C185D1D195C9B90E409028333333333333E33F0000000000000F9010790141107004050750841D405064090741402483A0350
1001
ACAD
1000
AcDbSavedByObjectVersion
1070
     0
  0
ACAD_PROXY_OBJECT
  5
3C
102
{ACAD_REACTORS
330
2A
102
}
330
2A
100
AcDbProxyObject
 90
      499
 91
      501
 93
      444
310
42D3DD995C9A185B99D3D999915409028333333333333E33F0000000000000F9010790141107004050150941D405064090741402480A0350
1001
ACAD
1000
AcDbSavedByObjectVersion
1070
     0
  0
ACAD_PROXY_OBJECT
  5
33
102
{ACAD_REACTORS
330
2A
102
}
330
2A
100
AcDbProxyObject
 90
      499
 91
      501
 93
      428
310
425499585B1A5CDD1A58D08409038333333333333E33F0000000000000F9010740A907004050150800405405064090740C02480A1B40
1001
ACAD
1000
AcDbSavedByObjectVersion
1070
     0
  0
ACAD_PROXY_OBJECT
  5
42
102
{ACAD_REACTORS
330
2A
102
}
330
2A
100
AcDbProxyObject
 90
      499
 91
      501
 93
      420
310
4194DA1859195911B40902404333333333333E33F0000000000000F9010740A41107004050150800405405064090840C02480A0B40
1001
ACAD
1000
AcDbSavedByObjectVersion
1070
     0
  0
ACAD_PROXY_OBJECT
  5
41
102
{ACAD_REACTORS
330
2A
102
}
330
2A
100
AcDbProxyObject
 90
      499
 91
      501
 93
      516
310
4454DA18591959081DDA5D1A08195919D95CD1A40902404333333333333E33F0000000000000F901074090142907004050250800405405064090740C02480A0B40
1001
ACAD
1000
AcDbSavedByObjectVersion
1070
     0
  0
ACAD_PROXY_OBJECT
  5
3E
102
{ACAD_REACTORS
330
2A
102
}
330
2A
100
AcDbProxyObject
 90
      499
 91
      501
 93
      532
310
4394DA1859195CC81BD98811DC985E5174090240C333333333333E33F0000000000000F901079024090741D01000000000000111010841D405064090740C02480A0340
1001
ACAD
1000
AcDbSavedByObjectVersion
1070
     0
  0
ACAD_PROXY_OBJECT
  5
3F
102
{ACAD_REACTORS
330
2A
102
}
330
2A
100
AcDbProxyObject
 90
      499
 91
      501
 93
      476
310
41D4DAD95D18DA1E51840502408333333333333E33F0000000000000F901079024090741D01000000000000111010B41D405064090741802480A0340
1001
ACAD
1000
AcDbSavedByObjectVersion
1070
     0
  0
ACAD_PROXY_OBJECT
  5
37
102
{ACAD_REACTORS
330
2A
102
}
330
2A
100
AcDbProxyObject
 90
      499
 91
      501
 93
      412
310
41D51A1A58DAD95B90D409028333333333333E33F0000000000000F9010790141107004050150C41D405064090741402480A0350
1001
ACAD
1000
AcDbSavedByObjectVersion
1070
     0
  0
ACAD_PROXY_OBJECT
  5
30
102
{ACAD_REACTORS
330
2A
102
}
330
2A
100
AcDbProxyObject
 90
      499
 91
      501
 93
      420
310
4255DA5C99599C985B595059028333333333333E33F0000000000000F90107901411070040501600405405064090740C02480A0340
1001
ACAD
1000
AcDbSavedByObjectVersion
1070
     0
  0
ACAD_PROXY_OBJECT
  5
40
102
{ACAD_REACTORS
330
2A
102
}
330
2A
100
AcDbProxyObject
 90
      499
 91
      501
 93
      404
310
41560B54985E51940902404000000000000E03F0000000000000F9010740501907004050150841D405064090740C02480A1B40
1001
ACAD
1000
AcDbSavedByObjectVersion
1070
     0
  0
XRECORD
  5
384
102
{ACAD_REACTORS
330
37B
102
}
330
37B
100
AcDbXrecord
 90
        0
  0
XRECORD
  5
39A
102
{ACAD_REACTORS
330
37B
102
}
330
37B
100
AcDbXrecord
1000
DSTYLE
1002
{
1070
   340
340
11
1002
}
  0
XRECORD
  5
385
102
{ACAD_REACTORS
330
37B
102
}
330
37B
100
AcDbXrecord
  1
{E6ED2834-B1CE-443A-B3E3-EE23404DF1A2}
  0
XRECORD
  5
37E
102
{ACAD_REACTORS
330
37B
102
}
330
37B
100
AcDbXrecord
  1

  0
XRECORD
  5
383
102
{ACAD_REACTORS
330
37B
102
}
330
37B
100
AcDbXrecord
 90
        1
  0
XRECORD
  5
380
102
{ACAD_REACTORS
330
37B
102
}
330
37B
100
AcDbXrecord
340
1A
  0
XRECORD
  5
382
102
{ACAD_REACTORS
330
37B
102
}
330
37B
100
AcDbXrecord
 90
    10781
  0
XRECORD
  5
381
102
{ACAD_REACTORS
330
37B
102
}
330
37B
100
AcDbXrecord
340
19
  0
XRECORD
  5
387
102
{ACAD_REACTORS
330
37B
102
}
330
37B
100
AcDbXrecord
 40
0.0
  0
XRECORD
  5
38A
102
{ACAD_REACTORS
330
37B
102
}
330
37B
100
AcDbXrecord
340
0
  0
XRECORD
  5
390
102
{ACAD_REACTORS
330
37B
102
}
330
37B
100
AcDbXrecord
 10
0.0
 20
0.0
 30
0.0
  0
XRECORD
  5
38C
102
{ACAD_REACTORS
330
37B
102
}
330
37B
100
AcDbXrecord
 10
0.0
 20
0.0
 30
0.0
  0
XRECORD
  5
38F
102
{ACAD_REACTORS
330
37B
102
}
330
37B
100
AcDbXrecord
 10
0.0
 20
0.0
 30
0.0
  0
XRECORD
  5
38D
102
{ACAD_REACTORS
330
37B
102
}
330
37B
100
AcDbXrecord
 10
0.0
 20
0.0
 30
0.0
  0
XRECORD
  5
38E
102
{ACAD_REACTORS
330
37B
102
}
330
37B
100
AcDbXrecord
 10
0.0
 20
0.0
 30
0.0
  0
XRECORD
  5
38B
102
{ACAD_REACTORS
330
37B
102
}
330
37B
100
AcDbXrecord
 10
0.0
 20
0.0
 30
0.0
  0
XRECORD
  5
388
102
{ACAD_REACTORS
330
37B
102
}
330
37B
100
AcDbXrecord
340
0
  0
XRECORD
  5
389
102
{ACAD_REACTORS
330
37B
102
}
330
37B
100
AcDbXrecord
 70
     0
  0
XRECORD
  5
37F
102
{ACAD_REACTORS
330
37B
102
}
330
37B
100
AcDbXrecord
  1

  0
XRECORD
  5
37C
102
{ACAD_REACTORS
330
37B
102
}
330
37B
100
AcDbXrecord
 90
        1
  0
XRECORD
  5
37D
102
{ACAD_REACTORS
330
37B
102
}
330
37B
100
AcDbXrecord
 90
       70
  0
XRECORD
  5
393
102
{ACAD_REACTORS
330
37B
102
}
330
37B
100
AcDbXrecord
340
0
  0
XRECORD
  5
399
102
{ACAD_REACTORS
330
37B
102
}
330
37B
100
AcDbXrecord
 10
0.0
 20
0.0
 30
0.0
  0
XRECORD
  5
395
102
{ACAD_REACTORS
330
37B
102
}
330
37B
100
AcDbXrecord
 10
0.0
 20
0.0
 30
0.0
  0
XRECORD
  5
398
102
{ACAD_REACTORS
330
37B
102
}
330
37B
100
AcDbXrecord
 10
0.0
 20
0.0
 30
0.0
  0
XRECORD
  5
396
102
{ACAD_REACTORS
330
37B
102
}
330
37B
100
AcDbXrecord
 10
0.0
 20
0.0
 30
0.0
  0
XRECORD
  5
397
102
{ACAD_REACTORS
330
37B
102
}
330
37B
100
AcDbXrecord
 10
0.0
 20
0.0
 30
0.0
  0
XRECORD
  5
394
102
{ACAD_REACTORS
330
37B
102
}
330
37B
100
AcDbXrecord
 10
0.0
 20
0.0
 30
0.0
  0
XRECORD
  5
391
102
{ACAD_REACTORS
330
37B
102
}
330
37B
100
AcDbXrecord
340
0
  0
XRECORD
  5
392
102
{ACAD_REACTORS
330
37B
102
}
330
37B
100
AcDbXrecord
 70
     0
  0
XRECORD
  5
386
102
{ACAD_REACTORS
330
37B
102
}
330
37B
100
AcDbXrecord
  1
{FAEB1C32-E019-11D5-929B-00C0DF256EC4}
  0
DICTIONARYVAR
  5
3A4
102
{ACAD_REACTORS
330
39B
102
}
330
39B
100
DictionaryVariables
280
     0
  1
1:1
  0
DICTIONARYVAR
  5
3A0
102
{ACAD_REACTORS
330
39B
102
}
330
39B
100
DictionaryVariables
280
     0
  1
2
  0
DICTIONARYVAR
  5
3A1
102
{ACAD_REACTORS
330
39B
102
}
330
39B
100
DictionaryVariables
280
     0
  1
1
  0
DICTIONARYVAR
  5
3A5
102
{ACAD_REACTORS
330
39B
102
}
330
39B
100
DictionaryVariables
280
     0
  1
1
  0
DICTIONARY
  5
3A8
330
45
100
AcDbDictionary
280
     1
  3
ACAD_XREC_ROUNDTRIP
360
3A9
  0
DICTIONARY
  5
3A6
330
44
100
AcDbDictionary
280
     1
  3
ACAD_XREC_ROUNDTRIP
360
3A7
  0
DICTIONARY
  5
3AA
330
46
100
AcDbDictionary
280
     1
  3
ACAD_XREC_ROUNDTRIP
360
3AB
  0
XRECORD
  5
3A9
102
{ACAD_REACTORS
330
3A8
102
}
330
3A8
100
AcDbXrecord
102
MATERIAL
148
0.0
149
0.0
149
0.0
 93
        0
 94
      127
282
     0
 72
     1
 77
     1
171
     1
175
     1
179
     1
273
     0
  0
XRECORD
  5
3A7
102
{ACAD_REACTORS
330
3A6
102
}
330
3A6
100
AcDbXrecord
102
MATERIAL
148
0.0
149
0.0
149
0.0
 93
        0
 94
      127
282
     0
 72
     1
 77
     1
171
     1
175
     1
179
     1
273
     0
  0
XRECORD
  5
3AB
102
{ACAD_REACTORS
330
3AA
102
}
330
3AA
100
AcDbXrecord
102
MATERIAL
148
0.0
149
0.0
149
0.0
 93
        0
 94
      127
282
     0
 72
     1
 77
     1
171
     1
175
     1
179
     1
273
     0
  0
ENDSEC
  0
EOF
