  0
SECTION
  2
HEADER
  9
$ACADVER
  1
AC1014
  9
$ACADMAINTVER
 70
     9
  9
$DWGCODEPAGE
  3
ANSI_1252
  9
$INSBASE
 10
0.0
 20
0.0
 30
0.0
  9
$EXTMIN
 10
1.000000000000000E+20
 20
1.000000000000000E+20
 30
1.000000000000000E+20
  9
$EXTMAX
 10
-1.000000000000000E+20
 20
-1.000000000000000E+20
 30
-1.000000000000000E+20
  9
$LIMMIN
 10
0.0
 20
0.0
  9
$LIMMAX
 10
12.0
 20
9.0
  9
$ORTHOMODE
 70
     0
  9
$REGENMODE
 70
     1
  9
$FILLMODE
 70
     1
  9
$QTEXTMODE
 70
     0
  9
$MIRRTEXT
 70
     1
  9
$DRAGMODE
 70
     2
  9
$LTSCALE
 40
1.0
  9
$OSMODE
 70
    37
  9
$ATTMODE
 70
     1
  9
$TEXTSIZE
 40
0.2
  9
$TRACEWID
 40
0.05
  9
$TEXTSTYLE
  7
STANDARD
  9
$CLAYER
  8
0
  9
$CELTYPE
  6
BYLAYER
  9
$CECOLOR
 62
   256
  9
$CELTSCALE
 40
1.0
  9
$DELOBJ
 70
     1
  9
$DISPSILH
 70
     0
  9
$DIMSCALE
 40
1.0
  9
$DIMASZ
 40
0.18
  9
$DIMEXO
 40
0.0625
  9
$DIMDLI
 40
0.38
  9
$DIMRND
 40
0.0
  9
$DIMDLE
 40
0.0
  9
$DIMEXE
 40
0.18
  9
$DIMTP
 40
0.0
  9
$DIMTM
 40
0.0
  9
$DIMTXT
 40
0.18
  9
$DIMCEN
 40
0.09
  9
$DIMTSZ
 40
0.0
  9
$DIMTOL
 70
     0
  9
$DIMLIM
 70
     0
  9
$DIMTIH
 70
     1
  9
$DIMTOH
 70
     1
  9
$DIMSE1
 70
     0
  9
$DIMSE2
 70
     0
  9
$DIMTAD
 70
     0
  9
$DIMZIN
 70
     0
  9
$DIMBLK
  1

  9
$DIMASO
 70
     1
  9
$DIMSHO
 70
     1
  9
$DIMPOST
  1

  9
$DIMAPOST
  1

  9
$DIMALT
 70
     0
  9
$DIMALTD
 70
     2
  9
$DIMALTF
 40
25.4
  9
$DIMLFAC
 40
1.0
  9
$DIMTOFL
 70
     0
  9
$DIMTVP
 40
0.0
  9
$DIMTIX
 70
     0
  9
$DIMSOXD
 70
     0
  9
$DIMSAH
 70
     0
  9
$DIMBLK1
  1

  9
$DIMBLK2
  1

  9
$DIMSTYLE
  2
STANDARD
  9
$DIMCLRD
 70
     0
  9
$DIMCLRE
 70
     0
  9
$DIMCLRT
 70
     0
  9
$DIMTFAC
 40
1.0
  9
$DIMGAP
 40
0.09
  9
$DIMJUST
 70
     0
  9
$DIMSD1
 70
     0
  9
$DIMSD2
 70
     0
  9
$DIMTOLJ
 70
     1
  9
$DIMTZIN
 70
     0
  9
$DIMALTZ
 70
     0
  9
$DIMALTTZ
 70
     0
  9
$DIMFIT
 70
     3
  9
$DIMUPT
 70
     0
  9
$DIMUNIT
 70
     2
  9
$DIMDEC
 70
     4
  9
$DIMTDEC
 70
     4
  9
$DIMALTU
 70
     2
  9
$DIMALTTD
 70
     2
  9
$DIMTXSTY
  7
STANDARD
  9
$DIMAUNIT
 70
     0
  9
$LUNITS
 70
     2
  9
$LUPREC
 70
     4
  9
$SKETCHINC
 40
0.1
  9
$FILLETRAD
 40
0.5
  9
$AUNITS
 70
     0
  9
$AUPREC
 70
     0
  9
$MENU
  1
.
  9
$ELEVATION
 40
0.0
  9
$PELEVATION
 40
0.0
  9
$THICKNESS
 40
0.0
  9
$LIMCHECK
 70
     0
  9
$CHAMFERA
 40
0.0
  9
$CHAMFERB
 40
0.0
  9
$CHAMFERC
 40
0.0
  9
$CHAMFERD
 40
0.0
  9
$SKPOLY
 70
     0
  9
$TDCREATE
 40
2457294.88195581
  9
$TDUPDATE
 40
2457294.881956215
  9
$TDINDWG
 40
0.0000000116
  9
$TDUSRTIMER
 40
0.0000000116
  9
$USRTIMER
 70
     1
  9
$ANGBASE
 50
0.0
  9
$ANGDIR
 70
     0
  9
$PDMODE
 70
     0
  9
$PDSIZE
 40
0.0
  9
$PLINEWID
 40
0.0
  9
$COORDS
 70
     1
  9
$SPLFRAME
 70
     0
  9
$SPLINETYPE
 70
     6
  9
$SPLINESEGS
 70
     8
  9
$ATTDIA
 70
     0
  9
$ATTREQ
 70
     1
  9
$HANDLING
 70
     1
  9
$HANDSEED
  5
39E
  9
$SURFTAB1
 70
     6
  9
$SURFTAB2
 70
     6
  9
$SURFTYPE
 70
     6
  9
$SURFU
 70
     6
  9
$SURFV
 70
     6
  9
$UCSNAME
  2

  9
$UCSORG
 10
0.0
 20
0.0
 30
0.0
  9
$UCSXDIR
 10
1.0
 20
0.0
 30
0.0
  9
$UCSYDIR
 10
0.0
 20
1.0
 30
0.0
  9
$PUCSNAME
  2

  9
$PUCSORG
 10
0.0
 20
0.0
 30
0.0
  9
$PUCSXDIR
 10
1.0
 20
0.0
 30
0.0
  9
$PUCSYDIR
 10
0.0
 20
1.0
 30
0.0
  9
$USERI1
 70
     0
  9
$USERI2
 70
     0
  9
$USERI3
 70
     0
  9
$USERI4
 70
     0
  9
$USERI5
 70
     0
  9
$USERR1
 40
0.0
  9
$USERR2
 40
0.0
  9
$USERR3
 40
0.0
  9
$USERR4
 40
0.0
  9
$USERR5
 40
0.0
  9
$WORLDVIEW
 70
     1
  9
$SHADEDGE
 70
     3
  9
$SHADEDIF
 70
    70
  9
$TILEMODE
 70
     1
  9
$MAXACTVP
 70
    64
  9
$PINSBASE
 10
0.0
 20
0.0
 30
0.0
  9
$PLIMCHECK
 70
     0
  9
$PEXTMIN
 10
1.000000000000000E+20
 20
1.000000000000000E+20
 30
1.000000000000000E+20
  9
$PEXTMAX
 10
-1.000000000000000E+20
 20
-1.000000000000000E+20
 30
-1.000000000000000E+20
  9
$PLIMMIN
 10
0.0
 20
0.0
  9
$PLIMMAX
 10
12.0
 20
9.0
  9
$UNITMODE
 70
     0
  9
$VISRETAIN
 70
     1
  9
$PLINEGEN
 70
     0
  9
$PSLTSCALE
 70
     1
  9
$TREEDEPTH
 70
  3020
  9
$PICKSTYLE
 70
     1
  9
$CMLSTYLE
  2
STANDARD
  9
$CMLJUST
 70
     0
  9
$CMLSCALE
 40
1.0
  9
$PROXYGRAPHICS
 70
     1
  9
$MEASUREMENT
 70
     1
  0
ENDSEC
  0
SECTION
  2
CLASSES
  0
CLASS
  1
ACDBDICTIONARYWDFLT
  2
AcDbDictionaryWithDefault
  3
ObjectDBX Classes
 90
        0
280
     0
281
     0
  0
CLASS
  1
VISUALSTYLE
  2
AcDbVisualStyle
  3
ObjectDBX Classes
 90
     4095
280
     0
281
     0
  0
CLASS
  1
MATERIAL
  2
AcDbMaterial
  3
ObjectDBX Classes
 90
     1153
280
     0
281
     0
  0
CLASS
  1
SCALE
  2
AcDbScale
  3
ObjectDBX Classes
 90
     1153
280
     0
281
     0
  0
CLASS
  1
SUN
  2
AcDbSun
  3
SCENEOE
 90
     1153
280
     0
281
     0
  0
CLASS
  1
DICTIONARYVAR
  2
AcDbDictionaryVar
  3
ObjectDBX Classes
 90
        0
280
     0
281
     0
  0
CLASS
  1
XRECORD
  2
AcDbXrecord
  3
ObjectDBX Classes
 90
        0
280
     0
281
     0
  0
CLASS
  1
LWPOLYLINE
  2
AcDbPolyline
  3
ObjectDBX Classes
 90
        0
280
     0
281
     1
  0
CLASS
  1
HATCH
  2
AcDbHatch
  3
ObjectDBX Classes
 90
        0
280
     0
281
     1
  0
CLASS
  1
ACDBPLACEHOLDER
  2
AcDbPlaceHolder
  3
ObjectDBX Classes
 90
        0
280
     0
281
     0
  0
CLASS
  1
LAYOUT
  2
AcDbLayout
  3
ObjectDBX Classes
 90
        0
280
     0
281
     0
  0
ENDSEC
  0
SECTION
  2
TABLES
  0
TABLE
  2
VPORT
  5
8
102
{ACAD_XDICTIONARY
360
394
102
}
330
0
100
AcDbSymbolTable
 70
     1
  0
VPORT
  5
29
330
8
100
AcDbSymbolTableRecord
100
AcDbViewportTableRecord
  2
*ACTIVE
 70
     0
 10
0.0
 20
0.0
 11
1.0
 21
1.0
 12
0.0
 22
0.0
 13
0.0
 23
0.0
 14
0.5
 24
0.5
 15
0.5
 25
0.5
 16
0.0
 26
0.0
 36
1.0
 17
0.0
 27
0.0
 37
-1000.0
 40
154.709587678416
 41
2.146478873239437
 42
50.0
 43
1291.158365606801
 44
1606.022446852757
 50
0.0
 51
0.0
 71
     0
 72
   100
 73
     1
 74
     3
 75
     0
 76
     0
 77
     0
 78
     0
  0
ENDTAB
  0
TABLE
  2
LTYPE
  5
5
330
0
100
AcDbSymbolTable
 70
     1
  0
LTYPE
  5
14
330
5
100
AcDbSymbolTableRecord
100
AcDbLinetypeTableRecord
  2
BYBLOCK
 70
     0
  3

 72
    65
 73
     0
 40
0.0
  0
LTYPE
  5
15
330
5
100
AcDbSymbolTableRecord
100
AcDbLinetypeTableRecord
  2
BYLAYER
 70
     0
  3

 72
    65
 73
     0
 40
0.0
  0
LTYPE
  5
16
330
5
100
AcDbSymbolTableRecord
100
AcDbLinetypeTableRecord
  2
CONTINUOUS
 70
     0
  3
Solid line
 72
    65
 73
     0
 40
0.0
  0
ENDTAB
  0
TABLE
  2
LAYER
  5
2
330
0
100
AcDbSymbolTable
 70
     3
  0
LAYER
  5
10
330
2
100
AcDbSymbolTableRecord
100
AcDbLayerTableRecord
  2
0
 70
     0
 62
     7
  6
CONTINUOUS
  0
LAYER
  5
6A
330
2
100
AcDbSymbolTableRecord
100
AcDbLayerTableRecord
  2
PROFILEEDGES
 70
     0
 62
     7
  6
CONTINUOUS
  0
LAYER
  5
6B
330
2
100
AcDbSymbolTableRecord
100
AcDbLayerTableRecord
  2
SECTIONCUTEDGES
 70
     0
 62
     7
  6
CONTINUOUS
  0
ENDTAB
  0
TABLE
  2
STYLE
  5
3
330
0
100
AcDbSymbolTable
 70
     1
  0
STYLE
  5
11
330
3
100
AcDbSymbolTableRecord
100
AcDbTextStyleTableRecord
  2
STANDARD
 70
     0
 40
0.0
 41
1.0
 50
0.0
 71
     0
 42
0.2
  3
txt
  4

  0
ENDTAB
  0
TABLE
  2
VIEW
  5
6
330
0
100
AcDbSymbolTable
 70
     0
  0
ENDTAB
  0
TABLE
  2
UCS
  5
7
330
0
100
AcDbSymbolTable
 70
     0
  0
ENDTAB
  0
TABLE
  2
APPID
  5
9
330
0
100
AcDbSymbolTable
 70
     1
  0
APPID
  5
12
330
9
100
AcDbSymbolTableRecord
100
AcDbRegAppTableRecord
  2
ACAD
 70
     0
  0
ENDTAB
  0
TABLE
  2
DIMSTYLE
  5
A
330
0
100
AcDbSymbolTable
 70
     1
  0
DIMSTYLE
105
27
330
A
100
AcDbSymbolTableRecord
100
AcDbDimStyleTableRecord
  2
STANDARD
 70
     0
  3

  4

  5

  6

  7

 40
1.0
 41
0.18
 42
0.0625
 43
0.38
 44
0.18
 45
0.0
 46
0.0
 47
0.0
 48
0.0
140
0.18
141
0.09
142
0.0
143
25.4
144
1.0
145
0.0
146
1.0
147
0.09
 71
     0
 72
     0
 73
     1
 74
     1
 75
     0
 76
     0
 77
     0
 78
     0
170
     0
171
     2
172
     0
173
     0
174
     0
175
     0
176
     0
177
     0
178
     0
270
     2
271
     4
272
     4
273
     2
274
     2
340
11
275
     0
280
     0
281
     0
282
     0
283
     1
284
     0
285
     0
286
     0
287
     3
288
     0
  0
ENDTAB
  0
TABLE
  2
BLOCK_RECORD
  5
1
330
0
100
AcDbSymbolTable
 70
     1
  0
BLOCK_RECORD
  5
1F
330
1
100
AcDbSymbolTableRecord
100
AcDbBlockTableRecord
  2
*MODEL_SPACE
  0
BLOCK_RECORD
  5
1B
330
1
100
AcDbSymbolTableRecord
100
AcDbBlockTableRecord
  2
*PAPER_SPACE
  0
ENDTAB
  0
ENDSEC
  0
SECTION
  2
BLOCKS
  0
BLOCK
  5
20
330
1F
100
AcDbEntity
  8
0
100
AcDbBlockBegin
  2
*MODEL_SPACE
 70
     0
 10
0.0
 20
0.0
 30
0.0
  3
*MODEL_SPACE
  1

  0
ENDBLK
  5
21
330
1F
100
AcDbEntity
  8
0
100
AcDbBlockEnd
  0
BLOCK
  5
1C
330
1B
100
AcDbEntity
 67
     1
  8
0
100
AcDbBlockBegin
  2
*PAPER_SPACE
 70
     0
 10
0.0
 20
0.0
 30
0.0
  3
*PAPER_SPACE
  1

  0
ENDBLK
  5
1D
330
1B
100
AcDbEntity
 67
     1
  8
0
100
AcDbBlockEnd
  0
ENDSEC
  0
SECTION
  2
ENTITIES
  0
LINE
  5
6C
330
1F
100
AcDbEntity
  8
0
100
AcDbLine
 10
-52.47843141507477
 20
73.48705414724762
 30
0.0
 11
52.46847884968214
 21
73.48705414724762
 31
0.0
  0
LINE
  5
6D
330
1F
100
AcDbEntity
  8
0
100
AcDbLine
 10
-52.47843141507477
 20
73.48705414724762
 30
0.0
 11
-52.49801776255465
 21
31.50839339420953
 31
0.0
  0
LINE
  5
6E
330
1F
100
AcDbEntity
  8
0
100
AcDbLine
 10
-44.25173576552142
 20
68.72913821193093
 30
0.0
 11
-44.67685206604975
 21
68.73099145324885
 31
0.0
  0
LINE
  5
6F
330
1F
100
AcDbEntity
  8
0
100
AcDbLine
 10
-44.67685206604975
 20
68.73099145324885
 30
0.0
 11
-45.09857333422724
 21
68.67734002787178
 31
0.0
  0
LINE
  5
70
330
1F
100
AcDbEntity
  8
0
100
AcDbLine
 10
-47.55137099260637
 20
66.54513843162204
 30
0.0
 11
-47.66318928121791
 21
66.13498727191353
 31
0.0
  0
LINE
  5
71
330
1F
100
AcDbEntity
  8
0
100
AcDbLine
 10
-45.90314925597584
 20
68.40812913324477
 30
0.0
 11
-46.2722373924552
 21
68.19717593704128
 31
0.0
  0
LINE
  5
72
330
1F
100
AcDbEntity
  8
0
100
AcDbLine
 10
-42.02563375669567
 20
67.61925574349735
 30
0.0
 11
-42.32492593608909
 21
67.92116880189694
 31
0.0
  0
LINE
  5
73
330
1F
100
AcDbEntity
  8
0
100
AcDbLine
 10
-46.61063301132453
 20
67.9398518056267
 30
0.0
 11
-46.91254606972409
 21
67.64055962623328
 31
0.0
  0
LINE
  5
74
330
1F
100
AcDbEntity
  8
0
100
AcDbLine
 10
-41.23634735039144
 20
65.26035849769421
 30
0.0
 11
-41.23449410907355
 21
65.68547479822251
 31
0.0
  0
LINE
  5
75
330
1F
100
AcDbEntity
  8
0
100
AcDbLine
 10
-47.18855320486843
 20
63.69324816986727
 30
0.0
 11
-46.93122907345391
 21
63.35485255099787
 31
0.0
  0
LINE
  5
76
330
1F
100
AcDbEntity
  8
0
100
AcDbLine
 10
-47.38697385584338
 20
66.9371854758685
 30
0.0
 11
-47.55137099260637
 21
66.54513843162204
 31
0.0
  0
LINE
  5
77
330
1F
100
AcDbEntity
  8
0
100
AcDbLine
 10
-44.28001076409993
 20
62.24311684124637
 30
0.0
 11
-43.85828949592234
 21
62.29676826662345
 31
0.0
  0
LINE
  5
78
330
1F
100
AcDbEntity
  8
0
100
AcDbLine
 10
-45.09857333422724
 20
68.67734002787178
 30
0.0
 11
-45.50968380223222
 21
68.56910192656285
 31
0.0
  0
LINE
  5
79
330
1F
100
AcDbEntity
  8
0
100
AcDbLine
 10
-47.39950640107195
 20
64.06233630634661
 30
0.0
 11
-47.18855320486843
 21
63.69324816986727
 31
0.0
  0
LINE
  5
7A
330
1F
100
AcDbEntity
  8
0
100
AcDbLine
 10
-43.83049829040889
 20
68.67181201339078
 30
0.0
 11
-44.25173576552142
 21
68.72913821193093
 31
0.0
  0
LINE
  5
7B
330
1F
100
AcDbEntity
  8
0
100
AcDbLine
 10
-43.02830008645387
 20
68.39559658801622
 30
0.0
 11
-43.42034713070036
 21
68.55999372477918
 31
0.0
  0
LINE
  5
7C
330
1F
100
AcDbEntity
  8
0
100
AcDbLine
 10
-47.66871729569895
 20
64.86691222809516
 30
0.0
 11
-47.56047919439008
 21
64.45580176009015
 31
0.0
  0
LINE
  5
7D
330
1F
100
AcDbEntity
  8
0
100
AcDbLine
 10
-41.76830962528116
 20
67.28086012462795
 30
0.0
 11
-42.02563375669567
 21
67.61925574349735
 31
0.0
  0
LINE
  5
7E
330
1F
100
AcDbEntity
  8
0
100
AcDbLine
 10
-42.66106519129249
 20
68.18143348369139
 30
0.0
 11
-43.02830008645387
 21
68.39559658801622
 31
0.0
  0
LINE
  5
7F
330
1F
100
AcDbEntity
  8
0
100
AcDbLine
 10
-41.28814553445063
 20
66.10719606640004
 30
0.0
 11
-41.3963836357595
 21
66.51830653440506
 31
0.0
  0
LINE
  5
80
330
1F
100
AcDbEntity
  8
0
100
AcDbLine
 10
-45.12636453974069
 20
62.30229628110446
 30
0.0
 11
-44.70512706462816
 21
62.24497008256428
 31
0.0
  0
LINE
  5
81
330
1F
100
AcDbEntity
  8
0
100
AcDbLine
 10
-42.32492593608909
 20
67.92116880189694
 30
0.0
 11
-42.66106519129249
 21
68.18143348369139
 31
0.0
  0
LINE
  5
82
330
1F
100
AcDbEntity
  8
0
100
AcDbLine
 10
-46.2722373924552
 20
68.19717593704128
 30
0.0
 11
-46.61063301132453
 21
67.9398518056267
 31
0.0
  0
LINE
  5
83
330
1F
100
AcDbEntity
  8
0
100
AcDbLine
 10
-45.50968380223222
 20
68.56910192656285
 30
0.0
 11
-45.90314925597584
 21
68.40812913324477
 31
0.0
  0
LINE
  5
84
330
1F
100
AcDbEntity
  8
0
100
AcDbLine
 10
-47.17281075151858
 20
67.3044203710299
 30
0.0
 11
-47.38697385584338
 21
66.9371854758685
 31
0.0
  0
LINE
  5
85
330
1F
100
AcDbEntity
  8
0
100
AcDbLine
 10
-43.42034713070036
 20
68.55999372477918
 30
0.0
 11
-43.83049829040889
 21
68.67181201339078
 31
0.0
  0
LINE
  5
86
330
1F
100
AcDbEntity
  8
0
100
AcDbLine
 10
-46.91254606972409
 20
67.64055962623328
 30
0.0
 11
-47.17281075151858
 21
67.3044203710299
 31
0.0
  0
LINE
  5
87
330
1F
100
AcDbEntity
  8
0
100
AcDbLine
 10
-45.53651569944922
 20
62.41411456971603
 30
0.0
 11
-45.12636453974069
 21
62.30229628110446
 31
0.0
  0
LINE
  5
88
330
1F
100
AcDbEntity
  8
0
100
AcDbLine
 10
-47.56047919439008
 20
64.45580176009015
 30
0.0
 11
-47.39950640107195
 21
64.06233630634661
 31
0.0
  0
LINE
  5
89
330
1F
100
AcDbEntity
  8
0
100
AcDbLine
 10
-47.72051547975814
 20
65.71374979680098
 30
0.0
 11
-47.72236872107603
 21
65.2886334962727
 31
0.0
  0
LINE
  5
8A
330
1F
100
AcDbEntity
  8
0
100
AcDbLine
 10
-41.55735642907763
 20
66.91177198814862
 30
0.0
 11
-41.76830962528116
 21
67.28086012462795
 31
0.0
  0
LINE
  5
8B
330
1F
100
AcDbEntity
  8
0
100
AcDbLine
 10
-42.04431676042549
 20
63.33354866826189
 30
0.0
 11
-41.784052078631
 21
63.66968792346528
 31
0.0
  0
LINE
  5
8C
330
1F
100
AcDbEntity
  8
0
100
AcDbLine
 10
-42.68462543769447
 20
62.77693235745391
 30
0.0
 11
-42.34622981882505
 21
63.03425648886851
 31
0.0
  0
LINE
  5
8D
330
1F
100
AcDbEntity
  8
0
100
AcDbLine
 10
-46.93122907345391
 20
63.35485255099787
 30
0.0
 11
-46.63193689406048
 21
63.05293949259828
 31
0.0
  0
LINE
  5
8E
330
1F
100
AcDbEntity
  8
0
100
AcDbLine
 10
-47.72236872107603
 20
65.2886334962727
 30
0.0
 11
-47.66871729569895
 21
64.86691222809516
 31
0.0
  0
LINE
  5
8F
330
1F
100
AcDbEntity
  8
0
100
AcDbLine
 10
-47.66318928121791
 20
66.13498727191353
 30
0.0
 11
-47.72051547975814
 21
65.71374979680098
 31
0.0
  0
LINE
  5
90
330
1F
100
AcDbEntity
  8
0
100
AcDbLine
 10
-43.85828949592234
 20
62.29676826662345
 30
0.0
 11
-43.44717902791736
 21
62.40500636793236
 31
0.0
  0
LINE
  5
91
330
1F
100
AcDbEntity
  8
0
100
AcDbLine
 10
-42.34622981882505
 20
63.03425648886851
 30
0.0
 11
-42.04431676042549
 21
63.33354866826189
 31
0.0
  0
LINE
  5
92
330
1F
100
AcDbEntity
  8
0
100
AcDbLine
 10
-41.3963836357595
 20
66.51830653440506
 30
0.0
 11
-41.55735642907763
 21
66.91177198814862
 31
0.0
  0
LINE
  5
93
330
1F
100
AcDbEntity
  8
0
100
AcDbLine
 10
-46.63193689406048
 20
63.05293949259828
 30
0.0
 11
-46.2957976388571
 21
62.79267481080382
 31
0.0
  0
LINE
  5
94
330
1F
100
AcDbEntity
  8
0
100
AcDbLine
 10
-41.784052078631
 20
63.66968792346528
 30
0.0
 11
-41.5698889743062
 21
64.0369228186267
 31
0.0
  0
LINE
  5
95
330
1F
100
AcDbEntity
  8
0
100
AcDbLine
 10
-43.05371357417374
 20
62.56597916125045
 30
0.0
 11
-42.68462543769447
 21
62.77693235745391
 31
0.0
  0
LINE
  5
96
330
1F
100
AcDbEntity
  8
0
100
AcDbLine
 10
-41.5698889743062
 20
64.0369228186267
 30
0.0
 11
-41.40549183754322
 21
64.42896986287319
 31
0.0
  0
LINE
  5
97
330
1F
100
AcDbEntity
  8
0
100
AcDbLine
 10
-46.2957976388571
 20
62.79267481080382
 30
0.0
 11
-45.92856274369571
 21
62.578511706479
 31
0.0
  0
LINE
  5
98
330
1F
100
AcDbEntity
  8
0
100
AcDbLine
 10
-41.40549183754322
 20
64.42896986287319
 30
0.0
 11
-41.29367354893166
 21
64.83912102258168
 31
0.0
  0
LINE
  5
99
330
1F
100
AcDbEntity
  8
0
100
AcDbLine
 10
-45.92856274369571
 20
62.578511706479
 30
0.0
 11
-45.53651569944922
 21
62.41411456971603
 31
0.0
  0
LINE
  5
9A
330
1F
100
AcDbEntity
  8
0
100
AcDbLine
 10
-44.70512706462816
 20
62.24497008256428
 30
0.0
 11
-44.28001076409993
 21
62.24311684124637
 31
0.0
  0
LINE
  5
9B
330
1F
100
AcDbEntity
  8
0
100
AcDbLine
 10
-41.23449410907355
 20
65.68547479822251
 30
0.0
 11
-41.28814553445063
 21
66.10719606640004
 31
0.0
  0
LINE
  5
9C
330
1F
100
AcDbEntity
  8
0
100
AcDbLine
 10
-41.29367354893166
 20
64.83912102258168
 30
0.0
 11
-41.23634735039144
 21
65.26035849769421
 31
0.0
  0
LINE
  5
9D
330
1F
100
AcDbEntity
  8
0
100
AcDbLine
 10
-43.44717902791736
 20
62.40500636793236
 30
0.0
 11
-43.05371357417374
 21
62.56597916125045
 31
0.0
  0
LINE
  5
9E
330
1F
100
AcDbEntity
  8
0
100
AcDbLine
 10
-24.95349382619417
 20
51.19108549010917
 30
0.0
 11
-17.76336964541159
 21
51.19108549010917
 31
0.0
  0
LINE
  5
9F
330
1F
100
AcDbEntity
  8
0
100
AcDbLine
 10
-17.76336964541159
 20
51.19108549010917
 30
0.0
 11
-17.76336964541159
 21
49.16886306426408
 31
0.0
  0
LINE
  5
A0
330
1F
100
AcDbEntity
  8
0
100
AcDbLine
 10
-17.76336964541159
 20
49.16886306426408
 30
0.0
 11
-22.03250587775124
 21
49.16886306426408
 31
0.0
  0
LINE
  5
A1
330
1F
100
AcDbEntity
  8
0
100
AcDbLine
 10
-22.03250587775124
 20
49.16886306426408
 30
0.0
 11
-22.03250587775124
 21
47.52540610865663
 31
0.0
  0
LINE
  5
A2
330
1F
100
AcDbEntity
  8
0
100
AcDbLine
 10
-22.03250587775124
 20
47.52540610865663
 30
0.0
 11
-18.38608575749723
 21
47.52540610865663
 31
0.0
  0
LINE
  5
A3
330
1F
100
AcDbEntity
  8
0
100
AcDbLine
 10
-18.38608575749723
 20
47.52540610865663
 30
0.0
 11
-18.38608575749723
 21
45.62515900373553
 31
0.0
  0
LINE
  5
A4
330
1F
100
AcDbEntity
  8
0
100
AcDbLine
 10
-18.38608575749723
 20
45.62515900373553
 30
0.0
 11
-22.03250587775124
 21
45.62515900373553
 31
0.0
  0
LINE
  5
A5
330
1F
100
AcDbEntity
  8
0
100
AcDbLine
 10
-22.03250587775124
 20
45.62515900373553
 30
0.0
 11
-22.03250587775124
 21
41.77972651776341
 31
0.0
  0
LINE
  5
A6
330
1F
100
AcDbEntity
  8
0
100
AcDbLine
 10
-22.03250587775124
 20
41.77972651776341
 30
0.0
 11
-24.95349382619417
 21
41.77972651776341
 31
0.0
  0
LINE
  5
A7
330
1F
100
AcDbEntity
  8
0
100
AcDbLine
 10
-24.95349382619417
 20
41.77972651776341
 30
0.0
 11
-24.95349382619417
 21
51.19108549010917
 31
0.0
  0
LINE
  5
A8
330
1F
100
AcDbEntity
  8
0
100
AcDbLine
 10
-13.98855445050074
 20
46.38910969794367
 30
0.0
 11
-16.48583865257612
 21
46.65231960099018
 31
0.0
  0
LINE
  5
A9
330
1F
100
AcDbEntity
  8
0
100
AcDbLine
 10
-16.48583865257612
 20
46.65231960099018
 30
0.0
 11
-16.313307771006
 21
47.23731965989536
 31
0.0
  0
LINE
  5
AA
330
1F
100
AcDbEntity
  8
0
100
AcDbLine
 10
-16.313307771006
 20
47.23731965989536
 30
0.0
 11
-16.07818429054068
 21
47.68269007511125
 31
0.0
  0
LINE
  5
AB
330
1F
100
AcDbEntity
  8
0
100
AcDbLine
 10
-16.07818429054068
 20
47.68269007511125
 30
0.0
 11
-15.75318425781557
 21
48.03336912276772
 31
0.0
  0
LINE
  5
AC
330
1F
100
AcDbEntity
  8
0
100
AcDbLine
 10
-15.75318425781557
 20
48.03336912276772
 30
0.0
 11
-15.31102371946611
 21
48.33429507899467
 31
0.0
  0
LINE
  5
AD
330
1F
100
AcDbEntity
  8
0
100
AcDbLine
 10
-15.31102371946611
 20
48.33429507899467
 30
0.0
 11
-14.88411009623215
 21
48.51083830664781
 31
0.0
  0
LINE
  5
AE
330
1F
100
AcDbEntity
  8
0
100
AcDbLine
 10
-14.88411009623215
 20
48.51083830664781
 30
0.0
 11
-14.32238164460851
 21
48.64244325817106
 31
0.0
  0
LINE
  5
AF
330
1F
100
AcDbEntity
  8
0
100
AcDbLine
 10
-14.32238164460851
 20
48.64244325817106
 30
0.0
 11
-12.96139385324609
 21
48.75157907162937
 31
0.0
  0
LINE
  5
B0
330
1F
100
AcDbEntity
  8
0
100
AcDbLine
 10
-12.96139385324609
 20
48.75157907162937
 30
0.0
 11
-11.90213448732723
 21
48.71867783374856
 31
0.0
  0
LINE
  5
B1
330
1F
100
AcDbEntity
  8
0
100
AcDbLine
 10
-11.90213448732723
 20
48.71867783374856
 30
0.0
 11
-11.07398625579067
 21
48.61997412010612
 31
0.0
  0
LINE
  5
B2
330
1F
100
AcDbEntity
  8
0
100
AcDbLine
 10
-11.07398625579067
 20
48.61997412010612
 30
0.0
 11
-10.42077631347404
 21
48.41694940830501
 31
0.0
  0
LINE
  5
B3
330
1F
100
AcDbEntity
  8
0
100
AcDbLine
 10
-10.42077631347404
 20
48.41694940830501
 30
0.0
 11
-9.886331815214973
 21
48.07108517594816
 31
0.0
  0
LINE
  5
B4
330
1F
100
AcDbEntity
  8
0
100
AcDbLine
 10
-9.886331815214973
 20
48.07108517594816
 30
0.0
 11
-9.587813266637845
 21
47.7220110667249
 31
0.0
  0
LINE
  5
B5
330
1F
100
AcDbEntity
  8
0
100
AcDbLine
 10
-9.587813266637845
 20
47.7220110667249
 30
0.0
 11
-9.359912009121965
 21
47.25256657501087
 31
0.0
  0
LINE
  5
B6
330
1F
100
AcDbEntity
  8
0
100
AcDbLine
 10
-9.359912009121965
 20
47.25256657501087
 30
0.0
 11
-9.21546755013303
 21
46.73497393030051
 31
0.0
  0
LINE
  5
B7
330
1F
100
AcDbEntity
  8
0
100
AcDbLine
 10
-9.21546755013303
 20
46.73497393030051
 30
0.0
 11
-9.167319397136716
 21
46.24145536208832
 31
0.0
  0
LINE
  5
B8
330
1F
100
AcDbEntity
  8
0
100
AcDbLine
 10
-9.167319397136716
 20
46.24145536208832
 30
0.0
 11
-9.167319397136716
 21
43.23059086138561
 31
0.0
  0
LINE
  5
B9
330
1F
100
AcDbEntity
  8
0
100
AcDbLine
 10
-9.167319397136716
 20
43.23059086138561
 30
0.0
 11
-9.106331736674722
 21
42.47626979777673
 31
0.0
  0
LINE
  5
BA
330
1F
100
AcDbEntity
  8
0
100
AcDbLine
 10
-9.106331736674722
 20
42.47626979777673
 30
0.0
 11
-8.839911956761798
 21
41.77972651776341
 31
0.0
  0
LINE
  5
BB
330
1F
100
AcDbEntity
  8
0
100
AcDbLine
 10
-8.839911956761798
 20
41.77972651776341
 30
0.0
 11
-11.29225788270728
 21
41.77972651776341
 31
0.0
  0
LINE
  5
BC
330
1F
100
AcDbEntity
  8
0
100
AcDbLine
 10
-11.29225788270728
 20
41.77972651776341
 30
0.0
 11
-11.48485049469253
 21
42.18096112606602
 31
0.0
  0
LINE
  5
BD
330
1F
100
AcDbEntity
  8
0
100
AcDbLine
 10
-11.48485049469253
 20
42.18096112606602
 30
0.0
 11
-11.57472704695231
 21
42.61429450303282
 31
0.0
  0
LINE
  5
BE
330
1F
100
AcDbEntity
  8
0
100
AcDbLine
 10
-11.57472704695231
 20
42.61429450303282
 30
0.0
 11
-12.08670240714643
 21
42.19059075666528
 31
0.0
  0
LINE
  5
BF
330
1F
100
AcDbEntity
  8
0
100
AcDbLine
 10
-12.08670240714643
 20
42.19059075666528
 30
0.0
 11
-12.59546789047412
 21
41.90812159242024
 31
0.0
  0
LINE
  5
C0
330
1F
100
AcDbEntity
  8
0
100
AcDbLine
 10
-12.59546789047412
 20
41.90812159242024
 30
0.0
 11
-13.34497413878337
 21
41.69626971923648
 31
0.0
  0
LINE
  5
C1
330
1F
100
AcDbEntity
  8
0
100
AcDbLine
 10
-13.34497413878337
 20
41.69626971923648
 30
0.0
 11
-14.20682607741736
 21
41.62565242817521
 31
0.0
  0
LINE
  5
C2
330
1F
100
AcDbEntity
  8
0
100
AcDbLine
 10
-14.20682607741736
 20
41.62565242817521
 30
0.0
 11
-14.77998971537762
 21
41.66096107370585
 31
0.0
  0
LINE
  5
C3
330
1F
100
AcDbEntity
  8
0
100
AcDbLine
 10
-14.77998971537762
 20
41.66096107370585
 30
0.0
 11
-15.27972742001851
 21
41.76688701029773
 31
0.0
  0
LINE
  5
C4
330
1F
100
AcDbEntity
  8
0
100
AcDbLine
 10
-15.27972742001851
 20
41.76688701029773
 30
0.0
 11
-15.70603919134002
 21
41.94343023795088
 31
0.0
  0
LINE
  5
C5
330
1F
100
AcDbEntity
  8
0
100
AcDbLine
 10
-15.70603919134002
 20
41.94343023795088
 30
0.0
 11
-16.05892502934216
 21
42.19059075666528
 31
0.0
  0
LINE
  5
C6
330
1F
100
AcDbEntity
  8
0
100
AcDbLine
 10
-16.05892502934216
 20
42.19059075666528
 30
0.0
 11
-16.3355762917668
 21
42.48951053985071
 31
0.0
  0
LINE
  5
C7
330
1F
100
AcDbEntity
  8
0
100
AcDbLine
 10
-16.3355762917668
 20
42.48951053985071
 30
0.0
 11
-16.53318433635582
 21
42.82133156091697
 31
0.0
  0
LINE
  5
C8
330
1F
100
AcDbEntity
  8
0
100
AcDbLine
 10
-16.53318433635582
 20
42.82133156091697
 30
0.0
 11
-16.65174916310924
 21
43.18605381986403
 31
0.0
  0
LINE
  5
C9
330
1F
100
AcDbEntity
  8
0
100
AcDbLine
 10
-16.65174916310924
 20
43.18605381986403
 30
0.0
 11
-16.69127077202705
 21
43.5836773166919
 31
0.0
  0
LINE
  5
CA
330
1F
100
AcDbEntity
  8
0
100
AcDbLine
 10
-16.69127077202705
 20
43.5836773166919
 30
0.0
 11
-16.57732014326911
 21
44.29145516573769
 31
0.0
  0
LINE
  5
CB
330
1F
100
AcDbEntity
  8
0
100
AcDbLine
 10
-16.57732014326911
 20
44.29145516573769
 30
0.0
 11
-16.2354682569953
 21
44.86120830952737
 31
0.0
  0
LINE
  5
CC
330
1F
100
AcDbEntity
  8
0
100
AcDbLine
 10
-16.2354682569953
 20
44.86120830952737
 30
0.0
 11
-15.95941884648311
 21
45.09552932077609
 31
0.0
  0
LINE
  5
CD
330
1F
100
AcDbEntity
  8
0
100
AcDbLine
 10
-15.95941884648311
 20
45.09552932077609
 30
0.0
 11
-15.5870731299783
 21
45.2977515633606
 31
0.0
  0
LINE
  5
CE
330
1F
100
AcDbEntity
  8
0
100
AcDbLine
 10
-15.5870731299783
 20
45.2977515633606
 30
0.0
 11
-14.55349277899081
 21
45.605899742537
 31
0.0
  0
LINE
  5
CF
330
1F
100
AcDbEntity
  8
0
100
AcDbLine
 10
-14.55349277899081
 20
45.605899742537
 30
0.0
 11
-12.64682592033685
 21
46.01997385830528
 31
0.0
  0
LINE
  5
D0
330
1F
100
AcDbEntity
  8
0
100
AcDbLine
 10
-12.64682592033685
 20
46.01997385830528
 30
0.0
 11
-11.72238138280767
 21
46.3313319143481
 31
0.0
  0
LINE
  5
D1
330
1F
100
AcDbEntity
  8
0
100
AcDbLine
 10
-11.72238138280767
 20
46.3313319143481
 30
0.0
 11
-11.77213447423719
 21
46.74059121481675
 31
0.0
  0
LINE
  5
D2
330
1F
100
AcDbEntity
  8
0
100
AcDbLine
 10
-11.77213447423719
 20
46.74059121481675
 30
0.0
 11
-11.92139374852576
 21
47.00540605629647
 31
0.0
  0
LINE
  5
D3
330
1F
100
AcDbEntity
  8
0
100
AcDbLine
 10
-11.92139374852576
 20
47.00540605629647
 30
0.0
 11
-12.19583822060473
 21
47.1498505152854
 31
0.0
  0
LINE
  5
D4
330
1F
100
AcDbEntity
  8
0
100
AcDbLine
 10
-12.19583822060473
 20
47.1498505152854
 30
0.0
 11
-12.62114690540549
 21
47.19799866828171
 31
0.0
  0
LINE
  5
D5
330
1F
100
AcDbEntity
  8
0
100
AcDbLine
 10
-12.62114690540549
 20
47.19799866828171
 30
0.0
 11
-13.18287535702913
 21
47.14664063841898
 31
0.0
  0
LINE
  5
D6
330
1F
100
AcDbEntity
  8
0
100
AcDbLine
 10
-13.18287535702913
 20
47.14664063841898
 30
0.0
 11
-13.58410996533173
 21
46.99256654883078
 31
0.0
  0
LINE
  5
D7
330
1F
100
AcDbEntity
  8
0
100
AcDbLine
 10
-13.58410996533173
 20
46.99256654883078
 30
0.0
 11
-13.81040628441439
 21
46.76145541444848
 31
0.0
  0
LINE
  5
D8
330
1F
100
AcDbEntity
  8
0
100
AcDbLine
 10
-13.81040628441439
 20
46.76145541444848
 30
0.0
 11
-13.98855445050074
 21
46.38910969794367
 31
0.0
  0
LINE
  5
D9
330
1F
100
AcDbEntity
  8
0
100
AcDbLine
 10
-11.72238138280767
 20
45.01528239911557
 30
0.0
 11
-12.84583828605494
 21
44.67503545127497
 31
0.0
  0
LINE
  5
DA
330
1F
100
AcDbEntity
  8
0
100
AcDbLine
 10
-12.84583828605494
 20
44.67503545127497
 30
0.0
 11
-13.49583835150515
 21
44.46478851652441
 31
0.0
  0
LINE
  5
DB
330
1F
100
AcDbEntity
  8
0
100
AcDbLine
 10
-13.49583835150515
 20
44.46478851652441
 30
0.0
 11
-13.85373962211107
 21
44.25775145864026
 31
0.0
  0
LINE
  5
DC
330
1F
100
AcDbEntity
  8
0
100
AcDbLine
 10
-13.85373962211107
 20
44.25775145864026
 30
0.0
 11
-14.01744334229853
 21
44.0314551395576
 31
0.0
  0
LINE
  5
DD
330
1F
100
AcDbEntity
  8
0
100
AcDbLine
 10
-14.01744334229853
 20
44.0314551395576
 30
0.0
 11
-14.07201124902769
 21
43.77626992867715
 31
0.0
  0
LINE
  5
DE
330
1F
100
AcDbEntity
  8
0
100
AcDbLine
 10
-14.07201124902769
 20
43.77626992867715
 30
0.0
 11
-14.01824581151514
 21
43.49620817208193
 31
0.0
  0
LINE
  5
DF
330
1F
100
AcDbEntity
  8
0
100
AcDbLine
 10
-14.01824581151514
 20
43.49620817208193
 30
0.0
 11
-13.85694949897749
 21
43.27231926064908
 31
0.0
  0
LINE
  5
E0
330
1F
100
AcDbEntity
  8
0
100
AcDbLine
 10
-13.85694949897749
 20
43.27231926064908
 30
0.0
 11
-13.59133218828117
 21
43.12546739401033
 31
0.0
  0
LINE
  5
E1
330
1F
100
AcDbEntity
  8
0
100
AcDbLine
 10
-13.59133218828117
 20
43.12546739401033
 30
0.0
 11
-13.2246037562926
 21
43.07651677179742
 31
0.0
  0
LINE
  5
E2
330
1F
100
AcDbEntity
  8
0
100
AcDbLine
 10
-13.2246037562926
 20
43.07651677179742
 30
0.0
 11
-12.80330741757487
 21
43.12947974009336
 31
0.0
  0
LINE
  5
E3
330
1F
100
AcDbEntity
  8
0
100
AcDbLine
 10
-12.80330741757487
 20
43.12947974009336
 30
0.0
 11
-12.41250490908814
 21
43.28836864498118
 31
0.0
  0
LINE
  5
E4
330
1F
100
AcDbEntity
  8
0
100
AcDbLine
 10
-12.41250490908814
 20
43.28836864498118
 30
0.0
 11
-12.09151722244606
 21
43.52349212544651
 31
0.0
  0
LINE
  5
E5
330
1F
100
AcDbEntity
  8
0
100
AcDbLine
 10
-12.09151722244606
 20
43.52349212544651
 30
0.0
 11
-11.87966534926229
 21
43.80515882047494
 31
0.0
  0
LINE
  5
E6
330
1F
100
AcDbEntity
  8
0
100
AcDbLine
 10
-11.87966534926229
 20
43.80515882047494
 30
0.0
 11
-11.76170237442132
 21
44.1558378681314
 31
0.0
  0
LINE
  5
E7
330
1F
100
AcDbEntity
  8
0
100
AcDbLine
 10
-11.76170237442132
 20
44.1558378681314
 30
0.0
 11
-11.72238138280767
 21
44.59799840648087
 31
0.0
  0
LINE
  5
E8
330
1F
100
AcDbEntity
  8
0
100
AcDbLine
 10
-11.72238138280767
 20
44.59799840648087
 30
0.0
 11
-11.72238138280767
 21
45.01528239911557
 31
0.0
  0
LINE
  5
E9
330
1F
100
AcDbEntity
  8
0
100
AcDbLine
 10
-7.58805997885769
 20
51.19108549010917
 30
0.0
 11
-4.949541194659799
 21
51.19108549010917
 31
0.0
  0
LINE
  5
EA
330
1F
100
AcDbEntity
  8
0
100
AcDbLine
 10
-4.949541194659799
 20
51.19108549010917
 30
0.0
 11
-4.949541194659799
 21
47.92985059382565
 31
0.0
  0
LINE
  5
EB
330
1F
100
AcDbEntity
  8
0
100
AcDbLine
 10
-4.949541194659799
 20
47.92985059382565
 30
0.0
 11
-4.53145473280849
 21
48.28935680286478
 31
0.0
  0
LINE
  5
EC
330
1F
100
AcDbEntity
  8
0
100
AcDbLine
 10
-4.53145473280849
 20
48.28935680286478
 30
0.0
 11
-4.06040530266124
 21
48.54614695217844
 31
0.0
  0
LINE
  5
ED
330
1F
100
AcDbEntity
  8
0
100
AcDbLine
 10
-4.06040530266124
 20
48.54614695217844
 30
0.0
 11
-3.536392904218045
 21
48.70022104176664
 31
0.0
  0
LINE
  5
EE
330
1F
100
AcDbEntity
  8
0
100
AcDbLine
 10
-3.536392904218045
 20
48.70022104176664
 30
0.0
 11
-2.959417537478911
 21
48.75157907162937
 31
0.0
  0
LINE
  5
EF
330
1F
100
AcDbEntity
  8
0
100
AcDbLine
 10
-2.959417537478911
 20
48.75157907162937
 30
0.0
 11
-2.363584144149548
 21
48.69560684377116
 31
0.0
  0
LINE
  5
F0
330
1F
100
AcDbEntity
  8
0
100
AcDbLine
 10
-2.363584144149548
 20
48.69560684377116
 30
0.0
 11
-1.821516188332741
 21
48.52769016019652
 31
0.0
  0
LINE
  5
F1
330
1F
100
AcDbEntity
  8
0
100
AcDbLine
 10
-1.821516188332741
 20
48.52769016019652
 30
0.0
 11
-1.333213670028476
 21
48.24782902090546
 31
0.0
  0
LINE
  5
F2
330
1F
100
AcDbEntity
  8
0
100
AcDbLine
 10
-1.333213670028476
 20
48.24782902090546
 30
0.0
 11
-0.8986765892367634
 21
47.85602342589797
 31
0.0
  0
LINE
  5
F3
330
1F
100
AcDbEntity
  8
0
100
AcDbLine
 10
-0.8986765892367634
 20
47.85602342589797
 30
0.0
 11
-0.5419790224557507
 21
47.3594955981235
 31
0.0
  0
LINE
  5
F4
330
1F
100
AcDbEntity
  8
0
100
AcDbLine
 10
-0.5419790224557507
 20
47.3594955981235
 30
0.0
 11
-0.287195046183602
 21
46.76546776053151
 31
0.0
  0
LINE
  5
F5
330
1F
100
AcDbEntity
  8
0
100
AcDbLine
 10
-0.287195046183602
 20
46.76546776053151
 30
0.0
 11
-0.1343246604203117
 21
46.07393991312198
 31
0.0
  0
LINE
  5
F6
330
1F
100
AcDbEntity
  8
0
100
AcDbLine
 10
-0.1343246604203117
 20
46.07393991312198
 30
0.0
 11
-0.0833678651658797
 21
45.28491205589491
 31
0.0
  0
LINE
  5
F7
330
1F
100
AcDbEntity
  8
0
100
AcDbLine
 10
-0.0833678651658797
 20
45.28491205589491
 30
0.0
 11
-0.1764542942920844
 21
44.23447985135871
 31
0.0
  0
LINE
  5
F8
330
1F
100
AcDbEntity
  8
0
100
AcDbLine
 10
-0.1764542942920844
 20
44.23447985135871
 30
0.0
 11
-0.4557135816706928
 21
43.31725753677897
 31
0.0
  0
LINE
  5
F9
330
1F
100
AcDbEntity
  8
0
100
AcDbLine
 10
-0.4557135816706928
 20
43.31725753677897
 30
0.0
 11
-0.8994790584533701
 21
42.57417104220256
 31
0.0
  0
LINE
  5
FA
330
1F
100
AcDbEntity
  8
0
100
AcDbLine
 10
-0.8994790584533701
 20
42.57417104220256
 30
0.0
 11
-1.486084055791767
 21
42.04614629767634
 31
0.0
  0
LINE
  5
FB
330
1F
100
AcDbEntity
  8
0
100
AcDbLine
 10
-1.486084055791767
 20
42.04614629767634
 30
0.0
 11
-2.180219928155263
 21
41.7307758955505
 31
0.0
  0
LINE
  5
FC
330
1F
100
AcDbEntity
  8
0
100
AcDbLine
 10
-2.180219928155263
 20
41.7307758955505
 30
0.0
 11
-2.946578030013224
 21
41.62565242817521
 31
0.0
  0
LINE
  5
FD
330
1F
100
AcDbEntity
  8
0
100
AcDbLine
 10
-2.946578030013224
 20
41.62565242817521
 30
0.0
 11
-3.604602787629485
 21
41.6994795961029
 31
0.0
  0
LINE
  5
FE
330
1F
100
AcDbEntity
  8
0
100
AcDbLine
 10
-3.604602787629485
 20
41.6994795961029
 30
0.0
 11
-4.204849761650176
 21
41.92096109988593
 31
0.0
  0
LINE
  5
FF
330
1F
100
AcDbEntity
  8
0
100
AcDbLine
 10
-4.204849761650176
 20
41.92096109988593
 30
0.0
 11
-4.654232522949089
 21
42.25318335556049
 31
0.0
  0
LINE
  5
100
330
1F
100
AcDbEntity
  8
0
100
AcDbLine
 10
-4.654232522949089
 20
42.25318335556049
 30
0.0
 11
-5.142133806645048
 21
42.78762785381954
 31
0.0
  0
LINE
  5
101
330
1F
100
AcDbEntity
  8
0
100
AcDbLine
 10
-5.142133806645048
 20
42.78762785381954
 30
0.0
 11
-5.142133806645048
 21
41.77972651776341
 31
0.0
  0
LINE
  5
102
330
1F
100
AcDbEntity
  8
0
100
AcDbLine
 10
-5.142133806645048
 20
41.77972651776341
 30
0.0
 11
-7.58805997885769
 21
41.77972651776341
 31
0.0
  0
LINE
  5
103
330
1F
100
AcDbEntity
  8
0
100
AcDbLine
 10
-7.58805997885769
 20
41.77972651776341
 30
0.0
 11
-7.58805997885769
 21
51.19108549010917
 31
0.0
  0
LINE
  5
104
330
1F
100
AcDbEntity
  8
0
100
AcDbLine
 10
-4.968800455858323
 20
45.20787501110082
 30
0.0
 11
-4.886146126547991
 21
44.44954160140891
 31
0.0
  0
LINE
  5
105
330
1F
100
AcDbEntity
  8
0
100
AcDbLine
 10
-4.886146126547991
 20
44.44954160140891
 30
0.0
 11
-4.638183138616983
 21
43.93355389513177
 31
0.0
  0
LINE
  5
106
330
1F
100
AcDbEntity
  8
0
100
AcDbLine
 10
-4.638183138616983
 20
43.93355389513177
 30
0.0
 11
-4.263430014462353
 21
43.63744275420445
 31
0.0
  0
LINE
  5
107
330
1F
100
AcDbEntity
  8
0
100
AcDbLine
 10
-4.263430014462353
 20
43.63744275420445
 30
0.0
 11
-3.800405276481155
 21
43.53873904056201
 31
0.0
  0
LINE
  5
108
330
1F
100
AcDbEntity
  8
0
100
AcDbLine
 10
-3.800405276481155
 20
43.53873904056201
 30
0.0
 11
-3.369479307164168
 21
43.63583781577124
 31
0.0
  0
LINE
  5
109
330
1F
100
AcDbEntity
  8
0
100
AcDbLine
 10
-3.369479307164168
 20
43.63583781577124
 30
0.0
 11
-3.013985444208064
 21
43.92713414139892
 31
0.0
  0
LINE
  5
10A
330
1F
100
AcDbEntity
  8
0
100
AcDbLine
 10
-3.013985444208064
 20
43.92713414139892
 30
0.0
 11
-2.775652086876322
 21
44.44793666297569
 31
0.0
  0
LINE
  5
10B
330
1F
100
AcDbEntity
  8
0
100
AcDbLine
 10
-2.775652086876322
 20
44.44793666297569
 30
0.0
 11
-2.696207634432406
 21
45.23355402603219
 31
0.0
  0
LINE
  5
10C
330
1F
100
AcDbEntity
  8
0
100
AcDbLine
 10
-2.696207634432406
 20
45.23355402603219
 30
0.0
 11
-2.774047148443109
 21
45.93491212134513
 31
0.0
  0
LINE
  5
10D
330
1F
100
AcDbEntity
  8
0
100
AcDbLine
 10
-2.774047148443109
 20
45.93491212134513
 30
0.0
 11
-3.007565690475224
 21
46.42120846660788
 31
0.0
  0
LINE
  5
10E
330
1F
100
AcDbEntity
  8
0
100
AcDbLine
 10
-3.007565690475224
 20
46.42120846660788
 30
0.0
 11
-3.351824984398852
 21
46.70528256928612
 31
0.0
  0
LINE
  5
10F
330
1F
100
AcDbEntity
  8
0
100
AcDbLine
 10
-3.351824984398852
 20
46.70528256928612
 30
0.0
 11
-3.761886754084108
 21
46.79997393684553
 31
0.0
  0
LINE
  5
110
330
1F
100
AcDbEntity
  8
0
100
AcDbLine
 10
-3.761886754084108
 20
46.79997393684553
 30
0.0
 11
-4.24577569169704
 21
46.70127022320309
 31
0.0
  0
LINE
  5
111
330
1F
100
AcDbEntity
  8
0
100
AcDbLine
 10
-4.24577569169704
 20
46.70127022320309
 30
0.0
 11
-4.631763384884141
 21
46.40515908227578
 31
0.0
  0
LINE
  5
112
330
1F
100
AcDbEntity
  8
0
100
AcDbLine
 10
-4.631763384884141
 20
46.40515908227578
 30
0.0
 11
-4.884541188114778
 21
45.90843063719716
 31
0.0
  0
LINE
  5
113
330
1F
100
AcDbEntity
  8
0
100
AcDbLine
 10
-4.884541188114778
 20
45.90843063719716
 30
0.0
 11
-4.968800455858323
 21
45.20787501110082
 31
0.0
  0
LINE
  5
114
330
1F
100
AcDbEntity
  8
0
100
AcDbLine
 10
1.194163127669595
 20
48.59750498204118
 30
0.0
 11
3.640089299882235
 21
48.59750498204118
 31
0.0
  0
LINE
  5
115
330
1F
100
AcDbEntity
  8
0
100
AcDbLine
 10
3.640089299882235
 20
48.59750498204118
 30
0.0
 11
3.640089299882235
 21
47.48046783252673
 31
0.0
  0
LINE
  5
116
330
1F
100
AcDbEntity
  8
0
100
AcDbLine
 10
3.640089299882235
 20
47.48046783252673
 30
0.0
 11
3.99879303970476
 21
48.0927518447965
 31
0.0
  0
LINE
  5
117
330
1F
100
AcDbEntity
  8
0
100
AcDbLine
 10
3.99879303970476
 20
48.0927518447965
 30
0.0
 11
4.368731348559757
 21
48.47873953798361
 31
0.0
  0
LINE
  5
118
330
1F
100
AcDbEntity
  8
0
100
AcDbLine
 10
4.368731348559757
 20
48.47873953798361
 30
0.0
 11
4.788422748844275
 21
48.68336918821793
 31
0.0
  0
LINE
  5
119
330
1F
100
AcDbEntity
  8
0
100
AcDbLine
 10
4.788422748844275
 20
48.68336918821793
 30
0.0
 11
5.296385762955365
 21
48.75157907162937
 31
0.0
  0
LINE
  5
11A
330
1F
100
AcDbEntity
  8
0
100
AcDbLine
 10
5.296385762955365
 20
48.75157907162937
 30
0.0
 11
5.901447552275679
 21
48.66170251936958
 31
0.0
  0
LINE
  5
11B
330
1F
100
AcDbEntity
  8
0
100
AcDbLine
 10
5.901447552275679
 20
48.66170251936958
 30
0.0
 11
6.561077248325156
 21
48.39207286259024
 31
0.0
  0
LINE
  5
11C
330
1F
100
AcDbEntity
  8
0
100
AcDbLine
 10
6.561077248325156
 20
48.39207286259024
 30
0.0
 11
5.752188277987115
 21
46.53034428006619
 31
0.0
  0
LINE
  5
11D
330
1F
100
AcDbEntity
  8
0
100
AcDbLine
 10
5.752188277987115
 20
46.53034428006619
 30
0.0
 11
5.020336352443178
 21
46.72293689205144
 31
0.0
  0
LINE
  5
11E
330
1F
100
AcDbEntity
  8
0
100
AcDbLine
 10
5.020336352443178
 20
46.72293689205144
 30
0.0
 11
4.564533837411423
 21
46.61701095545954
 31
0.0
  0
LINE
  5
11F
330
1F
100
AcDbEntity
  8
0
100
AcDbLine
 10
4.564533837411423
 20
46.61701095545954
 30
0.0
 11
4.224286889570821
 21
46.29923314568389
 31
0.0
  0
LINE
  5
120
330
1F
100
AcDbEntity
  8
0
100
AcDbLine
 10
4.224286889570821
 20
46.29923314568389
 30
0.0
 11
4.04734242730937
 21
45.93571459056174
 31
0.0
  0
LINE
  5
121
330
1F
100
AcDbEntity
  8
0
100
AcDbLine
 10
4.04734242730937
 20
45.93571459056174
 30
0.0
 11
3.920953525694051
 21
45.44219602234953
 31
0.0
  0
LINE
  5
122
330
1F
100
AcDbEntity
  8
0
100
AcDbLine
 10
3.920953525694051
 20
45.44219602234953
 30
0.0
 11
3.819842404401802
 21
44.06515884665502
 31
0.0
  0
LINE
  5
123
330
1F
100
AcDbEntity
  8
0
100
AcDbLine
 10
3.819842404401802
 20
44.06515884665502
 30
0.0
 11
3.819842404401802
 21
41.77972651776341
 31
0.0
  0
LINE
  5
124
330
1F
100
AcDbEntity
  8
0
100
AcDbLine
 10
3.819842404401802
 20
41.77972651776341
 30
0.0
 11
1.194163127669595
 21
41.77972651776341
 31
0.0
  0
LINE
  5
125
330
1F
100
AcDbEntity
  8
0
100
AcDbLine
 10
1.194163127669595
 20
41.77972651776341
 30
0.0
 11
1.194163127669595
 21
48.59750498204118
 31
0.0
  0
LINE
  5
126
330
1F
100
AcDbEntity
  8
0
100
AcDbLine
 10
7.100336561883847
 20
51.19108549010917
 30
0.0
 11
9.71317633115037
 21
51.19108549010917
 31
0.0
  0
LINE
  5
127
330
1F
100
AcDbEntity
  8
0
100
AcDbLine
 10
9.71317633115037
 20
51.19108549010917
 30
0.0
 11
9.71317633115037
 21
49.41281370611205
 31
0.0
  0
LINE
  5
128
330
1F
100
AcDbEntity
  8
0
100
AcDbLine
 10
9.71317633115037
 20
49.41281370611205
 30
0.0
 11
7.100336561883847
 21
49.41281370611205
 31
0.0
  0
LINE
  5
129
330
1F
100
AcDbEntity
  8
0
100
AcDbLine
 10
7.100336561883847
 20
49.41281370611205
 30
0.0
 11
7.100336561883847
 21
51.19108549010917
 31
0.0
  0
LINE
  5
12A
330
1F
100
AcDbEntity
  8
0
100
AcDbLine
 10
7.100336561883847
 20
48.59750498204118
 30
0.0
 11
9.71317633115037
 21
48.59750498204118
 31
0.0
  0
LINE
  5
12B
330
1F
100
AcDbEntity
  8
0
100
AcDbLine
 10
9.71317633115037
 20
48.59750498204118
 30
0.0
 11
9.71317633115037
 21
41.77972651776341
 31
0.0
  0
LINE
  5
12C
330
1F
100
AcDbEntity
  8
0
100
AcDbLine
 10
9.71317633115037
 20
41.77972651776341
 30
0.0
 11
7.100336561883847
 21
41.77972651776341
 31
0.0
  0
LINE
  5
12D
330
1F
100
AcDbEntity
  8
0
100
AcDbLine
 10
7.100336561883847
 20
41.77972651776341
 30
0.0
 11
7.100336561883847
 21
48.59750498204118
 31
0.0
  0
LINE
  5
12E
330
1F
100
AcDbEntity
  8
0
100
AcDbLine
 10
16.46675725809972
 20
44.45034407062551
 30
0.0
 11
18.9512019527094
 21
44.16787490638048
 31
0.0
  0
LINE
  5
12F
330
1F
100
AcDbEntity
  8
0
100
AcDbLine
 10
18.9512019527094
 20
44.16787490638048
 30
0.0
 11
18.67996735749685
 21
43.44324520378599
 31
0.0
  0
LINE
  5
130
330
1F
100
AcDbEntity
  8
0
100
AcDbLine
 10
18.67996735749685
 20
43.44324520378599
 30
0.0
 11
18.27712781076104
 21
42.82293649935017
 31
0.0
  0
LINE
  5
131
330
1F
100
AcDbEntity
  8
0
100
AcDbLine
 10
18.27712781076104
 20
42.82293649935017
 30
0.0
 11
17.74348578171858
 21
42.3181833621055
 31
0.0
  0
LINE
  5
132
330
1F
100
AcDbEntity
  8
0
100
AcDbLine
 10
17.74348578171858
 20
42.3181833621055
 30
0.0
 11
17.07984373958609
 21
41.94022036108446
 31
0.0
  0
LINE
  5
133
330
1F
100
AcDbEntity
  8
0
100
AcDbLine
 10
17.07984373958609
 20
41.94022036108446
 30
0.0
 11
16.25249797726613
 21
41.70429441140252
 31
0.0
  0
LINE
  5
134
330
1F
100
AcDbEntity
  8
0
100
AcDbLine
 10
16.25249797726613
 20
41.70429441140252
 30
0.0
 11
15.22774478766129
 21
41.62565242817521
 31
0.0
  0
LINE
  5
135
330
1F
100
AcDbEntity
  8
0
100
AcDbLine
 10
15.22774478766129
 20
41.62565242817521
 30
0.0
 11
14.23348542828745
 21
41.67615783449531
 31
0.0
  0
LINE
  5
136
330
1F
100
AcDbEntity
  8
0
100
AcDbLine
 10
14.23348542828745
 20
41.67615783449531
 30
0.0
 11
13.42058411186638
 21
41.82767405345557
 31
0.0
  0
LINE
  5
137
330
1F
100
AcDbEntity
  8
0
100
AcDbLine
 10
13.42058411186638
 20
41.82767405345557
 30
0.0
 11
12.74891737756783
 21
42.0922381233051
 31
0.0
  0
LINE
  5
138
330
1F
100
AcDbEntity
  8
0
100
AcDbLine
 10
12.74891737756783
 20
42.0922381233051
 30
0.0
 11
12.17836176456154
 21
42.48188708229296
 31
0.0
  0
LINE
  5
139
330
1F
100
AcDbEntity
  8
0
100
AcDbLine
 10
12.17836176456154
 20
42.48188708229296
 30
0.0
 11
11.71453455736373
 21
42.97336186171912
 31
0.0
  0
LINE
  5
13A
330
1F
100
AcDbEntity
  8
0
100
AcDbLine
 10
11.71453455736373
 20
42.97336186171912
 30
0.0
 11
11.36305304049066
 21
43.54340339288353
 31
0.0
  0
LINE
  5
13B
330
1F
100
AcDbEntity
  8
0
100
AcDbLine
 10
11.36305304049066
 20
43.54340339288353
 30
0.0
 11
11.14157153670762
 21
44.25214671270554
 31
0.0
  0
LINE
  5
13C
330
1F
100
AcDbEntity
  8
0
100
AcDbLine
 10
11.14157153670762
 20
44.25214671270554
 30
0.0
 11
11.06774436877994
 21
45.15972685810451
 31
0.0
  0
LINE
  5
13D
330
1F
100
AcDbEntity
  8
0
100
AcDbLine
 10
11.06774436877994
 20
45.15972685810451
 30
0.0
 11
11.15762092103973
 21
46.12346731008433
 31
0.0
  0
LINE
  5
13E
330
1F
100
AcDbEntity
  8
0
100
AcDbLine
 10
11.15762092103973
 20
46.12346731008433
 30
0.0
 11
11.42725057781908
 21
46.91081499738912
 31
0.0
  0
LINE
  5
13F
330
1F
100
AcDbEntity
  8
0
100
AcDbLine
 10
11.42725057781908
 20
46.91081499738912
 30
0.0
 11
11.7386086338619
 21
47.39744988435262
 31
0.0
  0
LINE
  5
140
330
1F
100
AcDbEntity
  8
0
100
AcDbLine
 10
11.7386086338619
 20
47.39744988435262
 30
0.0
 11
12.14626299589733
 21
47.83119703450925
 31
0.0
  0
LINE
  5
141
330
1F
100
AcDbEntity
  8
0
100
AcDbLine
 10
12.14626299589733
 20
47.83119703450925
 30
0.0
 11
12.60848526466193
 21
48.18637743292761
 31
0.0
  0
LINE
  5
142
330
1F
100
AcDbEntity
  8
0
100
AcDbLine
 10
12.60848526466193
 20
48.18637743292761
 30
0.0
 11
13.0835470408922
 21
48.43731206467636
 31
0.0
  0
LINE
  5
143
330
1F
100
AcDbEntity
  8
0
100
AcDbLine
 10
13.0835470408922
 20
48.43731206467636
 30
0.0
 11
13.95502861012544
 21
48.67301231989111
 31
0.0
  0
LINE
  5
144
330
1F
100
AcDbEntity
  8
0
100
AcDbLine
 10
13.95502861012544
 20
48.67301231989111
 30
0.0
 11
15.04157192940888
 21
48.75157907162937
 31
0.0
  0
LINE
  5
145
330
1F
100
AcDbEntity
  8
0
100
AcDbLine
 10
15.04157192940888
 20
48.75157907162937
 30
0.0
 11
15.82658744055292
 21
48.71426425305723
 31
0.0
  0
LINE
  5
146
330
1F
100
AcDbEntity
  8
0
100
AcDbLine
 10
15.82658744055292
 20
48.71426425305723
 30
0.0
 11
16.51249800344621
 21
48.6023197973408
 31
0.0
  0
LINE
  5
147
330
1F
100
AcDbEntity
  8
0
100
AcDbLine
 10
16.51249800344621
 20
48.6023197973408
 30
0.0
 11
17.09930361808876
 21
48.41574570448009
 31
0.0
  0
LINE
  5
148
330
1F
100
AcDbEntity
  8
0
100
AcDbLine
 10
17.09930361808876
 20
48.41574570448009
 30
0.0
 11
17.58700428448057
 21
48.15454197447511
 31
0.0
  0
LINE
  5
149
330
1F
100
AcDbEntity
  8
0
100
AcDbLine
 10
17.58700428448057
 20
48.15454197447511
 30
0.0
 11
17.99245185617035
 21
47.82151724958395
 31
0.0
  0
LINE
  5
14A
330
1F
100
AcDbEntity
  8
0
100
AcDbLine
 10
17.99245185617035
 20
47.82151724958395
 30
0.0
 11
18.3324981867068
 21
47.41948017206474
 31
0.0
  0
LINE
  5
14B
330
1F
100
AcDbEntity
  8
0
100
AcDbLine
 10
18.3324981867068
 20
47.41948017206474
 30
0.0
 11
18.60714327608993
 21
46.94843074191749
 31
0.0
  0
LINE
  5
14C
330
1F
100
AcDbEntity
  8
0
100
AcDbLine
 10
18.60714327608993
 20
46.94843074191749
 30
0.0
 11
18.81638712431973
 21
46.40836895914219
 31
0.0
  0
LINE
  5
14D
330
1F
100
AcDbEntity
  8
0
100
AcDbLine
 10
18.81638712431973
 20
46.40836895914219
 30
0.0
 11
16.35762144464141
 21
46.08096151876727
 31
0.0
  0
LINE
  5
14E
330
1F
100
AcDbEntity
  8
0
100
AcDbLine
 10
16.35762144464141
 20
46.08096151876727
 30
0.0
 11
16.19472019367055
 21
46.46373933508796
 31
0.0
  0
LINE
  5
14F
330
1F
100
AcDbEntity
  8
0
100
AcDbLine
 10
16.19472019367055
 20
46.46373933508796
 30
0.0
 11
15.93712757514029
 21
46.73898627638354
 31
0.0
  0
LINE
  5
150
330
1F
100
AcDbEntity
  8
0
100
AcDbLine
 10
15.93712757514029
 20
46.73898627638354
 30
0.0
 11
15.58002877375097
 21
46.90509740422081
 31
0.0
  0
LINE
  5
151
330
1F
100
AcDbEntity
  8
0
100
AcDbLine
 10
15.58002877375097
 20
46.90509740422081
 30
0.0
 11
15.11860897420298
 21
46.96046778016657
 31
0.0
  0
LINE
  5
152
330
1F
100
AcDbEntity
  8
0
100
AcDbLine
 10
15.11860897420298
 20
46.96046778016657
 30
0.0
 11
14.53200397686459
 21
46.84432289964448
 31
0.0
  0
LINE
  5
153
330
1F
100
AcDbEntity
  8
0
100
AcDbLine
 10
14.53200397686459
 20
46.84432289964448
 30
0.0
 11
14.06897923888338
 21
46.4958882580782
 31
0.0
  0
LINE
  5
154
330
1F
100
AcDbEntity
  8
0
100
AcDbLine
 10
14.06897923888338
 20
46.4958882580782
 30
0.0
 11
13.893439097751
 21
46.23375353839613
 31
0.0
  0
LINE
  5
155
330
1F
100
AcDbEntity
  8
0
100
AcDbLine
 10
13.893439097751
 20
46.23375353839613
 30
0.0
 11
13.76805328265644
 21
45.91192890143829
 31
0.0
  0
LINE
  5
156
330
1F
100
AcDbEntity
  8
0
100
AcDbLine
 10
13.76805328265644
 20
45.91192890143829
 30
0.0
 11
13.66774463058079
 21
45.08920987569532
 31
0.0
  0
LINE
  5
157
330
1F
100
AcDbEntity
  8
0
100
AcDbLine
 10
13.66774463058079
 20
45.08920987569532
 30
0.0
 11
13.76725081343983
 21
44.35066234762534
 31
0.0
  0
LINE
  5
158
330
1F
100
AcDbEntity
  8
0
100
AcDbLine
 10
13.76725081343983
 20
44.35066234762534
 30
0.0
 11
14.06576936201696
 21
43.81398598185759
 31
0.0
  0
LINE
  5
159
330
1F
100
AcDbEntity
  8
0
100
AcDbLine
 10
14.06576936201696
 20
43.81398598185759
 30
0.0
 11
14.51836200018229
 21
43.48718039339512
 31
0.0
  0
LINE
  5
15A
330
1F
100
AcDbEntity
  8
0
100
AcDbLine
 10
14.51836200018229
 20
43.48718039339512
 30
0.0
 11
15.08009045180593
 21
43.37824519724097
 31
0.0
  0
LINE
  5
15B
330
1F
100
AcDbEntity
  8
0
100
AcDbLine
 10
15.08009045180593
 20
43.37824519724097
 30
0.0
 11
15.55274482038639
 21
43.44404767300259
 31
0.0
  0
LINE
  5
15C
330
1F
100
AcDbEntity
  8
0
100
AcDbLine
 10
15.55274482038639
 20
43.44404767300259
 30
0.0
 11
15.94354732887313
 21
43.64145510028748
 31
0.0
  0
LINE
  5
15D
330
1F
100
AcDbEntity
  8
0
100
AcDbLine
 10
15.94354732887313
 20
43.64145510028748
 30
0.0
 11
16.24928810039971
 21
43.97528229439524
 31
0.0
  0
LINE
  5
15E
330
1F
100
AcDbEntity
  8
0
100
AcDbLine
 10
16.24928810039971
 20
43.97528229439524
 30
0.0
 11
16.46675725809972
 21
44.45034407062551
 31
0.0
  0
LINE
  5
15F
330
1F
100
AcDbEntity
  8
0
100
AcDbLine
 10
52.46847884968214
 20
73.48705414724762
 30
0.0
 11
52.49801776255455
 21
31.50839339421064
 31
0.0
  0
LINE
  5
160
330
1F
100
AcDbEntity
  8
0
100
AcDbLine
 10
-38.47854155852576
 20
57.78481500940575
 30
0.0
 11
-48.97812734241157
 21
57.78481500940575
 31
0.0
  0
LINE
  5
161
330
1F
100
AcDbEntity
  8
0
100
AcDbLine
 10
-27.97895577464032
 20
36.78564344163434
 30
0.0
 11
-38.47854155852576
 21
36.78564344163434
 31
0.0
  0
LINE
  5
162
330
1F
100
AcDbEntity
  8
0
100
AcDbLine
 10
-27.97895577464077
 20
42.0354363335784
 30
0.0
 11
-27.97895577464032
 21
36.78564344163434
 31
0.0
  0
LINE
  5
163
330
1F
100
AcDbEntity
  8
0
100
AcDbLine
 10
-48.97812734240986
 20
36.78564344163434
 30
0.0
 11
-48.97812734241157
 21
47.28522922552022
 31
0.0
  0
LINE
  5
164
330
1F
100
AcDbEntity
  8
0
100
AcDbLine
 10
-33.22874866658363
 20
57.78481500940575
 30
0.0
 11
-33.22874866658363
 21
52.53502211746299
 31
0.0
  0
LINE
  5
165
330
1F
100
AcDbEntity
  8
0
100
AcDbLine
 10
-27.97895577464077
 20
57.78481500940575
 30
0.0
 11
-33.22874866658363
 21
57.78481500940575
 31
0.0
  0
LINE
  5
166
330
1F
100
AcDbEntity
  8
0
100
AcDbLine
 10
-38.47854155852576
 20
36.78564344163434
 30
0.0
 11
-38.47854155852576
 21
47.28522922552022
 31
0.0
  0
LINE
  5
167
330
1F
100
AcDbEntity
  8
0
100
AcDbLine
 10
-48.97812734241157
 20
47.28522922552022
 30
0.0
 11
-38.47854155852576
 21
47.28522922552022
 31
0.0
  0
LINE
  5
168
330
1F
100
AcDbEntity
  8
0
100
AcDbLine
 10
-43.72833445046682
 20
36.78564344163434
 30
0.0
 11
-48.97812734240986
 21
36.78564344163434
 31
0.0
  0
LINE
  5
169
330
1F
100
AcDbEntity
  8
0
100
AcDbLine
 10
-48.97812734241157
 20
52.53502211745938
 30
0.0
 11
-43.72833445046862
 21
52.53502211745938
 31
0.0
  0
LINE
  5
16A
330
1F
100
AcDbEntity
  8
0
100
AcDbLine
 10
-48.97812734241157
 20
57.78481500940575
 30
0.0
 11
-48.97812734241157
 21
52.53502211745938
 31
0.0
  0
LINE
  5
16B
330
1F
100
AcDbEntity
  8
0
100
AcDbLine
 10
-43.72833445046862
 20
42.03543633357718
 30
0.0
 11
-43.72833445046682
 21
36.78564344163434
 31
0.0
  0
LINE
  5
16C
330
1F
100
AcDbEntity
  8
0
100
AcDbLine
 10
-33.22874866658363
 20
42.0354363335784
 30
0.0
 11
-27.97895577464077
 21
42.0354363335784
 31
0.0
  0
LINE
  5
16D
330
1F
100
AcDbEntity
  8
0
100
AcDbLine
 10
-27.97895577464032
 20
47.28522922552022
 30
0.0
 11
-27.97895577464077
 21
57.78481500940575
 31
0.0
  0
LINE
  5
16E
330
1F
100
AcDbEntity
  8
0
100
AcDbLine
 10
-38.47854155852576
 20
47.28522922552022
 30
0.0
 11
-38.47854155852576
 21
57.78481500940575
 31
0.0
  0
LINE
  5
16F
330
1F
100
AcDbEntity
  8
0
100
AcDbLine
 10
-38.47854155852576
 20
47.28522922552022
 30
0.0
 11
-27.97895577464032
 21
47.28522922552022
 31
0.0
  0
LINE
  5
170
330
1F
100
AcDbEntity
  8
0
100
AcDbLine
 10
39.91601027391987
 20
70.16035612695529
 30
0.0
 11
42.29892682966797
 21
67.4875193764884
 31
0.0
  0
LINE
  5
171
330
1F
100
AcDbEntity
  8
0
100
AcDbLine
 10
33.44973907895034
 20
67.63651014189749
 30
0.0
 11
28.15120999895524
 21
69.54935003634769
 31
0.0
  0
LINE
  5
172
330
1F
100
AcDbEntity
  8
0
100
AcDbLine
 10
44.5255830222744
 20
65.68127625671013
 30
0.0
 11
46.94412780453344
 21
66.98246227461617
 31
0.0
  0
LINE
  5
173
330
1F
100
AcDbEntity
  8
0
100
AcDbLine
 10
41.89873907330352
 20
59.69213539212556
 30
0.0
 11
46.65996570702853
 21
62.29853809598731
 31
0.0
  0
LINE
  5
174
330
1F
100
AcDbEntity
  8
0
100
AcDbLine
 10
44.16627775612843
 20
65.45894172803929
 30
0.0
 11
46.015778581226
 21
63.4617457094058
 31
0.0
  0
LINE
  5
175
330
1F
100
AcDbEntity
  8
0
100
AcDbLine
 10
50.26654989694088
 20
64.77790278006788
 30
0.0
 11
48.4170490718433
 21
66.41219472179675
 31
0.0
  0
LINE
  5
176
330
1F
100
AcDbEntity
  8
0
100
AcDbLine
 10
46.59677059010614
 20
62.89680439650922
 30
0.0
 11
42.75266489012147
 21
62.12435565526751
 31
0.0
  0
LINE
  5
177
330
1F
100
AcDbEntity
  8
0
100
AcDbLine
 10
46.65996570702853
 20
62.29853809598731
 30
0.0
 11
46.91908008165302
 21
62.44997605271233
 31
0.0
  0
LINE
  5
178
330
1F
100
AcDbEntity
  8
0
100
AcDbLine
 10
46.94412780453344
 20
66.98246227461617
 30
0.0
 11
48.11618849241825
 21
66.60350750172782
 31
0.0
  0
LINE
  5
179
330
1F
100
AcDbEntity
  8
0
100
AcDbLine
 10
47.12277277059399
 20
63.15390343710884
 30
0.0
 11
46.35982488975511
 21
63.89770564471154
 31
0.0
  0
LINE
  5
17A
330
1F
100
AcDbEntity
  8
0
100
AcDbLine
 10
39.46831821554088
 20
70.38650539503035
 30
0.0
 11
29.26223485637294
 21
71.26583881580466
 31
0.0
  0
LINE
  5
17B
330
1F
100
AcDbEntity
  8
0
100
AcDbLine
 10
48.4170490718433
 20
66.41219472179675
 30
0.0
 11
48.1160445399879
 21
65.2402060101271
 31
0.0
  0
LINE
  5
17C
330
1F
100
AcDbEntity
  8
0
100
AcDbLine
 10
46.015778581226
 20
63.4617457094058
 30
0.0
 11
46.59677059010614
 21
62.89680439650922
 31
0.0
  0
LINE
  5
17D
330
1F
100
AcDbEntity
  8
0
100
AcDbLine
 10
48.1160445399879
 20
65.2402060101271
 30
0.0
 11
50.26654989694088
 21
64.77790278006788
 31
0.0
  0
LINE
  5
17E
330
1F
100
AcDbEntity
  8
0
100
AcDbLine
 10
42.56538277824021
 20
61.50550415720601
 30
0.0
 11
39.5996028320173
 21
63.26395507010908
 31
0.0
  0
LINE
  5
17F
330
1F
100
AcDbEntity
  8
0
100
AcDbLine
 10
39.31126611403236
 20
62.87981800972828
 30
0.0
 11
41.73333773083486
 21
59.05197893437271
 31
0.0
  0
LINE
  5
180
330
1F
100
AcDbEntity
  8
0
100
AcDbLine
 10
48.11618849241825
 20
66.60350750172782
 30
0.0
 11
47.12277277059399
 21
63.15390343710884
 31
0.0
  0
LINE
  5
181
330
1F
100
AcDbEntity
  8
0
100
AcDbLine
 10
46.35982488975511
 20
63.89770564471154
 30
0.0
 11
44.5255830222744
 21
65.68127625671013
 31
0.0
  0
LINE
  5
182
330
1F
100
AcDbEntity
  8
0
100
AcDbLine
 10
39.5996028320173
 20
63.26395507010908
 30
0.0
 11
41.89873907330352
 21
59.69213539212556
 31
0.0
  0
LINE
  5
183
330
1F
100
AcDbEntity
  8
0
100
AcDbLine
 10
38.25465527528581
 20
64.73284566936931
 30
0.0
 11
39.46831821554088
 21
70.38650539503035
 31
0.0
  0
LINE
  5
184
330
1F
100
AcDbEntity
  8
0
100
AcDbLine
 10
29.26223485637294
 20
71.26583881580466
 30
0.0
 11
38.25465527528581
 21
64.73284566936931
 31
0.0
  0
LINE
  5
185
330
1F
100
AcDbEntity
  8
0
100
AcDbLine
 10
40.1045159814592
 20
63.5769796298985
 30
0.0
 11
44.16627775612843
 21
65.45894172803929
 31
0.0
  0
LINE
  5
186
330
1F
100
AcDbEntity
  8
0
100
AcDbLine
 10
38.6630483201801
 20
64.43205706615936
 30
0.0
 11
39.91601027391987
 21
70.16035612695529
 31
0.0
  0
LINE
  5
187
330
1F
100
AcDbEntity
  8
0
100
AcDbLine
 10
30.97821980232369
 20
69.31096481169314
 30
0.0
 11
33.44973907895034
 21
67.63651014189749
 31
0.0
  0
LINE
  5
188
330
1F
100
AcDbEntity
  8
0
100
AcDbLine
 10
42.75266489012147
 20
62.12435565526751
 30
0.0
 11
40.1045159814592
 21
63.5769796298985
 31
0.0
  0
LINE
  5
189
330
1F
100
AcDbEntity
  8
0
100
AcDbLine
 10
43.75961214039832
 20
65.83364990423236
 30
0.0
 11
39.5532501494456
 21
63.90771033862065
 31
0.0
  0
LINE
  5
18A
330
1F
100
AcDbEntity
  8
0
100
AcDbLine
 10
37.60715724358523
 20
55.06766356722998
 30
0.0
 11
39.31126611403236
 21
62.87981800972828
 31
0.0
  0
LINE
  5
18B
330
1F
100
AcDbEntity
  8
0
100
AcDbLine
 10
28.15120999895524
 20
69.54935003634769
 30
0.0
 11
30.97821980232369
 21
69.31096481169314
 31
0.0
  0
LINE
  5
18C
330
1F
100
AcDbEntity
  8
0
100
AcDbLine
 10
39.5532501494456
 20
63.90771033862065
 30
0.0
 11
38.6630483201801
 21
64.43205706615936
 31
0.0
  0
LINE
  5
18D
330
1F
100
AcDbEntity
  8
0
100
AcDbLine
 10
42.29892682966797
 20
67.4875193764884
 30
0.0
 11
43.75961214039832
 21
65.83364990423236
 31
0.0
  0
LINE
  5
18E
330
1F
100
AcDbEntity
  8
0
100
AcDbLine
 10
42.00756711064577
 20
58.31854130175502
 30
0.0
 11
37.60715724358523
 21
55.06766356722998
 31
0.0
  0
LINE
  5
18F
330
1F
100
AcDbEntity
  8
0
100
AcDbLine
 10
42.55285891679994
 20
59.52860543125143
 30
0.0
 11
42.00756711064577
 21
58.31854130175502
 31
0.0
  0
LINE
  5
190
330
1F
100
AcDbEntity
  8
0
100
AcDbLine
 10
46.91908008165302
 20
62.44997605271233
 30
0.0
 11
42.56538277824021
 21
61.50550415720601
 31
0.0
  0
LINE
  5
191
330
1F
100
AcDbEntity
  8
0
100
AcDbLine
 10
41.73333773083486
 20
59.05197893437271
 30
0.0
 11
42.55285891679994
 21
59.52860543125143
 31
0.0
  0
LINE
  5
192
330
1F
100
AcDbEntity
  8
0
100
AcDbLine
 10
-28.87377235127248
 20
-73.48705414724762
 30
0.0
 11
-28.87377235127248
 21
-62.98746836336176
 31
0.0
  0
LINE
  5
193
330
1F
100
AcDbEntity
  8
0
100
AcDbLine
 10
-28.87377235127248
 20
-62.98746836336176
 30
0.0
 11
-34.12356524321722
 21
-62.98746836336298
 31
0.0
  0
LINE
  5
194
330
1F
100
AcDbEntity
  8
0
100
AcDbLine
 10
-34.12356524321722
 20
-62.98746836336298
 30
0.0
 11
-34.1235652432146
 21
-68.23726125530472
 31
0.0
  0
LINE
  5
195
330
1F
100
AcDbEntity
  8
0
100
AcDbLine
 10
-39.3733581351574
 20
-62.98746836336176
 30
0.0
 11
-49.87294391904337
 21
-62.98746836336176
 31
0.0
  0
LINE
  5
196
330
1F
100
AcDbEntity
  8
0
100
AcDbLine
 10
-49.87294391904337
 20
-62.98746836336176
 30
0.0
 11
-49.87294391904337
 21
-68.23726125530828
 31
0.0
  0
LINE
  5
197
330
1F
100
AcDbEntity
  8
0
100
AcDbLine
 10
-49.87294391904337
 20
-68.23726125530828
 30
0.0
 11
-44.62315102710042
 21
-68.23726125530828
 31
0.0
  0
LINE
  5
198
330
1F
100
AcDbEntity
  8
0
100
AcDbLine
 10
-44.62315102710042
 20
-52.48788257947607
 30
0.0
 11
-44.62315102710042
 21
-57.737675471419
 31
0.0
  0
LINE
  5
199
330
1F
100
AcDbEntity
  8
0
100
AcDbLine
 10
-44.62315102710042
 20
-57.737675471419
 30
0.0
 11
-49.87294391904337
 21
-57.737675471419
 31
0.0
  0
LINE
  5
19A
330
1F
100
AcDbEntity
  8
0
100
AcDbLine
 10
-49.87294391904337
 20
-57.737675471419
 30
0.0
 11
-49.87294391904337
 21
-47.23808968753316
 31
0.0
  0
LINE
  5
19B
330
1F
100
AcDbEntity
  8
0
100
AcDbLine
 10
-49.87294391904337
 20
-47.23808968753316
 30
0.0
 11
-28.87377235127248
 21
-47.23808968753316
 31
0.0
  0
LINE
  5
19C
330
1F
100
AcDbEntity
  8
0
100
AcDbLine
 10
-28.87377235127248
 20
-47.23808968753316
 30
0.0
 11
-28.87377235127248
 21
-36.73850390364751
 31
0.0
  0
LINE
  5
19D
330
1F
100
AcDbEntity
  8
0
100
AcDbLine
 10
-28.87377235127248
 20
-36.73850390364751
 30
0.0
 11
-34.12356524321722
 21
-36.73850390364866
 31
0.0
  0
LINE
  5
19E
330
1F
100
AcDbEntity
  8
0
100
AcDbLine
 10
-34.12356524321722
 20
-36.73850390364866
 30
0.0
 11
-34.1235652432146
 21
-41.98829679559031
 31
0.0
  0
LINE
  5
19F
330
1F
100
AcDbEntity
  8
0
100
AcDbLine
 10
-34.12356524321535
 20
-52.48788257947489
 30
0.0
 11
-28.87377235127189
 21
-52.48788257947607
 31
0.0
  0
LINE
  5
1A0
330
1F
100
AcDbEntity
  8
0
100
AcDbLine
 10
-28.87377235127189
 20
-52.48788257947607
 30
0.0
 11
-28.87377235127248
 21
-57.737675471419
 31
0.0
  0
LINE
  5
1A1
330
1F
100
AcDbEntity
  8
0
100
AcDbLine
 10
-28.87377235127248
 20
-57.737675471419
 30
0.0
 11
-39.3733581351574
 21
-57.737675471419
 31
0.0
  0
LINE
  5
1A2
330
1F
100
AcDbEntity
  8
0
100
AcDbLine
 10
-39.3733581351574
 20
-57.737675471419
 30
0.0
 11
-39.3733581351574
 21
-36.73850390364751
 31
0.0
  0
LINE
  5
1A3
330
1F
100
AcDbEntity
  8
0
100
AcDbLine
 10
-39.3733581351574
 20
-36.73850390364751
 30
0.0
 11
-49.87294391904337
 21
-36.73850390364751
 31
0.0
  0
LINE
  5
1A4
330
1F
100
AcDbEntity
  8
0
100
AcDbLine
 10
-49.87294391904337
 20
-36.73850390364751
 30
0.0
 11
-49.87294391904337
 21
-41.988296795594
 31
0.0
  0
LINE
  5
1A5
330
1F
100
AcDbEntity
  8
0
100
AcDbLine
 10
-49.87294391904337
 20
-41.988296795594
 30
0.0
 11
-44.62315102710042
 21
-41.988296795594
 31
0.0
  0
LINE
  5
1A6
330
1F
100
AcDbEntity
  8
0
100
AcDbLine
 10
-44.62315102710042
 20
-26.23891811976175
 30
0.0
 11
-44.62315102710042
 21
-31.48871101170457
 31
0.0
  0
LINE
  5
1A7
330
1F
100
AcDbEntity
  8
0
100
AcDbLine
 10
-44.62315102710042
 20
-31.48871101170457
 30
0.0
 11
-49.87294391904337
 21
-31.48871101170457
 31
0.0
  0
LINE
  5
1A8
330
1F
100
AcDbEntity
  8
0
100
AcDbLine
 10
-49.87294391904337
 20
-31.48871101170457
 30
0.0
 11
-49.87294391904337
 21
-20.98912522781894
 31
0.0
  0
LINE
  5
1A9
330
1F
100
AcDbEntity
  8
0
100
AcDbLine
 10
-49.87294391904337
 20
-20.98912522781894
 30
0.0
 11
-28.87377235127248
 21
-20.98912522781894
 31
0.0
  0
LINE
  5
1AA
330
1F
100
AcDbEntity
  8
0
100
AcDbLine
 10
-28.87377235127248
 20
-20.98912522781894
 30
0.0
 11
-28.87377235127248
 21
-10.48953944393313
 31
0.0
  0
LINE
  5
1AB
330
1F
100
AcDbEntity
  8
0
100
AcDbLine
 10
-28.87377235127248
 20
-10.48953944393313
 30
0.0
 11
-34.12356524321722
 21
-10.48953944393426
 31
0.0
  0
LINE
  5
1AC
330
1F
100
AcDbEntity
  8
0
100
AcDbLine
 10
-34.12356524321722
 20
-10.48953944393426
 30
0.0
 11
-34.1235652432146
 21
-15.73933233587601
 31
0.0
  0
LINE
  5
1AD
330
1F
100
AcDbEntity
  8
0
100
AcDbLine
 10
-34.12356524321535
 20
-26.23891811976058
 30
0.0
 11
-28.87377235127189
 21
-26.23891811976175
 31
0.0
  0
LINE
  5
1AE
330
1F
100
AcDbEntity
  8
0
100
AcDbLine
 10
-28.87377235127189
 20
-26.23891811976175
 30
0.0
 11
-28.87377235127248
 21
-31.48871101170457
 31
0.0
  0
LINE
  5
1AF
330
1F
100
AcDbEntity
  8
0
100
AcDbLine
 10
-28.87377235127248
 20
-31.48871101170457
 30
0.0
 11
-39.3733581351574
 21
-31.48871101170457
 31
0.0
  0
LINE
  5
1B0
330
1F
100
AcDbEntity
  8
0
100
AcDbLine
 10
-39.3733581351574
 20
-31.48871101170457
 30
0.0
 11
-39.3733581351574
 21
-10.48953944393313
 31
0.0
  0
LINE
  5
1B1
330
1F
100
AcDbEntity
  8
0
100
AcDbLine
 10
-39.3733581351574
 20
-10.48953944393313
 30
0.0
 11
-49.87294391904337
 21
-10.48953944393313
 31
0.0
  0
LINE
  5
1B2
330
1F
100
AcDbEntity
  8
0
100
AcDbLine
 10
-49.87294391904337
 20
-10.48953944393313
 30
0.0
 11
-49.87294391904337
 21
-15.73933233587971
 31
0.0
  0
LINE
  5
1B3
330
1F
100
AcDbEntity
  8
0
100
AcDbLine
 10
-49.87294391904337
 20
-15.73933233587971
 30
0.0
 11
-44.62315102710042
 21
-15.73933233587971
 31
0.0
  0
LINE
  5
1B4
330
1F
100
AcDbEntity
  8
0
100
AcDbLine
 10
-44.62315102710042
 20
0.0100463399525395
 30
0.0
 11
-44.62315102710042
 21
-5.239746551990319
 31
0.0
  0
LINE
  5
1B5
330
1F
100
AcDbEntity
  8
0
100
AcDbLine
 10
-44.62315102710042
 20
-5.239746551990319
 30
0.0
 11
-49.87294391904337
 21
-5.239746551990319
 31
0.0
  0
LINE
  5
1B6
330
1F
100
AcDbEntity
  8
0
100
AcDbLine
 10
-49.87294391904337
 20
-5.239746551990319
 30
0.0
 11
-49.87294391904337
 21
5.259839231895668
 31
0.0
  0
LINE
  5
1B7
330
1F
100
AcDbEntity
  8
0
100
AcDbLine
 10
-49.87294391904337
 20
5.259839231895668
 30
0.0
 11
-28.87377235127248
 21
5.259839231895668
 31
0.0
  0
LINE
  5
1B8
330
1F
100
AcDbEntity
  8
0
100
AcDbLine
 10
-28.87377235127248
 20
5.259839231895668
 30
0.0
 11
-28.87377235127248
 21
15.75942501578116
 31
0.0
  0
LINE
  5
1B9
330
1F
100
AcDbEntity
  8
0
100
AcDbLine
 10
-28.87377235127248
 20
15.75942501578116
 30
0.0
 11
-34.12356524321722
 21
15.75942501577999
 31
0.0
  0
LINE
  5
1BA
330
1F
100
AcDbEntity
  8
0
100
AcDbLine
 10
-34.12356524321722
 20
15.75942501577999
 30
0.0
 11
-34.1235652432146
 21
10.50963212383839
 31
0.0
  0
LINE
  5
1BB
330
1F
100
AcDbEntity
  8
0
100
AcDbLine
 10
-34.12356524321535
 20
0.0100463399538029
 30
0.0
 11
-28.87377235127189
 21
0.0100463399525395
 31
0.0
  0
LINE
  5
1BC
330
1F
100
AcDbEntity
  8
0
100
AcDbLine
 10
-28.87377235127189
 20
0.0100463399525395
 30
0.0
 11
-28.87377235127248
 21
-5.239746551990319
 31
0.0
  0
LINE
  5
1BD
330
1F
100
AcDbEntity
  8
0
100
AcDbLine
 10
-28.87377235127248
 20
-5.239746551990319
 30
0.0
 11
-39.3733581351574
 21
-5.239746551990319
 31
0.0
  0
LINE
  5
1BE
330
1F
100
AcDbEntity
  8
0
100
AcDbLine
 10
-39.3733581351574
 20
-5.239746551990319
 30
0.0
 11
-39.3733581351574
 21
15.75942501578116
 31
0.0
  0
LINE
  5
1BF
330
1F
100
AcDbEntity
  8
0
100
AcDbLine
 10
-39.3733581351574
 20
15.75942501578116
 30
0.0
 11
-49.87294391904337
 21
15.75942501578116
 31
0.0
  0
LINE
  5
1C0
330
1F
100
AcDbEntity
  8
0
100
AcDbLine
 10
-49.87294391904337
 20
15.75942501578116
 30
0.0
 11
-49.87294391904337
 21
10.50963212383474
 31
0.0
  0
LINE
  5
1C1
330
1F
100
AcDbEntity
  8
0
100
AcDbLine
 10
-49.87294391904337
 20
10.50963212383474
 30
0.0
 11
-44.62315102710042
 21
10.50963212383474
 31
0.0
  0
LINE
  5
1C2
330
1F
100
AcDbEntity
  8
0
100
AcDbLine
 10
-44.62315102710042
 20
26.25901079966697
 30
0.0
 11
-44.62315102710042
 21
21.00921790772425
 31
0.0
  0
LINE
  5
1C3
330
1F
100
AcDbEntity
  8
0
100
AcDbLine
 10
-44.62315102710042
 20
21.00921790772425
 30
0.0
 11
-49.87294391904337
 21
21.00921790772425
 31
0.0
  0
LINE
  5
1C4
330
1F
100
AcDbEntity
  8
0
100
AcDbLine
 10
-49.87294391904337
 20
21.00921790772425
 30
0.0
 11
-49.87294391904337
 21
31.50880369160983
 31
0.0
  0
LINE
  5
1C5
330
1F
100
AcDbEntity
  8
0
100
AcDbLine
 10
-34.12356524321535
 20
26.2590107996681
 30
0.0
 11
-28.87377235127189
 21
26.25901079966697
 31
0.0
  0
LINE
  5
1C6
330
1F
100
AcDbEntity
  8
0
100
AcDbLine
 10
-28.87377235127189
 20
26.25901079966697
 30
0.0
 11
-28.87377235127248
 21
21.00921790772425
 31
0.0
  0
LINE
  5
1C7
330
1F
100
AcDbEntity
  8
0
100
AcDbLine
 10
-28.87377235127248
 20
21.00921790772425
 30
0.0
 11
-39.3733581351574
 21
21.00921790772425
 31
0.0
  0
LINE
  5
1C8
330
1F
100
AcDbEntity
  8
0
100
AcDbLine
 10
-39.3733581351574
 20
21.00921790772425
 30
0.0
 11
-39.3733581351574
 21
31.50880369160983
 31
0.0
  0
LINE
  5
1C9
330
1F
100
AcDbEntity
  8
0
100
AcDbLine
 10
-2.62480789155805
 20
-73.48705414724762
 30
0.0
 11
-2.62480789155805
 21
-62.98746836336176
 31
0.0
  0
LINE
  5
1CA
330
1F
100
AcDbEntity
  8
0
100
AcDbLine
 10
-2.62480789155805
 20
-62.98746836336176
 30
0.0
 11
-7.874600783502713
 21
-62.98746836336298
 31
0.0
  0
LINE
  5
1CB
330
1F
100
AcDbEntity
  8
0
100
AcDbLine
 10
-7.874600783502713
 20
-62.98746836336298
 30
0.0
 11
-7.874600783500249
 21
-68.23726125530472
 31
0.0
  0
LINE
  5
1CC
330
1F
100
AcDbEntity
  8
0
100
AcDbLine
 10
-13.12439367544305
 20
-62.98746836336176
 30
0.0
 11
-23.62397945932916
 21
-62.98746836336176
 31
0.0
  0
LINE
  5
1CD
330
1F
100
AcDbEntity
  8
0
100
AcDbLine
 10
-23.62397945932916
 20
-62.98746836336176
 30
0.0
 11
-23.62397945932916
 21
-68.23726125530828
 31
0.0
  0
LINE
  5
1CE
330
1F
100
AcDbEntity
  8
0
100
AcDbLine
 10
-23.62397945932916
 20
-68.23726125530828
 30
0.0
 11
-18.37418656738614
 21
-68.23726125530828
 31
0.0
  0
LINE
  5
1CF
330
1F
100
AcDbEntity
  8
0
100
AcDbLine
 10
-18.37418656738614
 20
-52.48788257947607
 30
0.0
 11
-18.37418656738614
 21
-57.737675471419
 31
0.0
  0
LINE
  5
1D0
330
1F
100
AcDbEntity
  8
0
100
AcDbLine
 10
-18.37418656738614
 20
-57.737675471419
 30
0.0
 11
-23.62397945932916
 21
-57.737675471419
 31
0.0
  0
LINE
  5
1D1
330
1F
100
AcDbEntity
  8
0
100
AcDbLine
 10
-23.62397945932916
 20
-57.737675471419
 30
0.0
 11
-23.62397945932916
 21
-47.23808968753316
 31
0.0
  0
LINE
  5
1D2
330
1F
100
AcDbEntity
  8
0
100
AcDbLine
 10
-23.62397945932916
 20
-47.23808968753316
 30
0.0
 11
-2.62480789155805
 21
-47.23808968753316
 31
0.0
  0
LINE
  5
1D3
330
1F
100
AcDbEntity
  8
0
100
AcDbLine
 10
-2.62480789155805
 20
-47.23808968753316
 30
0.0
 11
-2.62480789155805
 21
-36.73850390364751
 31
0.0
  0
LINE
  5
1D4
330
1F
100
AcDbEntity
  8
0
100
AcDbLine
 10
-2.62480789155805
 20
-36.73850390364751
 30
0.0
 11
-7.874600783502713
 21
-36.73850390364866
 31
0.0
  0
LINE
  5
1D5
330
1F
100
AcDbEntity
  8
0
100
AcDbLine
 10
-7.874600783502713
 20
-36.73850390364866
 30
0.0
 11
-7.874600783500249
 21
-41.98829679559031
 31
0.0
  0
LINE
  5
1D6
330
1F
100
AcDbEntity
  8
0
100
AcDbLine
 10
-7.874600783501072
 20
-52.48788257947489
 30
0.0
 11
-2.624807891557604
 21
-52.48788257947607
 31
0.0
  0
LINE
  5
1D7
330
1F
100
AcDbEntity
  8
0
100
AcDbLine
 10
-2.624807891557604
 20
-52.48788257947607
 30
0.0
 11
-2.62480789155805
 21
-57.737675471419
 31
0.0
  0
LINE
  5
1D8
330
1F
100
AcDbEntity
  8
0
100
AcDbLine
 10
-2.62480789155805
 20
-57.737675471419
 30
0.0
 11
-13.12439367544305
 21
-57.737675471419
 31
0.0
  0
LINE
  5
1D9
330
1F
100
AcDbEntity
  8
0
100
AcDbLine
 10
-13.12439367544305
 20
-57.737675471419
 30
0.0
 11
-13.12439367544305
 21
-36.73850390364751
 31
0.0
  0
LINE
  5
1DA
330
1F
100
AcDbEntity
  8
0
100
AcDbLine
 10
-13.12439367544305
 20
-36.73850390364751
 30
0.0
 11
-23.62397945932916
 21
-36.73850390364751
 31
0.0
  0
LINE
  5
1DB
330
1F
100
AcDbEntity
  8
0
100
AcDbLine
 10
-23.62397945932916
 20
-36.73850390364751
 30
0.0
 11
-23.62397945932916
 21
-41.988296795594
 31
0.0
  0
LINE
  5
1DC
330
1F
100
AcDbEntity
  8
0
100
AcDbLine
 10
-23.62397945932916
 20
-41.988296795594
 30
0.0
 11
-18.37418656738614
 21
-41.988296795594
 31
0.0
  0
LINE
  5
1DD
330
1F
100
AcDbEntity
  8
0
100
AcDbLine
 10
-18.37418656738614
 20
-26.23891811976175
 30
0.0
 11
-18.37418656738614
 21
-31.48871101170457
 31
0.0
  0
LINE
  5
1DE
330
1F
100
AcDbEntity
  8
0
100
AcDbLine
 10
-18.37418656738614
 20
-31.48871101170457
 30
0.0
 11
-23.62397945932916
 21
-31.48871101170457
 31
0.0
  0
LINE
  5
1DF
330
1F
100
AcDbEntity
  8
0
100
AcDbLine
 10
-23.62397945932916
 20
-31.48871101170457
 30
0.0
 11
-23.62397945932916
 21
-20.98912522781894
 31
0.0
  0
LINE
  5
1E0
330
1F
100
AcDbEntity
  8
0
100
AcDbLine
 10
-23.62397945932916
 20
-20.98912522781894
 30
0.0
 11
-2.62480789155805
 21
-20.98912522781894
 31
0.0
  0
LINE
  5
1E1
330
1F
100
AcDbEntity
  8
0
100
AcDbLine
 10
-2.62480789155805
 20
-20.98912522781894
 30
0.0
 11
-2.62480789155805
 21
-10.48953944393313
 31
0.0
  0
LINE
  5
1E2
330
1F
100
AcDbEntity
  8
0
100
AcDbLine
 10
-2.62480789155805
 20
-10.48953944393313
 30
0.0
 11
-7.874600783502713
 21
-10.48953944393426
 31
0.0
  0
LINE
  5
1E3
330
1F
100
AcDbEntity
  8
0
100
AcDbLine
 10
-7.874600783502713
 20
-10.48953944393426
 30
0.0
 11
-7.874600783500249
 21
-15.73933233587601
 31
0.0
  0
LINE
  5
1E4
330
1F
100
AcDbEntity
  8
0
100
AcDbLine
 10
-7.874600783501072
 20
-26.23891811976058
 30
0.0
 11
-2.624807891557604
 21
-26.23891811976175
 31
0.0
  0
LINE
  5
1E5
330
1F
100
AcDbEntity
  8
0
100
AcDbLine
 10
-2.624807891557604
 20
-26.23891811976175
 30
0.0
 11
-2.62480789155805
 21
-31.48871101170457
 31
0.0
  0
LINE
  5
1E6
330
1F
100
AcDbEntity
  8
0
100
AcDbLine
 10
-2.62480789155805
 20
-31.48871101170457
 30
0.0
 11
-13.12439367544305
 21
-31.48871101170457
 31
0.0
  0
LINE
  5
1E7
330
1F
100
AcDbEntity
  8
0
100
AcDbLine
 10
-13.12439367544305
 20
-31.48871101170457
 30
0.0
 11
-13.12439367544305
 21
-10.48953944393313
 31
0.0
  0
LINE
  5
1E8
330
1F
100
AcDbEntity
  8
0
100
AcDbLine
 10
-13.12439367544305
 20
-10.48953944393313
 30
0.0
 11
-23.62397945932916
 21
-10.48953944393313
 31
0.0
  0
LINE
  5
1E9
330
1F
100
AcDbEntity
  8
0
100
AcDbLine
 10
-23.62397945932916
 20
-10.48953944393313
 30
0.0
 11
-23.62397945932916
 21
-15.73933233587971
 31
0.0
  0
LINE
  5
1EA
330
1F
100
AcDbEntity
  8
0
100
AcDbLine
 10
-23.62397945932916
 20
-15.73933233587971
 30
0.0
 11
-18.37418656738614
 21
-15.73933233587971
 31
0.0
  0
LINE
  5
1EB
330
1F
100
AcDbEntity
  8
0
100
AcDbLine
 10
-18.37418656738614
 20
0.0100463399525395
 30
0.0
 11
-18.37418656738614
 21
-5.239746551990319
 31
0.0
  0
LINE
  5
1EC
330
1F
100
AcDbEntity
  8
0
100
AcDbLine
 10
-18.37418656738614
 20
-5.239746551990319
 30
0.0
 11
-23.62397945932916
 21
-5.239746551990319
 31
0.0
  0
LINE
  5
1ED
330
1F
100
AcDbEntity
  8
0
100
AcDbLine
 10
-23.62397945932916
 20
-5.239746551990319
 30
0.0
 11
-23.62397945932916
 21
5.259839231895668
 31
0.0
  0
LINE
  5
1EE
330
1F
100
AcDbEntity
  8
0
100
AcDbLine
 10
-23.62397945932916
 20
5.259839231895668
 30
0.0
 11
-2.62480789155805
 21
5.259839231895668
 31
0.0
  0
LINE
  5
1EF
330
1F
100
AcDbEntity
  8
0
100
AcDbLine
 10
-2.62480789155805
 20
5.259839231895668
 30
0.0
 11
-2.62480789155805
 21
15.75942501578116
 31
0.0
  0
LINE
  5
1F0
330
1F
100
AcDbEntity
  8
0
100
AcDbLine
 10
-2.62480789155805
 20
15.75942501578116
 30
0.0
 11
-7.874600783502713
 21
15.75942501577999
 31
0.0
  0
LINE
  5
1F1
330
1F
100
AcDbEntity
  8
0
100
AcDbLine
 10
-7.874600783502713
 20
15.75942501577999
 30
0.0
 11
-7.874600783500249
 21
10.50963212383839
 31
0.0
  0
LINE
  5
1F2
330
1F
100
AcDbEntity
  8
0
100
AcDbLine
 10
-7.874600783501072
 20
0.0100463399538029
 30
0.0
 11
-2.624807891557604
 21
0.0100463399525395
 31
0.0
  0
LINE
  5
1F3
330
1F
100
AcDbEntity
  8
0
100
AcDbLine
 10
-2.624807891557604
 20
0.0100463399525395
 30
0.0
 11
-2.62480789155805
 21
-5.239746551990319
 31
0.0
  0
LINE
  5
1F4
330
1F
100
AcDbEntity
  8
0
100
AcDbLine
 10
-2.62480789155805
 20
-5.239746551990319
 30
0.0
 11
-13.12439367544305
 21
-5.239746551990319
 31
0.0
  0
LINE
  5
1F5
330
1F
100
AcDbEntity
  8
0
100
AcDbLine
 10
-13.12439367544305
 20
-5.239746551990319
 30
0.0
 11
-13.12439367544305
 21
15.75942501578116
 31
0.0
  0
LINE
  5
1F6
330
1F
100
AcDbEntity
  8
0
100
AcDbLine
 10
-13.12439367544305
 20
15.75942501578116
 30
0.0
 11
-23.62397945932916
 21
15.75942501578116
 31
0.0
  0
LINE
  5
1F7
330
1F
100
AcDbEntity
  8
0
100
AcDbLine
 10
-23.62397945932916
 20
15.75942501578116
 30
0.0
 11
-23.62397945932916
 21
10.50963212383474
 31
0.0
  0
LINE
  5
1F8
330
1F
100
AcDbEntity
  8
0
100
AcDbLine
 10
-23.62397945932916
 20
10.50963212383474
 30
0.0
 11
-18.37418656738614
 21
10.50963212383474
 31
0.0
  0
LINE
  5
1F9
330
1F
100
AcDbEntity
  8
0
100
AcDbLine
 10
-18.37418656738614
 20
26.25901079966697
 30
0.0
 11
-18.37418656738614
 21
21.00921790772425
 31
0.0
  0
LINE
  5
1FA
330
1F
100
AcDbEntity
  8
0
100
AcDbLine
 10
-18.37418656738614
 20
21.00921790772425
 30
0.0
 11
-23.62397945932916
 21
21.00921790772425
 31
0.0
  0
LINE
  5
1FB
330
1F
100
AcDbEntity
  8
0
100
AcDbLine
 10
-23.62397945932916
 20
21.00921790772425
 30
0.0
 11
-23.62397945932916
 21
31.50880369160983
 31
0.0
  0
LINE
  5
1FC
330
1F
100
AcDbEntity
  8
0
100
AcDbLine
 10
-7.874600783501072
 20
26.2590107996681
 30
0.0
 11
-2.624807891557604
 21
26.25901079966697
 31
0.0
  0
LINE
  5
1FD
330
1F
100
AcDbEntity
  8
0
100
AcDbLine
 10
-2.624807891557604
 20
26.25901079966697
 30
0.0
 11
-2.62480789155805
 21
21.00921790772425
 31
0.0
  0
LINE
  5
1FE
330
1F
100
AcDbEntity
  8
0
100
AcDbLine
 10
-2.62480789155805
 20
21.00921790772425
 30
0.0
 11
-13.12439367544305
 21
21.00921790772425
 31
0.0
  0
LINE
  5
1FF
330
1F
100
AcDbEntity
  8
0
100
AcDbLine
 10
-13.12439367544305
 20
21.00921790772425
 30
0.0
 11
-13.12439367544305
 21
31.50880369160983
 31
0.0
  0
LINE
  5
200
330
1F
100
AcDbEntity
  8
0
100
AcDbLine
 10
23.62415656815638
 20
-73.48705414724762
 30
0.0
 11
23.62415656815638
 21
-62.98746836336176
 31
0.0
  0
LINE
  5
201
330
1F
100
AcDbEntity
  8
0
100
AcDbLine
 10
23.62415656815638
 20
-62.98746836336176
 30
0.0
 11
18.37436367621157
 21
-62.98746836336298
 31
0.0
  0
LINE
  5
202
330
1F
100
AcDbEntity
  8
0
100
AcDbLine
 10
18.37436367621157
 20
-62.98746836336298
 30
0.0
 11
18.37436367621403
 21
-68.23726125530472
 31
0.0
  0
LINE
  5
203
330
1F
100
AcDbEntity
  8
0
100
AcDbLine
 10
13.12457078427093
 20
-62.98746836336176
 30
0.0
 11
2.624985000385271
 21
-62.98746836336176
 31
0.0
  0
LINE
  5
204
330
1F
100
AcDbEntity
  8
0
100
AcDbLine
 10
2.624985000385271
 20
-62.98746836336176
 30
0.0
 11
2.624985000385271
 21
-68.23726125530828
 31
0.0
  0
LINE
  5
205
330
1F
100
AcDbEntity
  8
0
100
AcDbLine
 10
2.624985000385271
 20
-68.23726125530828
 30
0.0
 11
7.874777892328141
 21
-68.23726125530828
 31
0.0
  0
LINE
  5
206
330
1F
100
AcDbEntity
  8
0
100
AcDbLine
 10
7.874777892328141
 20
-52.48788257947607
 30
0.0
 11
7.874777892328141
 21
-57.737675471419
 31
0.0
  0
LINE
  5
207
330
1F
100
AcDbEntity
  8
0
100
AcDbLine
 10
7.874777892328141
 20
-57.737675471419
 30
0.0
 11
2.624985000385271
 21
-57.737675471419
 31
0.0
  0
LINE
  5
208
330
1F
100
AcDbEntity
  8
0
100
AcDbLine
 10
2.624985000385271
 20
-57.737675471419
 30
0.0
 11
2.624985000385271
 21
-47.23808968753316
 31
0.0
  0
LINE
  5
209
330
1F
100
AcDbEntity
  8
0
100
AcDbLine
 10
2.624985000385271
 20
-47.23808968753316
 30
0.0
 11
23.62415656815638
 21
-47.23808968753316
 31
0.0
  0
LINE
  5
20A
330
1F
100
AcDbEntity
  8
0
100
AcDbLine
 10
23.62415656815638
 20
-47.23808968753316
 30
0.0
 11
23.62415656815638
 21
-36.73850390364751
 31
0.0
  0
LINE
  5
20B
330
1F
100
AcDbEntity
  8
0
100
AcDbLine
 10
23.62415656815638
 20
-36.73850390364751
 30
0.0
 11
18.37436367621157
 21
-36.73850390364866
 31
0.0
  0
LINE
  5
20C
330
1F
100
AcDbEntity
  8
0
100
AcDbLine
 10
18.37436367621157
 20
-36.73850390364866
 30
0.0
 11
18.37436367621403
 21
-41.98829679559031
 31
0.0
  0
LINE
  5
20D
330
1F
100
AcDbEntity
  8
0
100
AcDbLine
 10
18.37436367621328
 20
-52.48788257947489
 30
0.0
 11
23.6241565681569
 21
-52.48788257947607
 31
0.0
  0
LINE
  5
20E
330
1F
100
AcDbEntity
  8
0
100
AcDbLine
 10
23.6241565681569
 20
-52.48788257947607
 30
0.0
 11
23.62415656815638
 21
-57.737675471419
 31
0.0
  0
LINE
  5
20F
330
1F
100
AcDbEntity
  8
0
100
AcDbLine
 10
23.62415656815638
 20
-57.737675471419
 30
0.0
 11
13.12457078427093
 21
-57.737675471419
 31
0.0
  0
LINE
  5
210
330
1F
100
AcDbEntity
  8
0
100
AcDbLine
 10
13.12457078427093
 20
-57.737675471419
 30
0.0
 11
13.12457078427093
 21
-36.73850390364751
 31
0.0
  0
LINE
  5
211
330
1F
100
AcDbEntity
  8
0
100
AcDbLine
 10
13.12457078427093
 20
-36.73850390364751
 30
0.0
 11
2.624985000385271
 21
-36.73850390364751
 31
0.0
  0
LINE
  5
212
330
1F
100
AcDbEntity
  8
0
100
AcDbLine
 10
2.624985000385271
 20
-36.73850390364751
 30
0.0
 11
2.624985000385271
 21
-41.988296795594
 31
0.0
  0
LINE
  5
213
330
1F
100
AcDbEntity
  8
0
100
AcDbLine
 10
2.624985000385271
 20
-41.988296795594
 30
0.0
 11
7.874777892328141
 21
-41.988296795594
 31
0.0
  0
LINE
  5
214
330
1F
100
AcDbEntity
  8
0
100
AcDbLine
 10
7.874777892328141
 20
-26.23891811976175
 30
0.0
 11
7.874777892328141
 21
-31.48871101170457
 31
0.0
  0
LINE
  5
215
330
1F
100
AcDbEntity
  8
0
100
AcDbLine
 10
7.874777892328141
 20
-31.48871101170457
 30
0.0
 11
2.624985000385271
 21
-31.48871101170457
 31
0.0
  0
LINE
  5
216
330
1F
100
AcDbEntity
  8
0
100
AcDbLine
 10
2.624985000385271
 20
-31.48871101170457
 30
0.0
 11
2.624985000385271
 21
-20.98912522781894
 31
0.0
  0
LINE
  5
217
330
1F
100
AcDbEntity
  8
0
100
AcDbLine
 10
2.624985000385271
 20
-20.98912522781894
 30
0.0
 11
23.62415656815638
 21
-20.98912522781894
 31
0.0
  0
LINE
  5
218
330
1F
100
AcDbEntity
  8
0
100
AcDbLine
 10
23.62415656815638
 20
-20.98912522781894
 30
0.0
 11
23.62415656815638
 21
-10.48953944393313
 31
0.0
  0
LINE
  5
219
330
1F
100
AcDbEntity
  8
0
100
AcDbLine
 10
23.62415656815638
 20
-10.48953944393313
 30
0.0
 11
18.37436367621157
 21
-10.48953944393426
 31
0.0
  0
LINE
  5
21A
330
1F
100
AcDbEntity
  8
0
100
AcDbLine
 10
18.37436367621157
 20
-10.48953944393426
 30
0.0
 11
18.37436367621403
 21
-15.73933233587601
 31
0.0
  0
LINE
  5
21B
330
1F
100
AcDbEntity
  8
0
100
AcDbLine
 10
18.37436367621328
 20
-26.23891811976058
 30
0.0
 11
23.6241565681569
 21
-26.23891811976175
 31
0.0
  0
LINE
  5
21C
330
1F
100
AcDbEntity
  8
0
100
AcDbLine
 10
23.6241565681569
 20
-26.23891811976175
 30
0.0
 11
23.62415656815638
 21
-31.48871101170457
 31
0.0
  0
LINE
  5
21D
330
1F
100
AcDbEntity
  8
0
100
AcDbLine
 10
23.62415656815638
 20
-31.48871101170457
 30
0.0
 11
13.12457078427093
 21
-31.48871101170457
 31
0.0
  0
LINE
  5
21E
330
1F
100
AcDbEntity
  8
0
100
AcDbLine
 10
13.12457078427093
 20
-31.48871101170457
 30
0.0
 11
13.12457078427093
 21
-10.48953944393313
 31
0.0
  0
LINE
  5
21F
330
1F
100
AcDbEntity
  8
0
100
AcDbLine
 10
13.12457078427093
 20
-10.48953944393313
 30
0.0
 11
2.624985000385271
 21
-10.48953944393313
 31
0.0
  0
LINE
  5
220
330
1F
100
AcDbEntity
  8
0
100
AcDbLine
 10
2.624985000385271
 20
-10.48953944393313
 30
0.0
 11
2.624985000385271
 21
-15.73933233587971
 31
0.0
  0
LINE
  5
221
330
1F
100
AcDbEntity
  8
0
100
AcDbLine
 10
2.624985000385271
 20
-15.73933233587971
 30
0.0
 11
7.874777892328141
 21
-15.73933233587971
 31
0.0
  0
LINE
  5
222
330
1F
100
AcDbEntity
  8
0
100
AcDbLine
 10
7.874777892328141
 20
0.0100463399525395
 30
0.0
 11
7.874777892328141
 21
-5.239746551990319
 31
0.0
  0
LINE
  5
223
330
1F
100
AcDbEntity
  8
0
100
AcDbLine
 10
7.874777892328141
 20
-5.239746551990319
 30
0.0
 11
2.624985000385271
 21
-5.239746551990319
 31
0.0
  0
LINE
  5
224
330
1F
100
AcDbEntity
  8
0
100
AcDbLine
 10
2.624985000385271
 20
-5.239746551990319
 30
0.0
 11
2.624985000385271
 21
5.259839231895668
 31
0.0
  0
LINE
  5
225
330
1F
100
AcDbEntity
  8
0
100
AcDbLine
 10
2.624985000385271
 20
5.259839231895668
 30
0.0
 11
23.62415656815638
 21
5.259839231895668
 31
0.0
  0
LINE
  5
226
330
1F
100
AcDbEntity
  8
0
100
AcDbLine
 10
23.62415656815638
 20
5.259839231895668
 30
0.0
 11
23.62415656815638
 21
15.75942501578116
 31
0.0
  0
LINE
  5
227
330
1F
100
AcDbEntity
  8
0
100
AcDbLine
 10
23.62415656815638
 20
15.75942501578116
 30
0.0
 11
18.37436367621157
 21
15.75942501577999
 31
0.0
  0
LINE
  5
228
330
1F
100
AcDbEntity
  8
0
100
AcDbLine
 10
18.37436367621157
 20
15.75942501577999
 30
0.0
 11
18.37436367621403
 21
10.50963212383839
 31
0.0
  0
LINE
  5
229
330
1F
100
AcDbEntity
  8
0
100
AcDbLine
 10
18.37436367621328
 20
0.0100463399538029
 30
0.0
 11
23.6241565681569
 21
0.0100463399525395
 31
0.0
  0
LINE
  5
22A
330
1F
100
AcDbEntity
  8
0
100
AcDbLine
 10
23.6241565681569
 20
0.0100463399525395
 30
0.0
 11
23.62415656815638
 21
-5.239746551990319
 31
0.0
  0
LINE
  5
22B
330
1F
100
AcDbEntity
  8
0
100
AcDbLine
 10
23.62415656815638
 20
-5.239746551990319
 30
0.0
 11
13.12457078427093
 21
-5.239746551990319
 31
0.0
  0
LINE
  5
22C
330
1F
100
AcDbEntity
  8
0
100
AcDbLine
 10
13.12457078427093
 20
-5.239746551990319
 30
0.0
 11
13.12457078427093
 21
15.75942501578116
 31
0.0
  0
LINE
  5
22D
330
1F
100
AcDbEntity
  8
0
100
AcDbLine
 10
13.12457078427093
 20
15.75942501578116
 30
0.0
 11
2.624985000385271
 21
15.75942501578116
 31
0.0
  0
LINE
  5
22E
330
1F
100
AcDbEntity
  8
0
100
AcDbLine
 10
2.624985000385271
 20
15.75942501578116
 30
0.0
 11
2.624985000385271
 21
10.50963212383474
 31
0.0
  0
LINE
  5
22F
330
1F
100
AcDbEntity
  8
0
100
AcDbLine
 10
2.624985000385271
 20
10.50963212383474
 30
0.0
 11
7.874777892328141
 21
10.50963212383474
 31
0.0
  0
LINE
  5
230
330
1F
100
AcDbEntity
  8
0
100
AcDbLine
 10
7.874777892328141
 20
26.25901079966697
 30
0.0
 11
7.874777892328141
 21
21.00921790772425
 31
0.0
  0
LINE
  5
231
330
1F
100
AcDbEntity
  8
0
100
AcDbLine
 10
7.874777892328141
 20
21.00921790772425
 30
0.0
 11
2.624985000385271
 21
21.00921790772425
 31
0.0
  0
LINE
  5
232
330
1F
100
AcDbEntity
  8
0
100
AcDbLine
 10
2.624985000385271
 20
21.00921790772425
 30
0.0
 11
2.624985000385271
 21
31.50880369160983
 31
0.0
  0
LINE
  5
233
330
1F
100
AcDbEntity
  8
0
100
AcDbLine
 10
18.37436367621328
 20
26.2590107996681
 30
0.0
 11
23.6241565681569
 21
26.25901079966697
 31
0.0
  0
LINE
  5
234
330
1F
100
AcDbEntity
  8
0
100
AcDbLine
 10
23.6241565681569
 20
26.25901079966697
 30
0.0
 11
23.62415656815638
 21
21.00921790772425
 31
0.0
  0
LINE
  5
235
330
1F
100
AcDbEntity
  8
0
100
AcDbLine
 10
23.62415656815638
 20
21.00921790772425
 30
0.0
 11
13.12457078427093
 21
21.00921790772425
 31
0.0
  0
LINE
  5
236
330
1F
100
AcDbEntity
  8
0
100
AcDbLine
 10
13.12457078427093
 20
21.00921790772425
 30
0.0
 11
13.12457078427093
 21
31.50880369160983
 31
0.0
  0
LINE
  5
237
330
1F
100
AcDbEntity
  8
0
100
AcDbLine
 10
49.87312102787074
 20
-73.48705414724762
 30
0.0
 11
49.87312102787074
 21
-62.98746836336176
 31
0.0
  0
LINE
  5
238
330
1F
100
AcDbEntity
  8
0
100
AcDbLine
 10
49.87312102787074
 20
-62.98746836336176
 30
0.0
 11
44.62332813592593
 21
-62.98746836336298
 31
0.0
  0
LINE
  5
239
330
1F
100
AcDbEntity
  8
0
100
AcDbLine
 10
44.62332813592593
 20
-62.98746836336298
 30
0.0
 11
44.62332813592847
 21
-68.23726125530472
 31
0.0
  0
LINE
  5
23A
330
1F
100
AcDbEntity
  8
0
100
AcDbLine
 10
39.37353524398537
 20
-62.98746836336176
 30
0.0
 11
28.87394946009984
 21
-62.98746836336176
 31
0.0
  0
LINE
  5
23B
330
1F
100
AcDbEntity
  8
0
100
AcDbLine
 10
28.87394946009984
 20
-62.98746836336176
 30
0.0
 11
28.87394946009984
 21
-68.23726125530828
 31
0.0
  0
LINE
  5
23C
330
1F
100
AcDbEntity
  8
0
100
AcDbLine
 10
28.87394946009984
 20
-68.23726125530828
 30
0.0
 11
34.12374235204265
 21
-68.23726125530828
 31
0.0
  0
LINE
  5
23D
330
1F
100
AcDbEntity
  8
0
100
AcDbLine
 10
34.12374235204265
 20
-52.48788257947607
 30
0.0
 11
34.12374235204265
 21
-57.737675471419
 31
0.0
  0
LINE
  5
23E
330
1F
100
AcDbEntity
  8
0
100
AcDbLine
 10
34.12374235204265
 20
-57.737675471419
 30
0.0
 11
28.87394946009984
 21
-57.737675471419
 31
0.0
  0
LINE
  5
23F
330
1F
100
AcDbEntity
  8
0
100
AcDbLine
 10
28.87394946009984
 20
-57.737675471419
 30
0.0
 11
28.87394946009984
 21
-47.23808968753316
 31
0.0
  0
LINE
  5
240
330
1F
100
AcDbEntity
  8
0
100
AcDbLine
 10
28.87394946009984
 20
-47.23808968753316
 30
0.0
 11
49.87312102787074
 21
-47.23808968753316
 31
0.0
  0
LINE
  5
241
330
1F
100
AcDbEntity
  8
0
100
AcDbLine
 10
49.87312102787074
 20
-47.23808968753316
 30
0.0
 11
49.87312102787074
 21
-36.73850390364751
 31
0.0
  0
LINE
  5
242
330
1F
100
AcDbEntity
  8
0
100
AcDbLine
 10
49.87312102787074
 20
-36.73850390364751
 30
0.0
 11
44.62332813592593
 21
-36.73850390364866
 31
0.0
  0
LINE
  5
243
330
1F
100
AcDbEntity
  8
0
100
AcDbLine
 10
44.62332813592593
 20
-36.73850390364866
 30
0.0
 11
44.62332813592847
 21
-41.98829679559031
 31
0.0
  0
LINE
  5
244
330
1F
100
AcDbEntity
  8
0
100
AcDbLine
 10
44.62332813592764
 20
-52.48788257947489
 30
0.0
 11
49.8731210278711
 21
-52.48788257947607
 31
0.0
  0
LINE
  5
245
330
1F
100
AcDbEntity
  8
0
100
AcDbLine
 10
49.8731210278711
 20
-52.48788257947607
 30
0.0
 11
49.87312102787074
 21
-57.737675471419
 31
0.0
  0
LINE
  5
246
330
1F
100
AcDbEntity
  8
0
100
AcDbLine
 10
49.87312102787074
 20
-57.737675471419
 30
0.0
 11
39.37353524398537
 21
-57.737675471419
 31
0.0
  0
LINE
  5
247
330
1F
100
AcDbEntity
  8
0
100
AcDbLine
 10
39.37353524398537
 20
-57.737675471419
 30
0.0
 11
39.37353524398537
 21
-36.73850390364751
 31
0.0
  0
LINE
  5
248
330
1F
100
AcDbEntity
  8
0
100
AcDbLine
 10
39.37353524398537
 20
-36.73850390364751
 30
0.0
 11
28.87394946009984
 21
-36.73850390364751
 31
0.0
  0
LINE
  5
249
330
1F
100
AcDbEntity
  8
0
100
AcDbLine
 10
28.87394946009984
 20
-36.73850390364751
 30
0.0
 11
28.87394946009984
 21
-41.988296795594
 31
0.0
  0
LINE
  5
24A
330
1F
100
AcDbEntity
  8
0
100
AcDbLine
 10
28.87394946009984
 20
-41.988296795594
 30
0.0
 11
34.12374235204265
 21
-41.988296795594
 31
0.0
  0
LINE
  5
24B
330
1F
100
AcDbEntity
  8
0
100
AcDbLine
 10
34.12374235204265
 20
-26.23891811976175
 30
0.0
 11
34.12374235204265
 21
-31.48871101170457
 31
0.0
  0
LINE
  5
24C
330
1F
100
AcDbEntity
  8
0
100
AcDbLine
 10
34.12374235204265
 20
-31.48871101170457
 30
0.0
 11
28.87394946009984
 21
-31.48871101170457
 31
0.0
  0
LINE
  5
24D
330
1F
100
AcDbEntity
  8
0
100
AcDbLine
 10
28.87394946009984
 20
-31.48871101170457
 30
0.0
 11
28.87394946009984
 21
-20.98912522781894
 31
0.0
  0
LINE
  5
24E
330
1F
100
AcDbEntity
  8
0
100
AcDbLine
 10
28.87394946009984
 20
-20.98912522781894
 30
0.0
 11
49.87312102787074
 21
-20.98912522781894
 31
0.0
  0
LINE
  5
24F
330
1F
100
AcDbEntity
  8
0
100
AcDbLine
 10
49.87312102787074
 20
-20.98912522781894
 30
0.0
 11
49.87312102787074
 21
-10.48953944393313
 31
0.0
  0
LINE
  5
250
330
1F
100
AcDbEntity
  8
0
100
AcDbLine
 10
49.87312102787074
 20
-10.48953944393313
 30
0.0
 11
44.62332813592593
 21
-10.48953944393426
 31
0.0
  0
LINE
  5
251
330
1F
100
AcDbEntity
  8
0
100
AcDbLine
 10
44.62332813592593
 20
-10.48953944393426
 30
0.0
 11
44.62332813592847
 21
-15.73933233587601
 31
0.0
  0
LINE
  5
252
330
1F
100
AcDbEntity
  8
0
100
AcDbLine
 10
44.62332813592764
 20
-26.23891811976058
 30
0.0
 11
49.8731210278711
 21
-26.23891811976175
 31
0.0
  0
LINE
  5
253
330
1F
100
AcDbEntity
  8
0
100
AcDbLine
 10
49.8731210278711
 20
-26.23891811976175
 30
0.0
 11
49.87312102787074
 21
-31.48871101170457
 31
0.0
  0
LINE
  5
254
330
1F
100
AcDbEntity
  8
0
100
AcDbLine
 10
49.87312102787074
 20
-31.48871101170457
 30
0.0
 11
39.37353524398537
 21
-31.48871101170457
 31
0.0
  0
LINE
  5
255
330
1F
100
AcDbEntity
  8
0
100
AcDbLine
 10
39.37353524398537
 20
-31.48871101170457
 30
0.0
 11
39.37353524398537
 21
-10.48953944393313
 31
0.0
  0
LINE
  5
256
330
1F
100
AcDbEntity
  8
0
100
AcDbLine
 10
39.37353524398537
 20
-10.48953944393313
 30
0.0
 11
28.87394946009984
 21
-10.48953944393313
 31
0.0
  0
LINE
  5
257
330
1F
100
AcDbEntity
  8
0
100
AcDbLine
 10
28.87394946009984
 20
-10.48953944393313
 30
0.0
 11
28.87394946009984
 21
-15.73933233587971
 31
0.0
  0
LINE
  5
258
330
1F
100
AcDbEntity
  8
0
100
AcDbLine
 10
28.87394946009984
 20
-15.73933233587971
 30
0.0
 11
34.12374235204265
 21
-15.73933233587971
 31
0.0
  0
LINE
  5
259
330
1F
100
AcDbEntity
  8
0
100
AcDbLine
 10
34.12374235204265
 20
0.0100463399525395
 30
0.0
 11
34.12374235204265
 21
-5.239746551990319
 31
0.0
  0
LINE
  5
25A
330
1F
100
AcDbEntity
  8
0
100
AcDbLine
 10
34.12374235204265
 20
-5.239746551990319
 30
0.0
 11
28.87394946009984
 21
-5.239746551990319
 31
0.0
  0
LINE
  5
25B
330
1F
100
AcDbEntity
  8
0
100
AcDbLine
 10
28.87394946009984
 20
-5.239746551990319
 30
0.0
 11
28.87394946009984
 21
5.259839231895668
 31
0.0
  0
LINE
  5
25C
330
1F
100
AcDbEntity
  8
0
100
AcDbLine
 10
28.87394946009984
 20
5.259839231895668
 30
0.0
 11
49.87312102787074
 21
5.259839231895668
 31
0.0
  0
LINE
  5
25D
330
1F
100
AcDbEntity
  8
0
100
AcDbLine
 10
49.87312102787074
 20
5.259839231895668
 30
0.0
 11
49.87312102787074
 21
15.75942501578116
 31
0.0
  0
LINE
  5
25E
330
1F
100
AcDbEntity
  8
0
100
AcDbLine
 10
49.87312102787074
 20
15.75942501578116
 30
0.0
 11
44.62332813592593
 21
15.75942501577999
 31
0.0
  0
LINE
  5
25F
330
1F
100
AcDbEntity
  8
0
100
AcDbLine
 10
44.62332813592593
 20
15.75942501577999
 30
0.0
 11
44.62332813592847
 21
10.50963212383839
 31
0.0
  0
LINE
  5
260
330
1F
100
AcDbEntity
  8
0
100
AcDbLine
 10
44.62332813592764
 20
0.0100463399538029
 30
0.0
 11
49.8731210278711
 21
0.0100463399525395
 31
0.0
  0
LINE
  5
261
330
1F
100
AcDbEntity
  8
0
100
AcDbLine
 10
49.8731210278711
 20
0.0100463399525395
 30
0.0
 11
49.87312102787074
 21
-5.239746551990319
 31
0.0
  0
LINE
  5
262
330
1F
100
AcDbEntity
  8
0
100
AcDbLine
 10
49.87312102787074
 20
-5.239746551990319
 30
0.0
 11
39.37353524398537
 21
-5.239746551990319
 31
0.0
  0
LINE
  5
263
330
1F
100
AcDbEntity
  8
0
100
AcDbLine
 10
39.37353524398537
 20
-5.239746551990319
 30
0.0
 11
39.37353524398537
 21
15.75942501578116
 31
0.0
  0
LINE
  5
264
330
1F
100
AcDbEntity
  8
0
100
AcDbLine
 10
39.37353524398537
 20
15.75942501578116
 30
0.0
 11
28.87394946009984
 21
15.75942501578116
 31
0.0
  0
LINE
  5
265
330
1F
100
AcDbEntity
  8
0
100
AcDbLine
 10
28.87394946009984
 20
15.75942501578116
 30
0.0
 11
28.87394946009984
 21
10.50963212383474
 31
0.0
  0
LINE
  5
266
330
1F
100
AcDbEntity
  8
0
100
AcDbLine
 10
28.87394946009984
 20
10.50963212383474
 30
0.0
 11
34.12374235204265
 21
10.50963212383474
 31
0.0
  0
LINE
  5
267
330
1F
100
AcDbEntity
  8
0
100
AcDbLine
 10
34.12374235204265
 20
26.25901079966697
 30
0.0
 11
34.12374235204265
 21
21.00921790772425
 31
0.0
  0
LINE
  5
268
330
1F
100
AcDbEntity
  8
0
100
AcDbLine
 10
34.12374235204265
 20
21.00921790772425
 30
0.0
 11
28.87394946009984
 21
21.00921790772425
 31
0.0
  0
LINE
  5
269
330
1F
100
AcDbEntity
  8
0
100
AcDbLine
 10
28.87394946009984
 20
21.00921790772425
 30
0.0
 11
28.87394946009984
 21
31.50880369160983
 31
0.0
  0
LINE
  5
26A
330
1F
100
AcDbEntity
  8
0
100
AcDbLine
 10
44.62332813592764
 20
26.2590107996681
 30
0.0
 11
49.8731210278711
 21
26.25901079966697
 31
0.0
  0
LINE
  5
26B
330
1F
100
AcDbEntity
  8
0
100
AcDbLine
 10
49.8731210278711
 20
26.25901079966697
 30
0.0
 11
49.87312102787074
 21
21.00921790772425
 31
0.0
  0
LINE
  5
26C
330
1F
100
AcDbEntity
  8
0
100
AcDbLine
 10
49.87312102787074
 20
21.00921790772425
 30
0.0
 11
39.37353524398537
 21
21.00921790772425
 31
0.0
  0
LINE
  5
26D
330
1F
100
AcDbEntity
  8
0
100
AcDbLine
 10
39.37353524398537
 20
21.00921790772425
 30
0.0
 11
39.37353524398537
 21
31.50880369160983
 31
0.0
  0
LINE
  5
26E
330
1F
100
AcDbEntity
  8
0
100
AcDbLine
 10
-52.49784036501548
 20
-60.36257191739038
 30
0.0
 11
-41.99825458112891
 21
-60.36257191739038
 31
0.0
  0
LINE
  5
26F
330
1F
100
AcDbEntity
  8
0
100
AcDbLine
 10
-41.99825458112891
 20
-60.36257191739038
 30
0.0
 11
-41.99825458112974
 21
-49.86298613350466
 31
0.0
  0
LINE
  5
270
330
1F
100
AcDbEntity
  8
0
100
AcDbLine
 10
-41.99825458112974
 20
-49.86298613350466
 30
0.0
 11
-47.24804747307216
 21
-49.86298613350466
 31
0.0
  0
LINE
  5
271
330
1F
100
AcDbEntity
  8
0
100
AcDbLine
 10
-47.24804747307216
 20
-49.86298613350466
 30
0.0
 11
-47.24804747307216
 21
-55.11277902544749
 31
0.0
  0
LINE
  5
272
330
1F
100
AcDbEntity
  8
0
100
AcDbLine
 10
-47.24804747307216
 20
-65.6123648093321
 30
0.0
 11
-41.99825458112974
 21
-65.6123648093321
 31
0.0
  0
LINE
  5
273
330
1F
100
AcDbEntity
  8
0
100
AcDbLine
 10
-41.99825458112974
 20
-65.6123648093321
 30
0.0
 11
-41.99825458112891
 21
-70.86215770127609
 31
0.0
  0
LINE
  5
274
330
1F
100
AcDbEntity
  8
0
100
AcDbLine
 10
-41.99825458112891
 20
-70.86215770127609
 30
0.0
 11
-52.4978403650148
 21
-70.86215770127609
 31
0.0
  0
LINE
  5
275
330
1F
100
AcDbEntity
  8
0
100
AcDbLine
 10
-52.49784036501548
 20
-34.11360745767604
 30
0.0
 11
-41.99825458112891
 21
-34.11360745767604
 31
0.0
  0
LINE
  5
276
330
1F
100
AcDbEntity
  8
0
100
AcDbLine
 10
-41.99825458112891
 20
-34.11360745767604
 30
0.0
 11
-41.99825458112974
 21
-23.61402167379028
 31
0.0
  0
LINE
  5
277
330
1F
100
AcDbEntity
  8
0
100
AcDbLine
 10
-41.99825458112974
 20
-23.61402167379028
 30
0.0
 11
-47.24804747307216
 21
-23.61402167379028
 31
0.0
  0
LINE
  5
278
330
1F
100
AcDbEntity
  8
0
100
AcDbLine
 10
-47.24804747307216
 20
-23.61402167379028
 30
0.0
 11
-47.24804747307216
 21
-28.86381456573312
 31
0.0
  0
LINE
  5
279
330
1F
100
AcDbEntity
  8
0
100
AcDbLine
 10
-47.24804747307216
 20
-39.36340034961757
 30
0.0
 11
-41.99825458112974
 21
-39.36340034961757
 31
0.0
  0
LINE
  5
27A
330
1F
100
AcDbEntity
  8
0
100
AcDbLine
 10
-41.99825458112974
 20
-39.36340034961757
 30
0.0
 11
-41.99825458112891
 21
-44.6131932415618
 31
0.0
  0
LINE
  5
27B
330
1F
100
AcDbEntity
  8
0
100
AcDbLine
 10
-41.99825458112891
 20
-44.6131932415618
 30
0.0
 11
-52.4978403650148
 21
-44.6131932415618
 31
0.0
  0
LINE
  5
27C
330
1F
100
AcDbEntity
  8
0
100
AcDbLine
 10
-52.49784036501548
 20
-7.864642997961613
 30
0.0
 11
-41.99825458112891
 21
-7.864642997961613
 31
0.0
  0
LINE
  5
27D
330
1F
100
AcDbEntity
  8
0
100
AcDbLine
 10
-41.99825458112891
 20
-7.864642997961613
 30
0.0
 11
-41.99825458112974
 21
2.634942785923969
 31
0.0
  0
LINE
  5
27E
330
1F
100
AcDbEntity
  8
0
100
AcDbLine
 10
-41.99825458112974
 20
2.634942785923969
 30
0.0
 11
-47.24804747307216
 21
2.634942785923969
 31
0.0
  0
LINE
  5
27F
330
1F
100
AcDbEntity
  8
0
100
AcDbLine
 10
-47.24804747307216
 20
2.634942785923969
 30
0.0
 11
-47.24804747307216
 21
-2.6148501060188
 31
0.0
  0
LINE
  5
280
330
1F
100
AcDbEntity
  8
0
100
AcDbLine
 10
-47.24804747307216
 20
-13.11443588990343
 30
0.0
 11
-41.99825458112974
 21
-13.11443588990343
 31
0.0
  0
LINE
  5
281
330
1F
100
AcDbEntity
  8
0
100
AcDbLine
 10
-41.99825458112974
 20
-13.11443588990343
 30
0.0
 11
-41.99825458112891
 21
-18.36422878184747
 31
0.0
  0
LINE
  5
282
330
1F
100
AcDbEntity
  8
0
100
AcDbLine
 10
-41.99825458112891
 20
-18.36422878184747
 30
0.0
 11
-52.4978403650148
 21
-18.36422878184747
 31
0.0
  0
LINE
  5
283
330
1F
100
AcDbEntity
  8
0
100
AcDbLine
 10
-52.49784036501548
 20
18.38432146175273
 30
0.0
 11
-41.99825458112891
 21
18.38432146175273
 31
0.0
  0
LINE
  5
284
330
1F
100
AcDbEntity
  8
0
100
AcDbLine
 10
-41.99825458112891
 20
18.38432146175273
 30
0.0
 11
-41.99825458112974
 21
28.8839072456384
 31
0.0
  0
LINE
  5
285
330
1F
100
AcDbEntity
  8
0
100
AcDbLine
 10
-41.99825458112974
 20
28.8839072456384
 30
0.0
 11
-47.24804747307216
 21
28.8839072456384
 31
0.0
  0
LINE
  5
286
330
1F
100
AcDbEntity
  8
0
100
AcDbLine
 10
-47.24804747307216
 20
28.8839072456384
 30
0.0
 11
-47.24804747307216
 21
23.63411435369554
 31
0.0
  0
LINE
  5
287
330
1F
100
AcDbEntity
  8
0
100
AcDbLine
 10
-47.24804747307216
 20
13.13452856981099
 30
0.0
 11
-41.99825458112974
 21
13.13452856981099
 31
0.0
  0
LINE
  5
288
330
1F
100
AcDbEntity
  8
0
100
AcDbLine
 10
-41.99825458112974
 20
13.13452856981099
 30
0.0
 11
-41.99825458112891
 21
7.884735677867008
 31
0.0
  0
LINE
  5
289
330
1F
100
AcDbEntity
  8
0
100
AcDbLine
 10
-41.99825458112891
 20
7.884735677867008
 30
0.0
 11
-52.4978403650148
 21
7.884735677867008
 31
0.0
  0
LINE
  5
28A
330
1F
100
AcDbEntity
  8
0
100
AcDbLine
 10
-31.49866879724339
 20
-65.61236480933329
 30
0.0
 11
-31.49866879724138
 21
-70.86215770127609
 31
0.0
  0
LINE
  5
28B
330
1F
100
AcDbEntity
  8
0
100
AcDbLine
 10
-31.49866879724138
 20
-70.86215770127609
 30
0.0
 11
-36.74846168918455
 21
-70.86215770127609
 31
0.0
  0
LINE
  5
28C
330
1F
100
AcDbEntity
  8
0
100
AcDbLine
 10
-36.74846168918455
 20
-70.86215770127609
 30
0.0
 11
-36.74846168918627
 21
-60.36257191739038
 31
0.0
  0
LINE
  5
28D
330
1F
100
AcDbEntity
  8
0
100
AcDbLine
 10
-36.74846168918627
 20
-60.36257191739038
 30
0.0
 11
-15.74929012141463
 21
-60.36257191739038
 31
0.0
  0
LINE
  5
28E
330
1F
100
AcDbEntity
  8
0
100
AcDbLine
 10
-15.74929012141463
 20
-60.36257191739038
 30
0.0
 11
-15.74929012141523
 21
-49.86298613350466
 31
0.0
  0
LINE
  5
28F
330
1F
100
AcDbEntity
  8
0
100
AcDbLine
 10
-15.74929012141523
 20
-49.86298613350466
 30
0.0
 11
-20.9990830133581
 21
-49.86298613350466
 31
0.0
  0
LINE
  5
290
330
1F
100
AcDbEntity
  8
0
100
AcDbLine
 10
-20.9990830133581
 20
-49.86298613350466
 30
0.0
 11
-20.9990830133581
 21
-55.11277902544749
 31
0.0
  0
LINE
  5
291
330
1F
100
AcDbEntity
  8
0
100
AcDbLine
 10
-20.9990830133581
 20
-65.6123648093321
 30
0.0
 11
-15.74929012141523
 21
-65.6123648093321
 31
0.0
  0
LINE
  5
292
330
1F
100
AcDbEntity
  8
0
100
AcDbLine
 10
-15.74929012141523
 20
-65.6123648093321
 30
0.0
 11
-15.74929012141463
 21
-70.86215770127609
 31
0.0
  0
LINE
  5
293
330
1F
100
AcDbEntity
  8
0
100
AcDbLine
 10
-15.74929012141463
 20
-70.86215770127609
 30
0.0
 11
-26.24887590530045
 21
-70.86215770127609
 31
0.0
  0
LINE
  5
294
330
1F
100
AcDbEntity
  8
0
100
AcDbLine
 10
-26.24887590530045
 20
-70.86215770127609
 30
0.0
 11
-26.24887590530045
 21
-49.86298613350466
 31
0.0
  0
LINE
  5
295
330
1F
100
AcDbEntity
  8
0
100
AcDbLine
 10
-26.24887590530045
 20
-49.86298613350466
 30
0.0
 11
-36.74846168918627
 21
-49.86298613350466
 31
0.0
  0
LINE
  5
296
330
1F
100
AcDbEntity
  8
0
100
AcDbLine
 10
-36.74846168918627
 20
-49.86298613350466
 30
0.0
 11
-36.74846168918627
 21
-55.1127790254512
 31
0.0
  0
LINE
  5
297
330
1F
100
AcDbEntity
  8
0
100
AcDbLine
 10
-36.74846168918627
 20
-55.1127790254512
 30
0.0
 11
-31.49866879724339
 21
-55.1127790254512
 31
0.0
  0
LINE
  5
298
330
1F
100
AcDbEntity
  8
0
100
AcDbLine
 10
-31.49866879724339
 20
-39.36340034961888
 30
0.0
 11
-31.49866879724138
 21
-44.6131932415618
 31
0.0
  0
LINE
  5
299
330
1F
100
AcDbEntity
  8
0
100
AcDbLine
 10
-31.49866879724138
 20
-44.6131932415618
 30
0.0
 11
-36.74846168918455
 21
-44.6131932415618
 31
0.0
  0
LINE
  5
29A
330
1F
100
AcDbEntity
  8
0
100
AcDbLine
 10
-36.74846168918455
 20
-44.6131932415618
 30
0.0
 11
-36.74846168918627
 21
-34.11360745767604
 31
0.0
  0
LINE
  5
29B
330
1F
100
AcDbEntity
  8
0
100
AcDbLine
 10
-36.74846168918627
 20
-34.11360745767604
 30
0.0
 11
-15.74929012141463
 21
-34.11360745767604
 31
0.0
  0
LINE
  5
29C
330
1F
100
AcDbEntity
  8
0
100
AcDbLine
 10
-15.74929012141463
 20
-34.11360745767604
 30
0.0
 11
-15.74929012141523
 21
-23.61402167379028
 31
0.0
  0
LINE
  5
29D
330
1F
100
AcDbEntity
  8
0
100
AcDbLine
 10
-15.74929012141523
 20
-23.61402167379028
 30
0.0
 11
-20.9990830133581
 21
-23.61402167379028
 31
0.0
  0
LINE
  5
29E
330
1F
100
AcDbEntity
  8
0
100
AcDbLine
 10
-20.9990830133581
 20
-23.61402167379028
 30
0.0
 11
-20.9990830133581
 21
-28.86381456573312
 31
0.0
  0
LINE
  5
29F
330
1F
100
AcDbEntity
  8
0
100
AcDbLine
 10
-20.9990830133581
 20
-39.36340034961757
 30
0.0
 11
-15.74929012141523
 21
-39.36340034961757
 31
0.0
  0
LINE
  5
2A0
330
1F
100
AcDbEntity
  8
0
100
AcDbLine
 10
-15.74929012141523
 20
-39.36340034961757
 30
0.0
 11
-15.74929012141463
 21
-44.6131932415618
 31
0.0
  0
LINE
  5
2A1
330
1F
100
AcDbEntity
  8
0
100
AcDbLine
 10
-15.74929012141463
 20
-44.6131932415618
 30
0.0
 11
-26.24887590530045
 21
-44.6131932415618
 31
0.0
  0
LINE
  5
2A2
330
1F
100
AcDbEntity
  8
0
100
AcDbLine
 10
-26.24887590530045
 20
-44.6131932415618
 30
0.0
 11
-26.24887590530045
 21
-23.61402167379028
 31
0.0
  0
LINE
  5
2A3
330
1F
100
AcDbEntity
  8
0
100
AcDbLine
 10
-26.24887590530045
 20
-23.61402167379028
 30
0.0
 11
-36.74846168918627
 21
-23.61402167379028
 31
0.0
  0
LINE
  5
2A4
330
1F
100
AcDbEntity
  8
0
100
AcDbLine
 10
-36.74846168918627
 20
-23.61402167379028
 30
0.0
 11
-36.74846168918627
 21
-28.86381456573688
 31
0.0
  0
LINE
  5
2A5
330
1F
100
AcDbEntity
  8
0
100
AcDbLine
 10
-36.74846168918627
 20
-28.86381456573688
 30
0.0
 11
-31.49866879724339
 21
-28.86381456573688
 31
0.0
  0
LINE
  5
2A6
330
1F
100
AcDbEntity
  8
0
100
AcDbLine
 10
-31.49866879724339
 20
-13.11443588990461
 30
0.0
 11
-31.49866879724138
 21
-18.36422878184747
 31
0.0
  0
LINE
  5
2A7
330
1F
100
AcDbEntity
  8
0
100
AcDbLine
 10
-31.49866879724138
 20
-18.36422878184747
 30
0.0
 11
-36.74846168918455
 21
-18.36422878184747
 31
0.0
  0
LINE
  5
2A8
330
1F
100
AcDbEntity
  8
0
100
AcDbLine
 10
-36.74846168918455
 20
-18.36422878184747
 30
0.0
 11
-36.74846168918627
 21
-7.864642997961613
 31
0.0
  0
LINE
  5
2A9
330
1F
100
AcDbEntity
  8
0
100
AcDbLine
 10
-36.74846168918627
 20
-7.864642997961613
 30
0.0
 11
-15.74929012141463
 21
-7.864642997961613
 31
0.0
  0
LINE
  5
2AA
330
1F
100
AcDbEntity
  8
0
100
AcDbLine
 10
-15.74929012141463
 20
-7.864642997961613
 30
0.0
 11
-15.74929012141523
 21
2.634942785923969
 31
0.0
  0
LINE
  5
2AB
330
1F
100
AcDbEntity
  8
0
100
AcDbLine
 10
-15.74929012141523
 20
2.634942785923969
 30
0.0
 11
-20.9990830133581
 21
2.634942785923969
 31
0.0
  0
LINE
  5
2AC
330
1F
100
AcDbEntity
  8
0
100
AcDbLine
 10
-20.9990830133581
 20
2.634942785923969
 30
0.0
 11
-20.9990830133581
 21
-2.6148501060188
 31
0.0
  0
LINE
  5
2AD
330
1F
100
AcDbEntity
  8
0
100
AcDbLine
 10
-20.9990830133581
 20
-13.11443588990343
 30
0.0
 11
-15.74929012141523
 21
-13.11443588990343
 31
0.0
  0
LINE
  5
2AE
330
1F
100
AcDbEntity
  8
0
100
AcDbLine
 10
-15.74929012141523
 20
-13.11443588990343
 30
0.0
 11
-15.74929012141463
 21
-18.36422878184747
 31
0.0
  0
LINE
  5
2AF
330
1F
100
AcDbEntity
  8
0
100
AcDbLine
 10
-15.74929012141463
 20
-18.36422878184747
 30
0.0
 11
-26.24887590530045
 21
-18.36422878184747
 31
0.0
  0
LINE
  5
2B0
330
1F
100
AcDbEntity
  8
0
100
AcDbLine
 10
-26.24887590530045
 20
-18.36422878184747
 30
0.0
 11
-26.24887590530045
 21
2.634942785923969
 31
0.0
  0
LINE
  5
2B1
330
1F
100
AcDbEntity
  8
0
100
AcDbLine
 10
-26.24887590530045
 20
2.634942785923969
 30
0.0
 11
-36.74846168918627
 21
2.634942785923969
 31
0.0
  0
LINE
  5
2B2
330
1F
100
AcDbEntity
  8
0
100
AcDbLine
 10
-36.74846168918627
 20
2.634942785923969
 30
0.0
 11
-36.74846168918627
 21
-2.614850106022409
 31
0.0
  0
LINE
  5
2B3
330
1F
100
AcDbEntity
  8
0
100
AcDbLine
 10
-36.74846168918627
 20
-2.614850106022409
 30
0.0
 11
-31.49866879724339
 21
-2.614850106022409
 31
0.0
  0
LINE
  5
2B4
330
1F
100
AcDbEntity
  8
0
100
AcDbLine
 10
-31.49866879724339
 20
13.13452856980973
 30
0.0
 11
-31.49866879724138
 21
7.884735677867008
 31
0.0
  0
LINE
  5
2B5
330
1F
100
AcDbEntity
  8
0
100
AcDbLine
 10
-31.49866879724138
 20
7.884735677867008
 30
0.0
 11
-36.74846168918455
 21
7.884735677867008
 31
0.0
  0
LINE
  5
2B6
330
1F
100
AcDbEntity
  8
0
100
AcDbLine
 10
-36.74846168918455
 20
7.884735677867008
 30
0.0
 11
-36.74846168918627
 21
18.38432146175273
 31
0.0
  0
LINE
  5
2B7
330
1F
100
AcDbEntity
  8
0
100
AcDbLine
 10
-36.74846168918627
 20
18.38432146175273
 30
0.0
 11
-15.74929012141463
 21
18.38432146175273
 31
0.0
  0
LINE
  5
2B8
330
1F
100
AcDbEntity
  8
0
100
AcDbLine
 10
-15.74929012141463
 20
18.38432146175273
 30
0.0
 11
-15.74929012141523
 21
28.8839072456384
 31
0.0
  0
LINE
  5
2B9
330
1F
100
AcDbEntity
  8
0
100
AcDbLine
 10
-15.74929012141523
 20
28.8839072456384
 30
0.0
 11
-20.9990830133581
 21
28.8839072456384
 31
0.0
  0
LINE
  5
2BA
330
1F
100
AcDbEntity
  8
0
100
AcDbLine
 10
-20.9990830133581
 20
28.8839072456384
 30
0.0
 11
-20.9990830133581
 21
23.63411435369554
 31
0.0
  0
LINE
  5
2BB
330
1F
100
AcDbEntity
  8
0
100
AcDbLine
 10
-20.9990830133581
 20
13.13452856981099
 30
0.0
 11
-15.74929012141523
 21
13.13452856981099
 31
0.0
  0
LINE
  5
2BC
330
1F
100
AcDbEntity
  8
0
100
AcDbLine
 10
-15.74929012141523
 20
13.13452856981099
 30
0.0
 11
-15.74929012141463
 21
7.884735677867008
 31
0.0
  0
LINE
  5
2BD
330
1F
100
AcDbEntity
  8
0
100
AcDbLine
 10
-15.74929012141463
 20
7.884735677867008
 30
0.0
 11
-26.24887590530045
 21
7.884735677867008
 31
0.0
  0
LINE
  5
2BE
330
1F
100
AcDbEntity
  8
0
100
AcDbLine
 10
-26.24887590530045
 20
7.884735677867008
 30
0.0
 11
-26.24887590530045
 21
28.8839072456384
 31
0.0
  0
LINE
  5
2BF
330
1F
100
AcDbEntity
  8
0
100
AcDbLine
 10
-26.24887590530045
 20
28.8839072456384
 30
0.0
 11
-36.74846168918627
 21
28.8839072456384
 31
0.0
  0
LINE
  5
2C0
330
1F
100
AcDbEntity
  8
0
100
AcDbLine
 10
-36.74846168918627
 20
28.8839072456384
 30
0.0
 11
-36.74846168918627
 21
23.63411435369202
 31
0.0
  0
LINE
  5
2C1
330
1F
100
AcDbEntity
  8
0
100
AcDbLine
 10
-36.74846168918627
 20
23.63411435369202
 30
0.0
 11
-31.49866879724339
 21
23.63411435369202
 31
0.0
  0
LINE
  5
2C2
330
1F
100
AcDbEntity
  8
0
100
AcDbLine
 10
-5.249704337528813
 20
-65.61236480933329
 30
0.0
 11
-5.249704337527025
 21
-70.86215770127609
 31
0.0
  0
LINE
  5
2C3
330
1F
100
AcDbEntity
  8
0
100
AcDbLine
 10
-5.249704337527025
 20
-70.86215770127609
 30
0.0
 11
-10.49949722947004
 21
-70.86215770127609
 31
0.0
  0
LINE
  5
2C4
330
1F
100
AcDbEntity
  8
0
100
AcDbLine
 10
-10.49949722947004
 20
-70.86215770127609
 30
0.0
 11
-10.49949722947176
 21
-60.36257191739038
 31
0.0
  0
LINE
  5
2C5
330
1F
100
AcDbEntity
  8
0
100
AcDbLine
 10
-10.49949722947176
 20
-60.36257191739038
 30
0.0
 11
10.4996743382995
 21
-60.36257191739038
 31
0.0
  0
LINE
  5
2C6
330
1F
100
AcDbEntity
  8
0
100
AcDbLine
 10
10.4996743382995
 20
-60.36257191739038
 30
0.0
 11
10.49967433829905
 21
-49.86298613350466
 31
0.0
  0
LINE
  5
2C7
330
1F
100
AcDbEntity
  8
0
100
AcDbLine
 10
10.49967433829905
 20
-49.86298613350466
 30
0.0
 11
5.249881446356182
 21
-49.86298613350466
 31
0.0
  0
LINE
  5
2C8
330
1F
100
AcDbEntity
  8
0
100
AcDbLine
 10
5.249881446356182
 20
-49.86298613350466
 30
0.0
 11
5.249881446356182
 21
-55.11277902544749
 31
0.0
  0
LINE
  5
2C9
330
1F
100
AcDbEntity
  8
0
100
AcDbLine
 10
5.249881446356182
 20
-65.6123648093321
 30
0.0
 11
10.49967433829905
 21
-65.6123648093321
 31
0.0
  0
LINE
  5
2CA
330
1F
100
AcDbEntity
  8
0
100
AcDbLine
 10
10.49967433829905
 20
-65.6123648093321
 30
0.0
 11
10.4996743382995
 21
-70.86215770127609
 31
0.0
  0
LINE
  5
2CB
330
1F
100
AcDbEntity
  8
0
100
AcDbLine
 10
10.4996743382995
 20
-70.86215770127609
 30
0.0
 11
0.0000885544140562
 21
-70.86215770127609
 31
0.0
  0
LINE
  5
2CC
330
1F
100
AcDbEntity
  8
0
100
AcDbLine
 10
0.0000885544140562
 20
-70.86215770127609
 30
0.0
 11
0.0000885544140562
 21
-49.86298613350466
 31
0.0
  0
LINE
  5
2CD
330
1F
100
AcDbEntity
  8
0
100
AcDbLine
 10
0.0000885544140562
 20
-49.86298613350466
 30
0.0
 11
-10.49949722947176
 21
-49.86298613350466
 31
0.0
  0
LINE
  5
2CE
330
1F
100
AcDbEntity
  8
0
100
AcDbLine
 10
-10.49949722947176
 20
-49.86298613350466
 30
0.0
 11
-10.49949722947176
 21
-55.1127790254512
 31
0.0
  0
LINE
  5
2CF
330
1F
100
AcDbEntity
  8
0
100
AcDbLine
 10
-10.49949722947176
 20
-55.1127790254512
 30
0.0
 11
-5.249704337528813
 21
-55.1127790254512
 31
0.0
  0
LINE
  5
2D0
330
1F
100
AcDbEntity
  8
0
100
AcDbLine
 10
-5.249704337528813
 20
-39.36340034961888
 30
0.0
 11
-5.249704337527025
 21
-44.6131932415618
 31
0.0
  0
LINE
  5
2D1
330
1F
100
AcDbEntity
  8
0
100
AcDbLine
 10
-5.249704337527025
 20
-44.6131932415618
 30
0.0
 11
-10.49949722947004
 21
-44.6131932415618
 31
0.0
  0
LINE
  5
2D2
330
1F
100
AcDbEntity
  8
0
100
AcDbLine
 10
-10.49949722947004
 20
-44.6131932415618
 30
0.0
 11
-10.49949722947176
 21
-34.11360745767604
 31
0.0
  0
LINE
  5
2D3
330
1F
100
AcDbEntity
  8
0
100
AcDbLine
 10
-10.49949722947176
 20
-34.11360745767604
 30
0.0
 11
10.4996743382995
 21
-34.11360745767604
 31
0.0
  0
LINE
  5
2D4
330
1F
100
AcDbEntity
  8
0
100
AcDbLine
 10
10.4996743382995
 20
-34.11360745767604
 30
0.0
 11
10.49967433829905
 21
-23.61402167379028
 31
0.0
  0
LINE
  5
2D5
330
1F
100
AcDbEntity
  8
0
100
AcDbLine
 10
10.49967433829905
 20
-23.61402167379028
 30
0.0
 11
5.249881446356182
 21
-23.61402167379028
 31
0.0
  0
LINE
  5
2D6
330
1F
100
AcDbEntity
  8
0
100
AcDbLine
 10
5.249881446356182
 20
-23.61402167379028
 30
0.0
 11
5.249881446356182
 21
-28.86381456573312
 31
0.0
  0
LINE
  5
2D7
330
1F
100
AcDbEntity
  8
0
100
AcDbLine
 10
5.249881446356182
 20
-39.36340034961757
 30
0.0
 11
10.49967433829905
 21
-39.36340034961757
 31
0.0
  0
LINE
  5
2D8
330
1F
100
AcDbEntity
  8
0
100
AcDbLine
 10
10.49967433829905
 20
-39.36340034961757
 30
0.0
 11
10.4996743382995
 21
-44.6131932415618
 31
0.0
  0
LINE
  5
2D9
330
1F
100
AcDbEntity
  8
0
100
AcDbLine
 10
10.4996743382995
 20
-44.6131932415618
 30
0.0
 11
0.0000885544140562
 21
-44.6131932415618
 31
0.0
  0
LINE
  5
2DA
330
1F
100
AcDbEntity
  8
0
100
AcDbLine
 10
0.0000885544140562
 20
-44.6131932415618
 30
0.0
 11
0.0000885544140562
 21
-23.61402167379028
 31
0.0
  0
LINE
  5
2DB
330
1F
100
AcDbEntity
  8
0
100
AcDbLine
 10
0.0000885544140562
 20
-23.61402167379028
 30
0.0
 11
-10.49949722947176
 21
-23.61402167379028
 31
0.0
  0
LINE
  5
2DC
330
1F
100
AcDbEntity
  8
0
100
AcDbLine
 10
-10.49949722947176
 20
-23.61402167379028
 30
0.0
 11
-10.49949722947176
 21
-28.86381456573688
 31
0.0
  0
LINE
  5
2DD
330
1F
100
AcDbEntity
  8
0
100
AcDbLine
 10
-10.49949722947176
 20
-28.86381456573688
 30
0.0
 11
-5.249704337528813
 21
-28.86381456573688
 31
0.0
  0
LINE
  5
2DE
330
1F
100
AcDbEntity
  8
0
100
AcDbLine
 10
-5.249704337528813
 20
-13.11443588990461
 30
0.0
 11
-5.249704337527025
 21
-18.36422878184747
 31
0.0
  0
LINE
  5
2DF
330
1F
100
AcDbEntity
  8
0
100
AcDbLine
 10
-5.249704337527025
 20
-18.36422878184747
 30
0.0
 11
-10.49949722947004
 21
-18.36422878184747
 31
0.0
  0
LINE
  5
2E0
330
1F
100
AcDbEntity
  8
0
100
AcDbLine
 10
-10.49949722947004
 20
-18.36422878184747
 30
0.0
 11
-10.49949722947176
 21
-7.864642997961613
 31
0.0
  0
LINE
  5
2E1
330
1F
100
AcDbEntity
  8
0
100
AcDbLine
 10
-10.49949722947176
 20
-7.864642997961613
 30
0.0
 11
10.4996743382995
 21
-7.864642997961613
 31
0.0
  0
LINE
  5
2E2
330
1F
100
AcDbEntity
  8
0
100
AcDbLine
 10
10.4996743382995
 20
-7.864642997961613
 30
0.0
 11
10.49967433829905
 21
2.634942785923969
 31
0.0
  0
LINE
  5
2E3
330
1F
100
AcDbEntity
  8
0
100
AcDbLine
 10
10.49967433829905
 20
2.634942785923969
 30
0.0
 11
5.249881446356182
 21
2.634942785923969
 31
0.0
  0
LINE
  5
2E4
330
1F
100
AcDbEntity
  8
0
100
AcDbLine
 10
5.249881446356182
 20
2.634942785923969
 30
0.0
 11
5.249881446356182
 21
-2.6148501060188
 31
0.0
  0
LINE
  5
2E5
330
1F
100
AcDbEntity
  8
0
100
AcDbLine
 10
5.249881446356182
 20
-13.11443588990343
 30
0.0
 11
10.49967433829905
 21
-13.11443588990343
 31
0.0
  0
LINE
  5
2E6
330
1F
100
AcDbEntity
  8
0
100
AcDbLine
 10
10.49967433829905
 20
-13.11443588990343
 30
0.0
 11
10.4996743382995
 21
-18.36422878184747
 31
0.0
  0
LINE
  5
2E7
330
1F
100
AcDbEntity
  8
0
100
AcDbLine
 10
10.4996743382995
 20
-18.36422878184747
 30
0.0
 11
0.0000885544140562
 21
-18.36422878184747
 31
0.0
  0
LINE
  5
2E8
330
1F
100
AcDbEntity
  8
0
100
AcDbLine
 10
0.0000885544140562
 20
-18.36422878184747
 30
0.0
 11
0.0000885544140562
 21
2.634942785923969
 31
0.0
  0
LINE
  5
2E9
330
1F
100
AcDbEntity
  8
0
100
AcDbLine
 10
0.0000885544140562
 20
2.634942785923969
 30
0.0
 11
-10.49949722947176
 21
2.634942785923969
 31
0.0
  0
LINE
  5
2EA
330
1F
100
AcDbEntity
  8
0
100
AcDbLine
 10
-10.49949722947176
 20
2.634942785923969
 30
0.0
 11
-10.49949722947176
 21
-2.614850106022409
 31
0.0
  0
LINE
  5
2EB
330
1F
100
AcDbEntity
  8
0
100
AcDbLine
 10
-10.49949722947176
 20
-2.614850106022409
 30
0.0
 11
-5.249704337528813
 21
-2.614850106022409
 31
0.0
  0
LINE
  5
2EC
330
1F
100
AcDbEntity
  8
0
100
AcDbLine
 10
-5.249704337528813
 20
13.13452856980973
 30
0.0
 11
-5.249704337527025
 21
7.884735677867008
 31
0.0
  0
LINE
  5
2ED
330
1F
100
AcDbEntity
  8
0
100
AcDbLine
 10
-5.249704337527025
 20
7.884735677867008
 30
0.0
 11
-10.49949722947004
 21
7.884735677867008
 31
0.0
  0
LINE
  5
2EE
330
1F
100
AcDbEntity
  8
0
100
AcDbLine
 10
-10.49949722947004
 20
7.884735677867008
 30
0.0
 11
-10.49949722947176
 21
18.38432146175273
 31
0.0
  0
LINE
  5
2EF
330
1F
100
AcDbEntity
  8
0
100
AcDbLine
 10
-10.49949722947176
 20
18.38432146175273
 30
0.0
 11
10.4996743382995
 21
18.38432146175273
 31
0.0
  0
LINE
  5
2F0
330
1F
100
AcDbEntity
  8
0
100
AcDbLine
 10
10.4996743382995
 20
18.38432146175273
 30
0.0
 11
10.49967433829905
 21
28.8839072456384
 31
0.0
  0
LINE
  5
2F1
330
1F
100
AcDbEntity
  8
0
100
AcDbLine
 10
10.49967433829905
 20
28.8839072456384
 30
0.0
 11
5.249881446356182
 21
28.8839072456384
 31
0.0
  0
LINE
  5
2F2
330
1F
100
AcDbEntity
  8
0
100
AcDbLine
 10
5.249881446356182
 20
28.8839072456384
 30
0.0
 11
5.249881446356182
 21
23.63411435369554
 31
0.0
  0
LINE
  5
2F3
330
1F
100
AcDbEntity
  8
0
100
AcDbLine
 10
5.249881446356182
 20
13.13452856981099
 30
0.0
 11
10.49967433829905
 21
13.13452856981099
 31
0.0
  0
LINE
  5
2F4
330
1F
100
AcDbEntity
  8
0
100
AcDbLine
 10
10.49967433829905
 20
13.13452856981099
 30
0.0
 11
10.4996743382995
 21
7.884735677867008
 31
0.0
  0
LINE
  5
2F5
330
1F
100
AcDbEntity
  8
0
100
AcDbLine
 10
10.4996743382995
 20
7.884735677867008
 30
0.0
 11
0.0000885544140562
 21
7.884735677867008
 31
0.0
  0
LINE
  5
2F6
330
1F
100
AcDbEntity
  8
0
100
AcDbLine
 10
0.0000885544140562
 20
7.884735677867008
 30
0.0
 11
0.0000885544140562
 21
28.8839072456384
 31
0.0
  0
LINE
  5
2F7
330
1F
100
AcDbEntity
  8
0
100
AcDbLine
 10
0.0000885544140562
 20
28.8839072456384
 30
0.0
 11
-10.49949722947176
 21
28.8839072456384
 31
0.0
  0
LINE
  5
2F8
330
1F
100
AcDbEntity
  8
0
100
AcDbLine
 10
-10.49949722947176
 20
28.8839072456384
 30
0.0
 11
-10.49949722947176
 21
23.63411435369202
 31
0.0
  0
LINE
  5
2F9
330
1F
100
AcDbEntity
  8
0
100
AcDbLine
 10
-10.49949722947176
 20
23.63411435369202
 30
0.0
 11
-5.249704337528813
 21
23.63411435369202
 31
0.0
  0
LINE
  5
2FA
330
1F
100
AcDbEntity
  8
0
100
AcDbLine
 10
20.99926012218561
 20
-65.61236480933329
 30
0.0
 11
20.99926012218733
 21
-70.86215770127609
 31
0.0
  0
LINE
  5
2FB
330
1F
100
AcDbEntity
  8
0
100
AcDbLine
 10
20.99926012218733
 20
-70.86215770127609
 30
0.0
 11
15.74946723024431
 21
-70.86215770127609
 31
0.0
  0
LINE
  5
2FC
330
1F
100
AcDbEntity
  8
0
100
AcDbLine
 10
15.74946723024431
 20
-70.86215770127609
 30
0.0
 11
15.74946723024252
 21
-60.36257191739038
 31
0.0
  0
LINE
  5
2FD
330
1F
100
AcDbEntity
  8
0
100
AcDbLine
 10
15.74946723024252
 20
-60.36257191739038
 30
0.0
 11
36.74863879801416
 21
-60.36257191739038
 31
0.0
  0
LINE
  5
2FE
330
1F
100
AcDbEntity
  8
0
100
AcDbLine
 10
36.74863879801416
 20
-60.36257191739038
 30
0.0
 11
36.74863879801333
 21
-49.86298613350466
 31
0.0
  0
LINE
  5
2FF
330
1F
100
AcDbEntity
  8
0
100
AcDbLine
 10
36.74863879801333
 20
-49.86298613350466
 30
0.0
 11
31.49884590607061
 21
-49.86298613350466
 31
0.0
  0
LINE
  5
300
330
1F
100
AcDbEntity
  8
0
100
AcDbLine
 10
31.49884590607061
 20
-49.86298613350466
 30
0.0
 11
31.49884590607061
 21
-55.11277902544749
 31
0.0
  0
LINE
  5
301
330
1F
100
AcDbEntity
  8
0
100
AcDbLine
 10
31.49884590607061
 20
-65.6123648093321
 30
0.0
 11
36.74863879801333
 21
-65.6123648093321
 31
0.0
  0
LINE
  5
302
330
1F
100
AcDbEntity
  8
0
100
AcDbLine
 10
36.74863879801333
 20
-65.6123648093321
 30
0.0
 11
36.74863879801416
 21
-70.86215770127609
 31
0.0
  0
LINE
  5
303
330
1F
100
AcDbEntity
  8
0
100
AcDbLine
 10
36.74863879801416
 20
-70.86215770127609
 30
0.0
 11
26.24905301412842
 21
-70.86215770127609
 31
0.0
  0
LINE
  5
304
330
1F
100
AcDbEntity
  8
0
100
AcDbLine
 10
26.24905301412842
 20
-70.86215770127609
 30
0.0
 11
26.24905301412842
 21
-49.86298613350466
 31
0.0
  0
LINE
  5
305
330
1F
100
AcDbEntity
  8
0
100
AcDbLine
 10
26.24905301412842
 20
-49.86298613350466
 30
0.0
 11
15.74946723024252
 21
-49.86298613350466
 31
0.0
  0
LINE
  5
306
330
1F
100
AcDbEntity
  8
0
100
AcDbLine
 10
15.74946723024252
 20
-49.86298613350466
 30
0.0
 11
15.74946723024252
 21
-55.1127790254512
 31
0.0
  0
LINE
  5
307
330
1F
100
AcDbEntity
  8
0
100
AcDbLine
 10
15.74946723024252
 20
-55.1127790254512
 30
0.0
 11
20.99926012218561
 21
-55.1127790254512
 31
0.0
  0
LINE
  5
308
330
1F
100
AcDbEntity
  8
0
100
AcDbLine
 10
20.99926012218561
 20
-39.36340034961888
 30
0.0
 11
20.99926012218733
 21
-44.6131932415618
 31
0.0
  0
LINE
  5
309
330
1F
100
AcDbEntity
  8
0
100
AcDbLine
 10
20.99926012218733
 20
-44.6131932415618
 30
0.0
 11
15.74946723024431
 21
-44.6131932415618
 31
0.0
  0
LINE
  5
30A
330
1F
100
AcDbEntity
  8
0
100
AcDbLine
 10
15.74946723024431
 20
-44.6131932415618
 30
0.0
 11
15.74946723024252
 21
-34.11360745767604
 31
0.0
  0
LINE
  5
30B
330
1F
100
AcDbEntity
  8
0
100
AcDbLine
 10
15.74946723024252
 20
-34.11360745767604
 30
0.0
 11
36.74863879801416
 21
-34.11360745767604
 31
0.0
  0
LINE
  5
30C
330
1F
100
AcDbEntity
  8
0
100
AcDbLine
 10
36.74863879801416
 20
-34.11360745767604
 30
0.0
 11
36.74863879801333
 21
-23.61402167379028
 31
0.0
  0
LINE
  5
30D
330
1F
100
AcDbEntity
  8
0
100
AcDbLine
 10
36.74863879801333
 20
-23.61402167379028
 30
0.0
 11
31.49884590607061
 21
-23.61402167379028
 31
0.0
  0
LINE
  5
30E
330
1F
100
AcDbEntity
  8
0
100
AcDbLine
 10
31.49884590607061
 20
-23.61402167379028
 30
0.0
 11
31.49884590607061
 21
-28.86381456573312
 31
0.0
  0
LINE
  5
30F
330
1F
100
AcDbEntity
  8
0
100
AcDbLine
 10
31.49884590607061
 20
-39.36340034961757
 30
0.0
 11
36.74863879801333
 21
-39.36340034961757
 31
0.0
  0
LINE
  5
310
330
1F
100
AcDbEntity
  8
0
100
AcDbLine
 10
36.74863879801333
 20
-39.36340034961757
 30
0.0
 11
36.74863879801416
 21
-44.6131932415618
 31
0.0
  0
LINE
  5
311
330
1F
100
AcDbEntity
  8
0
100
AcDbLine
 10
36.74863879801416
 20
-44.6131932415618
 30
0.0
 11
26.24905301412842
 21
-44.6131932415618
 31
0.0
  0
LINE
  5
312
330
1F
100
AcDbEntity
  8
0
100
AcDbLine
 10
26.24905301412842
 20
-44.6131932415618
 30
0.0
 11
26.24905301412842
 21
-23.61402167379028
 31
0.0
  0
LINE
  5
313
330
1F
100
AcDbEntity
  8
0
100
AcDbLine
 10
26.24905301412842
 20
-23.61402167379028
 30
0.0
 11
15.74946723024252
 21
-23.61402167379028
 31
0.0
  0
LINE
  5
314
330
1F
100
AcDbEntity
  8
0
100
AcDbLine
 10
15.74946723024252
 20
-23.61402167379028
 30
0.0
 11
15.74946723024252
 21
-28.86381456573688
 31
0.0
  0
LINE
  5
315
330
1F
100
AcDbEntity
  8
0
100
AcDbLine
 10
15.74946723024252
 20
-28.86381456573688
 30
0.0
 11
20.99926012218561
 21
-28.86381456573688
 31
0.0
  0
LINE
  5
316
330
1F
100
AcDbEntity
  8
0
100
AcDbLine
 10
20.99926012218561
 20
-13.11443588990461
 30
0.0
 11
20.99926012218733
 21
-18.36422878184747
 31
0.0
  0
LINE
  5
317
330
1F
100
AcDbEntity
  8
0
100
AcDbLine
 10
20.99926012218733
 20
-18.36422878184747
 30
0.0
 11
15.74946723024431
 21
-18.36422878184747
 31
0.0
  0
LINE
  5
318
330
1F
100
AcDbEntity
  8
0
100
AcDbLine
 10
15.74946723024431
 20
-18.36422878184747
 30
0.0
 11
15.74946723024252
 21
-7.864642997961613
 31
0.0
  0
LINE
  5
319
330
1F
100
AcDbEntity
  8
0
100
AcDbLine
 10
15.74946723024252
 20
-7.864642997961613
 30
0.0
 11
36.74863879801416
 21
-7.864642997961613
 31
0.0
  0
LINE
  5
31A
330
1F
100
AcDbEntity
  8
0
100
AcDbLine
 10
36.74863879801416
 20
-7.864642997961613
 30
0.0
 11
36.74863879801333
 21
2.634942785923969
 31
0.0
  0
LINE
  5
31B
330
1F
100
AcDbEntity
  8
0
100
AcDbLine
 10
36.74863879801333
 20
2.634942785923969
 30
0.0
 11
31.49884590607061
 21
2.634942785923969
 31
0.0
  0
LINE
  5
31C
330
1F
100
AcDbEntity
  8
0
100
AcDbLine
 10
31.49884590607061
 20
2.634942785923969
 30
0.0
 11
31.49884590607061
 21
-2.6148501060188
 31
0.0
  0
LINE
  5
31D
330
1F
100
AcDbEntity
  8
0
100
AcDbLine
 10
31.49884590607061
 20
-13.11443588990343
 30
0.0
 11
36.74863879801333
 21
-13.11443588990343
 31
0.0
  0
LINE
  5
31E
330
1F
100
AcDbEntity
  8
0
100
AcDbLine
 10
36.74863879801333
 20
-13.11443588990343
 30
0.0
 11
36.74863879801416
 21
-18.36422878184747
 31
0.0
  0
LINE
  5
31F
330
1F
100
AcDbEntity
  8
0
100
AcDbLine
 10
36.74863879801416
 20
-18.36422878184747
 30
0.0
 11
26.24905301412842
 21
-18.36422878184747
 31
0.0
  0
LINE
  5
320
330
1F
100
AcDbEntity
  8
0
100
AcDbLine
 10
26.24905301412842
 20
-18.36422878184747
 30
0.0
 11
26.24905301412842
 21
2.634942785923969
 31
0.0
  0
LINE
  5
321
330
1F
100
AcDbEntity
  8
0
100
AcDbLine
 10
26.24905301412842
 20
2.634942785923969
 30
0.0
 11
15.74946723024252
 21
2.634942785923969
 31
0.0
  0
LINE
  5
322
330
1F
100
AcDbEntity
  8
0
100
AcDbLine
 10
15.74946723024252
 20
2.634942785923969
 30
0.0
 11
15.74946723024252
 21
-2.614850106022409
 31
0.0
  0
LINE
  5
323
330
1F
100
AcDbEntity
  8
0
100
AcDbLine
 10
15.74946723024252
 20
-2.614850106022409
 30
0.0
 11
20.99926012218561
 21
-2.614850106022409
 31
0.0
  0
LINE
  5
324
330
1F
100
AcDbEntity
  8
0
100
AcDbLine
 10
20.99926012218561
 20
13.13452856980973
 30
0.0
 11
20.99926012218733
 21
7.884735677867008
 31
0.0
  0
LINE
  5
325
330
1F
100
AcDbEntity
  8
0
100
AcDbLine
 10
20.99926012218733
 20
7.884735677867008
 30
0.0
 11
15.74946723024431
 21
7.884735677867008
 31
0.0
  0
LINE
  5
326
330
1F
100
AcDbEntity
  8
0
100
AcDbLine
 10
15.74946723024431
 20
7.884735677867008
 30
0.0
 11
15.74946723024252
 21
18.38432146175273
 31
0.0
  0
LINE
  5
327
330
1F
100
AcDbEntity
  8
0
100
AcDbLine
 10
15.74946723024252
 20
18.38432146175273
 30
0.0
 11
36.74863879801416
 21
18.38432146175273
 31
0.0
  0
LINE
  5
328
330
1F
100
AcDbEntity
  8
0
100
AcDbLine
 10
36.74863879801416
 20
18.38432146175273
 30
0.0
 11
36.74863879801333
 21
28.8839072456384
 31
0.0
  0
LINE
  5
329
330
1F
100
AcDbEntity
  8
0
100
AcDbLine
 10
36.74863879801333
 20
28.8839072456384
 30
0.0
 11
31.49884590607061
 21
28.8839072456384
 31
0.0
  0
LINE
  5
32A
330
1F
100
AcDbEntity
  8
0
100
AcDbLine
 10
31.49884590607061
 20
28.8839072456384
 30
0.0
 11
31.49884590607061
 21
23.63411435369554
 31
0.0
  0
LINE
  5
32B
330
1F
100
AcDbEntity
  8
0
100
AcDbLine
 10
31.49884590607061
 20
13.13452856981099
 30
0.0
 11
36.74863879801333
 21
13.13452856981099
 31
0.0
  0
LINE
  5
32C
330
1F
100
AcDbEntity
  8
0
100
AcDbLine
 10
36.74863879801333
 20
13.13452856981099
 30
0.0
 11
36.74863879801416
 21
7.884735677867008
 31
0.0
  0
LINE
  5
32D
330
1F
100
AcDbEntity
  8
0
100
AcDbLine
 10
36.74863879801416
 20
7.884735677867008
 30
0.0
 11
26.24905301412842
 21
7.884735677867008
 31
0.0
  0
LINE
  5
32E
330
1F
100
AcDbEntity
  8
0
100
AcDbLine
 10
26.24905301412842
 20
7.884735677867008
 30
0.0
 11
26.24905301412842
 21
28.8839072456384
 31
0.0
  0
LINE
  5
32F
330
1F
100
AcDbEntity
  8
0
100
AcDbLine
 10
26.24905301412842
 20
28.8839072456384
 30
0.0
 11
15.74946723024252
 21
28.8839072456384
 31
0.0
  0
LINE
  5
330
330
1F
100
AcDbEntity
  8
0
100
AcDbLine
 10
15.74946723024252
 20
28.8839072456384
 30
0.0
 11
15.74946723024252
 21
23.63411435369202
 31
0.0
  0
LINE
  5
331
330
1F
100
AcDbEntity
  8
0
100
AcDbLine
 10
15.74946723024252
 20
23.63411435369202
 30
0.0
 11
20.99926012218561
 21
23.63411435369202
 31
0.0
  0
LINE
  5
332
330
1F
100
AcDbEntity
  8
0
100
AcDbLine
 10
47.2482245818996
 20
-65.61236480933329
 30
0.0
 11
47.24822458190146
 21
-70.86215770127609
 31
0.0
  0
LINE
  5
333
330
1F
100
AcDbEntity
  8
0
100
AcDbLine
 10
47.24822458190146
 20
-70.86215770127609
 30
0.0
 11
41.99843168995859
 21
-70.86215770127609
 31
0.0
  0
LINE
  5
334
330
1F
100
AcDbEntity
  8
0
100
AcDbLine
 10
41.99843168995859
 20
-70.86215770127609
 30
0.0
 11
41.99843168995665
 21
-60.36257191739038
 31
0.0
  0
LINE
  5
335
330
1F
100
AcDbEntity
  8
0
100
AcDbLine
 10
41.99843168995665
 20
-60.36257191739038
 30
0.0
 11
52.49801747384269
 21
-60.36257191739038
 31
0.0
  0
LINE
  5
336
330
1F
100
AcDbEntity
  8
0
100
AcDbLine
 10
52.49801747384269
 20
-49.86298613350466
 30
0.0
 11
41.99843168995665
 21
-49.86298613350466
 31
0.0
  0
LINE
  5
337
330
1F
100
AcDbEntity
  8
0
100
AcDbLine
 10
41.99843168995665
 20
-49.86298613350466
 30
0.0
 11
41.99843168995665
 21
-55.1127790254512
 31
0.0
  0
LINE
  5
338
330
1F
100
AcDbEntity
  8
0
100
AcDbLine
 10
41.99843168995665
 20
-55.1127790254512
 30
0.0
 11
47.2482245818996
 21
-55.1127790254512
 31
0.0
  0
LINE
  5
339
330
1F
100
AcDbEntity
  8
0
100
AcDbLine
 10
47.2482245818996
 20
-39.36340034961888
 30
0.0
 11
47.24822458190146
 21
-44.6131932415618
 31
0.0
  0
LINE
  5
33A
330
1F
100
AcDbEntity
  8
0
100
AcDbLine
 10
47.24822458190146
 20
-44.6131932415618
 30
0.0
 11
41.99843168995859
 21
-44.6131932415618
 31
0.0
  0
LINE
  5
33B
330
1F
100
AcDbEntity
  8
0
100
AcDbLine
 10
41.99843168995859
 20
-44.6131932415618
 30
0.0
 11
41.99843168995665
 21
-34.11360745767604
 31
0.0
  0
LINE
  5
33C
330
1F
100
AcDbEntity
  8
0
100
AcDbLine
 10
41.99843168995665
 20
-34.11360745767604
 30
0.0
 11
52.49801747384269
 21
-34.11360745767604
 31
0.0
  0
LINE
  5
33D
330
1F
100
AcDbEntity
  8
0
100
AcDbLine
 10
52.49801747384269
 20
-23.61402167379028
 30
0.0
 11
41.99843168995665
 21
-23.61402167379028
 31
0.0
  0
LINE
  5
33E
330
1F
100
AcDbEntity
  8
0
100
AcDbLine
 10
41.99843168995665
 20
-23.61402167379028
 30
0.0
 11
41.99843168995665
 21
-28.86381456573688
 31
0.0
  0
LINE
  5
33F
330
1F
100
AcDbEntity
  8
0
100
AcDbLine
 10
41.99843168995665
 20
-28.86381456573688
 30
0.0
 11
47.2482245818996
 21
-28.86381456573688
 31
0.0
  0
LINE
  5
340
330
1F
100
AcDbEntity
  8
0
100
AcDbLine
 10
47.2482245818996
 20
-13.11443588990461
 30
0.0
 11
47.24822458190146
 21
-18.36422878184747
 31
0.0
  0
LINE
  5
341
330
1F
100
AcDbEntity
  8
0
100
AcDbLine
 10
47.24822458190146
 20
-18.36422878184747
 30
0.0
 11
41.99843168995859
 21
-18.36422878184747
 31
0.0
  0
LINE
  5
342
330
1F
100
AcDbEntity
  8
0
100
AcDbLine
 10
41.99843168995859
 20
-18.36422878184747
 30
0.0
 11
41.99843168995665
 21
-7.864642997961613
 31
0.0
  0
LINE
  5
343
330
1F
100
AcDbEntity
  8
0
100
AcDbLine
 10
41.99843168995665
 20
-7.864642997961613
 30
0.0
 11
52.49801747384269
 21
-7.864642997961613
 31
0.0
  0
LINE
  5
344
330
1F
100
AcDbEntity
  8
0
100
AcDbLine
 10
52.49801747384269
 20
2.634942785923969
 30
0.0
 11
41.99843168995665
 21
2.634942785923969
 31
0.0
  0
LINE
  5
345
330
1F
100
AcDbEntity
  8
0
100
AcDbLine
 10
41.99843168995665
 20
2.634942785923969
 30
0.0
 11
41.99843168995665
 21
-2.614850106022409
 31
0.0
  0
LINE
  5
346
330
1F
100
AcDbEntity
  8
0
100
AcDbLine
 10
41.99843168995665
 20
-2.614850106022409
 30
0.0
 11
47.2482245818996
 21
-2.614850106022409
 31
0.0
  0
LINE
  5
347
330
1F
100
AcDbEntity
  8
0
100
AcDbLine
 10
47.2482245818996
 20
13.13452856980973
 30
0.0
 11
47.24822458190146
 21
7.884735677867008
 31
0.0
  0
LINE
  5
348
330
1F
100
AcDbEntity
  8
0
100
AcDbLine
 10
47.24822458190146
 20
7.884735677867008
 30
0.0
 11
41.99843168995859
 21
7.884735677867008
 31
0.0
  0
LINE
  5
349
330
1F
100
AcDbEntity
  8
0
100
AcDbLine
 10
41.99843168995859
 20
7.884735677867008
 30
0.0
 11
41.99843168995665
 21
18.38432146175273
 31
0.0
  0
LINE
  5
34A
330
1F
100
AcDbEntity
  8
0
100
AcDbLine
 10
41.99843168995665
 20
18.38432146175273
 30
0.0
 11
52.49801747384269
 21
18.38432146175273
 31
0.0
  0
LINE
  5
34B
330
1F
100
AcDbEntity
  8
0
100
AcDbLine
 10
52.49801747384269
 20
28.8839072456384
 30
0.0
 11
41.99843168995665
 21
28.8839072456384
 31
0.0
  0
LINE
  5
34C
330
1F
100
AcDbEntity
  8
0
100
AcDbLine
 10
41.99843168995665
 20
28.8839072456384
 30
0.0
 11
41.99843168995665
 21
23.63411435369202
 31
0.0
  0
LINE
  5
34D
330
1F
100
AcDbEntity
  8
0
100
AcDbLine
 10
41.99843168995665
 20
23.63411435369202
 30
0.0
 11
47.2482245818996
 21
23.63411435369202
 31
0.0
  0
LINE
  5
34E
330
1F
100
AcDbEntity
  8
0
100
AcDbLine
 10
52.49801747384269
 20
-60.36257191739038
 30
0.0
 11
52.49801747384269
 21
-73.48705414724762
 31
0.0
  0
LINE
  5
34F
330
1F
100
AcDbEntity
  8
0
100
AcDbLine
 10
52.49801747384269
 20
-49.86298613350466
 30
0.0
 11
52.49801747384269
 21
-60.36257191739038
 31
0.0
  0
LINE
  5
350
330
1F
100
AcDbEntity
  8
0
100
AcDbLine
 10
52.49801747384269
 20
-34.11360745767604
 30
0.0
 11
52.49801747384269
 21
-49.86298613350466
 31
0.0
  0
LINE
  5
351
330
1F
100
AcDbEntity
  8
0
100
AcDbLine
 10
52.49801747384269
 20
-23.61402167379028
 30
0.0
 11
52.49801747384269
 21
-34.11360745767604
 31
0.0
  0
LINE
  5
352
330
1F
100
AcDbEntity
  8
0
100
AcDbLine
 10
52.49801747384269
 20
-7.864642997961613
 30
0.0
 11
52.49801747384269
 21
-23.61402167379028
 31
0.0
  0
LINE
  5
353
330
1F
100
AcDbEntity
  8
0
100
AcDbLine
 10
52.49801747384269
 20
2.634942785923969
 30
0.0
 11
52.49801747384269
 21
-7.864642997961613
 31
0.0
  0
LINE
  5
354
330
1F
100
AcDbEntity
  8
0
100
AcDbLine
 10
52.49801747384269
 20
18.38432146175273
 30
0.0
 11
52.49801747384269
 21
2.634942785923969
 31
0.0
  0
LINE
  5
355
330
1F
100
AcDbEntity
  8
0
100
AcDbLine
 10
52.49801747384269
 20
28.8839072456384
 30
0.0
 11
52.49801747384269
 21
18.38432146175273
 31
0.0
  0
LINE
  5
356
330
1F
100
AcDbEntity
  8
0
100
AcDbLine
 10
52.49801747384269
 20
31.50880369160983
 30
0.0
 11
52.49801747384269
 21
28.8839072456384
 31
0.0
  0
LINE
  5
357
330
1F
100
AcDbEntity
  8
0
100
AcDbLine
 10
52.49801747384269
 20
-73.48705414724762
 30
0.0
 11
49.87312102787074
 21
-73.48705414724762
 31
0.0
  0
LINE
  5
358
330
1F
100
AcDbEntity
  8
0
100
AcDbLine
 10
-39.3733581351574
 20
-73.48705414724762
 30
0.0
 11
-39.3733581351574
 21
-62.98746836336176
 31
0.0
  0
LINE
  5
359
330
1F
100
AcDbEntity
  8
0
100
AcDbLine
 10
-13.12439367544305
 20
-73.48705414724762
 30
0.0
 11
-13.12439367544305
 21
-62.98746836336176
 31
0.0
  0
LINE
  5
35A
330
1F
100
AcDbEntity
  8
0
100
AcDbLine
 10
13.12457078427093
 20
-73.48705414724762
 30
0.0
 11
13.12457078427093
 21
-62.98746836336176
 31
0.0
  0
LINE
  5
35B
330
1F
100
AcDbEntity
  8
0
100
AcDbLine
 10
39.37353524398537
 20
-73.48705414724762
 30
0.0
 11
39.37353524398537
 21
-62.98746836336176
 31
0.0
  0
LINE
  5
35C
330
1F
100
AcDbEntity
  8
0
100
AcDbLine
 10
-39.3733581351574
 20
-73.48705414724762
 30
0.0
 11
-52.4978403650148
 21
-73.48705414724762
 31
0.0
  0
LINE
  5
35D
330
1F
100
AcDbEntity
  8
0
100
AcDbLine
 10
-13.12439367544305
 20
-73.48705414724762
 30
0.0
 11
-28.87377235127248
 21
-73.48705414724762
 31
0.0
  0
LINE
  5
35E
330
1F
100
AcDbEntity
  8
0
100
AcDbLine
 10
13.12457078427093
 20
-73.48705414724762
 30
0.0
 11
-2.62480789155805
 21
-73.48705414724762
 31
0.0
  0
LINE
  5
35F
330
1F
100
AcDbEntity
  8
0
100
AcDbLine
 10
39.37353524398537
 20
-73.48705414724762
 30
0.0
 11
23.62415656815638
 21
-73.48705414724762
 31
0.0
  0
LINE
  5
360
330
1F
100
AcDbEntity
  8
0
100
AcDbLine
 10
49.87312102787074
 20
-73.48705414724762
 30
0.0
 11
39.37353524398537
 21
-73.48705414724762
 31
0.0
  0
LINE
  5
361
330
1F
100
AcDbEntity
  8
0
100
AcDbLine
 10
-28.87377235127248
 20
-73.48705414724762
 30
0.0
 11
-39.3733581351574
 21
-73.48705414724762
 31
0.0
  0
LINE
  5
362
330
1F
100
AcDbEntity
  8
0
100
AcDbLine
 10
-2.62480789155805
 20
-73.48705414724762
 30
0.0
 11
-13.12439367544305
 21
-73.48705414724762
 31
0.0
  0
LINE
  5
363
330
1F
100
AcDbEntity
  8
0
100
AcDbLine
 10
23.62415656815638
 20
-73.48705414724762
 30
0.0
 11
13.12457078427093
 21
-73.48705414724762
 31
0.0
  0
LINE
  5
364
330
1F
100
AcDbEntity
  8
0
100
AcDbLine
 10
-52.4978403650148
 20
-73.48705414724762
 30
0.0
 11
-52.4978403650148
 21
-70.86215770127609
 31
0.0
  0
LINE
  5
365
330
1F
100
AcDbEntity
  8
0
100
AcDbLine
 10
-52.49784036501548
 20
-60.36257191739038
 30
0.0
 11
-52.4978403650148
 21
-44.6131932415618
 31
0.0
  0
LINE
  5
366
330
1F
100
AcDbEntity
  8
0
100
AcDbLine
 10
-52.4978403650148
 20
-70.86215770127609
 30
0.0
 11
-52.49784036501548
 21
-60.36257191739038
 31
0.0
  0
LINE
  5
367
330
1F
100
AcDbEntity
  8
0
100
AcDbLine
 10
-52.49784036501548
 20
-34.11360745767604
 30
0.0
 11
-52.4978403650148
 21
-18.36422878184747
 31
0.0
  0
LINE
  5
368
330
1F
100
AcDbEntity
  8
0
100
AcDbLine
 10
-52.4978403650148
 20
-44.6131932415618
 30
0.0
 11
-52.49784036501548
 21
-34.11360745767604
 31
0.0
  0
LINE
  5
369
330
1F
100
AcDbEntity
  8
0
100
AcDbLine
 10
-52.49784036501548
 20
-7.864642997961613
 30
0.0
 11
-52.4978403650148
 21
7.884735677867008
 31
0.0
  0
LINE
  5
36A
330
1F
100
AcDbEntity
  8
0
100
AcDbLine
 10
-52.4978403650148
 20
-18.36422878184747
 30
0.0
 11
-52.49784036501548
 21
-7.864642997961613
 31
0.0
  0
LINE
  5
36B
330
1F
100
AcDbEntity
  8
0
100
AcDbLine
 10
-52.49784036501548
 20
18.38432146175273
 30
0.0
 11
-52.49784036501443
 21
31.50880369160865
 31
0.0
  0
LINE
  5
36C
330
1F
100
AcDbEntity
  8
0
100
AcDbLine
 10
-52.4978403650148
 20
7.884735677867008
 30
0.0
 11
-52.49784036501548
 21
18.38432146175273
 31
0.0
  0
ENDSEC
  0
SECTION
  2
OBJECTS
  0
DICTIONARY
  5
C
330
0
100
AcDbDictionary
  3
ACAD_GROUP
350
D
  3
ACAD_LAYOUT
350
1A
  3
ACAD_MATERIAL
350
43
  3
ACAD_MLEADERSTYLE
350
38F
  3
ACAD_MLINESTYLE
350
17
  3
ACAD_PLOTSETTINGS
350
19
  3
ACAD_SCALELIST
350
47
  3
ACAD_VISUALSTYLE
350
2A
  3
ACDBHEADERROUNDTRIPXREC
350
36D
  3
ACDBVARIABLEDICTIONARY
350
38D
  0
DICTIONARY
  5
394
330
8
100
AcDbDictionary
280
     1
  3
ACAD_XREC_ROUNDTRIP
360
395
  0
DICTIONARY
  5
D
102
{ACAD_REACTORS
330
C
102
}
330
C
100
AcDbDictionary
  0
DICTIONARY
  5
1A
102
{ACAD_REACTORS
330
C
102
}
330
C
100
AcDbDictionary
  0
DICTIONARY
  5
43
102
{ACAD_REACTORS
330
C
102
}
330
C
100
AcDbDictionary
  3
BYBLOCK
350
45
  3
BYLAYER
350
44
  3
GLOBAL
350
46
  0
DICTIONARY
  5
38F
102
{ACAD_REACTORS
330
C
102
}
330
C
100
AcDbDictionary
  0
DICTIONARY
  5
17
102
{ACAD_REACTORS
330
C
102
}
330
C
100
AcDbDictionary
  3
STANDARD
350
18
  0
DICTIONARY
  5
19
102
{ACAD_REACTORS
330
C
102
}
330
C
100
AcDbDictionary
  0
DICTIONARY
  5
47
102
{ACAD_REACTORS
330
C
102
}
330
C
100
AcDbDictionary
  3
A0
350
48
  3
A1
350
49
  3
A2
350
4A
  3
A3
350
4B
  3
A4
350
4C
  3
A5
350
4D
  3
A6
350
4E
  3
A7
350
4F
  3
A8
350
50
  3
A9
350
51
  3
B0
350
52
  3
B1
350
53
  3
B2
350
54
  3
B3
350
55
  3
B4
350
56
  3
B5
350
57
  3
B6
350
58
  3
B7
350
59
  3
B8
350
5A
  3
B9
350
5B
  3
C0
350
5C
  3
C1
350
5D
  3
C2
350
5E
  3
C3
350
5F
  3
C4
350
60
  3
C5
350
61
  3
C6
350
62
  3
C7
350
63
  3
C8
350
64
  3
C9
350
65
  3
D0
350
66
  3
D1
350
67
  3
D2
350
68
  0
DICTIONARY
  5
2A
102
{ACAD_REACTORS
330
C
102
}
330
C
100
AcDbDictionary
  3
2DWIREFRAME
350
2F
  3
BASIC
350
32
  3
BRIGHTEN
350
36
  3
COLORCHANGE
350
3A
  3
CONCEPTUAL
350
34
  3
DIM
350
35
  3
EDGECOLOROFF
350
3D
  3
FACEPATTERN
350
39
  3
FLAT
350
2B
  3
FLATWITHEDGES
350
2C
  3
GOURAUD
350
2D
  3
GOURAUDWITHEDGES
350
2E
  3
HIDDEN
350
31
  3
JITTEROFF
350
3B
  3
LINEPATTERN
350
38
  3
OVERHANGOFF
350
3C
  3
REALISTIC
350
33
  3
SHADED
350
42
  3
SHADED_WITH_EDGES
350
41
  3
SHADES_OF_GRAY
350
3E
  3
SKETCHY
350
3F
  3
THICKEN
350
37
  3
WIREFRAME
350
30
  3
X-RAY
350
40
  0
DICTIONARY
  5
36D
102
{ACAD_REACTORS
330
C
102
}
330
C
100
AcDbDictionary
  3
CEPSNTYPE
350
376
  3
DIMSTYLEDATA
350
38C
  3
FINGERPRINTGUID
350
377
  3
HYPERLINKBASE
350
370
  3
INSUNITS
350
375
  3
LAYOUTDICT
350
372
  3
LWETCUNION
350
374
  3
PLOTSETDICT
350
373
  3
PSVPSCALE
350
379
  3
PUCSBASE
350
37C
  3
PUCSORGBACK
350
382
  3
PUCSORGBOTTOM
350
37E
  3
PUCSORGFRONT
350
381
  3
PUCSORGLEFT
350
37F
  3
PUCSORGRIGHT
350
380
  3
PUCSORGTOP
350
37D
  3
PUCSORTHOREF
350
37A
  3
PUCSORTHOVIEW
350
37B
  3
STYLESHEET
350
371
  3
TSTACKALIGN
350
36E
  3
TSTACKSIZE
350
36F
  3
UCSBASE
350
385
  3
UCSORGBACK
350
38B
  3
UCSORGBOTTOM
350
387
  3
UCSORGFRONT
350
38A
  3
UCSORGLEFT
350
388
  3
UCSORGRIGHT
350
389
  3
UCSORGTOP
350
386
  3
UCSORTHOREF
350
383
  3
UCSORTHOVIEW
350
384
  3
VERSIONGUID
350
378
  0
DICTIONARY
  5
38D
102
{ACAD_REACTORS
330
C
102
}
330
C
100
AcDbDictionary
  3
CANNOSCALE
350
396
  3
DIMASSOC
350
392
  3
HIDETEXT
350
393
  3
MSLTSCALE
350
397
  0
XRECORD
  5
395
102
{ACAD_REACTORS
330
394
102
}
330
394
100
AcDbXrecord
102
VTR_0.000_0.000_1.000_1.000_GRIDDISPLAY
 70
     3
102
VTR_0.000_0.000_1.000_1.000_GRIDMAJOR
 70
     5
102
VTR_0.000_0.000_1.000_1.000_DEFAULTLIGHTING
280
     1
102
VTR_0.000_0.000_1.000_1.000_DEFAULTLIGHTINGTYPE
 70
     1
102
VTR_0.000_0.000_1.000_1.000_BRIGHTNESS
141
0.0
102
VTR_0.000_0.000_1.000_1.000_CONTRAST
142
0.0
  0
MATERIAL
  5
45
102
{ACAD_REACTORS
330
43
102
}
102
{ACAD_XDICTIONARY
360
39A
102
}
330
43
100
AcDbMaterial
  1
BYBLOCK
  0
MATERIAL
  5
44
102
{ACAD_REACTORS
330
43
102
}
102
{ACAD_XDICTIONARY
360
398
102
}
330
43
100
AcDbMaterial
  1
BYLAYER
  0
MATERIAL
  5
46
102
{ACAD_REACTORS
330
43
102
}
102
{ACAD_XDICTIONARY
360
39C
102
}
330
43
100
AcDbMaterial
  1
GLOBAL
  0
MLINESTYLE
  5
18
102
{ACAD_REACTORS
330
17
102
}
330
17
100
AcDbMlineStyle
  2
Standard
 70
     0
  3

 62
   256
 51
90.0
 52
90.0
 71
     2
 49
0.5
 62
   256
  6
BYLAYER
 49
-0.5
 62
   256
  6
BYLAYER
  0
ACAD_PROXY_OBJECT
  5
48
102
{ACAD_REACTORS
330
47
102
}
330
47
100
AcDbProxyObject
 90
      499
 91
      503
 93
       41
310
903313A31580
  0
ACAD_PROXY_OBJECT
  5
49
102
{ACAD_REACTORS
330
47
102
}
330
47
100
AcDbProxyObject
 90
      499
 91
      503
 93
      105
310
903313A324000000000000004000
  0
ACAD_PROXY_OBJECT
  5
4A
102
{ACAD_REACTORS
330
47
102
}
330
47
100
AcDbProxyObject
 90
      499
 91
      503
 93
      105
310
903313A344000000000000104000
  0
ACAD_PROXY_OBJECT
  5
4B
102
{ACAD_REACTORS
330
47
102
}
330
47
100
AcDbProxyObject
 90
      499
 91
      503
 93
      105
310
903313A354000000000000144000
  0
ACAD_PROXY_OBJECT
  5
4C
102
{ACAD_REACTORS
330
47
102
}
330
47
100
AcDbProxyObject
 90
      499
 91
      503
 93
      105
310
903313A384000000000000204000
  0
ACAD_PROXY_OBJECT
  5
4D
102
{ACAD_REACTORS
330
47
102
}
330
47
100
AcDbProxyObject
 90
      499
 91
      503
 93
      113
310
904313A31304000000000000244000
  0
ACAD_PROXY_OBJECT
  5
4E
102
{ACAD_REACTORS
330
47
102
}
330
47
100
AcDbProxyObject
 90
      499
 91
      503
 93
      113
310
904313A31364000000000000304000
  0
ACAD_PROXY_OBJECT
  5
4F
102
{ACAD_REACTORS
330
47
102
}
330
47
100
AcDbProxyObject
 90
      499
 91
      503
 93
      113
310
904313A32304000000000000344000
  0
ACAD_PROXY_OBJECT
  5
50
102
{ACAD_REACTORS
330
47
102
}
330
47
100
AcDbProxyObject
 90
      499
 91
      503
 93
      113
310
904313A333040000000000003E4000
  0
ACAD_PROXY_OBJECT
  5
51
102
{ACAD_REACTORS
330
47
102
}
330
47
100
AcDbProxyObject
 90
      499
 91
      503
 93
      113
310
904313A34304000000000000444000
  0
ACAD_PROXY_OBJECT
  5
52
102
{ACAD_REACTORS
330
47
102
}
330
47
100
AcDbProxyObject
 90
      499
 91
      503
 93
      113
310
904313A35304000000000000494000
  0
ACAD_PROXY_OBJECT
  5
53
102
{ACAD_REACTORS
330
47
102
}
330
47
100
AcDbProxyObject
 90
      499
 91
      503
 93
      121
310
905313A3130304000000000000594000
  0
ACAD_PROXY_OBJECT
  5
54
102
{ACAD_REACTORS
330
47
102
}
330
47
100
AcDbProxyObject
 90
      499
 91
      503
 93
      105
310
903323A310000000000000010100
  0
ACAD_PROXY_OBJECT
  5
55
102
{ACAD_REACTORS
330
47
102
}
330
47
100
AcDbProxyObject
 90
      499
 91
      503
 93
      105
310
903343A310000000000000410100
  0
ACAD_PROXY_OBJECT
  5
56
102
{ACAD_REACTORS
330
47
102
}
330
47
100
AcDbProxyObject
 90
      499
 91
      503
 93
      105
310
903383A310000000000000810100
  0
ACAD_PROXY_OBJECT
  5
57
102
{ACAD_REACTORS
330
47
102
}
330
47
100
AcDbProxyObject
 90
      499
 91
      503
 93
      113
310
90431303A310000000000000910100
  0
ACAD_PROXY_OBJECT
  5
58
102
{ACAD_REACTORS
330
47
102
}
330
47
100
AcDbProxyObject
 90
      499
 91
      503
 93
      121
310
9053130303A310000000000001650100
  0
ACAD_PROXY_OBJECT
  5
59
102
{ACAD_REACTORS
330
47
102
}
330
47
100
AcDbProxyObject
 90
      499
 91
      503
 93
      257
310
90E312F31323822203D2031272D3022000000000000200FC000000000000284000
  0
ACAD_PROXY_OBJECT
  5
5A
102
{ACAD_REACTORS
330
47
102
}
330
47
100
AcDbProxyObject
 90
      499
 91
      503
 93
      249
310
90D312F363422203D2031272D3022000000000000240FC000000000000284000
  0
ACAD_PROXY_OBJECT
  5
5B
102
{ACAD_REACTORS
330
47
102
}
330
47
100
AcDbProxyObject
 90
      499
 91
      503
 93
      249
310
90D312F333222203D2031272D3022000000000000280FC000000000000284000
  0
ACAD_PROXY_OBJECT
  5
5C
102
{ACAD_REACTORS
330
47
102
}
330
47
100
AcDbProxyObject
 90
      499
 91
      503
 93
      249
310
90D312F313622203D2031272D30220000000000002C0FC000000000000284000
  0
ACAD_PROXY_OBJECT
  5
5D
102
{ACAD_REACTORS
330
47
102
}
330
47
100
AcDbProxyObject
 90
      499
 91
      503
 93
      249
310
90D332F333222203D2031272D30220000000000002E0FC000000000000284000
  0
ACAD_PROXY_OBJECT
  5
5E
102
{ACAD_REACTORS
330
47
102
}
330
47
100
AcDbProxyObject
 90
      499
 91
      503
 93
      241
310
90C312F3822203D2031272D3022000000000000300FC000000000000284000
  0
ACAD_PROXY_OBJECT
  5
5F
102
{ACAD_REACTORS
330
47
102
}
330
47
100
AcDbProxyObject
 90
      499
 91
      503
 93
      249
310
90D332F313622203D2031272D3022000000000000320FC000000000000284000
  0
ACAD_PROXY_OBJECT
  5
60
102
{ACAD_REACTORS
330
47
102
}
330
47
100
AcDbProxyObject
 90
      499
 91
      503
 93
      241
310
90C312F3422203D2031272D3022000000000000340FC000000000000284000
  0
ACAD_PROXY_OBJECT
  5
61
102
{ACAD_REACTORS
330
47
102
}
330
47
100
AcDbProxyObject
 90
      499
 91
      503
 93
      241
310
90C332F3822203D2031272D3022000000000000360FC000000000000284000
  0
ACAD_PROXY_OBJECT
  5
62
102
{ACAD_REACTORS
330
47
102
}
330
47
100
AcDbProxyObject
 90
      499
 91
      503
 93
      241
310
90C312F3222203D2031272D3022000000000000380FC000000000000284000
  0
ACAD_PROXY_OBJECT
  5
63
102
{ACAD_REACTORS
330
47
102
}
330
47
100
AcDbProxyObject
 90
      499
 91
      503
 93
      241
310
90C332F3422203D2031272D30220000000000003A0FC000000000000284000
  0
ACAD_PROXY_OBJECT
  5
64
102
{ACAD_REACTORS
330
47
102
}
330
47
100
AcDbProxyObject
 90
      499
 91
      503
 93
      161
310
90A3122203D2031272D30224000000000000284000
  0
ACAD_PROXY_OBJECT
  5
65
102
{ACAD_REACTORS
330
47
102
}
330
47
100
AcDbProxyObject
 90
      499
 91
      503
 93
      257
310
90E312D312F3222203D2031272D30220000000000003E0FC000000000000284000
  0
ACAD_PROXY_OBJECT
  5
66
102
{ACAD_REACTORS
330
47
102
}
330
47
100
AcDbProxyObject
 90
      499
 91
      503
 93
      225
310
90A3322203D2031272D302200000000000002100000000000000284000
  0
ACAD_PROXY_OBJECT
  5
67
102
{ACAD_REACTORS
330
47
102
}
330
47
100
AcDbProxyObject
 90
      499
 91
      503
 93
      225
310
90A3622203D2031272D302200000000000006100000000000000284000
  0
ACAD_PROXY_OBJECT
  5
68
102
{ACAD_REACTORS
330
47
102
}
330
47
100
AcDbProxyObject
 90
      499
 91
      503
 93
      249
310
90D31272D3022203D2031272D30220000000000000A100000000000000284000
  0
ACAD_PROXY_OBJECT
  5
2F
102
{ACAD_REACTORS
330
2A
102
}
330
2A
100
AcDbProxyObject
 90
      499
 91
      501
 93
      436
310
42CC9915DA5C99599C985B595049028333333333333E33F0000000000000F90107901411070040501600405405064090741402480A0340
1001
ACAD
1000
AcDbSavedByObjectVersion
1070
     0
  0
ACAD_PROXY_OBJECT
  5
32
102
{ACAD_REACTORS
330
2A
102
}
330
2A
100
AcDbProxyObject
 90
      499
 91
      501
 93
      388
310
4150985CDA58D07406404333333333333E33F0000000000000F90107A41107004050150841D405064090741402480A0350
1001
ACAD
1000
AcDbSavedByObjectVersion
1070
     0
  0
ACAD_PROXY_OBJECT
  5
36
102
{ACAD_REACTORS
330
2A
102
}
330
2A
100
AcDbProxyObject
 90
      499
 91
      501
 93
      428
310
42109C9A59DA1D195B90C409028333333333333E33F0000000000000F9010790141107004050150841D405064090741402480A029950
1001
ACAD
1000
AcDbSavedByObjectVersion
1070
     0
  0
ACAD_PROXY_OBJECT
  5
3A
102
{ACAD_REACTORS
330
2A
102
}
330
2A
100
AcDbProxyObject
 90
      499
 91
      501
 93
      452
310
42D0DBDB1BDC90DA185B99D95104090240C333333333333E33F0000000000000F90108901411070040501508421405064090741402480A0350
1001
ACAD
1000
AcDbSavedByObjectVersion
1070
     0
  0
ACAD_PROXY_OBJECT
  5
34
102
{ACAD_REACTORS
330
2A
102
}
330
2A
100
AcDbProxyObject
 90
      499
 91
      501
 93
      500
310
4290DBDB98D95C1D1D585B10940D028333333333333E33F0000000000000F90107902409070040501000000000018199010841D405064090740C02480A0340
1001
ACAD
1000
AcDbSavedByObjectVersion
1070
     0
  0
ACAD_PROXY_OBJECT
  5
35
102
{ACAD_REACTORS
330
2A
102
}
330
2A
100
AcDbProxyObject
 90
      499
 91
      501
 93
      412
310
40D11A5B50B409028333333333333E33F0000000000000F9010790141107004050150841D405064090741402480A02677FFFFFD0
1001
ACAD
1000
AcDbSavedByObjectVersion
1070
     0
  0
ACAD_PROXY_OBJECT
  5
3D
102
{ACAD_REACTORS
330
2A
102
}
330
2A
100
AcDbProxyObject
 90
      499
 91
      501
 93
      452
310
43115919D950DBDB1BDC93D999916409028333333333333E33F0000000000000F9010790141107004050150841D405064090741402480A0350
1001
ACAD
1000
AcDbSavedByObjectVersion
1070
     0
  0
ACAD_PROXY_OBJECT
  5
39
102
{ACAD_REACTORS
330
2A
102
}
330
2A
100
AcDbProxyObject
 90
      499
 91
      501
 93
      444
310
42D19858D95C185D1D195C9B90F409028333333333333E33F0000000000000F9010790141107004050150841D405064090741402480A0350
1001
ACAD
1000
AcDbSavedByObjectVersion
1070
     0
  0
ACAD_PROXY_OBJECT
  5
2B
102
{ACAD_REACTORS
330
2A
102
}
330
2A
100
AcDbProxyObject
 90
      499
 91
      501
 93
      380
310
41119B185D240901404333333333333E33F0000000000000F9010740A907004050150841D405064090741402480A1B50
1001
ACAD
1000
AcDbSavedByObjectVersion
1070
     0
  0
ACAD_PROXY_OBJECT
  5
2C
102
{ACAD_REACTORS
330
2A
102
}
330
2A
100
AcDbProxyObject
 90
      499
 91
      501
 93
      468
310
43519B185D15DA5D1A115919D95CD0140901404333333333333E33F0000000000000F90107409019070040501600405405064090741402480A1B50
1001
ACAD
1000
AcDbSavedByObjectVersion
1070
     0
  0
ACAD_PROXY_OBJECT
  5
2D
102
{ACAD_REACTORS
330
2A
102
}
330
2A
100
AcDbProxyObject
 90
      499
 91
      501
 93
      404
310
41D1DBDD5C985D5910240902404333333333333E33F0000000000000F9010740A9070040501641D405064090741402480A1B50
1001
ACAD
1000
AcDbSavedByObjectVersion
1070
     0
  0
ACAD_PROXY_OBJECT
  5
2E
102
{ACAD_REACTORS
330
2A
102
}
330
2A
100
AcDbProxyObject
 90
      499
 91
      501
 93
      492
310
4411DBDD5C985D5915DA5D1A115919D95CD0340902404333333333333E33F0000000000000F90107409019070040501600405405064090741402480A1B50
1001
ACAD
1000
AcDbSavedByObjectVersion
1070
     0
  0
ACAD_PROXY_OBJECT
  5
31
102
{ACAD_REACTORS
330
2A
102
}
330
2A
100
AcDbProxyObject
 90
      499
 91
      501
 93
      476
310
41921A5919195B90640502408333333333333E33F0000000000000F901079024090700405020000000000001110200405405064090740C02480A0340
1001
ACAD
1000
AcDbSavedByObjectVersion
1070
     0
  0
ACAD_PROXY_OBJECT
  5
3B
102
{ACAD_REACTORS
330
2A
102
}
330
2A
100
AcDbProxyObject
 90
      499
 91
      501
 93
      428
310
42529A5D1D195C93D999914409028333333333333E33F0000000000000F9010790141107004050150A41D405064090741402480A0350
1001
ACAD
1000
AcDbSavedByObjectVersion
1070
     0
  0
ACAD_PROXY_OBJECT
  5
38
102
{ACAD_REACTORS
330
2A
102
}
330
2A
100
AcDbProxyObject
 90
      499
 91
      501
 93
      444
310
42D31A5B995C185D1D195C9B90E409028333333333333E33F0000000000000F9010790141107004050750841D405064090741402483A0350
1001
ACAD
1000
AcDbSavedByObjectVersion
1070
     0
  0
ACAD_PROXY_OBJECT
  5
3C
102
{ACAD_REACTORS
330
2A
102
}
330
2A
100
AcDbProxyObject
 90
      499
 91
      501
 93
      444
310
42D3DD995C9A185B99D3D999915409028333333333333E33F0000000000000F9010790141107004050150941D405064090741402480A0350
1001
ACAD
1000
AcDbSavedByObjectVersion
1070
     0
  0
ACAD_PROXY_OBJECT
  5
33
102
{ACAD_REACTORS
330
2A
102
}
330
2A
100
AcDbProxyObject
 90
      499
 91
      501
 93
      428
310
425499585B1A5CDD1A58D08409038333333333333E33F0000000000000F9010740A907004050150800405405064090740C02480A1B40
1001
ACAD
1000
AcDbSavedByObjectVersion
1070
     0
  0
ACAD_PROXY_OBJECT
  5
42
102
{ACAD_REACTORS
330
2A
102
}
330
2A
100
AcDbProxyObject
 90
      499
 91
      501
 93
      420
310
4194DA1859195911B40902404333333333333E33F0000000000000F9010740A41107004050150800405405064090840C02480A0B40
1001
ACAD
1000
AcDbSavedByObjectVersion
1070
     0
  0
ACAD_PROXY_OBJECT
  5
41
102
{ACAD_REACTORS
330
2A
102
}
330
2A
100
AcDbProxyObject
 90
      499
 91
      501
 93
      516
310
4454DA18591959081DDA5D1A08195919D95CD1A40902404333333333333E33F0000000000000F901074090142907004050250800405405064090740C02480A0B40
1001
ACAD
1000
AcDbSavedByObjectVersion
1070
     0
  0
ACAD_PROXY_OBJECT
  5
3E
102
{ACAD_REACTORS
330
2A
102
}
330
2A
100
AcDbProxyObject
 90
      499
 91
      501
 93
      532
310
4394DA1859195CC81BD98811DC985E5174090240C333333333333E33F0000000000000F901079024090741D01000000000000111010841D405064090740C02480A0340
1001
ACAD
1000
AcDbSavedByObjectVersion
1070
     0
  0
ACAD_PROXY_OBJECT
  5
3F
102
{ACAD_REACTORS
330
2A
102
}
330
2A
100
AcDbProxyObject
 90
      499
 91
      501
 93
      476
310
41D4DAD95D18DA1E51840502408333333333333E33F0000000000000F901079024090741D01000000000000111010B41D405064090741802480A0340
1001
ACAD
1000
AcDbSavedByObjectVersion
1070
     0
  0
ACAD_PROXY_OBJECT
  5
37
102
{ACAD_REACTORS
330
2A
102
}
330
2A
100
AcDbProxyObject
 90
      499
 91
      501
 93
      412
310
41D51A1A58DAD95B90D409028333333333333E33F0000000000000F9010790141107004050150C41D405064090741402480A0350
1001
ACAD
1000
AcDbSavedByObjectVersion
1070
     0
  0
ACAD_PROXY_OBJECT
  5
30
102
{ACAD_REACTORS
330
2A
102
}
330
2A
100
AcDbProxyObject
 90
      499
 91
      501
 93
      420
310
4255DA5C99599C985B595059028333333333333E33F0000000000000F90107901411070040501600405405064090740C02480A0340
1001
ACAD
1000
AcDbSavedByObjectVersion
1070
     0
  0
ACAD_PROXY_OBJECT
  5
40
102
{ACAD_REACTORS
330
2A
102
}
330
2A
100
AcDbProxyObject
 90
      499
 91
      501
 93
      404
310
41560B54985E51940902404000000000000E03F0000000000000F9010740501907004050150841D405064090740C02480A1B40
1001
ACAD
1000
AcDbSavedByObjectVersion
1070
     0
  0
XRECORD
  5
376
102
{ACAD_REACTORS
330
36D
102
}
330
36D
100
AcDbXrecord
 90
        0
  0
XRECORD
  5
38C
102
{ACAD_REACTORS
330
36D
102
}
330
36D
100
AcDbXrecord
1000
DSTYLE
1002
{
1070
   171
 70
     2
1070
   143
 40
25.4
1070
   274
 70
     2
1070
    41
 40
0.18
1070
   141
 40
0.09
1070
   271
 70
     4
1070
    43
 40
0.38
1070
   278
 70
    46
1070
    44
 40
0.18
1070
    42
 40
0.0625
1070
   147
 40
0.09
1070
    77
 70
     0
1070
   272
 70
     4
1070
    73
 70
     1
1070
   172
 70
     0
1070
    74
 70
     1
1070
   283
 70
     1
1070
   340
340
11
1070
   140
 40
0.18
1070
   284
 70
     0
1070
    78
 70
     0
1002
}
  0
XRECORD
  5
377
102
{ACAD_REACTORS
330
36D
102
}
330
36D
100
AcDbXrecord
  1
{E8EAB762-A801-4C02-9B1E-9BED1A3B0831}
  0
XRECORD
  5
370
102
{ACAD_REACTORS
330
36D
102
}
330
36D
100
AcDbXrecord
  1

  0
XRECORD
  5
375
102
{ACAD_REACTORS
330
36D
102
}
330
36D
100
AcDbXrecord
 90
        4
  0
XRECORD
  5
372
102
{ACAD_REACTORS
330
36D
102
}
330
36D
100
AcDbXrecord
340
1A
  0
XRECORD
  5
374
102
{ACAD_REACTORS
330
36D
102
}
330
36D
100
AcDbXrecord
 90
    10781
  0
XRECORD
  5
373
102
{ACAD_REACTORS
330
36D
102
}
330
36D
100
AcDbXrecord
340
19
  0
XRECORD
  5
379
102
{ACAD_REACTORS
330
36D
102
}
330
36D
100
AcDbXrecord
 40
0.0
  0
XRECORD
  5
37C
102
{ACAD_REACTORS
330
36D
102
}
330
36D
100
AcDbXrecord
340
0
  0
XRECORD
  5
382
102
{ACAD_REACTORS
330
36D
102
}
330
36D
100
AcDbXrecord
 10
0.0
 20
0.0
 30
0.0
  0
XRECORD
  5
37E
102
{ACAD_REACTORS
330
36D
102
}
330
36D
100
AcDbXrecord
 10
0.0
 20
0.0
 30
0.0
  0
XRECORD
  5
381
102
{ACAD_REACTORS
330
36D
102
}
330
36D
100
AcDbXrecord
 10
0.0
 20
0.0
 30
0.0
  0
XRECORD
  5
37F
102
{ACAD_REACTORS
330
36D
102
}
330
36D
100
AcDbXrecord
 10
0.0
 20
0.0
 30
0.0
  0
XRECORD
  5
380
102
{ACAD_REACTORS
330
36D
102
}
330
36D
100
AcDbXrecord
 10
0.0
 20
0.0
 30
0.0
  0
XRECORD
  5
37D
102
{ACAD_REACTORS
330
36D
102
}
330
36D
100
AcDbXrecord
 10
0.0
 20
0.0
 30
0.0
  0
XRECORD
  5
37A
102
{ACAD_REACTORS
330
36D
102
}
330
36D
100
AcDbXrecord
340
0
  0
XRECORD
  5
37B
102
{ACAD_REACTORS
330
36D
102
}
330
36D
100
AcDbXrecord
 70
     0
  0
XRECORD
  5
371
102
{ACAD_REACTORS
330
36D
102
}
330
36D
100
AcDbXrecord
  1

  0
XRECORD
  5
36E
102
{ACAD_REACTORS
330
36D
102
}
330
36D
100
AcDbXrecord
 90
        1
  0
XRECORD
  5
36F
102
{ACAD_REACTORS
330
36D
102
}
330
36D
100
AcDbXrecord
 90
       70
  0
XRECORD
  5
385
102
{ACAD_REACTORS
330
36D
102
}
330
36D
100
AcDbXrecord
340
0
  0
XRECORD
  5
38B
102
{ACAD_REACTORS
330
36D
102
}
330
36D
100
AcDbXrecord
 10
0.0
 20
0.0
 30
0.0
  0
XRECORD
  5
387
102
{ACAD_REACTORS
330
36D
102
}
330
36D
100
AcDbXrecord
 10
0.0
 20
0.0
 30
0.0
  0
XRECORD
  5
38A
102
{ACAD_REACTORS
330
36D
102
}
330
36D
100
AcDbXrecord
 10
0.0
 20
0.0
 30
0.0
  0
XRECORD
  5
388
102
{ACAD_REACTORS
330
36D
102
}
330
36D
100
AcDbXrecord
 10
0.0
 20
0.0
 30
0.0
  0
XRECORD
  5
389
102
{ACAD_REACTORS
330
36D
102
}
330
36D
100
AcDbXrecord
 10
0.0
 20
0.0
 30
0.0
  0
XRECORD
  5
386
102
{ACAD_REACTORS
330
36D
102
}
330
36D
100
AcDbXrecord
 10
0.0
 20
0.0
 30
0.0
  0
XRECORD
  5
383
102
{ACAD_REACTORS
330
36D
102
}
330
36D
100
AcDbXrecord
340
0
  0
XRECORD
  5
384
102
{ACAD_REACTORS
330
36D
102
}
330
36D
100
AcDbXrecord
 70
     0
  0
XRECORD
  5
378
102
{ACAD_REACTORS
330
36D
102
}
330
36D
100
AcDbXrecord
  1
{FAEB1C32-E019-11D5-929B-00C0DF256EC4}
  0
DICTIONARYVAR
  5
396
102
{ACAD_REACTORS
330
38D
102
}
330
38D
100
DictionaryVariables
280
     0
  1
1:1
  0
DICTIONARYVAR
  5
392
102
{ACAD_REACTORS
330
38D
102
}
330
38D
100
DictionaryVariables
280
     0
  1
2
  0
DICTIONARYVAR
  5
393
102
{ACAD_REACTORS
330
38D
102
}
330
38D
100
DictionaryVariables
280
     0
  1
1
  0
DICTIONARYVAR
  5
397
102
{ACAD_REACTORS
330
38D
102
}
330
38D
100
DictionaryVariables
280
     0
  1
1
  0
DICTIONARY
  5
39A
330
45
100
AcDbDictionary
280
     1
  3
ACAD_XREC_ROUNDTRIP
360
39B
  0
DICTIONARY
  5
398
330
44
100
AcDbDictionary
280
     1
  3
ACAD_XREC_ROUNDTRIP
360
399
  0
DICTIONARY
  5
39C
330
46
100
AcDbDictionary
280
     1
  3
ACAD_XREC_ROUNDTRIP
360
39D
  0
XRECORD
  5
39B
102
{ACAD_REACTORS
330
39A
102
}
330
39A
100
AcDbXrecord
102
MATERIAL
148
0.0
149
0.0
149
0.0
 93
        0
 94
      127
282
     0
 72
     1
 77
     1
171
     1
175
     1
179
     1
273
     0
  0
XRECORD
  5
399
102
{ACAD_REACTORS
330
398
102
}
330
398
100
AcDbXrecord
102
MATERIAL
148
0.0
149
0.0
149
0.0
 93
        0
 94
      127
282
     0
 72
     1
 77
     1
171
     1
175
     1
179
     1
273
     0
  0
XRECORD
  5
39D
102
{ACAD_REACTORS
330
39C
102
}
330
39C
100
AcDbXrecord
102
MATERIAL
148
0.0
149
0.0
149
0.0
 93
        0
 94
      127
282
     0
 72
     1
 77
     1
171
     1
175
     1
179
     1
273
     0
  0
ENDSEC
  0
EOF
