  0
SECTION
  2
HEADER
  9
$ACADVER
  1
AC1014
  9
$ACADMAINTVER
 70
     9
  9
$DWGCODEPAGE
  3
ANSI_1252
  9
$INSBASE
 10
0.0
 20
0.0
 30
0.0
  9
$EXTMIN
 10
1.000000000000000E+20
 20
1.000000000000000E+20
 30
1.000000000000000E+20
  9
$EXTMAX
 10
-1.000000000000000E+20
 20
-1.000000000000000E+20
 30
-1.000000000000000E+20
  9
$LIMMIN
 10
0.0
 20
0.0
  9
$LIMMAX
 10
12.0
 20
9.0
  9
$ORTHOMODE
 70
     0
  9
$REGENMODE
 70
     1
  9
$FILLMODE
 70
     1
  9
$QTEXTMODE
 70
     0
  9
$MIRRTEXT
 70
     1
  9
$DRAGMODE
 70
     2
  9
$LTSCALE
 40
1.0
  9
$OSMODE
 70
    37
  9
$ATTMODE
 70
     1
  9
$TEXTSIZE
 40
0.2
  9
$TRACEWID
 40
0.05
  9
$TEXTSTYLE
  7
STANDARD
  9
$CLAYER
  8
0
  9
$CELTYPE
  6
BYLAYER
  9
$CECOLOR
 62
   256
  9
$CELTSCALE
 40
1.0
  9
$DELOBJ
 70
     1
  9
$DISPSILH
 70
     0
  9
$DIMSCALE
 40
1.0
  9
$DIMASZ
 40
0.18
  9
$DIMEXO
 40
0.0625
  9
$DIMDLI
 40
0.38
  9
$DIMRND
 40
0.0
  9
$DIMDLE
 40
0.0
  9
$DIMEXE
 40
0.18
  9
$DIMTP
 40
0.0
  9
$DIMTM
 40
0.0
  9
$DIMTXT
 40
0.18
  9
$DIMCEN
 40
0.09
  9
$DIMTSZ
 40
0.0
  9
$DIMTOL
 70
     0
  9
$DIMLIM
 70
     0
  9
$DIMTIH
 70
     1
  9
$DIMTOH
 70
     1
  9
$DIMSE1
 70
     0
  9
$DIMSE2
 70
     0
  9
$DIMTAD
 70
     0
  9
$DIMZIN
 70
     0
  9
$DIMBLK
  1

  9
$DIMASO
 70
     1
  9
$DIMSHO
 70
     1
  9
$DIMPOST
  1

  9
$DIMAPOST
  1

  9
$DIMALT
 70
     0
  9
$DIMALTD
 70
     2
  9
$DIMALTF
 40
25.4
  9
$DIMLFAC
 40
1.0
  9
$DIMTOFL
 70
     0
  9
$DIMTVP
 40
0.0
  9
$DIMTIX
 70
     0
  9
$DIMSOXD
 70
     0
  9
$DIMSAH
 70
     0
  9
$DIMBLK1
  1

  9
$DIMBLK2
  1

  9
$DIMSTYLE
  2
STANDARD
  9
$DIMCLRD
 70
     0
  9
$DIMCLRE
 70
     0
  9
$DIMCLRT
 70
     0
  9
$DIMTFAC
 40
1.0
  9
$DIMGAP
 40
0.09
  9
$DIMJUST
 70
     0
  9
$DIMSD1
 70
     0
  9
$DIMSD2
 70
     0
  9
$DIMTOLJ
 70
     1
  9
$DIMTZIN
 70
     0
  9
$DIMALTZ
 70
     0
  9
$DIMALTTZ
 70
     0
  9
$DIMFIT
 70
     3
  9
$DIMUPT
 70
     0
  9
$DIMUNIT
 70
     2
  9
$DIMDEC
 70
     4
  9
$DIMTDEC
 70
     4
  9
$DIMALTU
 70
     2
  9
$DIMALTTD
 70
     2
  9
$DIMTXSTY
  7
STANDARD
  9
$DIMAUNIT
 70
     0
  9
$LUNITS
 70
     2
  9
$LUPREC
 70
     4
  9
$SKETCHINC
 40
0.1
  9
$FILLETRAD
 40
0.5
  9
$AUNITS
 70
     0
  9
$AUPREC
 70
     0
  9
$MENU
  1
.
  9
$ELEVATION
 40
0.0
  9
$PELEVATION
 40
0.0
  9
$THICKNESS
 40
0.0
  9
$LIMCHECK
 70
     0
  9
$CHAMFERA
 40
0.0
  9
$CHAMFERB
 40
0.0
  9
$CHAMFERC
 40
0.0
  9
$CHAMFERD
 40
0.0
  9
$SKPOLY
 70
     0
  9
$TDCREATE
 40
2456913.673678982
  9
$TDUPDATE
 40
2456913.673679259
  9
$TDINDWG
 40
0.0000000116
  9
$TDUSRTIMER
 40
0.0000000116
  9
$USRTIMER
 70
     1
  9
$ANGBASE
 50
0.0
  9
$ANGDIR
 70
     0
  9
$PDMODE
 70
     0
  9
$PDSIZE
 40
0.0
  9
$PLINEWID
 40
0.0
  9
$COORDS
 70
     1
  9
$SPLFRAME
 70
     0
  9
$SPLINETYPE
 70
     6
  9
$SPLINESEGS
 70
     8
  9
$ATTDIA
 70
     0
  9
$ATTREQ
 70
     1
  9
$HANDLING
 70
     1
  9
$HANDSEED
  5
380
  9
$SURFTAB1
 70
     6
  9
$SURFTAB2
 70
     6
  9
$SURFTYPE
 70
     6
  9
$SURFU
 70
     6
  9
$SURFV
 70
     6
  9
$UCSNAME
  2

  9
$UCSORG
 10
0.0
 20
0.0
 30
0.0
  9
$UCSXDIR
 10
1.0
 20
0.0
 30
0.0
  9
$UCSYDIR
 10
0.0
 20
1.0
 30
0.0
  9
$PUCSNAME
  2

  9
$PUCSORG
 10
0.0
 20
0.0
 30
0.0
  9
$PUCSXDIR
 10
1.0
 20
0.0
 30
0.0
  9
$PUCSYDIR
 10
0.0
 20
1.0
 30
0.0
  9
$USERI1
 70
     0
  9
$USERI2
 70
     0
  9
$USERI3
 70
     0
  9
$USERI4
 70
     0
  9
$USERI5
 70
     0
  9
$USERR1
 40
0.0
  9
$USERR2
 40
0.0
  9
$USERR3
 40
0.0
  9
$USERR4
 40
0.0
  9
$USERR5
 40
0.0
  9
$WORLDVIEW
 70
     1
  9
$SHADEDGE
 70
     3
  9
$SHADEDIF
 70
    70
  9
$TILEMODE
 70
     1
  9
$MAXACTVP
 70
    64
  9
$PINSBASE
 10
0.0
 20
0.0
 30
0.0
  9
$PLIMCHECK
 70
     0
  9
$PEXTMIN
 10
1.000000000000000E+20
 20
1.000000000000000E+20
 30
1.000000000000000E+20
  9
$PEXTMAX
 10
-1.000000000000000E+20
 20
-1.000000000000000E+20
 30
-1.000000000000000E+20
  9
$PLIMMIN
 10
0.0
 20
0.0
  9
$PLIMMAX
 10
12.0
 20
9.0
  9
$UNITMODE
 70
     0
  9
$VISRETAIN
 70
     1
  9
$PLINEGEN
 70
     0
  9
$PSLTSCALE
 70
     1
  9
$TREEDEPTH
 70
  3020
  9
$PICKSTYLE
 70
     1
  9
$CMLSTYLE
  2
STANDARD
  9
$CMLJUST
 70
     0
  9
$CMLSCALE
 40
1.0
  9
$PROXYGRAPHICS
 70
     1
  9
$MEASUREMENT
 70
     0
  0
ENDSEC
  0
SECTION
  2
CLASSES
  0
CLASS
  1
ACDBDICTIONARYWDFLT
  2
AcDbDictionaryWithDefault
  3
ObjectDBX Classes
 90
        0
280
     0
281
     0
  0
CLASS
  1
VISUALSTYLE
  2
AcDbVisualStyle
  3
ObjectDBX Classes
 90
     4095
280
     0
281
     0
  0
CLASS
  1
MATERIAL
  2
AcDbMaterial
  3
ObjectDBX Classes
 90
     1153
280
     0
281
     0
  0
CLASS
  1
SCALE
  2
AcDbScale
  3
ObjectDBX Classes
 90
     1153
280
     0
281
     0
  0
CLASS
  1
SUN
  2
AcDbSun
  3
SCENEOE
 90
     1153
280
     0
281
     0
  0
CLASS
  1
DICTIONARYVAR
  2
AcDbDictionaryVar
  3
ObjectDBX Classes
 90
        0
280
     0
281
     0
  0
CLASS
  1
XRECORD
  2
AcDbXrecord
  3
ObjectDBX Classes
 90
        0
280
     0
281
     0
  0
CLASS
  1
LWPOLYLINE
  2
AcDbPolyline
  3
ObjectDBX Classes
 90
        0
280
     0
281
     1
  0
CLASS
  1
HATCH
  2
AcDbHatch
  3
ObjectDBX Classes
 90
        0
280
     0
281
     1
  0
CLASS
  1
ACDBPLACEHOLDER
  2
AcDbPlaceHolder
  3
ObjectDBX Classes
 90
        0
280
     0
281
     0
  0
CLASS
  1
LAYOUT
  2
AcDbLayout
  3
ObjectDBX Classes
 90
        0
280
     0
281
     0
  0
ENDSEC
  0
SECTION
  2
TABLES
  0
TABLE
  2
VPORT
  5
8
102
{ACAD_XDICTIONARY
360
376
102
}
330
0
100
AcDbSymbolTable
 70
     1
  0
VPORT
  5
29
330
8
100
AcDbSymbolTableRecord
100
AcDbViewportTableRecord
  2
*ACTIVE
 70
     0
 10
0.0
 20
0.0
 11
1.0
 21
1.0
 12
0.0
 22
0.0
 13
0.0
 23
0.0
 14
0.5
 24
0.5
 15
0.5
 25
0.5
 16
0.0
 26
0.0
 36
1.0
 17
0.0
 27
0.0
 37
-1000.0
 40
155.7670113189873
 41
2.199770378874856
 42
50.0
 43
377.3449578343264
 44
489.1393929086211
 50
0.0
 51
0.0
 71
     0
 72
   100
 73
     1
 74
     3
 75
     0
 76
     0
 77
     0
 78
     0
  0
ENDTAB
  0
TABLE
  2
LTYPE
  5
5
330
0
100
AcDbSymbolTable
 70
     1
  0
LTYPE
  5
14
330
5
100
AcDbSymbolTableRecord
100
AcDbLinetypeTableRecord
  2
BYBLOCK
 70
     0
  3

 72
    65
 73
     0
 40
0.0
  0
LTYPE
  5
15
330
5
100
AcDbSymbolTableRecord
100
AcDbLinetypeTableRecord
  2
BYLAYER
 70
     0
  3

 72
    65
 73
     0
 40
0.0
  0
LTYPE
  5
16
330
5
100
AcDbSymbolTableRecord
100
AcDbLinetypeTableRecord
  2
CONTINUOUS
 70
     0
  3
Solid line
 72
    65
 73
     0
 40
0.0
  0
ENDTAB
  0
TABLE
  2
LAYER
  5
2
330
0
100
AcDbSymbolTable
 70
     3
  0
LAYER
  5
10
330
2
100
AcDbSymbolTableRecord
100
AcDbLayerTableRecord
  2
0
 70
     0
 62
     7
  6
CONTINUOUS
  0
LAYER
  5
6A
330
2
100
AcDbSymbolTableRecord
100
AcDbLayerTableRecord
  2
PROFILEEDGES
 70
     0
 62
     7
  6
CONTINUOUS
  0
LAYER
  5
6B
330
2
100
AcDbSymbolTableRecord
100
AcDbLayerTableRecord
  2
SECTIONCUTEDGES
 70
     0
 62
     7
  6
CONTINUOUS
  0
ENDTAB
  0
TABLE
  2
STYLE
  5
3
330
0
100
AcDbSymbolTable
 70
     1
  0
STYLE
  5
11
330
3
100
AcDbSymbolTableRecord
100
AcDbTextStyleTableRecord
  2
STANDARD
 70
     0
 40
0.0
 41
1.0
 50
0.0
 71
     0
 42
0.2
  3
txt
  4

  0
ENDTAB
  0
TABLE
  2
VIEW
  5
6
330
0
100
AcDbSymbolTable
 70
     0
  0
ENDTAB
  0
TABLE
  2
UCS
  5
7
330
0
100
AcDbSymbolTable
 70
     0
  0
ENDTAB
  0
TABLE
  2
APPID
  5
9
330
0
100
AcDbSymbolTable
 70
     1
  0
APPID
  5
12
330
9
100
AcDbSymbolTableRecord
100
AcDbRegAppTableRecord
  2
ACAD
 70
     0
  0
ENDTAB
  0
TABLE
  2
DIMSTYLE
  5
A
330
0
100
AcDbSymbolTable
 70
     1
  0
DIMSTYLE
105
27
330
A
100
AcDbSymbolTableRecord
100
AcDbDimStyleTableRecord
  2
STANDARD
 70
     0
  3

  4

  5

  6

  7

 40
1.0
 41
0.18
 42
0.0625
 43
0.38
 44
0.18
 45
0.0
 46
0.0
 47
0.0
 48
0.0
140
0.18
141
0.09
142
0.0
143
25.4
144
1.0
145
0.0
146
1.0
147
0.09
 71
     0
 72
     0
 73
     1
 74
     1
 75
     0
 76
     0
 77
     0
 78
     0
170
     0
171
     2
172
     0
173
     0
174
     0
175
     0
176
     0
177
     0
178
     0
270
     2
271
     4
272
     4
273
     2
274
     2
340
11
275
     0
280
     0
281
     0
282
     0
283
     1
284
     0
285
     0
286
     0
287
     3
288
     0
  0
ENDTAB
  0
TABLE
  2
BLOCK_RECORD
  5
1
330
0
100
AcDbSymbolTable
 70
     1
  0
BLOCK_RECORD
  5
1F
330
1
100
AcDbSymbolTableRecord
100
AcDbBlockTableRecord
  2
*MODEL_SPACE
  0
BLOCK_RECORD
  5
1B
330
1
100
AcDbSymbolTableRecord
100
AcDbBlockTableRecord
  2
*PAPER_SPACE
  0
ENDTAB
  0
ENDSEC
  0
SECTION
  2
BLOCKS
  0
BLOCK
  5
20
330
1F
100
AcDbEntity
  8
0
100
AcDbBlockBegin
  2
*MODEL_SPACE
 70
     0
 10
0.0
 20
0.0
 30
0.0
  3
*MODEL_SPACE
  1

  0
ENDBLK
  5
21
330
1F
100
AcDbEntity
  8
0
100
AcDbBlockEnd
  0
BLOCK
  5
1C
330
1B
100
AcDbEntity
 67
     1
  8
0
100
AcDbBlockBegin
  2
*PAPER_SPACE
 70
     0
 10
0.0
 20
0.0
 30
0.0
  3
*PAPER_SPACE
  1

  0
ENDBLK
  5
1D
330
1B
100
AcDbEntity
 67
     1
  8
0
100
AcDbBlockEnd
  0
ENDSEC
  0
SECTION
  2
ENTITIES
  0
LINE
  5
6C
330
1F
100
AcDbEntity
  8
0
100
AcDbLine
 10
-52.4734551323785
 20
73.98933037651895
 30
0.0
 11
52.4734551323785
 21
73.98933037651895
 31
0.0
  0
LINE
  5
6D
330
1F
100
AcDbEntity
  8
0
100
AcDbLine
 10
-52.44875398262589
 20
28.76066962348086
 30
0.0
 11
-27.73560471505849
 21
28.76066962348086
 31
0.0
  0
LINE
  5
6E
330
1F
100
AcDbEntity
  8
0
100
AcDbLine
 10
-21.73560376866543
 20
28.76066962348086
 30
0.0
 11
21.73672756618926
 21
28.76066962348086
 31
0.0
  0
LINE
  5
6F
330
1F
100
AcDbEntity
  8
0
100
AcDbLine
 10
27.73672756618916
 20
28.76066962348086
 30
0.0
 11
52.47345513237841
 21
28.76066962348086
 31
0.0
  0
LINE
  5
70
330
1F
100
AcDbEntity
  8
0
100
AcDbLine
 10
2.999999999999995
 20
32.01066962348087
 30
0.0
 11
46.47345513237852
 21
32.01066962348087
 31
0.0
  0
LINE
  5
71
330
1F
100
AcDbEntity
  8
0
100
AcDbLine
 10
-46.47345513237852
 20
32.01066962348087
 30
0.0
 11
-2.999999999999995
 21
32.01066962348087
 31
0.0
  0
LINE
  5
72
330
1F
100
AcDbEntity
  8
0
100
AcDbLine
 10
-21.73560376866543
 20
-73.98933037651895
 30
0.0
 11
21.73672756618926
 21
-73.98933037651895
 31
0.0
  0
LINE
  5
73
330
1F
100
AcDbEntity
  8
0
100
AcDbLine
 10
-52.44875398262589
 20
-73.98933037651895
 30
0.0
 11
-27.73560471505849
 21
-73.98933037651895
 31
0.0
  0
LINE
  5
74
330
1F
100
AcDbEntity
  8
0
100
AcDbLine
 10
27.73672756618925
 20
-73.98933037651895
 30
0.0
 11
52.4734551323785
 21
-73.98933037651895
 31
0.0
  0
LINE
  5
75
330
1F
100
AcDbEntity
  8
0
100
AcDbLine
 10
-52.4734551323785
 20
73.98933037651895
 30
0.0
 11
-52.44875398262589
 21
28.76066962348086
 31
0.0
  0
LINE
  5
76
330
1F
100
AcDbEntity
  8
0
100
AcDbLine
 10
21.73672756618926
 20
-73.98933037651895
 30
0.0
 11
27.73672756618925
 21
-73.98933037651895
 31
0.0
  0
LINE
  5
77
330
1F
100
AcDbEntity
  8
0
100
AcDbLine
 10
52.4734551323785
 20
73.98933037651895
 30
0.0
 11
52.47345513237841
 21
28.76066962348086
 31
0.0
  0
LINE
  5
78
330
1F
100
AcDbEntity
  8
0
100
AcDbLine
 10
-27.73560471505849
 20
-73.98933037651895
 30
0.0
 11
-21.73560376866543
 21
-73.98933037651895
 31
0.0
  0
LINE
  5
79
330
1F
100
AcDbEntity
  8
0
100
AcDbLine
 10
-43.56865710047079
 20
45.67356893384287
 30
0.0
 11
-33.13529758010566
 21
45.67356893384287
 31
0.0
  0
LINE
  5
7A
330
1F
100
AcDbEntity
  8
0
100
AcDbLine
 10
-43.56865710047079
 20
49.67356893384287
 30
0.0
 11
-33.13529758010566
 21
49.67356893384287
 31
0.0
  0
LINE
  5
7B
330
1F
100
AcDbEntity
  8
0
100
AcDbLine
 10
-49.50574142776188
 20
47.67356893384287
 30
0.0
 11
-39.07211219599117
 21
47.67356893384287
 31
0.0
  0
LINE
  5
7C
330
1F
100
AcDbEntity
  8
0
100
AcDbLine
 10
-37.63211219599116
 20
47.67356893384287
 30
0.0
 11
-27.19848296422023
 21
47.67356893384287
 31
0.0
  0
LINE
  5
7D
330
1F
100
AcDbEntity
  8
0
100
AcDbLine
 10
-45.89817297327952
 20
68.91040536251609
 30
0.0
 11
-46.26726110975888
 21
68.69945216631261
 31
0.0
  0
LINE
  5
7E
330
1F
100
AcDbEntity
  8
0
100
AcDbLine
 10
-45.09359705153097
 20
69.1796162571431
 30
0.0
 11
-45.50470751953595
 21
69.07137815583418
 31
0.0
  0
LINE
  5
7F
330
1F
100
AcDbEntity
  8
0
100
AcDbLine
 10
-42.02065747399939
 20
68.12153197276868
 30
0.0
 11
-42.31994965339283
 21
68.42344503116826
 31
0.0
  0
LINE
  5
80
330
1F
100
AcDbEntity
  8
0
100
AcDbLine
 10
-44.24675948282515
 20
69.23141444120226
 30
0.0
 11
-44.67187578335347
 21
69.23326768252018
 31
0.0
  0
LINE
  5
81
330
1F
100
AcDbEntity
  8
0
100
AcDbLine
 10
-46.26726110975888
 20
68.69945216631261
 30
0.0
 11
-46.60565672862826
 21
68.44212803489803
 31
0.0
  0
LINE
  5
82
330
1F
100
AcDbEntity
  8
0
100
AcDbLine
 10
-47.54639470991009
 20
67.04741466089337
 30
0.0
 11
-47.65821299852169
 21
66.63726350118486
 31
0.0
  0
LINE
  5
83
330
1F
100
AcDbEntity
  8
0
100
AcDbLine
 10
-44.67187578335347
 20
69.23326768252018
 30
0.0
 11
-45.09359705153097
 21
69.1796162571431
 31
0.0
  0
LINE
  5
84
330
1F
100
AcDbEntity
  8
0
100
AcDbLine
 10
-47.16783446882231
 20
67.80669660030124
 30
0.0
 11
-47.38199757314711
 21
67.43946170513983
 31
0.0
  0
LINE
  5
85
330
1F
100
AcDbEntity
  8
0
100
AcDbLine
 10
-45.50470751953595
 20
69.07137815583418
 30
0.0
 11
-45.89817297327952
 21
68.91040536251609
 31
0.0
  0
LINE
  5
86
330
1F
100
AcDbEntity
  8
0
100
AcDbLine
 10
-41.28316925175435
 20
66.60947229567137
 30
0.0
 11
-41.39140735306327
 21
67.02058276367639
 31
0.0
  0
LINE
  5
87
330
1F
100
AcDbEntity
  8
0
100
AcDbLine
 10
-41.76333334258484
 20
67.78313635389928
 30
0.0
 11
-42.02065747399939
 21
68.12153197276868
 31
0.0
  0
LINE
  5
88
330
1F
100
AcDbEntity
  8
0
100
AcDbLine
 10
-41.55238014638136
 20
67.41404821741993
 30
0.0
 11
-41.76333334258484
 21
67.78313635389928
 31
0.0
  0
LINE
  5
89
330
1F
100
AcDbEntity
  8
0
100
AcDbLine
 10
-46.90756978702782
 20
68.1428358555046
 30
0.0
 11
-47.16783446882231
 21
67.80669660030124
 31
0.0
  0
LINE
  5
8A
330
1F
100
AcDbEntity
  8
0
100
AcDbLine
 10
-46.60565672862826
 20
68.44212803489803
 30
0.0
 11
-46.90756978702782
 21
68.1428358555046
 31
0.0
  0
LINE
  5
8B
330
1F
100
AcDbEntity
  8
0
100
AcDbLine
 10
-47.39453011837568
 20
64.56461253561794
 30
0.0
 11
-47.1835769221722
 21
64.19552439913859
 31
0.0
  0
LINE
  5
8C
330
1F
100
AcDbEntity
  8
0
100
AcDbLine
 10
-43.82552200771262
 20
69.17408824266211
 30
0.0
 11
-44.24675948282515
 21
69.23141444120226
 31
0.0
  0
LINE
  5
8D
330
1F
100
AcDbEntity
  8
0
100
AcDbLine
 10
-42.31994965339283
 20
68.42344503116826
 30
0.0
 11
-42.65608890859622
 21
68.68370971296272
 31
0.0
  0
LINE
  5
8E
330
1F
100
AcDbEntity
  8
0
100
AcDbLine
 10
-43.41537084800409
 20
69.0622699540505
 30
0.0
 11
-43.82552200771262
 21
69.17408824266211
 31
0.0
  0
LINE
  5
8F
330
1F
100
AcDbEntity
  8
0
100
AcDbLine
 10
-44.27503448140361
 20
62.7453930705177
 30
0.0
 11
-43.85331321322607
 21
62.79904449589477
 31
0.0
  0
LINE
  5
90
330
1F
100
AcDbEntity
  8
0
100
AcDbLine
 10
-42.65608890859622
 20
68.68370971296272
 30
0.0
 11
-43.0233238037576
 21
68.89787281728755
 31
0.0
  0
LINE
  5
91
330
1F
100
AcDbEntity
  8
0
100
AcDbLine
 10
-47.38199757314711
 20
67.43946170513983
 30
0.0
 11
-47.54639470991009
 21
67.04741466089337
 31
0.0
  0
LINE
  5
92
330
1F
100
AcDbEntity
  8
0
100
AcDbLine
 10
-41.23137106769517
 20
65.76263472696554
 30
0.0
 11
-41.22951782637728
 21
66.18775102749385
 31
0.0
  0
LINE
  5
93
330
1F
100
AcDbEntity
  8
0
100
AcDbLine
 10
-44.70015078193189
 20
62.74724631183561
 30
0.0
 11
-44.27503448140361
 21
62.7453930705177
 31
0.0
  0
LINE
  5
94
330
1F
100
AcDbEntity
  8
0
100
AcDbLine
 10
-42.03934047772922
 20
63.83582489753322
 30
0.0
 11
-41.77907579593473
 21
64.1719641527366
 31
0.0
  0
LINE
  5
95
330
1F
100
AcDbEntity
  8
0
100
AcDbLine
 10
-45.92358646099944
 20
63.08078793575032
 30
0.0
 11
-45.53153941675294
 21
62.91639079898736
 31
0.0
  0
LINE
  5
96
330
1F
100
AcDbEntity
  8
0
100
AcDbLine
 10
-41.39140735306327
 20
67.02058276367639
 30
0.0
 11
-41.55238014638136
 21
67.41404821741993
 31
0.0
  0
LINE
  5
97
330
1F
100
AcDbEntity
  8
0
100
AcDbLine
 10
-47.1835769221722
 20
64.19552439913859
 30
0.0
 11
-46.92625279075764
 21
63.85712878026919
 31
0.0
  0
LINE
  5
98
330
1F
100
AcDbEntity
  8
0
100
AcDbLine
 10
-43.0233238037576
 20
68.89787281728755
 30
0.0
 11
-43.41537084800409
 21
69.0622699540505
 31
0.0
  0
LINE
  5
99
330
1F
100
AcDbEntity
  8
0
100
AcDbLine
 10
-45.12138825704442
 20
62.80457251037579
 30
0.0
 11
-44.70015078193189
 21
62.74724631183561
 31
0.0
  0
LINE
  5
9A
330
1F
100
AcDbEntity
  8
0
100
AcDbLine
 10
-47.71553919706187
 20
66.21602602607231
 30
0.0
 11
-47.71739243837976
 21
65.79090972554403
 31
0.0
  0
LINE
  5
9B
330
1F
100
AcDbEntity
  8
0
100
AcDbLine
 10
-42.34125353612878
 20
63.53653271813983
 30
0.0
 11
-42.03934047772922
 21
63.83582489753322
 31
0.0
  0
LINE
  5
9C
330
1F
100
AcDbEntity
  8
0
100
AcDbLine
 10
-41.77907579593473
 20
64.1719641527366
 30
0.0
 11
-41.56491269160993
 21
64.53919904789804
 31
0.0
  0
LINE
  5
9D
330
1F
100
AcDbEntity
  8
0
100
AcDbLine
 10
-47.66374101300269
 20
65.36918845736649
 30
0.0
 11
-47.55550291169376
 21
64.95807798936148
 31
0.0
  0
LINE
  5
9E
330
1F
100
AcDbEntity
  8
0
100
AcDbLine
 10
-41.56491269160993
 20
64.53919904789804
 30
0.0
 11
-41.40051555484695
 21
64.9312460921445
 31
0.0
  0
LINE
  5
9F
330
1F
100
AcDbEntity
  8
0
100
AcDbLine
 10
-46.62696061136421
 20
63.55521572186961
 30
0.0
 11
-46.29082135616082
 21
63.29495104007515
 31
0.0
  0
LINE
  5
A0
330
1F
100
AcDbEntity
  8
0
100
AcDbLine
 10
-46.92625279075764
 20
63.85712878026919
 30
0.0
 11
-46.62696061136421
 21
63.55521572186961
 31
0.0
  0
LINE
  5
A1
330
1F
100
AcDbEntity
  8
0
100
AcDbLine
 10
-41.22951782637728
 20
66.18775102749385
 30
0.0
 11
-41.28316925175435
 21
66.60947229567137
 31
0.0
  0
LINE
  5
A2
330
1F
100
AcDbEntity
  8
0
100
AcDbLine
 10
-41.40051555484695
 20
64.9312460921445
 30
0.0
 11
-41.2886972662354
 21
65.34139725185301
 31
0.0
  0
LINE
  5
A3
330
1F
100
AcDbEntity
  8
0
100
AcDbLine
 10
-42.6796491549982
 20
63.27920858672523
 30
0.0
 11
-42.34125353612878
 21
63.53653271813983
 31
0.0
  0
LINE
  5
A4
330
1F
100
AcDbEntity
  8
0
100
AcDbLine
 10
-47.65821299852169
 20
66.63726350118486
 30
0.0
 11
-47.71553919706187
 21
66.21602602607231
 31
0.0
  0
LINE
  5
A5
330
1F
100
AcDbEntity
  8
0
100
AcDbLine
 10
-43.85331321322607
 20
62.79904449589477
 30
0.0
 11
-43.44220274522109
 21
62.90728259720369
 31
0.0
  0
LINE
  5
A6
330
1F
100
AcDbEntity
  8
0
100
AcDbLine
 10
-41.2886972662354
 20
65.34139725185301
 30
0.0
 11
-41.23137106769517
 21
65.76263472696554
 31
0.0
  0
LINE
  5
A7
330
1F
100
AcDbEntity
  8
0
100
AcDbLine
 10
-43.04873729147752
 20
63.06825539052178
 30
0.0
 11
-42.6796491549982
 21
63.27920858672523
 31
0.0
  0
LINE
  5
A8
330
1F
100
AcDbEntity
  8
0
100
AcDbLine
 10
-47.55550291169376
 20
64.95807798936148
 30
0.0
 11
-47.39453011837568
 21
64.56461253561794
 31
0.0
  0
LINE
  5
A9
330
1F
100
AcDbEntity
  8
0
100
AcDbLine
 10
-43.44220274522109
 20
62.90728259720369
 30
0.0
 11
-43.04873729147752
 21
63.06825539052178
 31
0.0
  0
LINE
  5
AA
330
1F
100
AcDbEntity
  8
0
100
AcDbLine
 10
-47.71739243837976
 20
65.79090972554403
 30
0.0
 11
-47.66374101300269
 21
65.36918845736649
 31
0.0
  0
LINE
  5
AB
330
1F
100
AcDbEntity
  8
0
100
AcDbLine
 10
-46.29082135616082
 20
63.29495104007515
 30
0.0
 11
-45.92358646099944
 21
63.08078793575032
 31
0.0
  0
LINE
  5
AC
330
1F
100
AcDbEntity
  8
0
100
AcDbLine
 10
-45.53153941675294
 20
62.91639079898736
 30
0.0
 11
-45.12138825704442
 21
62.80457251037579
 31
0.0
  0
LINE
  5
AD
330
1F
100
AcDbEntity
  8
0
100
AcDbLine
 10
-52.44875398262589
 20
28.76066962348086
 30
0.0
 11
-52.44875398262589
 21
22.26066962348085
 31
0.0
  0
LINE
  5
AE
330
1F
100
AcDbEntity
  8
0
100
AcDbLine
 10
52.47345513237841
 20
28.76066962348086
 30
0.0
 11
52.47345513237841
 21
22.26066962348085
 31
0.0
  0
LINE
  5
AF
330
1F
100
AcDbEntity
  8
0
100
AcDbLine
 10
50.19510205137252
 20
66.94424239640338
 30
0.0
 11
48.7817696751636
 21
68.24265935888526
 31
0.0
  0
LINE
  5
B0
330
1F
100
AcDbEntity
  8
0
100
AcDbLine
 10
48.7817696751636
 20
68.24265935888526
 30
0.0
 11
47.86371849169751
 21
68.53991288295445
 31
0.0
  0
LINE
  5
B1
330
1F
100
AcDbEntity
  8
0
100
AcDbLine
 10
41.25544613920972
 20
66.38069042281151
 30
0.0
 11
42.28238379467334
 21
65.78973717150795
 31
0.0
  0
LINE
  5
B2
330
1F
100
AcDbEntity
  8
0
100
AcDbLine
 10
48.49511720402129
 20
67.24912867857992
 30
0.0
 11
50.19510205137252
 21
66.94424239640338
 31
0.0
  0
LINE
  5
B3
330
1F
100
AcDbEntity
  8
0
100
AcDbLine
 10
42.04798085602187
 20
65.67423625576555
 30
0.0
 11
40.77755067326689
 21
59.52350534760116
 31
0.0
  0
LINE
  5
B4
330
1F
100
AcDbEntity
  8
0
100
AcDbLine
 10
42.2294708821298
 20
71.13759489215228
 30
0.0
 11
34.44575378111192
 21
71.65238202228063
 31
0.0
  0
LINE
  5
B5
330
1F
100
AcDbEntity
  8
0
100
AcDbLine
 10
43.91843063443712
 20
62.83697045042065
 30
0.0
 11
44.21610820062335
 21
63.0197326028797
 31
0.0
  0
LINE
  5
B6
330
1F
100
AcDbEntity
  8
0
100
AcDbLine
 10
42.04798085602187
 20
65.67423625576555
 30
0.0
 11
43.91843063443712
 21
62.83697045042065
 31
0.0
  0
LINE
  5
B7
330
1F
100
AcDbEntity
  8
0
100
AcDbLine
 10
44.86531668186432
 20
62.22592575971645
 30
0.0
 11
44.21610820062335
 21
63.0197326028797
 31
0.0
  0
LINE
  5
B8
330
1F
100
AcDbEntity
  8
0
100
AcDbLine
 10
47.88407251331709
 20
64.88170153895351
 30
0.0
 11
48.49511720402129
 21
67.24912867857992
 31
0.0
  0
LINE
  5
B9
330
1F
100
AcDbEntity
  8
0
100
AcDbLine
 10
44.49258366095587
 20
64.51787340250364
 30
0.0
 11
47.84506063854619
 21
65.15817699928598
 31
0.0
  0
LINE
  5
BA
330
1F
100
AcDbEntity
  8
0
100
AcDbLine
 10
47.86371849169751
 20
68.53991288295445
 30
0.0
 11
45.67975184371099
 21
67.463773866761
 31
0.0
  0
LINE
  5
BB
330
1F
100
AcDbEntity
  8
0
100
AcDbLine
 10
40.77755067326689
 20
59.52350534760116
 30
0.0
 11
44.86531668186432
 21
62.22592575971645
 31
0.0
  0
LINE
  5
BC
330
1F
100
AcDbEntity
  8
0
100
AcDbLine
 10
42.2294708821298
 20
71.13759489215228
 30
0.0
 11
41.25544613920972
 21
66.38069042281151
 31
0.0
  0
LINE
  5
BD
330
1F
100
AcDbEntity
  8
0
100
AcDbLine
 10
34.38850809530675
 20
70.77376675570244
 30
0.0
 11
38.72815512144637
 21
68.3367967088758
 31
0.0
  0
LINE
  5
BE
330
1F
100
AcDbEntity
  8
0
100
AcDbLine
 10
48.7817696751636
 20
68.24265935888526
 30
0.0
 11
48.49511720402129
 21
67.24912867857992
 31
0.0
  0
LINE
  5
BF
330
1F
100
AcDbEntity
  8
0
100
AcDbLine
 10
47.84506063854619
 20
65.15817699928598
 30
0.0
 11
45.67975184371099
 21
67.463773866761
 31
0.0
  0
LINE
  5
C0
330
1F
100
AcDbEntity
  8
0
100
AcDbLine
 10
35.58133857063699
 20
70.77376675570244
 30
0.0
 11
34.38850809530675
 21
70.77376675570244
 31
0.0
  0
LINE
  5
C1
330
1F
100
AcDbEntity
  8
0
100
AcDbLine
 10
34.44575378111192
 20
71.65238202228063
 30
0.0
 11
35.58133857063699
 21
70.77376675570244
 31
0.0
  0
LINE
  5
C2
330
1F
100
AcDbEntity
  8
0
100
AcDbLine
 10
35.58133857063699
 20
70.77376675570244
 30
0.0
 11
38.72815512144637
 21
68.3367967088758
 31
0.0
  0
LINE
  5
C3
330
1F
100
AcDbEntity
  8
0
100
AcDbLine
 10
44.21610820062335
 20
63.0197326028797
 30
0.0
 11
44.29201173957969
 21
63.05789639341643
 31
0.0
  0
LINE
  5
C4
330
1F
100
AcDbEntity
  8
0
100
AcDbLine
 10
42.28238379467334
 20
65.78973717150795
 30
0.0
 11
42.04798085602187
 21
65.67423625576555
 31
0.0
  0
LINE
  5
C5
330
1F
100
AcDbEntity
  8
0
100
AcDbLine
 10
45.67975184371099
 20
67.463773866761
 30
0.0
 11
42.28238379467334
 21
65.78973717150795
 31
0.0
  0
LINE
  5
C6
330
1F
100
AcDbEntity
  8
0
100
AcDbLine
 10
45.67975184371099
 20
67.463773866761
 30
0.0
 11
42.2294708821298
 21
71.13759489215228
 31
0.0
  0
LINE
  5
C7
330
1F
100
AcDbEntity
  8
0
100
AcDbLine
 10
44.29201173957969
 20
63.05789639341643
 30
0.0
 11
47.88407251331709
 21
64.88170153895351
 31
0.0
  0
LINE
  5
C8
330
1F
100
AcDbEntity
  8
0
100
AcDbLine
 10
38.72815512144637
 20
68.3367967088758
 30
0.0
 11
41.25544613920972
 21
66.38069042281151
 31
0.0
  0
LINE
  5
C9
330
1F
100
AcDbEntity
  8
0
100
AcDbLine
 10
42.28238379467334
 20
65.78973717150795
 30
0.0
 11
44.49258366095587
 21
64.51787340250364
 31
0.0
  0
LINE
  5
CA
330
1F
100
AcDbEntity
  8
0
100
AcDbLine
 10
-18.83795233845435
 20
61.80664587527233
 30
0.0
 11
-18.89454187567769
 21
61.21698289740513
 31
0.0
  0
LINE
  5
CB
330
1F
100
AcDbEntity
  8
0
100
AcDbLine
 10
-18.89454187567769
 20
61.21698289740513
 30
0.0
 11
-19.06431048734771
 21
60.69749094569486
 31
0.0
  0
LINE
  5
CC
330
1F
100
AcDbEntity
  8
0
100
AcDbLine
 10
-19.06431048734771
 20
60.69749094569486
 30
0.0
 11
-19.34725817346441
 21
60.24817002014155
 31
0.0
  0
LINE
  5
CD
330
1F
100
AcDbEntity
  8
0
100
AcDbLine
 10
-19.34725817346441
 20
60.24817002014155
 30
0.0
 11
-19.74338493402779
 21
59.86902012074516
 31
0.0
  0
LINE
  5
CE
330
1F
100
AcDbEntity
  8
0
100
AcDbLine
 10
-19.74338493402779
 20
59.86902012074516
 30
0.0
 11
-20.24476823382658
 21
59.56796378271699
 31
0.0
  0
LINE
  5
CF
330
1F
100
AcDbEntity
  8
0
100
AcDbLine
 10
-20.24476823382658
 20
59.56796378271699
 30
0.0
 11
-20.84348553764952
 21
59.35292354126831
 31
0.0
  0
LINE
  5
D0
330
1F
100
AcDbEntity
  8
0
100
AcDbLine
 10
-20.84348553764952
 20
59.35292354126831
 30
0.0
 11
-21.5395368454966
 21
59.22389939639909
 31
0.0
  0
LINE
  5
D1
330
1F
100
AcDbEntity
  8
0
100
AcDbLine
 10
-21.5395368454966
 20
59.22389939639909
 30
0.0
 11
-22.33292215736783
 21
59.18089134810935
 31
0.0
  0
LINE
  5
D2
330
1F
100
AcDbEntity
  8
0
100
AcDbLine
 10
-22.33292215736783
 20
59.18089134810935
 30
0.0
 11
-23.57638292195536
 21
59.28652515092625
 31
0.0
  0
LINE
  5
D3
330
1F
100
AcDbEntity
  8
0
100
AcDbLine
 10
-23.57638292195536
 20
59.28652515092625
 30
0.0
 11
-24.63272095012437
 21
59.56720925555402
 31
0.0
  0
LINE
  5
D4
330
1F
100
AcDbEntity
  8
0
100
AcDbLine
 10
-24.63272095012437
 20
59.56720925555402
 30
0.0
 11
-24.63272095012437
 21
61.58330583503088
 31
0.0
  0
LINE
  5
D5
330
1F
100
AcDbEntity
  8
0
100
AcDbLine
 10
-24.63272095012437
 20
61.58330583503088
 30
0.0
 11
-24.19962235857507
 21
61.36751106641921
 31
0.0
  0
LINE
  5
D6
330
1F
100
AcDbEntity
  8
0
100
AcDbLine
 10
-24.19962235857507
 20
61.36751106641921
 30
0.0
 11
-23.70917970263946
 21
61.20302414489004
 31
0.0
  0
LINE
  5
D7
330
1F
100
AcDbEntity
  8
0
100
AcDbLine
 10
-23.70917970263946
 20
61.20302414489004
 30
0.0
 11
-23.18704690585878
 21
61.09889939639909
 31
0.0
  0
LINE
  5
D8
330
1F
100
AcDbEntity
  8
0
100
AcDbLine
 10
-23.18704690585878
 20
61.09889939639909
 30
0.0
 11
-22.65887789177427
 21
61.06419114690211
 31
0.0
  0
LINE
  5
D9
330
1F
100
AcDbEntity
  8
0
100
AcDbLine
 10
-22.65887789177427
 20
61.06419114690211
 30
0.0
 11
-22.11486380726723
 21
61.1192716297995
 31
0.0
  0
LINE
  5
DA
330
1F
100
AcDbEntity
  8
0
100
AcDbLine
 10
-22.11486380726723
 20
61.1192716297995
 30
0.0
 11
-21.71420988372598
 21
61.28451307849165
 31
0.0
  0
LINE
  5
DB
330
1F
100
AcDbEntity
  8
0
100
AcDbLine
 10
-21.71420988372598
 20
61.28451307849165
 30
0.0
 11
-21.46747950143222
 21
61.55237022134879
 31
0.0
  0
LINE
  5
DC
330
1F
100
AcDbEntity
  8
0
100
AcDbLine
 10
-21.46747950143222
 20
61.55237022134879
 30
0.0
 11
-21.38523604066763
 21
61.91529778674114
 31
0.0
  0
LINE
  5
DD
330
1F
100
AcDbEntity
  8
0
100
AcDbLine
 10
-21.38523604066763
 20
61.91529778674114
 30
0.0
 11
-21.48634268050666
 21
62.28652515092625
 31
0.0
  0
LINE
  5
DE
330
1F
100
AcDbEntity
  8
0
100
AcDbLine
 10
-21.48634268050666
 20
62.28652515092625
 30
0.0
 11
-21.78966260002377
 21
62.56720925555402
 31
0.0
  0
LINE
  5
DF
330
1F
100
AcDbEntity
  8
0
100
AcDbLine
 10
-21.78966260002377
 20
62.56720925555402
 30
0.0
 11
-22.27406903865555
 21
62.74376861169083
 31
0.0
  0
LINE
  5
E0
330
1F
100
AcDbEntity
  8
0
100
AcDbLine
 10
-22.27406903865555
 20
62.74376861169083
 30
0.0
 11
-22.91843523583866
 21
62.80262173040311
 31
0.0
  0
LINE
  5
E1
330
1F
100
AcDbEntity
  8
0
100
AcDbLine
 10
-22.91843523583866
 20
62.80262173040311
 30
0.0
 11
-23.75143322376622
 21
62.80262173040311
 31
0.0
  0
LINE
  5
E2
330
1F
100
AcDbEntity
  8
0
100
AcDbLine
 10
-23.75143322376622
 20
62.80262173040311
 30
0.0
 11
-23.75143322376622
 21
64.69799396380351
 31
0.0
  0
LINE
  5
E3
330
1F
100
AcDbEntity
  8
0
100
AcDbLine
 10
-23.75143322376622
 20
64.69799396380351
 30
0.0
 11
-23.01501471269982
 21
64.69799396380351
 31
0.0
  0
LINE
  5
E4
330
1F
100
AcDbEntity
  8
0
100
AcDbLine
 10
-23.01501471269982
 20
64.69799396380351
 30
0.0
 11
-22.38045736863544
 21
64.75458350102686
 31
0.0
  0
LINE
  5
E5
330
1F
100
AcDbEntity
  8
0
100
AcDbLine
 10
-22.38045736863544
 20
64.75458350102686
 30
0.0
 11
-21.93754992396743
 21
64.92435211269688
 31
0.0
  0
LINE
  5
E6
330
1F
100
AcDbEntity
  8
0
100
AcDbLine
 10
-21.93754992396743
 20
64.92435211269688
 30
0.0
 11
-21.67723805274006
 21
65.18466398392424
 31
0.0
  0
LINE
  5
E7
330
1F
100
AcDbEntity
  8
0
100
AcDbLine
 10
-21.67723805274006
 20
65.18466398392424
 30
0.0
 11
-21.59046742899761
 21
65.51288329981962
 31
0.0
  0
LINE
  5
E8
330
1F
100
AcDbEntity
  8
0
100
AcDbLine
 10
-21.59046742899761
 20
65.51288329981962
 30
0.0
 11
-21.65611129217668
 21
65.82073038231458
 31
0.0
  0
LINE
  5
E9
330
1F
100
AcDbEntity
  8
0
100
AcDbLine
 10
-21.65611129217668
 20
65.82073038231458
 30
0.0
 11
-21.85304288171391
 21
66.05614285716368
 31
0.0
  0
LINE
  5
EA
330
1F
100
AcDbEntity
  8
0
100
AcDbLine
 10
-21.85304288171391
 20
66.05614285716368
 30
0.0
 11
-22.18578936058715
 21
66.20553923543328
 31
0.0
  0
LINE
  5
EB
330
1F
100
AcDbEntity
  8
0
100
AcDbLine
 10
-22.18578936058715
 20
66.20553923543328
 30
0.0
 11
-22.65887789177427
 21
66.25533802818984
 31
0.0
  0
LINE
  5
EC
330
1F
100
AcDbEntity
  8
0
100
AcDbLine
 10
-22.65887789177427
 20
66.25533802818984
 30
0.0
 11
-23.49791209700566
 21
66.13461368211337
 31
0.0
  0
LINE
  5
ED
330
1F
100
AcDbEntity
  8
0
100
AcDbLine
 10
-23.49791209700566
 20
66.13461368211337
 30
0.0
 11
-24.33694630223705
 21
65.77244064388401
 31
0.0
  0
LINE
  5
EE
330
1F
100
AcDbEntity
  8
0
100
AcDbLine
 10
-24.33694630223705
 20
65.77244064388401
 30
0.0
 11
-24.33694630223705
 21
67.69799396380351
 31
0.0
  0
LINE
  5
EF
330
1F
100
AcDbEntity
  8
0
100
AcDbLine
 10
-24.33694630223705
 20
67.69799396380351
 30
0.0
 11
-23.25948151350465
 21
68.02394969820995
 31
0.0
  0
LINE
  5
F0
330
1F
100
AcDbEntity
  8
0
100
AcDbLine
 10
-23.25948151350465
 20
68.02394969820995
 30
0.0
 11
-22.12769076903785
 21
68.13260160967876
 31
0.0
  0
LINE
  5
F1
330
1F
100
AcDbEntity
  8
0
100
AcDbLine
 10
-22.12769076903785
 20
68.13260160967876
 30
0.0
 11
-21.44823905877628
 21
68.09600704227435
 31
0.0
  0
LINE
  5
F2
330
1F
100
AcDbEntity
  8
0
100
AcDbLine
 10
-21.44823905877628
 20
68.09600704227435
 30
0.0
 11
-20.84650364630143
 21
67.98622334006106
 31
0.0
  0
LINE
  5
F3
330
1F
100
AcDbEntity
  8
0
100
AcDbLine
 10
-20.84650364630143
 20
67.98622334006106
 30
0.0
 11
-20.3224845316133
 21
67.80325050303894
 31
0.0
  0
LINE
  5
F4
330
1F
100
AcDbEntity
  8
0
100
AcDbLine
 10
-20.3224845316133
 20
67.80325050303894
 30
0.0
 11
-19.87618171471189
 21
67.54708853120793
 31
0.0
  0
LINE
  5
F5
330
1F
100
AcDbEntity
  8
0
100
AcDbLine
 10
-19.87618171471189
 20
67.54708853120793
 30
0.0
 11
-19.51966763020485
 21
67.22603722336086
 31
0.0
  0
LINE
  5
F6
330
1F
100
AcDbEntity
  8
0
100
AcDbLine
 10
-19.51966763020485
 20
67.22603722336086
 30
0.0
 11
-19.26501471269982
 21
66.84839637829045
 31
0.0
  0
LINE
  5
F7
330
1F
100
AcDbEntity
  8
0
100
AcDbLine
 10
-19.26501471269982
 20
66.84839637829045
 30
0.0
 11
-19.11222296219681
 21
66.41416599599667
 31
0.0
  0
LINE
  5
F8
330
1F
100
AcDbEntity
  8
0
100
AcDbLine
 10
-19.11222296219681
 20
66.41416599599667
 30
0.0
 11
-19.0612923786958
 21
65.92334607647958
 31
0.0
  0
LINE
  5
F9
330
1F
100
AcDbEntity
  8
0
100
AcDbLine
 10
-19.0612923786958
 20
65.92334607647958
 30
0.0
 11
-19.17069881732759
 21
65.17938229378339
 31
0.0
  0
LINE
  5
FA
330
1F
100
AcDbEntity
  8
0
100
AcDbLine
 10
-19.17069881732759
 20
65.17938229378339
 30
0.0
 11
-19.49891813322296
 21
64.56519718311941
 31
0.0
  0
LINE
  5
FB
330
1F
100
AcDbEntity
  8
0
100
AcDbLine
 10
-19.49891813322296
 20
64.56519718311941
 30
0.0
 11
-20.02482356581853
 21
64.11097183100674
 31
0.0
  0
LINE
  5
FC
330
1F
100
AcDbEntity
  8
0
100
AcDbLine
 10
-20.02482356581853
 20
64.11097183100674
 30
0.0
 11
-20.72728835455093
 21
63.84688732396448
 31
0.0
  0
LINE
  5
FD
330
1F
100
AcDbEntity
  8
0
100
AcDbLine
 10
-20.72728835455093
 20
63.84688732396448
 30
0.0
 11
-20.72728835455093
 21
63.81670623744537
 31
0.0
  0
LINE
  5
FE
330
1F
100
AcDbEntity
  8
0
100
AcDbLine
 10
-20.72728835455093
 20
63.81670623744537
 30
0.0
 11
-19.9440891593799
 21
63.58959356138903
 31
0.0
  0
LINE
  5
FF
330
1F
100
AcDbEntity
  8
0
100
AcDbLine
 10
-19.9440891593799
 20
63.58959356138903
 30
0.0
 11
-19.62152879720686
 21
63.39624597587596
 31
0.0
  0
LINE
  5
100
330
1F
100
AcDbEntity
  8
0
100
AcDbLine
 10
-19.62152879720686
 20
63.39624597587596
 30
0.0
 11
-19.34499459197547
 21
63.14970422537294
 31
0.0
  0
LINE
  5
101
330
1F
100
AcDbEntity
  8
0
100
AcDbLine
 10
-19.34499459197547
 20
63.14970422537294
 30
0.0
 11
-19.12316360605998
 21
62.86090895374315
 31
0.0
  0
LINE
  5
102
330
1F
100
AcDbEntity
  8
0
100
AcDbLine
 10
-19.12316360605998
 20
62.86090895374315
 30
0.0
 11
-18.96471290183463
 21
62.54080080484979
 31
0.0
  0
LINE
  5
103
330
1F
100
AcDbEntity
  8
0
100
AcDbLine
 10
-18.96471290183463
 20
62.54080080484979
 30
0.0
 11
-18.86964247929942
 21
62.18937977869285
 31
0.0
  0
LINE
  5
104
330
1F
100
AcDbEntity
  8
0
100
AcDbLine
 10
-18.86964247929942
 20
62.18937977869285
 30
0.0
 11
-18.83795233845435
 21
61.80664587527233
 31
0.0
  0
LINE
  5
105
330
1F
100
AcDbEntity
  8
0
100
AcDbLine
 10
-14.54016561813242
 20
60.40624346078541
 30
0.0
 11
-14.63674509499358
 21
59.90976458754597
 31
0.0
  0
LINE
  5
106
330
1F
100
AcDbEntity
  8
0
100
AcDbLine
 10
-14.63674509499358
 20
59.90976458754597
 30
0.0
 11
-14.92648352557709
 21
59.51891951712343
 31
0.0
  0
LINE
  5
107
330
1F
100
AcDbEntity
  8
0
100
AcDbLine
 10
-14.92648352557709
 20
59.51891951712343
 30
0.0
 11
-15.38674509499359
 21
59.26539839036287
 31
0.0
  0
LINE
  5
108
330
1F
100
AcDbEntity
  8
0
100
AcDbLine
 10
-15.38674509499359
 20
59.26539839036287
 30
0.0
 11
-15.99489398835374
 21
59.18089134810935
 31
0.0
  0
LINE
  5
109
330
1F
100
AcDbEntity
  8
0
100
AcDbLine
 10
-15.99489398835374
 20
59.18089134810935
 30
0.0
 11
-16.56003483342417
 21
59.26917102617776
 31
0.0
  0
LINE
  5
10A
330
1F
100
AcDbEntity
  8
0
100
AcDbLine
 10
-16.56003483342417
 20
59.26917102617776
 30
0.0
 11
-17.01199660404791
 21
59.53401006038299
 31
0.0
  0
LINE
  5
10B
330
1F
100
AcDbEntity
  8
0
100
AcDbLine
 10
-17.01199660404791
 20
59.53401006038299
 30
0.0
 11
-17.30852577909821
 21
59.92862776662042
 31
0.0
  0
LINE
  5
10C
330
1F
100
AcDbEntity
  8
0
100
AcDbLine
 10
-17.30852577909821
 20
59.92862776662042
 30
0.0
 11
-17.40736883744831
 21
60.40624346078541
 31
0.0
  0
LINE
  5
10D
330
1F
100
AcDbEntity
  8
0
100
AcDbLine
 10
-17.40736883744831
 20
60.40624346078541
 30
0.0
 11
-17.31003483342417
 21
60.88687726360231
 31
0.0
  0
LINE
  5
10E
330
1F
100
AcDbEntity
  8
0
100
AcDbLine
 10
-17.31003483342417
 20
60.88687726360231
 30
0.0
 11
-17.01803282135173
 21
61.26640442658017
 31
0.0
  0
LINE
  5
10F
330
1F
100
AcDbEntity
  8
0
100
AcDbLine
 10
-17.01803282135173
 20
61.26640442658017
 30
0.0
 11
-16.56154388775013
 21
61.51313480887394
 31
0.0
  0
LINE
  5
110
330
1F
100
AcDbEntity
  8
0
100
AcDbLine
 10
-16.56154388775013
 20
61.51313480887394
 30
0.0
 11
-15.97074911913846
 21
61.59537826963853
 31
0.0
  0
LINE
  5
111
330
1F
100
AcDbEntity
  8
0
100
AcDbLine
 10
-15.97074911913846
 20
61.59537826963853
 30
0.0
 11
-15.39202678513443
 21
61.51313480887394
 31
0.0
  0
LINE
  5
112
330
1F
100
AcDbEntity
  8
0
100
AcDbLine
 10
-15.39202678513443
 20
61.51313480887394
 30
0.0
 11
-14.93553785153282
 21
61.26640442658017
 31
0.0
  0
LINE
  5
113
330
1F
100
AcDbEntity
  8
0
100
AcDbLine
 10
-14.93553785153282
 20
61.26640442658017
 30
0.0
 11
-14.63900867648252
 21
60.88687726360231
 31
0.0
  0
LINE
  5
114
330
1F
100
AcDbEntity
  8
0
100
AcDbLine
 10
-14.63900867648252
 20
60.88687726360231
 30
0.0
 11
-14.54016561813242
 21
60.40624346078541
 31
0.0
  0
LINE
  5
115
330
1F
100
AcDbEntity
  8
0
100
AcDbLine
 10
-13.45364650344429
 20
59.33179678070493
 30
0.0
 11
-13.45364650344429
 21
60.02596177064456
 31
0.0
  0
LINE
  5
116
330
1F
100
AcDbEntity
  8
0
100
AcDbLine
 10
-13.45364650344429
 20
60.02596177064456
 30
0.0
 11
-13.40837487366561
 21
60.71409054328038
 31
0.0
  0
LINE
  5
117
330
1F
100
AcDbEntity
  8
0
100
AcDbLine
 10
-13.40837487366561
 20
60.71409054328038
 30
0.0
 11
-13.2725599843296
 21
61.30563983905503
 31
0.0
  0
LINE
  5
118
330
1F
100
AcDbEntity
  8
0
100
AcDbLine
 10
-13.2725599843296
 20
61.30563983905503
 30
0.0
 11
-13.03941109096944
 21
61.83229979881359
 31
0.0
  0
LINE
  5
119
330
1F
100
AcDbEntity
  8
0
100
AcDbLine
 10
-13.03941109096944
 20
61.83229979881359
 30
0.0
 11
-12.70213744911833
 21
62.3257605634011
 31
0.0
  0
LINE
  5
11A
330
1F
100
AcDbEntity
  8
0
100
AcDbLine
 10
-12.70213744911833
 20
62.3257605634011
 30
0.0
 11
-12.16868674489298
 21
62.87052917507113
 31
0.0
  0
LINE
  5
11B
330
1F
100
AcDbEntity
  8
0
100
AcDbLine
 10
-12.16868674489298
 20
62.87052917507113
 30
0.0
 11
-11.34700666441008
 21
63.55111267607715
 31
0.0
  0
LINE
  5
11C
330
1F
100
AcDbEntity
  8
0
100
AcDbLine
 10
-11.34700666441008
 20
63.55111267607715
 30
0.0
 11
-10.43251974288091
 21
64.33280281692224
 31
0.0
  0
LINE
  5
11D
330
1F
100
AcDbEntity
  8
0
100
AcDbLine
 10
-10.43251974288091
 20
64.33280281692224
 30
0.0
 11
-10.09449157386682
 21
64.79457344066469
 31
0.0
  0
LINE
  5
11E
330
1F
100
AcDbEntity
  8
0
100
AcDbLine
 10
-10.09449157386682
 20
64.79457344066469
 30
0.0
 11
-9.9828215537461
 21
65.27747082497052
 31
0.0
  0
LINE
  5
11F
330
1F
100
AcDbEntity
  8
0
100
AcDbLine
 10
-9.9828215537461
 20
65.27747082497052
 30
0.0
 11
-10.0477108897622
 21
65.65511167004094
 31
0.0
  0
LINE
  5
120
330
1F
100
AcDbEntity
  8
0
100
AcDbLine
 10
-10.0477108897622
 20
65.65511167004094
 30
0.0
 11
-10.24237889781049
 21
65.92485513080553
 31
0.0
  0
LINE
  5
121
330
1F
100
AcDbEntity
  8
0
100
AcDbLine
 10
-10.24237889781049
 20
65.92485513080553
 30
0.0
 11
-10.56682557789097
 21
66.08670120726428
 31
0.0
  0
LINE
  5
122
330
1F
100
AcDbEntity
  8
0
100
AcDbLine
 10
-10.56682557789097
 20
66.08670120726428
 30
0.0
 11
-11.02105093000364
 21
66.1406498994172
 31
0.0
  0
LINE
  5
123
330
1F
100
AcDbEntity
  8
0
100
AcDbLine
 10
-11.02105093000364
 20
66.1406498994172
 30
0.0
 11
-11.54205193603986
 21
66.0927374245681
 31
0.0
  0
LINE
  5
124
330
1F
100
AcDbEntity
  8
0
100
AcDbLine
 10
-11.54205193603986
 20
66.0927374245681
 30
0.0
 11
-12.0487169259795
 21
65.94900000002083
 31
0.0
  0
LINE
  5
125
330
1F
100
AcDbEntity
  8
0
100
AcDbLine
 10
-12.0487169259795
 20
65.94900000002083
 30
0.0
 11
-12.54104589982256
 21
65.70943762577535
 31
0.0
  0
LINE
  5
126
330
1F
100
AcDbEntity
  8
0
100
AcDbLine
 10
-12.54104589982256
 20
65.70943762577535
 30
0.0
 11
-13.01903885756904
 21
65.37405030183169
 31
0.0
  0
LINE
  5
127
330
1F
100
AcDbEntity
  8
0
100
AcDbLine
 10
-13.01903885756904
 20
65.37405030183169
 30
0.0
 11
-13.01903885756904
 21
67.48069014086589
 31
0.0
  0
LINE
  5
128
330
1F
100
AcDbEntity
  8
0
100
AcDbLine
 10
-13.01903885756904
 20
67.48069014086589
 30
0.0
 11
-12.32411934046642
 21
67.7870281690349
 31
0.0
  0
LINE
  5
129
330
1F
100
AcDbEntity
  8
0
100
AcDbLine
 10
-12.32411934046642
 20
67.7870281690349
 30
0.0
 11
-11.67598050746843
 21
67.9816961770832
 31
0.0
  0
LINE
  5
12A
330
1F
100
AcDbEntity
  8
0
100
AcDbLine
 10
-11.67598050746843
 20
67.9816961770832
 30
0.0
 11
-11.04293221773
 21
68.08582092557414
 31
0.0
  0
LINE
  5
12B
330
1F
100
AcDbEntity
  8
0
100
AcDbLine
 10
-11.04293221773
 20
68.08582092557414
 30
0.0
 11
-10.39328433040606
 21
68.12052917507113
 31
0.0
  0
LINE
  5
12C
330
1F
100
AcDbEntity
  8
0
100
AcDbLine
 10
-10.39328433040606
 20
68.12052917507113
 30
0.0
 11
-9.727036845496603
 21
68.07865291752586
 31
0.0
  0
LINE
  5
12D
330
1F
100
AcDbEntity
  8
0
100
AcDbLine
 10
-9.727036845496603
 20
68.07865291752586
 30
0.0
 11
-9.140769239862799
 21
67.95302414489004
 31
0.0
  0
LINE
  5
12E
330
1F
100
AcDbEntity
  8
0
100
AcDbLine
 10
-9.140769239862799
 20
67.95302414489004
 30
0.0
 11
-8.63448151350465
 21
67.74364285716368
 31
0.0
  0
LINE
  5
12F
330
1F
100
AcDbEntity
  8
0
100
AcDbLine
 10
-8.63448151350465
 20
67.74364285716368
 30
0.0
 11
-8.208173666422157
 21
67.45050905434678
 31
0.0
  0
LINE
  5
130
330
1F
100
AcDbEntity
  8
0
100
AcDbLine
 10
-8.208173666422157
 20
67.45050905434678
 30
0.0
 11
-7.870145497408075
 21
67.08116800806911
 31
0.0
  0
LINE
  5
131
330
1F
100
AcDbEntity
  8
0
100
AcDbLine
 10
-7.870145497408075
 20
67.08116800806911
 30
0.0
 11
-7.628696805255154
 21
66.64316498996045
 31
0.0
  0
LINE
  5
132
330
1F
100
AcDbEntity
  8
0
100
AcDbLine
 10
-7.628696805255154
 20
66.64316498996045
 30
0.0
 11
-7.483827589963405
 21
66.13650000002083
 31
0.0
  0
LINE
  5
133
330
1F
100
AcDbEntity
  8
0
100
AcDbLine
 10
-7.483827589963405
 20
66.13650000002083
 30
0.0
 11
-7.43553785153282
 21
65.56117303825019
 31
0.0
  0
LINE
  5
134
330
1F
100
AcDbEntity
  8
0
100
AcDbLine
 10
-7.43553785153282
 20
65.56117303825019
 30
0.0
 11
-7.536644491371855
 21
64.69648490947756
 31
0.0
  0
LINE
  5
135
330
1F
100
AcDbEntity
  8
0
100
AcDbLine
 10
-7.536644491371855
 20
64.69648490947756
 30
0.0
 11
-7.839964410888956
 21
63.97364788734477
 31
0.0
  0
LINE
  5
136
330
1F
100
AcDbEntity
  8
0
100
AcDbLine
 10
-7.839964410888956
 20
63.97364788734477
 30
0.0
 11
-8.417932217730003
 21
63.30815492959829
 31
0.0
  0
LINE
  5
137
330
1F
100
AcDbEntity
  8
0
100
AcDbLine
 10
-8.417932217730003
 20
63.30815492959829
 30
0.0
 11
-9.342982519540868
 21
62.6154989939846
 31
0.0
  0
LINE
  5
138
330
1F
100
AcDbEntity
  8
0
100
AcDbLine
 10
-9.342982519540868
 20
62.6154989939846
 30
0.0
 11
-10.4566646120962
 21
61.82173641853188
 31
0.0
  0
LINE
  5
139
330
1F
100
AcDbEntity
  8
0
100
AcDbLine
 10
-10.4566646120962
 20
61.82173641853188
 30
0.0
 11
-10.66415958191511
 21
61.59009657949769
 31
0.0
  0
LINE
  5
13A
330
1F
100
AcDbEntity
  8
0
100
AcDbLine
 10
-10.66415958191511
 20
61.59009657949769
 30
0.0
 11
-10.73734871672397
 21
61.39618309861236
 31
0.0
  0
LINE
  5
13B
330
1F
100
AcDbEntity
  8
0
100
AcDbLine
 10
-10.73734871672397
 20
61.39618309861236
 30
0.0
 11
-7.357067026583121
 21
61.39618309861236
 31
0.0
  0
LINE
  5
13C
330
1F
100
AcDbEntity
  8
0
100
AcDbLine
 10
-7.357067026583121
 20
61.39618309861236
 30
0.0
 11
-7.357067026583121
 21
59.33179678070493
 31
0.0
  0
LINE
  5
13D
330
1F
100
AcDbEntity
  8
0
100
AcDbLine
 10
-7.357067026583121
 20
59.33179678070493
 30
0.0
 11
-13.45364650344429
 21
59.33179678070493
 31
0.0
  0
LINE
  5
13E
330
1F
100
AcDbEntity
  8
0
100
AcDbLine
 10
-0.0109905678306055
 20
62.25936217305905
 30
0.0
 11
-0.115869843484529
 21
61.41806438633873
 31
0.0
  0
LINE
  5
13F
330
1F
100
AcDbEntity
  8
0
100
AcDbLine
 10
-0.115869843484529
 20
61.41806438633873
 30
0.0
 11
-0.4305076704462997
 21
60.66881891350171
 31
0.0
  0
LINE
  5
140
330
1F
100
AcDbEntity
  8
0
100
AcDbLine
 10
-0.4305076704462997
 20
60.66881891350171
 30
0.0
 11
-0.9428316141082701
 21
60.04331589539305
 31
0.0
  0
LINE
  5
141
330
1F
100
AcDbEntity
  8
0
100
AcDbLine
 10
-0.9428316141082701
 20
60.04331589539305
 30
0.0
 11
-1.640769239862798
 21
59.57324547285784
 31
0.0
  0
LINE
  5
142
330
1F
100
AcDbEntity
  8
0
100
AcDbLine
 10
-1.640769239862798
 20
59.57324547285784
 30
0.0
 11
-2.502439259983527
 21
59.27897987929646
 31
0.0
  0
LINE
  5
143
330
1F
100
AcDbEntity
  8
0
100
AcDbLine
 10
-2.502439259983527
 20
59.27897987929646
 30
0.0
 11
-3.505960386744088
 21
59.18089134810935
 31
0.0
  0
LINE
  5
144
330
1F
100
AcDbEntity
  8
0
100
AcDbLine
 10
-3.505960386744088
 20
59.18089134810935
 30
0.0
 11
-4.752439259983523
 21
59.28350704227434
 31
0.0
  0
LINE
  5
145
330
1F
100
AcDbEntity
  8
0
100
AcDbLine
 10
-4.752439259983523
 20
59.28350704227434
 30
0.0
 11
-5.817831614108273
 21
59.54306438633873
 31
0.0
  0
LINE
  5
146
330
1F
100
AcDbEntity
  8
0
100
AcDbLine
 10
-5.817831614108273
 20
59.54306438633873
 30
0.0
 11
-5.817831614108273
 21
61.54708853120794
 31
0.0
  0
LINE
  5
147
330
1F
100
AcDbEntity
  8
0
100
AcDbLine
 10
-5.817831614108273
 20
61.54708853120794
 30
0.0
 11
-4.886745094993585
 21
61.18491549297858
 31
0.0
  0
LINE
  5
148
330
1F
100
AcDbEntity
  8
0
100
AcDbLine
 10
-4.886745094993585
 20
61.18491549297858
 30
0.0
 11
-3.904350728796402
 21
61.06419114690211
 31
0.0
  0
LINE
  5
149
330
1F
100
AcDbEntity
  8
0
100
AcDbLine
 10
-3.904350728796402
 20
61.06419114690211
 30
0.0
 11
-3.321101231814507
 21
61.12455331994033
 31
0.0
  0
LINE
  5
14A
330
1F
100
AcDbEntity
  8
0
100
AcDbLine
 10
-3.321101231814507
 20
61.12455331994033
 30
0.0
 11
-2.899320547709881
 21
61.30563983905503
 31
0.0
  0
LINE
  5
14B
330
1F
100
AcDbEntity
  8
0
100
AcDbLine
 10
-2.899320547709881
 20
61.30563983905503
 30
0.0
 11
-2.643535839460385
 21
61.59688732396447
 31
0.0
  0
LINE
  5
14C
330
1F
100
AcDbEntity
  8
0
100
AcDbLine
 10
-2.643535839460385
 20
61.59688732396447
 30
0.0
 11
-2.558274270043887
 21
61.98773239438702
 31
0.0
  0
LINE
  5
14D
330
1F
100
AcDbEntity
  8
0
100
AcDbLine
 10
-2.558274270043887
 20
61.98773239438702
 30
0.0
 11
-2.657117328393989
 21
62.40498591551378
 31
0.0
  0
LINE
  5
14E
330
1F
100
AcDbEntity
  8
0
100
AcDbLine
 10
-2.657117328393989
 20
62.40498591551378
 30
0.0
 11
-2.953646503444289
 21
62.70302414489004
 31
0.0
  0
LINE
  5
14F
330
1F
100
AcDbEntity
  8
0
100
AcDbLine
 10
-2.953646503444289
 20
62.70302414489004
 30
0.0
 11
-3.447861795194794
 21
62.8818470825158
 31
0.0
  0
LINE
  5
150
330
1F
100
AcDbEntity
  8
0
100
AcDbLine
 10
-3.447861795194794
 20
62.8818470825158
 30
0.0
 11
-4.139763203645495
 21
62.94145472839104
 31
0.0
  0
LINE
  5
151
330
1F
100
AcDbEntity
  8
0
100
AcDbLine
 10
-4.139763203645495
 20
62.94145472839104
 30
0.0
 11
-4.901835638253141
 21
62.90372837024215
 31
0.0
  0
LINE
  5
152
330
1F
100
AcDbEntity
  8
0
100
AcDbLine
 10
-4.901835638253141
 20
62.90372837024215
 30
0.0
 11
-5.606564008474468
 21
62.79054929579546
 31
0.0
  0
LINE
  5
153
330
1F
100
AcDbEntity
  8
0
100
AcDbLine
 10
-5.606564008474468
 20
62.79054929579546
 30
0.0
 11
-5.28060827406803
 21
67.98773239438702
 31
0.0
  0
LINE
  5
154
330
1F
100
AcDbEntity
  8
0
100
AcDbLine
 10
-5.28060827406803
 20
67.98773239438702
 30
0.0
 11
-0.3912722579714512
 21
67.98773239438702
 31
0.0
  0
LINE
  5
155
330
1F
100
AcDbEntity
  8
0
100
AcDbLine
 10
-0.3912722579714512
 20
67.98773239438702
 30
0.0
 11
-0.3912722579714512
 21
65.98370824951779
 31
0.0
  0
LINE
  5
156
330
1F
100
AcDbEntity
  8
0
100
AcDbLine
 10
-0.3912722579714512
 20
65.98370824951779
 30
0.0
 11
-3.288656563806462
 21
65.98370824951779
 31
0.0
  0
LINE
  5
157
330
1F
100
AcDbEntity
  8
0
100
AcDbLine
 10
-3.288656563806462
 20
65.98370824951779
 30
0.0
 11
-3.373163606059983
 21
64.77042857144939
 31
0.0
  0
LINE
  5
158
330
1F
100
AcDbEntity
  8
0
100
AcDbLine
 10
-3.373163606059983
 20
64.77042857144939
 30
0.0
 11
-2.715215919943283
 21
64.80664587527232
 31
0.0
  0
LINE
  5
159
330
1F
100
AcDbEntity
  8
0
100
AcDbLine
 10
-2.715215919943283
 20
64.80664587527232
 30
0.0
 11
-2.115744088957368
 21
64.76382645877334
 31
0.0
  0
LINE
  5
15A
330
1F
100
AcDbEntity
  8
0
100
AcDbLine
 10
-2.115744088957368
 20
64.76382645877334
 30
0.0
 11
-1.584934229802439
 21
64.63536820927635
 31
0.0
  0
LINE
  5
15B
330
1F
100
AcDbEntity
  8
0
100
AcDbLine
 10
-1.584934229802439
 20
64.63536820927635
 30
0.0
 11
-1.122786342478494
 21
64.42127112678139
 31
0.0
  0
LINE
  5
15C
330
1F
100
AcDbEntity
  8
0
100
AcDbLine
 10
-1.122786342478494
 20
64.42127112678139
 30
0.0
 11
-0.7293004269855367
 21
64.12153521128842
 31
0.0
  0
LINE
  5
15D
330
1F
100
AcDbEntity
  8
0
100
AcDbLine
 10
-0.7293004269855367
 20
64.12153521128842
 30
0.0
 11
-0.4150398636052532
 21
63.74823289740513
 31
0.0
  0
LINE
  5
15E
330
1F
100
AcDbEntity
  8
0
100
AcDbLine
 10
-0.4150398636052532
 20
63.74823289740513
 30
0.0
 11
-0.1905680326193369
 21
63.31343661973914
 31
0.0
  0
LINE
  5
15F
330
1F
100
AcDbEntity
  8
0
100
AcDbLine
 10
-0.1905680326193369
 20
63.31343661973914
 30
0.0
 11
-0.0558849340277876
 21
62.81714637829043
 31
0.0
  0
LINE
  5
160
330
1F
100
AcDbEntity
  8
0
100
AcDbLine
 10
-0.0558849340277876
 20
62.81714637829043
 30
0.0
 11
-0.0109905678306055
 21
62.25936217305905
 31
0.0
  0
LINE
  5
161
330
1F
100
AcDbEntity
  8
0
100
AcDbLine
 10
9.447761947259938
 20
59.33179678070493
 30
0.0
 11
9.447761947259938
 21
62.89316498996046
 31
0.0
  0
LINE
  5
162
330
1F
100
AcDbEntity
  8
0
100
AcDbLine
 10
9.447761947259938
 20
62.89316498996046
 30
0.0
 11
9.407772007622112
 21
63.28325553322001
 31
0.0
  0
LINE
  5
163
330
1F
100
AcDbEntity
  8
0
100
AcDbLine
 10
9.407772007622112
 20
63.28325553322001
 30
0.0
 11
9.287802188708628
 21
63.56016700203289
 31
0.0
  0
LINE
  5
164
330
1F
100
AcDbEntity
  8
0
100
AcDbLine
 10
9.287802188708628
 20
63.56016700203289
 30
0.0
 11
9.077289110237801
 21
63.72540845072504
 31
0.0
  0
LINE
  5
165
330
1F
100
AcDbEntity
  8
0
100
AcDbLine
 10
9.077289110237801
 20
63.72540845072504
 30
0.0
 11
8.765669391927943
 21
63.78048893362243
 31
0.0
  0
LINE
  5
166
330
1F
100
AcDbEntity
  8
0
100
AcDbLine
 10
8.765669391927943
 20
63.78048893362243
 30
0.0
 11
8.448767983477241
 21
63.7133360161174
 31
0.0
  0
LINE
  5
167
330
1F
100
AcDbEntity
  8
0
100
AcDbLine
 10
8.448767983477241
 20
63.7133360161174
 30
0.0
 11
8.210337399976234
 21
63.51187726360231
 31
0.0
  0
LINE
  5
168
330
1F
100
AcDbEntity
  8
0
100
AcDbLine
 10
8.210337399976234
 20
63.51187726360231
 30
0.0
 11
8.06094102170662
 21
63.19120321933671
 31
0.0
  0
LINE
  5
169
330
1F
100
AcDbEntity
  8
0
100
AcDbLine
 10
8.06094102170662
 20
63.19120321933671
 30
0.0
 11
8.011142228950082
 21
62.76640442658017
 31
0.0
  0
LINE
  5
16A
330
1F
100
AcDbEntity
  8
0
100
AcDbLine
 10
8.011142228950082
 20
62.76640442658017
 30
0.0
 11
8.011142228950082
 21
59.33179678070493
 31
0.0
  0
LINE
  5
16B
330
1F
100
AcDbEntity
  8
0
100
AcDbLine
 10
8.011142228950082
 20
59.33179678070493
 30
0.0
 11
5.439713657521508
 21
59.33179678070493
 31
0.0
  0
LINE
  5
16C
330
1F
100
AcDbEntity
  8
0
100
AcDbLine
 10
5.439713657521508
 20
59.33179678070493
 30
0.0
 11
5.439713657521508
 21
62.83280281692223
 31
0.0
  0
LINE
  5
16D
330
1F
100
AcDbEntity
  8
0
100
AcDbLine
 10
5.439713657521508
 20
62.83280281692223
 30
0.0
 11
5.399346454302192
 21
63.24741549297857
 31
0.0
  0
LINE
  5
16E
330
1F
100
AcDbEntity
  8
0
100
AcDbLine
 10
5.399346454302192
 20
63.24741549297857
 30
0.0
 11
5.278244844644244
 21
63.54356740444737
 31
0.0
  0
LINE
  5
16F
330
1F
100
AcDbEntity
  8
0
100
AcDbLine
 10
5.278244844644244
 20
63.54356740444737
 30
0.0
 11
5.076408828547666
 21
63.72125855132867
 31
0.0
  0
LINE
  5
170
330
1F
100
AcDbEntity
  8
0
100
AcDbLine
 10
5.076408828547666
 20
63.72125855132867
 30
0.0
 11
4.793838406012449
 21
63.78048893362243
 31
0.0
  0
LINE
  5
171
330
1F
100
AcDbEntity
  8
0
100
AcDbLine
 10
4.793838406012449
 20
63.78048893362243
 30
0.0
 11
4.449774019694549
 21
63.71182696179145
 31
0.0
  0
LINE
  5
172
330
1F
100
AcDbEntity
  8
0
100
AcDbLine
 10
4.449774019694549
 20
63.71182696179145
 30
0.0
 11
4.202289110237805
 21
63.50584104629848
 31
0.0
  0
LINE
  5
173
330
1F
100
AcDbEntity
  8
0
100
AcDbLine
 10
4.202289110237805
 20
63.50584104629848
 30
0.0
 11
4.052892731968189
 21
63.17158551309929
 31
0.0
  0
LINE
  5
174
330
1F
100
AcDbEntity
  8
0
100
AcDbLine
 10
4.052892731968189
 20
63.17158551309929
 30
0.0
 11
4.003093939211645
 21
62.71811468814959
 31
0.0
  0
LINE
  5
175
330
1F
100
AcDbEntity
  8
0
100
AcDbLine
 10
4.003093939211645
 20
62.71811468814959
 30
0.0
 11
4.003093939211645
 21
59.33179678070493
 31
0.0
  0
LINE
  5
176
330
1F
100
AcDbEntity
  8
0
100
AcDbLine
 10
4.003093939211645
 20
59.33179678070493
 30
0.0
 11
1.431665367783078
 21
59.33179678070493
 31
0.0
  0
LINE
  5
177
330
1F
100
AcDbEntity
  8
0
100
AcDbLine
 10
1.431665367783078
 20
59.33179678070493
 30
0.0
 11
1.431665367783078
 21
65.51288329981962
 31
0.0
  0
LINE
  5
178
330
1F
100
AcDbEntity
  8
0
100
AcDbLine
 10
1.431665367783078
 20
65.51288329981962
 30
0.0
 11
4.003093939211645
 21
65.51288329981962
 31
0.0
  0
LINE
  5
179
330
1F
100
AcDbEntity
  8
0
100
AcDbLine
 10
4.003093939211645
 20
65.51288329981962
 30
0.0
 11
4.003093939211645
 21
64.5350160966003
 31
0.0
  0
LINE
  5
17A
330
1F
100
AcDbEntity
  8
0
100
AcDbLine
 10
4.02723880842694
 20
64.5350160966003
 30
0.0
 11
4.489009432169395
 21
65.06318511068481
 31
0.0
  0
LINE
  5
17B
330
1F
100
AcDbEntity
  8
0
100
AcDbLine
 10
4.489009432169395
 20
65.06318511068481
 30
0.0
 11
5.204301182672411
 21
65.49779275656006
 31
0.0
  0
LINE
  5
17C
330
1F
100
AcDbEntity
  8
0
100
AcDbLine
 10
5.204301182672411
 20
65.49779275656006
 30
0.0
 11
5.619291122310242
 21
65.62228973845141
 31
0.0
  0
LINE
  5
17D
330
1F
100
AcDbEntity
  8
0
100
AcDbLine
 10
5.619291122310242
 20
65.62228973845141
 30
0.0
 11
6.067480257119095
 21
65.66378873241518
 31
0.0
  0
LINE
  5
17E
330
1F
100
AcDbEntity
  8
0
100
AcDbLine
 10
6.067480257119095
 20
65.66378873241518
 30
0.0
 11
6.673365568990321
 21
65.59889939639908
 31
0.0
  0
LINE
  5
17F
330
1F
100
AcDbEntity
  8
0
100
AcDbLine
 10
6.673365568990321
 20
65.59889939639908
 30
0.0
 11
7.175126132370601
 21
65.4042313883508
 31
0.0
  0
LINE
  5
180
330
1F
100
AcDbEntity
  8
0
100
AcDbLine
 10
7.175126132370601
 20
65.4042313883508
 30
0.0
 11
7.587852490519498
 21
65.06922132798863
 31
0.0
  0
LINE
  5
181
330
1F
100
AcDbEntity
  8
0
100
AcDbLine
 10
7.587852490519498
 20
65.06922132798863
 30
0.0
 11
7.926635186696554
 21
64.58330583503087
 31
0.0
  0
LINE
  5
182
330
1F
100
AcDbEntity
  8
0
100
AcDbLine
 10
7.926635186696554
 20
64.58330583503087
 30
0.0
 11
8.306916876837404
 21
65.0428128772844
 31
0.0
  0
LINE
  5
183
330
1F
100
AcDbEntity
  8
0
100
AcDbLine
 10
8.306916876837404
 20
65.0428128772844
 30
0.0
 11
8.795850478447061
 21
65.38310462778742
 31
0.0
  0
LINE
  5
184
330
1F
100
AcDbEntity
  8
0
100
AcDbLine
 10
8.795850478447061
 20
65.38310462778742
 30
0.0
 11
9.36929112231024
 21
65.59361770625824
 31
0.0
  0
LINE
  5
185
330
1F
100
AcDbEntity
  8
0
100
AcDbLine
 10
9.36929112231024
 20
65.59361770625824
 30
0.0
 11
10.00309393921165
 21
65.66378873241518
 31
0.0
  0
LINE
  5
186
330
1F
100
AcDbEntity
  8
0
100
AcDbLine
 10
10.00309393921165
 20
65.66378873241518
 30
0.0
 11
10.46071466355773
 21
65.62417605635885
 31
0.0
  0
LINE
  5
187
330
1F
100
AcDbEntity
  8
0
100
AcDbLine
 10
10.46071466355773
 20
65.62417605635885
 30
0.0
 11
10.86174585068046
 21
65.50533802818983
 31
0.0
  0
LINE
  5
188
330
1F
100
AcDbEntity
  8
0
100
AcDbLine
 10
10.86174585068046
 20
65.50533802818983
 30
0.0
 11
11.20618750057986
 21
65.30727464790814
 31
0.0
  0
LINE
  5
189
330
1F
100
AcDbEntity
  8
0
100
AcDbLine
 10
11.20618750057986
 20
65.30727464790814
 30
0.0
 11
11.49403961325592
 21
65.02998591551378
 31
0.0
  0
LINE
  5
18A
330
1F
100
AcDbEntity
  8
0
100
AcDbLine
 10
11.49403961325592
 20
65.02998591551378
 30
0.0
 11
11.72115228931225
 21
64.6779989939846
 31
0.0
  0
LINE
  5
18B
330
1F
100
AcDbEntity
  8
0
100
AcDbLine
 10
11.72115228931225
 20
64.6779989939846
 30
0.0
 11
11.88337562935249
 21
64.25584104629849
 31
0.0
  0
LINE
  5
18C
330
1F
100
AcDbEntity
  8
0
100
AcDbLine
 10
11.88337562935249
 20
64.25584104629849
 30
0.0
 11
11.98070963337664
 21
63.76351207245543
 31
0.0
  0
LINE
  5
18D
330
1F
100
AcDbEntity
  8
0
100
AcDbLine
 10
11.98070963337664
 20
63.76351207245543
 30
0.0
 11
12.01315430138469
 21
63.20101207245543
 31
0.0
  0
LINE
  5
18E
330
1F
100
AcDbEntity
  8
0
100
AcDbLine
 10
12.01315430138469
 20
63.20101207245543
 30
0.0
 11
12.01315430138469
 21
59.33179678070493
 31
0.0
  0
LINE
  5
18F
330
1F
100
AcDbEntity
  8
0
100
AcDbLine
 10
12.01315430138469
 20
59.33179678070493
 30
0.0
 11
9.447761947259938
 21
59.33179678070493
 31
0.0
  0
LINE
  5
190
330
1F
100
AcDbEntity
  8
0
100
AcDbLine
 10
21.19424082049938
 20
59.33179678070493
 30
0.0
 11
21.19424082049938
 21
62.89316498996046
 31
0.0
  0
LINE
  5
191
330
1F
100
AcDbEntity
  8
0
100
AcDbLine
 10
21.19424082049938
 20
62.89316498996046
 30
0.0
 11
21.15425088086155
 21
63.28325553322001
 31
0.0
  0
LINE
  5
192
330
1F
100
AcDbEntity
  8
0
100
AcDbLine
 10
21.15425088086155
 20
63.28325553322001
 30
0.0
 11
21.03428106194807
 21
63.56016700203289
 31
0.0
  0
LINE
  5
193
330
1F
100
AcDbEntity
  8
0
100
AcDbLine
 10
21.03428106194807
 20
63.56016700203289
 30
0.0
 11
20.82376798347724
 21
63.72540845072504
 31
0.0
  0
LINE
  5
194
330
1F
100
AcDbEntity
  8
0
100
AcDbLine
 10
20.82376798347724
 20
63.72540845072504
 30
0.0
 11
20.51214826516738
 21
63.78048893362243
 31
0.0
  0
LINE
  5
195
330
1F
100
AcDbEntity
  8
0
100
AcDbLine
 10
20.51214826516738
 20
63.78048893362243
 30
0.0
 11
20.19524685671668
 21
63.7133360161174
 31
0.0
  0
LINE
  5
196
330
1F
100
AcDbEntity
  8
0
100
AcDbLine
 10
20.19524685671668
 20
63.7133360161174
 30
0.0
 11
19.95681627321567
 21
63.51187726360231
 31
0.0
  0
LINE
  5
197
330
1F
100
AcDbEntity
  8
0
100
AcDbLine
 10
19.95681627321567
 20
63.51187726360231
 30
0.0
 11
19.80741989494605
 21
63.19120321933671
 31
0.0
  0
LINE
  5
198
330
1F
100
AcDbEntity
  8
0
100
AcDbLine
 10
19.80741989494605
 20
63.19120321933671
 30
0.0
 11
19.75762110218951
 21
62.76640442658017
 31
0.0
  0
LINE
  5
199
330
1F
100
AcDbEntity
  8
0
100
AcDbLine
 10
19.75762110218951
 20
62.76640442658017
 30
0.0
 11
19.75762110218951
 21
59.33179678070493
 31
0.0
  0
LINE
  5
19A
330
1F
100
AcDbEntity
  8
0
100
AcDbLine
 10
19.75762110218951
 20
59.33179678070493
 30
0.0
 11
17.18619253076094
 21
59.33179678070493
 31
0.0
  0
LINE
  5
19B
330
1F
100
AcDbEntity
  8
0
100
AcDbLine
 10
17.18619253076094
 20
59.33179678070493
 30
0.0
 11
17.18619253076094
 21
62.83280281692223
 31
0.0
  0
LINE
  5
19C
330
1F
100
AcDbEntity
  8
0
100
AcDbLine
 10
17.18619253076094
 20
62.83280281692223
 30
0.0
 11
17.14582532754163
 21
63.24741549297857
 31
0.0
  0
LINE
  5
19D
330
1F
100
AcDbEntity
  8
0
100
AcDbLine
 10
17.14582532754163
 20
63.24741549297857
 30
0.0
 11
17.02472371788368
 21
63.54356740444737
 31
0.0
  0
LINE
  5
19E
330
1F
100
AcDbEntity
  8
0
100
AcDbLine
 10
17.02472371788368
 20
63.54356740444737
 30
0.0
 11
16.8228877017871
 21
63.72125855132867
 31
0.0
  0
LINE
  5
19F
330
1F
100
AcDbEntity
  8
0
100
AcDbLine
 10
16.8228877017871
 20
63.72125855132867
 30
0.0
 11
16.54031727925189
 21
63.78048893362243
 31
0.0
  0
LINE
  5
1A0
330
1F
100
AcDbEntity
  8
0
100
AcDbLine
 10
16.54031727925189
 20
63.78048893362243
 30
0.0
 11
16.19625289293398
 21
63.71182696179145
 31
0.0
  0
LINE
  5
1A1
330
1F
100
AcDbEntity
  8
0
100
AcDbLine
 10
16.19625289293398
 20
63.71182696179145
 30
0.0
 11
15.94876798347724
 21
63.50584104629848
 31
0.0
  0
LINE
  5
1A2
330
1F
100
AcDbEntity
  8
0
100
AcDbLine
 10
15.94876798347724
 20
63.50584104629848
 30
0.0
 11
15.79937160520763
 21
63.17158551309929
 31
0.0
  0
LINE
  5
1A3
330
1F
100
AcDbEntity
  8
0
100
AcDbLine
 10
15.79937160520763
 20
63.17158551309929
 30
0.0
 11
15.74957281245108
 21
62.71811468814959
 31
0.0
  0
LINE
  5
1A4
330
1F
100
AcDbEntity
  8
0
100
AcDbLine
 10
15.74957281245108
 20
62.71811468814959
 30
0.0
 11
15.74957281245108
 21
59.33179678070493
 31
0.0
  0
LINE
  5
1A5
330
1F
100
AcDbEntity
  8
0
100
AcDbLine
 10
15.74957281245108
 20
59.33179678070493
 30
0.0
 11
13.17814424102251
 21
59.33179678070493
 31
0.0
  0
LINE
  5
1A6
330
1F
100
AcDbEntity
  8
0
100
AcDbLine
 10
13.17814424102251
 20
59.33179678070493
 30
0.0
 11
13.17814424102251
 21
65.51288329981962
 31
0.0
  0
LINE
  5
1A7
330
1F
100
AcDbEntity
  8
0
100
AcDbLine
 10
13.17814424102251
 20
65.51288329981962
 30
0.0
 11
15.74957281245108
 21
65.51288329981962
 31
0.0
  0
LINE
  5
1A8
330
1F
100
AcDbEntity
  8
0
100
AcDbLine
 10
15.74957281245108
 20
65.51288329981962
 30
0.0
 11
15.74957281245108
 21
64.5350160966003
 31
0.0
  0
LINE
  5
1A9
330
1F
100
AcDbEntity
  8
0
100
AcDbLine
 10
15.77371768166638
 20
64.5350160966003
 30
0.0
 11
16.23548830540883
 21
65.06318511068481
 31
0.0
  0
LINE
  5
1AA
330
1F
100
AcDbEntity
  8
0
100
AcDbLine
 10
16.23548830540883
 20
65.06318511068481
 30
0.0
 11
16.95078005591185
 21
65.49779275656006
 31
0.0
  0
LINE
  5
1AB
330
1F
100
AcDbEntity
  8
0
100
AcDbLine
 10
16.95078005591185
 20
65.49779275656006
 30
0.0
 11
17.36576999554968
 21
65.62228973845141
 31
0.0
  0
LINE
  5
1AC
330
1F
100
AcDbEntity
  8
0
100
AcDbLine
 10
17.36576999554968
 20
65.62228973845141
 30
0.0
 11
17.81395913035853
 21
65.66378873241518
 31
0.0
  0
LINE
  5
1AD
330
1F
100
AcDbEntity
  8
0
100
AcDbLine
 10
17.81395913035853
 20
65.66378873241518
 30
0.0
 11
18.41984444222976
 21
65.59889939639908
 31
0.0
  0
LINE
  5
1AE
330
1F
100
AcDbEntity
  8
0
100
AcDbLine
 10
18.41984444222976
 20
65.59889939639908
 30
0.0
 11
18.92160500561004
 21
65.4042313883508
 31
0.0
  0
LINE
  5
1AF
330
1F
100
AcDbEntity
  8
0
100
AcDbLine
 10
18.92160500561004
 20
65.4042313883508
 30
0.0
 11
19.33433136375893
 21
65.06922132798863
 31
0.0
  0
LINE
  5
1B0
330
1F
100
AcDbEntity
  8
0
100
AcDbLine
 10
19.33433136375893
 20
65.06922132798863
 30
0.0
 11
19.67311405993599
 21
64.58330583503087
 31
0.0
  0
LINE
  5
1B1
330
1F
100
AcDbEntity
  8
0
100
AcDbLine
 10
19.67311405993599
 20
64.58330583503087
 30
0.0
 11
20.05339575007683
 21
65.0428128772844
 31
0.0
  0
LINE
  5
1B2
330
1F
100
AcDbEntity
  8
0
100
AcDbLine
 10
20.05339575007683
 20
65.0428128772844
 30
0.0
 11
20.54232935168649
 21
65.38310462778742
 31
0.0
  0
LINE
  5
1B3
330
1F
100
AcDbEntity
  8
0
100
AcDbLine
 10
20.54232935168649
 20
65.38310462778742
 30
0.0
 11
21.11576999554967
 21
65.59361770625824
 31
0.0
  0
LINE
  5
1B4
330
1F
100
AcDbEntity
  8
0
100
AcDbLine
 10
21.11576999554967
 20
65.59361770625824
 30
0.0
 11
21.74957281245108
 21
65.66378873241518
 31
0.0
  0
LINE
  5
1B5
330
1F
100
AcDbEntity
  8
0
100
AcDbLine
 10
21.74957281245108
 20
65.66378873241518
 30
0.0
 11
22.20719353679717
 21
65.62417605635885
 31
0.0
  0
LINE
  5
1B6
330
1F
100
AcDbEntity
  8
0
100
AcDbLine
 10
22.20719353679717
 20
65.62417605635885
 30
0.0
 11
22.6082247239199
 21
65.50533802818983
 31
0.0
  0
LINE
  5
1B7
330
1F
100
AcDbEntity
  8
0
100
AcDbLine
 10
22.6082247239199
 20
65.50533802818983
 30
0.0
 11
22.95266637381929
 21
65.30727464790814
 31
0.0
  0
LINE
  5
1B8
330
1F
100
AcDbEntity
  8
0
100
AcDbLine
 10
22.95266637381929
 20
65.30727464790814
 30
0.0
 11
23.24051848649535
 21
65.02998591551378
 31
0.0
  0
LINE
  5
1B9
330
1F
100
AcDbEntity
  8
0
100
AcDbLine
 10
23.24051848649535
 20
65.02998591551378
 30
0.0
 11
23.46763116255169
 21
64.6779989939846
 31
0.0
  0
LINE
  5
1BA
330
1F
100
AcDbEntity
  8
0
100
AcDbLine
 10
23.46763116255169
 20
64.6779989939846
 30
0.0
 11
23.62985450259193
 21
64.25584104629849
 31
0.0
  0
LINE
  5
1BB
330
1F
100
AcDbEntity
  8
0
100
AcDbLine
 10
23.62985450259193
 20
64.25584104629849
 30
0.0
 11
23.72718850661608
 21
63.76351207245543
 31
0.0
  0
LINE
  5
1BC
330
1F
100
AcDbEntity
  8
0
100
AcDbLine
 10
23.72718850661608
 20
63.76351207245543
 30
0.0
 11
23.75963317462412
 21
63.20101207245543
 31
0.0
  0
LINE
  5
1BD
330
1F
100
AcDbEntity
  8
0
100
AcDbLine
 10
23.75963317462412
 20
63.20101207245543
 30
0.0
 11
23.75963317462412
 21
59.33179678070493
 31
0.0
  0
LINE
  5
1BE
330
1F
100
AcDbEntity
  8
0
100
AcDbLine
 10
23.75963317462412
 20
59.33179678070493
 30
0.0
 11
21.19424082049938
 21
59.33179678070493
 31
0.0
  0
LINE
  5
1BF
330
1F
100
AcDbEntity
  8
0
100
AcDbLine
 10
-18.49388795213644
 20
44.64568008050372
 30
0.0
 11
-18.60933060807205
 21
43.8383360161174
 31
0.0
  0
LINE
  5
1C0
330
1F
100
AcDbEntity
  8
0
100
AcDbLine
 10
-18.60933060807205
 20
43.8383360161174
 30
0.0
 11
-18.9556585758789
 21
43.14266197185181
 31
0.0
  0
LINE
  5
1C1
330
1F
100
AcDbEntity
  8
0
100
AcDbLine
 10
-18.9556585758789
 20
43.14266197185181
 30
0.0
 11
-19.51023604066763
 21
42.58431187124818
 31
0.0
  0
LINE
  5
1C2
330
1F
100
AcDbEntity
  8
0
100
AcDbLine
 10
-19.51023604066763
 20
42.58431187124818
 30
0.0
 11
-20.25042718754892
 21
42.18893963784777
 31
0.0
  0
LINE
  5
1C3
330
1F
100
AcDbEntity
  8
0
100
AcDbLine
 10
-20.25042718754892
 20
42.18893963784777
 30
0.0
 11
-21.16793221773
 21
41.95352716299869
 31
0.0
  0
LINE
  5
1C4
330
1F
100
AcDbEntity
  8
0
100
AcDbLine
 10
-21.16793221773
 20
41.95352716299869
 30
0.0
 11
-22.25445133241813
 21
41.87505633804899
 31
0.0
  0
LINE
  5
1C5
330
1F
100
AcDbEntity
  8
0
100
AcDbLine
 10
-22.25445133241813
 20
41.87505633804899
 30
0.0
 11
-23.55525616139198
 21
41.98974446682163
 31
0.0
  0
LINE
  5
1C6
330
1F
100
AcDbEntity
  8
0
100
AcDbLine
 10
-23.55525616139198
 20
41.98974446682163
 30
0.0
 11
-24.74137286159318
 21
42.33380885313953
 31
0.0
  0
LINE
  5
1C7
330
1F
100
AcDbEntity
  8
0
100
AcDbLine
 10
-24.74137286159318
 20
42.33380885313953
 30
0.0
 11
-24.74137286159318
 21
44.70604225354194
 31
0.0
  0
LINE
  5
1C8
330
1F
100
AcDbEntity
  8
0
100
AcDbLine
 10
-24.74137286159318
 20
44.70604225354194
 30
0.0
 11
-24.16944127205596
 21
44.34613279680151
 31
0.0
  0
LINE
  5
1C9
330
1F
100
AcDbEntity
  8
0
100
AcDbLine
 10
-24.16944127205596
 20
44.34613279680151
 30
0.0
 11
-23.54016561813242
 21
44.0631851106848
 31
0.0
  0
LINE
  5
1CA
330
1F
100
AcDbEntity
  8
0
100
AcDbLine
 10
-23.54016561813242
 20
44.0631851106848
 30
0.0
 11
-22.90485374690505
 21
43.87983501008118
 31
0.0
  0
LINE
  5
1CB
330
1F
100
AcDbEntity
  8
0
100
AcDbLine
 10
-22.90485374690505
 20
43.87983501008118
 30
0.0
 11
-22.31481350545636
 21
43.81871830987998
 31
0.0
  0
LINE
  5
1CC
330
1F
100
AcDbEntity
  8
0
100
AcDbLine
 10
-22.31481350545636
 20
43.81871830987998
 30
0.0
 11
-21.93453181531552
 21
43.85719919519185
 31
0.0
  0
LINE
  5
1CD
330
1F
100
AcDbEntity
  8
0
100
AcDbLine
 10
-21.93453181531552
 20
43.85719919519185
 30
0.0
 11
-21.65082960203584
 21
43.97264185112746
 31
0.0
  0
LINE
  5
1CE
330
1F
100
AcDbEntity
  8
0
100
AcDbLine
 10
-21.65082960203584
 20
43.97264185112746
 30
0.0
 11
-21.47427024589902
 21
44.1620281690349
 31
0.0
  0
LINE
  5
1CF
330
1F
100
AcDbEntity
  8
0
100
AcDbLine
 10
-21.47427024589902
 20
44.1620281690349
 30
0.0
 11
-21.41541712718674
 21
44.42234004026227
 31
0.0
  0
LINE
  5
1D0
330
1F
100
AcDbEntity
  8
0
100
AcDbLine
 10
-21.41541712718674
 20
44.42234004026227
 30
0.0
 11
-21.53312336461129
 21
44.79356740444738
 31
0.0
  0
LINE
  5
1D1
330
1F
100
AcDbEntity
  8
0
100
AcDbLine
 10
-21.53312336461129
 20
44.79356740444738
 30
0.0
 11
-21.88926018553684
 21
45.09236016098662
 31
0.0
  0
LINE
  5
1D2
330
1F
100
AcDbEntity
  8
0
100
AcDbLine
 10
-21.88926018553684
 20
45.09236016098662
 30
0.0
 11
-22.77356602054691
 21
45.47264185112746
 31
0.0
  0
LINE
  5
1D3
330
1F
100
AcDbEntity
  8
0
100
AcDbLine
 10
-22.77356602054691
 20
45.47264185112746
 30
0.0
 11
-23.6872984149131
 21
45.93592152919587
 31
0.0
  0
LINE
  5
1D4
330
1F
100
AcDbEntity
  8
0
100
AcDbLine
 10
-23.6872984149131
 20
45.93592152919587
 30
0.0
 11
-24.33996441088896
 21
46.52294366199265
 31
0.0
  0
LINE
  5
1D5
330
1F
100
AcDbEntity
  8
0
100
AcDbLine
 10
-24.33996441088896
 20
46.52294366199265
 30
0.0
 11
-24.56839750948051
 21
46.86285814891418
 31
0.0
  0
LINE
  5
1D6
330
1F
100
AcDbEntity
  8
0
100
AcDbLine
 10
-24.56839750948051
 20
46.86285814891418
 30
0.0
 11
-24.73156400847447
 21
47.2337082495178
 31
0.0
  0
LINE
  5
1D7
330
1F
100
AcDbEntity
  8
0
100
AcDbLine
 10
-24.73156400847447
 20
47.2337082495178
 30
0.0
 11
-24.82946390787085
 21
47.63549396380351
 31
0.0
  0
LINE
  5
1D8
330
1F
100
AcDbEntity
  8
0
100
AcDbLine
 10
-24.82946390787085
 20
47.63549396380351
 30
0.0
 11
-24.86209720766964
 21
48.06821529177132
 31
0.0
  0
LINE
  5
1D9
330
1F
100
AcDbEntity
  8
0
100
AcDbLine
 10
-24.86209720766964
 20
48.06821529177132
 30
0.0
 11
-24.80248956179439
 21
48.66448038231458
 31
0.0
  0
LINE
  5
1DA
330
1F
100
AcDbEntity
  8
0
100
AcDbLine
 10
-24.80248956179439
 20
48.66448038231458
 30
0.0
 11
-24.62366662416864
 21
49.19774245474919
 31
0.0
  0
LINE
  5
1DB
330
1F
100
AcDbEntity
  8
0
100
AcDbLine
 10
-24.62366662416864
 20
49.19774245474919
 30
0.0
 11
-24.32562839479238
 21
49.66800150907514
 31
0.0
  0
LINE
  5
1DC
330
1F
100
AcDbEntity
  8
0
100
AcDbLine
 10
-24.32562839479238
 20
49.66800150907514
 30
0.0
 11
-23.90837487366562
 21
50.07525754529244
 31
0.0
  0
LINE
  5
1DD
330
1F
100
AcDbEntity
  8
0
100
AcDbLine
 10
-23.90837487366562
 20
50.07525754529244
 30
0.0
 11
-23.3907692398628
 21
50.40404275656005
 31
0.0
  0
LINE
  5
1DE
330
1F
100
AcDbEntity
  8
0
100
AcDbLine
 10
-23.3907692398628
 20
50.40404275656005
 30
0.0
 11
-22.79167467245837
 21
50.63888933603692
 31
0.0
  0
LINE
  5
1DF
330
1F
100
AcDbEntity
  8
0
100
AcDbLine
 10
-22.79167467245837
 20
50.63888933603692
 30
0.0
 11
-22.11109117145234
 21
50.77979728372303
 31
0.0
  0
LINE
  5
1E0
330
1F
100
AcDbEntity
  8
0
100
AcDbLine
 10
-22.11109117145234
 20
50.77979728372303
 30
0.0
 11
-21.34901873684469
 21
50.82676659961841
 31
0.0
  0
LINE
  5
1E1
330
1F
100
AcDbEntity
  8
0
100
AcDbLine
 10
-21.34901873684469
 20
50.82676659961841
 30
0.0
 11
-20.51602074891713
 21
50.79054929579546
 31
0.0
  0
LINE
  5
1E2
330
1F
100
AcDbEntity
  8
0
100
AcDbLine
 10
-20.51602074891713
 20
50.79054929579546
 30
0.0
 11
-19.8248738676294
 21
50.70000603623812
 31
0.0
  0
LINE
  5
1E3
330
1F
100
AcDbEntity
  8
0
100
AcDbLine
 10
-19.8248738676294
 20
50.70000603623812
 30
0.0
 11
-18.95264046722698
 21
50.49477464790814
 31
0.0
  0
LINE
  5
1E4
330
1F
100
AcDbEntity
  8
0
100
AcDbLine
 10
-18.95264046722698
 20
50.49477464790814
 30
0.0
 11
-18.95264046722698
 21
48.29155533201277
 31
0.0
  0
LINE
  5
1E5
330
1F
100
AcDbEntity
  8
0
100
AcDbLine
 10
-18.95264046722698
 20
48.29155533201277
 30
0.0
 11
-20.0361414732632
 21
48.73974446682162
 31
0.0
  0
LINE
  5
1E6
330
1F
100
AcDbEntity
  8
0
100
AcDbLine
 10
-20.0361414732632
 20
48.73974446682162
 30
0.0
 11
-20.57110123181451
 21
48.85179175052384
 31
0.0
  0
LINE
  5
1E7
330
1F
100
AcDbEntity
  8
0
100
AcDbLine
 10
-20.57110123181451
 20
48.85179175052384
 30
0.0
 11
-21.10153382738795
 21
48.88914084509124
 31
0.0
  0
LINE
  5
1E8
330
1F
100
AcDbEntity
  8
0
100
AcDbLine
 10
-21.10153382738795
 20
48.88914084509124
 30
0.0
 11
-21.49388795213644
 21
48.84839637829044
 31
0.0
  0
LINE
  5
1E9
330
1F
100
AcDbEntity
  8
0
100
AcDbLine
 10
-21.49388795213644
 20
48.84839637829044
 30
0.0
 11
-21.80173503463141
 21
48.72616297788802
 31
0.0
  0
LINE
  5
1EA
330
1F
100
AcDbEntity
  8
0
100
AcDbLine
 10
-21.80173503463141
 20
48.72616297788802
 30
0.0
 11
-22.00093020565757
 21
48.53300402416569
 31
0.0
  0
LINE
  5
1EB
330
1F
100
AcDbEntity
  8
0
100
AcDbLine
 10
-22.00093020565757
 20
48.53300402416569
 30
0.0
 11
-22.06732859599962
 21
48.27948289740513
 31
0.0
  0
LINE
  5
1EC
330
1F
100
AcDbEntity
  8
0
100
AcDbLine
 10
-22.06732859599962
 20
48.27948289740513
 30
0.0
 11
-22.01375716742819
 21
48.0312434607854
 31
0.0
  0
LINE
  5
1ED
330
1F
100
AcDbEntity
  8
0
100
AcDbLine
 10
-22.01375716742819
 20
48.0312434607854
 30
0.0
 11
-21.85304288171391
 21
47.82978470827032
 31
0.0
  0
LINE
  5
1EE
330
1F
100
AcDbEntity
  8
0
100
AcDbLine
 10
-21.85304288171391
 20
47.82978470827032
 30
0.0
 11
-20.9566646120962
 21
47.36801408452786
 31
0.0
  0
LINE
  5
1EF
330
1F
100
AcDbEntity
  8
0
100
AcDbLine
 10
-20.9566646120962
 20
47.36801408452786
 30
0.0
 11
-19.80751974288091
 21
46.79910060364255
 31
0.0
  0
LINE
  5
1F0
330
1F
100
AcDbEntity
  8
0
100
AcDbLine
 10
-19.80751974288091
 20
46.79910060364255
 30
0.0
 11
-19.38064600042618
 21
46.49540342054396
 31
0.0
  0
LINE
  5
1F1
330
1F
100
AcDbEntity
  8
0
100
AcDbLine
 10
-19.38064600042618
 20
46.49540342054396
 30
0.0
 11
-19.05223805274006
 21
46.17887927567475
 31
0.0
  0
LINE
  5
1F2
330
1F
100
AcDbEntity
  8
0
100
AcDbLine
 10
-19.05223805274006
 20
46.17887927567475
 30
0.0
 11
-18.80795988372598
 21
45.84085110666065
 31
0.0
  0
LINE
  5
1F3
330
1F
100
AcDbEntity
  8
0
100
AcDbLine
 10
-18.80795988372598
 20
45.84085110666065
 30
0.0
 11
-18.63347547728735
 21
45.47264185112746
 31
0.0
  0
LINE
  5
1F4
330
1F
100
AcDbEntity
  8
0
100
AcDbLine
 10
-18.63347547728735
 20
45.47264185112746
 30
0.0
 11
-18.52878483342417
 21
45.07425150907515
 31
0.0
  0
LINE
  5
1F5
330
1F
100
AcDbEntity
  8
0
100
AcDbLine
 10
-18.52878483342417
 20
45.07425150907515
 30
0.0
 11
-18.49388795213644
 21
44.64568008050372
 31
0.0
  0
LINE
  5
1F6
330
1F
100
AcDbEntity
  8
0
100
AcDbLine
 10
-13.32084972276018
 20
42.11046881289808
 30
0.0
 11
-13.89429036662336
 21
41.95050905434677
 31
0.0
  0
LINE
  5
1F7
330
1F
100
AcDbEntity
  8
0
100
AcDbLine
 10
-13.89429036662336
 20
41.95050905434677
 30
0.0
 11
-14.85404891793121
 21
41.87505633804899
 31
0.0
  0
LINE
  5
1F8
330
1F
100
AcDbEntity
  8
0
100
AcDbLine
 10
-14.85404891793121
 20
41.87505633804899
 30
0.0
 11
-15.36203433040606
 21
41.9120281690349
 31
0.0
  0
LINE
  5
1F9
330
1F
100
AcDbEntity
  8
0
100
AcDbLine
 10
-15.36203433040606
 20
41.9120281690349
 30
0.0
 11
-15.81154388775012
 21
42.02294366199265
 31
0.0
  0
LINE
  5
1FA
330
1F
100
AcDbEntity
  8
0
100
AcDbLine
 10
-15.81154388775012
 20
42.02294366199265
 30
0.0
 11
-16.2025775899634
 21
42.20780281692223
 31
0.0
  0
LINE
  5
1FB
330
1F
100
AcDbEntity
  8
0
100
AcDbLine
 10
-16.2025775899634
 20
42.20780281692223
 30
0.0
 11
-16.5351354370459
 21
42.46660563382363
 31
0.0
  0
LINE
  5
1FC
330
1F
100
AcDbEntity
  8
0
100
AcDbLine
 10
-16.5351354370459
 20
42.46660563382363
 30
0.0
 11
-16.80054036662336
 21
42.79369315897454
 31
0.0
  0
LINE
  5
1FD
330
1F
100
AcDbEntity
  8
0
100
AcDbLine
 10
-16.80054036662336
 20
42.79369315897454
 30
0.0
 11
-16.99011531632155
 21
43.18340643865261
 31
0.0
  0
LINE
  5
1FE
330
1F
100
AcDbEntity
  8
0
100
AcDbLine
 10
-16.99011531632155
 20
43.18340643865261
 30
0.0
 11
-17.10386028614047
 21
43.63574547285784
 31
0.0
  0
LINE
  5
1FF
330
1F
100
AcDbEntity
  8
0
100
AcDbLine
 10
-17.10386028614047
 20
43.63574547285784
 30
0.0
 11
-17.1417752760801
 21
44.15071026159023
 31
0.0
  0
LINE
  5
200
330
1F
100
AcDbEntity
  8
0
100
AcDbLine
 10
-17.1417752760801
 20
44.15071026159023
 30
0.0
 11
-17.1417752760801
 21
46.42636418513148
 31
0.0
  0
LINE
  5
201
330
1F
100
AcDbEntity
  8
0
100
AcDbLine
 10
-17.1417752760801
 20
46.42636418513148
 30
0.0
 11
-18.1136062619956
 21
46.42636418513148
 31
0.0
  0
LINE
  5
202
330
1F
100
AcDbEntity
  8
0
100
AcDbLine
 10
-18.1136062619956
 20
46.42636418513148
 30
0.0
 11
-18.1136062619956
 21
48.20704828975925
 31
0.0
  0
LINE
  5
203
330
1F
100
AcDbEntity
  8
0
100
AcDbLine
 10
-18.1136062619956
 20
48.20704828975925
 30
0.0
 11
-17.1417752760801
 21
48.20704828975925
 31
0.0
  0
LINE
  5
204
330
1F
100
AcDbEntity
  8
0
100
AcDbLine
 10
-17.1417752760801
 20
48.20704828975925
 30
0.0
 11
-17.1417752760801
 21
49.42032796782766
 31
0.0
  0
LINE
  5
205
330
1F
100
AcDbEntity
  8
0
100
AcDbLine
 10
-17.1417752760801
 20
49.42032796782766
 30
0.0
 11
-14.60656400847447
 21
50.12052917507112
 31
0.0
  0
LINE
  5
206
330
1F
100
AcDbEntity
  8
0
100
AcDbLine
 10
-14.60656400847447
 20
50.12052917507112
 30
0.0
 11
-14.60656400847447
 21
48.20704828975925
 31
0.0
  0
LINE
  5
207
330
1F
100
AcDbEntity
  8
0
100
AcDbLine
 10
-14.60656400847447
 20
48.20704828975925
 30
0.0
 11
-13.32084972276018
 21
48.20704828975925
 31
0.0
  0
LINE
  5
208
330
1F
100
AcDbEntity
  8
0
100
AcDbLine
 10
-13.32084972276018
 20
48.20704828975925
 30
0.0
 11
-13.32084972276018
 21
46.42636418513148
 31
0.0
  0
LINE
  5
209
330
1F
100
AcDbEntity
  8
0
100
AcDbLine
 10
-13.32084972276018
 20
46.42636418513148
 30
0.0
 11
-14.60656400847447
 21
46.42636418513148
 31
0.0
  0
LINE
  5
20A
330
1F
100
AcDbEntity
  8
0
100
AcDbLine
 10
-14.60656400847447
 20
46.42636418513148
 30
0.0
 11
-14.60656400847447
 21
44.57324547285784
 31
0.0
  0
LINE
  5
20B
330
1F
100
AcDbEntity
  8
0
100
AcDbLine
 10
-14.60656400847447
 20
44.57324547285784
 30
0.0
 11
-14.56619680525515
 21
44.2167313883508
 31
0.0
  0
LINE
  5
20C
330
1F
100
AcDbEntity
  8
0
100
AcDbLine
 10
-14.56619680525515
 20
44.2167313883508
 30
0.0
 11
-14.4450951955972
 21
43.96207847084577
 31
0.0
  0
LINE
  5
20D
330
1F
100
AcDbEntity
  8
0
100
AcDbLine
 10
-14.4450951955972
 20
43.96207847084577
 30
0.0
 11
-14.24325917950063
 21
43.80928672034275
 31
0.0
  0
LINE
  5
20E
330
1F
100
AcDbEntity
  8
0
100
AcDbLine
 10
-14.24325917950063
 20
43.80928672034275
 30
0.0
 11
-13.96068875696541
 21
43.75835613684175
 31
0.0
  0
LINE
  5
20F
330
1F
100
AcDbEntity
  8
0
100
AcDbLine
 10
-13.96068875696541
 20
43.75835613684175
 30
0.0
 11
-13.32084972276018
 21
43.89115291752585
 31
0.0
  0
LINE
  5
210
330
1F
100
AcDbEntity
  8
0
100
AcDbLine
 10
-13.32084972276018
 20
43.89115291752585
 30
0.0
 11
-13.32084972276018
 21
42.11046881289808
 31
0.0
  0
LINE
  5
211
330
1F
100
AcDbEntity
  8
0
100
AcDbLine
 10
-7.870145497408071
 20
46.00382897386388
 30
0.0
 11
-8.262499622156561
 21
46.12455331994033
 31
0.0
  0
LINE
  5
212
330
1F
100
AcDbEntity
  8
0
100
AcDbLine
 10
-8.262499622156561
 20
46.12455331994033
 30
0.0
 11
-8.672962398816521
 21
46.17887927567475
 31
0.0
  0
LINE
  5
213
330
1F
100
AcDbEntity
  8
0
100
AcDbLine
 10
-8.672962398816521
 20
46.17887927567475
 30
0.0
 11
-9.230180708675679
 21
46.08682696179145
 31
0.0
  0
LINE
  5
214
330
1F
100
AcDbEntity
  8
0
100
AcDbLine
 10
-9.230180708675679
 20
46.08682696179145
 30
0.0
 11
-9.628193787146502
 21
45.81067002014154
 31
0.0
  0
LINE
  5
215
330
1F
100
AcDbEntity
  8
0
100
AcDbLine
 10
-9.628193787146502
 20
45.81067002014154
 30
0.0
 11
-9.867001634228998
 21
45.35040845072505
 31
0.0
  0
LINE
  5
216
330
1F
100
AcDbEntity
  8
0
100
AcDbLine
 10
-9.867001634228998
 20
45.35040845072505
 30
0.0
 11
-9.946604249923162
 21
44.70604225354194
 31
0.0
  0
LINE
  5
217
330
1F
100
AcDbEntity
  8
0
100
AcDbLine
 10
-9.946604249923162
 20
44.70604225354194
 30
0.0
 11
-9.946604249923162
 21
42.02596177064456
 31
0.0
  0
LINE
  5
218
330
1F
100
AcDbEntity
  8
0
100
AcDbLine
 10
-9.946604249923162
 20
42.02596177064456
 30
0.0
 11
-12.51803282135173
 21
42.02596177064456
 31
0.0
  0
LINE
  5
219
330
1F
100
AcDbEntity
  8
0
100
AcDbLine
 10
-12.51803282135173
 20
42.02596177064456
 30
0.0
 11
-12.51803282135173
 21
48.20704828975925
 31
0.0
  0
LINE
  5
21A
330
1F
100
AcDbEntity
  8
0
100
AcDbLine
 10
-12.51803282135173
 20
48.20704828975925
 30
0.0
 11
-9.946604249923162
 21
48.20704828975925
 31
0.0
  0
LINE
  5
21B
330
1F
100
AcDbEntity
  8
0
100
AcDbLine
 10
-9.946604249923162
 20
48.20704828975925
 30
0.0
 11
-9.946604249923162
 21
47.12052917507112
 31
0.0
  0
LINE
  5
21C
330
1F
100
AcDbEntity
  8
0
100
AcDbLine
 10
-9.92245938070787
 20
47.12052917507112
 30
0.0
 11
-9.637248113102235
 21
47.635871227385
 31
0.0
  0
LINE
  5
21D
330
1F
100
AcDbEntity
  8
0
100
AcDbLine
 10
-9.637248113102235
 20
47.635871227385
 30
0.0
 11
-9.252439259983523
 21
48.010871227385
 31
0.0
  0
LINE
  5
21E
330
1F
100
AcDbEntity
  8
0
100
AcDbLine
 10
-9.252439259983523
 20
48.010871227385
 30
0.0
 11
-8.781614310285336
 21
48.2394929577673
 31
0.0
  0
LINE
  5
21F
330
1F
100
AcDbEntity
  8
0
100
AcDbLine
 10
-8.781614310285336
 20
48.2394929577673
 30
0.0
 11
-8.23835475294127
 21
48.31570020122806
 31
0.0
  0
LINE
  5
220
330
1F
100
AcDbEntity
  8
0
100
AcDbLine
 10
-8.23835475294127
 20
48.31570020122806
 30
0.0
 11
-7.870145497408071
 21
48.24326559358219
 31
0.0
  0
LINE
  5
221
330
1F
100
AcDbEntity
  8
0
100
AcDbLine
 10
-7.870145497408071
 20
48.24326559358219
 30
0.0
 11
-7.870145497408071
 21
46.00382897386388
 31
0.0
  0
LINE
  5
222
330
1F
100
AcDbEntity
  8
0
100
AcDbLine
 10
-3.699119340466421
 20
42.02596177064456
 30
0.0
 11
-3.699119340466421
 21
42.96761167004094
 31
0.0
  0
LINE
  5
223
330
1F
100
AcDbEntity
  8
0
100
AcDbLine
 10
-3.723264209681713
 20
42.96761167004094
 30
0.0
 11
-4.071855758977488
 21
42.48961871229446
 31
0.0
  0
LINE
  5
224
330
1F
100
AcDbEntity
  8
0
100
AcDbLine
 10
-4.071855758977488
 20
42.48961871229446
 30
0.0
 11
-4.501936241874873
 21
42.14819517104698
 31
0.0
  0
LINE
  5
225
330
1F
100
AcDbEntity
  8
0
100
AcDbLine
 10
-4.501936241874873
 20
42.14819517104698
 30
0.0
 11
-5.013505658373866
 21
41.94334104629849
 31
0.0
  0
LINE
  5
226
330
1F
100
AcDbEntity
  8
0
100
AcDbLine
 10
-5.013505658373866
 20
41.94334104629849
 30
0.0
 11
-5.606564008474468
 21
41.87505633804899
 31
0.0
  0
LINE
  5
227
330
1F
100
AcDbEntity
  8
0
100
AcDbLine
 10
-5.606564008474468
 20
41.87505633804899
 30
0.0
 11
-6.020422157367829
 21
41.90750100605704
 31
0.0
  0
LINE
  5
228
330
1F
100
AcDbEntity
  8
0
100
AcDbLine
 10
-6.020422157367829
 20
41.90750100605704
 30
0.0
 11
-6.386745094993585
 21
42.00483501008118
 31
0.0
  0
LINE
  5
229
330
1F
100
AcDbEntity
  8
0
100
AcDbLine
 10
-6.386745094993585
 20
42.00483501008118
 30
0.0
 11
-6.705532821351735
 21
42.16705835012142
 31
0.0
  0
LINE
  5
22A
330
1F
100
AcDbEntity
  8
0
100
AcDbLine
 10
-6.705532821351735
 20
42.16705835012142
 30
0.0
 11
-6.976785336442275
 21
42.39417102617776
 31
0.0
  0
LINE
  5
22B
330
1F
100
AcDbEntity
  8
0
100
AcDbLine
 10
-6.976785336442275
 20
42.39417102617776
 30
0.0
 11
-7.193334632216923
 21
42.67560965796851
 31
0.0
  0
LINE
  5
22C
330
1F
100
AcDbEntity
  8
0
100
AcDbLine
 10
-7.193334632216923
 20
42.67560965796851
 30
0.0
 11
-7.348012700627388
 21
43.00081086521197
 31
0.0
  0
LINE
  5
22D
330
1F
100
AcDbEntity
  8
0
100
AcDbLine
 10
-7.348012700627388
 20
43.00081086521197
 30
0.0
 11
-7.440819541673664
 21
43.36977464790814
 31
0.0
  0
LINE
  5
22E
330
1F
100
AcDbEntity
  8
0
100
AcDbLine
 10
-7.440819541673664
 20
43.36977464790814
 30
0.0
 11
-7.471755155355758
 21
43.78250100605703
 31
0.0
  0
LINE
  5
22F
330
1F
100
AcDbEntity
  8
0
100
AcDbLine
 10
-7.471755155355758
 20
43.78250100605703
 30
0.0
 11
-7.436763958172659
 21
44.21427917507112
 31
0.0
  0
LINE
  5
230
330
1F
100
AcDbEntity
  8
0
100
AcDbLine
 10
-7.436763958172659
 20
44.21427917507112
 30
0.0
 11
-7.331790366623362
 21
44.59814486923611
 31
0.0
  0
LINE
  5
231
330
1F
100
AcDbEntity
  8
0
100
AcDbLine
 10
-7.331790366623362
 20
44.59814486923611
 30
0.0
 11
-7.156834380707868
 21
44.93409808855201
 31
0.0
  0
LINE
  5
232
330
1F
100
AcDbEntity
  8
0
100
AcDbLine
 10
-7.156834380707868
 20
44.93409808855201
 30
0.0
 11
-6.911896000426178
 21
45.2221388330188
 31
0.0
  0
LINE
  5
233
330
1F
100
AcDbEntity
  8
0
100
AcDbLine
 10
-6.911896000426178
 20
45.2221388330188
 30
0.0
 11
-6.596975225778291
 21
45.46226710263651
 31
0.0
  0
LINE
  5
234
330
1F
100
AcDbEntity
  8
0
100
AcDbLine
 10
-6.596975225778291
 20
45.46226710263651
 30
0.0
 11
-6.212072056764205
 21
45.65448289740512
 31
0.0
  0
LINE
  5
235
330
1F
100
AcDbEntity
  8
0
100
AcDbLine
 10
-6.212072056764205
 20
45.65448289740512
 30
0.0
 11
-5.232318535637446
 21
45.89517706239506
 31
0.0
  0
LINE
  5
236
330
1F
100
AcDbEntity
  8
0
100
AcDbLine
 10
-5.232318535637446
 20
45.89517706239506
 30
0.0
 11
-3.699119340466421
 21
46.09437223342122
 31
0.0
  0
LINE
  5
237
330
1F
100
AcDbEntity
  8
0
100
AcDbLine
 10
-3.699119340466421
 20
46.09437223342122
 30
0.0
 11
-3.767026785134428
 21
46.36902012074516
 31
0.0
  0
LINE
  5
238
330
1F
100
AcDbEntity
  8
0
100
AcDbLine
 10
-3.767026785134428
 20
46.36902012074516
 30
0.0
 11
-3.970749119138454
 21
46.5893420523347
 31
0.0
  0
LINE
  5
239
330
1F
100
AcDbEntity
  8
0
100
AcDbLine
 10
-3.970749119138454
 20
46.5893420523347
 30
0.0
 11
-4.289159581915114
 21
46.73421126762645
 31
0.0
  0
LINE
  5
23A
330
1F
100
AcDbEntity
  8
0
100
AcDbLine
 10
-4.289159581915114
 20
46.73421126762645
 30
0.0
 11
-4.70113141290103
 21
46.78250100605703
 31
0.0
  0
LINE
  5
23B
330
1F
100
AcDbEntity
  8
0
100
AcDbLine
 10
-4.70113141290103
 20
46.78250100605703
 30
0.0
 11
-5.227414109078092
 21
46.74552917507112
 31
0.0
  0
LINE
  5
23C
330
1F
100
AcDbEntity
  8
0
100
AcDbLine
 10
-5.227414109078092
 20
46.74552917507112
 30
0.0
 11
-5.768032821351734
 21
46.63461368211338
 31
0.0
  0
LINE
  5
23D
330
1F
100
AcDbEntity
  8
0
100
AcDbLine
 10
-5.768032821351734
 20
46.63461368211338
 30
0.0
 11
-6.892278294188754
 21
46.19095171028239
 31
0.0
  0
LINE
  5
23E
330
1F
100
AcDbEntity
  8
0
100
AcDbLine
 10
-6.892278294188754
 20
46.19095171028239
 30
0.0
 11
-6.892278294188754
 21
47.86298390344134
 31
0.0
  0
LINE
  5
23F
330
1F
100
AcDbEntity
  8
0
100
AcDbLine
 10
-6.892278294188754
 20
47.86298390344134
 30
0.0
 11
-6.327891976281311
 21
48.06067002014154
 31
0.0
  0
LINE
  5
240
330
1F
100
AcDbEntity
  8
0
100
AcDbLine
 10
-6.327891976281311
 20
48.06067002014154
 30
0.0
 11
-5.636745094993584
 21
48.2191207243669
 31
0.0
  0
LINE
  5
241
330
1F
100
AcDbEntity
  8
0
100
AcDbLine
 10
-5.636745094993584
 20
48.2191207243669
 30
0.0
 11
-4.344994591975476
 21
48.35795372235482
 31
0.0
  0
LINE
  5
242
330
1F
100
AcDbEntity
  8
0
100
AcDbLine
 10
-4.344994591975476
 20
48.35795372235482
 30
0.0
 11
-3.611405557770244
 21
48.3158888330188
 31
0.0
  0
LINE
  5
243
330
1F
100
AcDbEntity
  8
0
100
AcDbLine
 10
-3.611405557770244
 20
48.3158888330188
 30
0.0
 11
-2.986091171452336
 21
48.18969416501076
 31
0.0
  0
LINE
  5
244
330
1F
100
AcDbEntity
  8
0
100
AcDbLine
 10
-2.986091171452336
 20
48.18969416501076
 30
0.0
 11
-2.469051433021754
 21
47.97936971833068
 31
0.0
  0
LINE
  5
245
330
1F
100
AcDbEntity
  8
0
100
AcDbLine
 10
-2.469051433021754
 20
47.97936971833068
 30
0.0
 11
-2.060286342478493
 21
47.68491549297856
 31
0.0
  0
LINE
  5
246
330
1F
100
AcDbEntity
  8
0
100
AcDbLine
 10
-2.060286342478493
 20
47.68491549297856
 30
0.0
 11
-1.749987046703843
 21
47.29199547285784
 31
0.0
  0
LINE
  5
247
330
1F
100
AcDbEntity
  8
0
100
AcDbLine
 10
-1.749987046703843
 20
47.29199547285784
 30
0.0
 11
-1.528344692579094
 21
46.78627364187192
 31
0.0
  0
LINE
  5
248
330
1F
100
AcDbEntity
  8
0
100
AcDbLine
 10
-1.528344692579094
 20
46.78627364187192
 30
0.0
 11
-1.395359280104247
 21
46.16775000002082
 31
0.0
  0
LINE
  5
249
330
1F
100
AcDbEntity
  8
0
100
AcDbLine
 10
-1.395359280104247
 20
46.16775000002082
 30
0.0
 11
-1.351030809279297
 21
45.43642454730452
 31
0.0
  0
LINE
  5
24A
330
1F
100
AcDbEntity
  8
0
100
AcDbLine
 10
-1.351030809279297
 20
45.43642454730452
 30
0.0
 11
-1.351030809279297
 21
42.02596177064456
 31
0.0
  0
LINE
  5
24B
330
1F
100
AcDbEntity
  8
0
100
AcDbLine
 10
-1.351030809279297
 20
42.02596177064456
 30
0.0
 11
-3.699119340466421
 21
42.02596177064456
 31
0.0
  0
LINE
  5
24C
330
1F
100
AcDbEntity
  8
0
100
AcDbLine
 10
-5.220246101029801
 20
44.12656539237494
 30
0.0
 11
-5.180256161391973
 21
43.89568008050372
 31
0.0
  0
LINE
  5
24D
330
1F
100
AcDbEntity
  8
0
100
AcDbLine
 10
-5.180256161391973
 20
43.89568008050372
 30
0.0
 11
-5.060286342478493
 21
43.71006639841116
 31
0.0
  0
LINE
  5
24E
330
1F
100
AcDbEntity
  8
0
100
AcDbLine
 10
-5.060286342478493
 20
43.71006639841116
 30
0.0
 11
-4.866372861593182
 21
43.58783299800875
 31
0.0
  0
LINE
  5
24F
330
1F
100
AcDbEntity
  8
0
100
AcDbLine
 10
-4.866372861593182
 20
43.58783299800875
 30
0.0
 11
-4.604551936039861
 21
43.54708853120794
 31
0.0
  0
LINE
  5
250
330
1F
100
AcDbEntity
  8
0
100
AcDbLine
 10
-4.604551936039861
 20
43.54708853120794
 30
0.0
 11
-4.238606261995596
 21
43.62254124750573
 31
0.0
  0
LINE
  5
251
330
1F
100
AcDbEntity
  8
0
100
AcDbLine
 10
-4.238606261995596
 20
43.62254124750573
 30
0.0
 11
-3.949622358575074
 21
43.84889939639909
 31
0.0
  0
LINE
  5
252
330
1F
100
AcDbEntity
  8
0
100
AcDbLine
 10
-3.949622358575074
 20
43.84889939639909
 30
0.0
 11
-3.761745094993584
 21
44.19296378271699
 31
0.0
  0
LINE
  5
253
330
1F
100
AcDbEntity
  8
0
100
AcDbLine
 10
-3.761745094993584
 20
44.19296378271699
 30
0.0
 11
-3.699119340466421
 21
44.62153521128842
 31
0.0
  0
LINE
  5
254
330
1F
100
AcDbEntity
  8
0
100
AcDbLine
 10
-3.699119340466421
 20
44.62153521128842
 30
0.0
 11
-3.699119340466421
 21
44.85694768613752
 31
0.0
  0
LINE
  5
255
330
1F
100
AcDbEntity
  8
0
100
AcDbLine
 10
-3.699119340466421
 20
44.85694768613752
 30
0.0
 11
-4.568334632216925
 21
44.73622334006106
 31
0.0
  0
LINE
  5
256
330
1F
100
AcDbEntity
  8
0
100
AcDbLine
 10
-4.568334632216925
 20
44.73622334006106
 30
0.0
 11
-4.853545899822557
 21
44.65737525152988
 31
0.0
  0
LINE
  5
257
330
1F
100
AcDbEntity
  8
0
100
AcDbLine
 10
-4.853545899822557
 20
44.65737525152988
 30
0.0
 11
-5.057268233826584
 21
44.52948289740512
 31
0.0
  0
LINE
  5
258
330
1F
100
AcDbEntity
  8
0
100
AcDbLine
 10
-5.057268233826584
 20
44.52948289740512
 30
0.0
 11
-5.179501634228998
 21
44.35254627768681
 31
0.0
  0
LINE
  5
259
330
1F
100
AcDbEntity
  8
0
100
AcDbLine
 10
-5.179501634228998
 20
44.35254627768681
 30
0.0
 11
-5.220246101029801
 21
44.12656539237494
 31
0.0
  0
LINE
  5
25A
330
1F
100
AcDbEntity
  8
0
100
AcDbLine
 10
2.530256917078852
 20
49.87304426561438
 30
0.0
 11
2.431413858728755
 21
49.38109255535281
 31
0.0
  0
LINE
  5
25B
330
1F
100
AcDbEntity
  8
0
100
AcDbLine
 10
2.431413858728755
 20
49.38109255535281
 30
0.0
 11
2.134884683678447
 21
48.99175653925623
 31
0.0
  0
LINE
  5
25C
330
1F
100
AcDbEntity
  8
0
100
AcDbLine
 10
2.134884683678447
 20
48.99175653925623
 30
0.0
 11
1.676886695750881
 21
48.73823541249567
 31
0.0
  0
LINE
  5
25D
330
1F
100
AcDbEntity
  8
0
100
AcDbLine
 10
1.676886695750881
 20
48.73823541249567
 30
0.0
 11
1.09363719876899
 21
48.65372837024215
 31
0.0
  0
LINE
  5
25E
330
1F
100
AcDbEntity
  8
0
100
AcDbLine
 10
1.09363719876899
 20
48.65372837024215
 30
0.0
 11
0.5224601363947451
 21
48.74125352114758
 31
0.0
  0
LINE
  5
25F
330
1F
100
AcDbEntity
  8
0
100
AcDbLine
 10
0.5224601363947451
 20
48.74125352114758
 30
0.0
 11
0.0644621484671796
 21
49.00382897386388
 31
0.0
  0
LINE
  5
260
330
1F
100
AcDbEntity
  8
0
100
AcDbLine
 10
0.0644621484671796
 20
49.00382897386388
 30
0.0
 11
-0.2365941895609863
 21
49.39618309861237
 31
0.0
  0
LINE
  5
261
330
1F
100
AcDbEntity
  8
0
100
AcDbLine
 10
-0.2365941895609863
 20
49.39618309861237
 30
0.0
 11
-0.3369463022370435
 21
49.87304426561438
 31
0.0
  0
LINE
  5
262
330
1F
100
AcDbEntity
  8
0
100
AcDbLine
 10
-0.3369463022370435
 20
49.87304426561438
 30
0.0
 11
-0.239612298212901
 21
50.35367806843129
 31
0.0
  0
LINE
  5
263
330
1F
100
AcDbEntity
  8
0
100
AcDbLine
 10
-0.239612298212901
 20
50.35367806843129
 30
0.0
 11
0.0523897138595322
 21
50.73320523140914
 31
0.0
  0
LINE
  5
264
330
1F
100
AcDbEntity
  8
0
100
AcDbLine
 10
0.0523897138595322
 20
50.73320523140914
 30
0.0
 11
0.507369593135183
 21
50.97993561370291
 31
0.0
  0
LINE
  5
265
330
1F
100
AcDbEntity
  8
0
100
AcDbLine
 10
0.507369593135183
 20
50.97993561370291
 30
0.0
 11
1.09363719876899
 21
51.0621790744675
 31
0.0
  0
LINE
  5
266
330
1F
100
AcDbEntity
  8
0
100
AcDbLine
 10
1.09363719876899
 20
51.0621790744675
 30
0.0
 11
1.676886695750881
 21
50.97993561370291
 31
0.0
  0
LINE
  5
267
330
1F
100
AcDbEntity
  8
0
100
AcDbLine
 10
1.676886695750881
 20
50.97993561370291
 30
0.0
 11
2.134884683678447
 21
50.73320523140914
 31
0.0
  0
LINE
  5
268
330
1F
100
AcDbEntity
  8
0
100
AcDbLine
 10
2.134884683678447
 20
50.73320523140914
 30
0.0
 11
2.431413858728755
 21
50.35367806843129
 31
0.0
  0
LINE
  5
269
330
1F
100
AcDbEntity
  8
0
100
AcDbLine
 10
2.431413858728755
 20
50.35367806843129
 30
0.0
 11
2.530256917078852
 21
49.87304426561438
 31
0.0
  0
LINE
  5
26A
330
1F
100
AcDbEntity
  8
0
100
AcDbLine
 10
-0.1920770869452942
 20
42.02596177064456
 30
0.0
 11
-0.1920770869452942
 21
48.20704828975925
 31
0.0
  0
LINE
  5
26B
330
1F
100
AcDbEntity
  8
0
100
AcDbLine
 10
-0.1920770869452942
 20
48.20704828975925
 30
0.0
 11
2.379351484483276
 21
48.20704828975925
 31
0.0
  0
LINE
  5
26C
330
1F
100
AcDbEntity
  8
0
100
AcDbLine
 10
2.379351484483276
 20
48.20704828975925
 30
0.0
 11
2.379351484483276
 21
42.02596177064456
 31
0.0
  0
LINE
  5
26D
330
1F
100
AcDbEntity
  8
0
100
AcDbLine
 10
2.379351484483276
 20
42.02596177064456
 30
0.0
 11
-0.1920770869452942
 21
42.02596177064456
 31
0.0
  0
LINE
  5
26E
330
1F
100
AcDbEntity
  8
0
100
AcDbLine
 10
10.31697723901044
 20
42.88914084509124
 30
0.0
 11
10.24699484464424
 21
42.04803169016166
 31
0.0
  0
LINE
  5
26F
330
1F
100
AcDbEntity
  8
0
100
AcDbLine
 10
10.24699484464424
 20
42.04803169016166
 30
0.0
 11
10.03704766154565
 21
41.3053883300007
 31
0.0
  0
LINE
  5
270
330
1F
100
AcDbEntity
  8
0
100
AcDbLine
 10
10.03704766154565
 20
41.3053883300007
 30
0.0
 11
9.68713568971467
 21
40.66121076460834
 31
0.0
  0
LINE
  5
271
330
1F
100
AcDbEntity
  8
0
100
AcDbLine
 10
9.68713568971467
 20
40.66121076460834
 30
0.0
 11
9.197258929151285
 21
40.1154989939846
 31
0.0
  0
LINE
  5
272
330
1F
100
AcDbEntity
  8
0
100
AcDbLine
 10
9.197258929151285
 20
40.1154989939846
 30
0.0
 11
8.57307633357785
 21
39.68107997990009
 31
0.0
  0
LINE
  5
273
330
1F
100
AcDbEntity
  8
0
100
AcDbLine
 10
8.57307633357785
 20
39.68107997990009
 30
0.0
 11
7.820246856716679
 21
39.37078068412545
 31
0.0
  0
LINE
  5
274
330
1F
100
AcDbEntity
  8
0
100
AcDbLine
 10
7.820246856716679
 20
39.37078068412545
 30
0.0
 11
6.938770498567789
 21
39.18460110666066
 31
0.0
  0
LINE
  5
275
330
1F
100
AcDbEntity
  8
0
100
AcDbLine
 10
6.938770498567789
 20
39.18460110666066
 30
0.0
 11
5.928647259131166
 21
39.12254124750573
 31
0.0
  0
LINE
  5
276
330
1F
100
AcDbEntity
  8
0
100
AcDbLine
 10
5.928647259131166
 20
39.12254124750573
 30
0.0
 11
4.805910840620097
 21
39.21308450706307
 31
0.0
  0
LINE
  5
277
330
1F
100
AcDbEntity
  8
0
100
AcDbLine
 10
4.805910840620097
 20
39.21308450706307
 30
0.0
 11
4.02723880842694
 21
39.41831589539305
 31
0.0
  0
LINE
  5
278
330
1F
100
AcDbEntity
  8
0
100
AcDbLine
 10
4.02723880842694
 20
39.41831589539305
 30
0.0
 11
4.02723880842694
 21
41.43441247486992
 31
0.0
  0
LINE
  5
279
330
1F
100
AcDbEntity
  8
0
100
AcDbLine
 10
4.02723880842694
 20
41.43441247486992
 30
0.0
 11
4.446755911042635
 21
41.21710865193229
 31
0.0
  0
LINE
  5
27A
330
1F
100
AcDbEntity
  8
0
100
AcDbLine
 10
4.446755911042635
 20
41.21710865193229
 30
0.0
 11
4.932671404000378
 21
41.04809456742525
 31
0.0
  0
LINE
  5
27B
330
1F
100
AcDbEntity
  8
0
100
AcDbLine
 10
4.932671404000378
 20
41.04809456742525
 30
0.0
 11
5.856212651485287
 21
40.9032253521335
 31
0.0
  0
LINE
  5
27C
330
1F
100
AcDbEntity
  8
0
100
AcDbLine
 10
5.856212651485287
 20
40.9032253521335
 30
0.0
 11
6.633375629352495
 21
41.00735010062444
 31
0.0
  0
LINE
  5
27D
330
1F
100
AcDbEntity
  8
0
100
AcDbLine
 10
6.633375629352495
 20
41.00735010062444
 30
0.0
 11
7.238506414060742
 21
41.31972434609727
 31
0.0
  0
LINE
  5
27E
330
1F
100
AcDbEntity
  8
0
100
AcDbLine
 10
7.238506414060742
 20
41.31972434609727
 30
0.0
 11
7.465619090117086
 21
41.54495070424617
 31
0.0
  0
LINE
  5
27F
330
1F
100
AcDbEntity
  8
0
100
AcDbLine
 10
7.465619090117086
 20
41.54495070424617
 30
0.0
 11
7.627842430157323
 21
41.80413078472907
 31
0.0
  0
LINE
  5
280
330
1F
100
AcDbEntity
  8
0
100
AcDbLine
 10
7.627842430157323
 20
41.80413078472907
 30
0.0
 11
7.725176434181466
 21
42.09726458754597
 31
0.0
  0
LINE
  5
281
330
1F
100
AcDbEntity
  8
0
100
AcDbLine
 10
7.725176434181466
 20
42.09726458754597
 30
0.0
 11
7.757621102189513
 21
42.42435211269687
 31
0.0
  0
LINE
  5
282
330
1F
100
AcDbEntity
  8
0
100
AcDbLine
 10
7.757621102189513
 20
42.42435211269687
 30
0.0
 11
7.757621102189513
 21
42.80463380283771
 31
0.0
  0
LINE
  5
283
330
1F
100
AcDbEntity
  8
0
100
AcDbLine
 10
7.733476232974224
 20
42.80463380283771
 30
0.0
 11
7.403747862752899
 21
42.42435211269687
 31
0.0
  0
LINE
  5
284
330
1F
100
AcDbEntity
  8
0
100
AcDbLine
 10
7.403747862752899
 20
42.42435211269687
 30
0.0
 11
6.969894744040624
 21
42.12857746480955
 31
0.0
  0
LINE
  5
285
330
1F
100
AcDbEntity
  8
0
100
AcDbLine
 10
6.969894744040624
 20
42.12857746480955
 30
0.0
 11
6.466625126334383
 21
41.93843661973913
 31
0.0
  0
LINE
  5
286
330
1F
100
AcDbEntity
  8
0
100
AcDbLine
 10
6.466625126334383
 20
41.93843661973913
 30
0.0
 11
5.928647259131166
 21
41.87505633804899
 31
0.0
  0
LINE
  5
287
330
1F
100
AcDbEntity
  8
0
100
AcDbLine
 10
5.928647259131166
 20
41.87505633804899
 30
0.0
 11
5.362374623316281
 21
41.92693008050372
 31
0.0
  0
LINE
  5
288
330
1F
100
AcDbEntity
  8
0
100
AcDbLine
 10
5.362374623316281
 20
41.92693008050372
 30
0.0
 11
4.858727742028551
 21
42.0825513078679
 31
0.0
  0
LINE
  5
289
330
1F
100
AcDbEntity
  8
0
100
AcDbLine
 10
4.858727742028551
 20
42.0825513078679
 30
0.0
 11
4.417706615267992
 21
42.34192002014154
 31
0.0
  0
LINE
  5
28A
330
1F
100
AcDbEntity
  8
0
100
AcDbLine
 10
4.417706615267992
 20
42.34192002014154
 30
0.0
 11
4.039311243034588
 21
42.70503621732464
 31
0.0
  0
LINE
  5
28B
330
1F
100
AcDbEntity
  8
0
100
AcDbLine
 10
4.039311243034588
 20
42.70503621732464
 30
0.0
 11
3.735614059935997
 21
43.15945020122806
 31
0.0
  0
LINE
  5
28C
330
1F
100
AcDbEntity
  8
0
100
AcDbLine
 10
3.735614059935997
 20
43.15945020122806
 30
0.0
 11
3.518687500579856
 21
43.69271227366267
 31
0.0
  0
LINE
  5
28D
330
1F
100
AcDbEntity
  8
0
100
AcDbLine
 10
3.518687500579856
 20
43.69271227366267
 30
0.0
 11
3.388531564966176
 21
44.30482243462846
 31
0.0
  0
LINE
  5
28E
330
1F
100
AcDbEntity
  8
0
100
AcDbLine
 10
3.388531564966176
 20
44.30482243462846
 30
0.0
 11
3.345146253094946
 21
44.99578068412545
 31
0.0
  0
LINE
  5
28F
330
1F
100
AcDbEntity
  8
0
100
AcDbLine
 10
3.345146253094946
 20
44.99578068412545
 30
0.0
 11
3.43568951265229
 21
45.93893963784778
 31
0.0
  0
LINE
  5
290
330
1F
100
AcDbEntity
  8
0
100
AcDbLine
 10
3.43568951265229
 20
45.93893963784778
 30
0.0
 11
3.707319291324323
 21
46.76439235414557
 31
0.0
  0
LINE
  5
291
330
1F
100
AcDbEntity
  8
0
100
AcDbLine
 10
3.707319291324323
 20
46.76439235414557
 30
0.0
 11
4.140417882873625
 21
47.44271227366267
 31
0.0
  0
LINE
  5
292
330
1F
100
AcDbEntity
  8
0
100
AcDbLine
 10
4.140417882873625
 20
47.44271227366267
 30
0.0
 11
4.715367581062753
 21
47.94447283704295
 31
0.0
  0
LINE
  5
293
330
1F
100
AcDbEntity
  8
0
100
AcDbLine
 10
4.715367581062753
 20
47.94447283704295
 30
0.0
 11
5.394442027742833
 21
48.25458350102685
 31
0.0
  0
LINE
  5
294
330
1F
100
AcDbEntity
  8
0
100
AcDbLine
 10
5.394442027742833
 20
48.25458350102685
 30
0.0
 11
6.139914864764968
 21
48.35795372235482
 31
0.0
  0
LINE
  5
295
330
1F
100
AcDbEntity
  8
0
100
AcDbLine
 10
6.139914864764968
 20
48.35795372235482
 30
0.0
 11
6.640166373819294
 21
48.30853219317978
 31
0.0
  0
LINE
  5
296
330
1F
100
AcDbEntity
  8
0
100
AcDbLine
 10
6.640166373819294
 20
48.30853219317978
 30
0.0
 11
7.072510438205615
 21
48.16026760565462
 31
0.0
  0
LINE
  5
297
330
1F
100
AcDbEntity
  8
0
100
AcDbLine
 10
7.072510438205615
 20
48.16026760565462
 30
0.0
 11
7.436947057923922
 21
47.91315995977937
 31
0.0
  0
LINE
  5
298
330
1F
100
AcDbEntity
  8
0
100
AcDbLine
 10
7.436947057923922
 20
47.91315995977937
 30
0.0
 11
7.733476232974224
 21
47.56720925555402
 31
0.0
  0
LINE
  5
299
330
1F
100
AcDbEntity
  8
0
100
AcDbLine
 10
7.757621102189513
 20
47.56720925555402
 30
0.0
 11
7.757621102189513
 21
48.20704828975925
 31
0.0
  0
LINE
  5
29A
330
1F
100
AcDbEntity
  8
0
100
AcDbLine
 10
7.757621102189513
 20
48.20704828975925
 30
0.0
 11
10.31697723901044
 21
48.20704828975925
 31
0.0
  0
LINE
  5
29B
330
1F
100
AcDbEntity
  8
0
100
AcDbLine
 10
10.31697723901044
 20
48.20704828975925
 30
0.0
 11
10.31697723901044
 21
42.88914084509124
 31
0.0
  0
LINE
  5
29C
330
1F
100
AcDbEntity
  8
0
100
AcDbLine
 10
7.799874623316273
 20
45.29155533201277
 30
0.0
 11
7.738757923115068
 21
45.77897987929647
 31
0.0
  0
LINE
  5
29D
330
1F
100
AcDbEntity
  8
0
100
AcDbLine
 10
7.738757923115068
 20
45.77897987929647
 30
0.0
 11
7.555407822511444
 21
46.15473440645945
 31
0.0
  0
LINE
  5
29E
330
1F
100
AcDbEntity
  8
0
100
AcDbLine
 10
7.555407822511444
 20
46.15473440645945
 30
0.0
 11
7.270951082068789
 21
46.39467404428641
 31
0.0
  0
LINE
  5
29F
330
1F
100
AcDbEntity
  8
0
100
AcDbLine
 10
7.270951082068789
 20
46.39467404428641
 30
0.0
 11
6.906514462350483
 21
46.47465392356207
 31
0.0
  0
LINE
  5
2A0
330
1F
100
AcDbEntity
  8
0
100
AcDbLine
 10
6.906514462350483
 20
46.47465392356207
 30
0.0
 11
6.515669391927942
 21
46.3780744467009
 31
0.0
  0
LINE
  5
2A1
330
1F
100
AcDbEntity
  8
0
100
AcDbLine
 10
6.515669391927942
 20
46.3780744467009
 30
0.0
 11
6.212349472410841
 21
46.0883360161174
 31
0.0
  0
LINE
  5
2A2
330
1F
100
AcDbEntity
  8
0
100
AcDbLine
 10
6.212349472410841
 20
46.0883360161174
 30
0.0
 11
6.017681464362551
 21
45.63712877265664
 31
0.0
  0
LINE
  5
2A3
330
1F
100
AcDbEntity
  8
0
100
AcDbLine
 10
6.017681464362551
 20
45.63712877265664
 30
0.0
 11
5.952792128346456
 21
45.05614285716367
 31
0.0
  0
LINE
  5
2A4
330
1F
100
AcDbEntity
  8
0
100
AcDbLine
 10
5.952792128346456
 20
45.05614285716367
 30
0.0
 11
6.007118084080863
 21
44.52042857144939
 31
0.0
  0
LINE
  5
2A5
330
1F
100
AcDbEntity
  8
0
100
AcDbLine
 10
6.007118084080863
 20
44.52042857144939
 30
0.0
 11
6.170095951284081
 21
44.10845674046347
 31
0.0
  0
LINE
  5
2A6
330
1F
100
AcDbEntity
  8
0
100
AcDbLine
 10
6.170095951284081
 20
44.10845674046347
 30
0.0
 11
6.450780055911847
 21
43.84588128774718
 31
0.0
  0
LINE
  5
2A7
330
1F
100
AcDbEntity
  8
0
100
AcDbLine
 10
6.450780055911847
 20
43.84588128774718
 30
0.0
 11
6.858224723919899
 21
43.75835613684175
 31
0.0
  0
LINE
  5
2A8
330
1F
100
AcDbEntity
  8
0
100
AcDbLine
 10
6.858224723919899
 20
43.75835613684175
 30
0.0
 11
7.251333375831364
 21
43.84814486923611
 31
0.0
  0
LINE
  5
2A9
330
1F
100
AcDbEntity
  8
0
100
AcDbLine
 10
7.251333375831364
 20
43.84814486923611
 30
0.0
 11
7.549371605207626
 21
44.1175110664192
 31
0.0
  0
LINE
  5
2AA
330
1F
100
AcDbEntity
  8
0
100
AcDbLine
 10
7.549371605207626
 20
44.1175110664192
 30
0.0
 11
7.737248868789114
 21
44.53778269619788
 31
0.0
  0
LINE
  5
2AB
330
1F
100
AcDbEntity
  8
0
100
AcDbLine
 10
7.737248868789114
 20
44.53778269619788
 30
0.0
 11
7.799874623316273
 21
45.08028772637897
 31
0.0
  0
LINE
  5
2AC
330
1F
100
AcDbEntity
  8
0
100
AcDbLine
 10
7.799874623316273
 20
45.08028772637897
 30
0.0
 11
7.799874623316273
 21
45.29155533201277
 31
0.0
  0
LINE
  5
2AD
330
1F
100
AcDbEntity
  8
0
100
AcDbLine
 10
15.53830520681728
 20
42.02596177064456
 30
0.0
 11
15.53830520681728
 21
45.55111267607715
 31
0.0
  0
LINE
  5
2AE
330
1F
100
AcDbEntity
  8
0
100
AcDbLine
 10
15.53830520681728
 20
45.55111267607715
 30
0.0
 11
15.49416536778307
 21
45.9551619718518
 31
0.0
  0
LINE
  5
2AF
330
1F
100
AcDbEntity
  8
0
100
AcDbLine
 10
15.49416536778307
 20
45.9551619718518
 30
0.0
 11
15.36174585068046
 21
46.24376861169084
 31
0.0
  0
LINE
  5
2B0
330
1F
100
AcDbEntity
  8
0
100
AcDbLine
 10
15.36174585068046
 20
46.24376861169084
 30
0.0
 11
15.14104665550943
 21
46.41693259559425
 31
0.0
  0
LINE
  5
2B1
330
1F
100
AcDbEntity
  8
0
100
AcDbLine
 10
15.14104665550943
 20
46.41693259559425
 30
0.0
 11
14.83206778227
 21
46.47465392356207
 31
0.0
  0
LINE
  5
2B2
330
1F
100
AcDbEntity
  8
0
100
AcDbLine
 10
14.83206778227
 20
46.47465392356207
 30
0.0
 11
14.52874786275289
 21
46.40901006038299
 31
0.0
  0
LINE
  5
2B3
330
1F
100
AcDbEntity
  8
0
100
AcDbLine
 10
14.52874786275289
 20
46.40901006038299
 30
0.0
 11
14.3069168768374
 21
46.21207847084577
 31
0.0
  0
LINE
  5
2B4
330
1F
100
AcDbEntity
  8
0
100
AcDbLine
 10
14.3069168768374
 20
46.21207847084577
 30
0.0
 11
14.17110198750138
 21
45.91253118714356
 31
0.0
  0
LINE
  5
2B5
330
1F
100
AcDbEntity
  8
0
100
AcDbLine
 10
14.17110198750138
 20
45.91253118714356
 30
0.0
 11
14.12583035772271
 21
45.53904024146951
 31
0.0
  0
LINE
  5
2B6
330
1F
100
AcDbEntity
  8
0
100
AcDbLine
 10
14.12583035772271
 20
45.53904024146951
 30
0.0
 11
14.12583035772271
 21
42.02596177064456
 31
0.0
  0
LINE
  5
2B7
330
1F
100
AcDbEntity
  8
0
100
AcDbLine
 10
14.12583035772271
 20
42.02596177064456
 30
0.0
 11
11.55440178629414
 21
42.02596177064456
 31
0.0
  0
LINE
  5
2B8
330
1F
100
AcDbEntity
  8
0
100
AcDbLine
 10
11.55440178629414
 20
42.02596177064456
 30
0.0
 11
11.55440178629414
 21
51.17686720324014
 31
0.0
  0
LINE
  5
2B9
330
1F
100
AcDbEntity
  8
0
100
AcDbLine
 10
11.55440178629414
 20
51.17686720324014
 30
0.0
 11
14.12583035772271
 21
51.17686720324014
 31
0.0
  0
LINE
  5
2BA
330
1F
100
AcDbEntity
  8
0
100
AcDbLine
 10
14.12583035772271
 20
51.17686720324014
 30
0.0
 11
14.12583035772271
 21
47.36801408452786
 31
0.0
  0
LINE
  5
2BB
330
1F
100
AcDbEntity
  8
0
100
AcDbLine
 10
14.149975226938
 20
47.36801408452786
 30
0.0
 11
14.51742995530823
 21
47.78979476863249
 31
0.0
  0
LINE
  5
2BC
330
1F
100
AcDbEntity
  8
0
100
AcDbLine
 10
14.51742995530823
 20
47.78979476863249
 30
0.0
 11
14.95581023699837
 21
48.10141448694235
 31
0.0
  0
LINE
  5
2BD
330
1F
100
AcDbEntity
  8
0
100
AcDbLine
 10
14.95581023699837
 20
48.10141448694235
 30
0.0
 11
15.44700742009696
 21
48.2938189135017
 31
0.0
  0
LINE
  5
2BE
330
1F
100
AcDbEntity
  8
0
100
AcDbLine
 10
15.44700742009696
 20
48.2938189135017
 30
0.0
 11
15.97291285269253
 21
48.35795372235482
 31
0.0
  0
LINE
  5
2BF
330
1F
100
AcDbEntity
  8
0
100
AcDbLine
 10
15.97291285269253
 20
48.35795372235482
 30
0.0
 11
16.44411506597221
 21
48.31777515092625
 31
0.0
  0
LINE
  5
2C0
330
1F
100
AcDbEntity
  8
0
100
AcDbLine
 10
16.44411506597221
 20
48.31777515092625
 30
0.0
 11
16.85570963337663
 21
48.19723943664054
 31
0.0
  0
LINE
  5
2C1
330
1F
100
AcDbEntity
  8
0
100
AcDbLine
 10
16.85570963337663
 20
48.19723943664054
 30
0.0
 11
17.20769655490581
 21
47.99634657949768
 31
0.0
  0
LINE
  5
2C2
330
1F
100
AcDbEntity
  8
0
100
AcDbLine
 10
17.20769655490581
 20
47.99634657949768
 30
0.0
 11
17.50007583055973
 21
47.71509657949768
 31
0.0
  0
LINE
  5
2C3
330
1F
100
AcDbEntity
  8
0
100
AcDbLine
 10
17.50007583055973
 20
47.71509657949768
 30
0.0
 11
17.7298293516865
 21
47.35575301812947
 31
0.0
  0
LINE
  5
2C4
330
1F
100
AcDbEntity
  8
0
100
AcDbLine
 10
17.7298293516865
 20
47.35575301812947
 30
0.0
 11
17.89393900963418
 21
46.92057947688199
 31
0.0
  0
LINE
  5
2C5
330
1F
100
AcDbEntity
  8
0
100
AcDbLine
 10
17.89393900963418
 20
46.92057947688199
 30
0.0
 11
17.9924048044028
 21
46.40957595575522
 31
0.0
  0
LINE
  5
2C6
330
1F
100
AcDbEntity
  8
0
100
AcDbLine
 10
17.9924048044028
 20
46.40957595575522
 30
0.0
 11
18.02522673599233
 21
45.82274245474919
 31
0.0
  0
LINE
  5
2C7
330
1F
100
AcDbEntity
  8
0
100
AcDbLine
 10
18.02522673599233
 20
45.82274245474919
 30
0.0
 11
18.02522673599233
 21
42.02596177064456
 31
0.0
  0
LINE
  5
2C8
330
1F
100
AcDbEntity
  8
0
100
AcDbLine
 10
18.02522673599233
 20
42.02596177064456
 30
0.0
 11
15.53830520681728
 21
42.02596177064456
 31
0.0
  0
LINE
  5
2C9
330
1F
100
AcDbEntity
  8
0
100
AcDbLine
 10
23.53629313438268
 20
42.11046881289808
 30
0.0
 11
22.9628524905195
 21
41.95050905434677
 31
0.0
  0
LINE
  5
2CA
330
1F
100
AcDbEntity
  8
0
100
AcDbLine
 10
22.9628524905195
 20
41.95050905434677
 30
0.0
 11
22.00309393921165
 21
41.87505633804899
 31
0.0
  0
LINE
  5
2CB
330
1F
100
AcDbEntity
  8
0
100
AcDbLine
 10
22.00309393921165
 20
41.87505633804899
 30
0.0
 11
21.4951085267368
 21
41.9120281690349
 31
0.0
  0
LINE
  5
2CC
330
1F
100
AcDbEntity
  8
0
100
AcDbLine
 10
21.4951085267368
 20
41.9120281690349
 30
0.0
 11
21.04559896939274
 21
42.02294366199265
 31
0.0
  0
LINE
  5
2CD
330
1F
100
AcDbEntity
  8
0
100
AcDbLine
 10
21.04559896939274
 20
42.02294366199265
 30
0.0
 11
20.65456526717946
 21
42.20780281692223
 31
0.0
  0
LINE
  5
2CE
330
1F
100
AcDbEntity
  8
0
100
AcDbLine
 10
20.65456526717946
 20
42.20780281692223
 30
0.0
 11
20.32200742009696
 21
42.46660563382363
 31
0.0
  0
LINE
  5
2CF
330
1F
100
AcDbEntity
  8
0
100
AcDbLine
 10
20.32200742009696
 20
42.46660563382363
 30
0.0
 11
20.05660249051949
 21
42.79369315897454
 31
0.0
  0
LINE
  5
2D0
330
1F
100
AcDbEntity
  8
0
100
AcDbLine
 10
20.05660249051949
 20
42.79369315897454
 30
0.0
 11
19.8670275408213
 21
43.18340643865261
 31
0.0
  0
LINE
  5
2D1
330
1F
100
AcDbEntity
  8
0
100
AcDbLine
 10
19.8670275408213
 20
43.18340643865261
 30
0.0
 11
19.75328257100239
 21
43.63574547285784
 31
0.0
  0
LINE
  5
2D2
330
1F
100
AcDbEntity
  8
0
100
AcDbLine
 10
19.75328257100239
 20
43.63574547285784
 30
0.0
 11
19.71536758106275
 21
44.15071026159023
 31
0.0
  0
LINE
  5
2D3
330
1F
100
AcDbEntity
  8
0
100
AcDbLine
 10
19.71536758106275
 20
44.15071026159023
 30
0.0
 11
19.71536758106275
 21
46.42636418513148
 31
0.0
  0
LINE
  5
2D4
330
1F
100
AcDbEntity
  8
0
100
AcDbLine
 10
19.71536758106275
 20
46.42636418513148
 30
0.0
 11
18.74353659514726
 21
46.42636418513148
 31
0.0
  0
LINE
  5
2D5
330
1F
100
AcDbEntity
  8
0
100
AcDbLine
 10
18.74353659514726
 20
46.42636418513148
 30
0.0
 11
18.74353659514726
 21
48.20704828975925
 31
0.0
  0
LINE
  5
2D6
330
1F
100
AcDbEntity
  8
0
100
AcDbLine
 10
18.74353659514726
 20
48.20704828975925
 30
0.0
 11
19.71536758106275
 21
48.20704828975925
 31
0.0
  0
LINE
  5
2D7
330
1F
100
AcDbEntity
  8
0
100
AcDbLine
 10
19.71536758106275
 20
48.20704828975925
 30
0.0
 11
19.71536758106275
 21
49.42032796782766
 31
0.0
  0
LINE
  5
2D8
330
1F
100
AcDbEntity
  8
0
100
AcDbLine
 10
19.71536758106275
 20
49.42032796782766
 30
0.0
 11
22.25057884866839
 21
50.12052917507112
 31
0.0
  0
LINE
  5
2D9
330
1F
100
AcDbEntity
  8
0
100
AcDbLine
 10
22.25057884866839
 20
50.12052917507112
 30
0.0
 11
22.25057884866839
 21
48.20704828975925
 31
0.0
  0
LINE
  5
2DA
330
1F
100
AcDbEntity
  8
0
100
AcDbLine
 10
22.25057884866839
 20
48.20704828975925
 30
0.0
 11
23.53629313438268
 21
48.20704828975925
 31
0.0
  0
LINE
  5
2DB
330
1F
100
AcDbEntity
  8
0
100
AcDbLine
 10
23.53629313438268
 20
48.20704828975925
 30
0.0
 11
23.53629313438268
 21
46.42636418513148
 31
0.0
  0
LINE
  5
2DC
330
1F
100
AcDbEntity
  8
0
100
AcDbLine
 10
23.53629313438268
 20
46.42636418513148
 30
0.0
 11
22.25057884866839
 21
46.42636418513148
 31
0.0
  0
LINE
  5
2DD
330
1F
100
AcDbEntity
  8
0
100
AcDbLine
 10
22.25057884866839
 20
46.42636418513148
 30
0.0
 11
22.25057884866839
 21
44.57324547285784
 31
0.0
  0
LINE
  5
2DE
330
1F
100
AcDbEntity
  8
0
100
AcDbLine
 10
22.25057884866839
 20
44.57324547285784
 30
0.0
 11
22.2909460518877
 21
44.2167313883508
 31
0.0
  0
LINE
  5
2DF
330
1F
100
AcDbEntity
  8
0
100
AcDbLine
 10
22.2909460518877
 20
44.2167313883508
 30
0.0
 11
22.41204766154565
 21
43.96207847084577
 31
0.0
  0
LINE
  5
2E0
330
1F
100
AcDbEntity
  8
0
100
AcDbLine
 10
22.41204766154565
 20
43.96207847084577
 30
0.0
 11
22.61388367764223
 21
43.80928672034275
 31
0.0
  0
LINE
  5
2E1
330
1F
100
AcDbEntity
  8
0
100
AcDbLine
 10
22.61388367764223
 20
43.80928672034275
 30
0.0
 11
22.89645410017744
 21
43.75835613684175
 31
0.0
  0
LINE
  5
2E2
330
1F
100
AcDbEntity
  8
0
100
AcDbLine
 10
22.89645410017744
 20
43.75835613684175
 30
0.0
 11
23.53629313438268
 21
43.89115291752585
 31
0.0
  0
LINE
  5
2E3
330
1F
100
AcDbEntity
  8
0
100
AcDbLine
 10
23.53629313438268
 20
43.89115291752585
 30
0.0
 11
23.53629313438268
 21
42.11046881289808
 31
0.0
  0
LINE
  5
2E4
330
1F
100
AcDbEntity
  8
0
100
AcDbLine
 10
-52.44875398262589
 20
22.26066962348085
 30
0.0
 11
-27.73560471505849
 21
22.26066962348085
 31
0.0
  0
LINE
  5
2E5
330
1F
100
AcDbEntity
  8
0
100
AcDbLine
 10
-21.73560376866543
 20
22.26066962348085
 30
0.0
 11
21.73672756618926
 21
22.26066962348085
 31
0.0
  0
LINE
  5
2E6
330
1F
100
AcDbEntity
  8
0
100
AcDbLine
 10
27.73672756618916
 20
22.26066962348085
 30
0.0
 11
52.47345513237841
 21
22.26066962348085
 31
0.0
  0
LINE
  5
2E7
330
1F
100
AcDbEntity
  8
0
100
AcDbLine
 10
-46.47345513237852
 20
25.51066962348085
 30
0.0
 11
-2.999999999999995
 21
25.51066962348085
 31
0.0
  0
LINE
  5
2E8
330
1F
100
AcDbEntity
  8
0
100
AcDbLine
 10
2.999999999999995
 20
25.51066962348085
 30
0.0
 11
46.47345513237852
 21
25.51066962348085
 31
0.0
  0
LINE
  5
2E9
330
1F
100
AcDbEntity
  8
0
100
AcDbLine
 10
-52.44875398262589
 20
22.26066962348085
 30
0.0
 11
-52.44875398262589
 21
15.76066962348083
 31
0.0
  0
LINE
  5
2EA
330
1F
100
AcDbEntity
  8
0
100
AcDbLine
 10
52.47345513237841
 20
22.26066962348085
 30
0.0
 11
52.47345513237841
 21
15.76066962348083
 31
0.0
  0
LINE
  5
2EB
330
1F
100
AcDbEntity
  8
0
100
AcDbLine
 10
-52.44875398262589
 20
15.76066962348083
 30
0.0
 11
-27.73560471505849
 21
15.76066962348083
 31
0.0
  0
LINE
  5
2EC
330
1F
100
AcDbEntity
  8
0
100
AcDbLine
 10
-46.47345513237852
 20
19.01066962348084
 30
0.0
 11
-2.999999999999995
 21
19.01066962348084
 31
0.0
  0
LINE
  5
2ED
330
1F
100
AcDbEntity
  8
0
100
AcDbLine
 10
2.999999999999995
 20
19.01066962348084
 30
0.0
 11
46.47345513237852
 21
19.01066962348084
 31
0.0
  0
LINE
  5
2EE
330
1F
100
AcDbEntity
  8
0
100
AcDbLine
 10
27.73672756618916
 20
15.76066962348083
 30
0.0
 11
52.47345513237841
 21
15.76066962348083
 31
0.0
  0
LINE
  5
2EF
330
1F
100
AcDbEntity
  8
0
100
AcDbLine
 10
-21.73560376866543
 20
15.76066962348083
 30
0.0
 11
21.73672756618926
 21
15.76066962348083
 31
0.0
  0
LINE
  5
2F0
330
1F
100
AcDbEntity
  8
0
100
AcDbLine
 10
-52.44875398262589
 20
15.76066962348083
 30
0.0
 11
-52.44875398262589
 21
9.260669623480824
 31
0.0
  0
LINE
  5
2F1
330
1F
100
AcDbEntity
  8
0
100
AcDbLine
 10
52.47345513237841
 20
15.76066962348083
 30
0.0
 11
52.47345513237841
 21
9.260669623480824
 31
0.0
  0
LINE
  5
2F2
330
1F
100
AcDbEntity
  8
0
100
AcDbLine
 10
-46.47345513237852
 20
12.51066962348083
 30
0.0
 11
-2.999999999999995
 21
12.51066962348083
 31
0.0
  0
LINE
  5
2F3
330
1F
100
AcDbEntity
  8
0
100
AcDbLine
 10
2.999999999999995
 20
12.51066962348083
 30
0.0
 11
46.47345513237852
 21
12.51066962348083
 31
0.0
  0
LINE
  5
2F4
330
1F
100
AcDbEntity
  8
0
100
AcDbLine
 10
27.73672756618916
 20
9.260669623480824
 30
0.0
 11
52.47345513237841
 21
9.260669623480824
 31
0.0
  0
LINE
  5
2F5
330
1F
100
AcDbEntity
  8
0
100
AcDbLine
 10
-52.44875398262589
 20
9.260669623480824
 30
0.0
 11
-27.73560471505849
 21
9.260669623480824
 31
0.0
  0
LINE
  5
2F6
330
1F
100
AcDbEntity
  8
0
100
AcDbLine
 10
-21.73560376866543
 20
9.260669623480824
 30
0.0
 11
21.73672756618926
 21
9.260669623480824
 31
0.0
  0
LINE
  5
2F7
330
1F
100
AcDbEntity
  8
0
100
AcDbLine
 10
-52.44875398262589
 20
9.260669623480824
 30
0.0
 11
-52.44875398262589
 21
2.760669623480814
 31
0.0
  0
LINE
  5
2F8
330
1F
100
AcDbEntity
  8
0
100
AcDbLine
 10
52.47345513237841
 20
9.260669623480824
 30
0.0
 11
52.47345513237841
 21
2.760669623480814
 31
0.0
  0
LINE
  5
2F9
330
1F
100
AcDbEntity
  8
0
100
AcDbLine
 10
-21.73560376866543
 20
2.760669623480814
 30
0.0
 11
21.73672756618926
 21
2.760669623480814
 31
0.0
  0
LINE
  5
2FA
330
1F
100
AcDbEntity
  8
0
100
AcDbLine
 10
-52.44875398262589
 20
2.760669623480814
 30
0.0
 11
-27.73560471505849
 21
2.760669623480814
 31
0.0
  0
LINE
  5
2FB
330
1F
100
AcDbEntity
  8
0
100
AcDbLine
 10
27.73672756618916
 20
2.760669623480814
 30
0.0
 11
52.47345513237841
 21
2.760669623480814
 31
0.0
  0
LINE
  5
2FC
330
1F
100
AcDbEntity
  8
0
100
AcDbLine
 10
2.999999999999995
 20
6.010669623480819
 30
0.0
 11
46.47345513237852
 21
6.010669623480819
 31
0.0
  0
LINE
  5
2FD
330
1F
100
AcDbEntity
  8
0
100
AcDbLine
 10
-46.47345513237852
 20
6.010669623480819
 30
0.0
 11
-2.999999999999995
 21
6.010669623480819
 31
0.0
  0
LINE
  5
2FE
330
1F
100
AcDbEntity
  8
0
100
AcDbLine
 10
-52.44875398262589
 20
2.760669623480814
 30
0.0
 11
-52.44875398262589
 21
-3.739330376519197
 31
0.0
  0
LINE
  5
2FF
330
1F
100
AcDbEntity
  8
0
100
AcDbLine
 10
52.47345513237841
 20
2.760669623480814
 30
0.0
 11
52.47345513237841
 21
-3.739330376519197
 31
0.0
  0
LINE
  5
300
330
1F
100
AcDbEntity
  8
0
100
AcDbLine
 10
-52.44875398262589
 20
-16.73933037651922
 30
0.0
 11
-27.73560471505849
 21
-16.73933037651922
 31
0.0
  0
LINE
  5
301
330
1F
100
AcDbEntity
  8
0
100
AcDbLine
 10
-21.73560376866543
 20
-23.23933037651923
 30
0.0
 11
21.73672756618926
 21
-23.23933037651923
 31
0.0
  0
LINE
  5
302
330
1F
100
AcDbEntity
  8
0
100
AcDbLine
 10
-52.44875398262589
 20
-23.23933037651923
 30
0.0
 11
-27.73560471505849
 21
-23.23933037651923
 31
0.0
  0
LINE
  5
303
330
1F
100
AcDbEntity
  8
0
100
AcDbLine
 10
-21.73560376866543
 20
-10.23933037651921
 30
0.0
 11
21.73672756618926
 21
-10.23933037651921
 31
0.0
  0
LINE
  5
304
330
1F
100
AcDbEntity
  8
0
100
AcDbLine
 10
-46.47345513237852
 20
-0.4893303765191913
 30
0.0
 11
-2.999999999999995
 21
-0.4893303765191913
 31
0.0
  0
LINE
  5
305
330
1F
100
AcDbEntity
  8
0
100
AcDbLine
 10
27.73672756618916
 20
-16.73933037651922
 30
0.0
 11
52.47345513237841
 21
-16.73933037651922
 31
0.0
  0
LINE
  5
306
330
1F
100
AcDbEntity
  8
0
100
AcDbLine
 10
27.73672756618916
 20
-23.23933037651923
 30
0.0
 11
52.47345513237841
 21
-23.23933037651923
 31
0.0
  0
LINE
  5
307
330
1F
100
AcDbEntity
  8
0
100
AcDbLine
 10
-46.47345513237852
 20
-6.989330376519202
 30
0.0
 11
-2.999999999999995
 21
-6.989330376519202
 31
0.0
  0
LINE
  5
308
330
1F
100
AcDbEntity
  8
0
100
AcDbLine
 10
2.999999999999995
 20
-6.989330376519202
 30
0.0
 11
46.47345513237852
 21
-6.989330376519202
 31
0.0
  0
LINE
  5
309
330
1F
100
AcDbEntity
  8
0
100
AcDbLine
 10
27.73672756618916
 20
-3.739330376519197
 30
0.0
 11
52.47345513237841
 21
-3.739330376519197
 31
0.0
  0
LINE
  5
30A
330
1F
100
AcDbEntity
  8
0
100
AcDbLine
 10
-46.47345513237852
 20
-13.48933037651921
 30
0.0
 11
-2.999999999999995
 21
-13.48933037651921
 31
0.0
  0
LINE
  5
30B
330
1F
100
AcDbEntity
  8
0
100
AcDbLine
 10
2.999999999999995
 20
-13.48933037651921
 30
0.0
 11
46.47345513237852
 21
-13.48933037651921
 31
0.0
  0
LINE
  5
30C
330
1F
100
AcDbEntity
  8
0
100
AcDbLine
 10
-52.44875398262589
 20
-10.23933037651921
 30
0.0
 11
-27.73560471505849
 21
-10.23933037651921
 31
0.0
  0
LINE
  5
30D
330
1F
100
AcDbEntity
  8
0
100
AcDbLine
 10
2.999999999999995
 20
-0.4893303765191913
 30
0.0
 11
46.47345513237852
 21
-0.4893303765191913
 31
0.0
  0
LINE
  5
30E
330
1F
100
AcDbEntity
  8
0
100
AcDbLine
 10
27.73672756618916
 20
-10.23933037651921
 30
0.0
 11
52.47345513237841
 21
-10.23933037651921
 31
0.0
  0
LINE
  5
30F
330
1F
100
AcDbEntity
  8
0
100
AcDbLine
 10
-52.44875398262589
 20
-3.739330376519197
 30
0.0
 11
-27.73560471505849
 21
-3.739330376519197
 31
0.0
  0
LINE
  5
310
330
1F
100
AcDbEntity
  8
0
100
AcDbLine
 10
-21.73560376866543
 20
-3.739330376519197
 30
0.0
 11
21.73672756618926
 21
-3.739330376519197
 31
0.0
  0
LINE
  5
311
330
1F
100
AcDbEntity
  8
0
100
AcDbLine
 10
2.999999999999995
 20
-19.98933037651922
 30
0.0
 11
46.47345513237852
 21
-19.98933037651922
 31
0.0
  0
LINE
  5
312
330
1F
100
AcDbEntity
  8
0
100
AcDbLine
 10
-21.73560376866543
 20
-16.73933037651922
 30
0.0
 11
21.73672756618926
 21
-16.73933037651922
 31
0.0
  0
LINE
  5
313
330
1F
100
AcDbEntity
  8
0
100
AcDbLine
 10
-46.47345513237852
 20
-19.98933037651922
 30
0.0
 11
-2.999999999999995
 21
-19.98933037651922
 31
0.0
  0
LINE
  5
314
330
1F
100
AcDbEntity
  8
0
100
AcDbLine
 10
-52.44875398262589
 20
-16.73933037651922
 30
0.0
 11
-52.44875398262589
 21
-23.23933037651923
 31
0.0
  0
LINE
  5
315
330
1F
100
AcDbEntity
  8
0
100
AcDbLine
 10
-52.44875398262589
 20
-10.23933037651921
 30
0.0
 11
-52.44875398262589
 21
-16.73933037651922
 31
0.0
  0
LINE
  5
316
330
1F
100
AcDbEntity
  8
0
100
AcDbLine
 10
-52.44875398262589
 20
-3.739330376519197
 30
0.0
 11
-52.44875398262589
 21
-10.23933037651921
 31
0.0
  0
LINE
  5
317
330
1F
100
AcDbEntity
  8
0
100
AcDbLine
 10
52.47345513237841
 20
-23.23933037651923
 30
0.0
 11
52.47345513237841
 21
-29.73933037651924
 31
0.0
  0
LINE
  5
318
330
1F
100
AcDbEntity
  8
0
100
AcDbLine
 10
52.47345513237841
 20
-16.73933037651922
 30
0.0
 11
52.47345513237841
 21
-23.23933037651923
 31
0.0
  0
LINE
  5
319
330
1F
100
AcDbEntity
  8
0
100
AcDbLine
 10
52.47345513237841
 20
-10.23933037651921
 30
0.0
 11
52.47345513237841
 21
-16.73933037651922
 31
0.0
  0
LINE
  5
31A
330
1F
100
AcDbEntity
  8
0
100
AcDbLine
 10
52.47345513237841
 20
-3.739330376519197
 30
0.0
 11
52.47345513237841
 21
-10.23933037651921
 31
0.0
  0
LINE
  5
31B
330
1F
100
AcDbEntity
  8
0
100
AcDbLine
 10
-52.44875398262589
 20
-23.23933037651923
 30
0.0
 11
-52.44875398262589
 21
-29.73933037651924
 31
0.0
  0
LINE
  5
31C
330
1F
100
AcDbEntity
  8
0
100
AcDbLine
 10
-21.73560376866543
 20
-36.23933037651925
 30
0.0
 11
21.73672756618926
 21
-36.23933037651925
 31
0.0
  0
LINE
  5
31D
330
1F
100
AcDbEntity
  8
0
100
AcDbLine
 10
-46.47345513237852
 20
-26.48933037651923
 30
0.0
 11
-2.999999999999995
 21
-26.48933037651923
 31
0.0
  0
LINE
  5
31E
330
1F
100
AcDbEntity
  8
0
100
AcDbLine
 10
27.73672756618916
 20
-42.73933037651926
 30
0.0
 11
52.47345513237841
 21
-42.73933037651926
 31
0.0
  0
LINE
  5
31F
330
1F
100
AcDbEntity
  8
0
100
AcDbLine
 10
2.999999999999995
 20
-32.98933037651924
 30
0.0
 11
46.47345513237852
 21
-32.98933037651924
 31
0.0
  0
LINE
  5
320
330
1F
100
AcDbEntity
  8
0
100
AcDbLine
 10
27.73672756618916
 20
-36.23933037651925
 30
0.0
 11
52.47345513237841
 21
-36.23933037651925
 31
0.0
  0
LINE
  5
321
330
1F
100
AcDbEntity
  8
0
100
AcDbLine
 10
-52.44875398262589
 20
-29.73933037651924
 30
0.0
 11
-27.73560471505849
 21
-29.73933037651924
 31
0.0
  0
LINE
  5
322
330
1F
100
AcDbEntity
  8
0
100
AcDbLine
 10
2.999999999999995
 20
-39.48933037651926
 30
0.0
 11
46.47345513237852
 21
-39.48933037651926
 31
0.0
  0
LINE
  5
323
330
1F
100
AcDbEntity
  8
0
100
AcDbLine
 10
-21.73560376866543
 20
-49.23933037651927
 30
0.0
 11
21.73672756618926
 21
-49.23933037651927
 31
0.0
  0
LINE
  5
324
330
1F
100
AcDbEntity
  8
0
100
AcDbLine
 10
27.73672756618916
 20
-49.23933037651927
 30
0.0
 11
52.47345513237841
 21
-49.23933037651927
 31
0.0
  0
LINE
  5
325
330
1F
100
AcDbEntity
  8
0
100
AcDbLine
 10
2.999999999999995
 20
-26.48933037651923
 30
0.0
 11
46.47345513237852
 21
-26.48933037651923
 31
0.0
  0
LINE
  5
326
330
1F
100
AcDbEntity
  8
0
100
AcDbLine
 10
-46.47345513237852
 20
-39.48933037651926
 30
0.0
 11
-2.999999999999995
 21
-39.48933037651926
 31
0.0
  0
LINE
  5
327
330
1F
100
AcDbEntity
  8
0
100
AcDbLine
 10
27.73672756618916
 20
-29.73933037651924
 30
0.0
 11
52.47345513237841
 21
-29.73933037651924
 31
0.0
  0
LINE
  5
328
330
1F
100
AcDbEntity
  8
0
100
AcDbLine
 10
-52.44875398262589
 20
-49.23933037651927
 30
0.0
 11
-27.73560471505849
 21
-49.23933037651927
 31
0.0
  0
LINE
  5
329
330
1F
100
AcDbEntity
  8
0
100
AcDbLine
 10
-52.44875398262589
 20
-42.73933037651926
 30
0.0
 11
-27.73560471505849
 21
-42.73933037651926
 31
0.0
  0
LINE
  5
32A
330
1F
100
AcDbEntity
  8
0
100
AcDbLine
 10
-46.47345513237852
 20
-32.98933037651924
 30
0.0
 11
-2.999999999999995
 21
-32.98933037651924
 31
0.0
  0
LINE
  5
32B
330
1F
100
AcDbEntity
  8
0
100
AcDbLine
 10
-21.73560376866543
 20
-29.73933037651924
 30
0.0
 11
21.73672756618926
 21
-29.73933037651924
 31
0.0
  0
LINE
  5
32C
330
1F
100
AcDbEntity
  8
0
100
AcDbLine
 10
-52.44875398262589
 20
-36.23933037651925
 30
0.0
 11
-27.73560471505849
 21
-36.23933037651925
 31
0.0
  0
LINE
  5
32D
330
1F
100
AcDbEntity
  8
0
100
AcDbLine
 10
2.999999999999995
 20
-45.98933037651926
 30
0.0
 11
46.47345513237852
 21
-45.98933037651926
 31
0.0
  0
LINE
  5
32E
330
1F
100
AcDbEntity
  8
0
100
AcDbLine
 10
-21.73560376866543
 20
-42.73933037651926
 30
0.0
 11
21.73672756618926
 21
-42.73933037651926
 31
0.0
  0
LINE
  5
32F
330
1F
100
AcDbEntity
  8
0
100
AcDbLine
 10
-46.47345513237852
 20
-45.98933037651926
 30
0.0
 11
-2.999999999999995
 21
-45.98933037651926
 31
0.0
  0
LINE
  5
330
330
1F
100
AcDbEntity
  8
0
100
AcDbLine
 10
52.47345513237841
 20
-42.73933037651926
 30
0.0
 11
52.47345513237841
 21
-49.23933037651927
 31
0.0
  0
LINE
  5
331
330
1F
100
AcDbEntity
  8
0
100
AcDbLine
 10
52.47345513237841
 20
-36.23933037651925
 30
0.0
 11
52.47345513237841
 21
-42.73933037651926
 31
0.0
  0
LINE
  5
332
330
1F
100
AcDbEntity
  8
0
100
AcDbLine
 10
52.47345513237841
 20
-29.73933037651924
 30
0.0
 11
52.47345513237841
 21
-36.23933037651925
 31
0.0
  0
LINE
  5
333
330
1F
100
AcDbEntity
  8
0
100
AcDbLine
 10
-52.44875398262589
 20
-49.23933037651927
 30
0.0
 11
-52.44875398262589
 21
-55.73933037651928
 31
0.0
  0
LINE
  5
334
330
1F
100
AcDbEntity
  8
0
100
AcDbLine
 10
-52.44875398262589
 20
-42.73933037651926
 30
0.0
 11
-52.44875398262589
 21
-49.23933037651927
 31
0.0
  0
LINE
  5
335
330
1F
100
AcDbEntity
  8
0
100
AcDbLine
 10
-52.44875398262589
 20
-29.73933037651924
 30
0.0
 11
-52.44875398262589
 21
-36.23933037651925
 31
0.0
  0
LINE
  5
336
330
1F
100
AcDbEntity
  8
0
100
AcDbLine
 10
52.47345513237841
 20
-49.23933037651927
 30
0.0
 11
52.47345513237841
 21
-55.73933037651928
 31
0.0
  0
LINE
  5
337
330
1F
100
AcDbEntity
  8
0
100
AcDbLine
 10
-52.44875398262589
 20
-36.23933037651925
 30
0.0
 11
-52.44875398262589
 21
-42.73933037651926
 31
0.0
  0
LINE
  5
338
330
1F
100
AcDbEntity
  8
0
100
AcDbLine
 10
2.999999999999995
 20
-58.98933037651928
 30
0.0
 11
46.47345513237852
 21
-58.98933037651928
 31
0.0
  0
LINE
  5
339
330
1F
100
AcDbEntity
  8
0
100
AcDbLine
 10
-21.73560376866543
 20
-62.23933037651929
 30
0.0
 11
21.73672756618926
 21
-62.23933037651929
 31
0.0
  0
LINE
  5
33A
330
1F
100
AcDbEntity
  8
0
100
AcDbLine
 10
2.999999999999995
 20
-52.48933037651928
 30
0.0
 11
46.47345513237852
 21
-52.48933037651928
 31
0.0
  0
LINE
  5
33B
330
1F
100
AcDbEntity
  8
0
100
AcDbLine
 10
27.73672756618916
 20
-55.73933037651928
 30
0.0
 11
52.47345513237841
 21
-55.73933037651928
 31
0.0
  0
LINE
  5
33C
330
1F
100
AcDbEntity
  8
0
100
AcDbLine
 10
27.73672756618916
 20
-68.7393303765193
 30
0.0
 11
52.47345513237841
 21
-68.7393303765193
 31
0.0
  0
LINE
  5
33D
330
1F
100
AcDbEntity
  8
0
100
AcDbLine
 10
-46.47345513237852
 20
-58.98933037651928
 30
0.0
 11
-2.999999999999995
 21
-58.98933037651928
 31
0.0
  0
LINE
  5
33E
330
1F
100
AcDbEntity
  8
0
100
AcDbLine
 10
-52.44875398262589
 20
-62.23933037651929
 30
0.0
 11
-27.73560471505849
 21
-62.23933037651929
 31
0.0
  0
LINE
  5
33F
330
1F
100
AcDbEntity
  8
0
100
AcDbLine
 10
2.999999999999995
 20
-71.9893303765193
 30
0.0
 11
46.47345513237852
 21
-71.9893303765193
 31
0.0
  0
LINE
  5
340
330
1F
100
AcDbEntity
  8
0
100
AcDbLine
 10
-46.47345513237852
 20
-52.48933037651928
 30
0.0
 11
-2.999999999999995
 21
-52.48933037651928
 31
0.0
  0
LINE
  5
341
330
1F
100
AcDbEntity
  8
0
100
AcDbLine
 10
-46.47345513237852
 20
-65.48933037651929
 30
0.0
 11
-2.999999999999995
 21
-65.48933037651929
 31
0.0
  0
LINE
  5
342
330
1F
100
AcDbEntity
  8
0
100
AcDbLine
 10
27.73672756618916
 20
-62.23933037651929
 30
0.0
 11
52.47345513237841
 21
-62.23933037651929
 31
0.0
  0
LINE
  5
343
330
1F
100
AcDbEntity
  8
0
100
AcDbLine
 10
2.999999999999995
 20
-65.48933037651929
 30
0.0
 11
46.47345513237852
 21
-65.48933037651929
 31
0.0
  0
LINE
  5
344
330
1F
100
AcDbEntity
  8
0
100
AcDbLine
 10
-52.44875398262589
 20
-68.7393303765193
 30
0.0
 11
-27.73560471505849
 21
-68.7393303765193
 31
0.0
  0
LINE
  5
345
330
1F
100
AcDbEntity
  8
0
100
AcDbLine
 10
-52.44875398262589
 20
-55.73933037651928
 30
0.0
 11
-27.73560471505849
 21
-55.73933037651928
 31
0.0
  0
LINE
  5
346
330
1F
100
AcDbEntity
  8
0
100
AcDbLine
 10
-21.73560376866543
 20
-55.73933037651928
 30
0.0
 11
21.73672756618926
 21
-55.73933037651928
 31
0.0
  0
LINE
  5
347
330
1F
100
AcDbEntity
  8
0
100
AcDbLine
 10
-46.47345513237852
 20
-71.9893303765193
 30
0.0
 11
-2.999999999999995
 21
-71.9893303765193
 31
0.0
  0
LINE
  5
348
330
1F
100
AcDbEntity
  8
0
100
AcDbLine
 10
-21.73560376866543
 20
-68.7393303765193
 30
0.0
 11
21.73672756618926
 21
-68.7393303765193
 31
0.0
  0
LINE
  5
349
330
1F
100
AcDbEntity
  8
0
100
AcDbLine
 10
-52.44875398262589
 20
-62.23933037651929
 30
0.0
 11
-52.44875398262589
 21
-68.7393303765193
 31
0.0
  0
LINE
  5
34A
330
1F
100
AcDbEntity
  8
0
100
AcDbLine
 10
-52.44875398262589
 20
-55.73933037651928
 30
0.0
 11
-52.44875398262589
 21
-62.23933037651929
 31
0.0
  0
LINE
  5
34B
330
1F
100
AcDbEntity
  8
0
100
AcDbLine
 10
52.47345513237841
 20
-55.73933037651928
 30
0.0
 11
52.47345513237841
 21
-62.23933037651929
 31
0.0
  0
LINE
  5
34C
330
1F
100
AcDbEntity
  8
0
100
AcDbLine
 10
-52.44875398262589
 20
-68.7393303765193
 30
0.0
 11
-52.44875398262589
 21
-73.98933037651895
 31
0.0
  0
LINE
  5
34D
330
1F
100
AcDbEntity
  8
0
100
AcDbLine
 10
52.47345513237841
 20
-68.7393303765193
 30
0.0
 11
52.4734551323785
 21
-73.98933037651895
 31
0.0
  0
LINE
  5
34E
330
1F
100
AcDbEntity
  8
0
100
AcDbLine
 10
52.47345513237841
 20
-62.23933037651929
 30
0.0
 11
52.47345513237841
 21
-68.7393303765193
 31
0.0
  0
ENDSEC
  0
SECTION
  2
OBJECTS
  0
DICTIONARY
  5
C
330
0
100
AcDbDictionary
  3
ACAD_GROUP
350
D
  3
ACAD_LAYOUT
350
1A
  3
ACAD_MATERIAL
350
43
  3
ACAD_MLEADERSTYLE
350
371
  3
ACAD_MLINESTYLE
350
17
  3
ACAD_PLOTSETTINGS
350
19
  3
ACAD_SCALELIST
350
47
  3
ACAD_VISUALSTYLE
350
2A
  3
ACDBHEADERROUNDTRIPXREC
350
34F
  3
ACDBVARIABLEDICTIONARY
350
36F
  0
DICTIONARY
  5
376
330
8
100
AcDbDictionary
280
     1
  3
ACAD_XREC_ROUNDTRIP
360
377
  0
DICTIONARY
  5
D
102
{ACAD_REACTORS
330
C
102
}
330
C
100
AcDbDictionary
  0
DICTIONARY
  5
1A
102
{ACAD_REACTORS
330
C
102
}
330
C
100
AcDbDictionary
  0
DICTIONARY
  5
43
102
{ACAD_REACTORS
330
C
102
}
330
C
100
AcDbDictionary
  3
BYBLOCK
350
45
  3
BYLAYER
350
44
  3
GLOBAL
350
46
  0
DICTIONARY
  5
371
102
{ACAD_REACTORS
330
C
102
}
330
C
100
AcDbDictionary
  0
DICTIONARY
  5
17
102
{ACAD_REACTORS
330
C
102
}
330
C
100
AcDbDictionary
  3
STANDARD
350
18
  0
DICTIONARY
  5
19
102
{ACAD_REACTORS
330
C
102
}
330
C
100
AcDbDictionary
  0
DICTIONARY
  5
47
102
{ACAD_REACTORS
330
C
102
}
330
C
100
AcDbDictionary
  3
A0
350
48
  3
A1
350
49
  3
A2
350
4A
  3
A3
350
4B
  3
A4
350
4C
  3
A5
350
4D
  3
A6
350
4E
  3
A7
350
4F
  3
A8
350
50
  3
A9
350
51
  3
B0
350
52
  3
B1
350
53
  3
B2
350
54
  3
B3
350
55
  3
B4
350
56
  3
B5
350
57
  3
B6
350
58
  3
B7
350
59
  3
B8
350
5A
  3
B9
350
5B
  3
C0
350
5C
  3
C1
350
5D
  3
C2
350
5E
  3
C3
350
5F
  3
C4
350
60
  3
C5
350
61
  3
C6
350
62
  3
C7
350
63
  3
C8
350
64
  3
C9
350
65
  3
D0
350
66
  3
D1
350
67
  3
D2
350
68
  0
DICTIONARY
  5
2A
102
{ACAD_REACTORS
330
C
102
}
330
C
100
AcDbDictionary
  3
2DWIREFRAME
350
2F
  3
BASIC
350
32
  3
BRIGHTEN
350
36
  3
COLORCHANGE
350
3A
  3
CONCEPTUAL
350
34
  3
DIM
350
35
  3
EDGECOLOROFF
350
3D
  3
FACEPATTERN
350
39
  3
FLAT
350
2B
  3
FLATWITHEDGES
350
2C
  3
GOURAUD
350
2D
  3
GOURAUDWITHEDGES
350
2E
  3
HIDDEN
350
31
  3
JITTEROFF
350
3B
  3
LINEPATTERN
350
38
  3
OVERHANGOFF
350
3C
  3
REALISTIC
350
33
  3
SHADED
350
42
  3
SHADED_WITH_EDGES
350
41
  3
SHADES_OF_GRAY
350
3E
  3
SKETCHY
350
3F
  3
THICKEN
350
37
  3
WIREFRAME
350
30
  3
X-RAY
350
40
  0
DICTIONARY
  5
34F
102
{ACAD_REACTORS
330
C
102
}
330
C
100
AcDbDictionary
  3
CEPSNTYPE
350
358
  3
DIMSTYLEDATA
350
36E
  3
FINGERPRINTGUID
350
359
  3
HYPERLINKBASE
350
352
  3
INSUNITS
350
357
  3
LAYOUTDICT
350
354
  3
LWETCUNION
350
356
  3
PLOTSETDICT
350
355
  3
PSVPSCALE
350
35B
  3
PUCSBASE
350
35E
  3
PUCSORGBACK
350
364
  3
PUCSORGBOTTOM
350
360
  3
PUCSORGFRONT
350
363
  3
PUCSORGLEFT
350
361
  3
PUCSORGRIGHT
350
362
  3
PUCSORGTOP
350
35F
  3
PUCSORTHOREF
350
35C
  3
PUCSORTHOVIEW
350
35D
  3
STYLESHEET
350
353
  3
TSTACKALIGN
350
350
  3
TSTACKSIZE
350
351
  3
UCSBASE
350
367
  3
UCSORGBACK
350
36D
  3
UCSORGBOTTOM
350
369
  3
UCSORGFRONT
350
36C
  3
UCSORGLEFT
350
36A
  3
UCSORGRIGHT
350
36B
  3
UCSORGTOP
350
368
  3
UCSORTHOREF
350
365
  3
UCSORTHOVIEW
350
366
  3
VERSIONGUID
350
35A
  0
DICTIONARY
  5
36F
102
{ACAD_REACTORS
330
C
102
}
330
C
100
AcDbDictionary
  3
CANNOSCALE
350
378
  3
DIMASSOC
350
374
  3
HIDETEXT
350
375
  3
MSLTSCALE
350
379
  0
XRECORD
  5
377
102
{ACAD_REACTORS
330
376
102
}
330
376
100
AcDbXrecord
102
VTR_0.000_0.000_1.000_1.000_GRIDDISPLAY
 70
     3
102
VTR_0.000_0.000_1.000_1.000_GRIDMAJOR
 70
     5
102
VTR_0.000_0.000_1.000_1.000_DEFAULTLIGHTING
280
     1
102
VTR_0.000_0.000_1.000_1.000_DEFAULTLIGHTINGTYPE
 70
     1
102
VTR_0.000_0.000_1.000_1.000_BRIGHTNESS
141
0.0
102
VTR_0.000_0.000_1.000_1.000_CONTRAST
142
0.0
  0
MATERIAL
  5
45
102
{ACAD_REACTORS
330
43
102
}
102
{ACAD_XDICTIONARY
360
37C
102
}
330
43
100
AcDbMaterial
  1
BYBLOCK
  0
MATERIAL
  5
44
102
{ACAD_REACTORS
330
43
102
}
102
{ACAD_XDICTIONARY
360
37A
102
}
330
43
100
AcDbMaterial
  1
BYLAYER
  0
MATERIAL
  5
46
102
{ACAD_REACTORS
330
43
102
}
102
{ACAD_XDICTIONARY
360
37E
102
}
330
43
100
AcDbMaterial
  1
GLOBAL
  0
MLINESTYLE
  5
18
102
{ACAD_REACTORS
330
17
102
}
330
17
100
AcDbMlineStyle
  2
Standard
 70
     0
  3

 62
   256
 51
90.0
 52
90.0
 71
     2
 49
0.5
 62
   256
  6
BYLAYER
 49
-0.5
 62
   256
  6
BYLAYER
  0
ACAD_PROXY_OBJECT
  5
48
102
{ACAD_REACTORS
330
47
102
}
330
47
100
AcDbProxyObject
 90
      499
 91
      503
 93
       41
310
903313A31580
  0
ACAD_PROXY_OBJECT
  5
49
102
{ACAD_REACTORS
330
47
102
}
330
47
100
AcDbProxyObject
 90
      499
 91
      503
 93
      105
310
903313A324000000000000004000
  0
ACAD_PROXY_OBJECT
  5
4A
102
{ACAD_REACTORS
330
47
102
}
330
47
100
AcDbProxyObject
 90
      499
 91
      503
 93
      105
310
903313A344000000000000104000
  0
ACAD_PROXY_OBJECT
  5
4B
102
{ACAD_REACTORS
330
47
102
}
330
47
100
AcDbProxyObject
 90
      499
 91
      503
 93
      105
310
903313A354000000000000144000
  0
ACAD_PROXY_OBJECT
  5
4C
102
{ACAD_REACTORS
330
47
102
}
330
47
100
AcDbProxyObject
 90
      499
 91
      503
 93
      105
310
903313A384000000000000204000
  0
ACAD_PROXY_OBJECT
  5
4D
102
{ACAD_REACTORS
330
47
102
}
330
47
100
AcDbProxyObject
 90
      499
 91
      503
 93
      113
310
904313A31304000000000000244000
  0
ACAD_PROXY_OBJECT
  5
4E
102
{ACAD_REACTORS
330
47
102
}
330
47
100
AcDbProxyObject
 90
      499
 91
      503
 93
      113
310
904313A31364000000000000304000
  0
ACAD_PROXY_OBJECT
  5
4F
102
{ACAD_REACTORS
330
47
102
}
330
47
100
AcDbProxyObject
 90
      499
 91
      503
 93
      113
310
904313A32304000000000000344000
  0
ACAD_PROXY_OBJECT
  5
50
102
{ACAD_REACTORS
330
47
102
}
330
47
100
AcDbProxyObject
 90
      499
 91
      503
 93
      113
310
904313A333040000000000003E4000
  0
ACAD_PROXY_OBJECT
  5
51
102
{ACAD_REACTORS
330
47
102
}
330
47
100
AcDbProxyObject
 90
      499
 91
      503
 93
      113
310
904313A34304000000000000444000
  0
ACAD_PROXY_OBJECT
  5
52
102
{ACAD_REACTORS
330
47
102
}
330
47
100
AcDbProxyObject
 90
      499
 91
      503
 93
      113
310
904313A35304000000000000494000
  0
ACAD_PROXY_OBJECT
  5
53
102
{ACAD_REACTORS
330
47
102
}
330
47
100
AcDbProxyObject
 90
      499
 91
      503
 93
      121
310
905313A3130304000000000000594000
  0
ACAD_PROXY_OBJECT
  5
54
102
{ACAD_REACTORS
330
47
102
}
330
47
100
AcDbProxyObject
 90
      499
 91
      503
 93
      105
310
903323A310000000000000010100
  0
ACAD_PROXY_OBJECT
  5
55
102
{ACAD_REACTORS
330
47
102
}
330
47
100
AcDbProxyObject
 90
      499
 91
      503
 93
      105
310
903343A310000000000000410100
  0
ACAD_PROXY_OBJECT
  5
56
102
{ACAD_REACTORS
330
47
102
}
330
47
100
AcDbProxyObject
 90
      499
 91
      503
 93
      105
310
903383A310000000000000810100
  0
ACAD_PROXY_OBJECT
  5
57
102
{ACAD_REACTORS
330
47
102
}
330
47
100
AcDbProxyObject
 90
      499
 91
      503
 93
      113
310
90431303A310000000000000910100
  0
ACAD_PROXY_OBJECT
  5
58
102
{ACAD_REACTORS
330
47
102
}
330
47
100
AcDbProxyObject
 90
      499
 91
      503
 93
      121
310
9053130303A310000000000001650100
  0
ACAD_PROXY_OBJECT
  5
59
102
{ACAD_REACTORS
330
47
102
}
330
47
100
AcDbProxyObject
 90
      499
 91
      503
 93
      257
310
90E312F31323822203D2031272D3022000000000000200FC000000000000284000
  0
ACAD_PROXY_OBJECT
  5
5A
102
{ACAD_REACTORS
330
47
102
}
330
47
100
AcDbProxyObject
 90
      499
 91
      503
 93
      249
310
90D312F363422203D2031272D3022000000000000240FC000000000000284000
  0
ACAD_PROXY_OBJECT
  5
5B
102
{ACAD_REACTORS
330
47
102
}
330
47
100
AcDbProxyObject
 90
      499
 91
      503
 93
      249
310
90D312F333222203D2031272D3022000000000000280FC000000000000284000
  0
ACAD_PROXY_OBJECT
  5
5C
102
{ACAD_REACTORS
330
47
102
}
330
47
100
AcDbProxyObject
 90
      499
 91
      503
 93
      249
310
90D312F313622203D2031272D30220000000000002C0FC000000000000284000
  0
ACAD_PROXY_OBJECT
  5
5D
102
{ACAD_REACTORS
330
47
102
}
330
47
100
AcDbProxyObject
 90
      499
 91
      503
 93
      249
310
90D332F333222203D2031272D30220000000000002E0FC000000000000284000
  0
ACAD_PROXY_OBJECT
  5
5E
102
{ACAD_REACTORS
330
47
102
}
330
47
100
AcDbProxyObject
 90
      499
 91
      503
 93
      241
310
90C312F3822203D2031272D3022000000000000300FC000000000000284000
  0
ACAD_PROXY_OBJECT
  5
5F
102
{ACAD_REACTORS
330
47
102
}
330
47
100
AcDbProxyObject
 90
      499
 91
      503
 93
      249
310
90D332F313622203D2031272D3022000000000000320FC000000000000284000
  0
ACAD_PROXY_OBJECT
  5
60
102
{ACAD_REACTORS
330
47
102
}
330
47
100
AcDbProxyObject
 90
      499
 91
      503
 93
      241
310
90C312F3422203D2031272D3022000000000000340FC000000000000284000
  0
ACAD_PROXY_OBJECT
  5
61
102
{ACAD_REACTORS
330
47
102
}
330
47
100
AcDbProxyObject
 90
      499
 91
      503
 93
      241
310
90C332F3822203D2031272D3022000000000000360FC000000000000284000
  0
ACAD_PROXY_OBJECT
  5
62
102
{ACAD_REACTORS
330
47
102
}
330
47
100
AcDbProxyObject
 90
      499
 91
      503
 93
      241
310
90C312F3222203D2031272D3022000000000000380FC000000000000284000
  0
ACAD_PROXY_OBJECT
  5
63
102
{ACAD_REACTORS
330
47
102
}
330
47
100
AcDbProxyObject
 90
      499
 91
      503
 93
      241
310
90C332F3422203D2031272D30220000000000003A0FC000000000000284000
  0
ACAD_PROXY_OBJECT
  5
64
102
{ACAD_REACTORS
330
47
102
}
330
47
100
AcDbProxyObject
 90
      499
 91
      503
 93
      161
310
90A3122203D2031272D30224000000000000284000
  0
ACAD_PROXY_OBJECT
  5
65
102
{ACAD_REACTORS
330
47
102
}
330
47
100
AcDbProxyObject
 90
      499
 91
      503
 93
      257
310
90E312D312F3222203D2031272D30220000000000003E0FC000000000000284000
  0
ACAD_PROXY_OBJECT
  5
66
102
{ACAD_REACTORS
330
47
102
}
330
47
100
AcDbProxyObject
 90
      499
 91
      503
 93
      225
310
90A3322203D2031272D302200000000000002100000000000000284000
  0
ACAD_PROXY_OBJECT
  5
67
102
{ACAD_REACTORS
330
47
102
}
330
47
100
AcDbProxyObject
 90
      499
 91
      503
 93
      225
310
90A3622203D2031272D302200000000000006100000000000000284000
  0
ACAD_PROXY_OBJECT
  5
68
102
{ACAD_REACTORS
330
47
102
}
330
47
100
AcDbProxyObject
 90
      499
 91
      503
 93
      249
310
90D31272D3022203D2031272D30220000000000000A100000000000000284000
  0
ACAD_PROXY_OBJECT
  5
2F
102
{ACAD_REACTORS
330
2A
102
}
330
2A
100
AcDbProxyObject
 90
      499
 91
      501
 93
      436
310
42CC9915DA5C99599C985B595049028333333333333E33F0000000000000F90107901411070040501600405405064090741402480A0340
1001
ACAD
1000
AcDbSavedByObjectVersion
1070
     0
  0
ACAD_PROXY_OBJECT
  5
32
102
{ACAD_REACTORS
330
2A
102
}
330
2A
100
AcDbProxyObject
 90
      499
 91
      501
 93
      388
310
4150985CDA58D07406404333333333333E33F0000000000000F90107A41107004050150841D405064090741402480A0350
1001
ACAD
1000
AcDbSavedByObjectVersion
1070
     0
  0
ACAD_PROXY_OBJECT
  5
36
102
{ACAD_REACTORS
330
2A
102
}
330
2A
100
AcDbProxyObject
 90
      499
 91
      501
 93
      428
310
42109C9A59DA1D195B90C409028333333333333E33F0000000000000F9010790141107004050150841D405064090741402480A029950
1001
ACAD
1000
AcDbSavedByObjectVersion
1070
     0
  0
ACAD_PROXY_OBJECT
  5
3A
102
{ACAD_REACTORS
330
2A
102
}
330
2A
100
AcDbProxyObject
 90
      499
 91
      501
 93
      452
310
42D0DBDB1BDC90DA185B99D95104090240C333333333333E33F0000000000000F90108901411070040501508421405064090741402480A0350
1001
ACAD
1000
AcDbSavedByObjectVersion
1070
     0
  0
ACAD_PROXY_OBJECT
  5
34
102
{ACAD_REACTORS
330
2A
102
}
330
2A
100
AcDbProxyObject
 90
      499
 91
      501
 93
      500
310
4290DBDB98D95C1D1D585B10940D028333333333333E33F0000000000000F90107902409070040501000000000018199010841D405064090740C02480A0340
1001
ACAD
1000
AcDbSavedByObjectVersion
1070
     0
  0
ACAD_PROXY_OBJECT
  5
35
102
{ACAD_REACTORS
330
2A
102
}
330
2A
100
AcDbProxyObject
 90
      499
 91
      501
 93
      412
310
40D11A5B50B409028333333333333E33F0000000000000F9010790141107004050150841D405064090741402480A02677FFFFFD0
1001
ACAD
1000
AcDbSavedByObjectVersion
1070
     0
  0
ACAD_PROXY_OBJECT
  5
3D
102
{ACAD_REACTORS
330
2A
102
}
330
2A
100
AcDbProxyObject
 90
      499
 91
      501
 93
      452
310
43115919D950DBDB1BDC93D999916409028333333333333E33F0000000000000F9010790141107004050150841D405064090741402480A0350
1001
ACAD
1000
AcDbSavedByObjectVersion
1070
     0
  0
ACAD_PROXY_OBJECT
  5
39
102
{ACAD_REACTORS
330
2A
102
}
330
2A
100
AcDbProxyObject
 90
      499
 91
      501
 93
      444
310
42D19858D95C185D1D195C9B90F409028333333333333E33F0000000000000F9010790141107004050150841D405064090741402480A0350
1001
ACAD
1000
AcDbSavedByObjectVersion
1070
     0
  0
ACAD_PROXY_OBJECT
  5
2B
102
{ACAD_REACTORS
330
2A
102
}
330
2A
100
AcDbProxyObject
 90
      499
 91
      501
 93
      380
310
41119B185D240901404333333333333E33F0000000000000F9010740A907004050150841D405064090741402480A1B50
1001
ACAD
1000
AcDbSavedByObjectVersion
1070
     0
  0
ACAD_PROXY_OBJECT
  5
2C
102
{ACAD_REACTORS
330
2A
102
}
330
2A
100
AcDbProxyObject
 90
      499
 91
      501
 93
      468
310
43519B185D15DA5D1A115919D95CD0140901404333333333333E33F0000000000000F90107409019070040501600405405064090741402480A1B50
1001
ACAD
1000
AcDbSavedByObjectVersion
1070
     0
  0
ACAD_PROXY_OBJECT
  5
2D
102
{ACAD_REACTORS
330
2A
102
}
330
2A
100
AcDbProxyObject
 90
      499
 91
      501
 93
      404
310
41D1DBDD5C985D5910240902404333333333333E33F0000000000000F9010740A9070040501641D405064090741402480A1B50
1001
ACAD
1000
AcDbSavedByObjectVersion
1070
     0
  0
ACAD_PROXY_OBJECT
  5
2E
102
{ACAD_REACTORS
330
2A
102
}
330
2A
100
AcDbProxyObject
 90
      499
 91
      501
 93
      492
310
4411DBDD5C985D5915DA5D1A115919D95CD0340902404333333333333E33F0000000000000F90107409019070040501600405405064090741402480A1B50
1001
ACAD
1000
AcDbSavedByObjectVersion
1070
     0
  0
ACAD_PROXY_OBJECT
  5
31
102
{ACAD_REACTORS
330
2A
102
}
330
2A
100
AcDbProxyObject
 90
      499
 91
      501
 93
      476
310
41921A5919195B90640502408333333333333E33F0000000000000F901079024090700405020000000000001110200405405064090740C02480A0340
1001
ACAD
1000
AcDbSavedByObjectVersion
1070
     0
  0
ACAD_PROXY_OBJECT
  5
3B
102
{ACAD_REACTORS
330
2A
102
}
330
2A
100
AcDbProxyObject
 90
      499
 91
      501
 93
      428
310
42529A5D1D195C93D999914409028333333333333E33F0000000000000F9010790141107004050150A41D405064090741402480A0350
1001
ACAD
1000
AcDbSavedByObjectVersion
1070
     0
  0
ACAD_PROXY_OBJECT
  5
38
102
{ACAD_REACTORS
330
2A
102
}
330
2A
100
AcDbProxyObject
 90
      499
 91
      501
 93
      444
310
42D31A5B995C185D1D195C9B90E409028333333333333E33F0000000000000F9010790141107004050750841D405064090741402483A0350
1001
ACAD
1000
AcDbSavedByObjectVersion
1070
     0
  0
ACAD_PROXY_OBJECT
  5
3C
102
{ACAD_REACTORS
330
2A
102
}
330
2A
100
AcDbProxyObject
 90
      499
 91
      501
 93
      444
310
42D3DD995C9A185B99D3D999915409028333333333333E33F0000000000000F9010790141107004050150941D405064090741402480A0350
1001
ACAD
1000
AcDbSavedByObjectVersion
1070
     0
  0
ACAD_PROXY_OBJECT
  5
33
102
{ACAD_REACTORS
330
2A
102
}
330
2A
100
AcDbProxyObject
 90
      499
 91
      501
 93
      428
310
425499585B1A5CDD1A58D08409038333333333333E33F0000000000000F9010740A907004050150800405405064090740C02480A1B40
1001
ACAD
1000
AcDbSavedByObjectVersion
1070
     0
  0
ACAD_PROXY_OBJECT
  5
42
102
{ACAD_REACTORS
330
2A
102
}
330
2A
100
AcDbProxyObject
 90
      499
 91
      501
 93
      420
310
4194DA1859195911B40902404333333333333E33F0000000000000F9010740A41107004050150800405405064090840C02480A0B40
1001
ACAD
1000
AcDbSavedByObjectVersion
1070
     0
  0
ACAD_PROXY_OBJECT
  5
41
102
{ACAD_REACTORS
330
2A
102
}
330
2A
100
AcDbProxyObject
 90
      499
 91
      501
 93
      516
310
4454DA18591959081DDA5D1A08195919D95CD1A40902404333333333333E33F0000000000000F901074090142907004050250800405405064090740C02480A0B40
1001
ACAD
1000
AcDbSavedByObjectVersion
1070
     0
  0
ACAD_PROXY_OBJECT
  5
3E
102
{ACAD_REACTORS
330
2A
102
}
330
2A
100
AcDbProxyObject
 90
      499
 91
      501
 93
      532
310
4394DA1859195CC81BD98811DC985E5174090240C333333333333E33F0000000000000F901079024090741D01000000000000111010841D405064090740C02480A0340
1001
ACAD
1000
AcDbSavedByObjectVersion
1070
     0
  0
ACAD_PROXY_OBJECT
  5
3F
102
{ACAD_REACTORS
330
2A
102
}
330
2A
100
AcDbProxyObject
 90
      499
 91
      501
 93
      476
310
41D4DAD95D18DA1E51840502408333333333333E33F0000000000000F901079024090741D01000000000000111010B41D405064090741802480A0340
1001
ACAD
1000
AcDbSavedByObjectVersion
1070
     0
  0
ACAD_PROXY_OBJECT
  5
37
102
{ACAD_REACTORS
330
2A
102
}
330
2A
100
AcDbProxyObject
 90
      499
 91
      501
 93
      412
310
41D51A1A58DAD95B90D409028333333333333E33F0000000000000F9010790141107004050150C41D405064090741402480A0350
1001
ACAD
1000
AcDbSavedByObjectVersion
1070
     0
  0
ACAD_PROXY_OBJECT
  5
30
102
{ACAD_REACTORS
330
2A
102
}
330
2A
100
AcDbProxyObject
 90
      499
 91
      501
 93
      420
310
4255DA5C99599C985B595059028333333333333E33F0000000000000F90107901411070040501600405405064090740C02480A0340
1001
ACAD
1000
AcDbSavedByObjectVersion
1070
     0
  0
ACAD_PROXY_OBJECT
  5
40
102
{ACAD_REACTORS
330
2A
102
}
330
2A
100
AcDbProxyObject
 90
      499
 91
      501
 93
      404
310
41560B54985E51940902404000000000000E03F0000000000000F9010740501907004050150841D405064090740C02480A1B40
1001
ACAD
1000
AcDbSavedByObjectVersion
1070
     0
  0
XRECORD
  5
358
102
{ACAD_REACTORS
330
34F
102
}
330
34F
100
AcDbXrecord
 90
        0
  0
XRECORD
  5
36E
102
{ACAD_REACTORS
330
34F
102
}
330
34F
100
AcDbXrecord
1000
DSTYLE
1002
{
1070
   340
340
11
1002
}
  0
XRECORD
  5
359
102
{ACAD_REACTORS
330
34F
102
}
330
34F
100
AcDbXrecord
  1
{99791323-38E2-466E-B6CD-52175AC14EE6}
  0
XRECORD
  5
352
102
{ACAD_REACTORS
330
34F
102
}
330
34F
100
AcDbXrecord
  1

  0
XRECORD
  5
357
102
{ACAD_REACTORS
330
34F
102
}
330
34F
100
AcDbXrecord
 90
        1
  0
XRECORD
  5
354
102
{ACAD_REACTORS
330
34F
102
}
330
34F
100
AcDbXrecord
340
1A
  0
XRECORD
  5
356
102
{ACAD_REACTORS
330
34F
102
}
330
34F
100
AcDbXrecord
 90
    10781
  0
XRECORD
  5
355
102
{ACAD_REACTORS
330
34F
102
}
330
34F
100
AcDbXrecord
340
19
  0
XRECORD
  5
35B
102
{ACAD_REACTORS
330
34F
102
}
330
34F
100
AcDbXrecord
 40
0.0
  0
XRECORD
  5
35E
102
{ACAD_REACTORS
330
34F
102
}
330
34F
100
AcDbXrecord
340
0
  0
XRECORD
  5
364
102
{ACAD_REACTORS
330
34F
102
}
330
34F
100
AcDbXrecord
 10
0.0
 20
0.0
 30
0.0
  0
XRECORD
  5
360
102
{ACAD_REACTORS
330
34F
102
}
330
34F
100
AcDbXrecord
 10
0.0
 20
0.0
 30
0.0
  0
XRECORD
  5
363
102
{ACAD_REACTORS
330
34F
102
}
330
34F
100
AcDbXrecord
 10
0.0
 20
0.0
 30
0.0
  0
XRECORD
  5
361
102
{ACAD_REACTORS
330
34F
102
}
330
34F
100
AcDbXrecord
 10
0.0
 20
0.0
 30
0.0
  0
XRECORD
  5
362
102
{ACAD_REACTORS
330
34F
102
}
330
34F
100
AcDbXrecord
 10
0.0
 20
0.0
 30
0.0
  0
XRECORD
  5
35F
102
{ACAD_REACTORS
330
34F
102
}
330
34F
100
AcDbXrecord
 10
0.0
 20
0.0
 30
0.0
  0
XRECORD
  5
35C
102
{ACAD_REACTORS
330
34F
102
}
330
34F
100
AcDbXrecord
340
0
  0
XRECORD
  5
35D
102
{ACAD_REACTORS
330
34F
102
}
330
34F
100
AcDbXrecord
 70
     0
  0
XRECORD
  5
353
102
{ACAD_REACTORS
330
34F
102
}
330
34F
100
AcDbXrecord
  1

  0
XRECORD
  5
350
102
{ACAD_REACTORS
330
34F
102
}
330
34F
100
AcDbXrecord
 90
        1
  0
XRECORD
  5
351
102
{ACAD_REACTORS
330
34F
102
}
330
34F
100
AcDbXrecord
 90
       70
  0
XRECORD
  5
367
102
{ACAD_REACTORS
330
34F
102
}
330
34F
100
AcDbXrecord
340
0
  0
XRECORD
  5
36D
102
{ACAD_REACTORS
330
34F
102
}
330
34F
100
AcDbXrecord
 10
0.0
 20
0.0
 30
0.0
  0
XRECORD
  5
369
102
{ACAD_REACTORS
330
34F
102
}
330
34F
100
AcDbXrecord
 10
0.0
 20
0.0
 30
0.0
  0
XRECORD
  5
36C
102
{ACAD_REACTORS
330
34F
102
}
330
34F
100
AcDbXrecord
 10
0.0
 20
0.0
 30
0.0
  0
XRECORD
  5
36A
102
{ACAD_REACTORS
330
34F
102
}
330
34F
100
AcDbXrecord
 10
0.0
 20
0.0
 30
0.0
  0
XRECORD
  5
36B
102
{ACAD_REACTORS
330
34F
102
}
330
34F
100
AcDbXrecord
 10
0.0
 20
0.0
 30
0.0
  0
XRECORD
  5
368
102
{ACAD_REACTORS
330
34F
102
}
330
34F
100
AcDbXrecord
 10
0.0
 20
0.0
 30
0.0
  0
XRECORD
  5
365
102
{ACAD_REACTORS
330
34F
102
}
330
34F
100
AcDbXrecord
340
0
  0
XRECORD
  5
366
102
{ACAD_REACTORS
330
34F
102
}
330
34F
100
AcDbXrecord
 70
     0
  0
XRECORD
  5
35A
102
{ACAD_REACTORS
330
34F
102
}
330
34F
100
AcDbXrecord
  1
{FAEB1C32-E019-11D5-929B-00C0DF256EC4}
  0
DICTIONARYVAR
  5
378
102
{ACAD_REACTORS
330
36F
102
}
330
36F
100
DictionaryVariables
280
     0
  1
1:1
  0
DICTIONARYVAR
  5
374
102
{ACAD_REACTORS
330
36F
102
}
330
36F
100
DictionaryVariables
280
     0
  1
2
  0
DICTIONARYVAR
  5
375
102
{ACAD_REACTORS
330
36F
102
}
330
36F
100
DictionaryVariables
280
     0
  1
1
  0
DICTIONARYVAR
  5
379
102
{ACAD_REACTORS
330
36F
102
}
330
36F
100
DictionaryVariables
280
     0
  1
1
  0
DICTIONARY
  5
37C
330
45
100
AcDbDictionary
280
     1
  3
ACAD_XREC_ROUNDTRIP
360
37D
  0
DICTIONARY
  5
37A
330
44
100
AcDbDictionary
280
     1
  3
ACAD_XREC_ROUNDTRIP
360
37B
  0
DICTIONARY
  5
37E
330
46
100
AcDbDictionary
280
     1
  3
ACAD_XREC_ROUNDTRIP
360
37F
  0
XRECORD
  5
37D
102
{ACAD_REACTORS
330
37C
102
}
330
37C
100
AcDbXrecord
102
MATERIAL
148
0.0
149
0.0
149
0.0
 93
        0
 94
      127
282
     0
 72
     1
 77
     1
171
     1
175
     1
179
     1
273
     0
  0
XRECORD
  5
37B
102
{ACAD_REACTORS
330
37A
102
}
330
37A
100
AcDbXrecord
102
MATERIAL
148
0.0
149
0.0
149
0.0
 93
        0
 94
      127
282
     0
 72
     1
 77
     1
171
     1
175
     1
179
     1
273
     0
  0
XRECORD
  5
37F
102
{ACAD_REACTORS
330
37E
102
}
330
37E
100
AcDbXrecord
102
MATERIAL
148
0.0
149
0.0
149
0.0
 93
        0
 94
      127
282
     0
 72
     1
 77
     1
171
     1
175
     1
179
     1
273
     0
  0
ENDSEC
  0
EOF
