  0
SECTION
  2
HEADER
  9
$ACADVER
  1
AC1014
  9
$ACADMAINTVER
 70
     9
  9
$DWGCODEPAGE
  3
ANSI_1252
  9
$INSBASE
 10
0.0
 20
0.0
 30
0.0
  9
$EXTMIN
 10
1.000000000000000E+20
 20
1.000000000000000E+20
 30
1.000000000000000E+20
  9
$EXTMAX
 10
-1.000000000000000E+20
 20
-1.000000000000000E+20
 30
-1.000000000000000E+20
  9
$LIMMIN
 10
0.0
 20
0.0
  9
$LIMMAX
 10
12.0
 20
9.0
  9
$ORTHOMODE
 70
     0
  9
$REGENMODE
 70
     1
  9
$FILLMODE
 70
     1
  9
$QTEXTMODE
 70
     0
  9
$MIRRTEXT
 70
     1
  9
$DRAGMODE
 70
     2
  9
$LTSCALE
 40
1.0
  9
$OSMODE
 70
    37
  9
$ATTMODE
 70
     1
  9
$TEXTSIZE
 40
0.2
  9
$TRACEWID
 40
0.05
  9
$TEXTSTYLE
  7
STANDARD
  9
$CLAYER
  8
0
  9
$CELTYPE
  6
BYLAYER
  9
$CECOLOR
 62
   256
  9
$CELTSCALE
 40
1.0
  9
$DELOBJ
 70
     1
  9
$DISPSILH
 70
     0
  9
$DIMSCALE
 40
1.0
  9
$DIMASZ
 40
0.18
  9
$DIMEXO
 40
0.0625
  9
$DIMDLI
 40
0.38
  9
$DIMRND
 40
0.0
  9
$DIMDLE
 40
0.0
  9
$DIMEXE
 40
0.18
  9
$DIMTP
 40
0.0
  9
$DIMTM
 40
0.0
  9
$DIMTXT
 40
0.18
  9
$DIMCEN
 40
0.09
  9
$DIMTSZ
 40
0.0
  9
$DIMTOL
 70
     0
  9
$DIMLIM
 70
     0
  9
$DIMTIH
 70
     1
  9
$DIMTOH
 70
     1
  9
$DIMSE1
 70
     0
  9
$DIMSE2
 70
     0
  9
$DIMTAD
 70
     0
  9
$DIMZIN
 70
     0
  9
$DIMBLK
  1

  9
$DIMASO
 70
     1
  9
$DIMSHO
 70
     1
  9
$DIMPOST
  1

  9
$DIMAPOST
  1

  9
$DIMALT
 70
     0
  9
$DIMALTD
 70
     2
  9
$DIMALTF
 40
25.4
  9
$DIMLFAC
 40
1.0
  9
$DIMTOFL
 70
     0
  9
$DIMTVP
 40
0.0
  9
$DIMTIX
 70
     0
  9
$DIMSOXD
 70
     0
  9
$DIMSAH
 70
     0
  9
$DIMBLK1
  1

  9
$DIMBLK2
  1

  9
$DIMSTYLE
  2
STANDARD
  9
$DIMCLRD
 70
     0
  9
$DIMCLRE
 70
     0
  9
$DIMCLRT
 70
     0
  9
$DIMTFAC
 40
1.0
  9
$DIMGAP
 40
0.09
  9
$DIMJUST
 70
     0
  9
$DIMSD1
 70
     0
  9
$DIMSD2
 70
     0
  9
$DIMTOLJ
 70
     1
  9
$DIMTZIN
 70
     0
  9
$DIMALTZ
 70
     0
  9
$DIMALTTZ
 70
     0
  9
$DIMFIT
 70
     3
  9
$DIMUPT
 70
     0
  9
$DIMUNIT
 70
     2
  9
$DIMDEC
 70
     4
  9
$DIMTDEC
 70
     4
  9
$DIMALTU
 70
     2
  9
$DIMALTTD
 70
     2
  9
$DIMTXSTY
  7
STANDARD
  9
$DIMAUNIT
 70
     0
  9
$LUNITS
 70
     2
  9
$LUPREC
 70
     4
  9
$SKETCHINC
 40
0.1
  9
$FILLETRAD
 40
0.5
  9
$AUNITS
 70
     0
  9
$AUPREC
 70
     0
  9
$MENU
  1
.
  9
$ELEVATION
 40
0.0
  9
$PELEVATION
 40
0.0
  9
$THICKNESS
 40
0.0
  9
$LIMCHECK
 70
     0
  9
$CHAMFERA
 40
0.0
  9
$CHAMFERB
 40
0.0
  9
$CHAMFERC
 40
0.0
  9
$CHAMFERD
 40
0.0
  9
$SKPOLY
 70
     0
  9
$TDCREATE
 40
2456913.614777523
  9
$TDUPDATE
 40
2456913.614777651
  9
$TDINDWG
 40
0.0000000116
  9
$TDUSRTIMER
 40
0.0000000116
  9
$USRTIMER
 70
     1
  9
$ANGBASE
 50
0.0
  9
$ANGDIR
 70
     0
  9
$PDMODE
 70
     0
  9
$PDSIZE
 40
0.0
  9
$PLINEWID
 40
0.0
  9
$COORDS
 70
     1
  9
$SPLFRAME
 70
     0
  9
$SPLINETYPE
 70
     6
  9
$SPLINESEGS
 70
     8
  9
$ATTDIA
 70
     0
  9
$ATTREQ
 70
     1
  9
$HANDLING
 70
     1
  9
$HANDSEED
  5
39A
  9
$SURFTAB1
 70
     6
  9
$SURFTAB2
 70
     6
  9
$SURFTYPE
 70
     6
  9
$SURFU
 70
     6
  9
$SURFV
 70
     6
  9
$UCSNAME
  2

  9
$UCSORG
 10
0.0
 20
0.0
 30
0.0
  9
$UCSXDIR
 10
1.0
 20
0.0
 30
0.0
  9
$UCSYDIR
 10
0.0
 20
1.0
 30
0.0
  9
$PUCSNAME
  2

  9
$PUCSORG
 10
0.0
 20
0.0
 30
0.0
  9
$PUCSXDIR
 10
1.0
 20
0.0
 30
0.0
  9
$PUCSYDIR
 10
0.0
 20
1.0
 30
0.0
  9
$USERI1
 70
     0
  9
$USERI2
 70
     0
  9
$USERI3
 70
     0
  9
$USERI4
 70
     0
  9
$USERI5
 70
     0
  9
$USERR1
 40
0.0
  9
$USERR2
 40
0.0
  9
$USERR3
 40
0.0
  9
$USERR4
 40
0.0
  9
$USERR5
 40
0.0
  9
$WORLDVIEW
 70
     1
  9
$SHADEDGE
 70
     3
  9
$SHADEDIF
 70
    70
  9
$TILEMODE
 70
     1
  9
$MAXACTVP
 70
    64
  9
$PINSBASE
 10
0.0
 20
0.0
 30
0.0
  9
$PLIMCHECK
 70
     0
  9
$PEXTMIN
 10
1.000000000000000E+20
 20
1.000000000000000E+20
 30
1.000000000000000E+20
  9
$PEXTMAX
 10
-1.000000000000000E+20
 20
-1.000000000000000E+20
 30
-1.000000000000000E+20
  9
$PLIMMIN
 10
0.0
 20
0.0
  9
$PLIMMAX
 10
12.0
 20
9.0
  9
$UNITMODE
 70
     0
  9
$VISRETAIN
 70
     1
  9
$PLINEGEN
 70
     0
  9
$PSLTSCALE
 70
     1
  9
$TREEDEPTH
 70
  3020
  9
$PICKSTYLE
 70
     1
  9
$CMLSTYLE
  2
STANDARD
  9
$CMLJUST
 70
     0
  9
$CMLSCALE
 40
1.0
  9
$PROXYGRAPHICS
 70
     1
  9
$MEASUREMENT
 70
     0
  0
ENDSEC
  0
SECTION
  2
CLASSES
  0
CLASS
  1
ACDBDICTIONARYWDFLT
  2
AcDbDictionaryWithDefault
  3
ObjectDBX Classes
 90
        0
280
     0
281
     0
  0
CLASS
  1
VISUALSTYLE
  2
AcDbVisualStyle
  3
ObjectDBX Classes
 90
     4095
280
     0
281
     0
  0
CLASS
  1
MATERIAL
  2
AcDbMaterial
  3
ObjectDBX Classes
 90
     1153
280
     0
281
     0
  0
CLASS
  1
SCALE
  2
AcDbScale
  3
ObjectDBX Classes
 90
     1153
280
     0
281
     0
  0
CLASS
  1
SUN
  2
AcDbSun
  3
SCENEOE
 90
     1153
280
     0
281
     0
  0
CLASS
  1
DICTIONARYVAR
  2
AcDbDictionaryVar
  3
ObjectDBX Classes
 90
        0
280
     0
281
     0
  0
CLASS
  1
XRECORD
  2
AcDbXrecord
  3
ObjectDBX Classes
 90
        0
280
     0
281
     0
  0
CLASS
  1
LWPOLYLINE
  2
AcDbPolyline
  3
ObjectDBX Classes
 90
        0
280
     0
281
     1
  0
CLASS
  1
HATCH
  2
AcDbHatch
  3
ObjectDBX Classes
 90
        0
280
     0
281
     1
  0
CLASS
  1
ACDBPLACEHOLDER
  2
AcDbPlaceHolder
  3
ObjectDBX Classes
 90
        0
280
     0
281
     0
  0
CLASS
  1
LAYOUT
  2
AcDbLayout
  3
ObjectDBX Classes
 90
        0
280
     0
281
     0
  0
ENDSEC
  0
SECTION
  2
TABLES
  0
TABLE
  2
VPORT
  5
8
102
{ACAD_XDICTIONARY
360
390
102
}
330
0
100
AcDbSymbolTable
 70
     1
  0
VPORT
  5
29
330
8
100
AcDbSymbolTableRecord
100
AcDbViewportTableRecord
  2
*ACTIVE
 70
     0
 10
0.0
 20
0.0
 11
1.0
 21
1.0
 12
0.0
 22
0.0
 13
0.0
 23
0.0
 14
0.5
 24
0.5
 15
0.5
 25
0.5
 16
0.0
 26
0.0
 36
1.0
 17
0.0
 27
0.0
 37
-1000.0
 40
155.7670113189873
 41
2.199770378874857
 42
50.0
 43
650.6512459993132
 44
823.1804117769384
 50
0.0
 51
0.0
 71
     0
 72
   100
 73
     1
 74
     3
 75
     0
 76
     0
 77
     0
 78
     0
  0
ENDTAB
  0
TABLE
  2
LTYPE
  5
5
330
0
100
AcDbSymbolTable
 70
     1
  0
LTYPE
  5
14
330
5
100
AcDbSymbolTableRecord
100
AcDbLinetypeTableRecord
  2
BYBLOCK
 70
     0
  3

 72
    65
 73
     0
 40
0.0
  0
LTYPE
  5
15
330
5
100
AcDbSymbolTableRecord
100
AcDbLinetypeTableRecord
  2
BYLAYER
 70
     0
  3

 72
    65
 73
     0
 40
0.0
  0
LTYPE
  5
16
330
5
100
AcDbSymbolTableRecord
100
AcDbLinetypeTableRecord
  2
CONTINUOUS
 70
     0
  3
Solid line
 72
    65
 73
     0
 40
0.0
  0
ENDTAB
  0
TABLE
  2
LAYER
  5
2
330
0
100
AcDbSymbolTable
 70
     3
  0
LAYER
  5
10
330
2
100
AcDbSymbolTableRecord
100
AcDbLayerTableRecord
  2
0
 70
     0
 62
     7
  6
CONTINUOUS
  0
LAYER
  5
6A
330
2
100
AcDbSymbolTableRecord
100
AcDbLayerTableRecord
  2
PROFILEEDGES
 70
     0
 62
     7
  6
CONTINUOUS
  0
LAYER
  5
6B
330
2
100
AcDbSymbolTableRecord
100
AcDbLayerTableRecord
  2
SECTIONCUTEDGES
 70
     0
 62
     7
  6
CONTINUOUS
  0
ENDTAB
  0
TABLE
  2
STYLE
  5
3
330
0
100
AcDbSymbolTable
 70
     1
  0
STYLE
  5
11
330
3
100
AcDbSymbolTableRecord
100
AcDbTextStyleTableRecord
  2
STANDARD
 70
     0
 40
0.0
 41
1.0
 50
0.0
 71
     0
 42
0.2
  3
txt
  4

  0
ENDTAB
  0
TABLE
  2
VIEW
  5
6
330
0
100
AcDbSymbolTable
 70
     0
  0
ENDTAB
  0
TABLE
  2
UCS
  5
7
330
0
100
AcDbSymbolTable
 70
     0
  0
ENDTAB
  0
TABLE
  2
APPID
  5
9
330
0
100
AcDbSymbolTable
 70
     1
  0
APPID
  5
12
330
9
100
AcDbSymbolTableRecord
100
AcDbRegAppTableRecord
  2
ACAD
 70
     0
  0
ENDTAB
  0
TABLE
  2
DIMSTYLE
  5
A
330
0
100
AcDbSymbolTable
 70
     1
  0
DIMSTYLE
105
27
330
A
100
AcDbSymbolTableRecord
100
AcDbDimStyleTableRecord
  2
STANDARD
 70
     0
  3

  4

  5

  6

  7

 40
1.0
 41
0.18
 42
0.0625
 43
0.38
 44
0.18
 45
0.0
 46
0.0
 47
0.0
 48
0.0
140
0.18
141
0.09
142
0.0
143
25.4
144
1.0
145
0.0
146
1.0
147
0.09
 71
     0
 72
     0
 73
     1
 74
     1
 75
     0
 76
     0
 77
     0
 78
     0
170
     0
171
     2
172
     0
173
     0
174
     0
175
     0
176
     0
177
     0
178
     0
270
     2
271
     4
272
     4
273
     2
274
     2
340
11
275
     0
280
     0
281
     0
282
     0
283
     1
284
     0
285
     0
286
     0
287
     3
288
     0
  0
ENDTAB
  0
TABLE
  2
BLOCK_RECORD
  5
1
330
0
100
AcDbSymbolTable
 70
     1
  0
BLOCK_RECORD
  5
1F
330
1
100
AcDbSymbolTableRecord
100
AcDbBlockTableRecord
  2
*MODEL_SPACE
  0
BLOCK_RECORD
  5
1B
330
1
100
AcDbSymbolTableRecord
100
AcDbBlockTableRecord
  2
*PAPER_SPACE
  0
ENDTAB
  0
ENDSEC
  0
SECTION
  2
BLOCKS
  0
BLOCK
  5
20
330
1F
100
AcDbEntity
  8
0
100
AcDbBlockBegin
  2
*MODEL_SPACE
 70
     0
 10
0.0
 20
0.0
 30
0.0
  3
*MODEL_SPACE
  1

  0
ENDBLK
  5
21
330
1F
100
AcDbEntity
  8
0
100
AcDbBlockEnd
  0
BLOCK
  5
1C
330
1B
100
AcDbEntity
 67
     1
  8
0
100
AcDbBlockBegin
  2
*PAPER_SPACE
 70
     0
 10
0.0
 20
0.0
 30
0.0
  3
*PAPER_SPACE
  1

  0
ENDBLK
  5
1D
330
1B
100
AcDbEntity
 67
     1
  8
0
100
AcDbBlockEnd
  0
ENDSEC
  0
SECTION
  2
ENTITIES
  0
LINE
  5
6C
330
1F
100
AcDbEntity
  8
0
100
AcDbLine
 10
-52.47345513237855
 20
73.98933037651895
 30
0.0
 11
52.47345513237846
 21
73.98933037651895
 31
0.0
  0
LINE
  5
6D
330
1F
100
AcDbEntity
  8
0
100
AcDbLine
 10
-52.44875398262589
 20
30.26066962348085
 30
0.0
 11
-27.73560471505853
 21
30.26066962348085
 31
0.0
  0
LINE
  5
6E
330
1F
100
AcDbEntity
  8
0
100
AcDbLine
 10
-21.73560376866552
 20
30.26066962348085
 30
0.0
 11
21.73672756618922
 21
30.26066962348085
 31
0.0
  0
LINE
  5
6F
330
1F
100
AcDbEntity
  8
0
100
AcDbLine
 10
27.73672756618921
 20
30.26066962348085
 30
0.0
 11
52.47345513237846
 21
30.26066962348085
 31
0.0
  0
LINE
  5
70
330
1F
100
AcDbEntity
  8
0
100
AcDbLine
 10
2.999999999999949
 20
32.01066962348087
 30
0.0
 11
46.47345513237847
 21
32.01066962348087
 31
0.0
  0
LINE
  5
71
330
1F
100
AcDbEntity
  8
0
100
AcDbLine
 10
-46.47345513237856
 20
32.01066962348087
 30
0.0
 11
-3.00000000000004
 21
32.01066962348087
 31
0.0
  0
LINE
  5
72
330
1F
100
AcDbEntity
  8
0
100
AcDbLine
 10
-21.73560376866552
 20
-73.98933037651896
 30
0.0
 11
21.73672756618922
 21
-73.98933037651896
 31
0.0
  0
LINE
  5
73
330
1F
100
AcDbEntity
  8
0
100
AcDbLine
 10
-52.44875398262589
 20
-73.98933037651896
 30
0.0
 11
-27.73560471505853
 21
-73.98933037651896
 31
0.0
  0
LINE
  5
74
330
1F
100
AcDbEntity
  8
0
100
AcDbLine
 10
27.73672756618921
 20
-73.98933037651896
 30
0.0
 11
52.47345513237846
 21
-73.98933037651896
 31
0.0
  0
LINE
  5
75
330
1F
100
AcDbEntity
  8
0
100
AcDbLine
 10
-52.47345513237855
 20
73.98933037651895
 30
0.0
 11
-52.44875398262589
 21
30.26066962348085
 31
0.0
  0
LINE
  5
76
330
1F
100
AcDbEntity
  8
0
100
AcDbLine
 10
21.73672756618922
 20
-73.98933037651896
 30
0.0
 11
27.73672756618921
 21
-73.98933037651896
 31
0.0
  0
LINE
  5
77
330
1F
100
AcDbEntity
  8
0
100
AcDbLine
 10
52.47345513237846
 20
73.98933037651895
 30
0.0
 11
52.47345513237846
 21
30.26066962348085
 31
0.0
  0
LINE
  5
78
330
1F
100
AcDbEntity
  8
0
100
AcDbLine
 10
-27.73560471505853
 20
-73.98933037651896
 30
0.0
 11
-21.73560376866552
 21
-73.98933037651896
 31
0.0
  0
LINE
  5
79
330
1F
100
AcDbEntity
  8
0
100
AcDbLine
 10
-43.56865710047084
 20
45.67356893384285
 30
0.0
 11
-33.13529758010571
 21
45.67356893384285
 31
0.0
  0
LINE
  5
7A
330
1F
100
AcDbEntity
  8
0
100
AcDbLine
 10
-43.56865710047084
 20
49.67356893384284
 30
0.0
 11
-33.13529758010571
 21
49.67356893384284
 31
0.0
  0
LINE
  5
7B
330
1F
100
AcDbEntity
  8
0
100
AcDbLine
 10
-49.50574142776188
 20
47.67356893384284
 30
0.0
 11
-39.07211219599122
 21
47.67356893384284
 31
0.0
  0
LINE
  5
7C
330
1F
100
AcDbEntity
  8
0
100
AcDbLine
 10
-37.6321121959912
 20
47.67356893384284
 30
0.0
 11
-27.19848296422028
 21
47.67356893384284
 31
0.0
  0
LINE
  5
7D
330
1F
100
AcDbEntity
  8
0
100
AcDbLine
 10
-45.89817297327952
 20
68.91040536251607
 30
0.0
 11
-46.26726110975888
 21
68.6994521663126
 31
0.0
  0
LINE
  5
7E
330
1F
100
AcDbEntity
  8
0
100
AcDbLine
 10
-45.09359705153101
 20
69.17961625714308
 30
0.0
 11
-45.504707519536
 21
69.07137815583415
 31
0.0
  0
LINE
  5
7F
330
1F
100
AcDbEntity
  8
0
100
AcDbLine
 10
-42.02065747399944
 20
68.12153197276865
 30
0.0
 11
-42.31994965339288
 21
68.42344503116826
 31
0.0
  0
LINE
  5
80
330
1F
100
AcDbEntity
  8
0
100
AcDbLine
 10
-44.24675948282519
 20
69.23141444120222
 30
0.0
 11
-44.67187578335352
 21
69.23326768252015
 31
0.0
  0
LINE
  5
81
330
1F
100
AcDbEntity
  8
0
100
AcDbLine
 10
-46.26726110975888
 20
68.6994521663126
 30
0.0
 11
-46.6056567286283
 21
68.44212803489799
 31
0.0
  0
LINE
  5
82
330
1F
100
AcDbEntity
  8
0
100
AcDbLine
 10
-47.54639470991014
 20
67.04741466089334
 30
0.0
 11
-47.65821299852178
 21
66.63726350118486
 31
0.0
  0
LINE
  5
83
330
1F
100
AcDbEntity
  8
0
100
AcDbLine
 10
-44.67187578335352
 20
69.23326768252015
 30
0.0
 11
-45.09359705153101
 21
69.17961625714308
 31
0.0
  0
LINE
  5
84
330
1F
100
AcDbEntity
  8
0
100
AcDbLine
 10
-47.16783446882235
 20
67.80669660030122
 30
0.0
 11
-47.38199757314715
 21
67.43946170513979
 31
0.0
  0
LINE
  5
85
330
1F
100
AcDbEntity
  8
0
100
AcDbLine
 10
-45.504707519536
 20
69.07137815583415
 30
0.0
 11
-45.89817297327952
 21
68.91040536251607
 31
0.0
  0
LINE
  5
86
330
1F
100
AcDbEntity
  8
0
100
AcDbLine
 10
-41.2831692517544
 20
66.60947229567131
 30
0.0
 11
-41.39140735306336
 21
67.02058276367639
 31
0.0
  0
LINE
  5
87
330
1F
100
AcDbEntity
  8
0
100
AcDbLine
 10
-41.76333334258484
 20
67.78313635389928
 30
0.0
 11
-42.02065747399944
 21
68.12153197276865
 31
0.0
  0
LINE
  5
88
330
1F
100
AcDbEntity
  8
0
100
AcDbLine
 10
-41.5523801463814
 20
67.41404821741992
 30
0.0
 11
-41.76333334258484
 21
67.78313635389928
 31
0.0
  0
LINE
  5
89
330
1F
100
AcDbEntity
  8
0
100
AcDbLine
 10
-46.90756978702787
 20
68.14283585550456
 30
0.0
 11
-47.16783446882235
 21
67.80669660030122
 31
0.0
  0
LINE
  5
8A
330
1F
100
AcDbEntity
  8
0
100
AcDbLine
 10
-46.6056567286283
 20
68.44212803489799
 30
0.0
 11
-46.90756978702787
 21
68.14283585550456
 31
0.0
  0
LINE
  5
8B
330
1F
100
AcDbEntity
  8
0
100
AcDbLine
 10
-47.39453011837572
 20
64.56461253561791
 30
0.0
 11
-47.18357692217229
 21
64.19552439913855
 31
0.0
  0
LINE
  5
8C
330
1F
100
AcDbEntity
  8
0
100
AcDbLine
 10
-43.82552200771266
 20
69.17408824266208
 30
0.0
 11
-44.24675948282519
 21
69.23141444120222
 31
0.0
  0
LINE
  5
8D
330
1F
100
AcDbEntity
  8
0
100
AcDbLine
 10
-42.31994965339288
 20
68.42344503116826
 30
0.0
 11
-42.65608890859626
 21
68.6837097129627
 31
0.0
  0
LINE
  5
8E
330
1F
100
AcDbEntity
  8
0
100
AcDbLine
 10
-43.41537084800414
 20
69.06226995405049
 30
0.0
 11
-43.82552200771266
 21
69.17408824266208
 31
0.0
  0
LINE
  5
8F
330
1F
100
AcDbEntity
  8
0
100
AcDbLine
 10
-44.27503448140361
 20
62.74539307051767
 30
0.0
 11
-43.85331321322612
 21
62.79904449589475
 31
0.0
  0
LINE
  5
90
330
1F
100
AcDbEntity
  8
0
100
AcDbLine
 10
-42.65608890859626
 20
68.6837097129627
 30
0.0
 11
-43.02332380375765
 21
68.89787281728755
 31
0.0
  0
LINE
  5
91
330
1F
100
AcDbEntity
  8
0
100
AcDbLine
 10
-47.38199757314715
 20
67.43946170513979
 30
0.0
 11
-47.54639470991014
 21
67.04741466089334
 31
0.0
  0
LINE
  5
92
330
1F
100
AcDbEntity
  8
0
100
AcDbLine
 10
-41.23137106769521
 20
65.7626347269655
 30
0.0
 11
-41.22951782637733
 21
66.18775102749382
 31
0.0
  0
LINE
  5
93
330
1F
100
AcDbEntity
  8
0
100
AcDbLine
 10
-44.70015078193194
 20
62.74724631183561
 30
0.0
 11
-44.27503448140361
 21
62.74539307051767
 31
0.0
  0
LINE
  5
94
330
1F
100
AcDbEntity
  8
0
100
AcDbLine
 10
-42.03934047772926
 20
63.83582489753318
 30
0.0
 11
-41.77907579593478
 21
64.17196415273656
 31
0.0
  0
LINE
  5
95
330
1F
100
AcDbEntity
  8
0
100
AcDbLine
 10
-45.92358646099948
 20
63.08078793575028
 30
0.0
 11
-45.53153941675299
 21
62.91639079898734
 31
0.0
  0
LINE
  5
96
330
1F
100
AcDbEntity
  8
0
100
AcDbLine
 10
-41.39140735306336
 20
67.02058276367639
 30
0.0
 11
-41.5523801463814
 21
67.41404821741992
 31
0.0
  0
LINE
  5
97
330
1F
100
AcDbEntity
  8
0
100
AcDbLine
 10
-47.18357692217229
 20
64.19552439913855
 30
0.0
 11
-46.92625279075769
 21
63.85712878026917
 31
0.0
  0
LINE
  5
98
330
1F
100
AcDbEntity
  8
0
100
AcDbLine
 10
-43.02332380375765
 20
68.89787281728755
 30
0.0
 11
-43.41537084800414
 21
69.06226995405049
 31
0.0
  0
LINE
  5
99
330
1F
100
AcDbEntity
  8
0
100
AcDbLine
 10
-45.12138825704447
 20
62.80457251037574
 30
0.0
 11
-44.70015078193194
 21
62.74724631183561
 31
0.0
  0
LINE
  5
9A
330
1F
100
AcDbEntity
  8
0
100
AcDbLine
 10
-47.71553919706191
 20
66.21602602607229
 30
0.0
 11
-47.7173924383798
 21
65.790909725544
 31
0.0
  0
LINE
  5
9B
330
1F
100
AcDbEntity
  8
0
100
AcDbLine
 10
-42.34125353612882
 20
63.53653271813983
 30
0.0
 11
-42.03934047772926
 21
63.83582489753318
 31
0.0
  0
LINE
  5
9C
330
1F
100
AcDbEntity
  8
0
100
AcDbLine
 10
-41.77907579593478
 20
64.17196415273656
 30
0.0
 11
-41.56491269160998
 21
64.53919904789804
 31
0.0
  0
LINE
  5
9D
330
1F
100
AcDbEntity
  8
0
100
AcDbLine
 10
-47.66374101300273
 20
65.36918845736646
 30
0.0
 11
-47.55550291169376
 21
64.95807798936144
 31
0.0
  0
LINE
  5
9E
330
1F
100
AcDbEntity
  8
0
100
AcDbLine
 10
-41.56491269160998
 20
64.53919904789804
 30
0.0
 11
-41.40051555484699
 21
64.93124609214449
 31
0.0
  0
LINE
  5
9F
330
1F
100
AcDbEntity
  8
0
100
AcDbLine
 10
-46.62696061136425
 20
63.55521572186957
 30
0.0
 11
-46.29082135616087
 21
63.29495104007513
 31
0.0
  0
LINE
  5
A0
330
1F
100
AcDbEntity
  8
0
100
AcDbLine
 10
-46.92625279075769
 20
63.85712878026917
 30
0.0
 11
-46.62696061136425
 21
63.55521572186957
 31
0.0
  0
LINE
  5
A1
330
1F
100
AcDbEntity
  8
0
100
AcDbLine
 10
-41.22951782637733
 20
66.18775102749382
 30
0.0
 11
-41.2831692517544
 21
66.60947229567131
 31
0.0
  0
LINE
  5
A2
330
1F
100
AcDbEntity
  8
0
100
AcDbLine
 10
-41.40051555484699
 20
64.93124609214449
 30
0.0
 11
-41.28869726623544
 21
65.34139725185297
 31
0.0
  0
LINE
  5
A3
330
1F
100
AcDbEntity
  8
0
100
AcDbLine
 10
-42.67964915499824
 20
63.27920858672523
 30
0.0
 11
-42.34125353612882
 21
63.53653271813983
 31
0.0
  0
LINE
  5
A4
330
1F
100
AcDbEntity
  8
0
100
AcDbLine
 10
-47.65821299852178
 20
66.63726350118486
 30
0.0
 11
-47.71553919706191
 21
66.21602602607229
 31
0.0
  0
LINE
  5
A5
330
1F
100
AcDbEntity
  8
0
100
AcDbLine
 10
-43.85331321322612
 20
62.79904449589475
 30
0.0
 11
-43.44220274522113
 21
62.90728259720367
 31
0.0
  0
LINE
  5
A6
330
1F
100
AcDbEntity
  8
0
100
AcDbLine
 10
-41.28869726623544
 20
65.34139725185297
 30
0.0
 11
-41.23137106769521
 21
65.7626347269655
 31
0.0
  0
LINE
  5
A7
330
1F
100
AcDbEntity
  8
0
100
AcDbLine
 10
-43.04873729147761
 20
63.06825539052176
 30
0.0
 11
-42.67964915499824
 21
63.27920858672523
 31
0.0
  0
LINE
  5
A8
330
1F
100
AcDbEntity
  8
0
100
AcDbLine
 10
-47.55550291169376
 20
64.95807798936144
 30
0.0
 11
-47.39453011837572
 21
64.56461253561791
 31
0.0
  0
LINE
  5
A9
330
1F
100
AcDbEntity
  8
0
100
AcDbLine
 10
-43.44220274522113
 20
62.90728259720367
 30
0.0
 11
-43.04873729147761
 21
63.06825539052176
 31
0.0
  0
LINE
  5
AA
330
1F
100
AcDbEntity
  8
0
100
AcDbLine
 10
-47.7173924383798
 20
65.790909725544
 30
0.0
 11
-47.66374101300273
 21
65.36918845736646
 31
0.0
  0
LINE
  5
AB
330
1F
100
AcDbEntity
  8
0
100
AcDbLine
 10
-46.29082135616087
 20
63.29495104007513
 30
0.0
 11
-45.92358646099948
 21
63.08078793575028
 31
0.0
  0
LINE
  5
AC
330
1F
100
AcDbEntity
  8
0
100
AcDbLine
 10
-45.53153941675299
 20
62.91639079898734
 30
0.0
 11
-45.12138825704447
 21
62.80457251037574
 31
0.0
  0
LINE
  5
AD
330
1F
100
AcDbEntity
  8
0
100
AcDbLine
 10
50.35098523957888
 20
66.94424239640335
 30
0.0
 11
48.93765286336996
 21
68.24265935888523
 31
0.0
  0
LINE
  5
AE
330
1F
100
AcDbEntity
  8
0
100
AcDbLine
 10
48.93765286336996
 20
68.24265935888523
 30
0.0
 11
48.01960167990386
 21
68.53991288295444
 31
0.0
  0
LINE
  5
AF
330
1F
100
AcDbEntity
  8
0
100
AcDbLine
 10
41.41132932741608
 20
66.3806904228115
 30
0.0
 11
42.43826698287969
 21
65.78973717150794
 31
0.0
  0
LINE
  5
B0
330
1F
100
AcDbEntity
  8
0
100
AcDbLine
 10
48.65100039222764
 20
67.2491286785799
 30
0.0
 11
50.35098523957888
 21
66.94424239640335
 31
0.0
  0
LINE
  5
B1
330
1F
100
AcDbEntity
  8
0
100
AcDbLine
 10
42.20386404422822
 20
65.67423625576552
 30
0.0
 11
40.93343386147325
 21
59.52350534760114
 31
0.0
  0
LINE
  5
B2
330
1F
100
AcDbEntity
  8
0
100
AcDbLine
 10
42.38535407033614
 20
71.13759489215226
 30
0.0
 11
34.60163696931827
 21
71.65238202228062
 31
0.0
  0
LINE
  5
B3
330
1F
100
AcDbEntity
  8
0
100
AcDbLine
 10
44.07431382264347
 20
62.83697045042062
 30
0.0
 11
44.3719913888297
 21
63.01973260287968
 31
0.0
  0
LINE
  5
B4
330
1F
100
AcDbEntity
  8
0
100
AcDbLine
 10
42.20386404422822
 20
65.67423625576552
 30
0.0
 11
44.07431382264347
 21
62.83697045042062
 31
0.0
  0
LINE
  5
B5
330
1F
100
AcDbEntity
  8
0
100
AcDbLine
 10
45.02119987007067
 20
62.22592575971643
 30
0.0
 11
44.3719913888297
 21
63.01973260287968
 31
0.0
  0
LINE
  5
B6
330
1F
100
AcDbEntity
  8
0
100
AcDbLine
 10
48.03995570152344
 20
64.8817015389535
 30
0.0
 11
48.65100039222764
 21
67.2491286785799
 31
0.0
  0
LINE
  5
B7
330
1F
100
AcDbEntity
  8
0
100
AcDbLine
 10
44.64846684916222
 20
64.51787340250361
 30
0.0
 11
48.00094382675254
 21
65.15817699928596
 31
0.0
  0
LINE
  5
B8
330
1F
100
AcDbEntity
  8
0
100
AcDbLine
 10
48.01960167990386
 20
68.53991288295444
 30
0.0
 11
45.83563503191733
 21
67.46377386676097
 31
0.0
  0
LINE
  5
B9
330
1F
100
AcDbEntity
  8
0
100
AcDbLine
 10
40.93343386147325
 20
59.52350534760114
 30
0.0
 11
45.02119987007067
 21
62.22592575971643
 31
0.0
  0
LINE
  5
BA
330
1F
100
AcDbEntity
  8
0
100
AcDbLine
 10
42.38535407033614
 20
71.13759489215226
 30
0.0
 11
41.41132932741608
 21
66.3806904228115
 31
0.0
  0
LINE
  5
BB
330
1F
100
AcDbEntity
  8
0
100
AcDbLine
 10
34.54439128351311
 20
70.77376675570241
 30
0.0
 11
38.88403830965272
 21
68.33679670887578
 31
0.0
  0
LINE
  5
BC
330
1F
100
AcDbEntity
  8
0
100
AcDbLine
 10
48.93765286336996
 20
68.24265935888523
 30
0.0
 11
48.65100039222764
 21
67.2491286785799
 31
0.0
  0
LINE
  5
BD
330
1F
100
AcDbEntity
  8
0
100
AcDbLine
 10
48.00094382675254
 20
65.15817699928596
 30
0.0
 11
45.83563503191733
 21
67.46377386676097
 31
0.0
  0
LINE
  5
BE
330
1F
100
AcDbEntity
  8
0
100
AcDbLine
 10
35.73722175884334
 20
70.77376675570241
 30
0.0
 11
34.54439128351311
 21
70.77376675570241
 31
0.0
  0
LINE
  5
BF
330
1F
100
AcDbEntity
  8
0
100
AcDbLine
 10
34.60163696931827
 20
71.65238202228062
 30
0.0
 11
35.73722175884334
 21
70.77376675570241
 31
0.0
  0
LINE
  5
C0
330
1F
100
AcDbEntity
  8
0
100
AcDbLine
 10
35.73722175884334
 20
70.77376675570241
 30
0.0
 11
38.88403830965272
 21
68.33679670887578
 31
0.0
  0
LINE
  5
C1
330
1F
100
AcDbEntity
  8
0
100
AcDbLine
 10
44.3719913888297
 20
63.01973260287968
 30
0.0
 11
44.44789492778605
 21
63.05789639341641
 31
0.0
  0
LINE
  5
C2
330
1F
100
AcDbEntity
  8
0
100
AcDbLine
 10
42.43826698287969
 20
65.78973717150794
 30
0.0
 11
42.20386404422822
 21
65.67423625576552
 31
0.0
  0
LINE
  5
C3
330
1F
100
AcDbEntity
  8
0
100
AcDbLine
 10
45.83563503191733
 20
67.46377386676097
 30
0.0
 11
42.43826698287969
 21
65.78973717150794
 31
0.0
  0
LINE
  5
C4
330
1F
100
AcDbEntity
  8
0
100
AcDbLine
 10
45.83563503191733
 20
67.46377386676097
 30
0.0
 11
42.38535407033614
 21
71.13759489215226
 31
0.0
  0
LINE
  5
C5
330
1F
100
AcDbEntity
  8
0
100
AcDbLine
 10
44.44789492778605
 20
63.05789639341641
 30
0.0
 11
48.03995570152344
 21
64.8817015389535
 31
0.0
  0
LINE
  5
C6
330
1F
100
AcDbEntity
  8
0
100
AcDbLine
 10
38.88403830965272
 20
68.33679670887578
 30
0.0
 11
41.41132932741608
 21
66.3806904228115
 31
0.0
  0
LINE
  5
C7
330
1F
100
AcDbEntity
  8
0
100
AcDbLine
 10
42.43826698287969
 20
65.78973717150794
 30
0.0
 11
44.64846684916222
 21
64.51787340250361
 31
0.0
  0
LINE
  5
C8
330
1F
100
AcDbEntity
  8
0
100
AcDbLine
 10
52.47345513237846
 20
30.26066962348085
 30
0.0
 11
52.47345513237846
 21
26.76066962348084
 31
0.0
  0
LINE
  5
C9
330
1F
100
AcDbEntity
  8
0
100
AcDbLine
 10
-52.44875398262589
 20
30.26066962348085
 30
0.0
 11
-52.44875398262589
 21
26.76066962348084
 31
0.0
  0
LINE
  5
CA
330
1F
100
AcDbEntity
  8
0
100
AcDbLine
 10
-22.09800149212735
 20
59.36175312471001
 30
0.0
 11
-22.09800149212735
 21
65.59112938225528
 31
0.0
  0
LINE
  5
CB
330
1F
100
AcDbEntity
  8
0
100
AcDbLine
 10
-22.09800149212735
 20
65.59112938225528
 30
0.0
 11
-22.97325300118167
 21
65.21386580076634
 31
0.0
  0
LINE
  5
CC
330
1F
100
AcDbEntity
  8
0
100
AcDbLine
 10
-22.97325300118167
 20
65.21386580076634
 30
0.0
 11
-23.99940994283158
 21
65.02372495569593
 31
0.0
  0
LINE
  5
CD
330
1F
100
AcDbEntity
  8
0
100
AcDbLine
 10
-23.99940994283158
 20
65.02372495569593
 30
0.0
 11
-23.99940994283158
 21
66.95531449291926
 31
0.0
  0
LINE
  5
CE
330
1F
100
AcDbEntity
  8
0
100
AcDbLine
 10
-23.99940994283158
 20
66.95531449291926
 30
0.0
 11
-23.21243811184566
 21
67.13413743054501
 31
0.0
  0
LINE
  5
CF
330
1F
100
AcDbEntity
  8
0
100
AcDbLine
 10
-23.21243811184566
 20
67.13413743054501
 30
0.0
 11
-22.48130129092011
 21
67.39294024744642
 31
0.0
  0
LINE
  5
D0
330
1F
100
AcDbEntity
  8
0
100
AcDbLine
 10
-22.48130129092011
 20
67.39294024744642
 30
0.0
 11
-21.76978217623198
 21
67.74681348688304
 31
0.0
  0
LINE
  5
D1
330
1F
100
AcDbEntity
  8
0
100
AcDbLine
 10
-21.76978217623198
 20
67.74681348688304
 30
0.0
 11
-21.04166346395834
 21
68.21084769211444
 31
0.0
  0
LINE
  5
D2
330
1F
100
AcDbEntity
  8
0
100
AcDbLine
 10
-21.04166346395834
 20
68.21084769211444
 30
0.0
 11
-19.52657292069878
 21
68.21084769211444
 31
0.0
  0
LINE
  5
D3
330
1F
100
AcDbEntity
  8
0
100
AcDbLine
 10
-19.52657292069878
 20
68.21084769211444
 30
0.0
 11
-19.52657292069878
 21
59.36175312471001
 31
0.0
  0
LINE
  5
D4
330
1F
100
AcDbEntity
  8
0
100
AcDbLine
 10
-19.52657292069878
 20
59.36175312471001
 30
0.0
 11
-22.09800149212735
 21
59.36175312471001
 31
0.0
  0
LINE
  5
D5
330
1F
100
AcDbEntity
  8
0
100
AcDbLine
 10
-15.09598941969274
 20
60.43619980479049
 30
0.0
 11
-15.19256889655391
 21
59.93972093155106
 31
0.0
  0
LINE
  5
D6
330
1F
100
AcDbEntity
  8
0
100
AcDbLine
 10
-15.19256889655391
 20
59.93972093155106
 30
0.0
 11
-15.48230732713741
 21
59.54887586112851
 31
0.0
  0
LINE
  5
D7
330
1F
100
AcDbEntity
  8
0
100
AcDbLine
 10
-15.48230732713741
 20
59.54887586112851
 30
0.0
 11
-15.94256889655391
 21
59.29535473436795
 31
0.0
  0
LINE
  5
D8
330
1F
100
AcDbEntity
  8
0
100
AcDbLine
 10
-15.94256889655391
 20
59.29535473436795
 30
0.0
 11
-16.55071778991407
 21
59.21084769211443
 31
0.0
  0
LINE
  5
D9
330
1F
100
AcDbEntity
  8
0
100
AcDbLine
 10
-16.55071778991407
 20
59.21084769211443
 30
0.0
 11
-17.11585863498449
 21
59.29912737018284
 31
0.0
  0
LINE
  5
DA
330
1F
100
AcDbEntity
  8
0
100
AcDbLine
 10
-17.11585863498449
 20
59.29912737018284
 30
0.0
 11
-17.56782040560823
 21
59.56396640438807
 31
0.0
  0
LINE
  5
DB
330
1F
100
AcDbEntity
  8
0
100
AcDbLine
 10
-17.56782040560823
 20
59.56396640438807
 30
0.0
 11
-17.86434958065854
 21
59.9585841106255
 31
0.0
  0
LINE
  5
DC
330
1F
100
AcDbEntity
  8
0
100
AcDbLine
 10
-17.86434958065854
 20
59.9585841106255
 30
0.0
 11
-17.96319263900864
 21
60.43619980479049
 31
0.0
  0
LINE
  5
DD
330
1F
100
AcDbEntity
  8
0
100
AcDbLine
 10
-17.96319263900864
 20
60.43619980479049
 30
0.0
 11
-17.86585863498449
 21
60.91683360760739
 31
0.0
  0
LINE
  5
DE
330
1F
100
AcDbEntity
  8
0
100
AcDbLine
 10
-17.86585863498449
 20
60.91683360760739
 30
0.0
 11
-17.57385662291206
 21
61.29636077058525
 31
0.0
  0
LINE
  5
DF
330
1F
100
AcDbEntity
  8
0
100
AcDbLine
 10
-17.57385662291206
 20
61.29636077058525
 30
0.0
 11
-17.11736768931044
 21
61.54309115287902
 31
0.0
  0
LINE
  5
E0
330
1F
100
AcDbEntity
  8
0
100
AcDbLine
 10
-17.11736768931044
 20
61.54309115287902
 30
0.0
 11
-16.52657292069878
 21
61.62533461364361
 31
0.0
  0
LINE
  5
E1
330
1F
100
AcDbEntity
  8
0
100
AcDbLine
 10
-16.52657292069878
 20
61.62533461364361
 30
0.0
 11
-15.94785058669475
 21
61.54309115287902
 31
0.0
  0
LINE
  5
E2
330
1F
100
AcDbEntity
  8
0
100
AcDbLine
 10
-15.94785058669475
 20
61.54309115287902
 30
0.0
 11
-15.49136165309314
 21
61.29636077058525
 31
0.0
  0
LINE
  5
E3
330
1F
100
AcDbEntity
  8
0
100
AcDbLine
 10
-15.49136165309314
 20
61.29636077058525
 30
0.0
 11
-15.19483247804284
 21
60.91683360760739
 31
0.0
  0
LINE
  5
E4
330
1F
100
AcDbEntity
  8
0
100
AcDbLine
 10
-15.19483247804284
 20
60.91683360760739
 30
0.0
 11
-15.09598941969274
 21
60.43619980479049
 31
0.0
  0
LINE
  5
E5
330
1F
100
AcDbEntity
  8
0
100
AcDbLine
 10
-12.90484253840502
 20
59.36175312471001
 30
0.0
 11
-12.68602966114143
 21
60.51014346676232
 31
0.0
  0
LINE
  5
E6
330
1F
100
AcDbEntity
  8
0
100
AcDbLine
 10
-12.68602966114143
 20
60.51014346676232
 30
0.0
 11
-12.39176406758006
 21
61.57704487521302
 31
0.0
  0
LINE
  5
E7
330
1F
100
AcDbEntity
  8
0
100
AcDbLine
 10
-12.39176406758006
 20
61.57704487521302
 30
0.0
 11
-12.02732744786175
 21
62.58509316495146
 31
0.0
  0
LINE
  5
E8
330
1F
100
AcDbEntity
  8
0
100
AcDbLine
 10
-12.02732744786175
 20
62.58509316495146
 30
0.0
 11
-11.59800149212735
 21
63.55692415086695
 31
0.0
  0
LINE
  5
E9
330
1F
100
AcDbEntity
  8
0
100
AcDbLine
 10
-11.59800149212735
 20
63.55692415086695
 30
0.0
 11
-11.01626104947141
 21
64.64797042853294
 31
0.0
  0
LINE
  5
EA
330
1F
100
AcDbEntity
  8
0
100
AcDbLine
 10
-11.01626104947141
 20
64.64797042853294
 30
0.0
 11
-10.19458096898852
 21
66.01366459352288
 31
0.0
  0
LINE
  5
EB
330
1F
100
AcDbEntity
  8
0
100
AcDbLine
 10
-10.19458096898852
 20
66.01366459352288
 30
0.0
 11
-13.96118056657403
 21
66.01366459352288
 31
0.0
  0
LINE
  5
EC
330
1F
100
AcDbEntity
  8
0
100
AcDbLine
 10
-13.96118056657403
 20
66.01366459352288
 30
0.0
 11
-13.96118056657403
 21
68.0176887383921
 31
0.0
  0
LINE
  5
ED
330
1F
100
AcDbEntity
  8
0
100
AcDbLine
 10
-13.96118056657403
 20
68.0176887383921
 30
0.0
 11
-7.629188614863767
 21
68.0176887383921
 31
0.0
  0
LINE
  5
EE
330
1F
100
AcDbEntity
  8
0
100
AcDbLine
 10
-7.629188614863767
 20
68.0176887383921
 30
0.0
 11
-7.629188614863767
 21
66.49656197782872
 31
0.0
  0
LINE
  5
EF
330
1F
100
AcDbEntity
  8
0
100
AcDbLine
 10
-7.629188614863767
 20
66.49656197782872
 30
0.0
 11
-8.387488413656524
 21
65.08408712873415
 31
0.0
  0
LINE
  5
F0
330
1F
100
AcDbEntity
  8
0
100
AcDbLine
 10
-8.387488413656524
 20
65.08408712873415
 30
0.0
 11
-8.936029661141434
 21
63.92513340640014
 31
0.0
  0
LINE
  5
F1
330
1F
100
AcDbEntity
  8
0
100
AcDbLine
 10
-8.936029661141434
 20
63.92513340640014
 30
0.0
 11
-9.349510546453304
 21
62.87256801404602
 31
0.0
  0
LINE
  5
F2
330
1F
100
AcDbEntity
  8
0
100
AcDbLine
 10
-9.349510546453304
 20
62.87256801404602
 30
0.0
 11
-9.702629258726946
 21
61.7792581548911
 31
0.0
  0
LINE
  5
F3
330
1F
100
AcDbEntity
  8
0
100
AcDbLine
 10
-9.702629258726946
 20
61.7792581548911
 30
0.0
 11
-9.996140325125337
 21
60.61804085106816
 31
0.0
  0
LINE
  5
F4
330
1F
100
AcDbEntity
  8
0
100
AcDbLine
 10
-9.996140325125337
 20
60.61804085106816
 30
0.0
 11
-10.23079827281145
 21
59.36175312471001
 31
0.0
  0
LINE
  5
F5
330
1F
100
AcDbEntity
  8
0
100
AcDbLine
 10
-10.23079827281145
 20
59.36175312471001
 30
0.0
 11
-12.90484253840502
 21
59.36175312471001
 31
0.0
  0
LINE
  5
F6
330
1F
100
AcDbEntity
  8
0
100
AcDbLine
 10
-0.5668143693909294
 20
62.28931851706413
 30
0.0
 11
-0.6716936450448558
 21
61.44802073034381
 31
0.0
  0
LINE
  5
F7
330
1F
100
AcDbEntity
  8
0
100
AcDbLine
 10
-0.6716936450448558
 20
61.44802073034381
 30
0.0
 11
-0.9863314720066237
 21
60.69877525750679
 31
0.0
  0
LINE
  5
F8
330
1F
100
AcDbEntity
  8
0
100
AcDbLine
 10
-0.9863314720066237
 20
60.69877525750679
 30
0.0
 11
-1.498655415668597
 21
60.07327223939814
 31
0.0
  0
LINE
  5
F9
330
1F
100
AcDbEntity
  8
0
100
AcDbLine
 10
-1.498655415668597
 20
60.07327223939814
 30
0.0
 11
-2.196593041423122
 21
59.60320181686292
 31
0.0
  0
LINE
  5
FA
330
1F
100
AcDbEntity
  8
0
100
AcDbLine
 10
-2.196593041423122
 20
59.60320181686292
 30
0.0
 11
-3.058263061543848
 21
59.30893622330155
 31
0.0
  0
LINE
  5
FB
330
1F
100
AcDbEntity
  8
0
100
AcDbLine
 10
-3.058263061543848
 20
59.30893622330155
 30
0.0
 11
-4.061784188304411
 21
59.21084769211443
 31
0.0
  0
LINE
  5
FC
330
1F
100
AcDbEntity
  8
0
100
AcDbLine
 10
-4.061784188304411
 20
59.21084769211443
 30
0.0
 11
-5.308263061543847
 21
59.31346338627943
 31
0.0
  0
LINE
  5
FD
330
1F
100
AcDbEntity
  8
0
100
AcDbLine
 10
-5.308263061543847
 20
59.31346338627943
 30
0.0
 11
-6.373655415668597
 21
59.57302073034381
 31
0.0
  0
LINE
  5
FE
330
1F
100
AcDbEntity
  8
0
100
AcDbLine
 10
-6.373655415668597
 20
59.57302073034381
 30
0.0
 11
-6.373655415668597
 21
61.57704487521302
 31
0.0
  0
LINE
  5
FF
330
1F
100
AcDbEntity
  8
0
100
AcDbLine
 10
-6.373655415668597
 20
61.57704487521302
 30
0.0
 11
-5.442568896553906
 21
61.21487183698365
 31
0.0
  0
LINE
  5
100
330
1F
100
AcDbEntity
  8
0
100
AcDbLine
 10
-5.442568896553906
 20
61.21487183698365
 30
0.0
 11
-4.460174530356726
 21
61.09414749090719
 31
0.0
  0
LINE
  5
101
330
1F
100
AcDbEntity
  8
0
100
AcDbLine
 10
-4.460174530356726
 20
61.09414749090719
 30
0.0
 11
-3.876925033374834
 21
61.15450966394542
 31
0.0
  0
LINE
  5
102
330
1F
100
AcDbEntity
  8
0
100
AcDbLine
 10
-3.876925033374834
 20
61.15450966394542
 30
0.0
 11
-3.455144349270205
 21
61.3355961830601
 31
0.0
  0
LINE
  5
103
330
1F
100
AcDbEntity
  8
0
100
AcDbLine
 10
-3.455144349270205
 20
61.3355961830601
 30
0.0
 11
-3.199359641020708
 21
61.62684366796956
 31
0.0
  0
LINE
  5
104
330
1F
100
AcDbEntity
  8
0
100
AcDbLine
 10
-3.199359641020708
 20
61.62684366796956
 30
0.0
 11
-3.114098071604211
 21
62.0176887383921
 31
0.0
  0
LINE
  5
105
330
1F
100
AcDbEntity
  8
0
100
AcDbLine
 10
-3.114098071604211
 20
62.0176887383921
 30
0.0
 11
-3.21294112995431
 21
62.43494225951886
 31
0.0
  0
LINE
  5
106
330
1F
100
AcDbEntity
  8
0
100
AcDbLine
 10
-3.21294112995431
 20
62.43494225951886
 30
0.0
 11
-3.509470305004613
 21
62.73298048889512
 31
0.0
  0
LINE
  5
107
330
1F
100
AcDbEntity
  8
0
100
AcDbLine
 10
-3.509470305004613
 20
62.73298048889512
 30
0.0
 11
-4.003685596755115
 21
62.91180342652088
 31
0.0
  0
LINE
  5
108
330
1F
100
AcDbEntity
  8
0
100
AcDbLine
 10
-4.003685596755115
 20
62.91180342652088
 30
0.0
 11
-4.69558700520582
 21
62.97141107239612
 31
0.0
  0
LINE
  5
109
330
1F
100
AcDbEntity
  8
0
100
AcDbLine
 10
-4.69558700520582
 20
62.97141107239612
 30
0.0
 11
-5.457659439813469
 21
62.93368471424724
 31
0.0
  0
LINE
  5
10A
330
1F
100
AcDbEntity
  8
0
100
AcDbLine
 10
-5.457659439813469
 20
62.93368471424724
 30
0.0
 11
-6.162387810034795
 21
62.82050563980054
 31
0.0
  0
LINE
  5
10B
330
1F
100
AcDbEntity
  8
0
100
AcDbLine
 10
-6.162387810034795
 20
62.82050563980054
 30
0.0
 11
-5.836432075628354
 21
68.0176887383921
 31
0.0
  0
LINE
  5
10C
330
1F
100
AcDbEntity
  8
0
100
AcDbLine
 10
-5.836432075628354
 20
68.0176887383921
 30
0.0
 11
-0.9470960595317752
 21
68.0176887383921
 31
0.0
  0
LINE
  5
10D
330
1F
100
AcDbEntity
  8
0
100
AcDbLine
 10
-0.9470960595317752
 20
68.0176887383921
 30
0.0
 11
-0.9470960595317752
 21
66.01366459352288
 31
0.0
  0
LINE
  5
10E
330
1F
100
AcDbEntity
  8
0
100
AcDbLine
 10
-0.9470960595317752
 20
66.01366459352288
 30
0.0
 11
-3.844480365366787
 21
66.01366459352288
 31
0.0
  0
LINE
  5
10F
330
1F
100
AcDbEntity
  8
0
100
AcDbLine
 10
-3.844480365366787
 20
66.01366459352288
 30
0.0
 11
-3.928987407620307
 21
64.80038491545447
 31
0.0
  0
LINE
  5
110
330
1F
100
AcDbEntity
  8
0
100
AcDbLine
 10
-3.928987407620307
 20
64.80038491545447
 30
0.0
 11
-3.271039721503607
 21
64.83660221927741
 31
0.0
  0
LINE
  5
111
330
1F
100
AcDbEntity
  8
0
100
AcDbLine
 10
-3.271039721503607
 20
64.83660221927741
 30
0.0
 11
-2.671567890517689
 21
64.79378280277842
 31
0.0
  0
LINE
  5
112
330
1F
100
AcDbEntity
  8
0
100
AcDbLine
 10
-2.671567890517689
 20
64.79378280277842
 30
0.0
 11
-2.14075803136276
 21
64.66532455328144
 31
0.0
  0
LINE
  5
113
330
1F
100
AcDbEntity
  8
0
100
AcDbLine
 10
-2.14075803136276
 20
64.66532455328144
 30
0.0
 11
-1.678610144038815
 21
64.45122747078646
 31
0.0
  0
LINE
  5
114
330
1F
100
AcDbEntity
  8
0
100
AcDbLine
 10
-1.678610144038815
 20
64.45122747078646
 30
0.0
 11
-1.285124228545861
 21
64.1514915552935
 31
0.0
  0
LINE
  5
115
330
1F
100
AcDbEntity
  8
0
100
AcDbLine
 10
-1.285124228545861
 20
64.1514915552935
 30
0.0
 11
-0.9708636651655772
 21
63.77818924141021
 31
0.0
  0
LINE
  5
116
330
1F
100
AcDbEntity
  8
0
100
AcDbLine
 10
-0.9708636651655772
 20
63.77818924141021
 30
0.0
 11
-0.7463918341796637
 21
63.34339296374422
 31
0.0
  0
LINE
  5
117
330
1F
100
AcDbEntity
  8
0
100
AcDbLine
 10
-0.7463918341796637
 20
63.34339296374422
 30
0.0
 11
-0.6117087355881116
 21
62.84710272229551
 31
0.0
  0
LINE
  5
118
330
1F
100
AcDbEntity
  8
0
100
AcDbLine
 10
-0.6117087355881116
 20
62.84710272229551
 30
0.0
 11
-0.5668143693909294
 21
62.28931851706413
 31
0.0
  0
LINE
  5
119
330
1F
100
AcDbEntity
  8
0
100
AcDbLine
 10
8.89193814569961
 20
59.36175312471001
 30
0.0
 11
8.89193814569961
 21
62.92312133396555
 31
0.0
  0
LINE
  5
11A
330
1F
100
AcDbEntity
  8
0
100
AcDbLine
 10
8.89193814569961
 20
62.92312133396555
 30
0.0
 11
8.851948206061785
 21
63.31321187722509
 31
0.0
  0
LINE
  5
11B
330
1F
100
AcDbEntity
  8
0
100
AcDbLine
 10
8.851948206061785
 20
63.31321187722509
 30
0.0
 11
8.731978387148308
 21
63.59012334603797
 31
0.0
  0
LINE
  5
11C
330
1F
100
AcDbEntity
  8
0
100
AcDbLine
 10
8.731978387148308
 20
63.59012334603797
 30
0.0
 11
8.521465308677481
 21
63.75536479473012
 31
0.0
  0
LINE
  5
11D
330
1F
100
AcDbEntity
  8
0
100
AcDbLine
 10
8.521465308677481
 20
63.75536479473012
 30
0.0
 11
8.209845590367621
 21
63.81044527762751
 31
0.0
  0
LINE
  5
11E
330
1F
100
AcDbEntity
  8
0
100
AcDbLine
 10
8.209845590367621
 20
63.81044527762751
 30
0.0
 11
7.89294418191692
 21
63.74329236012249
 31
0.0
  0
LINE
  5
11F
330
1F
100
AcDbEntity
  8
0
100
AcDbLine
 10
7.89294418191692
 20
63.74329236012249
 30
0.0
 11
7.654513598415909
 21
63.54183360760739
 31
0.0
  0
LINE
  5
120
330
1F
100
AcDbEntity
  8
0
100
AcDbLine
 10
7.654513598415909
 20
63.54183360760739
 30
0.0
 11
7.505117220146293
 21
63.22115956334179
 31
0.0
  0
LINE
  5
121
330
1F
100
AcDbEntity
  8
0
100
AcDbLine
 10
7.505117220146293
 20
63.22115956334179
 30
0.0
 11
7.455318427389754
 21
62.79636077058525
 31
0.0
  0
LINE
  5
122
330
1F
100
AcDbEntity
  8
0
100
AcDbLine
 10
7.455318427389754
 20
62.79636077058525
 30
0.0
 11
7.455318427389754
 21
59.36175312471001
 31
0.0
  0
LINE
  5
123
330
1F
100
AcDbEntity
  8
0
100
AcDbLine
 10
7.455318427389754
 20
59.36175312471001
 30
0.0
 11
4.883889855961181
 21
59.36175312471001
 31
0.0
  0
LINE
  5
124
330
1F
100
AcDbEntity
  8
0
100
AcDbLine
 10
4.883889855961181
 20
59.36175312471001
 30
0.0
 11
4.883889855961181
 21
62.8627591609273
 31
0.0
  0
LINE
  5
125
330
1F
100
AcDbEntity
  8
0
100
AcDbLine
 10
4.883889855961181
 20
62.8627591609273
 30
0.0
 11
4.843522652741865
 21
63.27737183698365
 31
0.0
  0
LINE
  5
126
330
1F
100
AcDbEntity
  8
0
100
AcDbLine
 10
4.843522652741865
 20
63.27737183698365
 30
0.0
 11
4.722421043083918
 21
63.57352374845245
 31
0.0
  0
LINE
  5
127
330
1F
100
AcDbEntity
  8
0
100
AcDbLine
 10
4.722421043083918
 20
63.57352374845245
 30
0.0
 11
4.520585026987339
 21
63.75121489533375
 31
0.0
  0
LINE
  5
128
330
1F
100
AcDbEntity
  8
0
100
AcDbLine
 10
4.520585026987339
 20
63.75121489533375
 30
0.0
 11
4.238014604452129
 21
63.81044527762751
 31
0.0
  0
LINE
  5
129
330
1F
100
AcDbEntity
  8
0
100
AcDbLine
 10
4.238014604452129
 20
63.81044527762751
 30
0.0
 11
3.893950218134222
 21
63.74178330579652
 31
0.0
  0
LINE
  5
12A
330
1F
100
AcDbEntity
  8
0
100
AcDbLine
 10
3.893950218134222
 20
63.74178330579652
 30
0.0
 11
3.646465308677478
 21
63.53579739030356
 31
0.0
  0
LINE
  5
12B
330
1F
100
AcDbEntity
  8
0
100
AcDbLine
 10
3.646465308677478
 20
63.53579739030356
 30
0.0
 11
3.497068930407863
 21
63.20154185710437
 31
0.0
  0
LINE
  5
12C
330
1F
100
AcDbEntity
  8
0
100
AcDbLine
 10
3.497068930407863
 20
63.20154185710437
 30
0.0
 11
3.447270137651324
 21
62.74807103215468
 31
0.0
  0
LINE
  5
12D
330
1F
100
AcDbEntity
  8
0
100
AcDbLine
 10
3.447270137651324
 20
62.74807103215468
 30
0.0
 11
3.447270137651324
 21
59.36175312471001
 31
0.0
  0
LINE
  5
12E
330
1F
100
AcDbEntity
  8
0
100
AcDbLine
 10
3.447270137651324
 20
59.36175312471001
 30
0.0
 11
0.875841566222751
 21
59.36175312471001
 31
0.0
  0
LINE
  5
12F
330
1F
100
AcDbEntity
  8
0
100
AcDbLine
 10
0.875841566222751
 20
59.36175312471001
 30
0.0
 11
0.875841566222751
 21
65.54283964382469
 31
0.0
  0
LINE
  5
130
330
1F
100
AcDbEntity
  8
0
100
AcDbLine
 10
0.875841566222751
 20
65.54283964382469
 30
0.0
 11
3.447270137651324
 21
65.54283964382469
 31
0.0
  0
LINE
  5
131
330
1F
100
AcDbEntity
  8
0
100
AcDbLine
 10
3.447270137651324
 20
65.54283964382469
 30
0.0
 11
3.447270137651324
 21
64.56497244060537
 31
0.0
  0
LINE
  5
132
330
1F
100
AcDbEntity
  8
0
100
AcDbLine
 10
3.471415006866613
 20
64.56497244060537
 30
0.0
 11
3.933185630609068
 21
65.09314145468988
 31
0.0
  0
LINE
  5
133
330
1F
100
AcDbEntity
  8
0
100
AcDbLine
 10
3.933185630609068
 20
65.09314145468988
 30
0.0
 11
4.64847738111209
 21
65.52774910056515
 31
0.0
  0
LINE
  5
134
330
1F
100
AcDbEntity
  8
0
100
AcDbLine
 10
4.64847738111209
 20
65.52774910056515
 30
0.0
 11
5.063467320749915
 21
65.65224608245649
 31
0.0
  0
LINE
  5
135
330
1F
100
AcDbEntity
  8
0
100
AcDbLine
 10
5.063467320749915
 20
65.65224608245649
 30
0.0
 11
5.511656455558768
 21
65.69374507642027
 31
0.0
  0
LINE
  5
136
330
1F
100
AcDbEntity
  8
0
100
AcDbLine
 10
5.511656455558768
 20
65.69374507642027
 30
0.0
 11
6.117541767429994
 21
65.62885574040416
 31
0.0
  0
LINE
  5
137
330
1F
100
AcDbEntity
  8
0
100
AcDbLine
 10
6.117541767429994
 20
65.62885574040416
 30
0.0
 11
6.619302330810275
 21
65.43418773235588
 31
0.0
  0
LINE
  5
138
330
1F
100
AcDbEntity
  8
0
100
AcDbLine
 10
6.619302330810275
 20
65.43418773235588
 30
0.0
 11
7.032028688959171
 21
65.0991776719937
 31
0.0
  0
LINE
  5
139
330
1F
100
AcDbEntity
  8
0
100
AcDbLine
 10
7.032028688959171
 20
65.0991776719937
 30
0.0
 11
7.370811385136234
 21
64.61326217903596
 31
0.0
  0
LINE
  5
13A
330
1F
100
AcDbEntity
  8
0
100
AcDbLine
 10
7.370811385136234
 20
64.61326217903596
 30
0.0
 11
7.751093075277076
 21
65.07276922128948
 31
0.0
  0
LINE
  5
13B
330
1F
100
AcDbEntity
  8
0
100
AcDbLine
 10
7.751093075277076
 20
65.07276922128948
 30
0.0
 11
8.240026676886735
 21
65.41306097179249
 31
0.0
  0
LINE
  5
13C
330
1F
100
AcDbEntity
  8
0
100
AcDbLine
 10
8.240026676886735
 20
65.41306097179249
 30
0.0
 11
8.813467320749913
 21
65.62357405026333
 31
0.0
  0
LINE
  5
13D
330
1F
100
AcDbEntity
  8
0
100
AcDbLine
 10
8.813467320749913
 20
65.62357405026333
 30
0.0
 11
9.447270137651325
 21
65.69374507642027
 31
0.0
  0
LINE
  5
13E
330
1F
100
AcDbEntity
  8
0
100
AcDbLine
 10
9.447270137651325
 20
65.69374507642027
 30
0.0
 11
9.904890861997405
 21
65.65413240036392
 31
0.0
  0
LINE
  5
13F
330
1F
100
AcDbEntity
  8
0
100
AcDbLine
 10
9.904890861997405
 20
65.65413240036392
 30
0.0
 11
10.30592204912014
 21
65.53529437219491
 31
0.0
  0
LINE
  5
140
330
1F
100
AcDbEntity
  8
0
100
AcDbLine
 10
10.30592204912014
 20
65.53529437219491
 30
0.0
 11
10.65036369901953
 21
65.33723099191323
 31
0.0
  0
LINE
  5
141
330
1F
100
AcDbEntity
  8
0
100
AcDbLine
 10
10.65036369901953
 20
65.33723099191323
 30
0.0
 11
10.93821581169559
 21
65.05994225951885
 31
0.0
  0
LINE
  5
142
330
1F
100
AcDbEntity
  8
0
100
AcDbLine
 10
10.93821581169559
 20
65.05994225951885
 30
0.0
 11
11.16532848775193
 21
64.70795533798969
 31
0.0
  0
LINE
  5
143
330
1F
100
AcDbEntity
  8
0
100
AcDbLine
 10
11.16532848775193
 20
64.70795533798969
 30
0.0
 11
11.32755182779217
 21
64.28579739030356
 31
0.0
  0
LINE
  5
144
330
1F
100
AcDbEntity
  8
0
100
AcDbLine
 10
11.32755182779217
 20
64.28579739030356
 30
0.0
 11
11.42488583181631
 21
63.79346841646051
 31
0.0
  0
LINE
  5
145
330
1F
100
AcDbEntity
  8
0
100
AcDbLine
 10
11.42488583181631
 20
63.79346841646051
 30
0.0
 11
11.45733049982436
 21
63.23096841646051
 31
0.0
  0
LINE
  5
146
330
1F
100
AcDbEntity
  8
0
100
AcDbLine
 10
11.45733049982436
 20
63.23096841646051
 30
0.0
 11
11.45733049982436
 21
59.36175312471001
 31
0.0
  0
LINE
  5
147
330
1F
100
AcDbEntity
  8
0
100
AcDbLine
 10
11.45733049982436
 20
59.36175312471001
 30
0.0
 11
8.89193814569961
 21
59.36175312471001
 31
0.0
  0
LINE
  5
148
330
1F
100
AcDbEntity
  8
0
100
AcDbLine
 10
20.63841701893905
 20
59.36175312471001
 30
0.0
 11
20.63841701893905
 21
62.92312133396555
 31
0.0
  0
LINE
  5
149
330
1F
100
AcDbEntity
  8
0
100
AcDbLine
 10
20.63841701893905
 20
62.92312133396555
 30
0.0
 11
20.59842707930122
 21
63.31321187722509
 31
0.0
  0
LINE
  5
14A
330
1F
100
AcDbEntity
  8
0
100
AcDbLine
 10
20.59842707930122
 20
63.31321187722509
 30
0.0
 11
20.47845726038774
 21
63.59012334603797
 31
0.0
  0
LINE
  5
14B
330
1F
100
AcDbEntity
  8
0
100
AcDbLine
 10
20.47845726038774
 20
63.59012334603797
 30
0.0
 11
20.26794418191691
 21
63.75536479473012
 31
0.0
  0
LINE
  5
14C
330
1F
100
AcDbEntity
  8
0
100
AcDbLine
 10
20.26794418191691
 20
63.75536479473012
 30
0.0
 11
19.95632446360706
 21
63.81044527762751
 31
0.0
  0
LINE
  5
14D
330
1F
100
AcDbEntity
  8
0
100
AcDbLine
 10
19.95632446360706
 20
63.81044527762751
 30
0.0
 11
19.63942305515635
 21
63.74329236012249
 31
0.0
  0
LINE
  5
14E
330
1F
100
AcDbEntity
  8
0
100
AcDbLine
 10
19.63942305515635
 20
63.74329236012249
 30
0.0
 11
19.40099247165535
 21
63.54183360760739
 31
0.0
  0
LINE
  5
14F
330
1F
100
AcDbEntity
  8
0
100
AcDbLine
 10
19.40099247165535
 20
63.54183360760739
 30
0.0
 11
19.25159609338573
 21
63.22115956334179
 31
0.0
  0
LINE
  5
150
330
1F
100
AcDbEntity
  8
0
100
AcDbLine
 10
19.25159609338573
 20
63.22115956334179
 30
0.0
 11
19.20179730062919
 21
62.79636077058525
 31
0.0
  0
LINE
  5
151
330
1F
100
AcDbEntity
  8
0
100
AcDbLine
 10
19.20179730062919
 20
62.79636077058525
 30
0.0
 11
19.20179730062919
 21
59.36175312471001
 31
0.0
  0
LINE
  5
152
330
1F
100
AcDbEntity
  8
0
100
AcDbLine
 10
19.20179730062919
 20
59.36175312471001
 30
0.0
 11
16.63036872920062
 21
59.36175312471001
 31
0.0
  0
LINE
  5
153
330
1F
100
AcDbEntity
  8
0
100
AcDbLine
 10
16.63036872920062
 20
59.36175312471001
 30
0.0
 11
16.63036872920062
 21
62.8627591609273
 31
0.0
  0
LINE
  5
154
330
1F
100
AcDbEntity
  8
0
100
AcDbLine
 10
16.63036872920062
 20
62.8627591609273
 30
0.0
 11
16.5900015259813
 21
63.27737183698365
 31
0.0
  0
LINE
  5
155
330
1F
100
AcDbEntity
  8
0
100
AcDbLine
 10
16.5900015259813
 20
63.27737183698365
 30
0.0
 11
16.46889991632336
 21
63.57352374845245
 31
0.0
  0
LINE
  5
156
330
1F
100
AcDbEntity
  8
0
100
AcDbLine
 10
16.46889991632336
 20
63.57352374845245
 30
0.0
 11
16.26706390022678
 21
63.75121489533375
 31
0.0
  0
LINE
  5
157
330
1F
100
AcDbEntity
  8
0
100
AcDbLine
 10
16.26706390022678
 20
63.75121489533375
 30
0.0
 11
15.98449347769157
 21
63.81044527762751
 31
0.0
  0
LINE
  5
158
330
1F
100
AcDbEntity
  8
0
100
AcDbLine
 10
15.98449347769157
 20
63.81044527762751
 30
0.0
 11
15.64042909137366
 21
63.74178330579652
 31
0.0
  0
LINE
  5
159
330
1F
100
AcDbEntity
  8
0
100
AcDbLine
 10
15.64042909137366
 20
63.74178330579652
 30
0.0
 11
15.39294418191692
 21
63.53579739030356
 31
0.0
  0
LINE
  5
15A
330
1F
100
AcDbEntity
  8
0
100
AcDbLine
 10
15.39294418191692
 20
63.53579739030356
 30
0.0
 11
15.2435478036473
 21
63.20154185710437
 31
0.0
  0
LINE
  5
15B
330
1F
100
AcDbEntity
  8
0
100
AcDbLine
 10
15.2435478036473
 20
63.20154185710437
 30
0.0
 11
15.19374901089076
 21
62.74807103215468
 31
0.0
  0
LINE
  5
15C
330
1F
100
AcDbEntity
  8
0
100
AcDbLine
 10
15.19374901089076
 20
62.74807103215468
 30
0.0
 11
15.19374901089076
 21
59.36175312471001
 31
0.0
  0
LINE
  5
15D
330
1F
100
AcDbEntity
  8
0
100
AcDbLine
 10
15.19374901089076
 20
59.36175312471001
 30
0.0
 11
12.62232043946219
 21
59.36175312471001
 31
0.0
  0
LINE
  5
15E
330
1F
100
AcDbEntity
  8
0
100
AcDbLine
 10
12.62232043946219
 20
59.36175312471001
 30
0.0
 11
12.62232043946219
 21
65.54283964382469
 31
0.0
  0
LINE
  5
15F
330
1F
100
AcDbEntity
  8
0
100
AcDbLine
 10
12.62232043946219
 20
65.54283964382469
 30
0.0
 11
15.19374901089076
 21
65.54283964382469
 31
0.0
  0
LINE
  5
160
330
1F
100
AcDbEntity
  8
0
100
AcDbLine
 10
15.19374901089076
 20
65.54283964382469
 30
0.0
 11
15.19374901089076
 21
64.56497244060537
 31
0.0
  0
LINE
  5
161
330
1F
100
AcDbEntity
  8
0
100
AcDbLine
 10
15.21789388010605
 20
64.56497244060537
 30
0.0
 11
15.67966450384851
 21
65.09314145468988
 31
0.0
  0
LINE
  5
162
330
1F
100
AcDbEntity
  8
0
100
AcDbLine
 10
15.67966450384851
 20
65.09314145468988
 30
0.0
 11
16.39495625435152
 21
65.52774910056515
 31
0.0
  0
LINE
  5
163
330
1F
100
AcDbEntity
  8
0
100
AcDbLine
 10
16.39495625435152
 20
65.52774910056515
 30
0.0
 11
16.80994619398935
 21
65.65224608245649
 31
0.0
  0
LINE
  5
164
330
1F
100
AcDbEntity
  8
0
100
AcDbLine
 10
16.80994619398935
 20
65.65224608245649
 30
0.0
 11
17.25813532879821
 21
65.69374507642027
 31
0.0
  0
LINE
  5
165
330
1F
100
AcDbEntity
  8
0
100
AcDbLine
 10
17.25813532879821
 20
65.69374507642027
 30
0.0
 11
17.86402064066943
 21
65.62885574040416
 31
0.0
  0
LINE
  5
166
330
1F
100
AcDbEntity
  8
0
100
AcDbLine
 10
17.86402064066943
 20
65.62885574040416
 30
0.0
 11
18.36578120404971
 21
65.43418773235588
 31
0.0
  0
LINE
  5
167
330
1F
100
AcDbEntity
  8
0
100
AcDbLine
 10
18.36578120404971
 20
65.43418773235588
 30
0.0
 11
18.77850756219861
 21
65.0991776719937
 31
0.0
  0
LINE
  5
168
330
1F
100
AcDbEntity
  8
0
100
AcDbLine
 10
18.77850756219861
 20
65.0991776719937
 30
0.0
 11
19.11729025837567
 21
64.61326217903596
 31
0.0
  0
LINE
  5
169
330
1F
100
AcDbEntity
  8
0
100
AcDbLine
 10
19.11729025837567
 20
64.61326217903596
 30
0.0
 11
19.49757194851652
 21
65.07276922128948
 31
0.0
  0
LINE
  5
16A
330
1F
100
AcDbEntity
  8
0
100
AcDbLine
 10
19.49757194851652
 20
65.07276922128948
 30
0.0
 11
19.98650555012618
 21
65.41306097179249
 31
0.0
  0
LINE
  5
16B
330
1F
100
AcDbEntity
  8
0
100
AcDbLine
 10
19.98650555012618
 20
65.41306097179249
 30
0.0
 11
20.55994619398935
 21
65.62357405026333
 31
0.0
  0
LINE
  5
16C
330
1F
100
AcDbEntity
  8
0
100
AcDbLine
 10
20.55994619398935
 20
65.62357405026333
 30
0.0
 11
21.19374901089076
 21
65.69374507642027
 31
0.0
  0
LINE
  5
16D
330
1F
100
AcDbEntity
  8
0
100
AcDbLine
 10
21.19374901089076
 20
65.69374507642027
 30
0.0
 11
21.65136973523684
 21
65.65413240036392
 31
0.0
  0
LINE
  5
16E
330
1F
100
AcDbEntity
  8
0
100
AcDbLine
 10
21.65136973523684
 20
65.65413240036392
 30
0.0
 11
22.05240092235958
 21
65.53529437219491
 31
0.0
  0
LINE
  5
16F
330
1F
100
AcDbEntity
  8
0
100
AcDbLine
 10
22.05240092235958
 20
65.53529437219491
 30
0.0
 11
22.39684257225897
 21
65.33723099191323
 31
0.0
  0
LINE
  5
170
330
1F
100
AcDbEntity
  8
0
100
AcDbLine
 10
22.39684257225897
 20
65.33723099191323
 30
0.0
 11
22.68469468493503
 21
65.05994225951885
 31
0.0
  0
LINE
  5
171
330
1F
100
AcDbEntity
  8
0
100
AcDbLine
 10
22.68469468493503
 20
65.05994225951885
 30
0.0
 11
22.91180736099137
 21
64.70795533798969
 31
0.0
  0
LINE
  5
172
330
1F
100
AcDbEntity
  8
0
100
AcDbLine
 10
22.91180736099137
 20
64.70795533798969
 30
0.0
 11
23.07403070103161
 21
64.28579739030356
 31
0.0
  0
LINE
  5
173
330
1F
100
AcDbEntity
  8
0
100
AcDbLine
 10
23.07403070103161
 20
64.28579739030356
 30
0.0
 11
23.17136470505575
 21
63.79346841646051
 31
0.0
  0
LINE
  5
174
330
1F
100
AcDbEntity
  8
0
100
AcDbLine
 10
23.17136470505575
 20
63.79346841646051
 30
0.0
 11
23.2038093730638
 21
63.23096841646051
 31
0.0
  0
LINE
  5
175
330
1F
100
AcDbEntity
  8
0
100
AcDbLine
 10
23.2038093730638
 20
63.23096841646051
 30
0.0
 11
23.2038093730638
 21
59.36175312471001
 31
0.0
  0
LINE
  5
176
330
1F
100
AcDbEntity
  8
0
100
AcDbLine
 10
23.2038093730638
 20
59.36175312471001
 30
0.0
 11
20.63841701893905
 21
59.36175312471001
 31
0.0
  0
LINE
  5
177
330
1F
100
AcDbEntity
  8
0
100
AcDbLine
 10
-17.61912825269073
 20
44.6756364245088
 30
0.0
 11
-17.73457090862634
 21
43.86829236012248
 31
0.0
  0
LINE
  5
178
330
1F
100
AcDbEntity
  8
0
100
AcDbLine
 10
-17.73457090862634
 20
43.86829236012248
 30
0.0
 11
-18.08089887643319
 21
43.17261831585689
 31
0.0
  0
LINE
  5
179
330
1F
100
AcDbEntity
  8
0
100
AcDbLine
 10
-18.08089887643319
 20
43.17261831585689
 30
0.0
 11
-18.63547634122192
 21
42.61426821525327
 31
0.0
  0
LINE
  5
17A
330
1F
100
AcDbEntity
  8
0
100
AcDbLine
 10
-18.63547634122192
 20
42.61426821525327
 30
0.0
 11
-19.37566748810321
 21
42.21889598185286
 31
0.0
  0
LINE
  5
17B
330
1F
100
AcDbEntity
  8
0
100
AcDbLine
 10
-19.37566748810321
 20
42.21889598185286
 30
0.0
 11
-20.29317251828429
 21
41.98348350700377
 31
0.0
  0
LINE
  5
17C
330
1F
100
AcDbEntity
  8
0
100
AcDbLine
 10
-20.29317251828429
 20
41.98348350700377
 30
0.0
 11
-21.37969163297242
 21
41.90501268205407
 31
0.0
  0
LINE
  5
17D
330
1F
100
AcDbEntity
  8
0
100
AcDbLine
 10
-21.37969163297242
 20
41.90501268205407
 30
0.0
 11
-22.68049646194626
 21
42.01970081082671
 31
0.0
  0
LINE
  5
17E
330
1F
100
AcDbEntity
  8
0
100
AcDbLine
 10
-22.68049646194626
 20
42.01970081082671
 30
0.0
 11
-23.86661316214747
 21
42.36376519714461
 31
0.0
  0
LINE
  5
17F
330
1F
100
AcDbEntity
  8
0
100
AcDbLine
 10
-23.86661316214747
 20
42.36376519714461
 30
0.0
 11
-23.86661316214747
 21
44.73599859754702
 31
0.0
  0
LINE
  5
180
330
1F
100
AcDbEntity
  8
0
100
AcDbLine
 10
-23.86661316214747
 20
44.73599859754702
 30
0.0
 11
-23.29468157261024
 21
44.37608914080659
 31
0.0
  0
LINE
  5
181
330
1F
100
AcDbEntity
  8
0
100
AcDbLine
 10
-23.29468157261024
 20
44.37608914080659
 30
0.0
 11
-22.66540591868671
 21
44.09314145468988
 31
0.0
  0
LINE
  5
182
330
1F
100
AcDbEntity
  8
0
100
AcDbLine
 10
-22.66540591868671
 20
44.09314145468988
 30
0.0
 11
-22.03009404745934
 21
43.90979135408627
 31
0.0
  0
LINE
  5
183
330
1F
100
AcDbEntity
  8
0
100
AcDbLine
 10
-22.03009404745934
 20
43.90979135408627
 30
0.0
 11
-21.44005380601065
 21
43.84867465388506
 31
0.0
  0
LINE
  5
184
330
1F
100
AcDbEntity
  8
0
100
AcDbLine
 10
-21.44005380601065
 20
43.84867465388506
 30
0.0
 11
-21.05977211586981
 21
43.88715553919693
 31
0.0
  0
LINE
  5
185
330
1F
100
AcDbEntity
  8
0
100
AcDbLine
 10
-21.05977211586981
 20
43.88715553919693
 30
0.0
 11
-20.77606990259013
 21
44.00259819513254
 31
0.0
  0
LINE
  5
186
330
1F
100
AcDbEntity
  8
0
100
AcDbLine
 10
-20.77606990259013
 20
44.00259819513254
 30
0.0
 11
-20.59951054645331
 21
44.19198451303998
 31
0.0
  0
LINE
  5
187
330
1F
100
AcDbEntity
  8
0
100
AcDbLine
 10
-20.59951054645331
 20
44.19198451303998
 30
0.0
 11
-20.54065742774103
 21
44.45229638426735
 31
0.0
  0
LINE
  5
188
330
1F
100
AcDbEntity
  8
0
100
AcDbLine
 10
-20.54065742774103
 20
44.45229638426735
 30
0.0
 11
-20.65836366516558
 21
44.82352374845246
 31
0.0
  0
LINE
  5
189
330
1F
100
AcDbEntity
  8
0
100
AcDbLine
 10
-20.65836366516558
 20
44.82352374845246
 30
0.0
 11
-21.01450048609113
 21
45.12231650499169
 31
0.0
  0
LINE
  5
18A
330
1F
100
AcDbEntity
  8
0
100
AcDbLine
 10
-21.01450048609113
 20
45.12231650499169
 30
0.0
 11
-21.89880632110119
 21
45.50259819513254
 31
0.0
  0
LINE
  5
18B
330
1F
100
AcDbEntity
  8
0
100
AcDbLine
 10
-21.89880632110119
 20
45.50259819513254
 30
0.0
 11
-22.81253871546739
 21
45.96587787320095
 31
0.0
  0
LINE
  5
18C
330
1F
100
AcDbEntity
  8
0
100
AcDbLine
 10
-22.81253871546739
 20
45.96587787320095
 30
0.0
 11
-23.46520471144325
 21
46.55290000599773
 31
0.0
  0
LINE
  5
18D
330
1F
100
AcDbEntity
  8
0
100
AcDbLine
 10
-23.46520471144325
 20
46.55290000599773
 30
0.0
 11
-23.69363781003479
 21
46.89281449291926
 31
0.0
  0
LINE
  5
18E
330
1F
100
AcDbEntity
  8
0
100
AcDbLine
 10
-23.69363781003479
 20
46.89281449291926
 30
0.0
 11
-23.85680430902876
 21
47.26366459352288
 31
0.0
  0
LINE
  5
18F
330
1F
100
AcDbEntity
  8
0
100
AcDbLine
 10
-23.85680430902876
 20
47.26366459352288
 30
0.0
 11
-23.95470420842513
 21
47.6654503078086
 31
0.0
  0
LINE
  5
190
330
1F
100
AcDbEntity
  8
0
100
AcDbLine
 10
-23.95470420842513
 20
47.6654503078086
 30
0.0
 11
-23.98733750822393
 21
48.0981716357764
 31
0.0
  0
LINE
  5
191
330
1F
100
AcDbEntity
  8
0
100
AcDbLine
 10
-23.98733750822393
 20
48.0981716357764
 30
0.0
 11
-23.92772986234868
 21
48.69443672631967
 31
0.0
  0
LINE
  5
192
330
1F
100
AcDbEntity
  8
0
100
AcDbLine
 10
-23.92772986234868
 20
48.69443672631967
 30
0.0
 11
-23.74890692472292
 21
49.22769879875427
 31
0.0
  0
LINE
  5
193
330
1F
100
AcDbEntity
  8
0
100
AcDbLine
 10
-23.74890692472292
 20
49.22769879875427
 30
0.0
 11
-23.45086869534667
 21
49.69795785308023
 31
0.0
  0
LINE
  5
194
330
1F
100
AcDbEntity
  8
0
100
AcDbLine
 10
-23.45086869534667
 20
49.69795785308023
 30
0.0
 11
-23.03361517421991
 21
50.10521388929753
 31
0.0
  0
LINE
  5
195
330
1F
100
AcDbEntity
  8
0
100
AcDbLine
 10
-23.03361517421991
 20
50.10521388929753
 30
0.0
 11
-22.51600954041709
 21
50.43399910056514
 31
0.0
  0
LINE
  5
196
330
1F
100
AcDbEntity
  8
0
100
AcDbLine
 10
-22.51600954041709
 20
50.43399910056514
 30
0.0
 11
-21.91691497301266
 21
50.668845680042
 31
0.0
  0
LINE
  5
197
330
1F
100
AcDbEntity
  8
0
100
AcDbLine
 10
-21.91691497301266
 20
50.668845680042
 30
0.0
 11
-21.23633147200663
 21
50.80975362772811
 31
0.0
  0
LINE
  5
198
330
1F
100
AcDbEntity
  8
0
100
AcDbLine
 10
-21.23633147200663
 20
50.80975362772811
 30
0.0
 11
-20.47425903739898
 21
50.85672294362349
 31
0.0
  0
LINE
  5
199
330
1F
100
AcDbEntity
  8
0
100
AcDbLine
 10
-20.47425903739898
 20
50.85672294362349
 30
0.0
 11
-19.64126104947141
 21
50.82050563980054
 31
0.0
  0
LINE
  5
19A
330
1F
100
AcDbEntity
  8
0
100
AcDbLine
 10
-19.64126104947141
 20
50.82050563980054
 30
0.0
 11
-18.95011416818369
 21
50.72996238024321
 31
0.0
  0
LINE
  5
19B
330
1F
100
AcDbEntity
  8
0
100
AcDbLine
 10
-18.95011416818369
 20
50.72996238024321
 30
0.0
 11
-18.07788076778127
 21
50.52473099191322
 31
0.0
  0
LINE
  5
19C
330
1F
100
AcDbEntity
  8
0
100
AcDbLine
 10
-18.07788076778127
 20
50.52473099191322
 30
0.0
 11
-18.07788076778127
 21
48.32151167601785
 31
0.0
  0
LINE
  5
19D
330
1F
100
AcDbEntity
  8
0
100
AcDbLine
 10
-18.07788076778127
 20
48.32151167601785
 30
0.0
 11
-19.16138177381749
 21
48.76970081082671
 31
0.0
  0
LINE
  5
19E
330
1F
100
AcDbEntity
  8
0
100
AcDbLine
 10
-19.16138177381749
 20
48.76970081082671
 30
0.0
 11
-19.6963415323688
 21
48.88174809452892
 31
0.0
  0
LINE
  5
19F
330
1F
100
AcDbEntity
  8
0
100
AcDbLine
 10
-19.6963415323688
 20
48.88174809452892
 30
0.0
 11
-20.22677412794224
 21
48.91909718909632
 31
0.0
  0
LINE
  5
1A0
330
1F
100
AcDbEntity
  8
0
100
AcDbLine
 10
-20.22677412794224
 20
48.91909718909632
 30
0.0
 11
-20.61912825269073
 21
48.87835272229552
 31
0.0
  0
LINE
  5
1A1
330
1F
100
AcDbEntity
  8
0
100
AcDbLine
 10
-20.61912825269073
 20
48.87835272229552
 30
0.0
 11
-20.9269753351857
 21
48.7561193218931
 31
0.0
  0
LINE
  5
1A2
330
1F
100
AcDbEntity
  8
0
100
AcDbLine
 10
-20.9269753351857
 20
48.7561193218931
 30
0.0
 11
-21.12617050621186
 21
48.56296036817077
 31
0.0
  0
LINE
  5
1A3
330
1F
100
AcDbEntity
  8
0
100
AcDbLine
 10
-21.12617050621186
 20
48.56296036817077
 30
0.0
 11
-21.19256889655391
 21
48.30943924141021
 31
0.0
  0
LINE
  5
1A4
330
1F
100
AcDbEntity
  8
0
100
AcDbLine
 10
-21.19256889655391
 20
48.30943924141021
 30
0.0
 11
-21.13899746798248
 21
48.06119980479048
 31
0.0
  0
LINE
  5
1A5
330
1F
100
AcDbEntity
  8
0
100
AcDbLine
 10
-21.13899746798248
 20
48.06119980479048
 30
0.0
 11
-20.9782831822682
 21
47.8597410522754
 31
0.0
  0
LINE
  5
1A6
330
1F
100
AcDbEntity
  8
0
100
AcDbLine
 10
-20.9782831822682
 20
47.8597410522754
 30
0.0
 11
-20.08190491265049
 21
47.39797042853294
 31
0.0
  0
LINE
  5
1A7
330
1F
100
AcDbEntity
  8
0
100
AcDbLine
 10
-20.08190491265049
 20
47.39797042853294
 30
0.0
 11
-18.9327600434352
 21
46.82905694764764
 31
0.0
  0
LINE
  5
1A8
330
1F
100
AcDbEntity
  8
0
100
AcDbLine
 10
-18.9327600434352
 20
46.82905694764764
 30
0.0
 11
-18.50588630098047
 21
46.52535976454904
 31
0.0
  0
LINE
  5
1A9
330
1F
100
AcDbEntity
  8
0
100
AcDbLine
 10
-18.50588630098047
 20
46.52535976454904
 30
0.0
 11
-18.17747835329435
 21
46.20883561967982
 31
0.0
  0
LINE
  5
1AA
330
1F
100
AcDbEntity
  8
0
100
AcDbLine
 10
-18.17747835329435
 20
46.20883561967982
 30
0.0
 11
-17.93320018428027
 21
45.87080745066574
 31
0.0
  0
LINE
  5
1AB
330
1F
100
AcDbEntity
  8
0
100
AcDbLine
 10
-17.93320018428027
 20
45.87080745066574
 30
0.0
 11
-17.75871577784163
 21
45.50259819513254
 31
0.0
  0
LINE
  5
1AC
330
1F
100
AcDbEntity
  8
0
100
AcDbLine
 10
-17.75871577784163
 20
45.50259819513254
 30
0.0
 11
-17.65402513397846
 21
45.10420785308023
 31
0.0
  0
LINE
  5
1AD
330
1F
100
AcDbEntity
  8
0
100
AcDbLine
 10
-17.65402513397846
 20
45.10420785308023
 30
0.0
 11
-17.61912825269073
 21
44.6756364245088
 31
0.0
  0
LINE
  5
1AE
330
1F
100
AcDbEntity
  8
0
100
AcDbLine
 10
-12.44609002331447
 20
42.14042515690316
 30
0.0
 11
-13.01953066717765
 21
41.98046539835185
 31
0.0
  0
LINE
  5
1AF
330
1F
100
AcDbEntity
  8
0
100
AcDbLine
 10
-13.01953066717765
 20
41.98046539835185
 30
0.0
 11
-13.9792892184855
 21
41.90501268205407
 31
0.0
  0
LINE
  5
1B0
330
1F
100
AcDbEntity
  8
0
100
AcDbLine
 10
-13.9792892184855
 20
41.90501268205407
 30
0.0
 11
-14.48727463096035
 21
41.94198451303998
 31
0.0
  0
LINE
  5
1B1
330
1F
100
AcDbEntity
  8
0
100
AcDbLine
 10
-14.48727463096035
 20
41.94198451303998
 30
0.0
 11
-14.93678418830441
 21
42.05290000599773
 31
0.0
  0
LINE
  5
1B2
330
1F
100
AcDbEntity
  8
0
100
AcDbLine
 10
-14.93678418830441
 20
42.05290000599773
 30
0.0
 11
-15.32781789051769
 21
42.23775916092731
 31
0.0
  0
LINE
  5
1B3
330
1F
100
AcDbEntity
  8
0
100
AcDbLine
 10
-15.32781789051769
 20
42.23775916092731
 30
0.0
 11
-15.66037573760019
 21
42.49656197782872
 31
0.0
  0
LINE
  5
1B4
330
1F
100
AcDbEntity
  8
0
100
AcDbLine
 10
-15.66037573760019
 20
42.49656197782872
 30
0.0
 11
-15.92578066717765
 21
42.82364950297962
 31
0.0
  0
LINE
  5
1B5
330
1F
100
AcDbEntity
  8
0
100
AcDbLine
 10
-15.92578066717765
 20
42.82364950297962
 30
0.0
 11
-16.11535561687584
 21
43.2133627826577
 31
0.0
  0
LINE
  5
1B6
330
1F
100
AcDbEntity
  8
0
100
AcDbLine
 10
-16.11535561687584
 20
43.2133627826577
 30
0.0
 11
-16.22910058669476
 21
43.66570181686293
 31
0.0
  0
LINE
  5
1B7
330
1F
100
AcDbEntity
  8
0
100
AcDbLine
 10
-16.22910058669476
 20
43.66570181686293
 30
0.0
 11
-16.26701557663439
 21
44.18066660559532
 31
0.0
  0
LINE
  5
1B8
330
1F
100
AcDbEntity
  8
0
100
AcDbLine
 10
-16.26701557663439
 20
44.18066660559532
 30
0.0
 11
-16.26701557663439
 21
46.45632052913656
 31
0.0
  0
LINE
  5
1B9
330
1F
100
AcDbEntity
  8
0
100
AcDbLine
 10
-16.26701557663439
 20
46.45632052913656
 30
0.0
 11
-17.23884656254988
 21
46.45632052913656
 31
0.0
  0
LINE
  5
1BA
330
1F
100
AcDbEntity
  8
0
100
AcDbLine
 10
-17.23884656254988
 20
46.45632052913656
 30
0.0
 11
-17.23884656254988
 21
48.23700463376433
 31
0.0
  0
LINE
  5
1BB
330
1F
100
AcDbEntity
  8
0
100
AcDbLine
 10
-17.23884656254988
 20
48.23700463376433
 30
0.0
 11
-16.26701557663439
 21
48.23700463376433
 31
0.0
  0
LINE
  5
1BC
330
1F
100
AcDbEntity
  8
0
100
AcDbLine
 10
-16.26701557663439
 20
48.23700463376433
 30
0.0
 11
-16.26701557663439
 21
49.45028431183274
 31
0.0
  0
LINE
  5
1BD
330
1F
100
AcDbEntity
  8
0
100
AcDbLine
 10
-16.26701557663439
 20
49.45028431183274
 30
0.0
 11
-13.73180430902876
 21
50.15048551907621
 31
0.0
  0
LINE
  5
1BE
330
1F
100
AcDbEntity
  8
0
100
AcDbLine
 10
-13.73180430902876
 20
50.15048551907621
 30
0.0
 11
-13.73180430902876
 21
48.23700463376433
 31
0.0
  0
LINE
  5
1BF
330
1F
100
AcDbEntity
  8
0
100
AcDbLine
 10
-13.73180430902876
 20
48.23700463376433
 30
0.0
 11
-12.44609002331447
 21
48.23700463376433
 31
0.0
  0
LINE
  5
1C0
330
1F
100
AcDbEntity
  8
0
100
AcDbLine
 10
-12.44609002331447
 20
48.23700463376433
 30
0.0
 11
-12.44609002331447
 21
46.45632052913656
 31
0.0
  0
LINE
  5
1C1
330
1F
100
AcDbEntity
  8
0
100
AcDbLine
 10
-12.44609002331447
 20
46.45632052913656
 30
0.0
 11
-13.73180430902876
 21
46.45632052913656
 31
0.0
  0
LINE
  5
1C2
330
1F
100
AcDbEntity
  8
0
100
AcDbLine
 10
-13.73180430902876
 20
46.45632052913656
 30
0.0
 11
-13.73180430902876
 21
44.60320181686292
 31
0.0
  0
LINE
  5
1C3
330
1F
100
AcDbEntity
  8
0
100
AcDbLine
 10
-13.73180430902876
 20
44.60320181686292
 30
0.0
 11
-13.69143710580944
 21
44.24668773235588
 31
0.0
  0
LINE
  5
1C4
330
1F
100
AcDbEntity
  8
0
100
AcDbLine
 10
-13.69143710580944
 20
44.24668773235588
 30
0.0
 11
-13.57033549615149
 21
43.99203481485085
 31
0.0
  0
LINE
  5
1C5
330
1F
100
AcDbEntity
  8
0
100
AcDbLine
 10
-13.57033549615149
 20
43.99203481485085
 30
0.0
 11
-13.36849948005491
 21
43.83924306434783
 31
0.0
  0
LINE
  5
1C6
330
1F
100
AcDbEntity
  8
0
100
AcDbLine
 10
-13.36849948005491
 20
43.83924306434783
 30
0.0
 11
-13.0859290575197
 21
43.78831248084683
 31
0.0
  0
LINE
  5
1C7
330
1F
100
AcDbEntity
  8
0
100
AcDbLine
 10
-13.0859290575197
 20
43.78831248084683
 30
0.0
 11
-12.44609002331447
 21
43.92110926153093
 31
0.0
  0
LINE
  5
1C8
330
1F
100
AcDbEntity
  8
0
100
AcDbLine
 10
-12.44609002331447
 20
43.92110926153093
 30
0.0
 11
-12.44609002331447
 21
42.14042515690316
 31
0.0
  0
LINE
  5
1C9
330
1F
100
AcDbEntity
  8
0
100
AcDbLine
 10
-6.99538579796236
 20
46.03378531786896
 30
0.0
 11
-7.38773992271085
 21
46.15450966394542
 31
0.0
  0
LINE
  5
1CA
330
1F
100
AcDbEntity
  8
0
100
AcDbLine
 10
-7.38773992271085
 20
46.15450966394542
 30
0.0
 11
-7.798202699370808
 21
46.20883561967982
 31
0.0
  0
LINE
  5
1CB
330
1F
100
AcDbEntity
  8
0
100
AcDbLine
 10
-7.798202699370808
 20
46.20883561967982
 30
0.0
 11
-8.355421009229966
 21
46.11678330579652
 31
0.0
  0
LINE
  5
1CC
330
1F
100
AcDbEntity
  8
0
100
AcDbLine
 10
-8.355421009229966
 20
46.11678330579652
 30
0.0
 11
-8.753434087700791
 21
45.84062636414662
 31
0.0
  0
LINE
  5
1CD
330
1F
100
AcDbEntity
  8
0
100
AcDbLine
 10
-8.753434087700791
 20
45.84062636414662
 30
0.0
 11
-8.992241934783287
 21
45.38036479473013
 31
0.0
  0
LINE
  5
1CE
330
1F
100
AcDbEntity
  8
0
100
AcDbLine
 10
-8.992241934783287
 20
45.38036479473013
 30
0.0
 11
-9.07184455047745
 21
44.73599859754702
 31
0.0
  0
LINE
  5
1CF
330
1F
100
AcDbEntity
  8
0
100
AcDbLine
 10
-9.07184455047745
 20
44.73599859754702
 30
0.0
 11
-9.07184455047745
 21
42.05591811464964
 31
0.0
  0
LINE
  5
1D0
330
1F
100
AcDbEntity
  8
0
100
AcDbLine
 10
-9.07184455047745
 20
42.05591811464964
 30
0.0
 11
-11.64327312190602
 21
42.05591811464964
 31
0.0
  0
LINE
  5
1D1
330
1F
100
AcDbEntity
  8
0
100
AcDbLine
 10
-11.64327312190602
 20
42.05591811464964
 30
0.0
 11
-11.64327312190602
 21
48.23700463376433
 31
0.0
  0
LINE
  5
1D2
330
1F
100
AcDbEntity
  8
0
100
AcDbLine
 10
-11.64327312190602
 20
48.23700463376433
 30
0.0
 11
-9.07184455047745
 21
48.23700463376433
 31
0.0
  0
LINE
  5
1D3
330
1F
100
AcDbEntity
  8
0
100
AcDbLine
 10
-9.07184455047745
 20
48.23700463376433
 30
0.0
 11
-9.07184455047745
 21
47.15048551907621
 31
0.0
  0
LINE
  5
1D4
330
1F
100
AcDbEntity
  8
0
100
AcDbLine
 10
-9.04769968126216
 20
47.15048551907621
 30
0.0
 11
-8.762488413656524
 21
47.66582757139009
 31
0.0
  0
LINE
  5
1D5
330
1F
100
AcDbEntity
  8
0
100
AcDbLine
 10
-8.762488413656524
 20
47.66582757139009
 30
0.0
 11
-8.377679560537812
 21
48.04082757139009
 31
0.0
  0
LINE
  5
1D6
330
1F
100
AcDbEntity
  8
0
100
AcDbLine
 10
-8.377679560537812
 20
48.04082757139009
 30
0.0
 11
-7.906854610839624
 21
48.26944930177238
 31
0.0
  0
LINE
  5
1D7
330
1F
100
AcDbEntity
  8
0
100
AcDbLine
 10
-7.906854610839624
 20
48.26944930177238
 30
0.0
 11
-7.363595053495558
 21
48.34565654523314
 31
0.0
  0
LINE
  5
1D8
330
1F
100
AcDbEntity
  8
0
100
AcDbLine
 10
-7.363595053495558
 20
48.34565654523314
 30
0.0
 11
-6.99538579796236
 21
48.27322193758727
 31
0.0
  0
LINE
  5
1D9
330
1F
100
AcDbEntity
  8
0
100
AcDbLine
 10
-6.99538579796236
 20
48.27322193758727
 30
0.0
 11
-6.99538579796236
 21
46.03378531786896
 31
0.0
  0
LINE
  5
1DA
330
1F
100
AcDbEntity
  8
0
100
AcDbLine
 10
-2.824359641020709
 20
42.05591811464964
 30
0.0
 11
-2.824359641020709
 21
42.99756801404602
 31
0.0
  0
LINE
  5
1DB
330
1F
100
AcDbEntity
  8
0
100
AcDbLine
 10
-2.848504510236001
 20
42.99756801404602
 30
0.0
 11
-3.197096059531777
 21
42.51957505629954
 31
0.0
  0
LINE
  5
1DC
330
1F
100
AcDbEntity
  8
0
100
AcDbLine
 10
-3.197096059531777
 20
42.51957505629954
 30
0.0
 11
-3.627176542429161
 21
42.17815151505206
 31
0.0
  0
LINE
  5
1DD
330
1F
100
AcDbEntity
  8
0
100
AcDbLine
 10
-3.627176542429161
 20
42.17815151505206
 30
0.0
 11
-4.138745958928154
 21
41.97329739030356
 31
0.0
  0
LINE
  5
1DE
330
1F
100
AcDbEntity
  8
0
100
AcDbLine
 10
-4.138745958928154
 20
41.97329739030356
 30
0.0
 11
-4.731804309028756
 21
41.90501268205407
 31
0.0
  0
LINE
  5
1DF
330
1F
100
AcDbEntity
  8
0
100
AcDbLine
 10
-4.731804309028756
 20
41.90501268205407
 30
0.0
 11
-5.145662457922117
 21
41.93745735006212
 31
0.0
  0
LINE
  5
1E0
330
1F
100
AcDbEntity
  8
0
100
AcDbLine
 10
-5.145662457922117
 20
41.93745735006212
 30
0.0
 11
-5.511985395547874
 21
42.03479135408626
 31
0.0
  0
LINE
  5
1E1
330
1F
100
AcDbEntity
  8
0
100
AcDbLine
 10
-5.511985395547874
 20
42.03479135408626
 30
0.0
 11
-5.830773121906023
 21
42.19701469412651
 31
0.0
  0
LINE
  5
1E2
330
1F
100
AcDbEntity
  8
0
100
AcDbLine
 10
-5.830773121906023
 20
42.19701469412651
 30
0.0
 11
-6.102025636996563
 21
42.42412737018284
 31
0.0
  0
LINE
  5
1E3
330
1F
100
AcDbEntity
  8
0
100
AcDbLine
 10
-6.102025636996563
 20
42.42412737018284
 30
0.0
 11
-6.318574932771211
 21
42.70556600197359
 31
0.0
  0
LINE
  5
1E4
330
1F
100
AcDbEntity
  8
0
100
AcDbLine
 10
-6.318574932771211
 20
42.70556600197359
 30
0.0
 11
-6.473253001181677
 21
43.03076720921705
 31
0.0
  0
LINE
  5
1E5
330
1F
100
AcDbEntity
  8
0
100
AcDbLine
 10
-6.473253001181677
 20
43.03076720921705
 30
0.0
 11
-6.566059842227952
 21
43.39973099191322
 31
0.0
  0
LINE
  5
1E6
330
1F
100
AcDbEntity
  8
0
100
AcDbLine
 10
-6.566059842227952
 20
43.39973099191322
 30
0.0
 11
-6.596995455910045
 21
43.81245735006212
 31
0.0
  0
LINE
  5
1E7
330
1F
100
AcDbEntity
  8
0
100
AcDbLine
 10
-6.596995455910045
 20
43.81245735006212
 30
0.0
 11
-6.562004258726947
 21
44.2442355190762
 31
0.0
  0
LINE
  5
1E8
330
1F
100
AcDbEntity
  8
0
100
AcDbLine
 10
-6.562004258726947
 20
44.2442355190762
 30
0.0
 11
-6.45703066717765
 21
44.62810121324119
 31
0.0
  0
LINE
  5
1E9
330
1F
100
AcDbEntity
  8
0
100
AcDbLine
 10
-6.45703066717765
 20
44.62810121324119
 30
0.0
 11
-6.282074681262156
 21
44.96405443255708
 31
0.0
  0
LINE
  5
1EA
330
1F
100
AcDbEntity
  8
0
100
AcDbLine
 10
-6.282074681262156
 20
44.96405443255708
 30
0.0
 11
-6.037136300980466
 21
45.25209517702389
 31
0.0
  0
LINE
  5
1EB
330
1F
100
AcDbEntity
  8
0
100
AcDbLine
 10
-6.037136300980466
 20
45.25209517702389
 30
0.0
 11
-5.722215526332579
 21
45.4922234466416
 31
0.0
  0
LINE
  5
1EC
330
1F
100
AcDbEntity
  8
0
100
AcDbLine
 10
-5.722215526332579
 20
45.4922234466416
 30
0.0
 11
-5.337312357318493
 21
45.68443924141021
 31
0.0
  0
LINE
  5
1ED
330
1F
100
AcDbEntity
  8
0
100
AcDbLine
 10
-5.337312357318493
 20
45.68443924141021
 30
0.0
 11
-4.357558836191734
 21
45.92513340640014
 31
0.0
  0
LINE
  5
1EE
330
1F
100
AcDbEntity
  8
0
100
AcDbLine
 10
-4.357558836191734
 20
45.92513340640014
 30
0.0
 11
-2.824359641020709
 21
46.1243285774263
 31
0.0
  0
LINE
  5
1EF
330
1F
100
AcDbEntity
  8
0
100
AcDbLine
 10
-2.824359641020709
 20
46.1243285774263
 30
0.0
 11
-2.892267085688716
 21
46.39897646475025
 31
0.0
  0
LINE
  5
1F0
330
1F
100
AcDbEntity
  8
0
100
AcDbLine
 10
-2.892267085688716
 20
46.39897646475025
 30
0.0
 11
-3.095989419692742
 21
46.61929839633979
 31
0.0
  0
LINE
  5
1F1
330
1F
100
AcDbEntity
  8
0
100
AcDbLine
 10
-3.095989419692742
 20
46.61929839633979
 30
0.0
 11
-3.414399882469402
 21
46.76416761163154
 31
0.0
  0
LINE
  5
1F2
330
1F
100
AcDbEntity
  8
0
100
AcDbLine
 10
-3.414399882469402
 20
46.76416761163154
 30
0.0
 11
-3.826371713455318
 21
46.81245735006212
 31
0.0
  0
LINE
  5
1F3
330
1F
100
AcDbEntity
  8
0
100
AcDbLine
 10
-3.826371713455318
 20
46.81245735006212
 30
0.0
 11
-4.352654409632381
 21
46.7754855190762
 31
0.0
  0
LINE
  5
1F4
330
1F
100
AcDbEntity
  8
0
100
AcDbLine
 10
-4.352654409632381
 20
46.7754855190762
 30
0.0
 11
-4.893273121906022
 21
46.66457002611845
 31
0.0
  0
LINE
  5
1F5
330
1F
100
AcDbEntity
  8
0
100
AcDbLine
 10
-4.893273121906022
 20
46.66457002611845
 30
0.0
 11
-6.017518594743042
 21
46.22090805428747
 31
0.0
  0
LINE
  5
1F6
330
1F
100
AcDbEntity
  8
0
100
AcDbLine
 10
-6.017518594743042
 20
46.22090805428747
 30
0.0
 11
-6.017518594743042
 21
47.89294024744643
 31
0.0
  0
LINE
  5
1F7
330
1F
100
AcDbEntity
  8
0
100
AcDbLine
 10
-6.017518594743042
 20
47.89294024744643
 30
0.0
 11
-5.453132276835599
 21
48.09062636414662
 31
0.0
  0
LINE
  5
1F8
330
1F
100
AcDbEntity
  8
0
100
AcDbLine
 10
-5.453132276835599
 20
48.09062636414662
 30
0.0
 11
-4.761985395547872
 21
48.24907706837198
 31
0.0
  0
LINE
  5
1F9
330
1F
100
AcDbEntity
  8
0
100
AcDbLine
 10
-4.761985395547872
 20
48.24907706837198
 30
0.0
 11
-3.470234892529764
 21
48.38791006635991
 31
0.0
  0
LINE
  5
1FA
330
1F
100
AcDbEntity
  8
0
100
AcDbLine
 10
-3.470234892529764
 20
48.38791006635991
 30
0.0
 11
-2.736645858324532
 21
48.34584517702389
 31
0.0
  0
LINE
  5
1FB
330
1F
100
AcDbEntity
  8
0
100
AcDbLine
 10
-2.736645858324532
 20
48.34584517702389
 30
0.0
 11
-2.111331472006624
 21
48.21965050901584
 31
0.0
  0
LINE
  5
1FC
330
1F
100
AcDbEntity
  8
0
100
AcDbLine
 10
-2.111331472006624
 20
48.21965050901584
 30
0.0
 11
-1.594291733576043
 21
48.00932606233576
 31
0.0
  0
LINE
  5
1FD
330
1F
100
AcDbEntity
  8
0
100
AcDbLine
 10
-1.594291733576043
 20
48.00932606233576
 30
0.0
 11
-1.185526643032781
 21
47.71487183698365
 31
0.0
  0
LINE
  5
1FE
330
1F
100
AcDbEntity
  8
0
100
AcDbLine
 10
-1.185526643032781
 20
47.71487183698365
 30
0.0
 11
-0.8752273472581314
 21
47.32195181686292
 31
0.0
  0
LINE
  5
1FF
330
1F
100
AcDbEntity
  8
0
100
AcDbLine
 10
-0.8752273472581314
 20
47.32195181686292
 30
0.0
 11
-0.6535849931333819
 21
46.81622998587701
 31
0.0
  0
LINE
  5
200
330
1F
100
AcDbEntity
  8
0
100
AcDbLine
 10
-0.6535849931333819
 20
46.81622998587701
 30
0.0
 11
-0.5205995806585351
 21
46.1977063440259
 31
0.0
  0
LINE
  5
201
330
1F
100
AcDbEntity
  8
0
100
AcDbLine
 10
-0.5205995806585351
 20
46.1977063440259
 30
0.0
 11
-0.4762711098335851
 21
45.4663808913096
 31
0.0
  0
LINE
  5
202
330
1F
100
AcDbEntity
  8
0
100
AcDbLine
 10
-0.4762711098335851
 20
45.4663808913096
 30
0.0
 11
-0.4762711098335851
 21
42.05591811464964
 31
0.0
  0
LINE
  5
203
330
1F
100
AcDbEntity
  8
0
100
AcDbLine
 10
-0.4762711098335851
 20
42.05591811464964
 30
0.0
 11
-2.824359641020709
 21
42.05591811464964
 31
0.0
  0
LINE
  5
204
330
1F
100
AcDbEntity
  8
0
100
AcDbLine
 10
-4.34548640158409
 20
44.15652173638003
 30
0.0
 11
-4.305496461946261
 21
43.9256364245088
 31
0.0
  0
LINE
  5
205
330
1F
100
AcDbEntity
  8
0
100
AcDbLine
 10
-4.305496461946261
 20
43.9256364245088
 30
0.0
 11
-4.185526643032781
 21
43.74002274241624
 31
0.0
  0
LINE
  5
206
330
1F
100
AcDbEntity
  8
0
100
AcDbLine
 10
-4.185526643032781
 20
43.74002274241624
 30
0.0
 11
-3.99161316214747
 21
43.61778934201383
 31
0.0
  0
LINE
  5
207
330
1F
100
AcDbEntity
  8
0
100
AcDbLine
 10
-3.99161316214747
 20
43.61778934201383
 30
0.0
 11
-3.72979223659415
 21
43.57704487521303
 31
0.0
  0
LINE
  5
208
330
1F
100
AcDbEntity
  8
0
100
AcDbLine
 10
-3.72979223659415
 20
43.57704487521303
 30
0.0
 11
-3.363846562549884
 21
43.65249759151082
 31
0.0
  0
LINE
  5
209
330
1F
100
AcDbEntity
  8
0
100
AcDbLine
 10
-3.363846562549884
 20
43.65249759151082
 30
0.0
 11
-3.074862659129362
 21
43.87885574040417
 31
0.0
  0
LINE
  5
20A
330
1F
100
AcDbEntity
  8
0
100
AcDbLine
 10
-3.074862659129362
 20
43.87885574040417
 30
0.0
 11
-2.886985395547872
 21
44.22292012672208
 31
0.0
  0
LINE
  5
20B
330
1F
100
AcDbEntity
  8
0
100
AcDbLine
 10
-2.886985395547872
 20
44.22292012672208
 30
0.0
 11
-2.824359641020709
 21
44.6514915552935
 31
0.0
  0
LINE
  5
20C
330
1F
100
AcDbEntity
  8
0
100
AcDbLine
 10
-2.824359641020709
 20
44.6514915552935
 30
0.0
 11
-2.824359641020709
 21
44.8869040301426
 31
0.0
  0
LINE
  5
20D
330
1F
100
AcDbEntity
  8
0
100
AcDbLine
 10
-2.824359641020709
 20
44.8869040301426
 30
0.0
 11
-3.693574932771214
 21
44.76617968406615
 31
0.0
  0
LINE
  5
20E
330
1F
100
AcDbEntity
  8
0
100
AcDbLine
 10
-3.693574932771214
 20
44.76617968406615
 30
0.0
 11
-3.978786200376846
 21
44.68733159553496
 31
0.0
  0
LINE
  5
20F
330
1F
100
AcDbEntity
  8
0
100
AcDbLine
 10
-3.978786200376846
 20
44.68733159553496
 30
0.0
 11
-4.182508534380871
 21
44.5594392414102
 31
0.0
  0
LINE
  5
210
330
1F
100
AcDbEntity
  8
0
100
AcDbLine
 10
-4.182508534380871
 20
44.5594392414102
 30
0.0
 11
-4.304741934783286
 21
44.3825026216919
 31
0.0
  0
LINE
  5
211
330
1F
100
AcDbEntity
  8
0
100
AcDbLine
 10
-4.304741934783286
 20
44.3825026216919
 30
0.0
 11
-4.34548640158409
 21
44.15652173638003
 31
0.0
  0
LINE
  5
212
330
1F
100
AcDbEntity
  8
0
100
AcDbLine
 10
3.405016616524564
 20
49.90300060961946
 30
0.0
 11
3.306173558174467
 21
49.41104889935789
 31
0.0
  0
LINE
  5
213
330
1F
100
AcDbEntity
  8
0
100
AcDbLine
 10
3.306173558174467
 20
49.41104889935789
 30
0.0
 11
3.009644383124159
 21
49.02171288326132
 31
0.0
  0
LINE
  5
214
330
1F
100
AcDbEntity
  8
0
100
AcDbLine
 10
3.009644383124159
 20
49.02171288326132
 30
0.0
 11
2.551646395196594
 21
48.76819175650075
 31
0.0
  0
LINE
  5
215
330
1F
100
AcDbEntity
  8
0
100
AcDbLine
 10
2.551646395196594
 20
48.76819175650075
 30
0.0
 11
1.968396898214702
 21
48.68368471424723
 31
0.0
  0
LINE
  5
216
330
1F
100
AcDbEntity
  8
0
100
AcDbLine
 10
1.968396898214702
 20
48.68368471424723
 30
0.0
 11
1.397219835840457
 21
48.77120986515266
 31
0.0
  0
LINE
  5
217
330
1F
100
AcDbEntity
  8
0
100
AcDbLine
 10
1.397219835840457
 20
48.77120986515266
 30
0.0
 11
0.9392218479128915
 21
49.03378531786896
 31
0.0
  0
LINE
  5
218
330
1F
100
AcDbEntity
  8
0
100
AcDbLine
 10
0.9392218479128915
 20
49.03378531786896
 30
0.0
 11
0.6381655098847255
 21
49.42613944261745
 31
0.0
  0
LINE
  5
219
330
1F
100
AcDbEntity
  8
0
100
AcDbLine
 10
0.6381655098847255
 20
49.42613944261745
 30
0.0
 11
0.5378133972086684
 21
49.90300060961946
 31
0.0
  0
LINE
  5
21A
330
1F
100
AcDbEntity
  8
0
100
AcDbLine
 10
0.5378133972086684
 20
49.90300060961946
 30
0.0
 11
0.6351474012328109
 21
50.38363441243636
 31
0.0
  0
LINE
  5
21B
330
1F
100
AcDbEntity
  8
0
100
AcDbLine
 10
0.6351474012328109
 20
50.38363441243636
 30
0.0
 11
0.927149413305244
 21
50.76316157541423
 31
0.0
  0
LINE
  5
21C
330
1F
100
AcDbEntity
  8
0
100
AcDbLine
 10
0.927149413305244
 20
50.76316157541423
 30
0.0
 11
1.382129292580895
 21
51.00989195770799
 31
0.0
  0
LINE
  5
21D
330
1F
100
AcDbEntity
  8
0
100
AcDbLine
 10
1.382129292580895
 20
51.00989195770799
 30
0.0
 11
1.968396898214702
 21
51.09213541847259
 31
0.0
  0
LINE
  5
21E
330
1F
100
AcDbEntity
  8
0
100
AcDbLine
 10
1.968396898214702
 20
51.09213541847259
 30
0.0
 11
2.551646395196594
 21
51.00989195770799
 31
0.0
  0
LINE
  5
21F
330
1F
100
AcDbEntity
  8
0
100
AcDbLine
 10
2.551646395196594
 20
51.00989195770799
 30
0.0
 11
3.009644383124159
 21
50.76316157541423
 31
0.0
  0
LINE
  5
220
330
1F
100
AcDbEntity
  8
0
100
AcDbLine
 10
3.009644383124159
 20
50.76316157541423
 30
0.0
 11
3.306173558174467
 21
50.38363441243636
 31
0.0
  0
LINE
  5
221
330
1F
100
AcDbEntity
  8
0
100
AcDbLine
 10
3.306173558174467
 20
50.38363441243636
 30
0.0
 11
3.405016616524564
 21
49.90300060961946
 31
0.0
  0
LINE
  5
222
330
1F
100
AcDbEntity
  8
0
100
AcDbLine
 10
0.6826826125004176
 20
42.05591811464964
 30
0.0
 11
0.6826826125004176
 21
48.23700463376433
 31
0.0
  0
LINE
  5
223
330
1F
100
AcDbEntity
  8
0
100
AcDbLine
 10
0.6826826125004176
 20
48.23700463376433
 30
0.0
 11
3.254111183928988
 21
48.23700463376433
 31
0.0
  0
LINE
  5
224
330
1F
100
AcDbEntity
  8
0
100
AcDbLine
 10
3.254111183928988
 20
48.23700463376433
 30
0.0
 11
3.254111183928988
 21
42.05591811464964
 31
0.0
  0
LINE
  5
225
330
1F
100
AcDbEntity
  8
0
100
AcDbLine
 10
3.254111183928988
 20
42.05591811464964
 30
0.0
 11
0.6826826125004176
 21
42.05591811464964
 31
0.0
  0
LINE
  5
226
330
1F
100
AcDbEntity
  8
0
100
AcDbLine
 10
11.19173693845615
 20
42.91909718909633
 30
0.0
 11
11.12175454408995
 21
42.07798803416674
 31
0.0
  0
LINE
  5
227
330
1F
100
AcDbEntity
  8
0
100
AcDbLine
 10
11.12175454408995
 20
42.07798803416674
 30
0.0
 11
10.91180736099136
 21
41.33534467400578
 31
0.0
  0
LINE
  5
228
330
1F
100
AcDbEntity
  8
0
100
AcDbLine
 10
10.91180736099136
 20
41.33534467400578
 30
0.0
 11
10.56189538916038
 21
40.69116710861343
 31
0.0
  0
LINE
  5
229
330
1F
100
AcDbEntity
  8
0
100
AcDbLine
 10
10.56189538916038
 20
40.69116710861343
 30
0.0
 11
10.072018628597
 21
40.14545533798968
 31
0.0
  0
LINE
  5
22A
330
1F
100
AcDbEntity
  8
0
100
AcDbLine
 10
10.072018628597
 20
40.14545533798968
 30
0.0
 11
9.447836033023563
 21
39.71103632390518
 31
0.0
  0
LINE
  5
22B
330
1F
100
AcDbEntity
  8
0
100
AcDbLine
 10
9.447836033023563
 20
39.71103632390518
 30
0.0
 11
8.695006556162392
 21
39.40073702813053
 31
0.0
  0
LINE
  5
22C
330
1F
100
AcDbEntity
  8
0
100
AcDbLine
 10
8.695006556162392
 20
39.40073702813053
 30
0.0
 11
7.8135301980135
 21
39.21455745066574
 31
0.0
  0
LINE
  5
22D
330
1F
100
AcDbEntity
  8
0
100
AcDbLine
 10
7.8135301980135
 20
39.21455745066574
 30
0.0
 11
6.803406958576878
 21
39.15249759151081
 31
0.0
  0
LINE
  5
22E
330
1F
100
AcDbEntity
  8
0
100
AcDbLine
 10
6.803406958576878
 20
39.15249759151081
 30
0.0
 11
5.680670540065809
 21
39.24304085106815
 31
0.0
  0
LINE
  5
22F
330
1F
100
AcDbEntity
  8
0
100
AcDbLine
 10
5.680670540065809
 20
39.24304085106815
 30
0.0
 11
4.901998507872652
 21
39.44827223939814
 31
0.0
  0
LINE
  5
230
330
1F
100
AcDbEntity
  8
0
100
AcDbLine
 10
4.901998507872652
 20
39.44827223939814
 30
0.0
 11
4.901998507872652
 21
41.46436881887499
 31
0.0
  0
LINE
  5
231
330
1F
100
AcDbEntity
  8
0
100
AcDbLine
 10
4.901998507872652
 20
41.46436881887499
 30
0.0
 11
5.321515610488346
 21
41.24706499593737
 31
0.0
  0
LINE
  5
232
330
1F
100
AcDbEntity
  8
0
100
AcDbLine
 10
5.321515610488346
 20
41.24706499593737
 30
0.0
 11
5.80743110344609
 21
41.07805091143032
 31
0.0
  0
LINE
  5
233
330
1F
100
AcDbEntity
  8
0
100
AcDbLine
 10
5.80743110344609
 20
41.07805091143032
 30
0.0
 11
6.730972350930999
 21
40.93318169613858
 31
0.0
  0
LINE
  5
234
330
1F
100
AcDbEntity
  8
0
100
AcDbLine
 10
6.730972350930999
 20
40.93318169613858
 30
0.0
 11
7.508135328798208
 21
41.03730644462953
 31
0.0
  0
LINE
  5
235
330
1F
100
AcDbEntity
  8
0
100
AcDbLine
 10
7.508135328798208
 20
41.03730644462953
 30
0.0
 11
8.113266113506453
 21
41.34968069010236
 31
0.0
  0
LINE
  5
236
330
1F
100
AcDbEntity
  8
0
100
AcDbLine
 10
8.113266113506453
 20
41.34968069010236
 30
0.0
 11
8.340378789562797
 21
41.57490704825126
 31
0.0
  0
LINE
  5
237
330
1F
100
AcDbEntity
  8
0
100
AcDbLine
 10
8.340378789562797
 20
41.57490704825126
 30
0.0
 11
8.502602129603035
 21
41.83408712873415
 31
0.0
  0
LINE
  5
238
330
1F
100
AcDbEntity
  8
0
100
AcDbLine
 10
8.502602129603035
 20
41.83408712873415
 30
0.0
 11
8.599936133627178
 21
42.12722093155105
 31
0.0
  0
LINE
  5
239
330
1F
100
AcDbEntity
  8
0
100
AcDbLine
 10
8.599936133627178
 20
42.12722093155105
 30
0.0
 11
8.632380801635225
 21
42.45430845670196
 31
0.0
  0
LINE
  5
23A
330
1F
100
AcDbEntity
  8
0
100
AcDbLine
 10
8.632380801635225
 20
42.45430845670196
 30
0.0
 11
8.632380801635225
 21
42.8345901468428
 31
0.0
  0
LINE
  5
23B
330
1F
100
AcDbEntity
  8
0
100
AcDbLine
 10
8.608235932419936
 20
42.8345901468428
 30
0.0
 11
8.278507562198612
 21
42.45430845670196
 31
0.0
  0
LINE
  5
23C
330
1F
100
AcDbEntity
  8
0
100
AcDbLine
 10
8.278507562198612
 20
42.45430845670196
 30
0.0
 11
7.844654443486335
 21
42.15853380881463
 31
0.0
  0
LINE
  5
23D
330
1F
100
AcDbEntity
  8
0
100
AcDbLine
 10
7.844654443486335
 20
42.15853380881463
 30
0.0
 11
7.341384825780095
 21
41.96839296374421
 31
0.0
  0
LINE
  5
23E
330
1F
100
AcDbEntity
  8
0
100
AcDbLine
 10
7.341384825780095
 20
41.96839296374421
 30
0.0
 11
6.803406958576878
 21
41.90501268205407
 31
0.0
  0
LINE
  5
23F
330
1F
100
AcDbEntity
  8
0
100
AcDbLine
 10
6.803406958576878
 20
41.90501268205407
 30
0.0
 11
6.237134322761992
 21
41.9568864245088
 31
0.0
  0
LINE
  5
240
330
1F
100
AcDbEntity
  8
0
100
AcDbLine
 10
6.237134322761992
 20
41.9568864245088
 30
0.0
 11
5.733487441474263
 21
42.11250765187298
 31
0.0
  0
LINE
  5
241
330
1F
100
AcDbEntity
  8
0
100
AcDbLine
 10
5.733487441474263
 20
42.11250765187298
 30
0.0
 11
5.292466314713703
 21
42.37187636414662
 31
0.0
  0
LINE
  5
242
330
1F
100
AcDbEntity
  8
0
100
AcDbLine
 10
5.292466314713703
 20
42.37187636414662
 30
0.0
 11
4.9140709424803
 21
42.73499256132973
 31
0.0
  0
LINE
  5
243
330
1F
100
AcDbEntity
  8
0
100
AcDbLine
 10
4.9140709424803
 20
42.73499256132973
 30
0.0
 11
4.610373759381709
 21
43.18940654523315
 31
0.0
  0
LINE
  5
244
330
1F
100
AcDbEntity
  8
0
100
AcDbLine
 10
4.610373759381709
 20
43.18940654523315
 30
0.0
 11
4.393447200025568
 21
43.72266861766775
 31
0.0
  0
LINE
  5
245
330
1F
100
AcDbEntity
  8
0
100
AcDbLine
 10
4.393447200025568
 20
43.72266861766775
 30
0.0
 11
4.263291264411888
 21
44.33477877863354
 31
0.0
  0
LINE
  5
246
330
1F
100
AcDbEntity
  8
0
100
AcDbLine
 10
4.263291264411888
 20
44.33477877863354
 30
0.0
 11
4.219905952540658
 21
45.02573702813053
 31
0.0
  0
LINE
  5
247
330
1F
100
AcDbEntity
  8
0
100
AcDbLine
 10
4.219905952540658
 20
45.02573702813053
 30
0.0
 11
4.310449212098002
 21
45.96889598185287
 31
0.0
  0
LINE
  5
248
330
1F
100
AcDbEntity
  8
0
100
AcDbLine
 10
4.310449212098002
 20
45.96889598185287
 30
0.0
 11
4.582078990770035
 21
46.79434869815065
 31
0.0
  0
LINE
  5
249
330
1F
100
AcDbEntity
  8
0
100
AcDbLine
 10
4.582078990770035
 20
46.79434869815065
 30
0.0
 11
5.015177582319336
 21
47.47266861766775
 31
0.0
  0
LINE
  5
24A
330
1F
100
AcDbEntity
  8
0
100
AcDbLine
 10
5.015177582319336
 20
47.47266861766775
 30
0.0
 11
5.590127280508464
 21
47.97442918104804
 31
0.0
  0
LINE
  5
24B
330
1F
100
AcDbEntity
  8
0
100
AcDbLine
 10
5.590127280508464
 20
47.97442918104804
 30
0.0
 11
6.269201727188545
 21
48.28453984503194
 31
0.0
  0
LINE
  5
24C
330
1F
100
AcDbEntity
  8
0
100
AcDbLine
 10
6.269201727188545
 20
48.28453984503194
 30
0.0
 11
7.014674564210679
 21
48.38791006635991
 31
0.0
  0
LINE
  5
24D
330
1F
100
AcDbEntity
  8
0
100
AcDbLine
 10
7.014674564210679
 20
48.38791006635991
 30
0.0
 11
7.514926073265006
 21
48.33848853718486
 31
0.0
  0
LINE
  5
24E
330
1F
100
AcDbEntity
  8
0
100
AcDbLine
 10
7.514926073265006
 20
48.33848853718486
 30
0.0
 11
7.947270137651327
 21
48.19022394965971
 31
0.0
  0
LINE
  5
24F
330
1F
100
AcDbEntity
  8
0
100
AcDbLine
 10
7.947270137651327
 20
48.19022394965971
 30
0.0
 11
8.311706757369633
 21
47.94311630378446
 31
0.0
  0
LINE
  5
250
330
1F
100
AcDbEntity
  8
0
100
AcDbLine
 10
8.311706757369633
 20
47.94311630378446
 30
0.0
 11
8.608235932419936
 21
47.5971655995591
 31
0.0
  0
LINE
  5
251
330
1F
100
AcDbEntity
  8
0
100
AcDbLine
 10
8.632380801635225
 20
47.5971655995591
 30
0.0
 11
8.632380801635225
 21
48.23700463376433
 31
0.0
  0
LINE
  5
252
330
1F
100
AcDbEntity
  8
0
100
AcDbLine
 10
8.632380801635225
 20
48.23700463376433
 30
0.0
 11
11.19173693845615
 21
48.23700463376433
 31
0.0
  0
LINE
  5
253
330
1F
100
AcDbEntity
  8
0
100
AcDbLine
 10
11.19173693845615
 20
48.23700463376433
 30
0.0
 11
11.19173693845615
 21
42.91909718909633
 31
0.0
  0
LINE
  5
254
330
1F
100
AcDbEntity
  8
0
100
AcDbLine
 10
8.674634322761985
 20
45.32151167601785
 30
0.0
 11
8.61351762256078
 21
45.80893622330156
 31
0.0
  0
LINE
  5
255
330
1F
100
AcDbEntity
  8
0
100
AcDbLine
 10
8.61351762256078
 20
45.80893622330156
 30
0.0
 11
8.430167521957156
 21
46.18469075046453
 31
0.0
  0
LINE
  5
256
330
1F
100
AcDbEntity
  8
0
100
AcDbLine
 10
8.430167521957156
 20
46.18469075046453
 30
0.0
 11
8.1457107815145
 21
46.4246303882915
 31
0.0
  0
LINE
  5
257
330
1F
100
AcDbEntity
  8
0
100
AcDbLine
 10
8.1457107815145
 20
46.4246303882915
 30
0.0
 11
7.781274161796195
 21
46.50461026756714
 31
0.0
  0
LINE
  5
258
330
1F
100
AcDbEntity
  8
0
100
AcDbLine
 10
7.781274161796195
 20
46.50461026756714
 30
0.0
 11
7.390429091373654
 21
46.40803079070599
 31
0.0
  0
LINE
  5
259
330
1F
100
AcDbEntity
  8
0
100
AcDbLine
 10
7.390429091373654
 20
46.40803079070599
 30
0.0
 11
7.087109171856553
 21
46.11829236012248
 31
0.0
  0
LINE
  5
25A
330
1F
100
AcDbEntity
  8
0
100
AcDbLine
 10
7.087109171856553
 20
46.11829236012248
 30
0.0
 11
6.892441163808262
 21
45.66708511666172
 31
0.0
  0
LINE
  5
25B
330
1F
100
AcDbEntity
  8
0
100
AcDbLine
 10
6.892441163808262
 20
45.66708511666172
 30
0.0
 11
6.827551827792167
 21
45.08609920116876
 31
0.0
  0
LINE
  5
25C
330
1F
100
AcDbEntity
  8
0
100
AcDbLine
 10
6.827551827792167
 20
45.08609920116876
 30
0.0
 11
6.881877783526575
 21
44.55038491545447
 31
0.0
  0
LINE
  5
25D
330
1F
100
AcDbEntity
  8
0
100
AcDbLine
 10
6.881877783526575
 20
44.55038491545447
 30
0.0
 11
7.044855650729793
 21
44.13841308446856
 31
0.0
  0
LINE
  5
25E
330
1F
100
AcDbEntity
  8
0
100
AcDbLine
 10
7.044855650729793
 20
44.13841308446856
 30
0.0
 11
7.325539755357559
 21
43.87583763175226
 31
0.0
  0
LINE
  5
25F
330
1F
100
AcDbEntity
  8
0
100
AcDbLine
 10
7.325539755357559
 20
43.87583763175226
 30
0.0
 11
7.732984423365611
 21
43.78831248084683
 31
0.0
  0
LINE
  5
260
330
1F
100
AcDbEntity
  8
0
100
AcDbLine
 10
7.732984423365611
 20
43.78831248084683
 30
0.0
 11
8.126093075277076
 21
43.87810121324119
 31
0.0
  0
LINE
  5
261
330
1F
100
AcDbEntity
  8
0
100
AcDbLine
 10
8.126093075277076
 20
43.87810121324119
 30
0.0
 11
8.424131304653338
 21
44.14746741042429
 31
0.0
  0
LINE
  5
262
330
1F
100
AcDbEntity
  8
0
100
AcDbLine
 10
8.424131304653338
 20
44.14746741042429
 30
0.0
 11
8.612008568234826
 21
44.56773904020297
 31
0.0
  0
LINE
  5
263
330
1F
100
AcDbEntity
  8
0
100
AcDbLine
 10
8.612008568234826
 20
44.56773904020297
 30
0.0
 11
8.674634322761985
 21
45.11024407038405
 31
0.0
  0
LINE
  5
264
330
1F
100
AcDbEntity
  8
0
100
AcDbLine
 10
8.674634322761985
 20
45.11024407038405
 30
0.0
 11
8.674634322761985
 21
45.32151167601785
 31
0.0
  0
LINE
  5
265
330
1F
100
AcDbEntity
  8
0
100
AcDbLine
 10
16.413064906263
 20
42.05591811464964
 30
0.0
 11
16.413064906263
 21
45.58106902008224
 31
0.0
  0
LINE
  5
266
330
1F
100
AcDbEntity
  8
0
100
AcDbLine
 10
16.413064906263
 20
45.58106902008224
 30
0.0
 11
16.36892506722878
 21
45.98511831585689
 31
0.0
  0
LINE
  5
267
330
1F
100
AcDbEntity
  8
0
100
AcDbLine
 10
16.36892506722878
 20
45.98511831585689
 30
0.0
 11
16.23650555012617
 21
46.27372495569592
 31
0.0
  0
LINE
  5
268
330
1F
100
AcDbEntity
  8
0
100
AcDbLine
 10
16.23650555012617
 20
46.27372495569592
 30
0.0
 11
16.01580635495515
 21
46.44688893959934
 31
0.0
  0
LINE
  5
269
330
1F
100
AcDbEntity
  8
0
100
AcDbLine
 10
16.01580635495515
 20
46.44688893959934
 30
0.0
 11
15.70682748171571
 21
46.50461026756714
 31
0.0
  0
LINE
  5
26A
330
1F
100
AcDbEntity
  8
0
100
AcDbLine
 10
15.70682748171571
 20
46.50461026756714
 30
0.0
 11
15.4035075621986
 21
46.43896640438807
 31
0.0
  0
LINE
  5
26B
330
1F
100
AcDbEntity
  8
0
100
AcDbLine
 10
15.4035075621986
 20
46.43896640438807
 30
0.0
 11
15.18167657628311
 21
46.24203481485085
 31
0.0
  0
LINE
  5
26C
330
1F
100
AcDbEntity
  8
0
100
AcDbLine
 10
15.18167657628311
 20
46.24203481485085
 30
0.0
 11
15.0458616869471
 21
45.94248753114864
 31
0.0
  0
LINE
  5
26D
330
1F
100
AcDbEntity
  8
0
100
AcDbLine
 10
15.0458616869471
 20
45.94248753114864
 30
0.0
 11
15.00059005716843
 21
45.56899658547459
 31
0.0
  0
LINE
  5
26E
330
1F
100
AcDbEntity
  8
0
100
AcDbLine
 10
15.00059005716843
 20
45.56899658547459
 30
0.0
 11
15.00059005716843
 21
42.05591811464964
 31
0.0
  0
LINE
  5
26F
330
1F
100
AcDbEntity
  8
0
100
AcDbLine
 10
15.00059005716843
 20
42.05591811464964
 30
0.0
 11
12.42916148573985
 21
42.05591811464964
 31
0.0
  0
LINE
  5
270
330
1F
100
AcDbEntity
  8
0
100
AcDbLine
 10
12.42916148573985
 20
42.05591811464964
 30
0.0
 11
12.42916148573985
 21
51.20682354724522
 31
0.0
  0
LINE
  5
271
330
1F
100
AcDbEntity
  8
0
100
AcDbLine
 10
12.42916148573985
 20
51.20682354724522
 30
0.0
 11
15.00059005716843
 21
51.20682354724522
 31
0.0
  0
LINE
  5
272
330
1F
100
AcDbEntity
  8
0
100
AcDbLine
 10
15.00059005716843
 20
51.20682354724522
 30
0.0
 11
15.00059005716843
 21
47.39797042853294
 31
0.0
  0
LINE
  5
273
330
1F
100
AcDbEntity
  8
0
100
AcDbLine
 10
15.02473492638372
 20
47.39797042853294
 30
0.0
 11
15.39218965475394
 21
47.81975111263757
 31
0.0
  0
LINE
  5
274
330
1F
100
AcDbEntity
  8
0
100
AcDbLine
 10
15.39218965475394
 20
47.81975111263757
 30
0.0
 11
15.83056993644408
 21
48.13137083094743
 31
0.0
  0
LINE
  5
275
330
1F
100
AcDbEntity
  8
0
100
AcDbLine
 10
15.83056993644408
 20
48.13137083094743
 30
0.0
 11
16.32176711954267
 21
48.32377525750679
 31
0.0
  0
LINE
  5
276
330
1F
100
AcDbEntity
  8
0
100
AcDbLine
 10
16.32176711954267
 20
48.32377525750679
 30
0.0
 11
16.84767255213825
 21
48.38791006635991
 31
0.0
  0
LINE
  5
277
330
1F
100
AcDbEntity
  8
0
100
AcDbLine
 10
16.84767255213825
 20
48.38791006635991
 30
0.0
 11
17.31887476541792
 21
48.34773149493133
 31
0.0
  0
LINE
  5
278
330
1F
100
AcDbEntity
  8
0
100
AcDbLine
 10
17.31887476541792
 20
48.34773149493133
 30
0.0
 11
17.73046933282234
 21
48.22719578064562
 31
0.0
  0
LINE
  5
279
330
1F
100
AcDbEntity
  8
0
100
AcDbLine
 10
17.73046933282234
 20
48.22719578064562
 30
0.0
 11
18.08245625435152
 21
48.02630292350276
 31
0.0
  0
LINE
  5
27A
330
1F
100
AcDbEntity
  8
0
100
AcDbLine
 10
18.08245625435152
 20
48.02630292350276
 30
0.0
 11
18.37483553000544
 21
47.74505292350276
 31
0.0
  0
LINE
  5
27B
330
1F
100
AcDbEntity
  8
0
100
AcDbLine
 10
18.37483553000544
 20
47.74505292350276
 30
0.0
 11
18.60458905113221
 21
47.38570936213456
 31
0.0
  0
LINE
  5
27C
330
1F
100
AcDbEntity
  8
0
100
AcDbLine
 10
18.60458905113221
 20
47.38570936213456
 30
0.0
 11
18.7686987090799
 21
46.95053582088707
 31
0.0
  0
LINE
  5
27D
330
1F
100
AcDbEntity
  8
0
100
AcDbLine
 10
18.7686987090799
 20
46.95053582088707
 30
0.0
 11
18.86716450384851
 21
46.4395322997603
 31
0.0
  0
LINE
  5
27E
330
1F
100
AcDbEntity
  8
0
100
AcDbLine
 10
18.86716450384851
 20
46.4395322997603
 30
0.0
 11
18.89998643543805
 21
45.85269879875427
 31
0.0
  0
LINE
  5
27F
330
1F
100
AcDbEntity
  8
0
100
AcDbLine
 10
18.89998643543805
 20
45.85269879875427
 30
0.0
 11
18.89998643543805
 21
42.05591811464964
 31
0.0
  0
LINE
  5
280
330
1F
100
AcDbEntity
  8
0
100
AcDbLine
 10
18.89998643543805
 20
42.05591811464964
 30
0.0
 11
16.413064906263
 21
42.05591811464964
 31
0.0
  0
LINE
  5
281
330
1F
100
AcDbEntity
  8
0
100
AcDbLine
 10
24.41105283382839
 20
42.14042515690316
 30
0.0
 11
23.83761218996521
 21
41.98046539835185
 31
0.0
  0
LINE
  5
282
330
1F
100
AcDbEntity
  8
0
100
AcDbLine
 10
23.83761218996521
 20
41.98046539835185
 30
0.0
 11
22.87785363865736
 21
41.90501268205407
 31
0.0
  0
LINE
  5
283
330
1F
100
AcDbEntity
  8
0
100
AcDbLine
 10
22.87785363865736
 20
41.90501268205407
 30
0.0
 11
22.36986822618251
 21
41.94198451303998
 31
0.0
  0
LINE
  5
284
330
1F
100
AcDbEntity
  8
0
100
AcDbLine
 10
22.36986822618251
 20
41.94198451303998
 30
0.0
 11
21.92035866883845
 21
42.05290000599773
 31
0.0
  0
LINE
  5
285
330
1F
100
AcDbEntity
  8
0
100
AcDbLine
 10
21.92035866883845
 20
42.05290000599773
 30
0.0
 11
21.52932496662518
 21
42.23775916092731
 31
0.0
  0
LINE
  5
286
330
1F
100
AcDbEntity
  8
0
100
AcDbLine
 10
21.52932496662518
 20
42.23775916092731
 30
0.0
 11
21.19676711954267
 21
42.49656197782872
 31
0.0
  0
LINE
  5
287
330
1F
100
AcDbEntity
  8
0
100
AcDbLine
 10
21.19676711954267
 20
42.49656197782872
 30
0.0
 11
20.93136218996521
 21
42.82364950297962
 31
0.0
  0
LINE
  5
288
330
1F
100
AcDbEntity
  8
0
100
AcDbLine
 10
20.93136218996521
 20
42.82364950297962
 30
0.0
 11
20.74178724026702
 21
43.2133627826577
 31
0.0
  0
LINE
  5
289
330
1F
100
AcDbEntity
  8
0
100
AcDbLine
 10
20.74178724026702
 20
43.2133627826577
 30
0.0
 11
20.62804227044811
 21
43.66570181686293
 31
0.0
  0
LINE
  5
28A
330
1F
100
AcDbEntity
  8
0
100
AcDbLine
 10
20.62804227044811
 20
43.66570181686293
 30
0.0
 11
20.59012728050847
 21
44.18066660559532
 31
0.0
  0
LINE
  5
28B
330
1F
100
AcDbEntity
  8
0
100
AcDbLine
 10
20.59012728050847
 20
44.18066660559532
 30
0.0
 11
20.59012728050847
 21
46.45632052913656
 31
0.0
  0
LINE
  5
28C
330
1F
100
AcDbEntity
  8
0
100
AcDbLine
 10
20.59012728050847
 20
46.45632052913656
 30
0.0
 11
19.61829629459297
 21
46.45632052913656
 31
0.0
  0
LINE
  5
28D
330
1F
100
AcDbEntity
  8
0
100
AcDbLine
 10
19.61829629459297
 20
46.45632052913656
 30
0.0
 11
19.61829629459297
 21
48.23700463376433
 31
0.0
  0
LINE
  5
28E
330
1F
100
AcDbEntity
  8
0
100
AcDbLine
 10
19.61829629459297
 20
48.23700463376433
 30
0.0
 11
20.59012728050847
 21
48.23700463376433
 31
0.0
  0
LINE
  5
28F
330
1F
100
AcDbEntity
  8
0
100
AcDbLine
 10
20.59012728050847
 20
48.23700463376433
 30
0.0
 11
20.59012728050847
 21
49.45028431183274
 31
0.0
  0
LINE
  5
290
330
1F
100
AcDbEntity
  8
0
100
AcDbLine
 10
20.59012728050847
 20
49.45028431183274
 30
0.0
 11
23.1253385481141
 21
50.15048551907621
 31
0.0
  0
LINE
  5
291
330
1F
100
AcDbEntity
  8
0
100
AcDbLine
 10
23.1253385481141
 20
50.15048551907621
 30
0.0
 11
23.1253385481141
 21
48.23700463376433
 31
0.0
  0
LINE
  5
292
330
1F
100
AcDbEntity
  8
0
100
AcDbLine
 10
23.1253385481141
 20
48.23700463376433
 30
0.0
 11
24.41105283382839
 21
48.23700463376433
 31
0.0
  0
LINE
  5
293
330
1F
100
AcDbEntity
  8
0
100
AcDbLine
 10
24.41105283382839
 20
48.23700463376433
 30
0.0
 11
24.41105283382839
 21
46.45632052913656
 31
0.0
  0
LINE
  5
294
330
1F
100
AcDbEntity
  8
0
100
AcDbLine
 10
24.41105283382839
 20
46.45632052913656
 30
0.0
 11
23.1253385481141
 21
46.45632052913656
 31
0.0
  0
LINE
  5
295
330
1F
100
AcDbEntity
  8
0
100
AcDbLine
 10
23.1253385481141
 20
46.45632052913656
 30
0.0
 11
23.1253385481141
 21
44.60320181686292
 31
0.0
  0
LINE
  5
296
330
1F
100
AcDbEntity
  8
0
100
AcDbLine
 10
23.1253385481141
 20
44.60320181686292
 30
0.0
 11
23.16570575133342
 21
44.24668773235588
 31
0.0
  0
LINE
  5
297
330
1F
100
AcDbEntity
  8
0
100
AcDbLine
 10
23.16570575133342
 20
44.24668773235588
 30
0.0
 11
23.28680736099136
 21
43.99203481485085
 31
0.0
  0
LINE
  5
298
330
1F
100
AcDbEntity
  8
0
100
AcDbLine
 10
23.28680736099136
 20
43.99203481485085
 30
0.0
 11
23.48864337708794
 21
43.83924306434783
 31
0.0
  0
LINE
  5
299
330
1F
100
AcDbEntity
  8
0
100
AcDbLine
 10
23.48864337708794
 20
43.83924306434783
 30
0.0
 11
23.77121379962315
 21
43.78831248084683
 31
0.0
  0
LINE
  5
29A
330
1F
100
AcDbEntity
  8
0
100
AcDbLine
 10
23.77121379962315
 20
43.78831248084683
 30
0.0
 11
24.41105283382839
 21
43.92110926153093
 31
0.0
  0
LINE
  5
29B
330
1F
100
AcDbEntity
  8
0
100
AcDbLine
 10
24.41105283382839
 20
43.92110926153093
 30
0.0
 11
24.41105283382839
 21
42.14042515690316
 31
0.0
  0
LINE
  5
29C
330
1F
100
AcDbEntity
  8
0
100
AcDbLine
 10
27.73672756618921
 20
26.76066962348084
 30
0.0
 11
52.47345513237846
 21
26.76066962348084
 31
0.0
  0
LINE
  5
29D
330
1F
100
AcDbEntity
  8
0
100
AcDbLine
 10
2.999999999999949
 20
28.51066962348085
 30
0.0
 11
46.47345513237847
 21
28.51066962348085
 31
0.0
  0
LINE
  5
29E
330
1F
100
AcDbEntity
  8
0
100
AcDbLine
 10
-21.73560376866552
 20
26.76066962348084
 30
0.0
 11
21.73672756618922
 21
26.76066962348084
 31
0.0
  0
LINE
  5
29F
330
1F
100
AcDbEntity
  8
0
100
AcDbLine
 10
-46.47345513237856
 20
28.51066962348085
 30
0.0
 11
-3.00000000000004
 21
28.51066962348085
 31
0.0
  0
LINE
  5
2A0
330
1F
100
AcDbEntity
  8
0
100
AcDbLine
 10
-52.44875398262589
 20
26.76066962348084
 30
0.0
 11
-27.73560471505853
 21
26.76066962348084
 31
0.0
  0
LINE
  5
2A1
330
1F
100
AcDbEntity
  8
0
100
AcDbLine
 10
52.47345513237846
 20
26.76066962348084
 30
0.0
 11
52.47345513237846
 21
23.26066962348082
 31
0.0
  0
LINE
  5
2A2
330
1F
100
AcDbEntity
  8
0
100
AcDbLine
 10
-52.44875398262589
 20
26.76066962348084
 30
0.0
 11
-52.44875398262589
 21
23.26066962348082
 31
0.0
  0
LINE
  5
2A3
330
1F
100
AcDbEntity
  8
0
100
AcDbLine
 10
2.999999999999949
 20
25.01066962348083
 30
0.0
 11
46.47345513237847
 21
25.01066962348083
 31
0.0
  0
LINE
  5
2A4
330
1F
100
AcDbEntity
  8
0
100
AcDbLine
 10
-21.73560376866552
 20
23.26066962348082
 30
0.0
 11
21.73672756618922
 21
23.26066962348082
 31
0.0
  0
LINE
  5
2A5
330
1F
100
AcDbEntity
  8
0
100
AcDbLine
 10
27.73672756618921
 20
23.26066962348082
 30
0.0
 11
52.47345513237846
 21
23.26066962348082
 31
0.0
  0
LINE
  5
2A6
330
1F
100
AcDbEntity
  8
0
100
AcDbLine
 10
-52.44875398262589
 20
23.26066962348082
 30
0.0
 11
-27.73560471505853
 21
23.26066962348082
 31
0.0
  0
LINE
  5
2A7
330
1F
100
AcDbEntity
  8
0
100
AcDbLine
 10
-46.47345513237856
 20
25.01066962348083
 30
0.0
 11
-3.00000000000004
 21
25.01066962348083
 31
0.0
  0
LINE
  5
2A8
330
1F
100
AcDbEntity
  8
0
100
AcDbLine
 10
52.47345513237846
 20
23.26066962348082
 30
0.0
 11
52.47345513237846
 21
19.7606696234808
 31
0.0
  0
LINE
  5
2A9
330
1F
100
AcDbEntity
  8
0
100
AcDbLine
 10
-52.44875398262589
 20
23.26066962348082
 30
0.0
 11
-52.44875398262589
 21
19.7606696234808
 31
0.0
  0
LINE
  5
2AA
330
1F
100
AcDbEntity
  8
0
100
AcDbLine
 10
2.999999999999949
 20
21.51066962348081
 30
0.0
 11
46.47345513237847
 21
21.51066962348081
 31
0.0
  0
LINE
  5
2AB
330
1F
100
AcDbEntity
  8
0
100
AcDbLine
 10
27.73672756618921
 20
19.7606696234808
 30
0.0
 11
52.47345513237846
 21
19.7606696234808
 31
0.0
  0
LINE
  5
2AC
330
1F
100
AcDbEntity
  8
0
100
AcDbLine
 10
-21.73560376866552
 20
19.7606696234808
 30
0.0
 11
21.73672756618922
 21
19.7606696234808
 31
0.0
  0
LINE
  5
2AD
330
1F
100
AcDbEntity
  8
0
100
AcDbLine
 10
-52.44875398262589
 20
19.7606696234808
 30
0.0
 11
-27.73560471505853
 21
19.7606696234808
 31
0.0
  0
LINE
  5
2AE
330
1F
100
AcDbEntity
  8
0
100
AcDbLine
 10
-46.47345513237856
 20
21.51066962348081
 30
0.0
 11
-3.00000000000004
 21
21.51066962348081
 31
0.0
  0
LINE
  5
2AF
330
1F
100
AcDbEntity
  8
0
100
AcDbLine
 10
52.47345513237846
 20
19.7606696234808
 30
0.0
 11
52.47345513237846
 21
16.26066962348079
 31
0.0
  0
LINE
  5
2B0
330
1F
100
AcDbEntity
  8
0
100
AcDbLine
 10
-52.44875398262589
 20
19.7606696234808
 30
0.0
 11
-52.44875398262589
 21
16.26066962348079
 31
0.0
  0
LINE
  5
2B1
330
1F
100
AcDbEntity
  8
0
100
AcDbLine
 10
2.999999999999949
 20
18.0106696234808
 30
0.0
 11
46.47345513237847
 21
18.0106696234808
 31
0.0
  0
LINE
  5
2B2
330
1F
100
AcDbEntity
  8
0
100
AcDbLine
 10
27.73672756618921
 20
16.26066962348079
 30
0.0
 11
52.47345513237846
 21
16.26066962348079
 31
0.0
  0
LINE
  5
2B3
330
1F
100
AcDbEntity
  8
0
100
AcDbLine
 10
-52.44875398262589
 20
16.26066962348079
 30
0.0
 11
-27.73560471505853
 21
16.26066962348079
 31
0.0
  0
LINE
  5
2B4
330
1F
100
AcDbEntity
  8
0
100
AcDbLine
 10
-21.73560376866552
 20
16.26066962348079
 30
0.0
 11
21.73672756618922
 21
16.26066962348079
 31
0.0
  0
LINE
  5
2B5
330
1F
100
AcDbEntity
  8
0
100
AcDbLine
 10
-46.47345513237856
 20
18.0106696234808
 30
0.0
 11
-3.00000000000004
 21
18.0106696234808
 31
0.0
  0
LINE
  5
2B6
330
1F
100
AcDbEntity
  8
0
100
AcDbLine
 10
52.47345513237846
 20
16.26066962348079
 30
0.0
 11
52.47345513237846
 21
12.76066962348077
 31
0.0
  0
LINE
  5
2B7
330
1F
100
AcDbEntity
  8
0
100
AcDbLine
 10
-52.44875398262589
 20
16.26066962348079
 30
0.0
 11
-52.44875398262589
 21
12.76066962348077
 31
0.0
  0
LINE
  5
2B8
330
1F
100
AcDbEntity
  8
0
100
AcDbLine
 10
2.999999999999949
 20
14.51066962348078
 30
0.0
 11
46.47345513237847
 21
14.51066962348078
 31
0.0
  0
LINE
  5
2B9
330
1F
100
AcDbEntity
  8
0
100
AcDbLine
 10
27.73672756618921
 20
12.76066962348077
 30
0.0
 11
52.47345513237846
 21
12.76066962348077
 31
0.0
  0
LINE
  5
2BA
330
1F
100
AcDbEntity
  8
0
100
AcDbLine
 10
-21.73560376866552
 20
12.76066962348077
 30
0.0
 11
21.73672756618922
 21
12.76066962348077
 31
0.0
  0
LINE
  5
2BB
330
1F
100
AcDbEntity
  8
0
100
AcDbLine
 10
-52.44875398262589
 20
12.76066962348077
 30
0.0
 11
-27.73560471505853
 21
12.76066962348077
 31
0.0
  0
LINE
  5
2BC
330
1F
100
AcDbEntity
  8
0
100
AcDbLine
 10
-46.47345513237856
 20
14.51066962348078
 30
0.0
 11
-3.00000000000004
 21
14.51066962348078
 31
0.0
  0
LINE
  5
2BD
330
1F
100
AcDbEntity
  8
0
100
AcDbLine
 10
52.47345513237846
 20
12.76066962348077
 30
0.0
 11
52.47345513237846
 21
9.260669623480757
 31
0.0
  0
LINE
  5
2BE
330
1F
100
AcDbEntity
  8
0
100
AcDbLine
 10
-52.44875398262589
 20
12.76066962348077
 30
0.0
 11
-52.44875398262589
 21
9.260669623480757
 31
0.0
  0
LINE
  5
2BF
330
1F
100
AcDbEntity
  8
0
100
AcDbLine
 10
2.999999999999949
 20
11.01066962348077
 30
0.0
 11
46.47345513237847
 21
11.01066962348077
 31
0.0
  0
LINE
  5
2C0
330
1F
100
AcDbEntity
  8
0
100
AcDbLine
 10
27.73672756618921
 20
9.260669623480757
 30
0.0
 11
52.47345513237846
 21
9.260669623480757
 31
0.0
  0
LINE
  5
2C1
330
1F
100
AcDbEntity
  8
0
100
AcDbLine
 10
-21.73560376866552
 20
9.260669623480757
 30
0.0
 11
21.73672756618922
 21
9.260669623480757
 31
0.0
  0
LINE
  5
2C2
330
1F
100
AcDbEntity
  8
0
100
AcDbLine
 10
-52.44875398262589
 20
9.260669623480757
 30
0.0
 11
-27.73560471505853
 21
9.260669623480757
 31
0.0
  0
LINE
  5
2C3
330
1F
100
AcDbEntity
  8
0
100
AcDbLine
 10
-46.47345513237856
 20
11.01066962348077
 30
0.0
 11
-3.00000000000004
 21
11.01066962348077
 31
0.0
  0
LINE
  5
2C4
330
1F
100
AcDbEntity
  8
0
100
AcDbLine
 10
52.47345513237846
 20
9.260669623480757
 30
0.0
 11
52.47345513237846
 21
5.760669623480741
 31
0.0
  0
LINE
  5
2C5
330
1F
100
AcDbEntity
  8
0
100
AcDbLine
 10
-52.44875398262589
 20
9.260669623480757
 30
0.0
 11
-52.44875398262589
 21
5.760669623480741
 31
0.0
  0
LINE
  5
2C6
330
1F
100
AcDbEntity
  8
0
100
AcDbLine
 10
-52.44875398262589
 20
5.760669623480741
 30
0.0
 11
-27.73560471505853
 21
5.760669623480741
 31
0.0
  0
LINE
  5
2C7
330
1F
100
AcDbEntity
  8
0
100
AcDbLine
 10
-21.73560376866552
 20
5.760669623480741
 30
0.0
 11
21.73672756618922
 21
5.760669623480741
 31
0.0
  0
LINE
  5
2C8
330
1F
100
AcDbEntity
  8
0
100
AcDbLine
 10
27.73672756618921
 20
5.760669623480741
 30
0.0
 11
52.47345513237846
 21
5.760669623480741
 31
0.0
  0
LINE
  5
2C9
330
1F
100
AcDbEntity
  8
0
100
AcDbLine
 10
-46.47345513237856
 20
7.510669623480749
 30
0.0
 11
-3.00000000000004
 21
7.510669623480749
 31
0.0
  0
LINE
  5
2CA
330
1F
100
AcDbEntity
  8
0
100
AcDbLine
 10
2.999999999999949
 20
7.510669623480749
 30
0.0
 11
46.47345513237847
 21
7.510669623480749
 31
0.0
  0
LINE
  5
2CB
330
1F
100
AcDbEntity
  8
0
100
AcDbLine
 10
52.47345513237846
 20
5.760669623480741
 30
0.0
 11
52.47345513237846
 21
2.260669623480725
 31
0.0
  0
LINE
  5
2CC
330
1F
100
AcDbEntity
  8
0
100
AcDbLine
 10
-52.44875398262589
 20
5.760669623480741
 30
0.0
 11
-52.44875398262589
 21
2.260669623480725
 31
0.0
  0
LINE
  5
2CD
330
1F
100
AcDbEntity
  8
0
100
AcDbLine
 10
-52.44875398262589
 20
2.260669623480725
 30
0.0
 11
-27.73560471505853
 21
2.260669623480725
 31
0.0
  0
LINE
  5
2CE
330
1F
100
AcDbEntity
  8
0
100
AcDbLine
 10
27.73672756618921
 20
2.260669623480725
 30
0.0
 11
52.47345513237846
 21
2.260669623480725
 31
0.0
  0
LINE
  5
2CF
330
1F
100
AcDbEntity
  8
0
100
AcDbLine
 10
-21.73560376866552
 20
2.260669623480725
 30
0.0
 11
21.73672756618922
 21
2.260669623480725
 31
0.0
  0
LINE
  5
2D0
330
1F
100
AcDbEntity
  8
0
100
AcDbLine
 10
2.999999999999949
 20
4.010669623480733
 30
0.0
 11
46.47345513237847
 21
4.010669623480733
 31
0.0
  0
LINE
  5
2D1
330
1F
100
AcDbEntity
  8
0
100
AcDbLine
 10
-46.47345513237856
 20
4.010669623480733
 30
0.0
 11
-3.00000000000004
 21
4.010669623480733
 31
0.0
  0
LINE
  5
2D2
330
1F
100
AcDbEntity
  8
0
100
AcDbLine
 10
52.47345513237846
 20
2.260669623480725
 30
0.0
 11
52.47345513237846
 21
-1.239330376519291
 31
0.0
  0
LINE
  5
2D3
330
1F
100
AcDbEntity
  8
0
100
AcDbLine
 10
-52.44875398262589
 20
2.260669623480725
 30
0.0
 11
-52.44875398262589
 21
-1.239330376519291
 31
0.0
  0
LINE
  5
2D4
330
1F
100
AcDbEntity
  8
0
100
AcDbLine
 10
27.73672756618921
 20
-1.239330376519291
 30
0.0
 11
52.47345513237846
 21
-1.239330376519291
 31
0.0
  0
LINE
  5
2D5
330
1F
100
AcDbEntity
  8
0
100
AcDbLine
 10
2.999999999999949
 20
0.5106696234807167
 30
0.0
 11
46.47345513237847
 21
0.5106696234807167
 31
0.0
  0
LINE
  5
2D6
330
1F
100
AcDbEntity
  8
0
100
AcDbLine
 10
-21.73560376866552
 20
-1.239330376519291
 30
0.0
 11
21.73672756618922
 21
-1.239330376519291
 31
0.0
  0
LINE
  5
2D7
330
1F
100
AcDbEntity
  8
0
100
AcDbLine
 10
-52.44875398262589
 20
-25.7393303765194
 30
0.0
 11
-27.73560471505853
 21
-25.7393303765194
 31
0.0
  0
LINE
  5
2D8
330
1F
100
AcDbEntity
  8
0
100
AcDbLine
 10
27.73672756618921
 20
-25.7393303765194
 30
0.0
 11
52.47345513237846
 21
-25.7393303765194
 31
0.0
  0
LINE
  5
2D9
330
1F
100
AcDbEntity
  8
0
100
AcDbLine
 10
-52.44875398262589
 20
-22.23933037651939
 30
0.0
 11
-27.73560471505853
 21
-22.23933037651939
 31
0.0
  0
LINE
  5
2DA
330
1F
100
AcDbEntity
  8
0
100
AcDbLine
 10
2.999999999999949
 20
-16.98933037651937
 30
0.0
 11
46.47345513237847
 21
-16.98933037651937
 31
0.0
  0
LINE
  5
2DB
330
1F
100
AcDbEntity
  8
0
100
AcDbLine
 10
2.999999999999949
 20
-9.989330376519332
 30
0.0
 11
46.47345513237847
 21
-9.989330376519332
 31
0.0
  0
LINE
  5
2DC
330
1F
100
AcDbEntity
  8
0
100
AcDbLine
 10
2.999999999999949
 20
-6.489330376519316
 30
0.0
 11
46.47345513237847
 21
-6.489330376519316
 31
0.0
  0
LINE
  5
2DD
330
1F
100
AcDbEntity
  8
0
100
AcDbLine
 10
27.73672756618921
 20
-11.73933037651934
 30
0.0
 11
52.47345513237846
 21
-11.73933037651934
 31
0.0
  0
LINE
  5
2DE
330
1F
100
AcDbEntity
  8
0
100
AcDbLine
 10
-21.73560376866552
 20
-8.239330376519323
 30
0.0
 11
21.73672756618922
 21
-8.239330376519323
 31
0.0
  0
LINE
  5
2DF
330
1F
100
AcDbEntity
  8
0
100
AcDbLine
 10
27.73672756618921
 20
-15.23933037651936
 30
0.0
 11
52.47345513237846
 21
-15.23933037651936
 31
0.0
  0
LINE
  5
2E0
330
1F
100
AcDbEntity
  8
0
100
AcDbLine
 10
-52.44875398262589
 20
-1.239330376519291
 30
0.0
 11
-27.73560471505853
 21
-1.239330376519291
 31
0.0
  0
LINE
  5
2E1
330
1F
100
AcDbEntity
  8
0
100
AcDbLine
 10
-46.47345513237856
 20
-2.9893303765193
 30
0.0
 11
-3.00000000000004
 21
-2.9893303765193
 31
0.0
  0
LINE
  5
2E2
330
1F
100
AcDbEntity
  8
0
100
AcDbLine
 10
-21.73560376866552
 20
-11.73933037651934
 30
0.0
 11
21.73672756618922
 21
-11.73933037651934
 31
0.0
  0
LINE
  5
2E3
330
1F
100
AcDbEntity
  8
0
100
AcDbLine
 10
-46.47345513237856
 20
-9.989330376519332
 30
0.0
 11
-3.00000000000004
 21
-9.989330376519332
 31
0.0
  0
LINE
  5
2E4
330
1F
100
AcDbEntity
  8
0
100
AcDbLine
 10
-21.73560376866552
 20
-15.23933037651936
 30
0.0
 11
21.73672756618922
 21
-15.23933037651936
 31
0.0
  0
LINE
  5
2E5
330
1F
100
AcDbEntity
  8
0
100
AcDbLine
 10
27.73672756618921
 20
-18.73933037651937
 30
0.0
 11
52.47345513237846
 21
-18.73933037651937
 31
0.0
  0
LINE
  5
2E6
330
1F
100
AcDbEntity
  8
0
100
AcDbLine
 10
2.999999999999949
 20
-2.9893303765193
 30
0.0
 11
46.47345513237847
 21
-2.9893303765193
 31
0.0
  0
LINE
  5
2E7
330
1F
100
AcDbEntity
  8
0
100
AcDbLine
 10
27.73672756618921
 20
-8.239330376519323
 30
0.0
 11
52.47345513237846
 21
-8.239330376519323
 31
0.0
  0
LINE
  5
2E8
330
1F
100
AcDbEntity
  8
0
100
AcDbLine
 10
27.73672756618921
 20
-4.739330376519308
 30
0.0
 11
52.47345513237846
 21
-4.739330376519308
 31
0.0
  0
LINE
  5
2E9
330
1F
100
AcDbEntity
  8
0
100
AcDbLine
 10
-52.44875398262589
 20
-11.73933037651934
 30
0.0
 11
-27.73560471505853
 21
-11.73933037651934
 31
0.0
  0
LINE
  5
2EA
330
1F
100
AcDbEntity
  8
0
100
AcDbLine
 10
-21.73560376866552
 20
-18.73933037651937
 30
0.0
 11
21.73672756618922
 21
-18.73933037651937
 31
0.0
  0
LINE
  5
2EB
330
1F
100
AcDbEntity
  8
0
100
AcDbLine
 10
-52.44875398262589
 20
-8.239330376519323
 30
0.0
 11
-27.73560471505853
 21
-8.239330376519323
 31
0.0
  0
LINE
  5
2EC
330
1F
100
AcDbEntity
  8
0
100
AcDbLine
 10
-46.47345513237856
 20
-6.489330376519316
 30
0.0
 11
-3.00000000000004
 21
-6.489330376519316
 31
0.0
  0
LINE
  5
2ED
330
1F
100
AcDbEntity
  8
0
100
AcDbLine
 10
-52.44875398262589
 20
-4.739330376519308
 30
0.0
 11
-27.73560471505853
 21
-4.739330376519308
 31
0.0
  0
LINE
  5
2EE
330
1F
100
AcDbEntity
  8
0
100
AcDbLine
 10
-52.44875398262589
 20
-15.23933037651936
 30
0.0
 11
-27.73560471505853
 21
-15.23933037651936
 31
0.0
  0
LINE
  5
2EF
330
1F
100
AcDbEntity
  8
0
100
AcDbLine
 10
-46.47345513237856
 20
-13.48933037651935
 30
0.0
 11
-3.00000000000004
 21
-13.48933037651935
 31
0.0
  0
LINE
  5
2F0
330
1F
100
AcDbEntity
  8
0
100
AcDbLine
 10
2.999999999999949
 20
-13.48933037651935
 30
0.0
 11
46.47345513237847
 21
-13.48933037651935
 31
0.0
  0
LINE
  5
2F1
330
1F
100
AcDbEntity
  8
0
100
AcDbLine
 10
-21.73560376866552
 20
-4.739330376519308
 30
0.0
 11
21.73672756618922
 21
-4.739330376519308
 31
0.0
  0
LINE
  5
2F2
330
1F
100
AcDbEntity
  8
0
100
AcDbLine
 10
-46.47345513237856
 20
0.5106696234807167
 30
0.0
 11
-3.00000000000004
 21
0.5106696234807167
 31
0.0
  0
LINE
  5
2F3
330
1F
100
AcDbEntity
  8
0
100
AcDbLine
 10
2.999999999999949
 20
-23.9893303765194
 30
0.0
 11
46.47345513237847
 21
-23.9893303765194
 31
0.0
  0
LINE
  5
2F4
330
1F
100
AcDbEntity
  8
0
100
AcDbLine
 10
-21.73560376866552
 20
-22.23933037651939
 30
0.0
 11
21.73672756618922
 21
-22.23933037651939
 31
0.0
  0
LINE
  5
2F5
330
1F
100
AcDbEntity
  8
0
100
AcDbLine
 10
-21.73560376866552
 20
-25.7393303765194
 30
0.0
 11
21.73672756618922
 21
-25.7393303765194
 31
0.0
  0
LINE
  5
2F6
330
1F
100
AcDbEntity
  8
0
100
AcDbLine
 10
-46.47345513237856
 20
-23.9893303765194
 30
0.0
 11
-3.00000000000004
 21
-23.9893303765194
 31
0.0
  0
LINE
  5
2F7
330
1F
100
AcDbEntity
  8
0
100
AcDbLine
 10
2.999999999999949
 20
-20.48933037651938
 30
0.0
 11
46.47345513237847
 21
-20.48933037651938
 31
0.0
  0
LINE
  5
2F8
330
1F
100
AcDbEntity
  8
0
100
AcDbLine
 10
27.73672756618921
 20
-22.23933037651939
 30
0.0
 11
52.47345513237846
 21
-22.23933037651939
 31
0.0
  0
LINE
  5
2F9
330
1F
100
AcDbEntity
  8
0
100
AcDbLine
 10
-46.47345513237856
 20
-16.98933037651937
 30
0.0
 11
-3.00000000000004
 21
-16.98933037651937
 31
0.0
  0
LINE
  5
2FA
330
1F
100
AcDbEntity
  8
0
100
AcDbLine
 10
-46.47345513237856
 20
-20.48933037651938
 30
0.0
 11
-3.00000000000004
 21
-20.48933037651938
 31
0.0
  0
LINE
  5
2FB
330
1F
100
AcDbEntity
  8
0
100
AcDbLine
 10
-52.44875398262589
 20
-18.73933037651937
 30
0.0
 11
-27.73560471505853
 21
-18.73933037651937
 31
0.0
  0
LINE
  5
2FC
330
1F
100
AcDbEntity
  8
0
100
AcDbLine
 10
52.47345513237846
 20
-1.239330376519291
 30
0.0
 11
52.47345513237846
 21
-4.739330376519308
 31
0.0
  0
LINE
  5
2FD
330
1F
100
AcDbEntity
  8
0
100
AcDbLine
 10
-52.44875398262589
 20
-25.7393303765194
 30
0.0
 11
-52.44875398262589
 21
-29.23933037651942
 31
0.0
  0
LINE
  5
2FE
330
1F
100
AcDbEntity
  8
0
100
AcDbLine
 10
-52.44875398262589
 20
-22.23933037651939
 30
0.0
 11
-52.44875398262589
 21
-25.7393303765194
 31
0.0
  0
LINE
  5
2FF
330
1F
100
AcDbEntity
  8
0
100
AcDbLine
 10
-52.44875398262589
 20
-11.73933037651934
 30
0.0
 11
-52.44875398262589
 21
-15.23933037651936
 31
0.0
  0
LINE
  5
300
330
1F
100
AcDbEntity
  8
0
100
AcDbLine
 10
-52.44875398262589
 20
-8.239330376519323
 30
0.0
 11
-52.44875398262589
 21
-11.73933037651934
 31
0.0
  0
LINE
  5
301
330
1F
100
AcDbEntity
  8
0
100
AcDbLine
 10
-52.44875398262589
 20
-4.739330376519308
 30
0.0
 11
-52.44875398262589
 21
-8.239330376519323
 31
0.0
  0
LINE
  5
302
330
1F
100
AcDbEntity
  8
0
100
AcDbLine
 10
-52.44875398262589
 20
-1.239330376519291
 30
0.0
 11
-52.44875398262589
 21
-4.739330376519308
 31
0.0
  0
LINE
  5
303
330
1F
100
AcDbEntity
  8
0
100
AcDbLine
 10
52.47345513237846
 20
-25.7393303765194
 30
0.0
 11
52.47345513237846
 21
-29.23933037651942
 31
0.0
  0
LINE
  5
304
330
1F
100
AcDbEntity
  8
0
100
AcDbLine
 10
52.47345513237846
 20
-11.73933037651934
 30
0.0
 11
52.47345513237846
 21
-15.23933037651936
 31
0.0
  0
LINE
  5
305
330
1F
100
AcDbEntity
  8
0
100
AcDbLine
 10
52.47345513237846
 20
-8.239330376519323
 30
0.0
 11
52.47345513237846
 21
-11.73933037651934
 31
0.0
  0
LINE
  5
306
330
1F
100
AcDbEntity
  8
0
100
AcDbLine
 10
52.47345513237846
 20
-4.739330376519308
 30
0.0
 11
52.47345513237846
 21
-8.239330376519323
 31
0.0
  0
LINE
  5
307
330
1F
100
AcDbEntity
  8
0
100
AcDbLine
 10
-52.44875398262589
 20
-15.23933037651936
 30
0.0
 11
-52.44875398262589
 21
-18.73933037651937
 31
0.0
  0
LINE
  5
308
330
1F
100
AcDbEntity
  8
0
100
AcDbLine
 10
52.47345513237846
 20
-15.23933037651936
 30
0.0
 11
52.47345513237846
 21
-18.73933037651937
 31
0.0
  0
LINE
  5
309
330
1F
100
AcDbEntity
  8
0
100
AcDbLine
 10
-52.44875398262589
 20
-18.73933037651937
 30
0.0
 11
-52.44875398262589
 21
-22.23933037651939
 31
0.0
  0
LINE
  5
30A
330
1F
100
AcDbEntity
  8
0
100
AcDbLine
 10
52.47345513237846
 20
-18.73933037651937
 30
0.0
 11
52.47345513237846
 21
-22.23933037651939
 31
0.0
  0
LINE
  5
30B
330
1F
100
AcDbEntity
  8
0
100
AcDbLine
 10
52.47345513237846
 20
-22.23933037651939
 30
0.0
 11
52.47345513237846
 21
-25.7393303765194
 31
0.0
  0
LINE
  5
30C
330
1F
100
AcDbEntity
  8
0
100
AcDbLine
 10
2.999999999999949
 20
-27.48933037651941
 30
0.0
 11
46.47345513237847
 21
-27.48933037651941
 31
0.0
  0
LINE
  5
30D
330
1F
100
AcDbEntity
  8
0
100
AcDbLine
 10
27.73672756618921
 20
-29.23933037651942
 30
0.0
 11
52.47345513237846
 21
-29.23933037651942
 31
0.0
  0
LINE
  5
30E
330
1F
100
AcDbEntity
  8
0
100
AcDbLine
 10
-52.44875398262589
 20
-32.73933037651943
 30
0.0
 11
-27.73560471505853
 21
-32.73933037651943
 31
0.0
  0
LINE
  5
30F
330
1F
100
AcDbEntity
  8
0
100
AcDbLine
 10
-46.47345513237856
 20
-41.48933037651948
 30
0.0
 11
-3.00000000000004
 21
-41.48933037651948
 31
0.0
  0
LINE
  5
310
330
1F
100
AcDbEntity
  8
0
100
AcDbLine
 10
-21.73560376866552
 20
-29.23933037651942
 30
0.0
 11
21.73672756618922
 21
-29.23933037651942
 31
0.0
  0
LINE
  5
311
330
1F
100
AcDbEntity
  8
0
100
AcDbLine
 10
-46.47345513237856
 20
-37.98933037651946
 30
0.0
 11
-3.00000000000004
 21
-37.98933037651946
 31
0.0
  0
LINE
  5
312
330
1F
100
AcDbEntity
  8
0
100
AcDbLine
 10
-52.44875398262589
 20
-43.23933037651948
 30
0.0
 11
-27.73560471505853
 21
-43.23933037651948
 31
0.0
  0
LINE
  5
313
330
1F
100
AcDbEntity
  8
0
100
AcDbLine
 10
27.73672756618921
 20
-32.73933037651943
 30
0.0
 11
52.47345513237846
 21
-32.73933037651943
 31
0.0
  0
LINE
  5
314
330
1F
100
AcDbEntity
  8
0
100
AcDbLine
 10
-52.44875398262589
 20
-50.23933037651952
 30
0.0
 11
-27.73560471505853
 21
-50.23933037651952
 31
0.0
  0
LINE
  5
315
330
1F
100
AcDbEntity
  8
0
100
AcDbLine
 10
-21.73560376866552
 20
-36.23933037651945
 30
0.0
 11
21.73672756618922
 21
-36.23933037651945
 31
0.0
  0
LINE
  5
316
330
1F
100
AcDbEntity
  8
0
100
AcDbLine
 10
-52.44875398262589
 20
-53.73933037651953
 30
0.0
 11
-27.73560471505853
 21
-53.73933037651953
 31
0.0
  0
LINE
  5
317
330
1F
100
AcDbEntity
  8
0
100
AcDbLine
 10
2.999999999999949
 20
-37.98933037651946
 30
0.0
 11
46.47345513237847
 21
-37.98933037651946
 31
0.0
  0
LINE
  5
318
330
1F
100
AcDbEntity
  8
0
100
AcDbLine
 10
27.73672756618921
 20
-43.23933037651948
 30
0.0
 11
52.47345513237846
 21
-43.23933037651948
 31
0.0
  0
LINE
  5
319
330
1F
100
AcDbEntity
  8
0
100
AcDbLine
 10
-21.73560376866552
 20
-43.23933037651948
 30
0.0
 11
21.73672756618922
 21
-43.23933037651948
 31
0.0
  0
LINE
  5
31A
330
1F
100
AcDbEntity
  8
0
100
AcDbLine
 10
27.73672756618921
 20
-46.7393303765195
 30
0.0
 11
52.47345513237846
 21
-46.7393303765195
 31
0.0
  0
LINE
  5
31B
330
1F
100
AcDbEntity
  8
0
100
AcDbLine
 10
2.999999999999949
 20
-30.98933037651943
 30
0.0
 11
46.47345513237847
 21
-30.98933037651943
 31
0.0
  0
LINE
  5
31C
330
1F
100
AcDbEntity
  8
0
100
AcDbLine
 10
2.999999999999949
 20
-34.48933037651945
 30
0.0
 11
46.47345513237847
 21
-34.48933037651945
 31
0.0
  0
LINE
  5
31D
330
1F
100
AcDbEntity
  8
0
100
AcDbLine
 10
27.73672756618921
 20
-53.73933037651953
 30
0.0
 11
52.47345513237846
 21
-53.73933037651953
 31
0.0
  0
LINE
  5
31E
330
1F
100
AcDbEntity
  8
0
100
AcDbLine
 10
2.999999999999949
 20
-44.98933037651949
 30
0.0
 11
46.47345513237847
 21
-44.98933037651949
 31
0.0
  0
LINE
  5
31F
330
1F
100
AcDbEntity
  8
0
100
AcDbLine
 10
-21.73560376866552
 20
-46.7393303765195
 30
0.0
 11
21.73672756618922
 21
-46.7393303765195
 31
0.0
  0
LINE
  5
320
330
1F
100
AcDbEntity
  8
0
100
AcDbLine
 10
-46.47345513237856
 20
-34.48933037651945
 30
0.0
 11
-3.00000000000004
 21
-34.48933037651945
 31
0.0
  0
LINE
  5
321
330
1F
100
AcDbEntity
  8
0
100
AcDbLine
 10
-52.44875398262589
 20
-29.23933037651942
 30
0.0
 11
-27.73560471505853
 21
-29.23933037651942
 31
0.0
  0
LINE
  5
322
330
1F
100
AcDbEntity
  8
0
100
AcDbLine
 10
-46.47345513237856
 20
-30.98933037651943
 30
0.0
 11
-3.00000000000004
 21
-30.98933037651943
 31
0.0
  0
LINE
  5
323
330
1F
100
AcDbEntity
  8
0
100
AcDbLine
 10
-52.44875398262589
 20
-39.73933037651947
 30
0.0
 11
-27.73560471505853
 21
-39.73933037651947
 31
0.0
  0
LINE
  5
324
330
1F
100
AcDbEntity
  8
0
100
AcDbLine
 10
-52.44875398262589
 20
-36.23933037651945
 30
0.0
 11
-27.73560471505853
 21
-36.23933037651945
 31
0.0
  0
LINE
  5
325
330
1F
100
AcDbEntity
  8
0
100
AcDbLine
 10
27.73672756618921
 20
-39.73933037651947
 30
0.0
 11
52.47345513237846
 21
-39.73933037651947
 31
0.0
  0
LINE
  5
326
330
1F
100
AcDbEntity
  8
0
100
AcDbLine
 10
-21.73560376866552
 20
-39.73933037651947
 30
0.0
 11
21.73672756618922
 21
-39.73933037651947
 31
0.0
  0
LINE
  5
327
330
1F
100
AcDbEntity
  8
0
100
AcDbLine
 10
27.73672756618921
 20
-36.23933037651945
 30
0.0
 11
52.47345513237846
 21
-36.23933037651945
 31
0.0
  0
LINE
  5
328
330
1F
100
AcDbEntity
  8
0
100
AcDbLine
 10
2.999999999999949
 20
-41.48933037651948
 30
0.0
 11
46.47345513237847
 21
-41.48933037651948
 31
0.0
  0
LINE
  5
329
330
1F
100
AcDbEntity
  8
0
100
AcDbLine
 10
-46.47345513237856
 20
-27.48933037651941
 30
0.0
 11
-3.00000000000004
 21
-27.48933037651941
 31
0.0
  0
LINE
  5
32A
330
1F
100
AcDbEntity
  8
0
100
AcDbLine
 10
-46.47345513237856
 20
-51.98933037651953
 30
0.0
 11
-3.00000000000004
 21
-51.98933037651953
 31
0.0
  0
LINE
  5
32B
330
1F
100
AcDbEntity
  8
0
100
AcDbLine
 10
2.999999999999949
 20
-48.48933037651951
 30
0.0
 11
46.47345513237847
 21
-48.48933037651951
 31
0.0
  0
LINE
  5
32C
330
1F
100
AcDbEntity
  8
0
100
AcDbLine
 10
27.73672756618921
 20
-50.23933037651952
 30
0.0
 11
52.47345513237846
 21
-50.23933037651952
 31
0.0
  0
LINE
  5
32D
330
1F
100
AcDbEntity
  8
0
100
AcDbLine
 10
-46.47345513237856
 20
-44.98933037651949
 30
0.0
 11
-3.00000000000004
 21
-44.98933037651949
 31
0.0
  0
LINE
  5
32E
330
1F
100
AcDbEntity
  8
0
100
AcDbLine
 10
-21.73560376866552
 20
-32.73933037651943
 30
0.0
 11
21.73672756618922
 21
-32.73933037651943
 31
0.0
  0
LINE
  5
32F
330
1F
100
AcDbEntity
  8
0
100
AcDbLine
 10
2.999999999999949
 20
-51.98933037651953
 30
0.0
 11
46.47345513237847
 21
-51.98933037651953
 31
0.0
  0
LINE
  5
330
330
1F
100
AcDbEntity
  8
0
100
AcDbLine
 10
-21.73560376866552
 20
-53.73933037651953
 30
0.0
 11
21.73672756618922
 21
-53.73933037651953
 31
0.0
  0
LINE
  5
331
330
1F
100
AcDbEntity
  8
0
100
AcDbLine
 10
-21.73560376866552
 20
-50.23933037651952
 30
0.0
 11
21.73672756618922
 21
-50.23933037651952
 31
0.0
  0
LINE
  5
332
330
1F
100
AcDbEntity
  8
0
100
AcDbLine
 10
-52.44875398262589
 20
-46.7393303765195
 30
0.0
 11
-27.73560471505853
 21
-46.7393303765195
 31
0.0
  0
LINE
  5
333
330
1F
100
AcDbEntity
  8
0
100
AcDbLine
 10
-46.47345513237856
 20
-48.48933037651951
 30
0.0
 11
-3.00000000000004
 21
-48.48933037651951
 31
0.0
  0
LINE
  5
334
330
1F
100
AcDbEntity
  8
0
100
AcDbLine
 10
-52.44875398262589
 20
-32.73933037651943
 30
0.0
 11
-52.44875398262589
 21
-36.23933037651945
 31
0.0
  0
LINE
  5
335
330
1F
100
AcDbEntity
  8
0
100
AcDbLine
 10
-52.44875398262589
 20
-29.23933037651942
 30
0.0
 11
-52.44875398262589
 21
-32.73933037651943
 31
0.0
  0
LINE
  5
336
330
1F
100
AcDbEntity
  8
0
100
AcDbLine
 10
52.47345513237846
 20
-29.23933037651942
 30
0.0
 11
52.47345513237846
 21
-32.73933037651943
 31
0.0
  0
LINE
  5
337
330
1F
100
AcDbEntity
  8
0
100
AcDbLine
 10
-52.44875398262589
 20
-43.23933037651948
 30
0.0
 11
-52.44875398262589
 21
-46.7393303765195
 31
0.0
  0
LINE
  5
338
330
1F
100
AcDbEntity
  8
0
100
AcDbLine
 10
-52.44875398262589
 20
-39.73933037651947
 30
0.0
 11
-52.44875398262589
 21
-43.23933037651948
 31
0.0
  0
LINE
  5
339
330
1F
100
AcDbEntity
  8
0
100
AcDbLine
 10
-52.44875398262589
 20
-36.23933037651945
 30
0.0
 11
-52.44875398262589
 21
-39.73933037651947
 31
0.0
  0
LINE
  5
33A
330
1F
100
AcDbEntity
  8
0
100
AcDbLine
 10
52.47345513237846
 20
-32.73933037651943
 30
0.0
 11
52.47345513237846
 21
-36.23933037651945
 31
0.0
  0
LINE
  5
33B
330
1F
100
AcDbEntity
  8
0
100
AcDbLine
 10
-52.44875398262589
 20
-50.23933037651952
 30
0.0
 11
-52.44875398262589
 21
-53.73933037651953
 31
0.0
  0
LINE
  5
33C
330
1F
100
AcDbEntity
  8
0
100
AcDbLine
 10
-52.44875398262589
 20
-46.7393303765195
 30
0.0
 11
-52.44875398262589
 21
-50.23933037651952
 31
0.0
  0
LINE
  5
33D
330
1F
100
AcDbEntity
  8
0
100
AcDbLine
 10
52.47345513237846
 20
-43.23933037651948
 30
0.0
 11
52.47345513237846
 21
-46.7393303765195
 31
0.0
  0
LINE
  5
33E
330
1F
100
AcDbEntity
  8
0
100
AcDbLine
 10
52.47345513237846
 20
-39.73933037651947
 30
0.0
 11
52.47345513237846
 21
-43.23933037651948
 31
0.0
  0
LINE
  5
33F
330
1F
100
AcDbEntity
  8
0
100
AcDbLine
 10
52.47345513237846
 20
-36.23933037651945
 30
0.0
 11
52.47345513237846
 21
-39.73933037651947
 31
0.0
  0
LINE
  5
340
330
1F
100
AcDbEntity
  8
0
100
AcDbLine
 10
-52.44875398262589
 20
-53.73933037651953
 30
0.0
 11
-52.44875398262589
 21
-57.23933037651955
 31
0.0
  0
LINE
  5
341
330
1F
100
AcDbEntity
  8
0
100
AcDbLine
 10
52.47345513237846
 20
-46.7393303765195
 30
0.0
 11
52.47345513237846
 21
-50.23933037651952
 31
0.0
  0
LINE
  5
342
330
1F
100
AcDbEntity
  8
0
100
AcDbLine
 10
52.47345513237846
 20
-53.73933037651953
 30
0.0
 11
52.47345513237846
 21
-57.23933037651955
 31
0.0
  0
LINE
  5
343
330
1F
100
AcDbEntity
  8
0
100
AcDbLine
 10
52.47345513237846
 20
-50.23933037651952
 30
0.0
 11
52.47345513237846
 21
-53.73933037651953
 31
0.0
  0
LINE
  5
344
330
1F
100
AcDbEntity
  8
0
100
AcDbLine
 10
-21.73560376866552
 20
-64.23933037651958
 30
0.0
 11
21.73672756618922
 21
-64.23933037651958
 31
0.0
  0
LINE
  5
345
330
1F
100
AcDbEntity
  8
0
100
AcDbLine
 10
2.999999999999949
 20
-72.98933037651962
 30
0.0
 11
46.47345513237847
 21
-72.98933037651962
 31
0.0
  0
LINE
  5
346
330
1F
100
AcDbEntity
  8
0
100
AcDbLine
 10
2.999999999999949
 20
-65.98933037651959
 30
0.0
 11
46.47345513237847
 21
-65.98933037651959
 31
0.0
  0
LINE
  5
347
330
1F
100
AcDbEntity
  8
0
100
AcDbLine
 10
27.73672756618921
 20
-71.23933037651962
 30
0.0
 11
52.47345513237846
 21
-71.23933037651962
 31
0.0
  0
LINE
  5
348
330
1F
100
AcDbEntity
  8
0
100
AcDbLine
 10
-21.73560376866552
 20
-71.23933037651962
 30
0.0
 11
21.73672756618922
 21
-71.23933037651962
 31
0.0
  0
LINE
  5
349
330
1F
100
AcDbEntity
  8
0
100
AcDbLine
 10
2.999999999999949
 20
-58.98933037651956
 30
0.0
 11
46.47345513237847
 21
-58.98933037651956
 31
0.0
  0
LINE
  5
34A
330
1F
100
AcDbEntity
  8
0
100
AcDbLine
 10
2.999999999999949
 20
-62.48933037651958
 30
0.0
 11
46.47345513237847
 21
-62.48933037651958
 31
0.0
  0
LINE
  5
34B
330
1F
100
AcDbEntity
  8
0
100
AcDbLine
 10
-46.47345513237856
 20
-62.48933037651958
 30
0.0
 11
-3.00000000000004
 21
-62.48933037651958
 31
0.0
  0
LINE
  5
34C
330
1F
100
AcDbEntity
  8
0
100
AcDbLine
 10
-52.44875398262589
 20
-57.23933037651955
 30
0.0
 11
-27.73560471505853
 21
-57.23933037651955
 31
0.0
  0
LINE
  5
34D
330
1F
100
AcDbEntity
  8
0
100
AcDbLine
 10
-21.73560376866552
 20
-67.7393303765196
 30
0.0
 11
21.73672756618922
 21
-67.7393303765196
 31
0.0
  0
LINE
  5
34E
330
1F
100
AcDbEntity
  8
0
100
AcDbLine
 10
-52.44875398262589
 20
-67.7393303765196
 30
0.0
 11
-27.73560471505853
 21
-67.7393303765196
 31
0.0
  0
LINE
  5
34F
330
1F
100
AcDbEntity
  8
0
100
AcDbLine
 10
27.73672756618921
 20
-64.23933037651958
 30
0.0
 11
52.47345513237846
 21
-64.23933037651958
 31
0.0
  0
LINE
  5
350
330
1F
100
AcDbEntity
  8
0
100
AcDbLine
 10
-46.47345513237856
 20
-55.48933037651954
 30
0.0
 11
-3.00000000000004
 21
-55.48933037651954
 31
0.0
  0
LINE
  5
351
330
1F
100
AcDbEntity
  8
0
100
AcDbLine
 10
2.999999999999949
 20
-69.4893303765196
 30
0.0
 11
46.47345513237847
 21
-69.4893303765196
 31
0.0
  0
LINE
  5
352
330
1F
100
AcDbEntity
  8
0
100
AcDbLine
 10
-46.47345513237856
 20
-58.98933037651956
 30
0.0
 11
-3.00000000000004
 21
-58.98933037651956
 31
0.0
  0
LINE
  5
353
330
1F
100
AcDbEntity
  8
0
100
AcDbLine
 10
-52.44875398262589
 20
-64.23933037651958
 30
0.0
 11
-27.73560471505853
 21
-64.23933037651958
 31
0.0
  0
LINE
  5
354
330
1F
100
AcDbEntity
  8
0
100
AcDbLine
 10
27.73672756618921
 20
-67.7393303765196
 30
0.0
 11
52.47345513237846
 21
-67.7393303765196
 31
0.0
  0
LINE
  5
355
330
1F
100
AcDbEntity
  8
0
100
AcDbLine
 10
-21.73560376866552
 20
-60.73933037651957
 30
0.0
 11
21.73672756618922
 21
-60.73933037651957
 31
0.0
  0
LINE
  5
356
330
1F
100
AcDbEntity
  8
0
100
AcDbLine
 10
-46.47345513237856
 20
-72.98933037651962
 30
0.0
 11
-3.00000000000004
 21
-72.98933037651962
 31
0.0
  0
LINE
  5
357
330
1F
100
AcDbEntity
  8
0
100
AcDbLine
 10
2.999999999999949
 20
-55.48933037651954
 30
0.0
 11
46.47345513237847
 21
-55.48933037651954
 31
0.0
  0
LINE
  5
358
330
1F
100
AcDbEntity
  8
0
100
AcDbLine
 10
27.73672756618921
 20
-57.23933037651955
 30
0.0
 11
52.47345513237846
 21
-57.23933037651955
 31
0.0
  0
LINE
  5
359
330
1F
100
AcDbEntity
  8
0
100
AcDbLine
 10
-21.73560376866552
 20
-57.23933037651955
 30
0.0
 11
21.73672756618922
 21
-57.23933037651955
 31
0.0
  0
LINE
  5
35A
330
1F
100
AcDbEntity
  8
0
100
AcDbLine
 10
-46.47345513237856
 20
-65.98933037651959
 30
0.0
 11
-3.00000000000004
 21
-65.98933037651959
 31
0.0
  0
LINE
  5
35B
330
1F
100
AcDbEntity
  8
0
100
AcDbLine
 10
-52.44875398262589
 20
-71.23933037651962
 30
0.0
 11
-27.73560471505853
 21
-71.23933037651962
 31
0.0
  0
LINE
  5
35C
330
1F
100
AcDbEntity
  8
0
100
AcDbLine
 10
27.73672756618921
 20
-60.73933037651957
 30
0.0
 11
52.47345513237846
 21
-60.73933037651957
 31
0.0
  0
LINE
  5
35D
330
1F
100
AcDbEntity
  8
0
100
AcDbLine
 10
-52.44875398262589
 20
-60.73933037651957
 30
0.0
 11
-27.73560471505853
 21
-60.73933037651957
 31
0.0
  0
LINE
  5
35E
330
1F
100
AcDbEntity
  8
0
100
AcDbLine
 10
-46.47345513237856
 20
-69.4893303765196
 30
0.0
 11
-3.00000000000004
 21
-69.4893303765196
 31
0.0
  0
LINE
  5
35F
330
1F
100
AcDbEntity
  8
0
100
AcDbLine
 10
-52.44875398262589
 20
-67.7393303765196
 30
0.0
 11
-52.44875398262589
 21
-71.23933037651962
 31
0.0
  0
LINE
  5
360
330
1F
100
AcDbEntity
  8
0
100
AcDbLine
 10
-52.44875398262589
 20
-64.23933037651958
 30
0.0
 11
-52.44875398262589
 21
-67.7393303765196
 31
0.0
  0
LINE
  5
361
330
1F
100
AcDbEntity
  8
0
100
AcDbLine
 10
-52.44875398262589
 20
-57.23933037651955
 30
0.0
 11
-52.44875398262589
 21
-60.73933037651957
 31
0.0
  0
LINE
  5
362
330
1F
100
AcDbEntity
  8
0
100
AcDbLine
 10
52.47345513237846
 20
-71.23933037651962
 30
0.0
 11
52.47345513237846
 21
-73.98933037651896
 31
0.0
  0
LINE
  5
363
330
1F
100
AcDbEntity
  8
0
100
AcDbLine
 10
52.47345513237846
 20
-64.23933037651958
 30
0.0
 11
52.47345513237846
 21
-67.7393303765196
 31
0.0
  0
LINE
  5
364
330
1F
100
AcDbEntity
  8
0
100
AcDbLine
 10
52.47345513237846
 20
-57.23933037651955
 30
0.0
 11
52.47345513237846
 21
-60.73933037651957
 31
0.0
  0
LINE
  5
365
330
1F
100
AcDbEntity
  8
0
100
AcDbLine
 10
-52.44875398262589
 20
-71.23933037651962
 30
0.0
 11
-52.44875398262589
 21
-73.98933037651896
 31
0.0
  0
LINE
  5
366
330
1F
100
AcDbEntity
  8
0
100
AcDbLine
 10
-52.44875398262589
 20
-60.73933037651957
 30
0.0
 11
-52.44875398262589
 21
-64.23933037651958
 31
0.0
  0
LINE
  5
367
330
1F
100
AcDbEntity
  8
0
100
AcDbLine
 10
52.47345513237846
 20
-67.7393303765196
 30
0.0
 11
52.47345513237846
 21
-71.23933037651962
 31
0.0
  0
LINE
  5
368
330
1F
100
AcDbEntity
  8
0
100
AcDbLine
 10
52.47345513237846
 20
-60.73933037651957
 30
0.0
 11
52.47345513237846
 21
-64.23933037651958
 31
0.0
  0
ENDSEC
  0
SECTION
  2
OBJECTS
  0
DICTIONARY
  5
C
330
0
100
AcDbDictionary
  3
ACAD_GROUP
350
D
  3
ACAD_LAYOUT
350
1A
  3
ACAD_MATERIAL
350
43
  3
ACAD_MLEADERSTYLE
350
38B
  3
ACAD_MLINESTYLE
350
17
  3
ACAD_PLOTSETTINGS
350
19
  3
ACAD_SCALELIST
350
47
  3
ACAD_VISUALSTYLE
350
2A
  3
ACDBHEADERROUNDTRIPXREC
350
369
  3
ACDBVARIABLEDICTIONARY
350
389
  0
DICTIONARY
  5
390
330
8
100
AcDbDictionary
280
     1
  3
ACAD_XREC_ROUNDTRIP
360
391
  0
DICTIONARY
  5
D
102
{ACAD_REACTORS
330
C
102
}
330
C
100
AcDbDictionary
  0
DICTIONARY
  5
1A
102
{ACAD_REACTORS
330
C
102
}
330
C
100
AcDbDictionary
  0
DICTIONARY
  5
43
102
{ACAD_REACTORS
330
C
102
}
330
C
100
AcDbDictionary
  3
BYBLOCK
350
45
  3
BYLAYER
350
44
  3
GLOBAL
350
46
  0
DICTIONARY
  5
38B
102
{ACAD_REACTORS
330
C
102
}
330
C
100
AcDbDictionary
  0
DICTIONARY
  5
17
102
{ACAD_REACTORS
330
C
102
}
330
C
100
AcDbDictionary
  3
STANDARD
350
18
  0
DICTIONARY
  5
19
102
{ACAD_REACTORS
330
C
102
}
330
C
100
AcDbDictionary
  0
DICTIONARY
  5
47
102
{ACAD_REACTORS
330
C
102
}
330
C
100
AcDbDictionary
  3
A0
350
48
  3
A1
350
49
  3
A2
350
4A
  3
A3
350
4B
  3
A4
350
4C
  3
A5
350
4D
  3
A6
350
4E
  3
A7
350
4F
  3
A8
350
50
  3
A9
350
51
  3
B0
350
52
  3
B1
350
53
  3
B2
350
54
  3
B3
350
55
  3
B4
350
56
  3
B5
350
57
  3
B6
350
58
  3
B7
350
59
  3
B8
350
5A
  3
B9
350
5B
  3
C0
350
5C
  3
C1
350
5D
  3
C2
350
5E
  3
C3
350
5F
  3
C4
350
60
  3
C5
350
61
  3
C6
350
62
  3
C7
350
63
  3
C8
350
64
  3
C9
350
65
  3
D0
350
66
  3
D1
350
67
  3
D2
350
68
  0
DICTIONARY
  5
2A
102
{ACAD_REACTORS
330
C
102
}
330
C
100
AcDbDictionary
  3
2DWIREFRAME
350
2F
  3
BASIC
350
32
  3
BRIGHTEN
350
36
  3
COLORCHANGE
350
3A
  3
CONCEPTUAL
350
34
  3
DIM
350
35
  3
EDGECOLOROFF
350
3D
  3
FACEPATTERN
350
39
  3
FLAT
350
2B
  3
FLATWITHEDGES
350
2C
  3
GOURAUD
350
2D
  3
GOURAUDWITHEDGES
350
2E
  3
HIDDEN
350
31
  3
JITTEROFF
350
3B
  3
LINEPATTERN
350
38
  3
OVERHANGOFF
350
3C
  3
REALISTIC
350
33
  3
SHADED
350
42
  3
SHADED_WITH_EDGES
350
41
  3
SHADES_OF_GRAY
350
3E
  3
SKETCHY
350
3F
  3
THICKEN
350
37
  3
WIREFRAME
350
30
  3
X-RAY
350
40
  0
DICTIONARY
  5
369
102
{ACAD_REACTORS
330
C
102
}
330
C
100
AcDbDictionary
  3
CEPSNTYPE
350
372
  3
DIMSTYLEDATA
350
388
  3
FINGERPRINTGUID
350
373
  3
HYPERLINKBASE
350
36C
  3
INSUNITS
350
371
  3
LAYOUTDICT
350
36E
  3
LWETCUNION
350
370
  3
PLOTSETDICT
350
36F
  3
PSVPSCALE
350
375
  3
PUCSBASE
350
378
  3
PUCSORGBACK
350
37E
  3
PUCSORGBOTTOM
350
37A
  3
PUCSORGFRONT
350
37D
  3
PUCSORGLEFT
350
37B
  3
PUCSORGRIGHT
350
37C
  3
PUCSORGTOP
350
379
  3
PUCSORTHOREF
350
376
  3
PUCSORTHOVIEW
350
377
  3
STYLESHEET
350
36D
  3
TSTACKALIGN
350
36A
  3
TSTACKSIZE
350
36B
  3
UCSBASE
350
381
  3
UCSORGBACK
350
387
  3
UCSORGBOTTOM
350
383
  3
UCSORGFRONT
350
386
  3
UCSORGLEFT
350
384
  3
UCSORGRIGHT
350
385
  3
UCSORGTOP
350
382
  3
UCSORTHOREF
350
37F
  3
UCSORTHOVIEW
350
380
  3
VERSIONGUID
350
374
  0
DICTIONARY
  5
389
102
{ACAD_REACTORS
330
C
102
}
330
C
100
AcDbDictionary
  3
CANNOSCALE
350
392
  3
DIMASSOC
350
38E
  3
HIDETEXT
350
38F
  3
MSLTSCALE
350
393
  0
XRECORD
  5
391
102
{ACAD_REACTORS
330
390
102
}
330
390
100
AcDbXrecord
102
VTR_0.000_0.000_1.000_1.000_GRIDDISPLAY
 70
     3
102
VTR_0.000_0.000_1.000_1.000_GRIDMAJOR
 70
     5
102
VTR_0.000_0.000_1.000_1.000_DEFAULTLIGHTING
280
     1
102
VTR_0.000_0.000_1.000_1.000_DEFAULTLIGHTINGTYPE
 70
     1
102
VTR_0.000_0.000_1.000_1.000_BRIGHTNESS
141
0.0
102
VTR_0.000_0.000_1.000_1.000_CONTRAST
142
0.0
  0
MATERIAL
  5
45
102
{ACAD_REACTORS
330
43
102
}
102
{ACAD_XDICTIONARY
360
396
102
}
330
43
100
AcDbMaterial
  1
BYBLOCK
  0
MATERIAL
  5
44
102
{ACAD_REACTORS
330
43
102
}
102
{ACAD_XDICTIONARY
360
394
102
}
330
43
100
AcDbMaterial
  1
BYLAYER
  0
MATERIAL
  5
46
102
{ACAD_REACTORS
330
43
102
}
102
{ACAD_XDICTIONARY
360
398
102
}
330
43
100
AcDbMaterial
  1
GLOBAL
  0
MLINESTYLE
  5
18
102
{ACAD_REACTORS
330
17
102
}
330
17
100
AcDbMlineStyle
  2
Standard
 70
     0
  3

 62
   256
 51
90.0
 52
90.0
 71
     2
 49
0.5
 62
   256
  6
BYLAYER
 49
-0.5
 62
   256
  6
BYLAYER
  0
ACAD_PROXY_OBJECT
  5
48
102
{ACAD_REACTORS
330
47
102
}
330
47
100
AcDbProxyObject
 90
      499
 91
      503
 93
       41
310
903313A31580
  0
ACAD_PROXY_OBJECT
  5
49
102
{ACAD_REACTORS
330
47
102
}
330
47
100
AcDbProxyObject
 90
      499
 91
      503
 93
      105
310
903313A324000000000000004000
  0
ACAD_PROXY_OBJECT
  5
4A
102
{ACAD_REACTORS
330
47
102
}
330
47
100
AcDbProxyObject
 90
      499
 91
      503
 93
      105
310
903313A344000000000000104000
  0
ACAD_PROXY_OBJECT
  5
4B
102
{ACAD_REACTORS
330
47
102
}
330
47
100
AcDbProxyObject
 90
      499
 91
      503
 93
      105
310
903313A354000000000000144000
  0
ACAD_PROXY_OBJECT
  5
4C
102
{ACAD_REACTORS
330
47
102
}
330
47
100
AcDbProxyObject
 90
      499
 91
      503
 93
      105
310
903313A384000000000000204000
  0
ACAD_PROXY_OBJECT
  5
4D
102
{ACAD_REACTORS
330
47
102
}
330
47
100
AcDbProxyObject
 90
      499
 91
      503
 93
      113
310
904313A31304000000000000244000
  0
ACAD_PROXY_OBJECT
  5
4E
102
{ACAD_REACTORS
330
47
102
}
330
47
100
AcDbProxyObject
 90
      499
 91
      503
 93
      113
310
904313A31364000000000000304000
  0
ACAD_PROXY_OBJECT
  5
4F
102
{ACAD_REACTORS
330
47
102
}
330
47
100
AcDbProxyObject
 90
      499
 91
      503
 93
      113
310
904313A32304000000000000344000
  0
ACAD_PROXY_OBJECT
  5
50
102
{ACAD_REACTORS
330
47
102
}
330
47
100
AcDbProxyObject
 90
      499
 91
      503
 93
      113
310
904313A333040000000000003E4000
  0
ACAD_PROXY_OBJECT
  5
51
102
{ACAD_REACTORS
330
47
102
}
330
47
100
AcDbProxyObject
 90
      499
 91
      503
 93
      113
310
904313A34304000000000000444000
  0
ACAD_PROXY_OBJECT
  5
52
102
{ACAD_REACTORS
330
47
102
}
330
47
100
AcDbProxyObject
 90
      499
 91
      503
 93
      113
310
904313A35304000000000000494000
  0
ACAD_PROXY_OBJECT
  5
53
102
{ACAD_REACTORS
330
47
102
}
330
47
100
AcDbProxyObject
 90
      499
 91
      503
 93
      121
310
905313A3130304000000000000594000
  0
ACAD_PROXY_OBJECT
  5
54
102
{ACAD_REACTORS
330
47
102
}
330
47
100
AcDbProxyObject
 90
      499
 91
      503
 93
      105
310
903323A310000000000000010100
  0
ACAD_PROXY_OBJECT
  5
55
102
{ACAD_REACTORS
330
47
102
}
330
47
100
AcDbProxyObject
 90
      499
 91
      503
 93
      105
310
903343A310000000000000410100
  0
ACAD_PROXY_OBJECT
  5
56
102
{ACAD_REACTORS
330
47
102
}
330
47
100
AcDbProxyObject
 90
      499
 91
      503
 93
      105
310
903383A310000000000000810100
  0
ACAD_PROXY_OBJECT
  5
57
102
{ACAD_REACTORS
330
47
102
}
330
47
100
AcDbProxyObject
 90
      499
 91
      503
 93
      113
310
90431303A310000000000000910100
  0
ACAD_PROXY_OBJECT
  5
58
102
{ACAD_REACTORS
330
47
102
}
330
47
100
AcDbProxyObject
 90
      499
 91
      503
 93
      121
310
9053130303A310000000000001650100
  0
ACAD_PROXY_OBJECT
  5
59
102
{ACAD_REACTORS
330
47
102
}
330
47
100
AcDbProxyObject
 90
      499
 91
      503
 93
      257
310
90E312F31323822203D2031272D3022000000000000200FC000000000000284000
  0
ACAD_PROXY_OBJECT
  5
5A
102
{ACAD_REACTORS
330
47
102
}
330
47
100
AcDbProxyObject
 90
      499
 91
      503
 93
      249
310
90D312F363422203D2031272D3022000000000000240FC000000000000284000
  0
ACAD_PROXY_OBJECT
  5
5B
102
{ACAD_REACTORS
330
47
102
}
330
47
100
AcDbProxyObject
 90
      499
 91
      503
 93
      249
310
90D312F333222203D2031272D3022000000000000280FC000000000000284000
  0
ACAD_PROXY_OBJECT
  5
5C
102
{ACAD_REACTORS
330
47
102
}
330
47
100
AcDbProxyObject
 90
      499
 91
      503
 93
      249
310
90D312F313622203D2031272D30220000000000002C0FC000000000000284000
  0
ACAD_PROXY_OBJECT
  5
5D
102
{ACAD_REACTORS
330
47
102
}
330
47
100
AcDbProxyObject
 90
      499
 91
      503
 93
      249
310
90D332F333222203D2031272D30220000000000002E0FC000000000000284000
  0
ACAD_PROXY_OBJECT
  5
5E
102
{ACAD_REACTORS
330
47
102
}
330
47
100
AcDbProxyObject
 90
      499
 91
      503
 93
      241
310
90C312F3822203D2031272D3022000000000000300FC000000000000284000
  0
ACAD_PROXY_OBJECT
  5
5F
102
{ACAD_REACTORS
330
47
102
}
330
47
100
AcDbProxyObject
 90
      499
 91
      503
 93
      249
310
90D332F313622203D2031272D3022000000000000320FC000000000000284000
  0
ACAD_PROXY_OBJECT
  5
60
102
{ACAD_REACTORS
330
47
102
}
330
47
100
AcDbProxyObject
 90
      499
 91
      503
 93
      241
310
90C312F3422203D2031272D3022000000000000340FC000000000000284000
  0
ACAD_PROXY_OBJECT
  5
61
102
{ACAD_REACTORS
330
47
102
}
330
47
100
AcDbProxyObject
 90
      499
 91
      503
 93
      241
310
90C332F3822203D2031272D3022000000000000360FC000000000000284000
  0
ACAD_PROXY_OBJECT
  5
62
102
{ACAD_REACTORS
330
47
102
}
330
47
100
AcDbProxyObject
 90
      499
 91
      503
 93
      241
310
90C312F3222203D2031272D3022000000000000380FC000000000000284000
  0
ACAD_PROXY_OBJECT
  5
63
102
{ACAD_REACTORS
330
47
102
}
330
47
100
AcDbProxyObject
 90
      499
 91
      503
 93
      241
310
90C332F3422203D2031272D30220000000000003A0FC000000000000284000
  0
ACAD_PROXY_OBJECT
  5
64
102
{ACAD_REACTORS
330
47
102
}
330
47
100
AcDbProxyObject
 90
      499
 91
      503
 93
      161
310
90A3122203D2031272D30224000000000000284000
  0
ACAD_PROXY_OBJECT
  5
65
102
{ACAD_REACTORS
330
47
102
}
330
47
100
AcDbProxyObject
 90
      499
 91
      503
 93
      257
310
90E312D312F3222203D2031272D30220000000000003E0FC000000000000284000
  0
ACAD_PROXY_OBJECT
  5
66
102
{ACAD_REACTORS
330
47
102
}
330
47
100
AcDbProxyObject
 90
      499
 91
      503
 93
      225
310
90A3322203D2031272D302200000000000002100000000000000284000
  0
ACAD_PROXY_OBJECT
  5
67
102
{ACAD_REACTORS
330
47
102
}
330
47
100
AcDbProxyObject
 90
      499
 91
      503
 93
      225
310
90A3622203D2031272D302200000000000006100000000000000284000
  0
ACAD_PROXY_OBJECT
  5
68
102
{ACAD_REACTORS
330
47
102
}
330
47
100
AcDbProxyObject
 90
      499
 91
      503
 93
      249
310
90D31272D3022203D2031272D30220000000000000A100000000000000284000
  0
ACAD_PROXY_OBJECT
  5
2F
102
{ACAD_REACTORS
330
2A
102
}
330
2A
100
AcDbProxyObject
 90
      499
 91
      501
 93
      436
310
42CC9915DA5C99599C985B595049028333333333333E33F0000000000000F90107901411070040501600405405064090741402480A0340
1001
ACAD
1000
AcDbSavedByObjectVersion
1070
     0
  0
ACAD_PROXY_OBJECT
  5
32
102
{ACAD_REACTORS
330
2A
102
}
330
2A
100
AcDbProxyObject
 90
      499
 91
      501
 93
      388
310
4150985CDA58D07406404333333333333E33F0000000000000F90107A41107004050150841D405064090741402480A0350
1001
ACAD
1000
AcDbSavedByObjectVersion
1070
     0
  0
ACAD_PROXY_OBJECT
  5
36
102
{ACAD_REACTORS
330
2A
102
}
330
2A
100
AcDbProxyObject
 90
      499
 91
      501
 93
      428
310
42109C9A59DA1D195B90C409028333333333333E33F0000000000000F9010790141107004050150841D405064090741402480A029950
1001
ACAD
1000
AcDbSavedByObjectVersion
1070
     0
  0
ACAD_PROXY_OBJECT
  5
3A
102
{ACAD_REACTORS
330
2A
102
}
330
2A
100
AcDbProxyObject
 90
      499
 91
      501
 93
      452
310
42D0DBDB1BDC90DA185B99D95104090240C333333333333E33F0000000000000F90108901411070040501508421405064090741402480A0350
1001
ACAD
1000
AcDbSavedByObjectVersion
1070
     0
  0
ACAD_PROXY_OBJECT
  5
34
102
{ACAD_REACTORS
330
2A
102
}
330
2A
100
AcDbProxyObject
 90
      499
 91
      501
 93
      500
310
4290DBDB98D95C1D1D585B10940D028333333333333E33F0000000000000F90107902409070040501000000000018199010841D405064090740C02480A0340
1001
ACAD
1000
AcDbSavedByObjectVersion
1070
     0
  0
ACAD_PROXY_OBJECT
  5
35
102
{ACAD_REACTORS
330
2A
102
}
330
2A
100
AcDbProxyObject
 90
      499
 91
      501
 93
      412
310
40D11A5B50B409028333333333333E33F0000000000000F9010790141107004050150841D405064090741402480A02677FFFFFD0
1001
ACAD
1000
AcDbSavedByObjectVersion
1070
     0
  0
ACAD_PROXY_OBJECT
  5
3D
102
{ACAD_REACTORS
330
2A
102
}
330
2A
100
AcDbProxyObject
 90
      499
 91
      501
 93
      452
310
43115919D950DBDB1BDC93D999916409028333333333333E33F0000000000000F9010790141107004050150841D405064090741402480A0350
1001
ACAD
1000
AcDbSavedByObjectVersion
1070
     0
  0
ACAD_PROXY_OBJECT
  5
39
102
{ACAD_REACTORS
330
2A
102
}
330
2A
100
AcDbProxyObject
 90
      499
 91
      501
 93
      444
310
42D19858D95C185D1D195C9B90F409028333333333333E33F0000000000000F9010790141107004050150841D405064090741402480A0350
1001
ACAD
1000
AcDbSavedByObjectVersion
1070
     0
  0
ACAD_PROXY_OBJECT
  5
2B
102
{ACAD_REACTORS
330
2A
102
}
330
2A
100
AcDbProxyObject
 90
      499
 91
      501
 93
      380
310
41119B185D240901404333333333333E33F0000000000000F9010740A907004050150841D405064090741402480A1B50
1001
ACAD
1000
AcDbSavedByObjectVersion
1070
     0
  0
ACAD_PROXY_OBJECT
  5
2C
102
{ACAD_REACTORS
330
2A
102
}
330
2A
100
AcDbProxyObject
 90
      499
 91
      501
 93
      468
310
43519B185D15DA5D1A115919D95CD0140901404333333333333E33F0000000000000F90107409019070040501600405405064090741402480A1B50
1001
ACAD
1000
AcDbSavedByObjectVersion
1070
     0
  0
ACAD_PROXY_OBJECT
  5
2D
102
{ACAD_REACTORS
330
2A
102
}
330
2A
100
AcDbProxyObject
 90
      499
 91
      501
 93
      404
310
41D1DBDD5C985D5910240902404333333333333E33F0000000000000F9010740A9070040501641D405064090741402480A1B50
1001
ACAD
1000
AcDbSavedByObjectVersion
1070
     0
  0
ACAD_PROXY_OBJECT
  5
2E
102
{ACAD_REACTORS
330
2A
102
}
330
2A
100
AcDbProxyObject
 90
      499
 91
      501
 93
      492
310
4411DBDD5C985D5915DA5D1A115919D95CD0340902404333333333333E33F0000000000000F90107409019070040501600405405064090741402480A1B50
1001
ACAD
1000
AcDbSavedByObjectVersion
1070
     0
  0
ACAD_PROXY_OBJECT
  5
31
102
{ACAD_REACTORS
330
2A
102
}
330
2A
100
AcDbProxyObject
 90
      499
 91
      501
 93
      476
310
41921A5919195B90640502408333333333333E33F0000000000000F901079024090700405020000000000001110200405405064090740C02480A0340
1001
ACAD
1000
AcDbSavedByObjectVersion
1070
     0
  0
ACAD_PROXY_OBJECT
  5
3B
102
{ACAD_REACTORS
330
2A
102
}
330
2A
100
AcDbProxyObject
 90
      499
 91
      501
 93
      428
310
42529A5D1D195C93D999914409028333333333333E33F0000000000000F9010790141107004050150A41D405064090741402480A0350
1001
ACAD
1000
AcDbSavedByObjectVersion
1070
     0
  0
ACAD_PROXY_OBJECT
  5
38
102
{ACAD_REACTORS
330
2A
102
}
330
2A
100
AcDbProxyObject
 90
      499
 91
      501
 93
      444
310
42D31A5B995C185D1D195C9B90E409028333333333333E33F0000000000000F9010790141107004050750841D405064090741402483A0350
1001
ACAD
1000
AcDbSavedByObjectVersion
1070
     0
  0
ACAD_PROXY_OBJECT
  5
3C
102
{ACAD_REACTORS
330
2A
102
}
330
2A
100
AcDbProxyObject
 90
      499
 91
      501
 93
      444
310
42D3DD995C9A185B99D3D999915409028333333333333E33F0000000000000F9010790141107004050150941D405064090741402480A0350
1001
ACAD
1000
AcDbSavedByObjectVersion
1070
     0
  0
ACAD_PROXY_OBJECT
  5
33
102
{ACAD_REACTORS
330
2A
102
}
330
2A
100
AcDbProxyObject
 90
      499
 91
      501
 93
      428
310
425499585B1A5CDD1A58D08409038333333333333E33F0000000000000F9010740A907004050150800405405064090740C02480A1B40
1001
ACAD
1000
AcDbSavedByObjectVersion
1070
     0
  0
ACAD_PROXY_OBJECT
  5
42
102
{ACAD_REACTORS
330
2A
102
}
330
2A
100
AcDbProxyObject
 90
      499
 91
      501
 93
      420
310
4194DA1859195911B40902404333333333333E33F0000000000000F9010740A41107004050150800405405064090840C02480A0B40
1001
ACAD
1000
AcDbSavedByObjectVersion
1070
     0
  0
ACAD_PROXY_OBJECT
  5
41
102
{ACAD_REACTORS
330
2A
102
}
330
2A
100
AcDbProxyObject
 90
      499
 91
      501
 93
      516
310
4454DA18591959081DDA5D1A08195919D95CD1A40902404333333333333E33F0000000000000F901074090142907004050250800405405064090740C02480A0B40
1001
ACAD
1000
AcDbSavedByObjectVersion
1070
     0
  0
ACAD_PROXY_OBJECT
  5
3E
102
{ACAD_REACTORS
330
2A
102
}
330
2A
100
AcDbProxyObject
 90
      499
 91
      501
 93
      532
310
4394DA1859195CC81BD98811DC985E5174090240C333333333333E33F0000000000000F901079024090741D01000000000000111010841D405064090740C02480A0340
1001
ACAD
1000
AcDbSavedByObjectVersion
1070
     0
  0
ACAD_PROXY_OBJECT
  5
3F
102
{ACAD_REACTORS
330
2A
102
}
330
2A
100
AcDbProxyObject
 90
      499
 91
      501
 93
      476
310
41D4DAD95D18DA1E51840502408333333333333E33F0000000000000F901079024090741D01000000000000111010B41D405064090741802480A0340
1001
ACAD
1000
AcDbSavedByObjectVersion
1070
     0
  0
ACAD_PROXY_OBJECT
  5
37
102
{ACAD_REACTORS
330
2A
102
}
330
2A
100
AcDbProxyObject
 90
      499
 91
      501
 93
      412
310
41D51A1A58DAD95B90D409028333333333333E33F0000000000000F9010790141107004050150C41D405064090741402480A0350
1001
ACAD
1000
AcDbSavedByObjectVersion
1070
     0
  0
ACAD_PROXY_OBJECT
  5
30
102
{ACAD_REACTORS
330
2A
102
}
330
2A
100
AcDbProxyObject
 90
      499
 91
      501
 93
      420
310
4255DA5C99599C985B595059028333333333333E33F0000000000000F90107901411070040501600405405064090740C02480A0340
1001
ACAD
1000
AcDbSavedByObjectVersion
1070
     0
  0
ACAD_PROXY_OBJECT
  5
40
102
{ACAD_REACTORS
330
2A
102
}
330
2A
100
AcDbProxyObject
 90
      499
 91
      501
 93
      404
310
41560B54985E51940902404000000000000E03F0000000000000F9010740501907004050150841D405064090740C02480A1B40
1001
ACAD
1000
AcDbSavedByObjectVersion
1070
     0
  0
XRECORD
  5
372
102
{ACAD_REACTORS
330
369
102
}
330
369
100
AcDbXrecord
 90
        0
  0
XRECORD
  5
388
102
{ACAD_REACTORS
330
369
102
}
330
369
100
AcDbXrecord
1000
DSTYLE
1002
{
1070
   340
340
11
1002
}
  0
XRECORD
  5
373
102
{ACAD_REACTORS
330
369
102
}
330
369
100
AcDbXrecord
  1
{B17878F5-3FED-4C39-8664-D8FDA2ADB4CF}
  0
XRECORD
  5
36C
102
{ACAD_REACTORS
330
369
102
}
330
369
100
AcDbXrecord
  1

  0
XRECORD
  5
371
102
{ACAD_REACTORS
330
369
102
}
330
369
100
AcDbXrecord
 90
        1
  0
XRECORD
  5
36E
102
{ACAD_REACTORS
330
369
102
}
330
369
100
AcDbXrecord
340
1A
  0
XRECORD
  5
370
102
{ACAD_REACTORS
330
369
102
}
330
369
100
AcDbXrecord
 90
    10781
  0
XRECORD
  5
36F
102
{ACAD_REACTORS
330
369
102
}
330
369
100
AcDbXrecord
340
19
  0
XRECORD
  5
375
102
{ACAD_REACTORS
330
369
102
}
330
369
100
AcDbXrecord
 40
0.0
  0
XRECORD
  5
378
102
{ACAD_REACTORS
330
369
102
}
330
369
100
AcDbXrecord
340
0
  0
XRECORD
  5
37E
102
{ACAD_REACTORS
330
369
102
}
330
369
100
AcDbXrecord
 10
0.0
 20
0.0
 30
0.0
  0
XRECORD
  5
37A
102
{ACAD_REACTORS
330
369
102
}
330
369
100
AcDbXrecord
 10
0.0
 20
0.0
 30
0.0
  0
XRECORD
  5
37D
102
{ACAD_REACTORS
330
369
102
}
330
369
100
AcDbXrecord
 10
0.0
 20
0.0
 30
0.0
  0
XRECORD
  5
37B
102
{ACAD_REACTORS
330
369
102
}
330
369
100
AcDbXrecord
 10
0.0
 20
0.0
 30
0.0
  0
XRECORD
  5
37C
102
{ACAD_REACTORS
330
369
102
}
330
369
100
AcDbXrecord
 10
0.0
 20
0.0
 30
0.0
  0
XRECORD
  5
379
102
{ACAD_REACTORS
330
369
102
}
330
369
100
AcDbXrecord
 10
0.0
 20
0.0
 30
0.0
  0
XRECORD
  5
376
102
{ACAD_REACTORS
330
369
102
}
330
369
100
AcDbXrecord
340
0
  0
XRECORD
  5
377
102
{ACAD_REACTORS
330
369
102
}
330
369
100
AcDbXrecord
 70
     0
  0
XRECORD
  5
36D
102
{ACAD_REACTORS
330
369
102
}
330
369
100
AcDbXrecord
  1

  0
XRECORD
  5
36A
102
{ACAD_REACTORS
330
369
102
}
330
369
100
AcDbXrecord
 90
        1
  0
XRECORD
  5
36B
102
{ACAD_REACTORS
330
369
102
}
330
369
100
AcDbXrecord
 90
       70
  0
XRECORD
  5
381
102
{ACAD_REACTORS
330
369
102
}
330
369
100
AcDbXrecord
340
0
  0
XRECORD
  5
387
102
{ACAD_REACTORS
330
369
102
}
330
369
100
AcDbXrecord
 10
0.0
 20
0.0
 30
0.0
  0
XRECORD
  5
383
102
{ACAD_REACTORS
330
369
102
}
330
369
100
AcDbXrecord
 10
0.0
 20
0.0
 30
0.0
  0
XRECORD
  5
386
102
{ACAD_REACTORS
330
369
102
}
330
369
100
AcDbXrecord
 10
0.0
 20
0.0
 30
0.0
  0
XRECORD
  5
384
102
{ACAD_REACTORS
330
369
102
}
330
369
100
AcDbXrecord
 10
0.0
 20
0.0
 30
0.0
  0
XRECORD
  5
385
102
{ACAD_REACTORS
330
369
102
}
330
369
100
AcDbXrecord
 10
0.0
 20
0.0
 30
0.0
  0
XRECORD
  5
382
102
{ACAD_REACTORS
330
369
102
}
330
369
100
AcDbXrecord
 10
0.0
 20
0.0
 30
0.0
  0
XRECORD
  5
37F
102
{ACAD_REACTORS
330
369
102
}
330
369
100
AcDbXrecord
340
0
  0
XRECORD
  5
380
102
{ACAD_REACTORS
330
369
102
}
330
369
100
AcDbXrecord
 70
     0
  0
XRECORD
  5
374
102
{ACAD_REACTORS
330
369
102
}
330
369
100
AcDbXrecord
  1
{FAEB1C32-E019-11D5-929B-00C0DF256EC4}
  0
DICTIONARYVAR
  5
392
102
{ACAD_REACTORS
330
389
102
}
330
389
100
DictionaryVariables
280
     0
  1
1:1
  0
DICTIONARYVAR
  5
38E
102
{ACAD_REACTORS
330
389
102
}
330
389
100
DictionaryVariables
280
     0
  1
2
  0
DICTIONARYVAR
  5
38F
102
{ACAD_REACTORS
330
389
102
}
330
389
100
DictionaryVariables
280
     0
  1
1
  0
DICTIONARYVAR
  5
393
102
{ACAD_REACTORS
330
389
102
}
330
389
100
DictionaryVariables
280
     0
  1
1
  0
DICTIONARY
  5
396
330
45
100
AcDbDictionary
280
     1
  3
ACAD_XREC_ROUNDTRIP
360
397
  0
DICTIONARY
  5
394
330
44
100
AcDbDictionary
280
     1
  3
ACAD_XREC_ROUNDTRIP
360
395
  0
DICTIONARY
  5
398
330
46
100
AcDbDictionary
280
     1
  3
ACAD_XREC_ROUNDTRIP
360
399
  0
XRECORD
  5
397
102
{ACAD_REACTORS
330
396
102
}
330
396
100
AcDbXrecord
102
MATERIAL
148
0.0
149
0.0
149
0.0
 93
        0
 94
      127
282
     0
 72
     1
 77
     1
171
     1
175
     1
179
     1
273
     0
  0
XRECORD
  5
395
102
{ACAD_REACTORS
330
394
102
}
330
394
100
AcDbXrecord
102
MATERIAL
148
0.0
149
0.0
149
0.0
 93
        0
 94
      127
282
     0
 72
     1
 77
     1
171
     1
175
     1
179
     1
273
     0
  0
XRECORD
  5
399
102
{ACAD_REACTORS
330
398
102
}
330
398
100
AcDbXrecord
102
MATERIAL
148
0.0
149
0.0
149
0.0
 93
        0
 94
      127
282
     0
 72
     1
 77
     1
171
     1
175
     1
179
     1
273
     0
  0
ENDSEC
  0
EOF
