  0
SECTION
  2
HEADER
  9
$ACADVER
  1
AC1014
  9
$ACADMAINTVER
 70
     9
  9
$DWGCODEPAGE
  3
ANSI_1252
  9
$INSBASE
 10
0.0
 20
0.0
 30
0.0
  9
$EXTMIN
 10
1.000000000000000E+20
 20
1.000000000000000E+20
 30
1.000000000000000E+20
  9
$EXTMAX
 10
-1.000000000000000E+20
 20
-1.000000000000000E+20
 30
-1.000000000000000E+20
  9
$LIMMIN
 10
0.0
 20
0.0
  9
$LIMMAX
 10
12.0
 20
9.0
  9
$ORTHOMODE
 70
     0
  9
$REGENMODE
 70
     1
  9
$FILLMODE
 70
     1
  9
$QTEXTMODE
 70
     0
  9
$MIRRTEXT
 70
     1
  9
$DRAGMODE
 70
     2
  9
$LTSCALE
 40
1.0
  9
$OSMODE
 70
    37
  9
$ATTMODE
 70
     1
  9
$TEXTSIZE
 40
0.2
  9
$TRACEWID
 40
0.05
  9
$TEXTSTYLE
  7
STANDARD
  9
$CLAYER
  8
0
  9
$CELTYPE
  6
BYLAYER
  9
$CECOLOR
 62
   256
  9
$CELTSCALE
 40
1.0
  9
$DELOBJ
 70
     1
  9
$DISPSILH
 70
     0
  9
$DIMSCALE
 40
1.0
  9
$DIMASZ
 40
0.18
  9
$DIMEXO
 40
0.0625
  9
$DIMDLI
 40
0.38
  9
$DIMRND
 40
0.0
  9
$DIMDLE
 40
0.0
  9
$DIMEXE
 40
0.18
  9
$DIMTP
 40
0.0
  9
$DIMTM
 40
0.0
  9
$DIMTXT
 40
0.18
  9
$DIMCEN
 40
0.09
  9
$DIMTSZ
 40
0.0
  9
$DIMTOL
 70
     0
  9
$DIMLIM
 70
     0
  9
$DIMTIH
 70
     1
  9
$DIMTOH
 70
     1
  9
$DIMSE1
 70
     0
  9
$DIMSE2
 70
     0
  9
$DIMTAD
 70
     0
  9
$DIMZIN
 70
     0
  9
$DIMBLK
  1

  9
$DIMASO
 70
     1
  9
$DIMSHO
 70
     1
  9
$DIMPOST
  1

  9
$DIMAPOST
  1

  9
$DIMALT
 70
     0
  9
$DIMALTD
 70
     2
  9
$DIMALTF
 40
25.4
  9
$DIMLFAC
 40
1.0
  9
$DIMTOFL
 70
     0
  9
$DIMTVP
 40
0.0
  9
$DIMTIX
 70
     0
  9
$DIMSOXD
 70
     0
  9
$DIMSAH
 70
     0
  9
$DIMBLK1
  1

  9
$DIMBLK2
  1

  9
$DIMSTYLE
  2
STANDARD
  9
$DIMCLRD
 70
     0
  9
$DIMCLRE
 70
     0
  9
$DIMCLRT
 70
     0
  9
$DIMTFAC
 40
1.0
  9
$DIMGAP
 40
0.09
  9
$DIMJUST
 70
     0
  9
$DIMSD1
 70
     0
  9
$DIMSD2
 70
     0
  9
$DIMTOLJ
 70
     1
  9
$DIMTZIN
 70
     0
  9
$DIMALTZ
 70
     0
  9
$DIMALTTZ
 70
     0
  9
$DIMFIT
 70
     3
  9
$DIMUPT
 70
     0
  9
$DIMUNIT
 70
     2
  9
$DIMDEC
 70
     4
  9
$DIMTDEC
 70
     4
  9
$DIMALTU
 70
     2
  9
$DIMALTTD
 70
     2
  9
$DIMTXSTY
  7
STANDARD
  9
$DIMAUNIT
 70
     0
  9
$LUNITS
 70
     2
  9
$LUPREC
 70
     4
  9
$SKETCHINC
 40
0.1
  9
$FILLETRAD
 40
0.5
  9
$AUNITS
 70
     0
  9
$AUPREC
 70
     0
  9
$MENU
  1
.
  9
$ELEVATION
 40
0.0
  9
$PELEVATION
 40
0.0
  9
$THICKNESS
 40
0.0
  9
$LIMCHECK
 70
     0
  9
$CHAMFERA
 40
0.0
  9
$CHAMFERB
 40
0.0
  9
$CHAMFERC
 40
0.0
  9
$CHAMFERD
 40
0.0
  9
$SKPOLY
 70
     0
  9
$TDCREATE
 40
2456913.673959259
  9
$TDUPDATE
 40
2456913.673959387
  9
$TDINDWG
 40
0.0000000116
  9
$TDUSRTIMER
 40
0.0000000116
  9
$USRTIMER
 70
     1
  9
$ANGBASE
 50
0.0
  9
$ANGDIR
 70
     0
  9
$PDMODE
 70
     0
  9
$PDSIZE
 40
0.0
  9
$PLINEWID
 40
0.0
  9
$COORDS
 70
     1
  9
$SPLFRAME
 70
     0
  9
$SPLINETYPE
 70
     6
  9
$SPLINESEGS
 70
     8
  9
$ATTDIA
 70
     0
  9
$ATTREQ
 70
     1
  9
$HANDLING
 70
     1
  9
$HANDSEED
  5
355
  9
$SURFTAB1
 70
     6
  9
$SURFTAB2
 70
     6
  9
$SURFTYPE
 70
     6
  9
$SURFU
 70
     6
  9
$SURFV
 70
     6
  9
$UCSNAME
  2

  9
$UCSORG
 10
0.0
 20
0.0
 30
0.0
  9
$UCSXDIR
 10
1.0
 20
0.0
 30
0.0
  9
$UCSYDIR
 10
0.0
 20
1.0
 30
0.0
  9
$PUCSNAME
  2

  9
$PUCSORG
 10
0.0
 20
0.0
 30
0.0
  9
$PUCSXDIR
 10
1.0
 20
0.0
 30
0.0
  9
$PUCSYDIR
 10
0.0
 20
1.0
 30
0.0
  9
$USERI1
 70
     0
  9
$USERI2
 70
     0
  9
$USERI3
 70
     0
  9
$USERI4
 70
     0
  9
$USERI5
 70
     0
  9
$USERR1
 40
0.0
  9
$USERR2
 40
0.0
  9
$USERR3
 40
0.0
  9
$USERR4
 40
0.0
  9
$USERR5
 40
0.0
  9
$WORLDVIEW
 70
     1
  9
$SHADEDGE
 70
     3
  9
$SHADEDIF
 70
    70
  9
$TILEMODE
 70
     1
  9
$MAXACTVP
 70
    64
  9
$PINSBASE
 10
0.0
 20
0.0
 30
0.0
  9
$PLIMCHECK
 70
     0
  9
$PEXTMIN
 10
1.000000000000000E+20
 20
1.000000000000000E+20
 30
1.000000000000000E+20
  9
$PEXTMAX
 10
-1.000000000000000E+20
 20
-1.000000000000000E+20
 30
-1.000000000000000E+20
  9
$PLIMMIN
 10
0.0
 20
0.0
  9
$PLIMMAX
 10
12.0
 20
9.0
  9
$UNITMODE
 70
     0
  9
$VISRETAIN
 70
     1
  9
$PLINEGEN
 70
     0
  9
$PSLTSCALE
 70
     1
  9
$TREEDEPTH
 70
  3020
  9
$PICKSTYLE
 70
     1
  9
$CMLSTYLE
  2
STANDARD
  9
$CMLJUST
 70
     0
  9
$CMLSCALE
 40
1.0
  9
$PROXYGRAPHICS
 70
     1
  9
$MEASUREMENT
 70
     0
  0
ENDSEC
  0
SECTION
  2
CLASSES
  0
CLASS
  1
ACDBDICTIONARYWDFLT
  2
AcDbDictionaryWithDefault
  3
ObjectDBX Classes
 90
        0
280
     0
281
     0
  0
CLASS
  1
VISUALSTYLE
  2
AcDbVisualStyle
  3
ObjectDBX Classes
 90
     4095
280
     0
281
     0
  0
CLASS
  1
MATERIAL
  2
AcDbMaterial
  3
ObjectDBX Classes
 90
     1153
280
     0
281
     0
  0
CLASS
  1
SCALE
  2
AcDbScale
  3
ObjectDBX Classes
 90
     1153
280
     0
281
     0
  0
CLASS
  1
SUN
  2
AcDbSun
  3
SCENEOE
 90
     1153
280
     0
281
     0
  0
CLASS
  1
DICTIONARYVAR
  2
AcDbDictionaryVar
  3
ObjectDBX Classes
 90
        0
280
     0
281
     0
  0
CLASS
  1
XRECORD
  2
AcDbXrecord
  3
ObjectDBX Classes
 90
        0
280
     0
281
     0
  0
CLASS
  1
LWPOLYLINE
  2
AcDbPolyline
  3
ObjectDBX Classes
 90
        0
280
     0
281
     1
  0
CLASS
  1
HATCH
  2
AcDbHatch
  3
ObjectDBX Classes
 90
        0
280
     0
281
     1
  0
CLASS
  1
ACDBPLACEHOLDER
  2
AcDbPlaceHolder
  3
ObjectDBX Classes
 90
        0
280
     0
281
     0
  0
CLASS
  1
LAYOUT
  2
AcDbLayout
  3
ObjectDBX Classes
 90
        0
280
     0
281
     0
  0
ENDSEC
  0
SECTION
  2
TABLES
  0
TABLE
  2
VPORT
  5
8
102
{ACAD_XDICTIONARY
360
34B
102
}
330
0
100
AcDbSymbolTable
 70
     1
  0
VPORT
  5
29
330
8
100
AcDbSymbolTableRecord
100
AcDbViewportTableRecord
  2
*ACTIVE
 70
     0
 10
0.0
 20
0.0
 11
1.0
 21
1.0
 12
0.0
 22
0.0
 13
0.0
 23
0.0
 14
0.5
 24
0.5
 15
0.5
 25
0.5
 16
0.0
 26
0.0
 36
1.0
 17
0.0
 27
0.0
 37
-1000.0
 40
155.7670113189873
 41
2.199770378874856
 42
50.0
 43
327.3664158458043
 44
428.0545082559831
 50
0.0
 51
0.0
 71
     0
 72
   100
 73
     1
 74
     3
 75
     0
 76
     0
 77
     0
 78
     0
  0
ENDTAB
  0
TABLE
  2
LTYPE
  5
5
330
0
100
AcDbSymbolTable
 70
     1
  0
LTYPE
  5
14
330
5
100
AcDbSymbolTableRecord
100
AcDbLinetypeTableRecord
  2
BYBLOCK
 70
     0
  3

 72
    65
 73
     0
 40
0.0
  0
LTYPE
  5
15
330
5
100
AcDbSymbolTableRecord
100
AcDbLinetypeTableRecord
  2
BYLAYER
 70
     0
  3

 72
    65
 73
     0
 40
0.0
  0
LTYPE
  5
16
330
5
100
AcDbSymbolTableRecord
100
AcDbLinetypeTableRecord
  2
CONTINUOUS
 70
     0
  3
Solid line
 72
    65
 73
     0
 40
0.0
  0
ENDTAB
  0
TABLE
  2
LAYER
  5
2
330
0
100
AcDbSymbolTable
 70
     3
  0
LAYER
  5
10
330
2
100
AcDbSymbolTableRecord
100
AcDbLayerTableRecord
  2
0
 70
     0
 62
     7
  6
CONTINUOUS
  0
LAYER
  5
6A
330
2
100
AcDbSymbolTableRecord
100
AcDbLayerTableRecord
  2
PROFILEEDGES
 70
     0
 62
     7
  6
CONTINUOUS
  0
LAYER
  5
6B
330
2
100
AcDbSymbolTableRecord
100
AcDbLayerTableRecord
  2
SECTIONCUTEDGES
 70
     0
 62
     7
  6
CONTINUOUS
  0
ENDTAB
  0
TABLE
  2
STYLE
  5
3
330
0
100
AcDbSymbolTable
 70
     1
  0
STYLE
  5
11
330
3
100
AcDbSymbolTableRecord
100
AcDbTextStyleTableRecord
  2
STANDARD
 70
     0
 40
0.0
 41
1.0
 50
0.0
 71
     0
 42
0.2
  3
txt
  4

  0
ENDTAB
  0
TABLE
  2
VIEW
  5
6
330
0
100
AcDbSymbolTable
 70
     0
  0
ENDTAB
  0
TABLE
  2
UCS
  5
7
330
0
100
AcDbSymbolTable
 70
     0
  0
ENDTAB
  0
TABLE
  2
APPID
  5
9
330
0
100
AcDbSymbolTable
 70
     1
  0
APPID
  5
12
330
9
100
AcDbSymbolTableRecord
100
AcDbRegAppTableRecord
  2
ACAD
 70
     0
  0
ENDTAB
  0
TABLE
  2
DIMSTYLE
  5
A
330
0
100
AcDbSymbolTable
 70
     1
  0
DIMSTYLE
105
27
330
A
100
AcDbSymbolTableRecord
100
AcDbDimStyleTableRecord
  2
STANDARD
 70
     0
  3

  4

  5

  6

  7

 40
1.0
 41
0.18
 42
0.0625
 43
0.38
 44
0.18
 45
0.0
 46
0.0
 47
0.0
 48
0.0
140
0.18
141
0.09
142
0.0
143
25.4
144
1.0
145
0.0
146
1.0
147
0.09
 71
     0
 72
     0
 73
     1
 74
     1
 75
     0
 76
     0
 77
     0
 78
     0
170
     0
171
     2
172
     0
173
     0
174
     0
175
     0
176
     0
177
     0
178
     0
270
     2
271
     4
272
     4
273
     2
274
     2
340
11
275
     0
280
     0
281
     0
282
     0
283
     1
284
     0
285
     0
286
     0
287
     3
288
     0
  0
ENDTAB
  0
TABLE
  2
BLOCK_RECORD
  5
1
330
0
100
AcDbSymbolTable
 70
     1
  0
BLOCK_RECORD
  5
1F
330
1
100
AcDbSymbolTableRecord
100
AcDbBlockTableRecord
  2
*MODEL_SPACE
  0
BLOCK_RECORD
  5
1B
330
1
100
AcDbSymbolTableRecord
100
AcDbBlockTableRecord
  2
*PAPER_SPACE
  0
ENDTAB
  0
ENDSEC
  0
SECTION
  2
BLOCKS
  0
BLOCK
  5
20
330
1F
100
AcDbEntity
  8
0
100
AcDbBlockBegin
  2
*MODEL_SPACE
 70
     0
 10
0.0
 20
0.0
 30
0.0
  3
*MODEL_SPACE
  1

  0
ENDBLK
  5
21
330
1F
100
AcDbEntity
  8
0
100
AcDbBlockEnd
  0
BLOCK
  5
1C
330
1B
100
AcDbEntity
 67
     1
  8
0
100
AcDbBlockBegin
  2
*PAPER_SPACE
 70
     0
 10
0.0
 20
0.0
 30
0.0
  3
*PAPER_SPACE
  1

  0
ENDBLK
  5
1D
330
1B
100
AcDbEntity
 67
     1
  8
0
100
AcDbBlockEnd
  0
ENDSEC
  0
SECTION
  2
ENTITIES
  0
LINE
  5
6C
330
1F
100
AcDbEntity
  8
0
100
AcDbLine
 10
-52.47345513237855
 20
73.98933037651895
 30
0.0
 11
52.47345513237846
 21
73.98933037651895
 31
0.0
  0
LINE
  5
6D
330
1F
100
AcDbEntity
  8
0
100
AcDbLine
 10
-52.44875398262589
 20
28.51066962348085
 30
0.0
 11
-27.73560471505853
 21
28.51066962348085
 31
0.0
  0
LINE
  5
6E
330
1F
100
AcDbEntity
  8
0
100
AcDbLine
 10
-21.73560376866552
 20
28.51066962348085
 30
0.0
 11
21.73672756618922
 21
28.51066962348085
 31
0.0
  0
LINE
  5
6F
330
1F
100
AcDbEntity
  8
0
100
AcDbLine
 10
27.73672756618921
 20
28.51066962348085
 30
0.0
 11
52.47345513237846
 21
28.51066962348085
 31
0.0
  0
LINE
  5
70
330
1F
100
AcDbEntity
  8
0
100
AcDbLine
 10
2.999999999999949
 20
32.01066962348087
 30
0.0
 11
46.47345513237847
 21
32.01066962348087
 31
0.0
  0
LINE
  5
71
330
1F
100
AcDbEntity
  8
0
100
AcDbLine
 10
-46.47345513237856
 20
32.01066962348087
 30
0.0
 11
-3.00000000000004
 21
32.01066962348087
 31
0.0
  0
LINE
  5
72
330
1F
100
AcDbEntity
  8
0
100
AcDbLine
 10
-21.73560376866552
 20
-73.98933037651895
 30
0.0
 11
21.73672756618922
 21
-73.98933037651895
 31
0.0
  0
LINE
  5
73
330
1F
100
AcDbEntity
  8
0
100
AcDbLine
 10
-52.44875398262589
 20
-73.98933037651895
 30
0.0
 11
-27.73560471505853
 21
-73.98933037651895
 31
0.0
  0
LINE
  5
74
330
1F
100
AcDbEntity
  8
0
100
AcDbLine
 10
27.73672756618921
 20
-73.98933037651895
 30
0.0
 11
52.47345513237846
 21
-73.98933037651895
 31
0.0
  0
LINE
  5
75
330
1F
100
AcDbEntity
  8
0
100
AcDbLine
 10
-52.47345513237855
 20
73.98933037651895
 30
0.0
 11
-52.44875398262589
 21
28.51066962348085
 31
0.0
  0
LINE
  5
76
330
1F
100
AcDbEntity
  8
0
100
AcDbLine
 10
-52.44875398262589
 20
28.51066962348085
 30
0.0
 11
-52.44875398262589
 21
21.51066962348085
 31
0.0
  0
LINE
  5
77
330
1F
100
AcDbEntity
  8
0
100
AcDbLine
 10
52.47345513237846
 20
28.51066962348085
 30
0.0
 11
52.47345513237846
 21
21.51066962348085
 31
0.0
  0
LINE
  5
78
330
1F
100
AcDbEntity
  8
0
100
AcDbLine
 10
21.73672756618922
 20
-73.98933037651895
 30
0.0
 11
27.73672756618921
 21
-73.98933037651895
 31
0.0
  0
LINE
  5
79
330
1F
100
AcDbEntity
  8
0
100
AcDbLine
 10
52.47345513237846
 20
73.98933037651895
 30
0.0
 11
52.47345513237846
 21
28.51066962348085
 31
0.0
  0
LINE
  5
7A
330
1F
100
AcDbEntity
  8
0
100
AcDbLine
 10
-27.73560471505853
 20
-73.98933037651895
 30
0.0
 11
-21.73560376866552
 21
-73.98933037651895
 31
0.0
  0
LINE
  5
7B
330
1F
100
AcDbEntity
  8
0
100
AcDbLine
 10
-43.56865710047084
 20
45.67356893384287
 30
0.0
 11
-33.13529758010571
 21
45.67356893384287
 31
0.0
  0
LINE
  5
7C
330
1F
100
AcDbEntity
  8
0
100
AcDbLine
 10
-43.56865710047084
 20
49.67356893384287
 30
0.0
 11
-33.13529758010571
 21
49.67356893384287
 31
0.0
  0
LINE
  5
7D
330
1F
100
AcDbEntity
  8
0
100
AcDbLine
 10
-49.50574142776188
 20
47.67356893384287
 30
0.0
 11
-39.07211219599122
 21
47.67356893384287
 31
0.0
  0
LINE
  5
7E
330
1F
100
AcDbEntity
  8
0
100
AcDbLine
 10
-37.6321121959912
 20
47.67356893384287
 30
0.0
 11
-27.19848296422028
 21
47.67356893384287
 31
0.0
  0
LINE
  5
7F
330
1F
100
AcDbEntity
  8
0
100
AcDbLine
 10
-45.89817297327952
 20
68.91040536251609
 30
0.0
 11
-46.26726110975888
 21
68.69945216631261
 31
0.0
  0
LINE
  5
80
330
1F
100
AcDbEntity
  8
0
100
AcDbLine
 10
-45.09359705153101
 20
69.1796162571431
 30
0.0
 11
-45.504707519536
 21
69.07137815583418
 31
0.0
  0
LINE
  5
81
330
1F
100
AcDbEntity
  8
0
100
AcDbLine
 10
-42.02065747399944
 20
68.12153197276868
 30
0.0
 11
-42.31994965339288
 21
68.42344503116826
 31
0.0
  0
LINE
  5
82
330
1F
100
AcDbEntity
  8
0
100
AcDbLine
 10
-44.24675948282519
 20
69.23141444120226
 30
0.0
 11
-44.67187578335352
 21
69.23326768252018
 31
0.0
  0
LINE
  5
83
330
1F
100
AcDbEntity
  8
0
100
AcDbLine
 10
-46.26726110975888
 20
68.69945216631261
 30
0.0
 11
-46.6056567286283
 21
68.44212803489803
 31
0.0
  0
LINE
  5
84
330
1F
100
AcDbEntity
  8
0
100
AcDbLine
 10
-47.54639470991014
 20
67.04741466089337
 30
0.0
 11
-47.65821299852178
 21
66.63726350118486
 31
0.0
  0
LINE
  5
85
330
1F
100
AcDbEntity
  8
0
100
AcDbLine
 10
-44.67187578335352
 20
69.23326768252018
 30
0.0
 11
-45.09359705153101
 21
69.1796162571431
 31
0.0
  0
LINE
  5
86
330
1F
100
AcDbEntity
  8
0
100
AcDbLine
 10
-47.16783446882235
 20
67.80669660030124
 30
0.0
 11
-47.38199757314715
 21
67.43946170513983
 31
0.0
  0
LINE
  5
87
330
1F
100
AcDbEntity
  8
0
100
AcDbLine
 10
-45.504707519536
 20
69.07137815583418
 30
0.0
 11
-45.89817297327952
 21
68.91040536251609
 31
0.0
  0
LINE
  5
88
330
1F
100
AcDbEntity
  8
0
100
AcDbLine
 10
-41.2831692517544
 20
66.60947229567137
 30
0.0
 11
-41.39140735306336
 21
67.02058276367639
 31
0.0
  0
LINE
  5
89
330
1F
100
AcDbEntity
  8
0
100
AcDbLine
 10
-41.76333334258484
 20
67.78313635389928
 30
0.0
 11
-42.02065747399944
 21
68.12153197276868
 31
0.0
  0
LINE
  5
8A
330
1F
100
AcDbEntity
  8
0
100
AcDbLine
 10
-41.5523801463814
 20
67.41404821741993
 30
0.0
 11
-41.76333334258484
 21
67.78313635389928
 31
0.0
  0
LINE
  5
8B
330
1F
100
AcDbEntity
  8
0
100
AcDbLine
 10
-46.90756978702787
 20
68.1428358555046
 30
0.0
 11
-47.16783446882235
 21
67.80669660030124
 31
0.0
  0
LINE
  5
8C
330
1F
100
AcDbEntity
  8
0
100
AcDbLine
 10
-46.6056567286283
 20
68.44212803489803
 30
0.0
 11
-46.90756978702787
 21
68.1428358555046
 31
0.0
  0
LINE
  5
8D
330
1F
100
AcDbEntity
  8
0
100
AcDbLine
 10
-47.39453011837572
 20
64.56461253561794
 30
0.0
 11
-47.18357692217229
 21
64.19552439913859
 31
0.0
  0
LINE
  5
8E
330
1F
100
AcDbEntity
  8
0
100
AcDbLine
 10
-43.82552200771266
 20
69.17408824266211
 30
0.0
 11
-44.24675948282519
 21
69.23141444120226
 31
0.0
  0
LINE
  5
8F
330
1F
100
AcDbEntity
  8
0
100
AcDbLine
 10
-42.31994965339288
 20
68.42344503116826
 30
0.0
 11
-42.65608890859626
 21
68.68370971296272
 31
0.0
  0
LINE
  5
90
330
1F
100
AcDbEntity
  8
0
100
AcDbLine
 10
-43.41537084800414
 20
69.0622699540505
 30
0.0
 11
-43.82552200771266
 21
69.17408824266211
 31
0.0
  0
LINE
  5
91
330
1F
100
AcDbEntity
  8
0
100
AcDbLine
 10
-44.27503448140361
 20
62.7453930705177
 30
0.0
 11
-43.85331321322612
 21
62.79904449589477
 31
0.0
  0
LINE
  5
92
330
1F
100
AcDbEntity
  8
0
100
AcDbLine
 10
-42.65608890859626
 20
68.68370971296272
 30
0.0
 11
-43.02332380375765
 21
68.89787281728755
 31
0.0
  0
LINE
  5
93
330
1F
100
AcDbEntity
  8
0
100
AcDbLine
 10
-47.38199757314715
 20
67.43946170513983
 30
0.0
 11
-47.54639470991014
 21
67.04741466089337
 31
0.0
  0
LINE
  5
94
330
1F
100
AcDbEntity
  8
0
100
AcDbLine
 10
-41.23137106769521
 20
65.76263472696554
 30
0.0
 11
-41.22951782637733
 21
66.18775102749385
 31
0.0
  0
LINE
  5
95
330
1F
100
AcDbEntity
  8
0
100
AcDbLine
 10
-44.70015078193194
 20
62.74724631183561
 30
0.0
 11
-44.27503448140361
 21
62.7453930705177
 31
0.0
  0
LINE
  5
96
330
1F
100
AcDbEntity
  8
0
100
AcDbLine
 10
-42.03934047772926
 20
63.83582489753322
 30
0.0
 11
-41.77907579593478
 21
64.1719641527366
 31
0.0
  0
LINE
  5
97
330
1F
100
AcDbEntity
  8
0
100
AcDbLine
 10
-45.92358646099948
 20
63.08078793575032
 30
0.0
 11
-45.53153941675299
 21
62.91639079898736
 31
0.0
  0
LINE
  5
98
330
1F
100
AcDbEntity
  8
0
100
AcDbLine
 10
-41.39140735306336
 20
67.02058276367639
 30
0.0
 11
-41.5523801463814
 21
67.41404821741993
 31
0.0
  0
LINE
  5
99
330
1F
100
AcDbEntity
  8
0
100
AcDbLine
 10
-47.18357692217229
 20
64.19552439913859
 30
0.0
 11
-46.92625279075769
 21
63.85712878026919
 31
0.0
  0
LINE
  5
9A
330
1F
100
AcDbEntity
  8
0
100
AcDbLine
 10
-43.02332380375765
 20
68.89787281728755
 30
0.0
 11
-43.41537084800414
 21
69.0622699540505
 31
0.0
  0
LINE
  5
9B
330
1F
100
AcDbEntity
  8
0
100
AcDbLine
 10
-45.12138825704447
 20
62.80457251037579
 30
0.0
 11
-44.70015078193194
 21
62.74724631183561
 31
0.0
  0
LINE
  5
9C
330
1F
100
AcDbEntity
  8
0
100
AcDbLine
 10
-47.71553919706191
 20
66.21602602607231
 30
0.0
 11
-47.7173924383798
 21
65.79090972554403
 31
0.0
  0
LINE
  5
9D
330
1F
100
AcDbEntity
  8
0
100
AcDbLine
 10
-42.34125353612882
 20
63.53653271813983
 30
0.0
 11
-42.03934047772926
 21
63.83582489753322
 31
0.0
  0
LINE
  5
9E
330
1F
100
AcDbEntity
  8
0
100
AcDbLine
 10
-41.77907579593478
 20
64.1719641527366
 30
0.0
 11
-41.56491269160998
 21
64.53919904789804
 31
0.0
  0
LINE
  5
9F
330
1F
100
AcDbEntity
  8
0
100
AcDbLine
 10
-47.66374101300273
 20
65.36918845736649
 30
0.0
 11
-47.55550291169376
 21
64.95807798936148
 31
0.0
  0
LINE
  5
A0
330
1F
100
AcDbEntity
  8
0
100
AcDbLine
 10
-41.56491269160998
 20
64.53919904789804
 30
0.0
 11
-41.40051555484699
 21
64.9312460921445
 31
0.0
  0
LINE
  5
A1
330
1F
100
AcDbEntity
  8
0
100
AcDbLine
 10
-46.62696061136425
 20
63.55521572186961
 30
0.0
 11
-46.29082135616087
 21
63.29495104007515
 31
0.0
  0
LINE
  5
A2
330
1F
100
AcDbEntity
  8
0
100
AcDbLine
 10
-46.92625279075769
 20
63.85712878026919
 30
0.0
 11
-46.62696061136425
 21
63.55521572186961
 31
0.0
  0
LINE
  5
A3
330
1F
100
AcDbEntity
  8
0
100
AcDbLine
 10
-41.22951782637733
 20
66.18775102749385
 30
0.0
 11
-41.2831692517544
 21
66.60947229567137
 31
0.0
  0
LINE
  5
A4
330
1F
100
AcDbEntity
  8
0
100
AcDbLine
 10
-41.40051555484699
 20
64.9312460921445
 30
0.0
 11
-41.28869726623544
 21
65.34139725185301
 31
0.0
  0
LINE
  5
A5
330
1F
100
AcDbEntity
  8
0
100
AcDbLine
 10
-42.67964915499824
 20
63.27920858672523
 30
0.0
 11
-42.34125353612882
 21
63.53653271813983
 31
0.0
  0
LINE
  5
A6
330
1F
100
AcDbEntity
  8
0
100
AcDbLine
 10
-47.65821299852178
 20
66.63726350118486
 30
0.0
 11
-47.71553919706191
 21
66.21602602607231
 31
0.0
  0
LINE
  5
A7
330
1F
100
AcDbEntity
  8
0
100
AcDbLine
 10
-43.85331321322612
 20
62.79904449589477
 30
0.0
 11
-43.44220274522113
 21
62.90728259720369
 31
0.0
  0
LINE
  5
A8
330
1F
100
AcDbEntity
  8
0
100
AcDbLine
 10
-41.28869726623544
 20
65.34139725185301
 30
0.0
 11
-41.23137106769521
 21
65.76263472696554
 31
0.0
  0
LINE
  5
A9
330
1F
100
AcDbEntity
  8
0
100
AcDbLine
 10
-43.04873729147761
 20
63.06825539052178
 30
0.0
 11
-42.67964915499824
 21
63.27920858672523
 31
0.0
  0
LINE
  5
AA
330
1F
100
AcDbEntity
  8
0
100
AcDbLine
 10
-47.55550291169376
 20
64.95807798936148
 30
0.0
 11
-47.39453011837572
 21
64.56461253561794
 31
0.0
  0
LINE
  5
AB
330
1F
100
AcDbEntity
  8
0
100
AcDbLine
 10
-43.44220274522113
 20
62.90728259720369
 30
0.0
 11
-43.04873729147761
 21
63.06825539052178
 31
0.0
  0
LINE
  5
AC
330
1F
100
AcDbEntity
  8
0
100
AcDbLine
 10
-47.7173924383798
 20
65.79090972554403
 30
0.0
 11
-47.66374101300273
 21
65.36918845736649
 31
0.0
  0
LINE
  5
AD
330
1F
100
AcDbEntity
  8
0
100
AcDbLine
 10
-46.29082135616087
 20
63.29495104007515
 30
0.0
 11
-45.92358646099948
 21
63.08078793575032
 31
0.0
  0
LINE
  5
AE
330
1F
100
AcDbEntity
  8
0
100
AcDbLine
 10
-45.53153941675299
 20
62.91639079898736
 30
0.0
 11
-45.12138825704447
 21
62.80457251037579
 31
0.0
  0
LINE
  5
AF
330
1F
100
AcDbEntity
  8
0
100
AcDbLine
 10
50.44669808948173
 20
67.3065391325883
 30
0.0
 11
49.03336571327281
 21
68.6049560950702
 31
0.0
  0
LINE
  5
B0
330
1F
100
AcDbEntity
  8
0
100
AcDbLine
 10
49.03336571327281
 20
68.6049560950702
 30
0.0
 11
48.11531452980672
 21
68.90220961913938
 31
0.0
  0
LINE
  5
B1
330
1F
100
AcDbEntity
  8
0
100
AcDbLine
 10
41.50704217731894
 20
66.74298715899644
 30
0.0
 11
42.53397983278254
 21
66.15203390769288
 31
0.0
  0
LINE
  5
B2
330
1F
100
AcDbEntity
  8
0
100
AcDbLine
 10
48.7467132421305
 20
67.61142541476485
 30
0.0
 11
50.44669808948173
 21
67.3065391325883
 31
0.0
  0
LINE
  5
B3
330
1F
100
AcDbEntity
  8
0
100
AcDbLine
 10
42.29957689413107
 20
66.03653299195048
 30
0.0
 11
41.02914671137611
 21
59.88580208378608
 31
0.0
  0
LINE
  5
B4
330
1F
100
AcDbEntity
  8
0
100
AcDbLine
 10
42.481066920239
 20
71.49989162833721
 30
0.0
 11
34.69734981922112
 21
72.01467875846556
 31
0.0
  0
LINE
  5
B5
330
1F
100
AcDbEntity
  8
0
100
AcDbLine
 10
44.17002667254632
 20
63.19926718660557
 30
0.0
 11
44.46770423873255
 21
63.38202933906462
 31
0.0
  0
LINE
  5
B6
330
1F
100
AcDbEntity
  8
0
100
AcDbLine
 10
42.29957689413107
 20
66.03653299195048
 30
0.0
 11
44.17002667254632
 21
63.19926718660557
 31
0.0
  0
LINE
  5
B7
330
1F
100
AcDbEntity
  8
0
100
AcDbLine
 10
45.11691271997353
 20
62.58822249590138
 30
0.0
 11
44.46770423873255
 21
63.38202933906462
 31
0.0
  0
LINE
  5
B8
330
1F
100
AcDbEntity
  8
0
100
AcDbLine
 10
48.13566855142629
 20
65.24399827513844
 30
0.0
 11
48.7467132421305
 21
67.61142541476485
 31
0.0
  0
LINE
  5
B9
330
1F
100
AcDbEntity
  8
0
100
AcDbLine
 10
44.74417969906508
 20
64.88017013868856
 30
0.0
 11
48.09665667665539
 21
65.5204737354709
 31
0.0
  0
LINE
  5
BA
330
1F
100
AcDbEntity
  8
0
100
AcDbLine
 10
48.11531452980672
 20
68.90220961913938
 30
0.0
 11
45.93134788182019
 21
67.82607060294593
 31
0.0
  0
LINE
  5
BB
330
1F
100
AcDbEntity
  8
0
100
AcDbLine
 10
41.02914671137611
 20
59.88580208378608
 30
0.0
 11
45.11691271997353
 21
62.58822249590138
 31
0.0
  0
LINE
  5
BC
330
1F
100
AcDbEntity
  8
0
100
AcDbLine
 10
42.481066920239
 20
71.49989162833721
 30
0.0
 11
41.50704217731894
 21
66.74298715899644
 31
0.0
  0
LINE
  5
BD
330
1F
100
AcDbEntity
  8
0
100
AcDbLine
 10
34.64010413341596
 20
71.13606349188737
 30
0.0
 11
38.97975115955558
 21
68.69909344506073
 31
0.0
  0
LINE
  5
BE
330
1F
100
AcDbEntity
  8
0
100
AcDbLine
 10
49.03336571327281
 20
68.6049560950702
 30
0.0
 11
48.7467132421305
 21
67.61142541476485
 31
0.0
  0
LINE
  5
BF
330
1F
100
AcDbEntity
  8
0
100
AcDbLine
 10
48.09665667665539
 20
65.5204737354709
 30
0.0
 11
45.93134788182019
 21
67.82607060294593
 31
0.0
  0
LINE
  5
C0
330
1F
100
AcDbEntity
  8
0
100
AcDbLine
 10
35.8329346087462
 20
71.13606349188737
 30
0.0
 11
34.64010413341596
 21
71.13606349188737
 31
0.0
  0
LINE
  5
C1
330
1F
100
AcDbEntity
  8
0
100
AcDbLine
 10
34.69734981922112
 20
72.01467875846556
 30
0.0
 11
35.8329346087462
 21
71.13606349188737
 31
0.0
  0
LINE
  5
C2
330
1F
100
AcDbEntity
  8
0
100
AcDbLine
 10
35.8329346087462
 20
71.13606349188737
 30
0.0
 11
38.97975115955558
 21
68.69909344506073
 31
0.0
  0
LINE
  5
C3
330
1F
100
AcDbEntity
  8
0
100
AcDbLine
 10
44.46770423873255
 20
63.38202933906462
 30
0.0
 11
44.5436077776889
 21
63.42019312960136
 31
0.0
  0
LINE
  5
C4
330
1F
100
AcDbEntity
  8
0
100
AcDbLine
 10
42.53397983278254
 20
66.15203390769288
 30
0.0
 11
42.29957689413107
 21
66.03653299195048
 31
0.0
  0
LINE
  5
C5
330
1F
100
AcDbEntity
  8
0
100
AcDbLine
 10
45.93134788182019
 20
67.82607060294593
 30
0.0
 11
42.53397983278254
 21
66.15203390769288
 31
0.0
  0
LINE
  5
C6
330
1F
100
AcDbEntity
  8
0
100
AcDbLine
 10
45.93134788182019
 20
67.82607060294593
 30
0.0
 11
42.481066920239
 21
71.49989162833721
 31
0.0
  0
LINE
  5
C7
330
1F
100
AcDbEntity
  8
0
100
AcDbLine
 10
44.5436077776889
 20
63.42019312960136
 30
0.0
 11
48.13566855142629
 21
65.24399827513844
 31
0.0
  0
LINE
  5
C8
330
1F
100
AcDbEntity
  8
0
100
AcDbLine
 10
38.97975115955558
 20
68.69909344506073
 30
0.0
 11
41.50704217731894
 21
66.74298715899644
 31
0.0
  0
LINE
  5
C9
330
1F
100
AcDbEntity
  8
0
100
AcDbLine
 10
42.53397983278254
 20
66.15203390769288
 30
0.0
 11
44.74417969906508
 21
64.88017013868856
 31
0.0
  0
LINE
  5
CA
330
1F
100
AcDbEntity
  8
0
100
AcDbLine
 10
-52.44875398262589
 20
-73.7393303765192
 30
0.0
 11
-27.73560471505853
 21
-73.7393303765192
 31
0.0
  0
LINE
  5
CB
330
1F
100
AcDbEntity
  8
0
100
AcDbLine
 10
-21.73560376866552
 20
-73.7393303765192
 30
0.0
 11
21.73672756618922
 21
-73.7393303765192
 31
0.0
  0
LINE
  5
CC
330
1F
100
AcDbEntity
  8
0
100
AcDbLine
 10
27.73672756618921
 20
-73.7393303765192
 30
0.0
 11
52.47345513237846
 21
-73.7393303765192
 31
0.0
  0
LINE
  5
CD
330
1F
100
AcDbEntity
  8
0
100
AcDbLine
 10
-52.44875398262589
 20
-73.7393303765192
 30
0.0
 11
-52.44875398262589
 21
-73.98933037651895
 31
0.0
  0
LINE
  5
CE
330
1F
100
AcDbEntity
  8
0
100
AcDbLine
 10
52.47345513237846
 20
-73.7393303765192
 30
0.0
 11
52.47345513237846
 21
-73.98933037651895
 31
0.0
  0
LINE
  5
CF
330
1F
100
AcDbEntity
  8
0
100
AcDbLine
 10
-19.47190628280273
 20
61.80664587527233
 30
0.0
 11
-19.52849582002607
 21
61.21698289740513
 31
0.0
  0
LINE
  5
D0
330
1F
100
AcDbEntity
  8
0
100
AcDbLine
 10
-19.52849582002607
 20
61.21698289740513
 30
0.0
 11
-19.69826443169609
 21
60.69749094569486
 31
0.0
  0
LINE
  5
D1
330
1F
100
AcDbEntity
  8
0
100
AcDbLine
 10
-19.69826443169609
 20
60.69749094569486
 30
0.0
 11
-19.98121211781279
 21
60.24817002014155
 31
0.0
  0
LINE
  5
D2
330
1F
100
AcDbEntity
  8
0
100
AcDbLine
 10
-19.98121211781279
 20
60.24817002014155
 30
0.0
 11
-20.37733887837617
 21
59.86902012074516
 31
0.0
  0
LINE
  5
D3
330
1F
100
AcDbEntity
  8
0
100
AcDbLine
 10
-20.37733887837617
 20
59.86902012074516
 30
0.0
 11
-20.87872217817497
 21
59.56796378271699
 31
0.0
  0
LINE
  5
D4
330
1F
100
AcDbEntity
  8
0
100
AcDbLine
 10
-20.87872217817497
 20
59.56796378271699
 30
0.0
 11
-21.4774394819979
 21
59.35292354126831
 31
0.0
  0
LINE
  5
D5
330
1F
100
AcDbEntity
  8
0
100
AcDbLine
 10
-21.4774394819979
 20
59.35292354126831
 30
0.0
 11
-22.17349078984499
 21
59.22389939639909
 31
0.0
  0
LINE
  5
D6
330
1F
100
AcDbEntity
  8
0
100
AcDbLine
 10
-22.17349078984499
 20
59.22389939639909
 30
0.0
 11
-22.96687610171621
 21
59.18089134810935
 31
0.0
  0
LINE
  5
D7
330
1F
100
AcDbEntity
  8
0
100
AcDbLine
 10
-22.96687610171621
 20
59.18089134810935
 30
0.0
 11
-24.21033686630374
 21
59.28652515092625
 31
0.0
  0
LINE
  5
D8
330
1F
100
AcDbEntity
  8
0
100
AcDbLine
 10
-24.21033686630374
 20
59.28652515092625
 30
0.0
 11
-25.26667489447275
 21
59.56720925555402
 31
0.0
  0
LINE
  5
D9
330
1F
100
AcDbEntity
  8
0
100
AcDbLine
 10
-25.26667489447275
 20
59.56720925555402
 30
0.0
 11
-25.26667489447275
 21
61.58330583503088
 31
0.0
  0
LINE
  5
DA
330
1F
100
AcDbEntity
  8
0
100
AcDbLine
 10
-25.26667489447275
 20
61.58330583503088
 30
0.0
 11
-24.83357630292346
 21
61.36751106641921
 31
0.0
  0
LINE
  5
DB
330
1F
100
AcDbEntity
  8
0
100
AcDbLine
 10
-24.83357630292346
 20
61.36751106641921
 30
0.0
 11
-24.34313364698784
 21
61.20302414489004
 31
0.0
  0
LINE
  5
DC
330
1F
100
AcDbEntity
  8
0
100
AcDbLine
 10
-24.34313364698784
 20
61.20302414489004
 30
0.0
 11
-23.82100085020716
 21
61.09889939639909
 31
0.0
  0
LINE
  5
DD
330
1F
100
AcDbEntity
  8
0
100
AcDbLine
 10
-23.82100085020716
 20
61.09889939639909
 30
0.0
 11
-23.29283183612265
 21
61.06419114690211
 31
0.0
  0
LINE
  5
DE
330
1F
100
AcDbEntity
  8
0
100
AcDbLine
 10
-23.29283183612265
 20
61.06419114690211
 30
0.0
 11
-22.74881775161561
 21
61.1192716297995
 31
0.0
  0
LINE
  5
DF
330
1F
100
AcDbEntity
  8
0
100
AcDbLine
 10
-22.74881775161561
 20
61.1192716297995
 30
0.0
 11
-22.34816382807436
 21
61.28451307849165
 31
0.0
  0
LINE
  5
E0
330
1F
100
AcDbEntity
  8
0
100
AcDbLine
 10
-22.34816382807436
 20
61.28451307849165
 30
0.0
 11
-22.1014334457806
 21
61.55237022134879
 31
0.0
  0
LINE
  5
E1
330
1F
100
AcDbEntity
  8
0
100
AcDbLine
 10
-22.1014334457806
 20
61.55237022134879
 30
0.0
 11
-22.01918998501601
 21
61.91529778674114
 31
0.0
  0
LINE
  5
E2
330
1F
100
AcDbEntity
  8
0
100
AcDbLine
 10
-22.01918998501601
 20
61.91529778674114
 30
0.0
 11
-22.12029662485505
 21
62.28652515092625
 31
0.0
  0
LINE
  5
E3
330
1F
100
AcDbEntity
  8
0
100
AcDbLine
 10
-22.12029662485505
 20
62.28652515092625
 30
0.0
 11
-22.42361654437215
 21
62.56720925555402
 31
0.0
  0
LINE
  5
E4
330
1F
100
AcDbEntity
  8
0
100
AcDbLine
 10
-22.42361654437215
 20
62.56720925555402
 30
0.0
 11
-22.90802298300394
 21
62.74376861169083
 31
0.0
  0
LINE
  5
E5
330
1F
100
AcDbEntity
  8
0
100
AcDbLine
 10
-22.90802298300394
 20
62.74376861169083
 30
0.0
 11
-23.55238918018704
 21
62.80262173040311
 31
0.0
  0
LINE
  5
E6
330
1F
100
AcDbEntity
  8
0
100
AcDbLine
 10
-23.55238918018704
 20
62.80262173040311
 30
0.0
 11
-24.3853871681146
 21
62.80262173040311
 31
0.0
  0
LINE
  5
E7
330
1F
100
AcDbEntity
  8
0
100
AcDbLine
 10
-24.3853871681146
 20
62.80262173040311
 30
0.0
 11
-24.3853871681146
 21
64.69799396380351
 31
0.0
  0
LINE
  5
E8
330
1F
100
AcDbEntity
  8
0
100
AcDbLine
 10
-24.3853871681146
 20
64.69799396380351
 30
0.0
 11
-23.6489686570482
 21
64.69799396380351
 31
0.0
  0
LINE
  5
E9
330
1F
100
AcDbEntity
  8
0
100
AcDbLine
 10
-23.6489686570482
 20
64.69799396380351
 30
0.0
 11
-23.01441131298382
 21
64.75458350102686
 31
0.0
  0
LINE
  5
EA
330
1F
100
AcDbEntity
  8
0
100
AcDbLine
 10
-23.01441131298382
 20
64.75458350102686
 30
0.0
 11
-22.57150386831581
 21
64.92435211269688
 31
0.0
  0
LINE
  5
EB
330
1F
100
AcDbEntity
  8
0
100
AcDbLine
 10
-22.57150386831581
 20
64.92435211269688
 30
0.0
 11
-22.31119199708844
 21
65.18466398392424
 31
0.0
  0
LINE
  5
EC
330
1F
100
AcDbEntity
  8
0
100
AcDbLine
 10
-22.31119199708844
 20
65.18466398392424
 30
0.0
 11
-22.22442137334599
 21
65.51288329981962
 31
0.0
  0
LINE
  5
ED
330
1F
100
AcDbEntity
  8
0
100
AcDbLine
 10
-22.22442137334599
 20
65.51288329981962
 30
0.0
 11
-22.29006523652506
 21
65.82073038231458
 31
0.0
  0
LINE
  5
EE
330
1F
100
AcDbEntity
  8
0
100
AcDbLine
 10
-22.29006523652506
 20
65.82073038231458
 30
0.0
 11
-22.48699682606229
 21
66.05614285716368
 31
0.0
  0
LINE
  5
EF
330
1F
100
AcDbEntity
  8
0
100
AcDbLine
 10
-22.48699682606229
 20
66.05614285716368
 30
0.0
 11
-22.81974330493553
 21
66.20553923543328
 31
0.0
  0
LINE
  5
F0
330
1F
100
AcDbEntity
  8
0
100
AcDbLine
 10
-22.81974330493553
 20
66.20553923543328
 30
0.0
 11
-23.29283183612265
 21
66.25533802818984
 31
0.0
  0
LINE
  5
F1
330
1F
100
AcDbEntity
  8
0
100
AcDbLine
 10
-23.29283183612265
 20
66.25533802818984
 30
0.0
 11
-24.13186604135404
 21
66.13461368211337
 31
0.0
  0
LINE
  5
F2
330
1F
100
AcDbEntity
  8
0
100
AcDbLine
 10
-24.13186604135404
 20
66.13461368211337
 30
0.0
 11
-24.97090024658543
 21
65.77244064388401
 31
0.0
  0
LINE
  5
F3
330
1F
100
AcDbEntity
  8
0
100
AcDbLine
 10
-24.97090024658543
 20
65.77244064388401
 30
0.0
 11
-24.97090024658543
 21
67.69799396380351
 31
0.0
  0
LINE
  5
F4
330
1F
100
AcDbEntity
  8
0
100
AcDbLine
 10
-24.97090024658543
 20
67.69799396380351
 30
0.0
 11
-23.89343545785303
 21
68.02394969820995
 31
0.0
  0
LINE
  5
F5
330
1F
100
AcDbEntity
  8
0
100
AcDbLine
 10
-23.89343545785303
 20
68.02394969820995
 30
0.0
 11
-22.76164471338623
 21
68.13260160967876
 31
0.0
  0
LINE
  5
F6
330
1F
100
AcDbEntity
  8
0
100
AcDbLine
 10
-22.76164471338623
 20
68.13260160967876
 30
0.0
 11
-22.08219300312466
 21
68.09600704227435
 31
0.0
  0
LINE
  5
F7
330
1F
100
AcDbEntity
  8
0
100
AcDbLine
 10
-22.08219300312466
 20
68.09600704227435
 30
0.0
 11
-21.48045759064981
 21
67.98622334006106
 31
0.0
  0
LINE
  5
F8
330
1F
100
AcDbEntity
  8
0
100
AcDbLine
 10
-21.48045759064981
 20
67.98622334006106
 30
0.0
 11
-20.95643847596168
 21
67.80325050303894
 31
0.0
  0
LINE
  5
F9
330
1F
100
AcDbEntity
  8
0
100
AcDbLine
 10
-20.95643847596168
 20
67.80325050303894
 30
0.0
 11
-20.51013565906027
 21
67.54708853120793
 31
0.0
  0
LINE
  5
FA
330
1F
100
AcDbEntity
  8
0
100
AcDbLine
 10
-20.51013565906027
 20
67.54708853120793
 30
0.0
 11
-20.15362157455324
 21
67.22603722336086
 31
0.0
  0
LINE
  5
FB
330
1F
100
AcDbEntity
  8
0
100
AcDbLine
 10
-20.15362157455324
 20
67.22603722336086
 30
0.0
 11
-19.8989686570482
 21
66.84839637829045
 31
0.0
  0
LINE
  5
FC
330
1F
100
AcDbEntity
  8
0
100
AcDbLine
 10
-19.8989686570482
 20
66.84839637829045
 30
0.0
 11
-19.74617690654519
 21
66.41416599599667
 31
0.0
  0
LINE
  5
FD
330
1F
100
AcDbEntity
  8
0
100
AcDbLine
 10
-19.74617690654519
 20
66.41416599599667
 30
0.0
 11
-19.69524632304418
 21
65.92334607647958
 31
0.0
  0
LINE
  5
FE
330
1F
100
AcDbEntity
  8
0
100
AcDbLine
 10
-19.69524632304418
 20
65.92334607647958
 30
0.0
 11
-19.80465276167597
 21
65.17938229378339
 31
0.0
  0
LINE
  5
FF
330
1F
100
AcDbEntity
  8
0
100
AcDbLine
 10
-19.80465276167597
 20
65.17938229378339
 30
0.0
 11
-20.13287207757134
 21
64.56519718311941
 31
0.0
  0
LINE
  5
100
330
1F
100
AcDbEntity
  8
0
100
AcDbLine
 10
-20.13287207757134
 20
64.56519718311941
 30
0.0
 11
-20.65877751016692
 21
64.11097183100674
 31
0.0
  0
LINE
  5
101
330
1F
100
AcDbEntity
  8
0
100
AcDbLine
 10
-20.65877751016692
 20
64.11097183100674
 30
0.0
 11
-21.36124229889931
 21
63.84688732396448
 31
0.0
  0
LINE
  5
102
330
1F
100
AcDbEntity
  8
0
100
AcDbLine
 10
-21.36124229889931
 20
63.84688732396448
 30
0.0
 11
-21.36124229889931
 21
63.81670623744537
 31
0.0
  0
LINE
  5
103
330
1F
100
AcDbEntity
  8
0
100
AcDbLine
 10
-21.36124229889931
 20
63.81670623744537
 30
0.0
 11
-20.57804310372828
 21
63.58959356138903
 31
0.0
  0
LINE
  5
104
330
1F
100
AcDbEntity
  8
0
100
AcDbLine
 10
-20.57804310372828
 20
63.58959356138903
 30
0.0
 11
-20.25548274155525
 21
63.39624597587596
 31
0.0
  0
LINE
  5
105
330
1F
100
AcDbEntity
  8
0
100
AcDbLine
 10
-20.25548274155525
 20
63.39624597587596
 30
0.0
 11
-19.97894853632386
 21
63.14970422537294
 31
0.0
  0
LINE
  5
106
330
1F
100
AcDbEntity
  8
0
100
AcDbLine
 10
-19.97894853632386
 20
63.14970422537294
 30
0.0
 11
-19.75711755040837
 21
62.86090895374315
 31
0.0
  0
LINE
  5
107
330
1F
100
AcDbEntity
  8
0
100
AcDbLine
 10
-19.75711755040837
 20
62.86090895374315
 30
0.0
 11
-19.59866684618301
 21
62.54080080484979
 31
0.0
  0
LINE
  5
108
330
1F
100
AcDbEntity
  8
0
100
AcDbLine
 10
-19.59866684618301
 20
62.54080080484979
 30
0.0
 11
-19.5035964236478
 21
62.18937977869285
 31
0.0
  0
LINE
  5
109
330
1F
100
AcDbEntity
  8
0
100
AcDbLine
 10
-19.5035964236478
 20
62.18937977869285
 30
0.0
 11
-19.47190628280273
 21
61.80664587527233
 31
0.0
  0
LINE
  5
10A
330
1F
100
AcDbEntity
  8
0
100
AcDbLine
 10
-15.1741195624808
 20
60.40624346078541
 30
0.0
 11
-15.27069903934197
 21
59.90976458754597
 31
0.0
  0
LINE
  5
10B
330
1F
100
AcDbEntity
  8
0
100
AcDbLine
 10
-15.27069903934197
 20
59.90976458754597
 30
0.0
 11
-15.56043746992547
 21
59.51891951712343
 31
0.0
  0
LINE
  5
10C
330
1F
100
AcDbEntity
  8
0
100
AcDbLine
 10
-15.56043746992547
 20
59.51891951712343
 30
0.0
 11
-16.02069903934197
 21
59.26539839036287
 31
0.0
  0
LINE
  5
10D
330
1F
100
AcDbEntity
  8
0
100
AcDbLine
 10
-16.02069903934197
 20
59.26539839036287
 30
0.0
 11
-16.62884793270213
 21
59.18089134810935
 31
0.0
  0
LINE
  5
10E
330
1F
100
AcDbEntity
  8
0
100
AcDbLine
 10
-16.62884793270213
 20
59.18089134810935
 30
0.0
 11
-17.19398877777255
 21
59.26917102617776
 31
0.0
  0
LINE
  5
10F
330
1F
100
AcDbEntity
  8
0
100
AcDbLine
 10
-17.19398877777255
 20
59.26917102617776
 30
0.0
 11
-17.6459505483963
 21
59.53401006038299
 31
0.0
  0
LINE
  5
110
330
1F
100
AcDbEntity
  8
0
100
AcDbLine
 10
-17.6459505483963
 20
59.53401006038299
 30
0.0
 11
-17.9424797234466
 21
59.92862776662042
 31
0.0
  0
LINE
  5
111
330
1F
100
AcDbEntity
  8
0
100
AcDbLine
 10
-17.9424797234466
 20
59.92862776662042
 30
0.0
 11
-18.04132278179669
 21
60.40624346078541
 31
0.0
  0
LINE
  5
112
330
1F
100
AcDbEntity
  8
0
100
AcDbLine
 10
-18.04132278179669
 20
60.40624346078541
 30
0.0
 11
-17.94398877777255
 21
60.88687726360231
 31
0.0
  0
LINE
  5
113
330
1F
100
AcDbEntity
  8
0
100
AcDbLine
 10
-17.94398877777255
 20
60.88687726360231
 30
0.0
 11
-17.65198676570012
 21
61.26640442658017
 31
0.0
  0
LINE
  5
114
330
1F
100
AcDbEntity
  8
0
100
AcDbLine
 10
-17.65198676570012
 20
61.26640442658017
 30
0.0
 11
-17.19549783209851
 21
61.51313480887394
 31
0.0
  0
LINE
  5
115
330
1F
100
AcDbEntity
  8
0
100
AcDbLine
 10
-17.19549783209851
 20
61.51313480887394
 30
0.0
 11
-16.60470306348684
 21
61.59537826963853
 31
0.0
  0
LINE
  5
116
330
1F
100
AcDbEntity
  8
0
100
AcDbLine
 10
-16.60470306348684
 20
61.59537826963853
 30
0.0
 11
-16.02598072948281
 21
61.51313480887394
 31
0.0
  0
LINE
  5
117
330
1F
100
AcDbEntity
  8
0
100
AcDbLine
 10
-16.02598072948281
 20
61.51313480887394
 30
0.0
 11
-15.5694917958812
 21
61.26640442658017
 31
0.0
  0
LINE
  5
118
330
1F
100
AcDbEntity
  8
0
100
AcDbLine
 10
-15.5694917958812
 20
61.26640442658017
 30
0.0
 11
-15.2729626208309
 21
60.88687726360231
 31
0.0
  0
LINE
  5
119
330
1F
100
AcDbEntity
  8
0
100
AcDbLine
 10
-15.2729626208309
 20
60.88687726360231
 30
0.0
 11
-15.1741195624808
 21
60.40624346078541
 31
0.0
  0
LINE
  5
11A
330
1F
100
AcDbEntity
  8
0
100
AcDbLine
 10
-8.051383143969732
 20
62.25936217305905
 30
0.0
 11
-8.156262419623657
 21
61.41806438633873
 31
0.0
  0
LINE
  5
11B
330
1F
100
AcDbEntity
  8
0
100
AcDbLine
 10
-8.156262419623657
 20
61.41806438633873
 30
0.0
 11
-8.470900246585426
 21
60.66881891350171
 31
0.0
  0
LINE
  5
11C
330
1F
100
AcDbEntity
  8
0
100
AcDbLine
 10
-8.470900246585426
 20
60.66881891350171
 30
0.0
 11
-8.983224190247396
 21
60.04331589539305
 31
0.0
  0
LINE
  5
11D
330
1F
100
AcDbEntity
  8
0
100
AcDbLine
 10
-8.983224190247396
 20
60.04331589539305
 30
0.0
 11
-9.681161816001925
 21
59.57324547285784
 31
0.0
  0
LINE
  5
11E
330
1F
100
AcDbEntity
  8
0
100
AcDbLine
 10
-9.681161816001925
 20
59.57324547285784
 30
0.0
 11
-10.54283183612265
 21
59.27897987929646
 31
0.0
  0
LINE
  5
11F
330
1F
100
AcDbEntity
  8
0
100
AcDbLine
 10
-10.54283183612265
 20
59.27897987929646
 30
0.0
 11
-11.54635296288322
 21
59.18089134810935
 31
0.0
  0
LINE
  5
120
330
1F
100
AcDbEntity
  8
0
100
AcDbLine
 10
-11.54635296288322
 20
59.18089134810935
 30
0.0
 11
-12.79283183612265
 21
59.28350704227434
 31
0.0
  0
LINE
  5
121
330
1F
100
AcDbEntity
  8
0
100
AcDbLine
 10
-12.79283183612265
 20
59.28350704227434
 30
0.0
 11
-13.8582241902474
 21
59.54306438633873
 31
0.0
  0
LINE
  5
122
330
1F
100
AcDbEntity
  8
0
100
AcDbLine
 10
-13.8582241902474
 20
59.54306438633873
 30
0.0
 11
-13.8582241902474
 21
61.54708853120794
 31
0.0
  0
LINE
  5
123
330
1F
100
AcDbEntity
  8
0
100
AcDbLine
 10
-13.8582241902474
 20
61.54708853120794
 30
0.0
 11
-12.92713767113271
 21
61.18491549297858
 31
0.0
  0
LINE
  5
124
330
1F
100
AcDbEntity
  8
0
100
AcDbLine
 10
-12.92713767113271
 20
61.18491549297858
 30
0.0
 11
-11.94474330493553
 21
61.06419114690211
 31
0.0
  0
LINE
  5
125
330
1F
100
AcDbEntity
  8
0
100
AcDbLine
 10
-11.94474330493553
 20
61.06419114690211
 30
0.0
 11
-11.36149380795364
 21
61.12455331994033
 31
0.0
  0
LINE
  5
126
330
1F
100
AcDbEntity
  8
0
100
AcDbLine
 10
-11.36149380795364
 20
61.12455331994033
 30
0.0
 11
-10.93971312384901
 21
61.30563983905503
 31
0.0
  0
LINE
  5
127
330
1F
100
AcDbEntity
  8
0
100
AcDbLine
 10
-10.93971312384901
 20
61.30563983905503
 30
0.0
 11
-10.68392841559951
 21
61.59688732396447
 31
0.0
  0
LINE
  5
128
330
1F
100
AcDbEntity
  8
0
100
AcDbLine
 10
-10.68392841559951
 20
61.59688732396447
 30
0.0
 11
-10.59866684618301
 21
61.98773239438702
 31
0.0
  0
LINE
  5
129
330
1F
100
AcDbEntity
  8
0
100
AcDbLine
 10
-10.59866684618301
 20
61.98773239438702
 30
0.0
 11
-10.69750990453312
 21
62.40498591551378
 31
0.0
  0
LINE
  5
12A
330
1F
100
AcDbEntity
  8
0
100
AcDbLine
 10
-10.69750990453312
 20
62.40498591551378
 30
0.0
 11
-10.99403907958342
 21
62.70302414489004
 31
0.0
  0
LINE
  5
12B
330
1F
100
AcDbEntity
  8
0
100
AcDbLine
 10
-10.99403907958342
 20
62.70302414489004
 30
0.0
 11
-11.48825437133392
 21
62.8818470825158
 31
0.0
  0
LINE
  5
12C
330
1F
100
AcDbEntity
  8
0
100
AcDbLine
 10
-11.48825437133392
 20
62.8818470825158
 30
0.0
 11
-12.18015577978462
 21
62.94145472839104
 31
0.0
  0
LINE
  5
12D
330
1F
100
AcDbEntity
  8
0
100
AcDbLine
 10
-12.18015577978462
 20
62.94145472839104
 30
0.0
 11
-12.94222821439227
 21
62.90372837024215
 31
0.0
  0
LINE
  5
12E
330
1F
100
AcDbEntity
  8
0
100
AcDbLine
 10
-12.94222821439227
 20
62.90372837024215
 30
0.0
 11
-13.6469565846136
 21
62.79054929579546
 31
0.0
  0
LINE
  5
12F
330
1F
100
AcDbEntity
  8
0
100
AcDbLine
 10
-13.6469565846136
 20
62.79054929579546
 30
0.0
 11
-13.32100085020716
 21
67.98773239438702
 31
0.0
  0
LINE
  5
130
330
1F
100
AcDbEntity
  8
0
100
AcDbLine
 10
-13.32100085020716
 20
67.98773239438702
 30
0.0
 11
-8.431664834110578
 21
67.98773239438702
 31
0.0
  0
LINE
  5
131
330
1F
100
AcDbEntity
  8
0
100
AcDbLine
 10
-8.431664834110578
 20
67.98773239438702
 30
0.0
 11
-8.431664834110578
 21
65.98370824951779
 31
0.0
  0
LINE
  5
132
330
1F
100
AcDbEntity
  8
0
100
AcDbLine
 10
-8.431664834110578
 20
65.98370824951779
 30
0.0
 11
-11.32904913994559
 21
65.98370824951779
 31
0.0
  0
LINE
  5
133
330
1F
100
AcDbEntity
  8
0
100
AcDbLine
 10
-11.32904913994559
 20
65.98370824951779
 30
0.0
 11
-11.41355618219911
 21
64.77042857144939
 31
0.0
  0
LINE
  5
134
330
1F
100
AcDbEntity
  8
0
100
AcDbLine
 10
-11.41355618219911
 20
64.77042857144939
 30
0.0
 11
-10.75560849608241
 21
64.80664587527232
 31
0.0
  0
LINE
  5
135
330
1F
100
AcDbEntity
  8
0
100
AcDbLine
 10
-10.75560849608241
 20
64.80664587527232
 30
0.0
 11
-10.1561366650965
 21
64.76382645877334
 31
0.0
  0
LINE
  5
136
330
1F
100
AcDbEntity
  8
0
100
AcDbLine
 10
-10.1561366650965
 20
64.76382645877334
 30
0.0
 11
-9.625326805941565
 21
64.63536820927635
 31
0.0
  0
LINE
  5
137
330
1F
100
AcDbEntity
  8
0
100
AcDbLine
 10
-9.625326805941565
 20
64.63536820927635
 30
0.0
 11
-9.163178918617621
 21
64.42127112678139
 31
0.0
  0
LINE
  5
138
330
1F
100
AcDbEntity
  8
0
100
AcDbLine
 10
-9.163178918617621
 20
64.42127112678139
 30
0.0
 11
-8.769693003124663
 21
64.12153521128842
 31
0.0
  0
LINE
  5
139
330
1F
100
AcDbEntity
  8
0
100
AcDbLine
 10
-8.769693003124663
 20
64.12153521128842
 30
0.0
 11
-8.45543243974438
 21
63.74823289740513
 31
0.0
  0
LINE
  5
13A
330
1F
100
AcDbEntity
  8
0
100
AcDbLine
 10
-8.45543243974438
 20
63.74823289740513
 30
0.0
 11
-8.230960608758464
 21
63.31343661973914
 31
0.0
  0
LINE
  5
13B
330
1F
100
AcDbEntity
  8
0
100
AcDbLine
 10
-8.230960608758464
 20
63.31343661973914
 30
0.0
 11
-8.096277510166914
 21
62.81714637829043
 31
0.0
  0
LINE
  5
13C
330
1F
100
AcDbEntity
  8
0
100
AcDbLine
 10
-8.096277510166914
 20
62.81714637829043
 30
0.0
 11
-8.051383143969732
 21
62.25936217305905
 31
0.0
  0
LINE
  5
13D
330
1F
100
AcDbEntity
  8
0
100
AcDbLine
 10
1.407369371120811
 20
59.33179678070493
 30
0.0
 11
1.407369371120811
 21
62.89316498996046
 31
0.0
  0
LINE
  5
13E
330
1F
100
AcDbEntity
  8
0
100
AcDbLine
 10
1.407369371120811
 20
62.89316498996046
 30
0.0
 11
1.367379431482985
 21
63.28325553322001
 31
0.0
  0
LINE
  5
13F
330
1F
100
AcDbEntity
  8
0
100
AcDbLine
 10
1.367379431482985
 20
63.28325553322001
 30
0.0
 11
1.247409612569502
 21
63.56016700203289
 31
0.0
  0
LINE
  5
140
330
1F
100
AcDbEntity
  8
0
100
AcDbLine
 10
1.247409612569502
 20
63.56016700203289
 30
0.0
 11
1.036896534098675
 21
63.72540845072504
 31
0.0
  0
LINE
  5
141
330
1F
100
AcDbEntity
  8
0
100
AcDbLine
 10
1.036896534098675
 20
63.72540845072504
 30
0.0
 11
0.7252768157888161
 21
63.78048893362243
 31
0.0
  0
LINE
  5
142
330
1F
100
AcDbEntity
  8
0
100
AcDbLine
 10
0.7252768157888161
 20
63.78048893362243
 30
0.0
 11
0.4083754073381136
 21
63.7133360161174
 31
0.0
  0
LINE
  5
143
330
1F
100
AcDbEntity
  8
0
100
AcDbLine
 10
0.4083754073381136
 20
63.7133360161174
 30
0.0
 11
0.1699448238371081
 21
63.51187726360231
 31
0.0
  0
LINE
  5
144
330
1F
100
AcDbEntity
  8
0
100
AcDbLine
 10
0.1699448238371081
 20
63.51187726360231
 30
0.0
 11
0.0205484455674924
 21
63.19120321933671
 31
0.0
  0
LINE
  5
145
330
1F
100
AcDbEntity
  8
0
100
AcDbLine
 10
0.0205484455674924
 20
63.19120321933671
 30
0.0
 11
-0.0292503471890518
 21
62.76640442658017
 31
0.0
  0
LINE
  5
146
330
1F
100
AcDbEntity
  8
0
100
AcDbLine
 10
-0.0292503471890518
 20
62.76640442658017
 30
0.0
 11
-0.0292503471890518
 21
59.33179678070493
 31
0.0
  0
LINE
  5
147
330
1F
100
AcDbEntity
  8
0
100
AcDbLine
 10
-0.0292503471890518
 20
59.33179678070493
 30
0.0
 11
-2.600678918617622
 21
59.33179678070493
 31
0.0
  0
LINE
  5
148
330
1F
100
AcDbEntity
  8
0
100
AcDbLine
 10
-2.600678918617622
 20
59.33179678070493
 30
0.0
 11
-2.600678918617622
 21
62.83280281692223
 31
0.0
  0
LINE
  5
149
330
1F
100
AcDbEntity
  8
0
100
AcDbLine
 10
-2.600678918617622
 20
62.83280281692223
 30
0.0
 11
-2.641046121836935
 21
63.24741549297857
 31
0.0
  0
LINE
  5
14A
330
1F
100
AcDbEntity
  8
0
100
AcDbLine
 10
-2.641046121836935
 20
63.24741549297857
 30
0.0
 11
-2.762147731494883
 21
63.54356740444737
 31
0.0
  0
LINE
  5
14B
330
1F
100
AcDbEntity
  8
0
100
AcDbLine
 10
-2.762147731494883
 20
63.54356740444737
 30
0.0
 11
-2.963983747591461
 21
63.72125855132867
 31
0.0
  0
LINE
  5
14C
330
1F
100
AcDbEntity
  8
0
100
AcDbLine
 10
-2.963983747591461
 20
63.72125855132867
 30
0.0
 11
-3.246554170126674
 21
63.78048893362243
 31
0.0
  0
LINE
  5
14D
330
1F
100
AcDbEntity
  8
0
100
AcDbLine
 10
-3.246554170126674
 20
63.78048893362243
 30
0.0
 11
-3.590618556444583
 21
63.71182696179145
 31
0.0
  0
LINE
  5
14E
330
1F
100
AcDbEntity
  8
0
100
AcDbLine
 10
-3.590618556444583
 20
63.71182696179145
 30
0.0
 11
-3.838103465901322
 21
63.50584104629848
 31
0.0
  0
LINE
  5
14F
330
1F
100
AcDbEntity
  8
0
100
AcDbLine
 10
-3.838103465901322
 20
63.50584104629848
 30
0.0
 11
-3.98749984417094
 21
63.17158551309929
 31
0.0
  0
LINE
  5
150
330
1F
100
AcDbEntity
  8
0
100
AcDbLine
 10
-3.98749984417094
 20
63.17158551309929
 30
0.0
 11
-4.037298636927479
 21
62.71811468814959
 31
0.0
  0
LINE
  5
151
330
1F
100
AcDbEntity
  8
0
100
AcDbLine
 10
-4.037298636927479
 20
62.71811468814959
 30
0.0
 11
-4.037298636927479
 21
59.33179678070493
 31
0.0
  0
LINE
  5
152
330
1F
100
AcDbEntity
  8
0
100
AcDbLine
 10
-4.037298636927479
 20
59.33179678070493
 30
0.0
 11
-6.608727208356052
 21
59.33179678070493
 31
0.0
  0
LINE
  5
153
330
1F
100
AcDbEntity
  8
0
100
AcDbLine
 10
-6.608727208356052
 20
59.33179678070493
 30
0.0
 11
-6.608727208356052
 21
65.51288329981962
 31
0.0
  0
LINE
  5
154
330
1F
100
AcDbEntity
  8
0
100
AcDbLine
 10
-6.608727208356052
 20
65.51288329981962
 30
0.0
 11
-4.037298636927479
 21
65.51288329981962
 31
0.0
  0
LINE
  5
155
330
1F
100
AcDbEntity
  8
0
100
AcDbLine
 10
-4.037298636927479
 20
65.51288329981962
 30
0.0
 11
-4.037298636927479
 21
64.5350160966003
 31
0.0
  0
LINE
  5
156
330
1F
100
AcDbEntity
  8
0
100
AcDbLine
 10
-4.013153767712187
 20
64.5350160966003
 30
0.0
 11
-3.551383143969732
 21
65.06318511068481
 31
0.0
  0
LINE
  5
157
330
1F
100
AcDbEntity
  8
0
100
AcDbLine
 10
-3.551383143969732
 20
65.06318511068481
 30
0.0
 11
-2.836091393466716
 21
65.49779275656006
 31
0.0
  0
LINE
  5
158
330
1F
100
AcDbEntity
  8
0
100
AcDbLine
 10
-2.836091393466716
 20
65.49779275656006
 30
0.0
 11
-2.421101453828891
 21
65.62228973845141
 31
0.0
  0
LINE
  5
159
330
1F
100
AcDbEntity
  8
0
100
AcDbLine
 10
-2.421101453828891
 20
65.62228973845141
 30
0.0
 11
-1.972912319020035
 21
65.66378873241518
 31
0.0
  0
LINE
  5
15A
330
1F
100
AcDbEntity
  8
0
100
AcDbLine
 10
-1.972912319020035
 20
65.66378873241518
 30
0.0
 11
-1.367027007148806
 21
65.59889939639908
 31
0.0
  0
LINE
  5
15B
330
1F
100
AcDbEntity
  8
0
100
AcDbLine
 10
-1.367027007148806
 20
65.59889939639908
 30
0.0
 11
-0.8652664437685256
 21
65.4042313883508
 31
0.0
  0
LINE
  5
15C
330
1F
100
AcDbEntity
  8
0
100
AcDbLine
 10
-0.8652664437685256
 20
65.4042313883508
 30
0.0
 11
-0.4525400856196351
 21
65.06922132798863
 31
0.0
  0
LINE
  5
15D
330
1F
100
AcDbEntity
  8
0
100
AcDbLine
 10
-0.4525400856196351
 20
65.06922132798863
 30
0.0
 11
-0.1137573894425724
 21
64.58330583503087
 31
0.0
  0
LINE
  5
15E
330
1F
100
AcDbEntity
  8
0
100
AcDbLine
 10
-0.1137573894425724
 20
64.58330583503087
 30
0.0
 11
0.2665243006982762
 21
65.0428128772844
 31
0.0
  0
LINE
  5
15F
330
1F
100
AcDbEntity
  8
0
100
AcDbLine
 10
0.2665243006982762
 20
65.0428128772844
 30
0.0
 11
0.7554579023079346
 21
65.38310462778742
 31
0.0
  0
LINE
  5
160
330
1F
100
AcDbEntity
  8
0
100
AcDbLine
 10
0.7554579023079346
 20
65.38310462778742
 30
0.0
 11
1.328898546171108
 21
65.59361770625824
 31
0.0
  0
LINE
  5
161
330
1F
100
AcDbEntity
  8
0
100
AcDbLine
 10
1.328898546171108
 20
65.59361770625824
 30
0.0
 11
1.962701363072519
 21
65.66378873241518
 31
0.0
  0
LINE
  5
162
330
1F
100
AcDbEntity
  8
0
100
AcDbLine
 10
1.962701363072519
 20
65.66378873241518
 30
0.0
 11
2.420322087418594
 21
65.62417605635885
 31
0.0
  0
LINE
  5
163
330
1F
100
AcDbEntity
  8
0
100
AcDbLine
 10
2.420322087418594
 20
65.62417605635885
 30
0.0
 11
2.821353274541333
 21
65.50533802818983
 31
0.0
  0
LINE
  5
164
330
1F
100
AcDbEntity
  8
0
100
AcDbLine
 10
2.821353274541333
 20
65.50533802818983
 30
0.0
 11
3.165794924440729
 21
65.30727464790814
 31
0.0
  0
LINE
  5
165
330
1F
100
AcDbEntity
  8
0
100
AcDbLine
 10
3.165794924440729
 20
65.30727464790814
 30
0.0
 11
3.453647037116783
 21
65.02998591551378
 31
0.0
  0
LINE
  5
166
330
1F
100
AcDbEntity
  8
0
100
AcDbLine
 10
3.453647037116783
 20
65.02998591551378
 30
0.0
 11
3.680759713173121
 21
64.6779989939846
 31
0.0
  0
LINE
  5
167
330
1F
100
AcDbEntity
  8
0
100
AcDbLine
 10
3.680759713173121
 20
64.6779989939846
 30
0.0
 11
3.842983053213365
 21
64.25584104629849
 31
0.0
  0
LINE
  5
168
330
1F
100
AcDbEntity
  8
0
100
AcDbLine
 10
3.842983053213365
 20
64.25584104629849
 30
0.0
 11
3.940317057237513
 21
63.76351207245543
 31
0.0
  0
LINE
  5
169
330
1F
100
AcDbEntity
  8
0
100
AcDbLine
 10
3.940317057237513
 20
63.76351207245543
 30
0.0
 11
3.97276172524556
 21
63.20101207245543
 31
0.0
  0
LINE
  5
16A
330
1F
100
AcDbEntity
  8
0
100
AcDbLine
 10
3.97276172524556
 20
63.20101207245543
 30
0.0
 11
3.97276172524556
 21
59.33179678070493
 31
0.0
  0
LINE
  5
16B
330
1F
100
AcDbEntity
  8
0
100
AcDbLine
 10
3.97276172524556
 20
59.33179678070493
 30
0.0
 11
1.407369371120811
 21
59.33179678070493
 31
0.0
  0
LINE
  5
16C
330
1F
100
AcDbEntity
  8
0
100
AcDbLine
 10
13.15384824436025
 20
59.33179678070493
 30
0.0
 11
13.15384824436025
 21
62.89316498996046
 31
0.0
  0
LINE
  5
16D
330
1F
100
AcDbEntity
  8
0
100
AcDbLine
 10
13.15384824436025
 20
62.89316498996046
 30
0.0
 11
13.11385830472242
 21
63.28325553322001
 31
0.0
  0
LINE
  5
16E
330
1F
100
AcDbEntity
  8
0
100
AcDbLine
 10
13.11385830472242
 20
63.28325553322001
 30
0.0
 11
12.99388848580894
 21
63.56016700203289
 31
0.0
  0
LINE
  5
16F
330
1F
100
AcDbEntity
  8
0
100
AcDbLine
 10
12.99388848580894
 20
63.56016700203289
 30
0.0
 11
12.78337540733811
 21
63.72540845072504
 31
0.0
  0
LINE
  5
170
330
1F
100
AcDbEntity
  8
0
100
AcDbLine
 10
12.78337540733811
 20
63.72540845072504
 30
0.0
 11
12.47175568902825
 21
63.78048893362243
 31
0.0
  0
LINE
  5
171
330
1F
100
AcDbEntity
  8
0
100
AcDbLine
 10
12.47175568902825
 20
63.78048893362243
 30
0.0
 11
12.15485428057755
 21
63.7133360161174
 31
0.0
  0
LINE
  5
172
330
1F
100
AcDbEntity
  8
0
100
AcDbLine
 10
12.15485428057755
 20
63.7133360161174
 30
0.0
 11
11.91642369707655
 21
63.51187726360231
 31
0.0
  0
LINE
  5
173
330
1F
100
AcDbEntity
  8
0
100
AcDbLine
 10
11.91642369707655
 20
63.51187726360231
 30
0.0
 11
11.76702731880693
 21
63.19120321933671
 31
0.0
  0
LINE
  5
174
330
1F
100
AcDbEntity
  8
0
100
AcDbLine
 10
11.76702731880693
 20
63.19120321933671
 30
0.0
 11
11.71722852605039
 21
62.76640442658017
 31
0.0
  0
LINE
  5
175
330
1F
100
AcDbEntity
  8
0
100
AcDbLine
 10
11.71722852605039
 20
62.76640442658017
 30
0.0
 11
11.71722852605039
 21
59.33179678070493
 31
0.0
  0
LINE
  5
176
330
1F
100
AcDbEntity
  8
0
100
AcDbLine
 10
11.71722852605039
 20
59.33179678070493
 30
0.0
 11
9.145799954621813
 21
59.33179678070493
 31
0.0
  0
LINE
  5
177
330
1F
100
AcDbEntity
  8
0
100
AcDbLine
 10
9.145799954621813
 20
59.33179678070493
 30
0.0
 11
9.145799954621813
 21
62.83280281692223
 31
0.0
  0
LINE
  5
178
330
1F
100
AcDbEntity
  8
0
100
AcDbLine
 10
9.145799954621813
 20
62.83280281692223
 30
0.0
 11
9.105432751402498
 21
63.24741549297857
 31
0.0
  0
LINE
  5
179
330
1F
100
AcDbEntity
  8
0
100
AcDbLine
 10
9.105432751402498
 20
63.24741549297857
 30
0.0
 11
8.984331141744551
 21
63.54356740444737
 31
0.0
  0
LINE
  5
17A
330
1F
100
AcDbEntity
  8
0
100
AcDbLine
 10
8.984331141744551
 20
63.54356740444737
 30
0.0
 11
8.782495125647971
 21
63.72125855132867
 31
0.0
  0
LINE
  5
17B
330
1F
100
AcDbEntity
  8
0
100
AcDbLine
 10
8.782495125647971
 20
63.72125855132867
 30
0.0
 11
8.499924703112761
 21
63.78048893362243
 31
0.0
  0
LINE
  5
17C
330
1F
100
AcDbEntity
  8
0
100
AcDbLine
 10
8.499924703112761
 20
63.78048893362243
 30
0.0
 11
8.155860316794856
 21
63.71182696179145
 31
0.0
  0
LINE
  5
17D
330
1F
100
AcDbEntity
  8
0
100
AcDbLine
 10
8.155860316794856
 20
63.71182696179145
 30
0.0
 11
7.908375407338117
 21
63.50584104629848
 31
0.0
  0
LINE
  5
17E
330
1F
100
AcDbEntity
  8
0
100
AcDbLine
 10
7.908375407338117
 20
63.50584104629848
 30
0.0
 11
7.758979029068495
 21
63.17158551309929
 31
0.0
  0
LINE
  5
17F
330
1F
100
AcDbEntity
  8
0
100
AcDbLine
 10
7.758979029068495
 20
63.17158551309929
 30
0.0
 11
7.709180236311957
 21
62.71811468814959
 31
0.0
  0
LINE
  5
180
330
1F
100
AcDbEntity
  8
0
100
AcDbLine
 10
7.709180236311957
 20
62.71811468814959
 30
0.0
 11
7.709180236311957
 21
59.33179678070493
 31
0.0
  0
LINE
  5
181
330
1F
100
AcDbEntity
  8
0
100
AcDbLine
 10
7.709180236311957
 20
59.33179678070493
 30
0.0
 11
5.137751664883384
 21
59.33179678070493
 31
0.0
  0
LINE
  5
182
330
1F
100
AcDbEntity
  8
0
100
AcDbLine
 10
5.137751664883384
 20
59.33179678070493
 30
0.0
 11
5.137751664883384
 21
65.51288329981962
 31
0.0
  0
LINE
  5
183
330
1F
100
AcDbEntity
  8
0
100
AcDbLine
 10
5.137751664883384
 20
65.51288329981962
 30
0.0
 11
7.709180236311957
 21
65.51288329981962
 31
0.0
  0
LINE
  5
184
330
1F
100
AcDbEntity
  8
0
100
AcDbLine
 10
7.709180236311957
 20
65.51288329981962
 30
0.0
 11
7.709180236311957
 21
64.5350160966003
 31
0.0
  0
LINE
  5
185
330
1F
100
AcDbEntity
  8
0
100
AcDbLine
 10
7.733325105527246
 20
64.5350160966003
 30
0.0
 11
8.195095729269706
 21
65.06318511068481
 31
0.0
  0
LINE
  5
186
330
1F
100
AcDbEntity
  8
0
100
AcDbLine
 10
8.195095729269706
 20
65.06318511068481
 30
0.0
 11
8.910387479772723
 21
65.49779275656006
 31
0.0
  0
LINE
  5
187
330
1F
100
AcDbEntity
  8
0
100
AcDbLine
 10
8.910387479772723
 20
65.49779275656006
 30
0.0
 11
9.325377419410549
 21
65.62228973845141
 31
0.0
  0
LINE
  5
188
330
1F
100
AcDbEntity
  8
0
100
AcDbLine
 10
9.325377419410549
 20
65.62228973845141
 30
0.0
 11
9.7735665542194
 21
65.66378873241518
 31
0.0
  0
LINE
  5
189
330
1F
100
AcDbEntity
  8
0
100
AcDbLine
 10
9.7735665542194
 20
65.66378873241518
 30
0.0
 11
10.37945186609063
 21
65.59889939639908
 31
0.0
  0
LINE
  5
18A
330
1F
100
AcDbEntity
  8
0
100
AcDbLine
 10
10.37945186609063
 20
65.59889939639908
 30
0.0
 11
10.88121242947091
 21
65.4042313883508
 31
0.0
  0
LINE
  5
18B
330
1F
100
AcDbEntity
  8
0
100
AcDbLine
 10
10.88121242947091
 20
65.4042313883508
 30
0.0
 11
11.2939387876198
 21
65.06922132798863
 31
0.0
  0
LINE
  5
18C
330
1F
100
AcDbEntity
  8
0
100
AcDbLine
 10
11.2939387876198
 20
65.06922132798863
 30
0.0
 11
11.63272148379687
 21
64.58330583503087
 31
0.0
  0
LINE
  5
18D
330
1F
100
AcDbEntity
  8
0
100
AcDbLine
 10
11.63272148379687
 20
64.58330583503087
 30
0.0
 11
12.01300317393771
 21
65.0428128772844
 31
0.0
  0
LINE
  5
18E
330
1F
100
AcDbEntity
  8
0
100
AcDbLine
 10
12.01300317393771
 20
65.0428128772844
 30
0.0
 11
12.50193677554737
 21
65.38310462778742
 31
0.0
  0
LINE
  5
18F
330
1F
100
AcDbEntity
  8
0
100
AcDbLine
 10
12.50193677554737
 20
65.38310462778742
 30
0.0
 11
13.07537741941055
 21
65.59361770625824
 31
0.0
  0
LINE
  5
190
330
1F
100
AcDbEntity
  8
0
100
AcDbLine
 10
13.07537741941055
 20
65.59361770625824
 30
0.0
 11
13.70918023631196
 21
65.66378873241518
 31
0.0
  0
LINE
  5
191
330
1F
100
AcDbEntity
  8
0
100
AcDbLine
 10
13.70918023631196
 20
65.66378873241518
 30
0.0
 11
14.16680096065803
 21
65.62417605635885
 31
0.0
  0
LINE
  5
192
330
1F
100
AcDbEntity
  8
0
100
AcDbLine
 10
14.16680096065803
 20
65.62417605635885
 30
0.0
 11
14.56783214778077
 21
65.50533802818983
 31
0.0
  0
LINE
  5
193
330
1F
100
AcDbEntity
  8
0
100
AcDbLine
 10
14.56783214778077
 20
65.50533802818983
 30
0.0
 11
14.91227379768017
 21
65.30727464790814
 31
0.0
  0
LINE
  5
194
330
1F
100
AcDbEntity
  8
0
100
AcDbLine
 10
14.91227379768017
 20
65.30727464790814
 30
0.0
 11
15.20012591035622
 21
65.02998591551378
 31
0.0
  0
LINE
  5
195
330
1F
100
AcDbEntity
  8
0
100
AcDbLine
 10
15.20012591035622
 20
65.02998591551378
 30
0.0
 11
15.42723858641256
 21
64.6779989939846
 31
0.0
  0
LINE
  5
196
330
1F
100
AcDbEntity
  8
0
100
AcDbLine
 10
15.42723858641256
 20
64.6779989939846
 30
0.0
 11
15.5894619264528
 21
64.25584104629849
 31
0.0
  0
LINE
  5
197
330
1F
100
AcDbEntity
  8
0
100
AcDbLine
 10
15.5894619264528
 20
64.25584104629849
 30
0.0
 11
15.68679593047695
 21
63.76351207245543
 31
0.0
  0
LINE
  5
198
330
1F
100
AcDbEntity
  8
0
100
AcDbLine
 10
15.68679593047695
 20
63.76351207245543
 30
0.0
 11
15.71924059848499
 21
63.20101207245543
 31
0.0
  0
LINE
  5
199
330
1F
100
AcDbEntity
  8
0
100
AcDbLine
 10
15.71924059848499
 20
63.20101207245543
 30
0.0
 11
15.71924059848499
 21
59.33179678070493
 31
0.0
  0
LINE
  5
19A
330
1F
100
AcDbEntity
  8
0
100
AcDbLine
 10
15.71924059848499
 20
59.33179678070493
 30
0.0
 11
13.15384824436025
 21
59.33179678070493
 31
0.0
  0
LINE
  5
19B
330
1F
100
AcDbEntity
  8
0
100
AcDbLine
 10
-19.12784189648482
 20
44.64568008050372
 30
0.0
 11
-19.24328455242044
 21
43.8383360161174
 31
0.0
  0
LINE
  5
19C
330
1F
100
AcDbEntity
  8
0
100
AcDbLine
 10
-19.24328455242044
 20
43.8383360161174
 30
0.0
 11
-19.58961252022728
 21
43.14266197185181
 31
0.0
  0
LINE
  5
19D
330
1F
100
AcDbEntity
  8
0
100
AcDbLine
 10
-19.58961252022728
 20
43.14266197185181
 30
0.0
 11
-20.14418998501601
 21
42.58431187124818
 31
0.0
  0
LINE
  5
19E
330
1F
100
AcDbEntity
  8
0
100
AcDbLine
 10
-20.14418998501601
 20
42.58431187124818
 30
0.0
 11
-20.8843811318973
 21
42.18893963784777
 31
0.0
  0
LINE
  5
19F
330
1F
100
AcDbEntity
  8
0
100
AcDbLine
 10
-20.8843811318973
 20
42.18893963784777
 30
0.0
 11
-21.80188616207839
 21
41.95352716299869
 31
0.0
  0
LINE
  5
1A0
330
1F
100
AcDbEntity
  8
0
100
AcDbLine
 10
-21.80188616207839
 20
41.95352716299869
 30
0.0
 11
-22.88840527676652
 21
41.87505633804899
 31
0.0
  0
LINE
  5
1A1
330
1F
100
AcDbEntity
  8
0
100
AcDbLine
 10
-22.88840527676652
 20
41.87505633804899
 30
0.0
 11
-24.18921010574036
 21
41.98974446682163
 31
0.0
  0
LINE
  5
1A2
330
1F
100
AcDbEntity
  8
0
100
AcDbLine
 10
-24.18921010574036
 20
41.98974446682163
 30
0.0
 11
-25.37532680594157
 21
42.33380885313953
 31
0.0
  0
LINE
  5
1A3
330
1F
100
AcDbEntity
  8
0
100
AcDbLine
 10
-25.37532680594157
 20
42.33380885313953
 30
0.0
 11
-25.37532680594157
 21
44.70604225354194
 31
0.0
  0
LINE
  5
1A4
330
1F
100
AcDbEntity
  8
0
100
AcDbLine
 10
-25.37532680594157
 20
44.70604225354194
 30
0.0
 11
-24.80339521640434
 21
44.34613279680151
 31
0.0
  0
LINE
  5
1A5
330
1F
100
AcDbEntity
  8
0
100
AcDbLine
 10
-24.80339521640434
 20
44.34613279680151
 30
0.0
 11
-24.1741195624808
 21
44.0631851106848
 31
0.0
  0
LINE
  5
1A6
330
1F
100
AcDbEntity
  8
0
100
AcDbLine
 10
-24.1741195624808
 20
44.0631851106848
 30
0.0
 11
-23.53880769125344
 21
43.87983501008118
 31
0.0
  0
LINE
  5
1A7
330
1F
100
AcDbEntity
  8
0
100
AcDbLine
 10
-23.53880769125344
 20
43.87983501008118
 30
0.0
 11
-22.94876744980474
 21
43.81871830987998
 31
0.0
  0
LINE
  5
1A8
330
1F
100
AcDbEntity
  8
0
100
AcDbLine
 10
-22.94876744980474
 20
43.81871830987998
 30
0.0
 11
-22.5684857596639
 21
43.85719919519185
 31
0.0
  0
LINE
  5
1A9
330
1F
100
AcDbEntity
  8
0
100
AcDbLine
 10
-22.5684857596639
 20
43.85719919519185
 30
0.0
 11
-22.28478354638422
 21
43.97264185112746
 31
0.0
  0
LINE
  5
1AA
330
1F
100
AcDbEntity
  8
0
100
AcDbLine
 10
-22.28478354638422
 20
43.97264185112746
 30
0.0
 11
-22.1082241902474
 21
44.1620281690349
 31
0.0
  0
LINE
  5
1AB
330
1F
100
AcDbEntity
  8
0
100
AcDbLine
 10
-22.1082241902474
 20
44.1620281690349
 30
0.0
 11
-22.04937107153513
 21
44.42234004026227
 31
0.0
  0
LINE
  5
1AC
330
1F
100
AcDbEntity
  8
0
100
AcDbLine
 10
-22.04937107153513
 20
44.42234004026227
 30
0.0
 11
-22.16707730895967
 21
44.79356740444738
 31
0.0
  0
LINE
  5
1AD
330
1F
100
AcDbEntity
  8
0
100
AcDbLine
 10
-22.16707730895967
 20
44.79356740444738
 30
0.0
 11
-22.52321412988523
 21
45.09236016098662
 31
0.0
  0
LINE
  5
1AE
330
1F
100
AcDbEntity
  8
0
100
AcDbLine
 10
-22.52321412988523
 20
45.09236016098662
 30
0.0
 11
-23.40751996489529
 21
45.47264185112746
 31
0.0
  0
LINE
  5
1AF
330
1F
100
AcDbEntity
  8
0
100
AcDbLine
 10
-23.40751996489529
 20
45.47264185112746
 30
0.0
 11
-24.32125235926149
 21
45.93592152919587
 31
0.0
  0
LINE
  5
1B0
330
1F
100
AcDbEntity
  8
0
100
AcDbLine
 10
-24.32125235926149
 20
45.93592152919587
 30
0.0
 11
-24.97391835523734
 21
46.52294366199265
 31
0.0
  0
LINE
  5
1B1
330
1F
100
AcDbEntity
  8
0
100
AcDbLine
 10
-24.97391835523734
 20
46.52294366199265
 30
0.0
 11
-25.20235145382889
 21
46.86285814891418
 31
0.0
  0
LINE
  5
1B2
330
1F
100
AcDbEntity
  8
0
100
AcDbLine
 10
-25.20235145382889
 20
46.86285814891418
 30
0.0
 11
-25.36551795282285
 21
47.2337082495178
 31
0.0
  0
LINE
  5
1B3
330
1F
100
AcDbEntity
  8
0
100
AcDbLine
 10
-25.36551795282285
 20
47.2337082495178
 30
0.0
 11
-25.46341785221923
 21
47.63549396380351
 31
0.0
  0
LINE
  5
1B4
330
1F
100
AcDbEntity
  8
0
100
AcDbLine
 10
-25.46341785221923
 20
47.63549396380351
 30
0.0
 11
-25.49605115201802
 21
48.06821529177132
 31
0.0
  0
LINE
  5
1B5
330
1F
100
AcDbEntity
  8
0
100
AcDbLine
 10
-25.49605115201802
 20
48.06821529177132
 30
0.0
 11
-25.43644350614277
 21
48.66448038231458
 31
0.0
  0
LINE
  5
1B6
330
1F
100
AcDbEntity
  8
0
100
AcDbLine
 10
-25.43644350614277
 20
48.66448038231458
 30
0.0
 11
-25.25762056851702
 21
49.19774245474919
 31
0.0
  0
LINE
  5
1B7
330
1F
100
AcDbEntity
  8
0
100
AcDbLine
 10
-25.25762056851702
 20
49.19774245474919
 30
0.0
 11
-24.95958233914076
 21
49.66800150907514
 31
0.0
  0
LINE
  5
1B8
330
1F
100
AcDbEntity
  8
0
100
AcDbLine
 10
-24.95958233914076
 20
49.66800150907514
 30
0.0
 11
-24.542328818014
 21
50.07525754529244
 31
0.0
  0
LINE
  5
1B9
330
1F
100
AcDbEntity
  8
0
100
AcDbLine
 10
-24.542328818014
 20
50.07525754529244
 30
0.0
 11
-24.02472318421118
 21
50.40404275656005
 31
0.0
  0
LINE
  5
1BA
330
1F
100
AcDbEntity
  8
0
100
AcDbLine
 10
-24.02472318421118
 20
50.40404275656005
 30
0.0
 11
-23.42562861680675
 21
50.63888933603692
 31
0.0
  0
LINE
  5
1BB
330
1F
100
AcDbEntity
  8
0
100
AcDbLine
 10
-23.42562861680675
 20
50.63888933603692
 30
0.0
 11
-22.74504511580072
 21
50.77979728372303
 31
0.0
  0
LINE
  5
1BC
330
1F
100
AcDbEntity
  8
0
100
AcDbLine
 10
-22.74504511580072
 20
50.77979728372303
 30
0.0
 11
-21.98297268119308
 21
50.82676659961841
 31
0.0
  0
LINE
  5
1BD
330
1F
100
AcDbEntity
  8
0
100
AcDbLine
 10
-21.98297268119308
 20
50.82676659961841
 30
0.0
 11
-21.14997469326551
 21
50.79054929579546
 31
0.0
  0
LINE
  5
1BE
330
1F
100
AcDbEntity
  8
0
100
AcDbLine
 10
-21.14997469326551
 20
50.79054929579546
 30
0.0
 11
-20.45882781197778
 21
50.70000603623812
 31
0.0
  0
LINE
  5
1BF
330
1F
100
AcDbEntity
  8
0
100
AcDbLine
 10
-20.45882781197778
 20
50.70000603623812
 30
0.0
 11
-19.58659441157537
 21
50.49477464790814
 31
0.0
  0
LINE
  5
1C0
330
1F
100
AcDbEntity
  8
0
100
AcDbLine
 10
-19.58659441157537
 20
50.49477464790814
 30
0.0
 11
-19.58659441157537
 21
48.29155533201277
 31
0.0
  0
LINE
  5
1C1
330
1F
100
AcDbEntity
  8
0
100
AcDbLine
 10
-19.58659441157537
 20
48.29155533201277
 30
0.0
 11
-20.67009541761158
 21
48.73974446682162
 31
0.0
  0
LINE
  5
1C2
330
1F
100
AcDbEntity
  8
0
100
AcDbLine
 10
-20.67009541761158
 20
48.73974446682162
 30
0.0
 11
-21.20505517616289
 21
48.85179175052384
 31
0.0
  0
LINE
  5
1C3
330
1F
100
AcDbEntity
  8
0
100
AcDbLine
 10
-21.20505517616289
 20
48.85179175052384
 30
0.0
 11
-21.73548777173633
 21
48.88914084509124
 31
0.0
  0
LINE
  5
1C4
330
1F
100
AcDbEntity
  8
0
100
AcDbLine
 10
-21.73548777173633
 20
48.88914084509124
 30
0.0
 11
-22.12784189648482
 21
48.84839637829044
 31
0.0
  0
LINE
  5
1C5
330
1F
100
AcDbEntity
  8
0
100
AcDbLine
 10
-22.12784189648482
 20
48.84839637829044
 30
0.0
 11
-22.43568897897979
 21
48.72616297788802
 31
0.0
  0
LINE
  5
1C6
330
1F
100
AcDbEntity
  8
0
100
AcDbLine
 10
-22.43568897897979
 20
48.72616297788802
 30
0.0
 11
-22.63488415000595
 21
48.53300402416569
 31
0.0
  0
LINE
  5
1C7
330
1F
100
AcDbEntity
  8
0
100
AcDbLine
 10
-22.63488415000595
 20
48.53300402416569
 30
0.0
 11
-22.701282540348
 21
48.27948289740513
 31
0.0
  0
LINE
  5
1C8
330
1F
100
AcDbEntity
  8
0
100
AcDbLine
 10
-22.701282540348
 20
48.27948289740513
 30
0.0
 11
-22.64771111177658
 21
48.0312434607854
 31
0.0
  0
LINE
  5
1C9
330
1F
100
AcDbEntity
  8
0
100
AcDbLine
 10
-22.64771111177658
 20
48.0312434607854
 30
0.0
 11
-22.48699682606229
 21
47.82978470827032
 31
0.0
  0
LINE
  5
1CA
330
1F
100
AcDbEntity
  8
0
100
AcDbLine
 10
-22.48699682606229
 20
47.82978470827032
 30
0.0
 11
-21.59061855644459
 21
47.36801408452786
 31
0.0
  0
LINE
  5
1CB
330
1F
100
AcDbEntity
  8
0
100
AcDbLine
 10
-21.59061855644459
 20
47.36801408452786
 30
0.0
 11
-20.44147368722929
 21
46.79910060364255
 31
0.0
  0
LINE
  5
1CC
330
1F
100
AcDbEntity
  8
0
100
AcDbLine
 10
-20.44147368722929
 20
46.79910060364255
 30
0.0
 11
-20.01459994477456
 21
46.49540342054396
 31
0.0
  0
LINE
  5
1CD
330
1F
100
AcDbEntity
  8
0
100
AcDbLine
 10
-20.01459994477456
 20
46.49540342054396
 30
0.0
 11
-19.68619199708845
 21
46.17887927567475
 31
0.0
  0
LINE
  5
1CE
330
1F
100
AcDbEntity
  8
0
100
AcDbLine
 10
-19.68619199708845
 20
46.17887927567475
 30
0.0
 11
-19.44191382807436
 21
45.84085110666065
 31
0.0
  0
LINE
  5
1CF
330
1F
100
AcDbEntity
  8
0
100
AcDbLine
 10
-19.44191382807436
 20
45.84085110666065
 30
0.0
 11
-19.26742942163573
 21
45.47264185112746
 31
0.0
  0
LINE
  5
1D0
330
1F
100
AcDbEntity
  8
0
100
AcDbLine
 10
-19.26742942163573
 20
45.47264185112746
 30
0.0
 11
-19.16273877777255
 21
45.07425150907515
 31
0.0
  0
LINE
  5
1D1
330
1F
100
AcDbEntity
  8
0
100
AcDbLine
 10
-19.16273877777255
 20
45.07425150907515
 30
0.0
 11
-19.12784189648482
 21
44.64568008050372
 31
0.0
  0
LINE
  5
1D2
330
1F
100
AcDbEntity
  8
0
100
AcDbLine
 10
-13.95480366710857
 20
42.11046881289808
 30
0.0
 11
-14.52824431097175
 21
41.95050905434677
 31
0.0
  0
LINE
  5
1D3
330
1F
100
AcDbEntity
  8
0
100
AcDbLine
 10
-14.52824431097175
 20
41.95050905434677
 30
0.0
 11
-15.48800286227959
 21
41.87505633804899
 31
0.0
  0
LINE
  5
1D4
330
1F
100
AcDbEntity
  8
0
100
AcDbLine
 10
-15.48800286227959
 20
41.87505633804899
 30
0.0
 11
-15.99598827475444
 21
41.9120281690349
 31
0.0
  0
LINE
  5
1D5
330
1F
100
AcDbEntity
  8
0
100
AcDbLine
 10
-15.99598827475444
 20
41.9120281690349
 30
0.0
 11
-16.44549783209851
 21
42.02294366199265
 31
0.0
  0
LINE
  5
1D6
330
1F
100
AcDbEntity
  8
0
100
AcDbLine
 10
-16.44549783209851
 20
42.02294366199265
 30
0.0
 11
-16.83653153431179
 21
42.20780281692223
 31
0.0
  0
LINE
  5
1D7
330
1F
100
AcDbEntity
  8
0
100
AcDbLine
 10
-16.83653153431179
 20
42.20780281692223
 30
0.0
 11
-17.16908938139428
 21
42.46660563382363
 31
0.0
  0
LINE
  5
1D8
330
1F
100
AcDbEntity
  8
0
100
AcDbLine
 10
-17.16908938139428
 20
42.46660563382363
 30
0.0
 11
-17.43449431097175
 21
42.79369315897454
 31
0.0
  0
LINE
  5
1D9
330
1F
100
AcDbEntity
  8
0
100
AcDbLine
 10
-17.43449431097175
 20
42.79369315897454
 30
0.0
 11
-17.62406926066993
 21
43.18340643865261
 31
0.0
  0
LINE
  5
1DA
330
1F
100
AcDbEntity
  8
0
100
AcDbLine
 10
-17.62406926066993
 20
43.18340643865261
 30
0.0
 11
-17.73781423048885
 21
43.63574547285784
 31
0.0
  0
LINE
  5
1DB
330
1F
100
AcDbEntity
  8
0
100
AcDbLine
 10
-17.73781423048885
 20
43.63574547285784
 30
0.0
 11
-17.77572922042848
 21
44.15071026159023
 31
0.0
  0
LINE
  5
1DC
330
1F
100
AcDbEntity
  8
0
100
AcDbLine
 10
-17.77572922042848
 20
44.15071026159023
 30
0.0
 11
-17.77572922042848
 21
46.42636418513148
 31
0.0
  0
LINE
  5
1DD
330
1F
100
AcDbEntity
  8
0
100
AcDbLine
 10
-17.77572922042848
 20
46.42636418513148
 30
0.0
 11
-18.74756020634398
 21
46.42636418513148
 31
0.0
  0
LINE
  5
1DE
330
1F
100
AcDbEntity
  8
0
100
AcDbLine
 10
-18.74756020634398
 20
46.42636418513148
 30
0.0
 11
-18.74756020634398
 21
48.20704828975925
 31
0.0
  0
LINE
  5
1DF
330
1F
100
AcDbEntity
  8
0
100
AcDbLine
 10
-18.74756020634398
 20
48.20704828975925
 30
0.0
 11
-17.77572922042848
 21
48.20704828975925
 31
0.0
  0
LINE
  5
1E0
330
1F
100
AcDbEntity
  8
0
100
AcDbLine
 10
-17.77572922042848
 20
48.20704828975925
 30
0.0
 11
-17.77572922042848
 21
49.42032796782766
 31
0.0
  0
LINE
  5
1E1
330
1F
100
AcDbEntity
  8
0
100
AcDbLine
 10
-17.77572922042848
 20
49.42032796782766
 30
0.0
 11
-15.24051795282285
 21
50.12052917507112
 31
0.0
  0
LINE
  5
1E2
330
1F
100
AcDbEntity
  8
0
100
AcDbLine
 10
-15.24051795282285
 20
50.12052917507112
 30
0.0
 11
-15.24051795282285
 21
48.20704828975925
 31
0.0
  0
LINE
  5
1E3
330
1F
100
AcDbEntity
  8
0
100
AcDbLine
 10
-15.24051795282285
 20
48.20704828975925
 30
0.0
 11
-13.95480366710857
 21
48.20704828975925
 31
0.0
  0
LINE
  5
1E4
330
1F
100
AcDbEntity
  8
0
100
AcDbLine
 10
-13.95480366710857
 20
48.20704828975925
 30
0.0
 11
-13.95480366710857
 21
46.42636418513148
 31
0.0
  0
LINE
  5
1E5
330
1F
100
AcDbEntity
  8
0
100
AcDbLine
 10
-13.95480366710857
 20
46.42636418513148
 30
0.0
 11
-15.24051795282285
 21
46.42636418513148
 31
0.0
  0
LINE
  5
1E6
330
1F
100
AcDbEntity
  8
0
100
AcDbLine
 10
-15.24051795282285
 20
46.42636418513148
 30
0.0
 11
-15.24051795282285
 21
44.57324547285784
 31
0.0
  0
LINE
  5
1E7
330
1F
100
AcDbEntity
  8
0
100
AcDbLine
 10
-15.24051795282285
 20
44.57324547285784
 30
0.0
 11
-15.20015074960354
 21
44.2167313883508
 31
0.0
  0
LINE
  5
1E8
330
1F
100
AcDbEntity
  8
0
100
AcDbLine
 10
-15.20015074960354
 20
44.2167313883508
 30
0.0
 11
-15.07904913994559
 21
43.96207847084577
 31
0.0
  0
LINE
  5
1E9
330
1F
100
AcDbEntity
  8
0
100
AcDbLine
 10
-15.07904913994559
 20
43.96207847084577
 30
0.0
 11
-14.87721312384901
 21
43.80928672034275
 31
0.0
  0
LINE
  5
1EA
330
1F
100
AcDbEntity
  8
0
100
AcDbLine
 10
-14.87721312384901
 20
43.80928672034275
 30
0.0
 11
-14.5946427013138
 21
43.75835613684175
 31
0.0
  0
LINE
  5
1EB
330
1F
100
AcDbEntity
  8
0
100
AcDbLine
 10
-14.5946427013138
 20
43.75835613684175
 30
0.0
 11
-13.95480366710857
 21
43.89115291752585
 31
0.0
  0
LINE
  5
1EC
330
1F
100
AcDbEntity
  8
0
100
AcDbLine
 10
-13.95480366710857
 20
43.89115291752585
 30
0.0
 11
-13.95480366710857
 21
42.11046881289808
 31
0.0
  0
LINE
  5
1ED
330
1F
100
AcDbEntity
  8
0
100
AcDbLine
 10
-8.504099441756454
 20
46.00382897386388
 30
0.0
 11
-8.896453566504945
 21
46.12455331994033
 31
0.0
  0
LINE
  5
1EE
330
1F
100
AcDbEntity
  8
0
100
AcDbLine
 10
-8.896453566504945
 20
46.12455331994033
 30
0.0
 11
-9.306916343164904
 21
46.17887927567475
 31
0.0
  0
LINE
  5
1EF
330
1F
100
AcDbEntity
  8
0
100
AcDbLine
 10
-9.306916343164904
 20
46.17887927567475
 30
0.0
 11
-9.864134653024061
 21
46.08682696179145
 31
0.0
  0
LINE
  5
1F0
330
1F
100
AcDbEntity
  8
0
100
AcDbLine
 10
-9.864134653024061
 20
46.08682696179145
 30
0.0
 11
-10.26214773149488
 21
45.81067002014154
 31
0.0
  0
LINE
  5
1F1
330
1F
100
AcDbEntity
  8
0
100
AcDbLine
 10
-10.26214773149488
 20
45.81067002014154
 30
0.0
 11
-10.50095557857738
 21
45.35040845072505
 31
0.0
  0
LINE
  5
1F2
330
1F
100
AcDbEntity
  8
0
100
AcDbLine
 10
-10.50095557857738
 20
45.35040845072505
 30
0.0
 11
-10.58055819427154
 21
44.70604225354194
 31
0.0
  0
LINE
  5
1F3
330
1F
100
AcDbEntity
  8
0
100
AcDbLine
 10
-10.58055819427154
 20
44.70604225354194
 30
0.0
 11
-10.58055819427154
 21
42.02596177064456
 31
0.0
  0
LINE
  5
1F4
330
1F
100
AcDbEntity
  8
0
100
AcDbLine
 10
-10.58055819427154
 20
42.02596177064456
 30
0.0
 11
-13.15198676570012
 21
42.02596177064456
 31
0.0
  0
LINE
  5
1F5
330
1F
100
AcDbEntity
  8
0
100
AcDbLine
 10
-13.15198676570012
 20
42.02596177064456
 30
0.0
 11
-13.15198676570012
 21
48.20704828975925
 31
0.0
  0
LINE
  5
1F6
330
1F
100
AcDbEntity
  8
0
100
AcDbLine
 10
-13.15198676570012
 20
48.20704828975925
 30
0.0
 11
-10.58055819427154
 21
48.20704828975925
 31
0.0
  0
LINE
  5
1F7
330
1F
100
AcDbEntity
  8
0
100
AcDbLine
 10
-10.58055819427154
 20
48.20704828975925
 30
0.0
 11
-10.58055819427154
 21
47.12052917507112
 31
0.0
  0
LINE
  5
1F8
330
1F
100
AcDbEntity
  8
0
100
AcDbLine
 10
-10.55641332505625
 20
47.12052917507112
 30
0.0
 11
-10.27120205745062
 21
47.635871227385
 31
0.0
  0
LINE
  5
1F9
330
1F
100
AcDbEntity
  8
0
100
AcDbLine
 10
-10.27120205745062
 20
47.635871227385
 30
0.0
 11
-9.886393204331906
 21
48.010871227385
 31
0.0
  0
LINE
  5
1FA
330
1F
100
AcDbEntity
  8
0
100
AcDbLine
 10
-9.886393204331906
 20
48.010871227385
 30
0.0
 11
-9.415568254633719
 21
48.2394929577673
 31
0.0
  0
LINE
  5
1FB
330
1F
100
AcDbEntity
  8
0
100
AcDbLine
 10
-9.415568254633719
 20
48.2394929577673
 30
0.0
 11
-8.872308697289652
 21
48.31570020122806
 31
0.0
  0
LINE
  5
1FC
330
1F
100
AcDbEntity
  8
0
100
AcDbLine
 10
-8.872308697289652
 20
48.31570020122806
 30
0.0
 11
-8.504099441756454
 21
48.24326559358219
 31
0.0
  0
LINE
  5
1FD
330
1F
100
AcDbEntity
  8
0
100
AcDbLine
 10
-8.504099441756454
 20
48.24326559358219
 30
0.0
 11
-8.504099441756454
 21
46.00382897386388
 31
0.0
  0
LINE
  5
1FE
330
1F
100
AcDbEntity
  8
0
100
AcDbLine
 10
-4.333073284814804
 20
42.02596177064456
 30
0.0
 11
-4.333073284814804
 21
42.96761167004094
 31
0.0
  0
LINE
  5
1FF
330
1F
100
AcDbEntity
  8
0
100
AcDbLine
 10
-4.357218154030096
 20
42.96761167004094
 30
0.0
 11
-4.705809703325872
 21
42.48961871229446
 31
0.0
  0
LINE
  5
200
330
1F
100
AcDbEntity
  8
0
100
AcDbLine
 10
-4.705809703325872
 20
42.48961871229446
 30
0.0
 11
-5.135890186223256
 21
42.14819517104698
 31
0.0
  0
LINE
  5
201
330
1F
100
AcDbEntity
  8
0
100
AcDbLine
 10
-5.135890186223256
 20
42.14819517104698
 30
0.0
 11
-5.647459602722249
 21
41.94334104629849
 31
0.0
  0
LINE
  5
202
330
1F
100
AcDbEntity
  8
0
100
AcDbLine
 10
-5.647459602722249
 20
41.94334104629849
 30
0.0
 11
-6.24051795282285
 21
41.87505633804899
 31
0.0
  0
LINE
  5
203
330
1F
100
AcDbEntity
  8
0
100
AcDbLine
 10
-6.24051795282285
 20
41.87505633804899
 30
0.0
 11
-6.654376101716212
 21
41.90750100605704
 31
0.0
  0
LINE
  5
204
330
1F
100
AcDbEntity
  8
0
100
AcDbLine
 10
-6.654376101716212
 20
41.90750100605704
 30
0.0
 11
-7.020699039341968
 21
42.00483501008118
 31
0.0
  0
LINE
  5
205
330
1F
100
AcDbEntity
  8
0
100
AcDbLine
 10
-7.020699039341968
 20
42.00483501008118
 30
0.0
 11
-7.339486765700117
 21
42.16705835012142
 31
0.0
  0
LINE
  5
206
330
1F
100
AcDbEntity
  8
0
100
AcDbLine
 10
-7.339486765700117
 20
42.16705835012142
 30
0.0
 11
-7.610739280790658
 21
42.39417102617776
 31
0.0
  0
LINE
  5
207
330
1F
100
AcDbEntity
  8
0
100
AcDbLine
 10
-7.610739280790658
 20
42.39417102617776
 30
0.0
 11
-7.827288576565306
 21
42.67560965796851
 31
0.0
  0
LINE
  5
208
330
1F
100
AcDbEntity
  8
0
100
AcDbLine
 10
-7.827288576565306
 20
42.67560965796851
 30
0.0
 11
-7.981966644975771
 21
43.00081086521197
 31
0.0
  0
LINE
  5
209
330
1F
100
AcDbEntity
  8
0
100
AcDbLine
 10
-7.981966644975771
 20
43.00081086521197
 30
0.0
 11
-8.074773486022048
 21
43.36977464790814
 31
0.0
  0
LINE
  5
20A
330
1F
100
AcDbEntity
  8
0
100
AcDbLine
 10
-8.074773486022048
 20
43.36977464790814
 30
0.0
 11
-8.105709099704141
 21
43.78250100605703
 31
0.0
  0
LINE
  5
20B
330
1F
100
AcDbEntity
  8
0
100
AcDbLine
 10
-8.105709099704141
 20
43.78250100605703
 30
0.0
 11
-8.070717902521041
 21
44.21427917507112
 31
0.0
  0
LINE
  5
20C
330
1F
100
AcDbEntity
  8
0
100
AcDbLine
 10
-8.070717902521041
 20
44.21427917507112
 30
0.0
 11
-7.965744310971744
 21
44.59814486923611
 31
0.0
  0
LINE
  5
20D
330
1F
100
AcDbEntity
  8
0
100
AcDbLine
 10
-7.965744310971744
 20
44.59814486923611
 30
0.0
 11
-7.79078832505625
 21
44.93409808855201
 31
0.0
  0
LINE
  5
20E
330
1F
100
AcDbEntity
  8
0
100
AcDbLine
 10
-7.79078832505625
 20
44.93409808855201
 30
0.0
 11
-7.54584994477456
 21
45.2221388330188
 31
0.0
  0
LINE
  5
20F
330
1F
100
AcDbEntity
  8
0
100
AcDbLine
 10
-7.54584994477456
 20
45.2221388330188
 30
0.0
 11
-7.230929170126673
 21
45.46226710263651
 31
0.0
  0
LINE
  5
210
330
1F
100
AcDbEntity
  8
0
100
AcDbLine
 10
-7.230929170126673
 20
45.46226710263651
 30
0.0
 11
-6.846026001112588
 21
45.65448289740512
 31
0.0
  0
LINE
  5
211
330
1F
100
AcDbEntity
  8
0
100
AcDbLine
 10
-6.846026001112588
 20
45.65448289740512
 30
0.0
 11
-5.866272479985829
 21
45.89517706239506
 31
0.0
  0
LINE
  5
212
330
1F
100
AcDbEntity
  8
0
100
AcDbLine
 10
-5.866272479985829
 20
45.89517706239506
 30
0.0
 11
-4.333073284814804
 21
46.09437223342122
 31
0.0
  0
LINE
  5
213
330
1F
100
AcDbEntity
  8
0
100
AcDbLine
 10
-4.333073284814804
 20
46.09437223342122
 30
0.0
 11
-4.400980729482811
 21
46.36902012074516
 31
0.0
  0
LINE
  5
214
330
1F
100
AcDbEntity
  8
0
100
AcDbLine
 10
-4.400980729482811
 20
46.36902012074516
 30
0.0
 11
-4.604703063486837
 21
46.5893420523347
 31
0.0
  0
LINE
  5
215
330
1F
100
AcDbEntity
  8
0
100
AcDbLine
 10
-4.604703063486837
 20
46.5893420523347
 30
0.0
 11
-4.923113526263497
 21
46.73421126762645
 31
0.0
  0
LINE
  5
216
330
1F
100
AcDbEntity
  8
0
100
AcDbLine
 10
-4.923113526263497
 20
46.73421126762645
 30
0.0
 11
-5.335085357249413
 21
46.78250100605703
 31
0.0
  0
LINE
  5
217
330
1F
100
AcDbEntity
  8
0
100
AcDbLine
 10
-5.335085357249413
 20
46.78250100605703
 30
0.0
 11
-5.861368053426475
 21
46.74552917507112
 31
0.0
  0
LINE
  5
218
330
1F
100
AcDbEntity
  8
0
100
AcDbLine
 10
-5.861368053426475
 20
46.74552917507112
 30
0.0
 11
-6.401986765700117
 21
46.63461368211338
 31
0.0
  0
LINE
  5
219
330
1F
100
AcDbEntity
  8
0
100
AcDbLine
 10
-6.401986765700117
 20
46.63461368211338
 30
0.0
 11
-7.526232238537138
 21
46.19095171028239
 31
0.0
  0
LINE
  5
21A
330
1F
100
AcDbEntity
  8
0
100
AcDbLine
 10
-7.526232238537138
 20
46.19095171028239
 30
0.0
 11
-7.526232238537138
 21
47.86298390344134
 31
0.0
  0
LINE
  5
21B
330
1F
100
AcDbEntity
  8
0
100
AcDbLine
 10
-7.526232238537138
 20
47.86298390344134
 30
0.0
 11
-6.961845920629694
 21
48.06067002014154
 31
0.0
  0
LINE
  5
21C
330
1F
100
AcDbEntity
  8
0
100
AcDbLine
 10
-6.961845920629694
 20
48.06067002014154
 30
0.0
 11
-6.270699039341967
 21
48.2191207243669
 31
0.0
  0
LINE
  5
21D
330
1F
100
AcDbEntity
  8
0
100
AcDbLine
 10
-6.270699039341967
 20
48.2191207243669
 30
0.0
 11
-4.978948536323859
 21
48.35795372235482
 31
0.0
  0
LINE
  5
21E
330
1F
100
AcDbEntity
  8
0
100
AcDbLine
 10
-4.978948536323859
 20
48.35795372235482
 30
0.0
 11
-4.245359502118626
 21
48.3158888330188
 31
0.0
  0
LINE
  5
21F
330
1F
100
AcDbEntity
  8
0
100
AcDbLine
 10
-4.245359502118626
 20
48.3158888330188
 30
0.0
 11
-3.620045115800719
 21
48.18969416501076
 31
0.0
  0
LINE
  5
220
330
1F
100
AcDbEntity
  8
0
100
AcDbLine
 10
-3.620045115800719
 20
48.18969416501076
 30
0.0
 11
-3.103005377370137
 21
47.97936971833068
 31
0.0
  0
LINE
  5
221
330
1F
100
AcDbEntity
  8
0
100
AcDbLine
 10
-3.103005377370137
 20
47.97936971833068
 30
0.0
 11
-2.694240286826875
 21
47.68491549297856
 31
0.0
  0
LINE
  5
222
330
1F
100
AcDbEntity
  8
0
100
AcDbLine
 10
-2.694240286826875
 20
47.68491549297856
 30
0.0
 11
-2.383940991052226
 21
47.29199547285784
 31
0.0
  0
LINE
  5
223
330
1F
100
AcDbEntity
  8
0
100
AcDbLine
 10
-2.383940991052226
 20
47.29199547285784
 30
0.0
 11
-2.162298636927477
 21
46.78627364187192
 31
0.0
  0
LINE
  5
224
330
1F
100
AcDbEntity
  8
0
100
AcDbLine
 10
-2.162298636927477
 20
46.78627364187192
 30
0.0
 11
-2.02931322445263
 21
46.16775000002082
 31
0.0
  0
LINE
  5
225
330
1F
100
AcDbEntity
  8
0
100
AcDbLine
 10
-2.02931322445263
 20
46.16775000002082
 30
0.0
 11
-1.98498475362768
 21
45.43642454730452
 31
0.0
  0
LINE
  5
226
330
1F
100
AcDbEntity
  8
0
100
AcDbLine
 10
-1.98498475362768
 20
45.43642454730452
 30
0.0
 11
-1.98498475362768
 21
42.02596177064456
 31
0.0
  0
LINE
  5
227
330
1F
100
AcDbEntity
  8
0
100
AcDbLine
 10
-1.98498475362768
 20
42.02596177064456
 30
0.0
 11
-4.333073284814804
 21
42.02596177064456
 31
0.0
  0
LINE
  5
228
330
1F
100
AcDbEntity
  8
0
100
AcDbLine
 10
-5.854200045378184
 20
44.12656539237494
 30
0.0
 11
-5.814210105740355
 21
43.89568008050372
 31
0.0
  0
LINE
  5
229
330
1F
100
AcDbEntity
  8
0
100
AcDbLine
 10
-5.814210105740355
 20
43.89568008050372
 30
0.0
 11
-5.694240286826876
 21
43.71006639841116
 31
0.0
  0
LINE
  5
22A
330
1F
100
AcDbEntity
  8
0
100
AcDbLine
 10
-5.694240286826876
 20
43.71006639841116
 30
0.0
 11
-5.500326805941565
 21
43.58783299800875
 31
0.0
  0
LINE
  5
22B
330
1F
100
AcDbEntity
  8
0
100
AcDbLine
 10
-5.500326805941565
 20
43.58783299800875
 30
0.0
 11
-5.238505880388245
 21
43.54708853120794
 31
0.0
  0
LINE
  5
22C
330
1F
100
AcDbEntity
  8
0
100
AcDbLine
 10
-5.238505880388245
 20
43.54708853120794
 30
0.0
 11
-4.872560206343978
 21
43.62254124750573
 31
0.0
  0
LINE
  5
22D
330
1F
100
AcDbEntity
  8
0
100
AcDbLine
 10
-4.872560206343978
 20
43.62254124750573
 30
0.0
 11
-4.583576302923457
 21
43.84889939639909
 31
0.0
  0
LINE
  5
22E
330
1F
100
AcDbEntity
  8
0
100
AcDbLine
 10
-4.583576302923457
 20
43.84889939639909
 30
0.0
 11
-4.395699039341967
 21
44.19296378271699
 31
0.0
  0
LINE
  5
22F
330
1F
100
AcDbEntity
  8
0
100
AcDbLine
 10
-4.395699039341967
 20
44.19296378271699
 30
0.0
 11
-4.333073284814804
 21
44.62153521128842
 31
0.0
  0
LINE
  5
230
330
1F
100
AcDbEntity
  8
0
100
AcDbLine
 10
-4.333073284814804
 20
44.62153521128842
 30
0.0
 11
-4.333073284814804
 21
44.85694768613752
 31
0.0
  0
LINE
  5
231
330
1F
100
AcDbEntity
  8
0
100
AcDbLine
 10
-4.333073284814804
 20
44.85694768613752
 30
0.0
 11
-5.202288576565308
 21
44.73622334006106
 31
0.0
  0
LINE
  5
232
330
1F
100
AcDbEntity
  8
0
100
AcDbLine
 10
-5.202288576565308
 20
44.73622334006106
 30
0.0
 11
-5.487499844170941
 21
44.65737525152988
 31
0.0
  0
LINE
  5
233
330
1F
100
AcDbEntity
  8
0
100
AcDbLine
 10
-5.487499844170941
 20
44.65737525152988
 30
0.0
 11
-5.691222178174967
 21
44.52948289740512
 31
0.0
  0
LINE
  5
234
330
1F
100
AcDbEntity
  8
0
100
AcDbLine
 10
-5.691222178174967
 20
44.52948289740512
 30
0.0
 11
-5.813455578577381
 21
44.35254627768681
 31
0.0
  0
LINE
  5
235
330
1F
100
AcDbEntity
  8
0
100
AcDbLine
 10
-5.813455578577381
 20
44.35254627768681
 30
0.0
 11
-5.854200045378184
 21
44.12656539237494
 31
0.0
  0
LINE
  5
236
330
1F
100
AcDbEntity
  8
0
100
AcDbLine
 10
1.896302972730469
 20
49.87304426561438
 30
0.0
 11
1.797459914380372
 21
49.38109255535281
 31
0.0
  0
LINE
  5
237
330
1F
100
AcDbEntity
  8
0
100
AcDbLine
 10
1.797459914380372
 20
49.38109255535281
 30
0.0
 11
1.500930739330064
 21
48.99175653925623
 31
0.0
  0
LINE
  5
238
330
1F
100
AcDbEntity
  8
0
100
AcDbLine
 10
1.500930739330064
 20
48.99175653925623
 30
0.0
 11
1.042932751402499
 21
48.73823541249567
 31
0.0
  0
LINE
  5
239
330
1F
100
AcDbEntity
  8
0
100
AcDbLine
 10
1.042932751402499
 20
48.73823541249567
 30
0.0
 11
0.4596832544206066
 21
48.65372837024215
 31
0.0
  0
LINE
  5
23A
330
1F
100
AcDbEntity
  8
0
100
AcDbLine
 10
0.4596832544206066
 20
48.65372837024215
 30
0.0
 11
-0.1114938079536378
 21
48.74125352114758
 31
0.0
  0
LINE
  5
23B
330
1F
100
AcDbEntity
  8
0
100
AcDbLine
 10
-0.1114938079536378
 20
48.74125352114758
 30
0.0
 11
-0.5694917958812032
 21
49.00382897386388
 31
0.0
  0
LINE
  5
23C
330
1F
100
AcDbEntity
  8
0
100
AcDbLine
 10
-0.5694917958812032
 20
49.00382897386388
 30
0.0
 11
-0.8705481339093692
 21
49.39618309861237
 31
0.0
  0
LINE
  5
23D
330
1F
100
AcDbEntity
  8
0
100
AcDbLine
 10
-0.8705481339093692
 20
49.39618309861237
 30
0.0
 11
-0.9709002465854264
 21
49.87304426561438
 31
0.0
  0
LINE
  5
23E
330
1F
100
AcDbEntity
  8
0
100
AcDbLine
 10
-0.9709002465854264
 20
49.87304426561438
 30
0.0
 11
-0.8735662425612839
 21
50.35367806843129
 31
0.0
  0
LINE
  5
23F
330
1F
100
AcDbEntity
  8
0
100
AcDbLine
 10
-0.8735662425612839
 20
50.35367806843129
 30
0.0
 11
-0.5815642304888508
 21
50.73320523140914
 31
0.0
  0
LINE
  5
240
330
1F
100
AcDbEntity
  8
0
100
AcDbLine
 10
-0.5815642304888508
 20
50.73320523140914
 30
0.0
 11
-0.1265843512131999
 21
50.97993561370291
 31
0.0
  0
LINE
  5
241
330
1F
100
AcDbEntity
  8
0
100
AcDbLine
 10
-0.1265843512131999
 20
50.97993561370291
 30
0.0
 11
0.4596832544206066
 21
51.0621790744675
 31
0.0
  0
LINE
  5
242
330
1F
100
AcDbEntity
  8
0
100
AcDbLine
 10
0.4596832544206066
 20
51.0621790744675
 30
0.0
 11
1.042932751402499
 21
50.97993561370291
 31
0.0
  0
LINE
  5
243
330
1F
100
AcDbEntity
  8
0
100
AcDbLine
 10
1.042932751402499
 20
50.97993561370291
 30
0.0
 11
1.500930739330064
 21
50.73320523140914
 31
0.0
  0
LINE
  5
244
330
1F
100
AcDbEntity
  8
0
100
AcDbLine
 10
1.500930739330064
 20
50.73320523140914
 30
0.0
 11
1.797459914380372
 21
50.35367806843129
 31
0.0
  0
LINE
  5
245
330
1F
100
AcDbEntity
  8
0
100
AcDbLine
 10
1.797459914380372
 20
50.35367806843129
 30
0.0
 11
1.896302972730469
 21
49.87304426561438
 31
0.0
  0
LINE
  5
246
330
1F
100
AcDbEntity
  8
0
100
AcDbLine
 10
-0.826031031293677
 20
42.02596177064456
 30
0.0
 11
-0.826031031293677
 21
48.20704828975925
 31
0.0
  0
LINE
  5
247
330
1F
100
AcDbEntity
  8
0
100
AcDbLine
 10
-0.826031031293677
 20
48.20704828975925
 30
0.0
 11
1.745397540134893
 21
48.20704828975925
 31
0.0
  0
LINE
  5
248
330
1F
100
AcDbEntity
  8
0
100
AcDbLine
 10
1.745397540134893
 20
48.20704828975925
 30
0.0
 11
1.745397540134893
 21
42.02596177064456
 31
0.0
  0
LINE
  5
249
330
1F
100
AcDbEntity
  8
0
100
AcDbLine
 10
1.745397540134893
 20
42.02596177064456
 30
0.0
 11
-0.826031031293677
 21
42.02596177064456
 31
0.0
  0
LINE
  5
24A
330
1F
100
AcDbEntity
  8
0
100
AcDbLine
 10
9.683023294662057
 20
42.88914084509124
 30
0.0
 11
9.613040900295859
 21
42.04803169016166
 31
0.0
  0
LINE
  5
24B
330
1F
100
AcDbEntity
  8
0
100
AcDbLine
 10
9.613040900295859
 20
42.04803169016166
 30
0.0
 11
9.40309371719727
 21
41.3053883300007
 31
0.0
  0
LINE
  5
24C
330
1F
100
AcDbEntity
  8
0
100
AcDbLine
 10
9.40309371719727
 20
41.3053883300007
 30
0.0
 11
9.053181745366288
 21
40.66121076460834
 31
0.0
  0
LINE
  5
24D
330
1F
100
AcDbEntity
  8
0
100
AcDbLine
 10
9.053181745366288
 20
40.66121076460834
 30
0.0
 11
8.563304984802901
 21
40.1154989939846
 31
0.0
  0
LINE
  5
24E
330
1F
100
AcDbEntity
  8
0
100
AcDbLine
 10
8.563304984802901
 20
40.1154989939846
 30
0.0
 11
7.939122389229468
 21
39.68107997990009
 31
0.0
  0
LINE
  5
24F
330
1F
100
AcDbEntity
  8
0
100
AcDbLine
 10
7.939122389229468
 20
39.68107997990009
 30
0.0
 11
7.186292912368296
 21
39.37078068412545
 31
0.0
  0
LINE
  5
250
330
1F
100
AcDbEntity
  8
0
100
AcDbLine
 10
7.186292912368296
 20
39.37078068412545
 30
0.0
 11
6.304816554219405
 21
39.18460110666066
 31
0.0
  0
LINE
  5
251
330
1F
100
AcDbEntity
  8
0
100
AcDbLine
 10
6.304816554219405
 20
39.18460110666066
 30
0.0
 11
5.294693314782783
 21
39.12254124750573
 31
0.0
  0
LINE
  5
252
330
1F
100
AcDbEntity
  8
0
100
AcDbLine
 10
5.294693314782783
 20
39.12254124750573
 30
0.0
 11
4.171956896271714
 21
39.21308450706307
 31
0.0
  0
LINE
  5
253
330
1F
100
AcDbEntity
  8
0
100
AcDbLine
 10
4.171956896271714
 20
39.21308450706307
 30
0.0
 11
3.393284864078557
 21
39.41831589539305
 31
0.0
  0
LINE
  5
254
330
1F
100
AcDbEntity
  8
0
100
AcDbLine
 10
3.393284864078557
 20
39.41831589539305
 30
0.0
 11
3.393284864078557
 21
41.43441247486992
 31
0.0
  0
LINE
  5
255
330
1F
100
AcDbEntity
  8
0
100
AcDbLine
 10
3.393284864078557
 20
41.43441247486992
 30
0.0
 11
3.812801966694252
 21
41.21710865193229
 31
0.0
  0
LINE
  5
256
330
1F
100
AcDbEntity
  8
0
100
AcDbLine
 10
3.812801966694252
 20
41.21710865193229
 30
0.0
 11
4.298717459651995
 21
41.04809456742525
 31
0.0
  0
LINE
  5
257
330
1F
100
AcDbEntity
  8
0
100
AcDbLine
 10
4.298717459651995
 20
41.04809456742525
 30
0.0
 11
5.222258707136905
 21
40.9032253521335
 31
0.0
  0
LINE
  5
258
330
1F
100
AcDbEntity
  8
0
100
AcDbLine
 10
5.222258707136905
 20
40.9032253521335
 30
0.0
 11
5.999421685004113
 21
41.00735010062444
 31
0.0
  0
LINE
  5
259
330
1F
100
AcDbEntity
  8
0
100
AcDbLine
 10
5.999421685004113
 20
41.00735010062444
 30
0.0
 11
6.604552469712359
 21
41.31972434609727
 31
0.0
  0
LINE
  5
25A
330
1F
100
AcDbEntity
  8
0
100
AcDbLine
 10
6.604552469712359
 20
41.31972434609727
 30
0.0
 11
6.831665145768703
 21
41.54495070424617
 31
0.0
  0
LINE
  5
25B
330
1F
100
AcDbEntity
  8
0
100
AcDbLine
 10
6.831665145768703
 20
41.54495070424617
 30
0.0
 11
6.993888485808941
 21
41.80413078472907
 31
0.0
  0
LINE
  5
25C
330
1F
100
AcDbEntity
  8
0
100
AcDbLine
 10
6.993888485808941
 20
41.80413078472907
 30
0.0
 11
7.091222489833083
 21
42.09726458754597
 31
0.0
  0
LINE
  5
25D
330
1F
100
AcDbEntity
  8
0
100
AcDbLine
 10
7.091222489833083
 20
42.09726458754597
 30
0.0
 11
7.123667157841131
 21
42.42435211269687
 31
0.0
  0
LINE
  5
25E
330
1F
100
AcDbEntity
  8
0
100
AcDbLine
 10
7.123667157841131
 20
42.42435211269687
 30
0.0
 11
7.123667157841131
 21
42.80463380283771
 31
0.0
  0
LINE
  5
25F
330
1F
100
AcDbEntity
  8
0
100
AcDbLine
 10
7.099522288625841
 20
42.80463380283771
 30
0.0
 11
6.769793918404517
 21
42.42435211269687
 31
0.0
  0
LINE
  5
260
330
1F
100
AcDbEntity
  8
0
100
AcDbLine
 10
6.769793918404517
 20
42.42435211269687
 30
0.0
 11
6.33594079969224
 21
42.12857746480955
 31
0.0
  0
LINE
  5
261
330
1F
100
AcDbEntity
  8
0
100
AcDbLine
 10
6.33594079969224
 20
42.12857746480955
 30
0.0
 11
5.832671181986
 21
41.93843661973913
 31
0.0
  0
LINE
  5
262
330
1F
100
AcDbEntity
  8
0
100
AcDbLine
 10
5.832671181986
 20
41.93843661973913
 30
0.0
 11
5.294693314782783
 21
41.87505633804899
 31
0.0
  0
LINE
  5
263
330
1F
100
AcDbEntity
  8
0
100
AcDbLine
 10
5.294693314782783
 20
41.87505633804899
 30
0.0
 11
4.728420678967898
 21
41.92693008050372
 31
0.0
  0
LINE
  5
264
330
1F
100
AcDbEntity
  8
0
100
AcDbLine
 10
4.728420678967898
 20
41.92693008050372
 30
0.0
 11
4.224773797680167
 21
42.0825513078679
 31
0.0
  0
LINE
  5
265
330
1F
100
AcDbEntity
  8
0
100
AcDbLine
 10
4.224773797680167
 20
42.0825513078679
 30
0.0
 11
3.783752670919609
 21
42.34192002014154
 31
0.0
  0
LINE
  5
266
330
1F
100
AcDbEntity
  8
0
100
AcDbLine
 10
3.783752670919609
 20
42.34192002014154
 30
0.0
 11
3.405357298686205
 21
42.70503621732464
 31
0.0
  0
LINE
  5
267
330
1F
100
AcDbEntity
  8
0
100
AcDbLine
 10
3.405357298686205
 20
42.70503621732464
 30
0.0
 11
3.101660115587614
 21
43.15945020122806
 31
0.0
  0
LINE
  5
268
330
1F
100
AcDbEntity
  8
0
100
AcDbLine
 10
3.101660115587614
 20
43.15945020122806
 30
0.0
 11
2.884733556231473
 21
43.69271227366267
 31
0.0
  0
LINE
  5
269
330
1F
100
AcDbEntity
  8
0
100
AcDbLine
 10
2.884733556231473
 20
43.69271227366267
 30
0.0
 11
2.754577620617793
 21
44.30482243462846
 31
0.0
  0
LINE
  5
26A
330
1F
100
AcDbEntity
  8
0
100
AcDbLine
 10
2.754577620617793
 20
44.30482243462846
 30
0.0
 11
2.711192308746563
 21
44.99578068412545
 31
0.0
  0
LINE
  5
26B
330
1F
100
AcDbEntity
  8
0
100
AcDbLine
 10
2.711192308746563
 20
44.99578068412545
 30
0.0
 11
2.801735568303907
 21
45.93893963784778
 31
0.0
  0
LINE
  5
26C
330
1F
100
AcDbEntity
  8
0
100
AcDbLine
 10
2.801735568303907
 20
45.93893963784778
 30
0.0
 11
3.07336534697594
 21
46.76439235414557
 31
0.0
  0
LINE
  5
26D
330
1F
100
AcDbEntity
  8
0
100
AcDbLine
 10
3.07336534697594
 20
46.76439235414557
 30
0.0
 11
3.506463938525242
 21
47.44271227366267
 31
0.0
  0
LINE
  5
26E
330
1F
100
AcDbEntity
  8
0
100
AcDbLine
 10
3.506463938525242
 20
47.44271227366267
 30
0.0
 11
4.08141363671437
 21
47.94447283704295
 31
0.0
  0
LINE
  5
26F
330
1F
100
AcDbEntity
  8
0
100
AcDbLine
 10
4.08141363671437
 20
47.94447283704295
 30
0.0
 11
4.76048808339445
 21
48.25458350102685
 31
0.0
  0
LINE
  5
270
330
1F
100
AcDbEntity
  8
0
100
AcDbLine
 10
4.76048808339445
 20
48.25458350102685
 30
0.0
 11
5.505960920416585
 21
48.35795372235482
 31
0.0
  0
LINE
  5
271
330
1F
100
AcDbEntity
  8
0
100
AcDbLine
 10
5.505960920416585
 20
48.35795372235482
 30
0.0
 11
6.006212429470911
 21
48.30853219317978
 31
0.0
  0
LINE
  5
272
330
1F
100
AcDbEntity
  8
0
100
AcDbLine
 10
6.006212429470911
 20
48.30853219317978
 30
0.0
 11
6.438556493857233
 21
48.16026760565462
 31
0.0
  0
LINE
  5
273
330
1F
100
AcDbEntity
  8
0
100
AcDbLine
 10
6.438556493857233
 20
48.16026760565462
 30
0.0
 11
6.802993113575539
 21
47.91315995977937
 31
0.0
  0
LINE
  5
274
330
1F
100
AcDbEntity
  8
0
100
AcDbLine
 10
6.802993113575539
 20
47.91315995977937
 30
0.0
 11
7.099522288625841
 21
47.56720925555402
 31
0.0
  0
LINE
  5
275
330
1F
100
AcDbEntity
  8
0
100
AcDbLine
 10
7.123667157841131
 20
47.56720925555402
 30
0.0
 11
7.123667157841131
 21
48.20704828975925
 31
0.0
  0
LINE
  5
276
330
1F
100
AcDbEntity
  8
0
100
AcDbLine
 10
7.123667157841131
 20
48.20704828975925
 30
0.0
 11
9.683023294662057
 21
48.20704828975925
 31
0.0
  0
LINE
  5
277
330
1F
100
AcDbEntity
  8
0
100
AcDbLine
 10
9.683023294662057
 20
48.20704828975925
 30
0.0
 11
9.683023294662057
 21
42.88914084509124
 31
0.0
  0
LINE
  5
278
330
1F
100
AcDbEntity
  8
0
100
AcDbLine
 10
7.165920678967891
 20
45.29155533201277
 30
0.0
 11
7.104803978766685
 21
45.77897987929647
 31
0.0
  0
LINE
  5
279
330
1F
100
AcDbEntity
  8
0
100
AcDbLine
 10
7.104803978766685
 20
45.77897987929647
 30
0.0
 11
6.921453878163062
 21
46.15473440645945
 31
0.0
  0
LINE
  5
27A
330
1F
100
AcDbEntity
  8
0
100
AcDbLine
 10
6.921453878163062
 20
46.15473440645945
 30
0.0
 11
6.636997137720407
 21
46.39467404428641
 31
0.0
  0
LINE
  5
27B
330
1F
100
AcDbEntity
  8
0
100
AcDbLine
 10
6.636997137720407
 20
46.39467404428641
 30
0.0
 11
6.2725605180021
 21
46.47465392356207
 31
0.0
  0
LINE
  5
27C
330
1F
100
AcDbEntity
  8
0
100
AcDbLine
 10
6.2725605180021
 20
46.47465392356207
 30
0.0
 11
5.881715447579559
 21
46.3780744467009
 31
0.0
  0
LINE
  5
27D
330
1F
100
AcDbEntity
  8
0
100
AcDbLine
 10
5.881715447579559
 20
46.3780744467009
 30
0.0
 11
5.578395528062458
 21
46.0883360161174
 31
0.0
  0
LINE
  5
27E
330
1F
100
AcDbEntity
  8
0
100
AcDbLine
 10
5.578395528062458
 20
46.0883360161174
 30
0.0
 11
5.383727520014167
 21
45.63712877265664
 31
0.0
  0
LINE
  5
27F
330
1F
100
AcDbEntity
  8
0
100
AcDbLine
 10
5.383727520014167
 20
45.63712877265664
 30
0.0
 11
5.318838183998072
 21
45.05614285716367
 31
0.0
  0
LINE
  5
280
330
1F
100
AcDbEntity
  8
0
100
AcDbLine
 10
5.318838183998072
 20
45.05614285716367
 30
0.0
 11
5.37316413973248
 21
44.52042857144939
 31
0.0
  0
LINE
  5
281
330
1F
100
AcDbEntity
  8
0
100
AcDbLine
 10
5.37316413973248
 20
44.52042857144939
 30
0.0
 11
5.536142006935698
 21
44.10845674046347
 31
0.0
  0
LINE
  5
282
330
1F
100
AcDbEntity
  8
0
100
AcDbLine
 10
5.536142006935698
 20
44.10845674046347
 30
0.0
 11
5.816826111563464
 21
43.84588128774718
 31
0.0
  0
LINE
  5
283
330
1F
100
AcDbEntity
  8
0
100
AcDbLine
 10
5.816826111563464
 20
43.84588128774718
 30
0.0
 11
6.224270779571516
 21
43.75835613684175
 31
0.0
  0
LINE
  5
284
330
1F
100
AcDbEntity
  8
0
100
AcDbLine
 10
6.224270779571516
 20
43.75835613684175
 30
0.0
 11
6.617379431482981
 21
43.84814486923611
 31
0.0
  0
LINE
  5
285
330
1F
100
AcDbEntity
  8
0
100
AcDbLine
 10
6.617379431482981
 20
43.84814486923611
 30
0.0
 11
6.915417660859243
 21
44.1175110664192
 31
0.0
  0
LINE
  5
286
330
1F
100
AcDbEntity
  8
0
100
AcDbLine
 10
6.915417660859243
 20
44.1175110664192
 30
0.0
 11
7.10329492444073
 21
44.53778269619788
 31
0.0
  0
LINE
  5
287
330
1F
100
AcDbEntity
  8
0
100
AcDbLine
 10
7.10329492444073
 20
44.53778269619788
 30
0.0
 11
7.165920678967891
 21
45.08028772637897
 31
0.0
  0
LINE
  5
288
330
1F
100
AcDbEntity
  8
0
100
AcDbLine
 10
7.165920678967891
 20
45.08028772637897
 30
0.0
 11
7.165920678967891
 21
45.29155533201277
 31
0.0
  0
LINE
  5
289
330
1F
100
AcDbEntity
  8
0
100
AcDbLine
 10
14.9043512624689
 20
42.02596177064456
 30
0.0
 11
14.9043512624689
 21
45.55111267607715
 31
0.0
  0
LINE
  5
28A
330
1F
100
AcDbEntity
  8
0
100
AcDbLine
 10
14.9043512624689
 20
45.55111267607715
 30
0.0
 11
14.86021142343469
 21
45.9551619718518
 31
0.0
  0
LINE
  5
28B
330
1F
100
AcDbEntity
  8
0
100
AcDbLine
 10
14.86021142343469
 20
45.9551619718518
 30
0.0
 11
14.72779190633207
 21
46.24376861169084
 31
0.0
  0
LINE
  5
28C
330
1F
100
AcDbEntity
  8
0
100
AcDbLine
 10
14.72779190633207
 20
46.24376861169084
 30
0.0
 11
14.50709271116105
 21
46.41693259559425
 31
0.0
  0
LINE
  5
28D
330
1F
100
AcDbEntity
  8
0
100
AcDbLine
 10
14.50709271116105
 20
46.41693259559425
 30
0.0
 11
14.19811383792162
 21
46.47465392356207
 31
0.0
  0
LINE
  5
28E
330
1F
100
AcDbEntity
  8
0
100
AcDbLine
 10
14.19811383792162
 20
46.47465392356207
 30
0.0
 11
13.89479391840451
 21
46.40901006038299
 31
0.0
  0
LINE
  5
28F
330
1F
100
AcDbEntity
  8
0
100
AcDbLine
 10
13.89479391840451
 20
46.40901006038299
 30
0.0
 11
13.67296293248902
 21
46.21207847084577
 31
0.0
  0
LINE
  5
290
330
1F
100
AcDbEntity
  8
0
100
AcDbLine
 10
13.67296293248902
 20
46.21207847084577
 30
0.0
 11
13.537148043153
 21
45.91253118714356
 31
0.0
  0
LINE
  5
291
330
1F
100
AcDbEntity
  8
0
100
AcDbLine
 10
13.537148043153
 20
45.91253118714356
 30
0.0
 11
13.49187641337433
 21
45.53904024146951
 31
0.0
  0
LINE
  5
292
330
1F
100
AcDbEntity
  8
0
100
AcDbLine
 10
13.49187641337433
 20
45.53904024146951
 30
0.0
 11
13.49187641337433
 21
42.02596177064456
 31
0.0
  0
LINE
  5
293
330
1F
100
AcDbEntity
  8
0
100
AcDbLine
 10
13.49187641337433
 20
42.02596177064456
 30
0.0
 11
10.92044784194576
 21
42.02596177064456
 31
0.0
  0
LINE
  5
294
330
1F
100
AcDbEntity
  8
0
100
AcDbLine
 10
10.92044784194576
 20
42.02596177064456
 30
0.0
 11
10.92044784194576
 21
51.17686720324014
 31
0.0
  0
LINE
  5
295
330
1F
100
AcDbEntity
  8
0
100
AcDbLine
 10
10.92044784194576
 20
51.17686720324014
 30
0.0
 11
13.49187641337433
 21
51.17686720324014
 31
0.0
  0
LINE
  5
296
330
1F
100
AcDbEntity
  8
0
100
AcDbLine
 10
13.49187641337433
 20
51.17686720324014
 30
0.0
 11
13.49187641337433
 21
47.36801408452786
 31
0.0
  0
LINE
  5
297
330
1F
100
AcDbEntity
  8
0
100
AcDbLine
 10
13.51602128258962
 20
47.36801408452786
 30
0.0
 11
13.88347601095984
 21
47.78979476863249
 31
0.0
  0
LINE
  5
298
330
1F
100
AcDbEntity
  8
0
100
AcDbLine
 10
13.88347601095984
 20
47.78979476863249
 30
0.0
 11
14.32185629264999
 21
48.10141448694235
 31
0.0
  0
LINE
  5
299
330
1F
100
AcDbEntity
  8
0
100
AcDbLine
 10
14.32185629264999
 20
48.10141448694235
 30
0.0
 11
14.81305347574857
 21
48.2938189135017
 31
0.0
  0
LINE
  5
29A
330
1F
100
AcDbEntity
  8
0
100
AcDbLine
 10
14.81305347574857
 20
48.2938189135017
 30
0.0
 11
15.33895890834415
 21
48.35795372235482
 31
0.0
  0
LINE
  5
29B
330
1F
100
AcDbEntity
  8
0
100
AcDbLine
 10
15.33895890834415
 20
48.35795372235482
 30
0.0
 11
15.81016112162383
 21
48.31777515092625
 31
0.0
  0
LINE
  5
29C
330
1F
100
AcDbEntity
  8
0
100
AcDbLine
 10
15.81016112162383
 20
48.31777515092625
 30
0.0
 11
16.22175568902825
 21
48.19723943664054
 31
0.0
  0
LINE
  5
29D
330
1F
100
AcDbEntity
  8
0
100
AcDbLine
 10
16.22175568902825
 20
48.19723943664054
 30
0.0
 11
16.57374261055742
 21
47.99634657949768
 31
0.0
  0
LINE
  5
29E
330
1F
100
AcDbEntity
  8
0
100
AcDbLine
 10
16.57374261055742
 20
47.99634657949768
 30
0.0
 11
16.86612188621135
 21
47.71509657949768
 31
0.0
  0
LINE
  5
29F
330
1F
100
AcDbEntity
  8
0
100
AcDbLine
 10
16.86612188621135
 20
47.71509657949768
 30
0.0
 11
17.09587540733811
 21
47.35575301812947
 31
0.0
  0
LINE
  5
2A0
330
1F
100
AcDbEntity
  8
0
100
AcDbLine
 10
17.09587540733811
 20
47.35575301812947
 30
0.0
 11
17.2599850652858
 21
46.92057947688199
 31
0.0
  0
LINE
  5
2A1
330
1F
100
AcDbEntity
  8
0
100
AcDbLine
 10
17.2599850652858
 20
46.92057947688199
 30
0.0
 11
17.35845086005441
 21
46.40957595575522
 31
0.0
  0
LINE
  5
2A2
330
1F
100
AcDbEntity
  8
0
100
AcDbLine
 10
17.35845086005441
 20
46.40957595575522
 30
0.0
 11
17.39127279164395
 21
45.82274245474919
 31
0.0
  0
LINE
  5
2A3
330
1F
100
AcDbEntity
  8
0
100
AcDbLine
 10
17.39127279164395
 20
45.82274245474919
 30
0.0
 11
17.39127279164395
 21
42.02596177064456
 31
0.0
  0
LINE
  5
2A4
330
1F
100
AcDbEntity
  8
0
100
AcDbLine
 10
17.39127279164395
 20
42.02596177064456
 30
0.0
 11
14.9043512624689
 21
42.02596177064456
 31
0.0
  0
LINE
  5
2A5
330
1F
100
AcDbEntity
  8
0
100
AcDbLine
 10
22.90233919003429
 20
42.11046881289808
 30
0.0
 11
22.32889854617111
 21
41.95050905434677
 31
0.0
  0
LINE
  5
2A6
330
1F
100
AcDbEntity
  8
0
100
AcDbLine
 10
22.32889854617111
 20
41.95050905434677
 30
0.0
 11
21.36913999486326
 21
41.87505633804899
 31
0.0
  0
LINE
  5
2A7
330
1F
100
AcDbEntity
  8
0
100
AcDbLine
 10
21.36913999486326
 20
41.87505633804899
 30
0.0
 11
20.86115458238842
 21
41.9120281690349
 31
0.0
  0
LINE
  5
2A8
330
1F
100
AcDbEntity
  8
0
100
AcDbLine
 10
20.86115458238842
 20
41.9120281690349
 30
0.0
 11
20.41164502504435
 21
42.02294366199265
 31
0.0
  0
LINE
  5
2A9
330
1F
100
AcDbEntity
  8
0
100
AcDbLine
 10
20.41164502504435
 20
42.02294366199265
 30
0.0
 11
20.02061132283108
 21
42.20780281692223
 31
0.0
  0
LINE
  5
2AA
330
1F
100
AcDbEntity
  8
0
100
AcDbLine
 10
20.02061132283108
 20
42.20780281692223
 30
0.0
 11
19.68805347574858
 21
42.46660563382363
 31
0.0
  0
LINE
  5
2AB
330
1F
100
AcDbEntity
  8
0
100
AcDbLine
 10
19.68805347574858
 20
42.46660563382363
 30
0.0
 11
19.42264854617111
 21
42.79369315897454
 31
0.0
  0
LINE
  5
2AC
330
1F
100
AcDbEntity
  8
0
100
AcDbLine
 10
19.42264854617111
 20
42.79369315897454
 30
0.0
 11
19.23307359647292
 21
43.18340643865261
 31
0.0
  0
LINE
  5
2AD
330
1F
100
AcDbEntity
  8
0
100
AcDbLine
 10
19.23307359647292
 20
43.18340643865261
 30
0.0
 11
19.11932862665401
 21
43.63574547285784
 31
0.0
  0
LINE
  5
2AE
330
1F
100
AcDbEntity
  8
0
100
AcDbLine
 10
19.11932862665401
 20
43.63574547285784
 30
0.0
 11
19.08141363671437
 21
44.15071026159023
 31
0.0
  0
LINE
  5
2AF
330
1F
100
AcDbEntity
  8
0
100
AcDbLine
 10
19.08141363671437
 20
44.15071026159023
 30
0.0
 11
19.08141363671437
 21
46.42636418513148
 31
0.0
  0
LINE
  5
2B0
330
1F
100
AcDbEntity
  8
0
100
AcDbLine
 10
19.08141363671437
 20
46.42636418513148
 30
0.0
 11
18.10958265079888
 21
46.42636418513148
 31
0.0
  0
LINE
  5
2B1
330
1F
100
AcDbEntity
  8
0
100
AcDbLine
 10
18.10958265079888
 20
46.42636418513148
 30
0.0
 11
18.10958265079888
 21
48.20704828975925
 31
0.0
  0
LINE
  5
2B2
330
1F
100
AcDbEntity
  8
0
100
AcDbLine
 10
18.10958265079888
 20
48.20704828975925
 30
0.0
 11
19.08141363671437
 21
48.20704828975925
 31
0.0
  0
LINE
  5
2B3
330
1F
100
AcDbEntity
  8
0
100
AcDbLine
 10
19.08141363671437
 20
48.20704828975925
 30
0.0
 11
19.08141363671437
 21
49.42032796782766
 31
0.0
  0
LINE
  5
2B4
330
1F
100
AcDbEntity
  8
0
100
AcDbLine
 10
19.08141363671437
 20
49.42032796782766
 30
0.0
 11
21.61662490432001
 21
50.12052917507112
 31
0.0
  0
LINE
  5
2B5
330
1F
100
AcDbEntity
  8
0
100
AcDbLine
 10
21.61662490432001
 20
50.12052917507112
 30
0.0
 11
21.61662490432001
 21
48.20704828975925
 31
0.0
  0
LINE
  5
2B6
330
1F
100
AcDbEntity
  8
0
100
AcDbLine
 10
21.61662490432001
 20
48.20704828975925
 30
0.0
 11
22.90233919003429
 21
48.20704828975925
 31
0.0
  0
LINE
  5
2B7
330
1F
100
AcDbEntity
  8
0
100
AcDbLine
 10
22.90233919003429
 20
48.20704828975925
 30
0.0
 11
22.90233919003429
 21
46.42636418513148
 31
0.0
  0
LINE
  5
2B8
330
1F
100
AcDbEntity
  8
0
100
AcDbLine
 10
22.90233919003429
 20
46.42636418513148
 30
0.0
 11
21.61662490432001
 21
46.42636418513148
 31
0.0
  0
LINE
  5
2B9
330
1F
100
AcDbEntity
  8
0
100
AcDbLine
 10
21.61662490432001
 20
46.42636418513148
 30
0.0
 11
21.61662490432001
 21
44.57324547285784
 31
0.0
  0
LINE
  5
2BA
330
1F
100
AcDbEntity
  8
0
100
AcDbLine
 10
21.61662490432001
 20
44.57324547285784
 30
0.0
 11
21.65699210753932
 21
44.2167313883508
 31
0.0
  0
LINE
  5
2BB
330
1F
100
AcDbEntity
  8
0
100
AcDbLine
 10
21.65699210753932
 20
44.2167313883508
 30
0.0
 11
21.77809371719727
 21
43.96207847084577
 31
0.0
  0
LINE
  5
2BC
330
1F
100
AcDbEntity
  8
0
100
AcDbLine
 10
21.77809371719727
 20
43.96207847084577
 30
0.0
 11
21.97992973329385
 21
43.80928672034275
 31
0.0
  0
LINE
  5
2BD
330
1F
100
AcDbEntity
  8
0
100
AcDbLine
 10
21.97992973329385
 20
43.80928672034275
 30
0.0
 11
22.26250015582906
 21
43.75835613684175
 31
0.0
  0
LINE
  5
2BE
330
1F
100
AcDbEntity
  8
0
100
AcDbLine
 10
22.26250015582906
 20
43.75835613684175
 30
0.0
 11
22.90233919003429
 21
43.89115291752585
 31
0.0
  0
LINE
  5
2BF
330
1F
100
AcDbEntity
  8
0
100
AcDbLine
 10
22.90233919003429
 20
43.89115291752585
 30
0.0
 11
22.90233919003429
 21
42.11046881289808
 31
0.0
  0
LINE
  5
2C0
330
1F
100
AcDbEntity
  8
0
100
AcDbLine
 10
27.73672756618921
 20
21.51066962348085
 30
0.0
 11
52.47345513237846
 21
21.51066962348085
 31
0.0
  0
LINE
  5
2C1
330
1F
100
AcDbEntity
  8
0
100
AcDbLine
 10
2.999999999999949
 20
25.01066962348085
 30
0.0
 11
46.47345513237847
 21
25.01066962348085
 31
0.0
  0
LINE
  5
2C2
330
1F
100
AcDbEntity
  8
0
100
AcDbLine
 10
-21.73560376866552
 20
21.51066962348085
 30
0.0
 11
21.73672756618922
 21
21.51066962348085
 31
0.0
  0
LINE
  5
2C3
330
1F
100
AcDbEntity
  8
0
100
AcDbLine
 10
-52.44875398262589
 20
21.51066962348085
 30
0.0
 11
-27.73560471505853
 21
21.51066962348085
 31
0.0
  0
LINE
  5
2C4
330
1F
100
AcDbEntity
  8
0
100
AcDbLine
 10
-46.47345513237856
 20
25.01066962348085
 30
0.0
 11
-3.00000000000004
 21
25.01066962348085
 31
0.0
  0
LINE
  5
2C5
330
1F
100
AcDbEntity
  8
0
100
AcDbLine
 10
-52.44875398262589
 20
21.51066962348085
 30
0.0
 11
-52.44875398262589
 21
14.51066962348084
 31
0.0
  0
LINE
  5
2C6
330
1F
100
AcDbEntity
  8
0
100
AcDbLine
 10
52.47345513237846
 20
21.51066962348085
 30
0.0
 11
52.47345513237846
 21
14.51066962348084
 31
0.0
  0
LINE
  5
2C7
330
1F
100
AcDbEntity
  8
0
100
AcDbLine
 10
-21.73560376866552
 20
14.51066962348084
 30
0.0
 11
21.73672756618922
 21
14.51066962348084
 31
0.0
  0
LINE
  5
2C8
330
1F
100
AcDbEntity
  8
0
100
AcDbLine
 10
-52.44875398262589
 20
14.51066962348084
 30
0.0
 11
-27.73560471505853
 21
14.51066962348084
 31
0.0
  0
LINE
  5
2C9
330
1F
100
AcDbEntity
  8
0
100
AcDbLine
 10
-46.47345513237856
 20
18.01066962348084
 30
0.0
 11
-3.00000000000004
 21
18.01066962348084
 31
0.0
  0
LINE
  5
2CA
330
1F
100
AcDbEntity
  8
0
100
AcDbLine
 10
27.73672756618921
 20
14.51066962348084
 30
0.0
 11
52.47345513237846
 21
14.51066962348084
 31
0.0
  0
LINE
  5
2CB
330
1F
100
AcDbEntity
  8
0
100
AcDbLine
 10
2.999999999999949
 20
18.01066962348084
 30
0.0
 11
46.47345513237847
 21
18.01066962348084
 31
0.0
  0
LINE
  5
2CC
330
1F
100
AcDbEntity
  8
0
100
AcDbLine
 10
-52.44875398262589
 20
14.51066962348084
 30
0.0
 11
-52.44875398262589
 21
7.510669623480828
 31
0.0
  0
LINE
  5
2CD
330
1F
100
AcDbEntity
  8
0
100
AcDbLine
 10
52.47345513237846
 20
14.51066962348084
 30
0.0
 11
52.47345513237846
 21
7.510669623480828
 31
0.0
  0
LINE
  5
2CE
330
1F
100
AcDbEntity
  8
0
100
AcDbLine
 10
-21.73560376866552
 20
7.510669623480828
 30
0.0
 11
21.73672756618922
 21
7.510669623480828
 31
0.0
  0
LINE
  5
2CF
330
1F
100
AcDbEntity
  8
0
100
AcDbLine
 10
-52.44875398262589
 20
7.510669623480828
 30
0.0
 11
-27.73560471505853
 21
7.510669623480828
 31
0.0
  0
LINE
  5
2D0
330
1F
100
AcDbEntity
  8
0
100
AcDbLine
 10
-46.47345513237856
 20
11.01066962348083
 30
0.0
 11
-3.00000000000004
 21
11.01066962348083
 31
0.0
  0
LINE
  5
2D1
330
1F
100
AcDbEntity
  8
0
100
AcDbLine
 10
27.73672756618921
 20
7.510669623480828
 30
0.0
 11
52.47345513237846
 21
7.510669623480828
 31
0.0
  0
LINE
  5
2D2
330
1F
100
AcDbEntity
  8
0
100
AcDbLine
 10
2.999999999999949
 20
11.01066962348083
 30
0.0
 11
46.47345513237847
 21
11.01066962348083
 31
0.0
  0
LINE
  5
2D3
330
1F
100
AcDbEntity
  8
0
100
AcDbLine
 10
-52.44875398262589
 20
7.510669623480828
 30
0.0
 11
-52.44875398262589
 21
0.5106696234808182
 31
0.0
  0
LINE
  5
2D4
330
1F
100
AcDbEntity
  8
0
100
AcDbLine
 10
52.47345513237846
 20
7.510669623480828
 30
0.0
 11
52.47345513237846
 21
0.5106696234808182
 31
0.0
  0
LINE
  5
2D5
330
1F
100
AcDbEntity
  8
0
100
AcDbLine
 10
-21.73560376866552
 20
0.5106696234808182
 30
0.0
 11
21.73672756618922
 21
0.5106696234808182
 31
0.0
  0
LINE
  5
2D6
330
1F
100
AcDbEntity
  8
0
100
AcDbLine
 10
-52.44875398262589
 20
0.5106696234808182
 30
0.0
 11
-27.73560471505853
 21
0.5106696234808182
 31
0.0
  0
LINE
  5
2D7
330
1F
100
AcDbEntity
  8
0
100
AcDbLine
 10
2.999999999999949
 20
4.010669623480823
 30
0.0
 11
46.47345513237847
 21
4.010669623480823
 31
0.0
  0
LINE
  5
2D8
330
1F
100
AcDbEntity
  8
0
100
AcDbLine
 10
-46.47345513237856
 20
4.010669623480823
 30
0.0
 11
-3.00000000000004
 21
4.010669623480823
 31
0.0
  0
LINE
  5
2D9
330
1F
100
AcDbEntity
  8
0
100
AcDbLine
 10
27.73672756618921
 20
0.5106696234808182
 30
0.0
 11
52.47345513237846
 21
0.5106696234808182
 31
0.0
  0
LINE
  5
2DA
330
1F
100
AcDbEntity
  8
0
100
AcDbLine
 10
-52.44875398262589
 20
0.5106696234808182
 30
0.0
 11
-52.44875398262589
 21
-6.48933037651918
 31
0.0
  0
LINE
  5
2DB
330
1F
100
AcDbEntity
  8
0
100
AcDbLine
 10
52.47345513237846
 20
0.5106696234808182
 30
0.0
 11
52.47345513237846
 21
-6.48933037651918
 31
0.0
  0
LINE
  5
2DC
330
1F
100
AcDbEntity
  8
0
100
AcDbLine
 10
-21.73560376866552
 20
-20.4893303765192
 30
0.0
 11
21.73672756618922
 21
-20.4893303765192
 31
0.0
  0
LINE
  5
2DD
330
1F
100
AcDbEntity
  8
0
100
AcDbLine
 10
-52.44875398262589
 20
-27.48933037651921
 30
0.0
 11
-27.73560471505853
 21
-27.48933037651921
 31
0.0
  0
LINE
  5
2DE
330
1F
100
AcDbEntity
  8
0
100
AcDbLine
 10
-52.44875398262589
 20
-6.48933037651918
 30
0.0
 11
-27.73560471505853
 21
-6.48933037651918
 31
0.0
  0
LINE
  5
2DF
330
1F
100
AcDbEntity
  8
0
100
AcDbLine
 10
27.73672756618921
 20
-13.48933037651919
 30
0.0
 11
52.47345513237846
 21
-13.48933037651919
 31
0.0
  0
LINE
  5
2E0
330
1F
100
AcDbEntity
  8
0
100
AcDbLine
 10
-21.73560376866552
 20
-27.48933037651921
 30
0.0
 11
21.73672756618922
 21
-27.48933037651921
 31
0.0
  0
LINE
  5
2E1
330
1F
100
AcDbEntity
  8
0
100
AcDbLine
 10
27.73672756618921
 20
-20.4893303765192
 30
0.0
 11
52.47345513237846
 21
-20.4893303765192
 31
0.0
  0
LINE
  5
2E2
330
1F
100
AcDbEntity
  8
0
100
AcDbLine
 10
2.999999999999949
 20
-16.98933037651921
 30
0.0
 11
46.47345513237847
 21
-16.98933037651921
 31
0.0
  0
LINE
  5
2E3
330
1F
100
AcDbEntity
  8
0
100
AcDbLine
 10
-46.47345513237856
 20
-16.98933037651921
 30
0.0
 11
-3.00000000000004
 21
-16.98933037651921
 31
0.0
  0
LINE
  5
2E4
330
1F
100
AcDbEntity
  8
0
100
AcDbLine
 10
-21.73560376866552
 20
-6.48933037651918
 30
0.0
 11
21.73672756618922
 21
-6.48933037651918
 31
0.0
  0
LINE
  5
2E5
330
1F
100
AcDbEntity
  8
0
100
AcDbLine
 10
-46.47345513237856
 20
-2.989330376519175
 30
0.0
 11
-3.00000000000004
 21
-2.989330376519175
 31
0.0
  0
LINE
  5
2E6
330
1F
100
AcDbEntity
  8
0
100
AcDbLine
 10
-52.44875398262589
 20
-20.4893303765192
 30
0.0
 11
-27.73560471505853
 21
-20.4893303765192
 31
0.0
  0
LINE
  5
2E7
330
1F
100
AcDbEntity
  8
0
100
AcDbLine
 10
2.999999999999949
 20
-2.989330376519175
 30
0.0
 11
46.47345513237847
 21
-2.989330376519175
 31
0.0
  0
LINE
  5
2E8
330
1F
100
AcDbEntity
  8
0
100
AcDbLine
 10
2.999999999999949
 20
-9.989330376519185
 30
0.0
 11
46.47345513237847
 21
-9.989330376519185
 31
0.0
  0
LINE
  5
2E9
330
1F
100
AcDbEntity
  8
0
100
AcDbLine
 10
-21.73560376866552
 20
-13.48933037651919
 30
0.0
 11
21.73672756618922
 21
-13.48933037651919
 31
0.0
  0
LINE
  5
2EA
330
1F
100
AcDbEntity
  8
0
100
AcDbLine
 10
27.73672756618921
 20
-6.48933037651918
 30
0.0
 11
52.47345513237846
 21
-6.48933037651918
 31
0.0
  0
LINE
  5
2EB
330
1F
100
AcDbEntity
  8
0
100
AcDbLine
 10
2.999999999999949
 20
-23.98933037651919
 30
0.0
 11
46.47345513237847
 21
-23.98933037651919
 31
0.0
  0
LINE
  5
2EC
330
1F
100
AcDbEntity
  8
0
100
AcDbLine
 10
-52.44875398262589
 20
-13.48933037651919
 30
0.0
 11
-27.73560471505853
 21
-13.48933037651919
 31
0.0
  0
LINE
  5
2ED
330
1F
100
AcDbEntity
  8
0
100
AcDbLine
 10
-46.47345513237856
 20
-23.98933037651919
 30
0.0
 11
-3.00000000000004
 21
-23.98933037651919
 31
0.0
  0
LINE
  5
2EE
330
1F
100
AcDbEntity
  8
0
100
AcDbLine
 10
27.73672756618921
 20
-27.48933037651921
 30
0.0
 11
52.47345513237846
 21
-27.48933037651921
 31
0.0
  0
LINE
  5
2EF
330
1F
100
AcDbEntity
  8
0
100
AcDbLine
 10
-46.47345513237856
 20
-9.989330376519185
 30
0.0
 11
-3.00000000000004
 21
-9.989330376519185
 31
0.0
  0
LINE
  5
2F0
330
1F
100
AcDbEntity
  8
0
100
AcDbLine
 10
-52.44875398262589
 20
-27.48933037651921
 30
0.0
 11
-52.44875398262589
 21
-34.4893303765192
 31
0.0
  0
LINE
  5
2F1
330
1F
100
AcDbEntity
  8
0
100
AcDbLine
 10
-52.44875398262589
 20
-6.48933037651918
 30
0.0
 11
-52.44875398262589
 21
-13.48933037651919
 31
0.0
  0
LINE
  5
2F2
330
1F
100
AcDbEntity
  8
0
100
AcDbLine
 10
52.47345513237846
 20
-13.48933037651919
 30
0.0
 11
52.47345513237846
 21
-20.4893303765192
 31
0.0
  0
LINE
  5
2F3
330
1F
100
AcDbEntity
  8
0
100
AcDbLine
 10
52.47345513237846
 20
-6.48933037651918
 30
0.0
 11
52.47345513237846
 21
-13.48933037651919
 31
0.0
  0
LINE
  5
2F4
330
1F
100
AcDbEntity
  8
0
100
AcDbLine
 10
-52.44875398262589
 20
-20.4893303765192
 30
0.0
 11
-52.44875398262589
 21
-27.48933037651921
 31
0.0
  0
LINE
  5
2F5
330
1F
100
AcDbEntity
  8
0
100
AcDbLine
 10
-52.44875398262589
 20
-13.48933037651919
 30
0.0
 11
-52.44875398262589
 21
-20.4893303765192
 31
0.0
  0
LINE
  5
2F6
330
1F
100
AcDbEntity
  8
0
100
AcDbLine
 10
52.47345513237846
 20
-20.4893303765192
 30
0.0
 11
52.47345513237846
 21
-27.48933037651921
 31
0.0
  0
LINE
  5
2F7
330
1F
100
AcDbEntity
  8
0
100
AcDbLine
 10
52.47345513237846
 20
-27.48933037651921
 30
0.0
 11
52.47345513237846
 21
-34.4893303765192
 31
0.0
  0
LINE
  5
2F8
330
1F
100
AcDbEntity
  8
0
100
AcDbLine
 10
-46.47345513237856
 20
-30.98933037651918
 30
0.0
 11
-3.00000000000004
 21
-30.98933037651918
 31
0.0
  0
LINE
  5
2F9
330
1F
100
AcDbEntity
  8
0
100
AcDbLine
 10
2.999999999999949
 20
-44.98933037651922
 30
0.0
 11
46.47345513237847
 21
-44.98933037651922
 31
0.0
  0
LINE
  5
2FA
330
1F
100
AcDbEntity
  8
0
100
AcDbLine
 10
2.999999999999949
 20
-37.98933037651921
 30
0.0
 11
46.47345513237847
 21
-37.98933037651921
 31
0.0
  0
LINE
  5
2FB
330
1F
100
AcDbEntity
  8
0
100
AcDbLine
 10
2.999999999999949
 20
-51.98933037651921
 30
0.0
 11
46.47345513237847
 21
-51.98933037651921
 31
0.0
  0
LINE
  5
2FC
330
1F
100
AcDbEntity
  8
0
100
AcDbLine
 10
-52.44875398262589
 20
-48.48933037651921
 30
0.0
 11
-27.73560471505853
 21
-48.48933037651921
 31
0.0
  0
LINE
  5
2FD
330
1F
100
AcDbEntity
  8
0
100
AcDbLine
 10
-21.73560376866552
 20
-48.48933037651921
 30
0.0
 11
21.73672756618922
 21
-48.48933037651921
 31
0.0
  0
LINE
  5
2FE
330
1F
100
AcDbEntity
  8
0
100
AcDbLine
 10
-46.47345513237856
 20
-44.98933037651922
 30
0.0
 11
-3.00000000000004
 21
-44.98933037651922
 31
0.0
  0
LINE
  5
2FF
330
1F
100
AcDbEntity
  8
0
100
AcDbLine
 10
-21.73560376866552
 20
-55.48933037651923
 30
0.0
 11
21.73672756618922
 21
-55.48933037651923
 31
0.0
  0
LINE
  5
300
330
1F
100
AcDbEntity
  8
0
100
AcDbLine
 10
2.999999999999949
 20
-30.98933037651918
 30
0.0
 11
46.47345513237847
 21
-30.98933037651918
 31
0.0
  0
LINE
  5
301
330
1F
100
AcDbEntity
  8
0
100
AcDbLine
 10
27.73672756618921
 20
-34.4893303765192
 30
0.0
 11
52.47345513237846
 21
-34.4893303765192
 31
0.0
  0
LINE
  5
302
330
1F
100
AcDbEntity
  8
0
100
AcDbLine
 10
-52.44875398262589
 20
-41.48933037651921
 30
0.0
 11
-27.73560471505853
 21
-41.48933037651921
 31
0.0
  0
LINE
  5
303
330
1F
100
AcDbEntity
  8
0
100
AcDbLine
 10
-46.47345513237856
 20
-51.98933037651921
 30
0.0
 11
-3.00000000000004
 21
-51.98933037651921
 31
0.0
  0
LINE
  5
304
330
1F
100
AcDbEntity
  8
0
100
AcDbLine
 10
27.73672756618921
 20
-41.48933037651921
 30
0.0
 11
52.47345513237846
 21
-41.48933037651921
 31
0.0
  0
LINE
  5
305
330
1F
100
AcDbEntity
  8
0
100
AcDbLine
 10
27.73672756618921
 20
-55.48933037651923
 30
0.0
 11
52.47345513237846
 21
-55.48933037651923
 31
0.0
  0
LINE
  5
306
330
1F
100
AcDbEntity
  8
0
100
AcDbLine
 10
-52.44875398262589
 20
-34.4893303765192
 30
0.0
 11
-27.73560471505853
 21
-34.4893303765192
 31
0.0
  0
LINE
  5
307
330
1F
100
AcDbEntity
  8
0
100
AcDbLine
 10
-52.44875398262589
 20
-55.48933037651923
 30
0.0
 11
-27.73560471505853
 21
-55.48933037651923
 31
0.0
  0
LINE
  5
308
330
1F
100
AcDbEntity
  8
0
100
AcDbLine
 10
27.73672756618921
 20
-48.48933037651921
 30
0.0
 11
52.47345513237846
 21
-48.48933037651921
 31
0.0
  0
LINE
  5
309
330
1F
100
AcDbEntity
  8
0
100
AcDbLine
 10
-21.73560376866552
 20
-41.48933037651921
 30
0.0
 11
21.73672756618922
 21
-41.48933037651921
 31
0.0
  0
LINE
  5
30A
330
1F
100
AcDbEntity
  8
0
100
AcDbLine
 10
-21.73560376866552
 20
-34.4893303765192
 30
0.0
 11
21.73672756618922
 21
-34.4893303765192
 31
0.0
  0
LINE
  5
30B
330
1F
100
AcDbEntity
  8
0
100
AcDbLine
 10
-46.47345513237856
 20
-37.98933037651921
 30
0.0
 11
-3.00000000000004
 21
-37.98933037651921
 31
0.0
  0
LINE
  5
30C
330
1F
100
AcDbEntity
  8
0
100
AcDbLine
 10
-52.44875398262589
 20
-48.48933037651921
 30
0.0
 11
-52.44875398262589
 21
-55.48933037651923
 31
0.0
  0
LINE
  5
30D
330
1F
100
AcDbEntity
  8
0
100
AcDbLine
 10
-52.44875398262589
 20
-41.48933037651921
 30
0.0
 11
-52.44875398262589
 21
-48.48933037651921
 31
0.0
  0
LINE
  5
30E
330
1F
100
AcDbEntity
  8
0
100
AcDbLine
 10
-52.44875398262589
 20
-34.4893303765192
 30
0.0
 11
-52.44875398262589
 21
-41.48933037651921
 31
0.0
  0
LINE
  5
30F
330
1F
100
AcDbEntity
  8
0
100
AcDbLine
 10
52.47345513237846
 20
-34.4893303765192
 30
0.0
 11
52.47345513237846
 21
-41.48933037651921
 31
0.0
  0
LINE
  5
310
330
1F
100
AcDbEntity
  8
0
100
AcDbLine
 10
-52.44875398262589
 20
-55.48933037651923
 30
0.0
 11
-52.44875398262589
 21
-62.48933037651921
 31
0.0
  0
LINE
  5
311
330
1F
100
AcDbEntity
  8
0
100
AcDbLine
 10
52.47345513237846
 20
-41.48933037651921
 30
0.0
 11
52.47345513237846
 21
-48.48933037651921
 31
0.0
  0
LINE
  5
312
330
1F
100
AcDbEntity
  8
0
100
AcDbLine
 10
52.47345513237846
 20
-55.48933037651923
 30
0.0
 11
52.47345513237846
 21
-62.48933037651921
 31
0.0
  0
LINE
  5
313
330
1F
100
AcDbEntity
  8
0
100
AcDbLine
 10
52.47345513237846
 20
-48.48933037651921
 30
0.0
 11
52.47345513237846
 21
-55.48933037651923
 31
0.0
  0
LINE
  5
314
330
1F
100
AcDbEntity
  8
0
100
AcDbLine
 10
2.999999999999949
 20
-65.98933037651923
 30
0.0
 11
46.47345513237847
 21
-65.98933037651923
 31
0.0
  0
LINE
  5
315
330
1F
100
AcDbEntity
  8
0
100
AcDbLine
 10
-46.47345513237856
 20
-72.98933037651923
 30
0.0
 11
-3.00000000000004
 21
-72.98933037651923
 31
0.0
  0
LINE
  5
316
330
1F
100
AcDbEntity
  8
0
100
AcDbLine
 10
-52.44875398262589
 20
-69.48933037651922
 30
0.0
 11
-27.73560471505853
 21
-69.48933037651922
 31
0.0
  0
LINE
  5
317
330
1F
100
AcDbEntity
  8
0
100
AcDbLine
 10
-46.47345513237856
 20
-58.9893303765192
 30
0.0
 11
-3.00000000000004
 21
-58.9893303765192
 31
0.0
  0
LINE
  5
318
330
1F
100
AcDbEntity
  8
0
100
AcDbLine
 10
-52.44875398262589
 20
-62.48933037651921
 30
0.0
 11
-27.73560471505853
 21
-62.48933037651921
 31
0.0
  0
LINE
  5
319
330
1F
100
AcDbEntity
  8
0
100
AcDbLine
 10
27.73672756618921
 20
-62.48933037651921
 30
0.0
 11
52.47345513237846
 21
-62.48933037651921
 31
0.0
  0
LINE
  5
31A
330
1F
100
AcDbEntity
  8
0
100
AcDbLine
 10
2.999999999999949
 20
-58.9893303765192
 30
0.0
 11
46.47345513237847
 21
-58.9893303765192
 31
0.0
  0
LINE
  5
31B
330
1F
100
AcDbEntity
  8
0
100
AcDbLine
 10
-21.73560376866552
 20
-69.48933037651922
 30
0.0
 11
21.73672756618922
 21
-69.48933037651922
 31
0.0
  0
LINE
  5
31C
330
1F
100
AcDbEntity
  8
0
100
AcDbLine
 10
27.73672756618921
 20
-69.48933037651922
 30
0.0
 11
52.47345513237846
 21
-69.48933037651922
 31
0.0
  0
LINE
  5
31D
330
1F
100
AcDbEntity
  8
0
100
AcDbLine
 10
2.999999999999949
 20
-72.98933037651923
 30
0.0
 11
46.47345513237847
 21
-72.98933037651923
 31
0.0
  0
LINE
  5
31E
330
1F
100
AcDbEntity
  8
0
100
AcDbLine
 10
-21.73560376866552
 20
-62.48933037651921
 30
0.0
 11
21.73672756618922
 21
-62.48933037651921
 31
0.0
  0
LINE
  5
31F
330
1F
100
AcDbEntity
  8
0
100
AcDbLine
 10
-46.47345513237856
 20
-65.98933037651923
 30
0.0
 11
-3.00000000000004
 21
-65.98933037651923
 31
0.0
  0
LINE
  5
320
330
1F
100
AcDbEntity
  8
0
100
AcDbLine
 10
-52.44875398262589
 20
-69.48933037651922
 30
0.0
 11
-52.44875398262589
 21
-73.7393303765192
 31
0.0
  0
LINE
  5
321
330
1F
100
AcDbEntity
  8
0
100
AcDbLine
 10
-52.44875398262589
 20
-62.48933037651921
 30
0.0
 11
-52.44875398262589
 21
-69.48933037651922
 31
0.0
  0
LINE
  5
322
330
1F
100
AcDbEntity
  8
0
100
AcDbLine
 10
52.47345513237846
 20
-62.48933037651921
 30
0.0
 11
52.47345513237846
 21
-69.48933037651922
 31
0.0
  0
LINE
  5
323
330
1F
100
AcDbEntity
  8
0
100
AcDbLine
 10
52.47345513237846
 20
-69.48933037651922
 30
0.0
 11
52.47345513237846
 21
-73.7393303765192
 31
0.0
  0
ENDSEC
  0
SECTION
  2
OBJECTS
  0
DICTIONARY
  5
C
330
0
100
AcDbDictionary
  3
ACAD_GROUP
350
D
  3
ACAD_LAYOUT
350
1A
  3
ACAD_MATERIAL
350
43
  3
ACAD_MLEADERSTYLE
350
346
  3
ACAD_MLINESTYLE
350
17
  3
ACAD_PLOTSETTINGS
350
19
  3
ACAD_SCALELIST
350
47
  3
ACAD_VISUALSTYLE
350
2A
  3
ACDBHEADERROUNDTRIPXREC
350
324
  3
ACDBVARIABLEDICTIONARY
350
344
  0
DICTIONARY
  5
34B
330
8
100
AcDbDictionary
280
     1
  3
ACAD_XREC_ROUNDTRIP
360
34C
  0
DICTIONARY
  5
D
102
{ACAD_REACTORS
330
C
102
}
330
C
100
AcDbDictionary
  0
DICTIONARY
  5
1A
102
{ACAD_REACTORS
330
C
102
}
330
C
100
AcDbDictionary
  0
DICTIONARY
  5
43
102
{ACAD_REACTORS
330
C
102
}
330
C
100
AcDbDictionary
  3
BYBLOCK
350
45
  3
BYLAYER
350
44
  3
GLOBAL
350
46
  0
DICTIONARY
  5
346
102
{ACAD_REACTORS
330
C
102
}
330
C
100
AcDbDictionary
  0
DICTIONARY
  5
17
102
{ACAD_REACTORS
330
C
102
}
330
C
100
AcDbDictionary
  3
STANDARD
350
18
  0
DICTIONARY
  5
19
102
{ACAD_REACTORS
330
C
102
}
330
C
100
AcDbDictionary
  0
DICTIONARY
  5
47
102
{ACAD_REACTORS
330
C
102
}
330
C
100
AcDbDictionary
  3
A0
350
48
  3
A1
350
49
  3
A2
350
4A
  3
A3
350
4B
  3
A4
350
4C
  3
A5
350
4D
  3
A6
350
4E
  3
A7
350
4F
  3
A8
350
50
  3
A9
350
51
  3
B0
350
52
  3
B1
350
53
  3
B2
350
54
  3
B3
350
55
  3
B4
350
56
  3
B5
350
57
  3
B6
350
58
  3
B7
350
59
  3
B8
350
5A
  3
B9
350
5B
  3
C0
350
5C
  3
C1
350
5D
  3
C2
350
5E
  3
C3
350
5F
  3
C4
350
60
  3
C5
350
61
  3
C6
350
62
  3
C7
350
63
  3
C8
350
64
  3
C9
350
65
  3
D0
350
66
  3
D1
350
67
  3
D2
350
68
  0
DICTIONARY
  5
2A
102
{ACAD_REACTORS
330
C
102
}
330
C
100
AcDbDictionary
  3
2DWIREFRAME
350
2F
  3
BASIC
350
32
  3
BRIGHTEN
350
36
  3
COLORCHANGE
350
3A
  3
CONCEPTUAL
350
34
  3
DIM
350
35
  3
EDGECOLOROFF
350
3D
  3
FACEPATTERN
350
39
  3
FLAT
350
2B
  3
FLATWITHEDGES
350
2C
  3
GOURAUD
350
2D
  3
GOURAUDWITHEDGES
350
2E
  3
HIDDEN
350
31
  3
JITTEROFF
350
3B
  3
LINEPATTERN
350
38
  3
OVERHANGOFF
350
3C
  3
REALISTIC
350
33
  3
SHADED
350
42
  3
SHADED_WITH_EDGES
350
41
  3
SHADES_OF_GRAY
350
3E
  3
SKETCHY
350
3F
  3
THICKEN
350
37
  3
WIREFRAME
350
30
  3
X-RAY
350
40
  0
DICTIONARY
  5
324
102
{ACAD_REACTORS
330
C
102
}
330
C
100
AcDbDictionary
  3
CEPSNTYPE
350
32D
  3
DIMSTYLEDATA
350
343
  3
FINGERPRINTGUID
350
32E
  3
HYPERLINKBASE
350
327
  3
INSUNITS
350
32C
  3
LAYOUTDICT
350
329
  3
LWETCUNION
350
32B
  3
PLOTSETDICT
350
32A
  3
PSVPSCALE
350
330
  3
PUCSBASE
350
333
  3
PUCSORGBACK
350
339
  3
PUCSORGBOTTOM
350
335
  3
PUCSORGFRONT
350
338
  3
PUCSORGLEFT
350
336
  3
PUCSORGRIGHT
350
337
  3
PUCSORGTOP
350
334
  3
PUCSORTHOREF
350
331
  3
PUCSORTHOVIEW
350
332
  3
STYLESHEET
350
328
  3
TSTACKALIGN
350
325
  3
TSTACKSIZE
350
326
  3
UCSBASE
350
33C
  3
UCSORGBACK
350
342
  3
UCSORGBOTTOM
350
33E
  3
UCSORGFRONT
350
341
  3
UCSORGLEFT
350
33F
  3
UCSORGRIGHT
350
340
  3
UCSORGTOP
350
33D
  3
UCSORTHOREF
350
33A
  3
UCSORTHOVIEW
350
33B
  3
VERSIONGUID
350
32F
  0
DICTIONARY
  5
344
102
{ACAD_REACTORS
330
C
102
}
330
C
100
AcDbDictionary
  3
CANNOSCALE
350
34D
  3
DIMASSOC
350
349
  3
HIDETEXT
350
34A
  3
MSLTSCALE
350
34E
  0
XRECORD
  5
34C
102
{ACAD_REACTORS
330
34B
102
}
330
34B
100
AcDbXrecord
102
VTR_0.000_0.000_1.000_1.000_GRIDDISPLAY
 70
     3
102
VTR_0.000_0.000_1.000_1.000_GRIDMAJOR
 70
     5
102
VTR_0.000_0.000_1.000_1.000_DEFAULTLIGHTING
280
     1
102
VTR_0.000_0.000_1.000_1.000_DEFAULTLIGHTINGTYPE
 70
     1
102
VTR_0.000_0.000_1.000_1.000_BRIGHTNESS
141
0.0
102
VTR_0.000_0.000_1.000_1.000_CONTRAST
142
0.0
  0
MATERIAL
  5
45
102
{ACAD_REACTORS
330
43
102
}
102
{ACAD_XDICTIONARY
360
351
102
}
330
43
100
AcDbMaterial
  1
BYBLOCK
  0
MATERIAL
  5
44
102
{ACAD_REACTORS
330
43
102
}
102
{ACAD_XDICTIONARY
360
34F
102
}
330
43
100
AcDbMaterial
  1
BYLAYER
  0
MATERIAL
  5
46
102
{ACAD_REACTORS
330
43
102
}
102
{ACAD_XDICTIONARY
360
353
102
}
330
43
100
AcDbMaterial
  1
GLOBAL
  0
MLINESTYLE
  5
18
102
{ACAD_REACTORS
330
17
102
}
330
17
100
AcDbMlineStyle
  2
Standard
 70
     0
  3

 62
   256
 51
90.0
 52
90.0
 71
     2
 49
0.5
 62
   256
  6
BYLAYER
 49
-0.5
 62
   256
  6
BYLAYER
  0
ACAD_PROXY_OBJECT
  5
48
102
{ACAD_REACTORS
330
47
102
}
330
47
100
AcDbProxyObject
 90
      499
 91
      503
 93
       41
310
903313A31580
  0
ACAD_PROXY_OBJECT
  5
49
102
{ACAD_REACTORS
330
47
102
}
330
47
100
AcDbProxyObject
 90
      499
 91
      503
 93
      105
310
903313A324000000000000004000
  0
ACAD_PROXY_OBJECT
  5
4A
102
{ACAD_REACTORS
330
47
102
}
330
47
100
AcDbProxyObject
 90
      499
 91
      503
 93
      105
310
903313A344000000000000104000
  0
ACAD_PROXY_OBJECT
  5
4B
102
{ACAD_REACTORS
330
47
102
}
330
47
100
AcDbProxyObject
 90
      499
 91
      503
 93
      105
310
903313A354000000000000144000
  0
ACAD_PROXY_OBJECT
  5
4C
102
{ACAD_REACTORS
330
47
102
}
330
47
100
AcDbProxyObject
 90
      499
 91
      503
 93
      105
310
903313A384000000000000204000
  0
ACAD_PROXY_OBJECT
  5
4D
102
{ACAD_REACTORS
330
47
102
}
330
47
100
AcDbProxyObject
 90
      499
 91
      503
 93
      113
310
904313A31304000000000000244000
  0
ACAD_PROXY_OBJECT
  5
4E
102
{ACAD_REACTORS
330
47
102
}
330
47
100
AcDbProxyObject
 90
      499
 91
      503
 93
      113
310
904313A31364000000000000304000
  0
ACAD_PROXY_OBJECT
  5
4F
102
{ACAD_REACTORS
330
47
102
}
330
47
100
AcDbProxyObject
 90
      499
 91
      503
 93
      113
310
904313A32304000000000000344000
  0
ACAD_PROXY_OBJECT
  5
50
102
{ACAD_REACTORS
330
47
102
}
330
47
100
AcDbProxyObject
 90
      499
 91
      503
 93
      113
310
904313A333040000000000003E4000
  0
ACAD_PROXY_OBJECT
  5
51
102
{ACAD_REACTORS
330
47
102
}
330
47
100
AcDbProxyObject
 90
      499
 91
      503
 93
      113
310
904313A34304000000000000444000
  0
ACAD_PROXY_OBJECT
  5
52
102
{ACAD_REACTORS
330
47
102
}
330
47
100
AcDbProxyObject
 90
      499
 91
      503
 93
      113
310
904313A35304000000000000494000
  0
ACAD_PROXY_OBJECT
  5
53
102
{ACAD_REACTORS
330
47
102
}
330
47
100
AcDbProxyObject
 90
      499
 91
      503
 93
      121
310
905313A3130304000000000000594000
  0
ACAD_PROXY_OBJECT
  5
54
102
{ACAD_REACTORS
330
47
102
}
330
47
100
AcDbProxyObject
 90
      499
 91
      503
 93
      105
310
903323A310000000000000010100
  0
ACAD_PROXY_OBJECT
  5
55
102
{ACAD_REACTORS
330
47
102
}
330
47
100
AcDbProxyObject
 90
      499
 91
      503
 93
      105
310
903343A310000000000000410100
  0
ACAD_PROXY_OBJECT
  5
56
102
{ACAD_REACTORS
330
47
102
}
330
47
100
AcDbProxyObject
 90
      499
 91
      503
 93
      105
310
903383A310000000000000810100
  0
ACAD_PROXY_OBJECT
  5
57
102
{ACAD_REACTORS
330
47
102
}
330
47
100
AcDbProxyObject
 90
      499
 91
      503
 93
      113
310
90431303A310000000000000910100
  0
ACAD_PROXY_OBJECT
  5
58
102
{ACAD_REACTORS
330
47
102
}
330
47
100
AcDbProxyObject
 90
      499
 91
      503
 93
      121
310
9053130303A310000000000001650100
  0
ACAD_PROXY_OBJECT
  5
59
102
{ACAD_REACTORS
330
47
102
}
330
47
100
AcDbProxyObject
 90
      499
 91
      503
 93
      257
310
90E312F31323822203D2031272D3022000000000000200FC000000000000284000
  0
ACAD_PROXY_OBJECT
  5
5A
102
{ACAD_REACTORS
330
47
102
}
330
47
100
AcDbProxyObject
 90
      499
 91
      503
 93
      249
310
90D312F363422203D2031272D3022000000000000240FC000000000000284000
  0
ACAD_PROXY_OBJECT
  5
5B
102
{ACAD_REACTORS
330
47
102
}
330
47
100
AcDbProxyObject
 90
      499
 91
      503
 93
      249
310
90D312F333222203D2031272D3022000000000000280FC000000000000284000
  0
ACAD_PROXY_OBJECT
  5
5C
102
{ACAD_REACTORS
330
47
102
}
330
47
100
AcDbProxyObject
 90
      499
 91
      503
 93
      249
310
90D312F313622203D2031272D30220000000000002C0FC000000000000284000
  0
ACAD_PROXY_OBJECT
  5
5D
102
{ACAD_REACTORS
330
47
102
}
330
47
100
AcDbProxyObject
 90
      499
 91
      503
 93
      249
310
90D332F333222203D2031272D30220000000000002E0FC000000000000284000
  0
ACAD_PROXY_OBJECT
  5
5E
102
{ACAD_REACTORS
330
47
102
}
330
47
100
AcDbProxyObject
 90
      499
 91
      503
 93
      241
310
90C312F3822203D2031272D3022000000000000300FC000000000000284000
  0
ACAD_PROXY_OBJECT
  5
5F
102
{ACAD_REACTORS
330
47
102
}
330
47
100
AcDbProxyObject
 90
      499
 91
      503
 93
      249
310
90D332F313622203D2031272D3022000000000000320FC000000000000284000
  0
ACAD_PROXY_OBJECT
  5
60
102
{ACAD_REACTORS
330
47
102
}
330
47
100
AcDbProxyObject
 90
      499
 91
      503
 93
      241
310
90C312F3422203D2031272D3022000000000000340FC000000000000284000
  0
ACAD_PROXY_OBJECT
  5
61
102
{ACAD_REACTORS
330
47
102
}
330
47
100
AcDbProxyObject
 90
      499
 91
      503
 93
      241
310
90C332F3822203D2031272D3022000000000000360FC000000000000284000
  0
ACAD_PROXY_OBJECT
  5
62
102
{ACAD_REACTORS
330
47
102
}
330
47
100
AcDbProxyObject
 90
      499
 91
      503
 93
      241
310
90C312F3222203D2031272D3022000000000000380FC000000000000284000
  0
ACAD_PROXY_OBJECT
  5
63
102
{ACAD_REACTORS
330
47
102
}
330
47
100
AcDbProxyObject
 90
      499
 91
      503
 93
      241
310
90C332F3422203D2031272D30220000000000003A0FC000000000000284000
  0
ACAD_PROXY_OBJECT
  5
64
102
{ACAD_REACTORS
330
47
102
}
330
47
100
AcDbProxyObject
 90
      499
 91
      503
 93
      161
310
90A3122203D2031272D30224000000000000284000
  0
ACAD_PROXY_OBJECT
  5
65
102
{ACAD_REACTORS
330
47
102
}
330
47
100
AcDbProxyObject
 90
      499
 91
      503
 93
      257
310
90E312D312F3222203D2031272D30220000000000003E0FC000000000000284000
  0
ACAD_PROXY_OBJECT
  5
66
102
{ACAD_REACTORS
330
47
102
}
330
47
100
AcDbProxyObject
 90
      499
 91
      503
 93
      225
310
90A3322203D2031272D302200000000000002100000000000000284000
  0
ACAD_PROXY_OBJECT
  5
67
102
{ACAD_REACTORS
330
47
102
}
330
47
100
AcDbProxyObject
 90
      499
 91
      503
 93
      225
310
90A3622203D2031272D302200000000000006100000000000000284000
  0
ACAD_PROXY_OBJECT
  5
68
102
{ACAD_REACTORS
330
47
102
}
330
47
100
AcDbProxyObject
 90
      499
 91
      503
 93
      249
310
90D31272D3022203D2031272D30220000000000000A100000000000000284000
  0
ACAD_PROXY_OBJECT
  5
2F
102
{ACAD_REACTORS
330
2A
102
}
330
2A
100
AcDbProxyObject
 90
      499
 91
      501
 93
      436
310
42CC9915DA5C99599C985B595049028333333333333E33F0000000000000F90107901411070040501600405405064090741402480A0340
1001
ACAD
1000
AcDbSavedByObjectVersion
1070
     0
  0
ACAD_PROXY_OBJECT
  5
32
102
{ACAD_REACTORS
330
2A
102
}
330
2A
100
AcDbProxyObject
 90
      499
 91
      501
 93
      388
310
4150985CDA58D07406404333333333333E33F0000000000000F90107A41107004050150841D405064090741402480A0350
1001
ACAD
1000
AcDbSavedByObjectVersion
1070
     0
  0
ACAD_PROXY_OBJECT
  5
36
102
{ACAD_REACTORS
330
2A
102
}
330
2A
100
AcDbProxyObject
 90
      499
 91
      501
 93
      428
310
42109C9A59DA1D195B90C409028333333333333E33F0000000000000F9010790141107004050150841D405064090741402480A029950
1001
ACAD
1000
AcDbSavedByObjectVersion
1070
     0
  0
ACAD_PROXY_OBJECT
  5
3A
102
{ACAD_REACTORS
330
2A
102
}
330
2A
100
AcDbProxyObject
 90
      499
 91
      501
 93
      452
310
42D0DBDB1BDC90DA185B99D95104090240C333333333333E33F0000000000000F90108901411070040501508421405064090741402480A0350
1001
ACAD
1000
AcDbSavedByObjectVersion
1070
     0
  0
ACAD_PROXY_OBJECT
  5
34
102
{ACAD_REACTORS
330
2A
102
}
330
2A
100
AcDbProxyObject
 90
      499
 91
      501
 93
      500
310
4290DBDB98D95C1D1D585B10940D028333333333333E33F0000000000000F90107902409070040501000000000018199010841D405064090740C02480A0340
1001
ACAD
1000
AcDbSavedByObjectVersion
1070
     0
  0
ACAD_PROXY_OBJECT
  5
35
102
{ACAD_REACTORS
330
2A
102
}
330
2A
100
AcDbProxyObject
 90
      499
 91
      501
 93
      412
310
40D11A5B50B409028333333333333E33F0000000000000F9010790141107004050150841D405064090741402480A02677FFFFFD0
1001
ACAD
1000
AcDbSavedByObjectVersion
1070
     0
  0
ACAD_PROXY_OBJECT
  5
3D
102
{ACAD_REACTORS
330
2A
102
}
330
2A
100
AcDbProxyObject
 90
      499
 91
      501
 93
      452
310
43115919D950DBDB1BDC93D999916409028333333333333E33F0000000000000F9010790141107004050150841D405064090741402480A0350
1001
ACAD
1000
AcDbSavedByObjectVersion
1070
     0
  0
ACAD_PROXY_OBJECT
  5
39
102
{ACAD_REACTORS
330
2A
102
}
330
2A
100
AcDbProxyObject
 90
      499
 91
      501
 93
      444
310
42D19858D95C185D1D195C9B90F409028333333333333E33F0000000000000F9010790141107004050150841D405064090741402480A0350
1001
ACAD
1000
AcDbSavedByObjectVersion
1070
     0
  0
ACAD_PROXY_OBJECT
  5
2B
102
{ACAD_REACTORS
330
2A
102
}
330
2A
100
AcDbProxyObject
 90
      499
 91
      501
 93
      380
310
41119B185D240901404333333333333E33F0000000000000F9010740A907004050150841D405064090741402480A1B50
1001
ACAD
1000
AcDbSavedByObjectVersion
1070
     0
  0
ACAD_PROXY_OBJECT
  5
2C
102
{ACAD_REACTORS
330
2A
102
}
330
2A
100
AcDbProxyObject
 90
      499
 91
      501
 93
      468
310
43519B185D15DA5D1A115919D95CD0140901404333333333333E33F0000000000000F90107409019070040501600405405064090741402480A1B50
1001
ACAD
1000
AcDbSavedByObjectVersion
1070
     0
  0
ACAD_PROXY_OBJECT
  5
2D
102
{ACAD_REACTORS
330
2A
102
}
330
2A
100
AcDbProxyObject
 90
      499
 91
      501
 93
      404
310
41D1DBDD5C985D5910240902404333333333333E33F0000000000000F9010740A9070040501641D405064090741402480A1B50
1001
ACAD
1000
AcDbSavedByObjectVersion
1070
     0
  0
ACAD_PROXY_OBJECT
  5
2E
102
{ACAD_REACTORS
330
2A
102
}
330
2A
100
AcDbProxyObject
 90
      499
 91
      501
 93
      492
310
4411DBDD5C985D5915DA5D1A115919D95CD0340902404333333333333E33F0000000000000F90107409019070040501600405405064090741402480A1B50
1001
ACAD
1000
AcDbSavedByObjectVersion
1070
     0
  0
ACAD_PROXY_OBJECT
  5
31
102
{ACAD_REACTORS
330
2A
102
}
330
2A
100
AcDbProxyObject
 90
      499
 91
      501
 93
      476
310
41921A5919195B90640502408333333333333E33F0000000000000F901079024090700405020000000000001110200405405064090740C02480A0340
1001
ACAD
1000
AcDbSavedByObjectVersion
1070
     0
  0
ACAD_PROXY_OBJECT
  5
3B
102
{ACAD_REACTORS
330
2A
102
}
330
2A
100
AcDbProxyObject
 90
      499
 91
      501
 93
      428
310
42529A5D1D195C93D999914409028333333333333E33F0000000000000F9010790141107004050150A41D405064090741402480A0350
1001
ACAD
1000
AcDbSavedByObjectVersion
1070
     0
  0
ACAD_PROXY_OBJECT
  5
38
102
{ACAD_REACTORS
330
2A
102
}
330
2A
100
AcDbProxyObject
 90
      499
 91
      501
 93
      444
310
42D31A5B995C185D1D195C9B90E409028333333333333E33F0000000000000F9010790141107004050750841D405064090741402483A0350
1001
ACAD
1000
AcDbSavedByObjectVersion
1070
     0
  0
ACAD_PROXY_OBJECT
  5
3C
102
{ACAD_REACTORS
330
2A
102
}
330
2A
100
AcDbProxyObject
 90
      499
 91
      501
 93
      444
310
42D3DD995C9A185B99D3D999915409028333333333333E33F0000000000000F9010790141107004050150941D405064090741402480A0350
1001
ACAD
1000
AcDbSavedByObjectVersion
1070
     0
  0
ACAD_PROXY_OBJECT
  5
33
102
{ACAD_REACTORS
330
2A
102
}
330
2A
100
AcDbProxyObject
 90
      499
 91
      501
 93
      428
310
425499585B1A5CDD1A58D08409038333333333333E33F0000000000000F9010740A907004050150800405405064090740C02480A1B40
1001
ACAD
1000
AcDbSavedByObjectVersion
1070
     0
  0
ACAD_PROXY_OBJECT
  5
42
102
{ACAD_REACTORS
330
2A
102
}
330
2A
100
AcDbProxyObject
 90
      499
 91
      501
 93
      420
310
4194DA1859195911B40902404333333333333E33F0000000000000F9010740A41107004050150800405405064090840C02480A0B40
1001
ACAD
1000
AcDbSavedByObjectVersion
1070
     0
  0
ACAD_PROXY_OBJECT
  5
41
102
{ACAD_REACTORS
330
2A
102
}
330
2A
100
AcDbProxyObject
 90
      499
 91
      501
 93
      516
310
4454DA18591959081DDA5D1A08195919D95CD1A40902404333333333333E33F0000000000000F901074090142907004050250800405405064090740C02480A0B40
1001
ACAD
1000
AcDbSavedByObjectVersion
1070
     0
  0
ACAD_PROXY_OBJECT
  5
3E
102
{ACAD_REACTORS
330
2A
102
}
330
2A
100
AcDbProxyObject
 90
      499
 91
      501
 93
      532
310
4394DA1859195CC81BD98811DC985E5174090240C333333333333E33F0000000000000F901079024090741D01000000000000111010841D405064090740C02480A0340
1001
ACAD
1000
AcDbSavedByObjectVersion
1070
     0
  0
ACAD_PROXY_OBJECT
  5
3F
102
{ACAD_REACTORS
330
2A
102
}
330
2A
100
AcDbProxyObject
 90
      499
 91
      501
 93
      476
310
41D4DAD95D18DA1E51840502408333333333333E33F0000000000000F901079024090741D01000000000000111010B41D405064090741802480A0340
1001
ACAD
1000
AcDbSavedByObjectVersion
1070
     0
  0
ACAD_PROXY_OBJECT
  5
37
102
{ACAD_REACTORS
330
2A
102
}
330
2A
100
AcDbProxyObject
 90
      499
 91
      501
 93
      412
310
41D51A1A58DAD95B90D409028333333333333E33F0000000000000F9010790141107004050150C41D405064090741402480A0350
1001
ACAD
1000
AcDbSavedByObjectVersion
1070
     0
  0
ACAD_PROXY_OBJECT
  5
30
102
{ACAD_REACTORS
330
2A
102
}
330
2A
100
AcDbProxyObject
 90
      499
 91
      501
 93
      420
310
4255DA5C99599C985B595059028333333333333E33F0000000000000F90107901411070040501600405405064090740C02480A0340
1001
ACAD
1000
AcDbSavedByObjectVersion
1070
     0
  0
ACAD_PROXY_OBJECT
  5
40
102
{ACAD_REACTORS
330
2A
102
}
330
2A
100
AcDbProxyObject
 90
      499
 91
      501
 93
      404
310
41560B54985E51940902404000000000000E03F0000000000000F9010740501907004050150841D405064090740C02480A1B40
1001
ACAD
1000
AcDbSavedByObjectVersion
1070
     0
  0
XRECORD
  5
32D
102
{ACAD_REACTORS
330
324
102
}
330
324
100
AcDbXrecord
 90
        0
  0
XRECORD
  5
343
102
{ACAD_REACTORS
330
324
102
}
330
324
100
AcDbXrecord
1000
DSTYLE
1002
{
1070
   340
340
11
1002
}
  0
XRECORD
  5
32E
102
{ACAD_REACTORS
330
324
102
}
330
324
100
AcDbXrecord
  1
{CE653CA0-A063-4713-8ED4-C29E49A3F8A6}
  0
XRECORD
  5
327
102
{ACAD_REACTORS
330
324
102
}
330
324
100
AcDbXrecord
  1

  0
XRECORD
  5
32C
102
{ACAD_REACTORS
330
324
102
}
330
324
100
AcDbXrecord
 90
        1
  0
XRECORD
  5
329
102
{ACAD_REACTORS
330
324
102
}
330
324
100
AcDbXrecord
340
1A
  0
XRECORD
  5
32B
102
{ACAD_REACTORS
330
324
102
}
330
324
100
AcDbXrecord
 90
    10781
  0
XRECORD
  5
32A
102
{ACAD_REACTORS
330
324
102
}
330
324
100
AcDbXrecord
340
19
  0
XRECORD
  5
330
102
{ACAD_REACTORS
330
324
102
}
330
324
100
AcDbXrecord
 40
0.0
  0
XRECORD
  5
333
102
{ACAD_REACTORS
330
324
102
}
330
324
100
AcDbXrecord
340
0
  0
XRECORD
  5
339
102
{ACAD_REACTORS
330
324
102
}
330
324
100
AcDbXrecord
 10
0.0
 20
0.0
 30
0.0
  0
XRECORD
  5
335
102
{ACAD_REACTORS
330
324
102
}
330
324
100
AcDbXrecord
 10
0.0
 20
0.0
 30
0.0
  0
XRECORD
  5
338
102
{ACAD_REACTORS
330
324
102
}
330
324
100
AcDbXrecord
 10
0.0
 20
0.0
 30
0.0
  0
XRECORD
  5
336
102
{ACAD_REACTORS
330
324
102
}
330
324
100
AcDbXrecord
 10
0.0
 20
0.0
 30
0.0
  0
XRECORD
  5
337
102
{ACAD_REACTORS
330
324
102
}
330
324
100
AcDbXrecord
 10
0.0
 20
0.0
 30
0.0
  0
XRECORD
  5
334
102
{ACAD_REACTORS
330
324
102
}
330
324
100
AcDbXrecord
 10
0.0
 20
0.0
 30
0.0
  0
XRECORD
  5
331
102
{ACAD_REACTORS
330
324
102
}
330
324
100
AcDbXrecord
340
0
  0
XRECORD
  5
332
102
{ACAD_REACTORS
330
324
102
}
330
324
100
AcDbXrecord
 70
     0
  0
XRECORD
  5
328
102
{ACAD_REACTORS
330
324
102
}
330
324
100
AcDbXrecord
  1

  0
XRECORD
  5
325
102
{ACAD_REACTORS
330
324
102
}
330
324
100
AcDbXrecord
 90
        1
  0
XRECORD
  5
326
102
{ACAD_REACTORS
330
324
102
}
330
324
100
AcDbXrecord
 90
       70
  0
XRECORD
  5
33C
102
{ACAD_REACTORS
330
324
102
}
330
324
100
AcDbXrecord
340
0
  0
XRECORD
  5
342
102
{ACAD_REACTORS
330
324
102
}
330
324
100
AcDbXrecord
 10
0.0
 20
0.0
 30
0.0
  0
XRECORD
  5
33E
102
{ACAD_REACTORS
330
324
102
}
330
324
100
AcDbXrecord
 10
0.0
 20
0.0
 30
0.0
  0
XRECORD
  5
341
102
{ACAD_REACTORS
330
324
102
}
330
324
100
AcDbXrecord
 10
0.0
 20
0.0
 30
0.0
  0
XRECORD
  5
33F
102
{ACAD_REACTORS
330
324
102
}
330
324
100
AcDbXrecord
 10
0.0
 20
0.0
 30
0.0
  0
XRECORD
  5
340
102
{ACAD_REACTORS
330
324
102
}
330
324
100
AcDbXrecord
 10
0.0
 20
0.0
 30
0.0
  0
XRECORD
  5
33D
102
{ACAD_REACTORS
330
324
102
}
330
324
100
AcDbXrecord
 10
0.0
 20
0.0
 30
0.0
  0
XRECORD
  5
33A
102
{ACAD_REACTORS
330
324
102
}
330
324
100
AcDbXrecord
340
0
  0
XRECORD
  5
33B
102
{ACAD_REACTORS
330
324
102
}
330
324
100
AcDbXrecord
 70
     0
  0
XRECORD
  5
32F
102
{ACAD_REACTORS
330
324
102
}
330
324
100
AcDbXrecord
  1
{FAEB1C32-E019-11D5-929B-00C0DF256EC4}
  0
DICTIONARYVAR
  5
34D
102
{ACAD_REACTORS
330
344
102
}
330
344
100
DictionaryVariables
280
     0
  1
1:1
  0
DICTIONARYVAR
  5
349
102
{ACAD_REACTORS
330
344
102
}
330
344
100
DictionaryVariables
280
     0
  1
2
  0
DICTIONARYVAR
  5
34A
102
{ACAD_REACTORS
330
344
102
}
330
344
100
DictionaryVariables
280
     0
  1
1
  0
DICTIONARYVAR
  5
34E
102
{ACAD_REACTORS
330
344
102
}
330
344
100
DictionaryVariables
280
     0
  1
1
  0
DICTIONARY
  5
351
330
45
100
AcDbDictionary
280
     1
  3
ACAD_XREC_ROUNDTRIP
360
352
  0
DICTIONARY
  5
34F
330
44
100
AcDbDictionary
280
     1
  3
ACAD_XREC_ROUNDTRIP
360
350
  0
DICTIONARY
  5
353
330
46
100
AcDbDictionary
280
     1
  3
ACAD_XREC_ROUNDTRIP
360
354
  0
XRECORD
  5
352
102
{ACAD_REACTORS
330
351
102
}
330
351
100
AcDbXrecord
102
MATERIAL
148
0.0
149
0.0
149
0.0
 93
        0
 94
      127
282
     0
 72
     1
 77
     1
171
     1
175
     1
179
     1
273
     0
  0
XRECORD
  5
350
102
{ACAD_REACTORS
330
34F
102
}
330
34F
100
AcDbXrecord
102
MATERIAL
148
0.0
149
0.0
149
0.0
 93
        0
 94
      127
282
     0
 72
     1
 77
     1
171
     1
175
     1
179
     1
273
     0
  0
XRECORD
  5
354
102
{ACAD_REACTORS
330
353
102
}
330
353
100
AcDbXrecord
102
MATERIAL
148
0.0
149
0.0
149
0.0
 93
        0
 94
      127
282
     0
 72
     1
 77
     1
171
     1
175
     1
179
     1
273
     0
  0
ENDSEC
  0
EOF
