  0
SECTION
  2
HEADER
  9
$ACADVER
  1
AC1014
  9
$ACADMAINTVER
 70
     9
  9
$DWGCODEPAGE
  3
ANSI_1252
  9
$INSBASE
 10
0.0
 20
0.0
 30
0.0
  9
$EXTMIN
 10
1.000000000000000E+20
 20
1.000000000000000E+20
 30
1.000000000000000E+20
  9
$EXTMAX
 10
-1.000000000000000E+20
 20
-1.000000000000000E+20
 30
-1.000000000000000E+20
  9
$LIMMIN
 10
0.0
 20
0.0
  9
$LIMMAX
 10
12.0
 20
9.0
  9
$ORTHOMODE
 70
     0
  9
$REGENMODE
 70
     1
  9
$FILLMODE
 70
     1
  9
$QTEXTMODE
 70
     0
  9
$MIRRTEXT
 70
     1
  9
$DRAGMODE
 70
     2
  9
$LTSCALE
 40
1.0
  9
$OSMODE
 70
    37
  9
$ATTMODE
 70
     1
  9
$TEXTSIZE
 40
0.2
  9
$TRACEWID
 40
0.05
  9
$TEXTSTYLE
  7
STANDARD
  9
$CLAYER
  8
0
  9
$CELTYPE
  6
BYLAYER
  9
$CECOLOR
 62
   256
  9
$CELTSCALE
 40
1.0
  9
$DELOBJ
 70
     1
  9
$DISPSILH
 70
     0
  9
$DIMSCALE
 40
1.0
  9
$DIMASZ
 40
0.18
  9
$DIMEXO
 40
0.0625
  9
$DIMDLI
 40
0.38
  9
$DIMRND
 40
0.0
  9
$DIMDLE
 40
0.0
  9
$DIMEXE
 40
0.18
  9
$DIMTP
 40
0.0
  9
$DIMTM
 40
0.0
  9
$DIMTXT
 40
0.18
  9
$DIMCEN
 40
0.09
  9
$DIMTSZ
 40
0.0
  9
$DIMTOL
 70
     0
  9
$DIMLIM
 70
     0
  9
$DIMTIH
 70
     1
  9
$DIMTOH
 70
     1
  9
$DIMSE1
 70
     0
  9
$DIMSE2
 70
     0
  9
$DIMTAD
 70
     0
  9
$DIMZIN
 70
     0
  9
$DIMBLK
  1

  9
$DIMASO
 70
     1
  9
$DIMSHO
 70
     1
  9
$DIMPOST
  1

  9
$DIMAPOST
  1

  9
$DIMALT
 70
     0
  9
$DIMALTD
 70
     2
  9
$DIMALTF
 40
25.4
  9
$DIMLFAC
 40
1.0
  9
$DIMTOFL
 70
     0
  9
$DIMTVP
 40
0.0
  9
$DIMTIX
 70
     0
  9
$DIMSOXD
 70
     0
  9
$DIMSAH
 70
     0
  9
$DIMBLK1
  1

  9
$DIMBLK2
  1

  9
$DIMSTYLE
  2
STANDARD
  9
$DIMCLRD
 70
     0
  9
$DIMCLRE
 70
     0
  9
$DIMCLRT
 70
     0
  9
$DIMTFAC
 40
1.0
  9
$DIMGAP
 40
0.09
  9
$DIMJUST
 70
     0
  9
$DIMSD1
 70
     0
  9
$DIMSD2
 70
     0
  9
$DIMTOLJ
 70
     1
  9
$DIMTZIN
 70
     0
  9
$DIMALTZ
 70
     0
  9
$DIMALTTZ
 70
     0
  9
$DIMFIT
 70
     3
  9
$DIMUPT
 70
     0
  9
$DIMUNIT
 70
     2
  9
$DIMDEC
 70
     4
  9
$DIMTDEC
 70
     4
  9
$DIMALTU
 70
     2
  9
$DIMALTTD
 70
     2
  9
$DIMTXSTY
  7
STANDARD
  9
$DIMAUNIT
 70
     0
  9
$LUNITS
 70
     2
  9
$LUPREC
 70
     4
  9
$SKETCHINC
 40
0.1
  9
$FILLETRAD
 40
0.5
  9
$AUNITS
 70
     0
  9
$AUPREC
 70
     0
  9
$MENU
  1
.
  9
$ELEVATION
 40
0.0
  9
$PELEVATION
 40
0.0
  9
$THICKNESS
 40
0.0
  9
$LIMCHECK
 70
     0
  9
$CHAMFERA
 40
0.0
  9
$CHAMFERB
 40
0.0
  9
$CHAMFERC
 40
0.0
  9
$CHAMFERD
 40
0.0
  9
$SKPOLY
 70
     0
  9
$TDCREATE
 40
2456893.890255996
  9
$TDUPDATE
 40
2456893.890256134
  9
$TDINDWG
 40
0.0000000116
  9
$TDUSRTIMER
 40
0.0000000116
  9
$USRTIMER
 70
     1
  9
$ANGBASE
 50
0.0
  9
$ANGDIR
 70
     0
  9
$PDMODE
 70
     0
  9
$PDSIZE
 40
0.0
  9
$PLINEWID
 40
0.0
  9
$COORDS
 70
     1
  9
$SPLFRAME
 70
     0
  9
$SPLINETYPE
 70
     6
  9
$SPLINESEGS
 70
     8
  9
$ATTDIA
 70
     0
  9
$ATTREQ
 70
     1
  9
$HANDLING
 70
     1
  9
$HANDSEED
  5
2BB
  9
$SURFTAB1
 70
     6
  9
$SURFTAB2
 70
     6
  9
$SURFTYPE
 70
     6
  9
$SURFU
 70
     6
  9
$SURFV
 70
     6
  9
$UCSNAME
  2

  9
$UCSORG
 10
0.0
 20
0.0
 30
0.0
  9
$UCSXDIR
 10
1.0
 20
0.0
 30
0.0
  9
$UCSYDIR
 10
0.0
 20
1.0
 30
0.0
  9
$PUCSNAME
  2

  9
$PUCSORG
 10
0.0
 20
0.0
 30
0.0
  9
$PUCSXDIR
 10
1.0
 20
0.0
 30
0.0
  9
$PUCSYDIR
 10
0.0
 20
1.0
 30
0.0
  9
$USERI1
 70
     0
  9
$USERI2
 70
     0
  9
$USERI3
 70
     0
  9
$USERI4
 70
     0
  9
$USERI5
 70
     0
  9
$USERR1
 40
0.0
  9
$USERR2
 40
0.0
  9
$USERR3
 40
0.0
  9
$USERR4
 40
0.0
  9
$USERR5
 40
0.0
  9
$WORLDVIEW
 70
     1
  9
$SHADEDGE
 70
     3
  9
$SHADEDIF
 70
    70
  9
$TILEMODE
 70
     1
  9
$MAXACTVP
 70
    64
  9
$PINSBASE
 10
0.0
 20
0.0
 30
0.0
  9
$PLIMCHECK
 70
     0
  9
$PEXTMIN
 10
1.000000000000000E+20
 20
1.000000000000000E+20
 30
1.000000000000000E+20
  9
$PEXTMAX
 10
-1.000000000000000E+20
 20
-1.000000000000000E+20
 30
-1.000000000000000E+20
  9
$PLIMMIN
 10
0.0
 20
0.0
  9
$PLIMMAX
 10
12.0
 20
9.0
  9
$UNITMODE
 70
     0
  9
$VISRETAIN
 70
     1
  9
$PLINEGEN
 70
     0
  9
$PSLTSCALE
 70
     1
  9
$TREEDEPTH
 70
  3020
  9
$PICKSTYLE
 70
     1
  9
$CMLSTYLE
  2
STANDARD
  9
$CMLJUST
 70
     0
  9
$CMLSCALE
 40
1.0
  9
$PROXYGRAPHICS
 70
     1
  9
$MEASUREMENT
 70
     0
  0
ENDSEC
  0
SECTION
  2
CLASSES
  0
CLASS
  1
ACDBDICTIONARYWDFLT
  2
AcDbDictionaryWithDefault
  3
ObjectDBX Classes
 90
        0
280
     0
281
     0
  0
CLASS
  1
VISUALSTYLE
  2
AcDbVisualStyle
  3
ObjectDBX Classes
 90
     4095
280
     0
281
     0
  0
CLASS
  1
MATERIAL
  2
AcDbMaterial
  3
ObjectDBX Classes
 90
     1153
280
     0
281
     0
  0
CLASS
  1
SCALE
  2
AcDbScale
  3
ObjectDBX Classes
 90
     1153
280
     0
281
     0
  0
CLASS
  1
SUN
  2
AcDbSun
  3
SCENEOE
 90
     1153
280
     0
281
     0
  0
CLASS
  1
DICTIONARYVAR
  2
AcDbDictionaryVar
  3
ObjectDBX Classes
 90
        0
280
     0
281
     0
  0
CLASS
  1
XRECORD
  2
AcDbXrecord
  3
ObjectDBX Classes
 90
        0
280
     0
281
     0
  0
CLASS
  1
LWPOLYLINE
  2
AcDbPolyline
  3
ObjectDBX Classes
 90
        0
280
     0
281
     1
  0
CLASS
  1
HATCH
  2
AcDbHatch
  3
ObjectDBX Classes
 90
        0
280
     0
281
     1
  0
CLASS
  1
ACDBPLACEHOLDER
  2
AcDbPlaceHolder
  3
ObjectDBX Classes
 90
        0
280
     0
281
     0
  0
CLASS
  1
LAYOUT
  2
AcDbLayout
  3
ObjectDBX Classes
 90
        0
280
     0
281
     0
  0
ENDSEC
  0
SECTION
  2
TABLES
  0
TABLE
  2
VPORT
  5
8
102
{ACAD_XDICTIONARY
360
2B1
102
}
330
0
100
AcDbSymbolTable
 70
     1
  0
VPORT
  5
29
330
8
100
AcDbSymbolTableRecord
100
AcDbViewportTableRecord
  2
*ACTIVE
 70
     0
 10
0.0
 20
0.0
 11
1.0
 21
1.0
 12
0.0
 22
0.0
 13
0.0
 23
0.0
 14
0.5
 24
0.5
 15
0.5
 25
0.5
 16
0.0
 26
0.0
 36
1.0
 17
0.0
 27
0.0
 37
-1000.0
 40
155.7670113189873
 41
2.199770378874856
 42
50.0
 43
306.6914645543589
 44
402.7851233442165
 50
0.0
 51
0.0
 71
     0
 72
   100
 73
     1
 74
     3
 75
     0
 76
     0
 77
     0
 78
     0
  0
ENDTAB
  0
TABLE
  2
LTYPE
  5
5
330
0
100
AcDbSymbolTable
 70
     1
  0
LTYPE
  5
14
330
5
100
AcDbSymbolTableRecord
100
AcDbLinetypeTableRecord
  2
BYBLOCK
 70
     0
  3

 72
    65
 73
     0
 40
0.0
  0
LTYPE
  5
15
330
5
100
AcDbSymbolTableRecord
100
AcDbLinetypeTableRecord
  2
BYLAYER
 70
     0
  3

 72
    65
 73
     0
 40
0.0
  0
LTYPE
  5
16
330
5
100
AcDbSymbolTableRecord
100
AcDbLinetypeTableRecord
  2
CONTINUOUS
 70
     0
  3
Solid line
 72
    65
 73
     0
 40
0.0
  0
ENDTAB
  0
TABLE
  2
LAYER
  5
2
330
0
100
AcDbSymbolTable
 70
     3
  0
LAYER
  5
10
330
2
100
AcDbSymbolTableRecord
100
AcDbLayerTableRecord
  2
0
 70
     0
 62
     7
  6
CONTINUOUS
  0
LAYER
  5
6A
330
2
100
AcDbSymbolTableRecord
100
AcDbLayerTableRecord
  2
PROFILEEDGES
 70
     0
 62
     7
  6
CONTINUOUS
  0
LAYER
  5
6B
330
2
100
AcDbSymbolTableRecord
100
AcDbLayerTableRecord
  2
SECTIONCUTEDGES
 70
     0
 62
     7
  6
CONTINUOUS
  0
ENDTAB
  0
TABLE
  2
STYLE
  5
3
330
0
100
AcDbSymbolTable
 70
     1
  0
STYLE
  5
11
330
3
100
AcDbSymbolTableRecord
100
AcDbTextStyleTableRecord
  2
STANDARD
 70
     0
 40
0.0
 41
1.0
 50
0.0
 71
     0
 42
0.2
  3
txt
  4

  0
ENDTAB
  0
TABLE
  2
VIEW
  5
6
330
0
100
AcDbSymbolTable
 70
     0
  0
ENDTAB
  0
TABLE
  2
UCS
  5
7
330
0
100
AcDbSymbolTable
 70
     0
  0
ENDTAB
  0
TABLE
  2
APPID
  5
9
330
0
100
AcDbSymbolTable
 70
     1
  0
APPID
  5
12
330
9
100
AcDbSymbolTableRecord
100
AcDbRegAppTableRecord
  2
ACAD
 70
     0
  0
ENDTAB
  0
TABLE
  2
DIMSTYLE
  5
A
330
0
100
AcDbSymbolTable
 70
     1
  0
DIMSTYLE
105
27
330
A
100
AcDbSymbolTableRecord
100
AcDbDimStyleTableRecord
  2
STANDARD
 70
     0
  3

  4

  5

  6

  7

 40
1.0
 41
0.18
 42
0.0625
 43
0.38
 44
0.18
 45
0.0
 46
0.0
 47
0.0
 48
0.0
140
0.18
141
0.09
142
0.0
143
25.4
144
1.0
145
0.0
146
1.0
147
0.09
 71
     0
 72
     0
 73
     1
 74
     1
 75
     0
 76
     0
 77
     0
 78
     0
170
     0
171
     2
172
     0
173
     0
174
     0
175
     0
176
     0
177
     0
178
     0
270
     2
271
     4
272
     4
273
     2
274
     2
340
11
275
     0
280
     0
281
     0
282
     0
283
     1
284
     0
285
     0
286
     0
287
     3
288
     0
  0
ENDTAB
  0
TABLE
  2
BLOCK_RECORD
  5
1
330
0
100
AcDbSymbolTable
 70
     1
  0
BLOCK_RECORD
  5
1F
330
1
100
AcDbSymbolTableRecord
100
AcDbBlockTableRecord
  2
*MODEL_SPACE
  0
BLOCK_RECORD
  5
1B
330
1
100
AcDbSymbolTableRecord
100
AcDbBlockTableRecord
  2
*PAPER_SPACE
  0
ENDTAB
  0
ENDSEC
  0
SECTION
  2
BLOCKS
  0
BLOCK
  5
20
330
1F
100
AcDbEntity
  8
0
100
AcDbBlockBegin
  2
*MODEL_SPACE
 70
     0
 10
0.0
 20
0.0
 30
0.0
  3
*MODEL_SPACE
  1

  0
ENDBLK
  5
21
330
1F
100
AcDbEntity
  8
0
100
AcDbBlockEnd
  0
BLOCK
  5
1C
330
1B
100
AcDbEntity
 67
     1
  8
0
100
AcDbBlockBegin
  2
*PAPER_SPACE
 70
     0
 10
0.0
 20
0.0
 30
0.0
  3
*PAPER_SPACE
  1

  0
ENDBLK
  5
1D
330
1B
100
AcDbEntity
 67
     1
  8
0
100
AcDbBlockEnd
  0
ENDSEC
  0
SECTION
  2
ENTITIES
  0
LINE
  5
6C
330
1F
100
AcDbEntity
  8
0
100
AcDbLine
 10
-17.52595786679501
 20
45.25936217305905
 30
0.0
 11
-17.65422748450125
 21
44.36231321262981
 31
0.0
  0
LINE
  5
6D
330
1F
100
AcDbEntity
  8
0
100
AcDbLine
 10
-17.65422748450125
 20
44.36231321262981
 30
0.0
 11
-18.03903633761996
 21
43.5893420523347
 31
0.0
  0
LINE
  5
6E
330
1F
100
AcDbEntity
  8
0
100
AcDbLine
 10
-18.03903633761996
 20
43.5893420523347
 30
0.0
 11
-18.65523352071856
 21
42.96895305166401
 31
0.0
  0
LINE
  5
6F
330
1F
100
AcDbEntity
  8
0
100
AcDbLine
 10
-18.65523352071856
 20
42.96895305166401
 30
0.0
 11
-19.47766812836443
 21
42.52965057010801
 31
0.0
  0
LINE
  5
70
330
1F
100
AcDbEntity
  8
0
100
AcDbLine
 10
-19.47766812836443
 20
42.52965057010801
 30
0.0
 11
-20.49711816189897
 21
42.26808115360902
 31
0.0
  0
LINE
  5
71
330
1F
100
AcDbEntity
  8
0
100
AcDbLine
 10
-20.49711816189897
 20
42.26808115360902
 30
0.0
 11
-21.70436162266356
 21
42.18089134810935
 31
0.0
  0
LINE
  5
72
330
1F
100
AcDbEntity
  8
0
100
AcDbLine
 10
-21.70436162266356
 20
42.18089134810935
 30
0.0
 11
-23.14970032152339
 21
42.30832260230117
 31
0.0
  0
LINE
  5
73
330
1F
100
AcDbEntity
  8
0
100
AcDbLine
 10
-23.14970032152339
 20
42.30832260230117
 30
0.0
 11
-24.46760776619139
 21
42.69061636487662
 31
0.0
  0
LINE
  5
74
330
1F
100
AcDbEntity
  8
0
100
AcDbLine
 10
-24.46760776619139
 20
42.69061636487662
 30
0.0
 11
-24.46760776619139
 21
45.32643125421264
 31
0.0
  0
LINE
  5
75
330
1F
100
AcDbEntity
  8
0
100
AcDbLine
 10
-24.46760776619139
 20
45.32643125421264
 30
0.0
 11
-23.83212822226115
 21
44.92653185783436
 31
0.0
  0
LINE
  5
76
330
1F
100
AcDbEntity
  8
0
100
AcDbLine
 10
-23.83212822226115
 20
44.92653185783436
 30
0.0
 11
-23.13293305123499
 21
44.61214553992692
 31
0.0
  0
LINE
  5
77
330
1F
100
AcDbEntity
  8
0
100
AcDbLine
 10
-23.13293305123499
 20
44.61214553992692
 30
0.0
 11
-22.42703097209347
 21
44.40842320592289
 31
0.0
  0
LINE
  5
78
330
1F
100
AcDbEntity
  8
0
100
AcDbLine
 10
-22.42703097209347
 20
44.40842320592289
 30
0.0
 11
-21.77143070381715
 21
44.34051576125489
 31
0.0
  0
LINE
  5
79
330
1F
100
AcDbEntity
  8
0
100
AcDbLine
 10
-21.77143070381715
 20
44.34051576125489
 30
0.0
 11
-21.34889549254954
 21
44.3832723004903
 31
0.0
  0
LINE
  5
7A
330
1F
100
AcDbEntity
  8
0
100
AcDbLine
 10
-21.34889549254954
 20
44.3832723004903
 30
0.0
 11
-21.03367081112768
 21
44.51154191819654
 31
0.0
  0
LINE
  5
7B
330
1F
100
AcDbEntity
  8
0
100
AcDbLine
 10
-21.03367081112768
 20
44.51154191819654
 30
0.0
 11
-20.83749374875343
 21
44.72197116031592
 31
0.0
  0
LINE
  5
7C
330
1F
100
AcDbEntity
  8
0
100
AcDbLine
 10
-20.83749374875343
 20
44.72197116031592
 30
0.0
 11
-20.77210139462868
 21
45.01120657279077
 31
0.0
  0
LINE
  5
7D
330
1F
100
AcDbEntity
  8
0
100
AcDbLine
 10
-20.77210139462868
 20
45.01120657279077
 30
0.0
 11
-20.90288610287818
 21
45.42368142188534
 31
0.0
  0
LINE
  5
7E
330
1F
100
AcDbEntity
  8
0
100
AcDbLine
 10
-20.90288610287818
 20
45.42368142188534
 30
0.0
 11
-21.29859368168435
 21
45.75567337359561
 31
0.0
  0
LINE
  5
7F
330
1F
100
AcDbEntity
  8
0
100
AcDbLine
 10
-21.29859368168435
 20
45.75567337359561
 30
0.0
 11
-22.28115572058442
 21
46.17820858486321
 31
0.0
  0
LINE
  5
80
330
1F
100
AcDbEntity
  8
0
100
AcDbLine
 10
-22.28115572058442
 20
46.17820858486321
 30
0.0
 11
-23.29641393654686
 21
46.69296378271699
 31
0.0
  0
LINE
  5
81
330
1F
100
AcDbEntity
  8
0
100
AcDbLine
 10
-23.29641393654686
 20
46.69296378271699
 30
0.0
 11
-24.02159837652003
 21
47.34521059693564
 31
0.0
  0
LINE
  5
82
330
1F
100
AcDbEntity
  8
0
100
AcDbLine
 10
-24.02159837652003
 20
47.34521059693564
 30
0.0
 11
-24.27541293051064
 21
47.72289336018178
 31
0.0
  0
LINE
  5
83
330
1F
100
AcDbEntity
  8
0
100
AcDbLine
 10
-24.27541293051064
 20
47.72289336018178
 30
0.0
 11
-24.45670904050393
 21
48.13494902751914
 31
0.0
  0
LINE
  5
84
330
1F
100
AcDbEntity
  8
0
100
AcDbLine
 10
-24.45670904050393
 20
48.13494902751914
 30
0.0
 11
-24.56548670649991
 21
48.58137759894771
 31
0.0
  0
LINE
  5
85
330
1F
100
AcDbEntity
  8
0
100
AcDbLine
 10
-24.56548670649991
 20
48.58137759894771
 30
0.0
 11
-24.60174592849857
 21
49.06217907446749
 31
0.0
  0
LINE
  5
86
330
1F
100
AcDbEntity
  8
0
100
AcDbLine
 10
-24.60174592849857
 20
49.06217907446749
 30
0.0
 11
-24.5355152108594
 21
49.72469584173778
 31
0.0
  0
LINE
  5
87
330
1F
100
AcDbEntity
  8
0
100
AcDbLine
 10
-24.5355152108594
 20
49.72469584173778
 30
0.0
 11
-24.3368230579419
 21
50.31720925555401
 31
0.0
  0
LINE
  5
88
330
1F
100
AcDbEntity
  8
0
100
AcDbLine
 10
-24.3368230579419
 20
50.31720925555401
 30
0.0
 11
-24.00566946974605
 21
50.83971931591619
 31
0.0
  0
LINE
  5
89
330
1F
100
AcDbEntity
  8
0
100
AcDbLine
 10
-24.00566946974605
 20
50.83971931591619
 30
0.0
 11
-23.54205444627188
 21
51.2922260228243
 31
0.0
  0
LINE
  5
8A
330
1F
100
AcDbEntity
  8
0
100
AcDbLine
 10
-23.54205444627188
 20
51.2922260228243
 30
0.0
 11
-22.96693707537986
 21
51.65754292423276
 31
0.0
  0
LINE
  5
8B
330
1F
100
AcDbEntity
  8
0
100
AcDbLine
 10
-22.96693707537986
 20
51.65754292423276
 30
0.0
 11
-22.30127644493049
 21
51.91848356809594
 31
0.0
  0
LINE
  5
8C
330
1F
100
AcDbEntity
  8
0
100
AcDbLine
 10
-22.30127644493049
 20
51.91848356809594
 30
0.0
 11
-21.54507255492378
 21
52.07504795441385
 31
0.0
  0
LINE
  5
8D
330
1F
100
AcDbEntity
  8
0
100
AcDbLine
 10
-21.54507255492378
 20
52.07504795441385
 30
0.0
 11
-20.69832540535974
 21
52.12723608318648
 31
0.0
  0
LINE
  5
8E
330
1F
100
AcDbEntity
  8
0
100
AcDbLine
 10
-20.69832540535974
 20
52.12723608318648
 30
0.0
 11
-19.77277208544022
 21
52.08699463449432
 31
0.0
  0
LINE
  5
8F
330
1F
100
AcDbEntity
  8
0
100
AcDbLine
 10
-19.77277208544022
 20
52.08699463449432
 30
0.0
 11
-19.00483110623163
 21
51.98639101276394
 31
0.0
  0
LINE
  5
90
330
1F
100
AcDbEntity
  8
0
100
AcDbLine
 10
-19.00483110623163
 20
51.98639101276394
 30
0.0
 11
-18.03568288356229
 21
51.75835613684175
 31
0.0
  0
LINE
  5
91
330
1F
100
AcDbEntity
  8
0
100
AcDbLine
 10
-18.03568288356229
 20
51.75835613684175
 30
0.0
 11
-18.03568288356229
 21
49.31033467473578
 31
0.0
  0
LINE
  5
92
330
1F
100
AcDbEntity
  8
0
100
AcDbLine
 10
-18.03568288356229
 20
49.31033467473578
 30
0.0
 11
-19.23957289026919
 21
49.80832260230117
 31
0.0
  0
LINE
  5
93
330
1F
100
AcDbEntity
  8
0
100
AcDbLine
 10
-19.23957289026919
 20
49.80832260230117
 30
0.0
 11
-19.83397262199287
 21
49.93281958419252
 31
0.0
  0
LINE
  5
94
330
1F
100
AcDbEntity
  8
0
100
AcDbLine
 10
-19.83397262199287
 20
49.93281958419252
 30
0.0
 11
-20.42334217263002
 21
49.9743185781563
 31
0.0
  0
LINE
  5
95
330
1F
100
AcDbEntity
  8
0
100
AcDbLine
 10
-20.42334217263002
 20
49.9743185781563
 30
0.0
 11
-20.85929120012835
 21
49.92904694837763
 31
0.0
  0
LINE
  5
96
330
1F
100
AcDbEntity
  8
0
100
AcDbLine
 10
-20.85929120012835
 20
49.92904694837763
 30
0.0
 11
-21.20134351401165
 21
49.79323205904161
 31
0.0
  0
LINE
  5
97
330
1F
100
AcDbEntity
  8
0
100
AcDbLine
 10
-21.20134351401165
 20
49.79323205904161
 30
0.0
 11
-21.42267148181849
 21
49.57861099935013
 31
0.0
  0
LINE
  5
98
330
1F
100
AcDbEntity
  8
0
100
AcDbLine
 10
-21.42267148181849
 20
49.57861099935013
 30
0.0
 11
-21.49644747108744
 21
49.29692085850505
 31
0.0
  0
LINE
  5
99
330
1F
100
AcDbEntity
  8
0
100
AcDbLine
 10
-21.49644747108744
 20
49.29692085850505
 30
0.0
 11
-21.43692366156363
 21
49.02109926226093
 31
0.0
  0
LINE
  5
9A
330
1F
100
AcDbEntity
  8
0
100
AcDbLine
 10
-21.43692366156363
 20
49.02109926226093
 30
0.0
 11
-21.25835223299219
 21
48.79725620391083
 31
0.0
  0
LINE
  5
9B
330
1F
100
AcDbEntity
  8
0
100
AcDbLine
 10
-21.25835223299219
 20
48.79725620391083
 30
0.0
 11
-20.26237637786141
 21
48.28417773308588
 31
0.0
  0
LINE
  5
9C
330
1F
100
AcDbEntity
  8
0
100
AcDbLine
 10
-20.26237637786141
 20
48.28417773308588
 30
0.0
 11
-18.98554874539998
 21
47.6520516432133
 31
0.0
  0
LINE
  5
9D
330
1F
100
AcDbEntity
  8
0
100
AcDbLine
 10
-18.98554874539998
 20
47.6520516432133
 30
0.0
 11
-18.51124458711695
 21
47.31461032865931
 31
0.0
  0
LINE
  5
9E
330
1F
100
AcDbEntity
  8
0
100
AcDbLine
 10
-18.51124458711695
 20
47.31461032865931
 30
0.0
 11
-18.14634686746571
 21
46.96291683436019
 31
0.0
  0
LINE
  5
9F
330
1F
100
AcDbEntity
  8
0
100
AcDbLine
 10
-18.14634686746571
 20
46.96291683436019
 30
0.0
 11
-17.87492667967228
 21
46.58732997990009
 31
0.0
  0
LINE
  5
A0
330
1F
100
AcDbEntity
  8
0
100
AcDbLine
 10
-17.87492667967228
 20
46.58732997990009
 30
0.0
 11
-17.68105511696269
 21
46.17820858486321
 31
0.0
  0
LINE
  5
A1
330
1F
100
AcDbEntity
  8
0
100
AcDbLine
 10
-17.68105511696269
 20
46.17820858486321
 30
0.0
 11
-17.56473217933693
 21
45.73555264924953
 31
0.0
  0
LINE
  5
A2
330
1F
100
AcDbEntity
  8
0
100
AcDbLine
 10
-17.56473217933693
 20
45.73555264924953
 30
0.0
 11
-17.52595786679501
 21
45.25936217305905
 31
0.0
  0
LINE
  5
A3
330
1F
100
AcDbEntity
  8
0
100
AcDbLine
 10
-11.77813761193251
 20
42.44246076460834
 30
0.0
 11
-12.4152938828916
 21
42.26472769955134
 31
0.0
  0
LINE
  5
A4
330
1F
100
AcDbEntity
  8
0
100
AcDbLine
 10
-12.4152938828916
 20
42.26472769955134
 30
0.0
 11
-13.48169227323365
 21
42.18089134810935
 31
0.0
  0
LINE
  5
A5
330
1F
100
AcDbEntity
  8
0
100
AcDbLine
 10
-13.48169227323365
 20
42.18089134810935
 30
0.0
 11
-14.04612050931681
 21
42.22197116031592
 31
0.0
  0
LINE
  5
A6
330
1F
100
AcDbEntity
  8
0
100
AcDbLine
 10
-14.04612050931681
 20
42.22197116031592
 30
0.0
 11
-14.54557557303244
 21
42.34521059693564
 31
0.0
  0
LINE
  5
A7
330
1F
100
AcDbEntity
  8
0
100
AcDbLine
 10
-14.54557557303244
 20
42.34521059693564
 30
0.0
 11
-14.98005746438053
 21
42.55060965796851
 31
0.0
  0
LINE
  5
A8
330
1F
100
AcDbEntity
  8
0
100
AcDbLine
 10
-14.98005746438053
 20
42.55060965796851
 30
0.0
 11
-15.34956618336108
 21
42.83816834341452
 31
0.0
  0
LINE
  5
A9
330
1F
100
AcDbEntity
  8
0
100
AcDbLine
 10
-15.34956618336108
 20
42.83816834341452
 30
0.0
 11
-15.64446054955826
 21
43.20159892691552
 31
0.0
  0
LINE
  5
AA
330
1F
100
AcDbEntity
  8
0
100
AcDbLine
 10
-15.64446054955826
 20
43.20159892691552
 30
0.0
 11
-15.85509938255625
 21
43.63461368211338
 31
0.0
  0
LINE
  5
AB
330
1F
100
AcDbEntity
  8
0
100
AcDbLine
 10
-15.85509938255625
 20
43.63461368211338
 30
0.0
 11
-15.98148268235504
 21
44.13721260900807
 31
0.0
  0
LINE
  5
AC
330
1F
100
AcDbEntity
  8
0
100
AcDbLine
 10
-15.98148268235504
 20
44.13721260900807
 30
0.0
 11
-16.02361044895464
 21
44.70939570759963
 31
0.0
  0
LINE
  5
AD
330
1F
100
AcDbEntity
  8
0
100
AcDbLine
 10
-16.02361044895464
 20
44.70939570759963
 30
0.0
 11
-16.02361044895464
 21
47.2379000670899
 31
0.0
  0
LINE
  5
AE
330
1F
100
AcDbEntity
  8
0
100
AcDbLine
 10
-16.02361044895464
 20
47.2379000670899
 30
0.0
 11
-17.10342265552741
 21
47.2379000670899
 31
0.0
  0
LINE
  5
AF
330
1F
100
AcDbEntity
  8
0
100
AcDbLine
 10
-17.10342265552741
 20
47.2379000670899
 30
0.0
 11
-17.10342265552741
 21
49.21643796112075
 31
0.0
  0
LINE
  5
B0
330
1F
100
AcDbEntity
  8
0
100
AcDbLine
 10
-17.10342265552741
 20
49.21643796112075
 30
0.0
 11
-16.02361044895464
 21
49.21643796112075
 31
0.0
  0
LINE
  5
B1
330
1F
100
AcDbEntity
  8
0
100
AcDbLine
 10
-16.02361044895464
 20
49.21643796112075
 30
0.0
 11
-16.02361044895464
 21
50.56452649230787
 31
0.0
  0
LINE
  5
B2
330
1F
100
AcDbEntity
  8
0
100
AcDbLine
 10
-16.02361044895464
 20
50.56452649230787
 30
0.0
 11
-13.20670904050394
 21
51.34252783368949
 31
0.0
  0
LINE
  5
B3
330
1F
100
AcDbEntity
  8
0
100
AcDbLine
 10
-13.20670904050394
 20
51.34252783368949
 30
0.0
 11
-13.20670904050394
 21
49.21643796112075
 31
0.0
  0
LINE
  5
B4
330
1F
100
AcDbEntity
  8
0
100
AcDbLine
 10
-13.20670904050394
 20
49.21643796112075
 30
0.0
 11
-11.77813761193251
 21
49.21643796112075
 31
0.0
  0
LINE
  5
B5
330
1F
100
AcDbEntity
  8
0
100
AcDbLine
 10
-11.77813761193251
 20
49.21643796112075
 30
0.0
 11
-11.77813761193251
 21
47.2379000670899
 31
0.0
  0
LINE
  5
B6
330
1F
100
AcDbEntity
  8
0
100
AcDbLine
 10
-11.77813761193251
 20
47.2379000670899
 30
0.0
 11
-13.20670904050394
 21
47.2379000670899
 31
0.0
  0
LINE
  5
B7
330
1F
100
AcDbEntity
  8
0
100
AcDbLine
 10
-13.20670904050394
 20
47.2379000670899
 30
0.0
 11
-13.20670904050394
 21
45.17887927567475
 31
0.0
  0
LINE
  5
B8
330
1F
100
AcDbEntity
  8
0
100
AcDbLine
 10
-13.20670904050394
 20
45.17887927567475
 30
0.0
 11
-13.16185659248248
 21
44.78275251511136
 31
0.0
  0
LINE
  5
B9
330
1F
100
AcDbEntity
  8
0
100
AcDbLine
 10
-13.16185659248248
 20
44.78275251511136
 30
0.0
 11
-13.02729924841809
 21
44.49980482899466
 31
0.0
  0
LINE
  5
BA
330
1F
100
AcDbEntity
  8
0
100
AcDbLine
 10
-13.02729924841809
 20
44.49980482899466
 30
0.0
 11
-12.80303700831078
 21
44.33003621732464
 31
0.0
  0
LINE
  5
BB
330
1F
100
AcDbEntity
  8
0
100
AcDbLine
 10
-12.80303700831078
 20
44.33003621732464
 30
0.0
 11
-12.48906987216054
 21
44.2734466801013
 31
0.0
  0
LINE
  5
BC
330
1F
100
AcDbEntity
  8
0
100
AcDbLine
 10
-12.48906987216054
 20
44.2734466801013
 30
0.0
 11
-11.77813761193251
 21
44.4209986586392
 31
0.0
  0
LINE
  5
BD
330
1F
100
AcDbEntity
  8
0
100
AcDbLine
 10
-11.77813761193251
 20
44.4209986586392
 30
0.0
 11
-11.77813761193251
 21
42.44246076460834
 31
0.0
  0
LINE
  5
BE
330
1F
100
AcDbEntity
  8
0
100
AcDbLine
 10
-5.721799583763493
 20
46.76841649901478
 30
0.0
 11
-6.157748611261814
 21
46.90255466132196
 31
0.0
  0
LINE
  5
BF
330
1F
100
AcDbEntity
  8
0
100
AcDbLine
 10
-6.157748611261814
 20
46.90255466132196
 30
0.0
 11
-6.613818363106216
 21
46.96291683436019
 31
0.0
  0
LINE
  5
C0
330
1F
100
AcDbEntity
  8
0
100
AcDbLine
 10
-6.613818363106216
 20
46.96291683436019
 30
0.0
 11
-7.232949818505277
 21
46.86063648560096
 31
0.0
  0
LINE
  5
C1
330
1F
100
AcDbEntity
  8
0
100
AcDbLine
 10
-7.232949818505277
 20
46.86063648560096
 30
0.0
 11
-7.67518657236175
 21
46.5537954393233
 31
0.0
  0
LINE
  5
C2
330
1F
100
AcDbEntity
  8
0
100
AcDbLine
 10
-7.67518657236175
 20
46.5537954393233
 30
0.0
 11
-7.940528624675633
 21
46.04239369552719
 31
0.0
  0
LINE
  5
C3
330
1F
100
AcDbEntity
  8
0
100
AcDbLine
 10
-7.940528624675633
 20
46.04239369552719
 30
0.0
 11
-8.028975975446928
 21
45.32643125421264
 31
0.0
  0
LINE
  5
C4
330
1F
100
AcDbEntity
  8
0
100
AcDbLine
 10
-8.028975975446928
 20
45.32643125421264
 30
0.0
 11
-8.028975975446928
 21
42.34856405099332
 31
0.0
  0
LINE
  5
C5
330
1F
100
AcDbEntity
  8
0
100
AcDbLine
 10
-8.028975975446928
 20
42.34856405099332
 30
0.0
 11
-10.88611883258978
 21
42.34856405099332
 31
0.0
  0
LINE
  5
C6
330
1F
100
AcDbEntity
  8
0
100
AcDbLine
 10
-10.88611883258978
 20
42.34856405099332
 30
0.0
 11
-10.88611883258978
 21
49.21643796112075
 31
0.0
  0
LINE
  5
C7
330
1F
100
AcDbEntity
  8
0
100
AcDbLine
 10
-10.88611883258978
 20
49.21643796112075
 30
0.0
 11
-8.028975975446928
 21
49.21643796112075
 31
0.0
  0
LINE
  5
C8
330
1F
100
AcDbEntity
  8
0
100
AcDbLine
 10
-8.028975975446928
 20
49.21643796112075
 30
0.0
 11
-8.028975975446928
 21
48.00919450035616
 31
0.0
  0
LINE
  5
C9
330
1F
100
AcDbEntity
  8
0
100
AcDbLine
 10
-8.028975975446928
 20
48.00919450035616
 30
0.0
 11
-8.002148342985492
 21
48.00919450035616
 31
0.0
  0
LINE
  5
CA
330
1F
100
AcDbEntity
  8
0
100
AcDbLine
 10
-8.002148342985492
 20
48.00919450035616
 30
0.0
 11
-7.685246934534789
 21
48.58179678070492
 31
0.0
  0
LINE
  5
CB
330
1F
100
AcDbEntity
  8
0
100
AcDbLine
 10
-7.685246934534789
 20
48.58179678070492
 30
0.0
 11
-7.257681542180664
 21
48.99846344737159
 31
0.0
  0
LINE
  5
CC
330
1F
100
AcDbEntity
  8
0
100
AcDbLine
 10
-7.257681542180664
 20
48.99846344737159
 30
0.0
 11
-6.734542709182674
 21
49.2524875922408
 31
0.0
  0
LINE
  5
CD
330
1F
100
AcDbEntity
  8
0
100
AcDbLine
 10
-6.734542709182674
 20
49.2524875922408
 30
0.0
 11
-6.130920978800382
 21
49.33716230719721
 31
0.0
  0
LINE
  5
CE
330
1F
100
AcDbEntity
  8
0
100
AcDbLine
 10
-6.130920978800382
 20
49.33716230719721
 30
0.0
 11
-5.721799583763493
 21
49.2566794098129
 31
0.0
  0
LINE
  5
CF
330
1F
100
AcDbEntity
  8
0
100
AcDbLine
 10
-5.721799583763493
 20
49.2566794098129
 30
0.0
 11
-5.721799583763493
 21
46.76841649901478
 31
0.0
  0
LINE
  5
D0
330
1F
100
AcDbEntity
  8
0
100
AcDbLine
 10
-1.087326076050547
 20
42.34856405099332
 30
0.0
 11
-1.087326076050547
 21
43.3948417169893
 31
0.0
  0
LINE
  5
D1
330
1F
100
AcDbEntity
  8
0
100
AcDbLine
 10
-1.087326076050547
 20
43.3948417169893
 30
0.0
 11
-1.114153708511983
 21
43.3948417169893
 31
0.0
  0
LINE
  5
D2
330
1F
100
AcDbEntity
  8
0
100
AcDbLine
 10
-1.114153708511983
 20
43.3948417169893
 30
0.0
 11
-1.501477652173957
 21
42.86373843060432
 31
0.0
  0
LINE
  5
D3
330
1F
100
AcDbEntity
  8
0
100
AcDbLine
 10
-1.501477652173957
 20
42.86373843060432
 30
0.0
 11
-1.979344855393272
 21
42.48437894032934
 31
0.0
  0
LINE
  5
D4
330
1F
100
AcDbEntity
  8
0
100
AcDbLine
 10
-1.979344855393272
 20
42.48437894032934
 30
0.0
 11
-2.547755318169931
 21
42.25676324616434
 31
0.0
  0
LINE
  5
D5
330
1F
100
AcDbEntity
  8
0
100
AcDbLine
 10
-2.547755318169931
 20
42.25676324616434
 30
0.0
 11
-3.206709040503934
 21
42.18089134810935
 31
0.0
  0
LINE
  5
D6
330
1F
100
AcDbEntity
  8
0
100
AcDbLine
 10
-3.206709040503934
 20
42.18089134810935
 30
0.0
 11
-3.666551428163222
 21
42.21694097922941
 31
0.0
  0
LINE
  5
D7
330
1F
100
AcDbEntity
  8
0
100
AcDbLine
 10
-3.666551428163222
 20
42.21694097922941
 30
0.0
 11
-4.07357691441406
 21
42.32508987258957
 31
0.0
  0
LINE
  5
D8
330
1F
100
AcDbEntity
  8
0
100
AcDbLine
 10
-4.07357691441406
 20
42.32508987258957
 30
0.0
 11
-4.42778549925645
 21
42.50533802818983
 31
0.0
  0
LINE
  5
D9
330
1F
100
AcDbEntity
  8
0
100
AcDbLine
 10
-4.42778549925645
 20
42.50533802818983
 30
0.0
 11
-4.729177182690386
 21
42.75768544603021
 31
0.0
  0
LINE
  5
DA
330
1F
100
AcDbEntity
  8
0
100
AcDbLine
 10
-4.729177182690386
 20
42.75768544603021
 30
0.0
 11
-4.969787511328885
 21
43.07039503690881
 31
0.0
  0
LINE
  5
DB
330
1F
100
AcDbEntity
  8
0
100
AcDbLine
 10
-4.969787511328885
 20
43.07039503690881
 30
0.0
 11
-5.141652031784957
 21
43.43172971162377
 31
0.0
  0
LINE
  5
DC
330
1F
100
AcDbEntity
  8
0
100
AcDbLine
 10
-5.141652031784957
 20
43.43172971162377
 30
0.0
 11
-5.244770744058596
 21
43.84168947017508
 31
0.0
  0
LINE
  5
DD
330
1F
100
AcDbEntity
  8
0
100
AcDbLine
 10
-5.244770744058596
 20
43.84168947017508
 30
0.0
 11
-5.27914364814981
 21
44.30027431256274
 31
0.0
  0
LINE
  5
DE
330
1F
100
AcDbEntity
  8
0
100
AcDbLine
 10
-5.27914364814981
 20
44.30027431256274
 30
0.0
 11
-5.240264540168591
 21
44.78002783368949
 31
0.0
  0
LINE
  5
DF
330
1F
100
AcDbEntity
  8
0
100
AcDbLine
 10
-5.240264540168591
 20
44.78002783368949
 30
0.0
 11
-5.123627216224929
 21
45.2065452716506
 31
0.0
  0
LINE
  5
E0
330
1F
100
AcDbEntity
  8
0
100
AcDbLine
 10
-5.123627216224929
 20
45.2065452716506
 30
0.0
 11
-4.929231676318825
 21
45.57982662644604
 31
0.0
  0
LINE
  5
E1
330
1F
100
AcDbEntity
  8
0
100
AcDbLine
 10
-4.929231676318825
 20
45.57982662644604
 30
0.0
 11
-4.657077920450279
 21
45.89987189807582
 31
0.0
  0
LINE
  5
E2
330
1F
100
AcDbEntity
  8
0
100
AcDbLine
 10
-4.657077920450279
 20
45.89987189807582
 30
0.0
 11
-4.307165948619291
 21
46.16668108653993
 31
0.0
  0
LINE
  5
E3
330
1F
100
AcDbEntity
  8
0
100
AcDbLine
 10
-4.307165948619291
 20
46.16668108653993
 30
0.0
 11
-3.879495760825867
 21
46.38025419183839
 31
0.0
  0
LINE
  5
E4
330
1F
100
AcDbEntity
  8
0
100
AcDbLine
 10
-3.879495760825867
 20
46.38025419183839
 30
0.0
 11
-2.790880737351688
 21
46.64769215293832
 31
0.0
  0
LINE
  5
E5
330
1F
100
AcDbEntity
  8
0
100
AcDbLine
 10
-2.790880737351688
 20
46.64769215293832
 30
0.0
 11
-1.087326076050547
 21
46.86902012074516
 31
0.0
  0
LINE
  5
E6
330
1F
100
AcDbEntity
  8
0
100
AcDbLine
 10
-1.087326076050547
 20
46.86902012074516
 30
0.0
 11
-1.162778792348332
 21
47.17418443999399
 31
0.0
  0
LINE
  5
E7
330
1F
100
AcDbEntity
  8
0
100
AcDbLine
 10
-1.162778792348332
 20
47.17418443999399
 30
0.0
 11
-1.389136941241696
 21
47.41898658620459
 31
0.0
  0
LINE
  5
E8
330
1F
100
AcDbEntity
  8
0
100
AcDbLine
 10
-1.389136941241696
 20
47.41898658620459
 30
0.0
 11
-1.742926344326877
 21
47.5799523809732
 31
0.0
  0
LINE
  5
E9
330
1F
100
AcDbEntity
  8
0
100
AcDbLine
 10
-1.742926344326877
 20
47.5799523809732
 30
0.0
 11
-2.200672823200112
 21
47.63360764589607
 31
0.0
  0
LINE
  5
EA
330
1F
100
AcDbEntity
  8
0
100
AcDbLine
 10
-2.200672823200112
 20
47.63360764589607
 30
0.0
 11
-2.785431374507962
 21
47.5925278336895
 31
0.0
  0
LINE
  5
EB
330
1F
100
AcDbEntity
  8
0
100
AcDbLine
 10
-2.785431374507962
 20
47.5925278336895
 30
0.0
 11
-3.386118832589784
 21
47.46928839706978
 31
0.0
  0
LINE
  5
EC
330
1F
100
AcDbEntity
  8
0
100
AcDbLine
 10
-3.386118832589784
 20
47.46928839706978
 30
0.0
 11
-4.635280469075365
 21
46.9763306505909
 31
0.0
  0
LINE
  5
ED
330
1F
100
AcDbEntity
  8
0
100
AcDbLine
 10
-4.635280469075365
 20
46.9763306505909
 30
0.0
 11
-4.635280469075365
 21
48.8341441985453
 31
0.0
  0
LINE
  5
EE
330
1F
100
AcDbEntity
  8
0
100
AcDbLine
 10
-4.635280469075365
 20
48.8341441985453
 30
0.0
 11
-4.008184560289314
 21
49.0537954393233
 31
0.0
  0
LINE
  5
EF
330
1F
100
AcDbEntity
  8
0
100
AcDbLine
 10
-4.008184560289314
 20
49.0537954393233
 30
0.0
 11
-3.24024358108073
 21
49.22985177735147
 31
0.0
  0
LINE
  5
F0
330
1F
100
AcDbEntity
  8
0
100
AcDbLine
 10
-3.24024358108073
 20
49.22985177735147
 30
0.0
 11
-1.804965244393943
 21
49.38411066400472
 31
0.0
  0
LINE
  5
F1
330
1F
100
AcDbEntity
  8
0
100
AcDbLine
 10
-1.804965244393943
 20
49.38411066400472
 30
0.0
 11
-0.9898663174992414
 21
49.33737189807582
 31
0.0
  0
LINE
  5
F2
330
1F
100
AcDbEntity
  8
0
100
AcDbLine
 10
-0.9898663174992414
 20
49.33737189807582
 30
0.0
 11
-0.2950725549237883
 21
49.19715560028909
 31
0.0
  0
LINE
  5
F3
330
1F
100
AcDbEntity
  8
0
100
AcDbLine
 10
-0.2950725549237883
 20
49.19715560028909
 30
0.0
 11
0.279416043332414
 21
48.96346177064456
 31
0.0
  0
LINE
  5
F4
330
1F
100
AcDbEntity
  8
0
100
AcDbLine
 10
0.279416043332414
 20
48.96346177064456
 30
0.0
 11
0.733599477269371
 21
48.63629040914221
 31
0.0
  0
LINE
  5
F5
330
1F
100
AcDbEntity
  8
0
100
AcDbLine
 10
0.733599477269371
 20
48.63629040914221
 30
0.0
 11
1.078376472574538
 21
48.19971260900807
 31
0.0
  0
LINE
  5
F6
330
1F
100
AcDbEntity
  8
0
100
AcDbLine
 10
1.078376472574538
 20
48.19971260900807
 30
0.0
 11
1.324645754935368
 21
47.63779946346817
 31
0.0
  0
LINE
  5
F7
330
1F
100
AcDbEntity
  8
0
100
AcDbLine
 10
1.324645754935368
 20
47.63779946346817
 30
0.0
 11
1.472407324351866
 21
46.95055097252249
 31
0.0
  0
LINE
  5
F8
330
1F
100
AcDbEntity
  8
0
100
AcDbLine
 10
1.472407324351866
 20
46.95055097252249
 30
0.0
 11
1.521661180824032
 21
46.13796713617106
 31
0.0
  0
LINE
  5
F9
330
1F
100
AcDbEntity
  8
0
100
AcDbLine
 10
1.521661180824032
 20
46.13796713617106
 30
0.0
 11
1.521661180824032
 21
42.34856405099332
 31
0.0
  0
LINE
  5
FA
330
1F
100
AcDbEntity
  8
0
100
AcDbLine
 10
1.521661180824032
 20
42.34856405099332
 30
0.0
 11
-1.087326076050547
 21
42.34856405099332
 31
0.0
  0
LINE
  5
FB
330
1F
100
AcDbEntity
  8
0
100
AcDbLine
 10
-2.777466921120971
 20
44.68256807513819
 30
0.0
 11
-2.733033654856718
 21
44.42602883972571
 31
0.0
  0
LINE
  5
FC
330
1F
100
AcDbEntity
  8
0
100
AcDbLine
 10
-2.733033654856718
 20
44.42602883972571
 30
0.0
 11
-2.599733856063963
 21
44.21979141517843
 31
0.0
  0
LINE
  5
FD
330
1F
100
AcDbEntity
  8
0
100
AcDbLine
 10
-2.599733856063963
 20
44.21979141517843
 30
0.0
 11
-2.384274432858063
 21
44.08397652584242
 31
0.0
  0
LINE
  5
FE
330
1F
100
AcDbEntity
  8
0
100
AcDbLine
 10
-2.384274432858063
 20
44.08397652584242
 30
0.0
 11
-2.093362293354372
 21
44.03870489606374
 31
0.0
  0
LINE
  5
FF
330
1F
100
AcDbEntity
  8
0
100
AcDbLine
 10
-2.093362293354372
 20
44.03870489606374
 30
0.0
 11
-1.686755988860744
 21
44.12254124750573
 31
0.0
  0
LINE
  5
100
330
1F
100
AcDbEntity
  8
0
100
AcDbLine
 10
-1.686755988860744
 20
44.12254124750573
 30
0.0
 11
-1.36566276283794
 21
44.37405030183169
 31
0.0
  0
LINE
  5
101
330
1F
100
AcDbEntity
  8
0
100
AcDbLine
 10
-1.36566276283794
 20
44.37405030183169
 30
0.0
 11
-1.156910247747397
 21
44.75634406440714
 31
0.0
  0
LINE
  5
102
330
1F
100
AcDbEntity
  8
0
100
AcDbLine
 10
-1.156910247747397
 20
44.75634406440714
 30
0.0
 11
-1.087326076050547
 21
45.23253454059761
 31
0.0
  0
LINE
  5
103
330
1F
100
AcDbEntity
  8
0
100
AcDbLine
 10
-1.087326076050547
 20
45.23253454059761
 30
0.0
 11
-1.087326076050547
 21
45.49410395709661
 31
0.0
  0
LINE
  5
104
330
1F
100
AcDbEntity
  8
0
100
AcDbLine
 10
-1.087326076050547
 20
45.49410395709661
 30
0.0
 11
-2.05312084466222
 21
45.35996579478942
 31
0.0
  0
LINE
  5
105
330
1F
100
AcDbEntity
  8
0
100
AcDbLine
 10
-2.05312084466222
 20
45.35996579478942
 30
0.0
 11
-2.370022253112922
 21
45.27235680753255
 31
0.0
  0
LINE
  5
106
330
1F
100
AcDbEntity
  8
0
100
AcDbLine
 10
-2.370022253112922
 20
45.27235680753255
 30
0.0
 11
-2.596380402006283
 21
45.13025419183839
 31
0.0
  0
LINE
  5
107
330
1F
100
AcDbEntity
  8
0
100
AcDbLine
 10
-2.596380402006283
 20
45.13025419183839
 30
0.0
 11
-2.7321952913423
 21
44.93365794770693
 31
0.0
  0
LINE
  5
108
330
1F
100
AcDbEntity
  8
0
100
AcDbLine
 10
-2.7321952913423
 20
44.93365794770693
 30
0.0
 11
-2.777466921120971
 21
44.68256807513819
 31
0.0
  0
LINE
  5
109
330
1F
100
AcDbEntity
  8
0
100
AcDbLine
 10
5.834203098999751
 20
51.06754460095979
 30
0.0
 11
5.724377478610752
 21
50.52093158955804
 31
0.0
  0
LINE
  5
10A
330
1F
100
AcDbEntity
  8
0
100
AcDbLine
 10
5.724377478610752
 20
50.52093158955804
 30
0.0
 11
5.394900617443749
 21
50.0883360161174
 31
0.0
  0
LINE
  5
10B
330
1F
100
AcDbEntity
  8
0
100
AcDbLine
 10
5.394900617443749
 20
50.0883360161174
 30
0.0
 11
4.8860139641909
 21
49.80664587527233
 31
0.0
  0
LINE
  5
10C
330
1F
100
AcDbEntity
  8
0
100
AcDbLine
 10
4.8860139641909
 20
49.80664587527233
 30
0.0
 11
4.237958967544351
 21
49.71274916165731
 31
0.0
  0
LINE
  5
10D
330
1F
100
AcDbEntity
  8
0
100
AcDbLine
 10
4.237958967544351
 20
49.71274916165731
 30
0.0
 11
3.603317787128522
 21
49.80999932933
 31
0.0
  0
LINE
  5
10E
330
1F
100
AcDbEntity
  8
0
100
AcDbLine
 10
3.603317787128522
 20
49.80999932933
 30
0.0
 11
3.094431133875673
 21
50.10174983234811
 31
0.0
  0
LINE
  5
10F
330
1F
100
AcDbEntity
  8
0
100
AcDbLine
 10
3.094431133875673
 20
50.10174983234811
 30
0.0
 11
2.759924091622153
 21
50.53769885984644
 31
0.0
  0
LINE
  5
110
330
1F
100
AcDbEntity
  8
0
100
AcDbLine
 10
2.759924091622153
 20
50.53769885984644
 30
0.0
 11
2.648421744204316
 21
51.06754460095979
 31
0.0
  0
LINE
  5
111
330
1F
100
AcDbEntity
  8
0
100
AcDbLine
 10
2.648421744204316
 20
51.06754460095979
 30
0.0
 11
2.756570637564479
 21
51.60158215964523
 31
0.0
  0
LINE
  5
112
330
1F
100
AcDbEntity
  8
0
100
AcDbLine
 10
2.756570637564479
 20
51.60158215964523
 30
0.0
 11
3.081017317644959
 21
52.02327900739841
 31
0.0
  0
LINE
  5
113
330
1F
100
AcDbEntity
  8
0
100
AcDbLine
 10
3.081017317644959
 20
52.02327900739841
 30
0.0
 11
3.586550516840123
 21
52.29742387661371
 31
0.0
  0
LINE
  5
114
330
1F
100
AcDbEntity
  8
0
100
AcDbLine
 10
3.586550516840123
 20
52.29742387661371
 30
0.0
 11
4.237958967544351
 21
52.38880549968547
 31
0.0
  0
LINE
  5
115
330
1F
100
AcDbEntity
  8
0
100
AcDbLine
 10
4.237958967544351
 20
52.38880549968547
 30
0.0
 11
4.8860139641909
 21
52.29742387661371
 31
0.0
  0
LINE
  5
116
330
1F
100
AcDbEntity
  8
0
100
AcDbLine
 10
4.8860139641909
 20
52.29742387661371
 30
0.0
 11
5.394900617443749
 21
52.02327900739841
 31
0.0
  0
LINE
  5
117
330
1F
100
AcDbEntity
  8
0
100
AcDbLine
 10
5.394900617443749
 20
52.02327900739841
 30
0.0
 11
5.724377478610752
 21
51.60158215964523
 31
0.0
  0
LINE
  5
118
330
1F
100
AcDbEntity
  8
0
100
AcDbLine
 10
5.724377478610752
 20
51.60158215964523
 30
0.0
 11
5.834203098999751
 21
51.06754460095979
 31
0.0
  0
LINE
  5
119
330
1F
100
AcDbEntity
  8
0
100
AcDbLine
 10
2.809387538972926
 20
42.34856405099332
 30
0.0
 11
2.809387538972926
 21
49.21643796112075
 31
0.0
  0
LINE
  5
11A
330
1F
100
AcDbEntity
  8
0
100
AcDbLine
 10
2.809387538972926
 20
49.21643796112075
 30
0.0
 11
5.666530396115782
 21
49.21643796112075
 31
0.0
  0
LINE
  5
11B
330
1F
100
AcDbEntity
  8
0
100
AcDbLine
 10
5.666530396115782
 20
49.21643796112075
 30
0.0
 11
5.666530396115782
 21
42.34856405099332
 31
0.0
  0
LINE
  5
11C
330
1F
100
AcDbEntity
  8
0
100
AcDbLine
 10
5.666530396115782
 20
42.34856405099332
 30
0.0
 11
2.809387538972926
 21
42.34856405099332
 31
0.0
  0
LINE
  5
11D
330
1F
100
AcDbEntity
  8
0
100
AcDbLine
 10
14.48611456781263
 20
43.30765191148963
 30
0.0
 11
14.40835635185019
 21
42.3730861837901
 31
0.0
  0
LINE
  5
11E
330
1F
100
AcDbEntity
  8
0
100
AcDbLine
 10
14.40835635185019
 20
42.3730861837901
 30
0.0
 11
14.17508170396287
 21
41.54792689472236
 31
0.0
  0
LINE
  5
11F
330
1F
100
AcDbEntity
  8
0
100
AcDbLine
 10
14.17508170396287
 20
41.54792689472236
 30
0.0
 11
13.78629062415066
 21
40.83217404428641
 31
0.0
  0
LINE
  5
120
330
1F
100
AcDbEntity
  8
0
100
AcDbLine
 10
13.78629062415066
 20
40.83217404428641
 30
0.0
 11
13.24198311241357
 21
40.22582763248225
 31
0.0
  0
LINE
  5
121
330
1F
100
AcDbEntity
  8
0
100
AcDbLine
 10
13.24198311241357
 20
40.22582763248225
 30
0.0
 11
12.54844689510975
 21
39.74313983905502
 31
0.0
  0
LINE
  5
122
330
1F
100
AcDbEntity
  8
0
100
AcDbLine
 10
12.54844689510975
 20
39.74313983905502
 30
0.0
 11
11.71196969859733
 21
39.39836284374986
 31
0.0
  0
LINE
  5
123
330
1F
100
AcDbEntity
  8
0
100
AcDbLine
 10
11.71196969859733
 20
39.39836284374986
 30
0.0
 11
10.73255152287635
 21
39.19149664656675
 31
0.0
  0
LINE
  5
124
330
1F
100
AcDbEntity
  8
0
100
AcDbLine
 10
10.73255152287635
 20
39.19149664656675
 30
0.0
 11
9.61019236794677
 21
39.12254124750573
 31
0.0
  0
LINE
  5
125
330
1F
100
AcDbEntity
  8
0
100
AcDbLine
 10
9.61019236794677
 20
39.12254124750573
 30
0.0
 11
8.362707458490029
 21
39.22314486923611
 31
0.0
  0
LINE
  5
126
330
1F
100
AcDbEntity
  8
0
100
AcDbLine
 10
8.362707458490029
 20
39.22314486923611
 30
0.0
 11
7.497516311608742
 21
39.45117974515831
 31
0.0
  0
LINE
  5
127
330
1F
100
AcDbEntity
  8
0
100
AcDbLine
 10
7.497516311608742
 20
39.45117974515831
 30
0.0
 11
7.497516311608742
 21
41.69128705568816
 31
0.0
  0
LINE
  5
128
330
1F
100
AcDbEntity
  8
0
100
AcDbLine
 10
7.497516311608742
 20
41.69128705568816
 30
0.0
 11
7.963646425626179
 21
41.44983836353524
 31
0.0
  0
LINE
  5
129
330
1F
100
AcDbEntity
  8
0
100
AcDbLine
 10
7.963646425626179
 20
41.44983836353524
 30
0.0
 11
8.503552528912564
 21
41.26204493630519
 31
0.0
  0
LINE
  5
12A
330
1F
100
AcDbEntity
  8
0
100
AcDbLine
 10
8.503552528912564
 20
41.26204493630519
 30
0.0
 11
9.52970947056246
 21
41.10107914153658
 31
0.0
  0
LINE
  5
12B
330
1F
100
AcDbEntity
  8
0
100
AcDbLine
 10
9.52970947056246
 20
41.10107914153658
 30
0.0
 11
10.39322389041491
 21
41.21677330652652
 31
0.0
  0
LINE
  5
12C
330
1F
100
AcDbEntity
  8
0
100
AcDbLine
 10
10.39322389041491
 20
41.21677330652652
 30
0.0
 11
11.06559142897963
 21
41.56385580149634
 31
0.0
  0
LINE
  5
12D
330
1F
100
AcDbEntity
  8
0
100
AcDbLine
 10
11.06559142897963
 20
41.56385580149634
 30
0.0
 11
11.31793884682001
 21
41.81410731055067
 31
0.0
  0
LINE
  5
12E
330
1F
100
AcDbEntity
  8
0
100
AcDbLine
 10
11.31793884682001
 20
41.81410731055067
 30
0.0
 11
11.49818700242028
 21
42.10208517775389
 31
0.0
  0
LINE
  5
12F
330
1F
100
AcDbEntity
  8
0
100
AcDbLine
 10
11.49818700242028
 20
42.10208517775389
 30
0.0
 11
11.60633589578044
 21
42.427789403106
 31
0.0
  0
LINE
  5
130
330
1F
100
AcDbEntity
  8
0
100
AcDbLine
 10
11.60633589578044
 20
42.427789403106
 30
0.0
 11
11.64238552690049
 21
42.791219986607
 31
0.0
  0
LINE
  5
131
330
1F
100
AcDbEntity
  8
0
100
AcDbLine
 10
11.64238552690049
 20
42.791219986607
 30
0.0
 11
11.64238552690049
 21
43.2137551978746
 31
0.0
  0
LINE
  5
132
330
1F
100
AcDbEntity
  8
0
100
AcDbLine
 10
11.64238552690049
 20
43.2137551978746
 30
0.0
 11
11.61555789443906
 21
43.2137551978746
 31
0.0
  0
LINE
  5
133
330
1F
100
AcDbEntity
  8
0
100
AcDbLine
 10
11.61555789443906
 20
43.2137551978746
 30
0.0
 11
11.24919303863758
 21
42.791219986607
 31
0.0
  0
LINE
  5
134
330
1F
100
AcDbEntity
  8
0
100
AcDbLine
 10
11.24919303863758
 20
42.791219986607
 30
0.0
 11
10.76713401784616
 21
42.46258148895442
 31
0.0
  0
LINE
  5
135
330
1F
100
AcDbEntity
  8
0
100
AcDbLine
 10
10.76713401784616
 20
42.46258148895442
 30
0.0
 11
10.20794555372812
 21
42.25131388332062
 31
0.0
  0
LINE
  5
136
330
1F
100
AcDbEntity
  8
0
100
AcDbLine
 10
10.20794555372812
 20
42.25131388332062
 30
0.0
 11
9.61019236794677
 21
42.18089134810935
 31
0.0
  0
LINE
  5
137
330
1F
100
AcDbEntity
  8
0
100
AcDbLine
 10
9.61019236794677
 20
42.18089134810935
 30
0.0
 11
8.981000550374674
 21
42.23852883972572
 31
0.0
  0
LINE
  5
138
330
1F
100
AcDbEntity
  8
0
100
AcDbLine
 10
8.981000550374674
 20
42.23852883972572
 30
0.0
 11
8.421392904499422
 21
42.41144131457481
 31
0.0
  0
LINE
  5
139
330
1F
100
AcDbEntity
  8
0
100
AcDbLine
 10
8.421392904499422
 20
42.41144131457481
 30
0.0
 11
7.931369430321019
 21
42.69962877265663
 31
0.0
  0
LINE
  5
13A
330
1F
100
AcDbEntity
  8
0
100
AcDbLine
 10
7.931369430321019
 20
42.69962877265663
 30
0.0
 11
7.510930127839456
 21
43.10309121397119
 31
0.0
  0
LINE
  5
13B
330
1F
100
AcDbEntity
  8
0
100
AcDbLine
 10
7.510930127839456
 20
43.10309121397119
 30
0.0
 11
7.173488813285466
 21
43.60799564053054
 31
0.0
  0
LINE
  5
13C
330
1F
100
AcDbEntity
  8
0
100
AcDbLine
 10
7.173488813285466
 20
43.60799564053054
 30
0.0
 11
6.93245930288976
 21
44.20050905434677
 31
0.0
  0
LINE
  5
13D
330
1F
100
AcDbEntity
  8
0
100
AcDbLine
 10
6.93245930288976
 20
44.20050905434677
 30
0.0
 11
6.787841596652335
 21
44.88063145541988
 31
0.0
  0
LINE
  5
13E
330
1F
100
AcDbEntity
  8
0
100
AcDbLine
 10
6.787841596652335
 20
44.88063145541988
 30
0.0
 11
6.739635694573195
 21
45.64836284374986
 31
0.0
  0
LINE
  5
13F
330
1F
100
AcDbEntity
  8
0
100
AcDbLine
 10
6.739635694573195
 20
45.64836284374986
 30
0.0
 11
6.840239316303579
 21
46.69631723677468
 31
0.0
  0
LINE
  5
140
330
1F
100
AcDbEntity
  8
0
100
AcDbLine
 10
6.840239316303579
 20
46.69631723677468
 30
0.0
 11
7.142050181494725
 21
47.61348692155
 31
0.0
  0
LINE
  5
141
330
1F
100
AcDbEntity
  8
0
100
AcDbLine
 10
7.142050181494725
 20
47.61348692155
 30
0.0
 11
7.623270838771717
 21
48.36717572101344
 31
0.0
  0
LINE
  5
142
330
1F
100
AcDbEntity
  8
0
100
AcDbLine
 10
7.623270838771717
 20
48.36717572101344
 30
0.0
 11
8.262103836759644
 21
48.92468745810265
 31
0.0
  0
LINE
  5
143
330
1F
100
AcDbEntity
  8
0
100
AcDbLine
 10
8.262103836759644
 20
48.92468745810265
 30
0.0
 11
9.016630999737512
 21
49.2692548625292
 31
0.0
  0
LINE
  5
144
330
1F
100
AcDbEntity
  8
0
100
AcDbLine
 10
9.016630999737512
 20
49.2692548625292
 30
0.0
 11
9.844934151984326
 21
49.38411066400472
 31
0.0
  0
LINE
  5
145
330
1F
100
AcDbEntity
  8
0
100
AcDbLine
 10
9.844934151984326
 20
49.38411066400472
 30
0.0
 11
10.40076916204468
 21
49.32919785381022
 31
0.0
  0
LINE
  5
146
330
1F
100
AcDbEntity
  8
0
100
AcDbLine
 10
10.40076916204468
 20
49.32919785381022
 30
0.0
 11
10.88115145580726
 21
49.16445942322672
 31
0.0
  0
LINE
  5
147
330
1F
100
AcDbEntity
  8
0
100
AcDbLine
 10
10.88115145580726
 20
49.16445942322672
 30
0.0
 11
11.28608103327205
 21
48.88989537225422
 31
0.0
  0
LINE
  5
148
330
1F
100
AcDbEntity
  8
0
100
AcDbLine
 10
11.28608103327205
 20
48.88989537225422
 30
0.0
 11
11.61555789443906
 21
48.50550570089271
 31
0.0
  0
LINE
  5
149
330
1F
100
AcDbEntity
  8
0
100
AcDbLine
 10
11.61555789443906
 20
48.50550570089271
 30
0.0
 11
11.64238552690049
 21
48.50550570089271
 31
0.0
  0
LINE
  5
14A
330
1F
100
AcDbEntity
  8
0
100
AcDbLine
 10
11.64238552690049
 20
48.50550570089271
 30
0.0
 11
11.64238552690049
 21
49.21643796112075
 31
0.0
  0
LINE
  5
14B
330
1F
100
AcDbEntity
  8
0
100
AcDbLine
 10
11.64238552690049
 20
49.21643796112075
 30
0.0
 11
14.48611456781263
 21
49.21643796112075
 31
0.0
  0
LINE
  5
14C
330
1F
100
AcDbEntity
  8
0
100
AcDbLine
 10
14.48611456781263
 20
49.21643796112075
 30
0.0
 11
14.48611456781263
 21
43.30765191148963
 31
0.0
  0
LINE
  5
14D
330
1F
100
AcDbEntity
  8
0
100
AcDbLine
 10
11.68933388370801
 20
45.97700134140243
 30
0.0
 11
11.62142643904
 21
46.51858417171767
 31
0.0
  0
LINE
  5
14E
330
1F
100
AcDbEntity
  8
0
100
AcDbLine
 10
11.62142643904
 20
46.51858417171767
 30
0.0
 11
11.41770410503597
 21
46.93608920189875
 31
0.0
  0
LINE
  5
14F
330
1F
100
AcDbEntity
  8
0
100
AcDbLine
 10
11.41770410503597
 20
46.93608920189875
 30
0.0
 11
11.10164106009968
 21
47.20268879948426
 31
0.0
  0
LINE
  5
150
330
1F
100
AcDbEntity
  8
0
100
AcDbLine
 10
11.10164106009968
 20
47.20268879948426
 30
0.0
 11
10.6967114826349
 21
47.29155533201277
 31
0.0
  0
LINE
  5
151
330
1F
100
AcDbEntity
  8
0
100
AcDbLine
 10
10.6967114826349
 20
47.29155533201277
 30
0.0
 11
10.26243918216542
 21
47.18424480216703
 31
0.0
  0
LINE
  5
152
330
1F
100
AcDbEntity
  8
0
100
AcDbLine
 10
10.26243918216542
 20
47.18424480216703
 30
0.0
 11
9.925417049368635
 21
46.8623132126298
 31
0.0
  0
LINE
  5
153
330
1F
100
AcDbEntity
  8
0
100
AcDbLine
 10
9.925417049368635
 20
46.8623132126298
 30
0.0
 11
9.709119262648311
 21
46.36097183100673
 31
0.0
  0
LINE
  5
154
330
1F
100
AcDbEntity
  8
0
100
AcDbLine
 10
9.709119262648311
 20
46.36097183100673
 30
0.0
 11
9.637020000408203
 21
45.71543192490344
 31
0.0
  0
LINE
  5
155
330
1F
100
AcDbEntity
  8
0
100
AcDbLine
 10
9.637020000408203
 20
45.71543192490344
 30
0.0
 11
9.697382173446435
 21
45.12019382966535
 31
0.0
  0
LINE
  5
156
330
1F
100
AcDbEntity
  8
0
100
AcDbLine
 10
9.697382173446435
 20
45.12019382966535
 30
0.0
 11
9.878468692561123
 21
44.66244735079211
 31
0.0
  0
LINE
  5
157
330
1F
100
AcDbEntity
  8
0
100
AcDbLine
 10
9.878468692561123
 20
44.66244735079211
 30
0.0
 11
10.1903399199253
 21
44.37069684777401
 31
0.0
  0
LINE
  5
158
330
1F
100
AcDbEntity
  8
0
100
AcDbLine
 10
10.1903399199253
 20
44.37069684777401
 30
0.0
 11
10.64305621771203
 21
44.2734466801013
 31
0.0
  0
LINE
  5
159
330
1F
100
AcDbEntity
  8
0
100
AcDbLine
 10
10.64305621771203
 20
44.2734466801013
 30
0.0
 11
11.07984360872477
 21
44.37321193831727
 31
0.0
  0
LINE
  5
15A
330
1F
100
AcDbEntity
  8
0
100
AcDbLine
 10
11.07984360872477
 20
44.37321193831727
 30
0.0
 11
11.41099719692061
 21
44.67250771296515
 31
0.0
  0
LINE
  5
15B
330
1F
100
AcDbEntity
  8
0
100
AcDbLine
 10
11.41099719692061
 20
44.67250771296515
 30
0.0
 11
11.61974971201116
 21
45.13947619049701
 31
0.0
  0
LINE
  5
15C
330
1F
100
AcDbEntity
  8
0
100
AcDbLine
 10
11.61974971201116
 20
45.13947619049701
 30
0.0
 11
11.68933388370801
 21
45.74225955736488
 31
0.0
  0
LINE
  5
15D
330
1F
100
AcDbEntity
  8
0
100
AcDbLine
 10
11.68933388370801
 20
45.74225955736488
 30
0.0
 11
11.68933388370801
 21
45.97700134140243
 31
0.0
  0
LINE
  5
15E
330
1F
100
AcDbEntity
  8
0
100
AcDbLine
 10
20.28759008759801
 20
42.34856405099332
 30
0.0
 11
20.28759008759801
 21
46.26539839036287
 31
0.0
  0
LINE
  5
15F
330
1F
100
AcDbEntity
  8
0
100
AcDbLine
 10
20.28759008759801
 20
46.26539839036287
 30
0.0
 11
20.23854582200445
 21
46.7143420523347
 31
0.0
  0
LINE
  5
160
330
1F
100
AcDbEntity
  8
0
100
AcDbLine
 10
20.23854582200445
 20
46.7143420523347
 30
0.0
 11
20.09141302522377
 21
47.03501609660029
 31
0.0
  0
LINE
  5
161
330
1F
100
AcDbEntity
  8
0
100
AcDbLine
 10
20.09141302522377
 20
47.03501609660029
 30
0.0
 11
19.84619169725596
 21
47.22742052315965
 31
0.0
  0
LINE
  5
162
330
1F
100
AcDbEntity
  8
0
100
AcDbLine
 10
19.84619169725596
 20
47.22742052315965
 30
0.0
 11
19.50288183810103
 21
47.29155533201277
 31
0.0
  0
LINE
  5
163
330
1F
100
AcDbEntity
  8
0
100
AcDbLine
 10
19.50288183810103
 20
47.29155533201277
 30
0.0
 11
19.16585970530424
 21
47.21861770625824
 31
0.0
  0
LINE
  5
164
330
1F
100
AcDbEntity
  8
0
100
AcDbLine
 10
19.16585970530424
 20
47.21861770625824
 30
0.0
 11
18.91938083206481
 21
46.99980482899466
 31
0.0
  0
LINE
  5
165
330
1F
100
AcDbEntity
  8
0
100
AcDbLine
 10
18.91938083206481
 20
46.99980482899466
 30
0.0
 11
18.76847539946924
 21
46.66697451376998
 31
0.0
  0
LINE
  5
166
330
1F
100
AcDbEntity
  8
0
100
AcDbLine
 10
18.76847539946924
 20
46.66697451376998
 30
0.0
 11
18.71817358860405
 21
46.25198457413215
 31
0.0
  0
LINE
  5
167
330
1F
100
AcDbEntity
  8
0
100
AcDbLine
 10
18.71817358860405
 20
46.25198457413215
 30
0.0
 11
18.71817358860405
 21
42.34856405099332
 31
0.0
  0
LINE
  5
168
330
1F
100
AcDbEntity
  8
0
100
AcDbLine
 10
18.71817358860405
 20
42.34856405099332
 30
0.0
 11
15.86103073146119
 21
42.34856405099332
 31
0.0
  0
LINE
  5
169
330
1F
100
AcDbEntity
  8
0
100
AcDbLine
 10
15.86103073146119
 20
42.34856405099332
 30
0.0
 11
15.86103073146119
 21
52.51623675387729
 31
0.0
  0
LINE
  5
16A
330
1F
100
AcDbEntity
  8
0
100
AcDbLine
 10
15.86103073146119
 20
52.51623675387729
 30
0.0
 11
18.71817358860405
 21
52.51623675387729
 31
0.0
  0
LINE
  5
16B
330
1F
100
AcDbEntity
  8
0
100
AcDbLine
 10
18.71817358860405
 20
52.51623675387729
 30
0.0
 11
18.71817358860405
 21
48.28417773308588
 31
0.0
  0
LINE
  5
16C
330
1F
100
AcDbEntity
  8
0
100
AcDbLine
 10
18.71817358860405
 20
48.28417773308588
 30
0.0
 11
18.74500122106548
 21
48.28417773308588
 31
0.0
  0
LINE
  5
16D
330
1F
100
AcDbEntity
  8
0
100
AcDbLine
 10
18.74500122106548
 20
48.28417773308588
 30
0.0
 11
19.15328425258795
 21
48.75282293764657
 31
0.0
  0
LINE
  5
16E
330
1F
100
AcDbEntity
  8
0
100
AcDbLine
 10
19.15328425258795
 20
48.75282293764657
 30
0.0
 11
19.64037345446588
 21
49.09906706910197
 31
0.0
  0
LINE
  5
16F
330
1F
100
AcDbEntity
  8
0
100
AcDbLine
 10
19.64037345446588
 20
49.09906706910197
 30
0.0
 11
20.18614810235321
 21
49.31284976527903
 31
0.0
  0
LINE
  5
170
330
1F
100
AcDbEntity
  8
0
100
AcDbLine
 10
20.18614810235321
 20
49.31284976527903
 30
0.0
 11
20.77048747190385
 21
49.38411066400472
 31
0.0
  0
LINE
  5
171
330
1F
100
AcDbEntity
  8
0
100
AcDbLine
 10
20.77048747190385
 20
49.38411066400472
 30
0.0
 11
21.29404548665904
 21
49.33946780686187
 31
0.0
  0
LINE
  5
172
330
1F
100
AcDbEntity
  8
0
100
AcDbLine
 10
21.29404548665904
 20
49.33946780686187
 30
0.0
 11
21.75137278377507
 21
49.20553923543329
 31
0.0
  0
LINE
  5
173
330
1F
100
AcDbEntity
  8
0
100
AcDbLine
 10
21.75137278377507
 20
49.20553923543329
 30
0.0
 11
22.14246936325192
 21
48.98232494971901
 31
0.0
  0
LINE
  5
174
330
1F
100
AcDbEntity
  8
0
100
AcDbLine
 10
22.14246936325192
 20
48.98232494971901
 30
0.0
 11
22.46733522508962
 21
48.66982494971901
 31
0.0
  0
LINE
  5
175
330
1F
100
AcDbEntity
  8
0
100
AcDbLine
 10
22.46733522508962
 20
48.66982494971901
 30
0.0
 11
22.72261691523047
 21
48.27055432597655
 31
0.0
  0
LINE
  5
176
330
1F
100
AcDbEntity
  8
0
100
AcDbLine
 10
22.72261691523047
 20
48.27055432597655
 30
0.0
 11
22.90496097961679
 21
47.7870281690349
 31
0.0
  0
LINE
  5
177
330
1F
100
AcDbEntity
  8
0
100
AcDbLine
 10
22.90496097961679
 20
47.7870281690349
 30
0.0
 11
23.01436741824858
 21
47.21924647889406
 31
0.0
  0
LINE
  5
178
330
1F
100
AcDbEntity
  8
0
100
AcDbLine
 10
23.01436741824858
 20
47.21924647889406
 30
0.0
 11
23.05083623112584
 21
46.56720925555402
 31
0.0
  0
LINE
  5
179
330
1F
100
AcDbEntity
  8
0
100
AcDbLine
 10
23.05083623112584
 20
46.56720925555402
 30
0.0
 11
23.05083623112584
 21
42.34856405099332
 31
0.0
  0
LINE
  5
17A
330
1F
100
AcDbEntity
  8
0
100
AcDbLine
 10
23.05083623112584
 20
42.34856405099332
 30
0.0
 11
20.28759008759801
 21
42.34856405099332
 31
0.0
  0
LINE
  5
17B
330
1F
100
AcDbEntity
  8
0
100
AcDbLine
 10
29.17424334044845
 20
42.44246076460834
 30
0.0
 11
28.53708706948936
 21
42.26472769955134
 31
0.0
  0
LINE
  5
17C
330
1F
100
AcDbEntity
  8
0
100
AcDbLine
 10
28.53708706948936
 20
42.26472769955134
 30
0.0
 11
27.4706886791473
 21
42.18089134810935
 31
0.0
  0
LINE
  5
17D
330
1F
100
AcDbEntity
  8
0
100
AcDbLine
 10
27.4706886791473
 20
42.18089134810935
 30
0.0
 11
26.90626044306414
 21
42.22197116031592
 31
0.0
  0
LINE
  5
17E
330
1F
100
AcDbEntity
  8
0
100
AcDbLine
 10
26.90626044306414
 20
42.22197116031592
 30
0.0
 11
26.40680537934852
 21
42.34521059693564
 31
0.0
  0
LINE
  5
17F
330
1F
100
AcDbEntity
  8
0
100
AcDbLine
 10
26.40680537934852
 20
42.34521059693564
 30
0.0
 11
25.97232348800042
 21
42.55060965796851
 31
0.0
  0
LINE
  5
180
330
1F
100
AcDbEntity
  8
0
100
AcDbLine
 10
25.97232348800042
 20
42.55060965796851
 30
0.0
 11
25.60281476901987
 21
42.83816834341452
 31
0.0
  0
LINE
  5
181
330
1F
100
AcDbEntity
  8
0
100
AcDbLine
 10
25.60281476901987
 20
42.83816834341452
 30
0.0
 11
25.30792040282269
 21
43.20159892691552
 31
0.0
  0
LINE
  5
182
330
1F
100
AcDbEntity
  8
0
100
AcDbLine
 10
25.30792040282269
 20
43.20159892691552
 30
0.0
 11
25.09728156982471
 21
43.63461368211338
 31
0.0
  0
LINE
  5
183
330
1F
100
AcDbEntity
  8
0
100
AcDbLine
 10
25.09728156982471
 20
43.63461368211338
 30
0.0
 11
24.97089827002591
 21
44.13721260900807
 31
0.0
  0
LINE
  5
184
330
1F
100
AcDbEntity
  8
0
100
AcDbLine
 10
24.97089827002591
 20
44.13721260900807
 30
0.0
 11
24.92877050342631
 21
44.70939570759963
 31
0.0
  0
LINE
  5
185
330
1F
100
AcDbEntity
  8
0
100
AcDbLine
 10
24.92877050342631
 20
44.70939570759963
 30
0.0
 11
24.92877050342631
 21
47.2379000670899
 31
0.0
  0
LINE
  5
186
330
1F
100
AcDbEntity
  8
0
100
AcDbLine
 10
24.92877050342631
 20
47.2379000670899
 30
0.0
 11
23.84895829685354
 21
47.2379000670899
 31
0.0
  0
LINE
  5
187
330
1F
100
AcDbEntity
  8
0
100
AcDbLine
 10
23.84895829685354
 20
47.2379000670899
 30
0.0
 11
23.84895829685354
 21
49.21643796112075
 31
0.0
  0
LINE
  5
188
330
1F
100
AcDbEntity
  8
0
100
AcDbLine
 10
23.84895829685354
 20
49.21643796112075
 30
0.0
 11
24.92877050342631
 21
49.21643796112075
 31
0.0
  0
LINE
  5
189
330
1F
100
AcDbEntity
  8
0
100
AcDbLine
 10
24.92877050342631
 20
49.21643796112075
 30
0.0
 11
24.92877050342631
 21
50.56452649230787
 31
0.0
  0
LINE
  5
18A
330
1F
100
AcDbEntity
  8
0
100
AcDbLine
 10
24.92877050342631
 20
50.56452649230787
 30
0.0
 11
27.74567191187701
 21
51.34252783368949
 31
0.0
  0
LINE
  5
18B
330
1F
100
AcDbEntity
  8
0
100
AcDbLine
 10
27.74567191187701
 20
51.34252783368949
 30
0.0
 11
27.74567191187701
 21
49.21643796112075
 31
0.0
  0
LINE
  5
18C
330
1F
100
AcDbEntity
  8
0
100
AcDbLine
 10
27.74567191187701
 20
49.21643796112075
 30
0.0
 11
29.17424334044845
 21
49.21643796112075
 31
0.0
  0
LINE
  5
18D
330
1F
100
AcDbEntity
  8
0
100
AcDbLine
 10
29.17424334044845
 20
49.21643796112075
 30
0.0
 11
29.17424334044845
 21
47.2379000670899
 31
0.0
  0
LINE
  5
18E
330
1F
100
AcDbEntity
  8
0
100
AcDbLine
 10
29.17424334044845
 20
47.2379000670899
 30
0.0
 11
27.74567191187701
 21
47.2379000670899
 31
0.0
  0
LINE
  5
18F
330
1F
100
AcDbEntity
  8
0
100
AcDbLine
 10
27.74567191187701
 20
47.2379000670899
 30
0.0
 11
27.74567191187701
 21
45.17887927567475
 31
0.0
  0
LINE
  5
190
330
1F
100
AcDbEntity
  8
0
100
AcDbLine
 10
27.74567191187701
 20
45.17887927567475
 30
0.0
 11
27.79052435989848
 21
44.78275251511136
 31
0.0
  0
LINE
  5
191
330
1F
100
AcDbEntity
  8
0
100
AcDbLine
 10
27.79052435989848
 20
44.78275251511136
 30
0.0
 11
27.92508170396287
 21
44.49980482899466
 31
0.0
  0
LINE
  5
192
330
1F
100
AcDbEntity
  8
0
100
AcDbLine
 10
27.92508170396287
 20
44.49980482899466
 30
0.0
 11
28.14934394407017
 21
44.33003621732464
 31
0.0
  0
LINE
  5
193
330
1F
100
AcDbEntity
  8
0
100
AcDbLine
 10
28.14934394407017
 20
44.33003621732464
 30
0.0
 11
28.46331108022041
 21
44.2734466801013
 31
0.0
  0
LINE
  5
194
330
1F
100
AcDbEntity
  8
0
100
AcDbLine
 10
28.46331108022041
 20
44.2734466801013
 30
0.0
 11
29.17424334044845
 21
44.4209986586392
 31
0.0
  0
LINE
  5
195
330
1F
100
AcDbEntity
  8
0
100
AcDbLine
 10
29.17424334044845
 20
44.4209986586392
 30
0.0
 11
29.17424334044845
 21
42.44246076460834
 31
0.0
  0
LINE
  5
196
330
1F
100
AcDbEntity
  8
0
100
AcDbLine
 10
-52.4734551323785
 20
73.98933037651895
 30
0.0
 11
52.4734551323785
 21
73.98933037651895
 31
0.0
  0
LINE
  5
197
330
1F
100
AcDbEntity
  8
0
100
AcDbLine
 10
-52.44875398262589
 20
-1.989330376519076
 30
0.0
 11
-27.73560471505849
 21
-1.989330376519076
 31
0.0
  0
LINE
  5
198
330
1F
100
AcDbEntity
  8
0
100
AcDbLine
 10
27.73672756618925
 20
2.010669623480917
 30
0.0
 11
52.4734551323785
 21
2.010669623480917
 31
0.0
  0
LINE
  5
199
330
1F
100
AcDbEntity
  8
0
100
AcDbLine
 10
-21.73560376866543
 20
-1.989330376519076
 30
0.0
 11
21.73672756618926
 21
-1.989330376519076
 31
0.0
  0
LINE
  5
19A
330
1F
100
AcDbEntity
  8
0
100
AcDbLine
 10
-52.44875398262589
 20
26.01066962348087
 30
0.0
 11
-27.73560471505849
 21
26.01066962348087
 31
0.0
  0
LINE
  5
19B
330
1F
100
AcDbEntity
  8
0
100
AcDbLine
 10
2.999999999999995
 20
28.01066962348087
 30
0.0
 11
46.47345513237852
 21
28.01066962348087
 31
0.0
  0
LINE
  5
19C
330
1F
100
AcDbEntity
  8
0
100
AcDbLine
 10
-52.44875398262589
 20
30.01066962348087
 30
0.0
 11
-27.73560471505849
 21
30.01066962348087
 31
0.0
  0
LINE
  5
19D
330
1F
100
AcDbEntity
  8
0
100
AcDbLine
 10
-21.73560376866543
 20
26.01066962348087
 30
0.0
 11
21.73672756618926
 21
26.01066962348087
 31
0.0
  0
LINE
  5
19E
330
1F
100
AcDbEntity
  8
0
100
AcDbLine
 10
27.73672756618925
 20
26.01066962348087
 30
0.0
 11
52.4734551323785
 21
26.01066962348087
 31
0.0
  0
LINE
  5
19F
330
1F
100
AcDbEntity
  8
0
100
AcDbLine
 10
-21.73560376866543
 20
30.01066962348087
 30
0.0
 11
21.73672756618926
 21
30.01066962348087
 31
0.0
  0
LINE
  5
1A0
330
1F
100
AcDbEntity
  8
0
100
AcDbLine
 10
-46.47345513237852
 20
28.01066962348087
 30
0.0
 11
-2.999999999999995
 21
28.01066962348087
 31
0.0
  0
LINE
  5
1A1
330
1F
100
AcDbEntity
  8
0
100
AcDbLine
 10
2.999999999999995
 20
24.01066962348088
 30
0.0
 11
46.47345513237852
 21
24.01066962348088
 31
0.0
  0
LINE
  5
1A2
330
1F
100
AcDbEntity
  8
0
100
AcDbLine
 10
27.73672756618925
 20
22.01066962348088
 30
0.0
 11
52.4734551323785
 21
22.01066962348088
 31
0.0
  0
LINE
  5
1A3
330
1F
100
AcDbEntity
  8
0
100
AcDbLine
 10
-21.73560376866543
 20
22.01066962348088
 30
0.0
 11
21.73672756618926
 21
22.01066962348088
 31
0.0
  0
LINE
  5
1A4
330
1F
100
AcDbEntity
  8
0
100
AcDbLine
 10
-46.47345513237852
 20
24.01066962348088
 30
0.0
 11
-2.999999999999995
 21
24.01066962348088
 31
0.0
  0
LINE
  5
1A5
330
1F
100
AcDbEntity
  8
0
100
AcDbLine
 10
-52.44875398262589
 20
22.01066962348088
 30
0.0
 11
-27.73560471505849
 21
22.01066962348088
 31
0.0
  0
LINE
  5
1A6
330
1F
100
AcDbEntity
  8
0
100
AcDbLine
 10
27.73672756618925
 20
30.01066962348087
 30
0.0
 11
52.4734551323785
 21
30.01066962348087
 31
0.0
  0
LINE
  5
1A7
330
1F
100
AcDbEntity
  8
0
100
AcDbLine
 10
-21.73560376866543
 20
18.01066962348089
 30
0.0
 11
21.73672756618926
 21
18.01066962348089
 31
0.0
  0
LINE
  5
1A8
330
1F
100
AcDbEntity
  8
0
100
AcDbLine
 10
2.999999999999995
 20
20.01066962348088
 30
0.0
 11
46.47345513237852
 21
20.01066962348088
 31
0.0
  0
LINE
  5
1A9
330
1F
100
AcDbEntity
  8
0
100
AcDbLine
 10
2.999999999999995
 20
32.01066962348087
 30
0.0
 11
46.47345513237852
 21
32.01066962348087
 31
0.0
  0
LINE
  5
1AA
330
1F
100
AcDbEntity
  8
0
100
AcDbLine
 10
-52.44875398262589
 20
18.01066962348089
 30
0.0
 11
-27.73560471505849
 21
18.01066962348089
 31
0.0
  0
LINE
  5
1AB
330
1F
100
AcDbEntity
  8
0
100
AcDbLine
 10
27.73672756618925
 20
18.01066962348089
 30
0.0
 11
52.4734551323785
 21
18.01066962348089
 31
0.0
  0
LINE
  5
1AC
330
1F
100
AcDbEntity
  8
0
100
AcDbLine
 10
-46.47345513237852
 20
20.01066962348088
 30
0.0
 11
-2.999999999999995
 21
20.01066962348088
 31
0.0
  0
LINE
  5
1AD
330
1F
100
AcDbEntity
  8
0
100
AcDbLine
 10
-46.47345513237852
 20
32.01066962348087
 30
0.0
 11
-2.999999999999995
 21
32.01066962348087
 31
0.0
  0
LINE
  5
1AE
330
1F
100
AcDbEntity
  8
0
100
AcDbLine
 10
-52.44875398262589
 20
-69.98933037651895
 30
0.0
 11
-52.44875398262589
 21
-73.98933037651895
 31
0.0
  0
LINE
  5
1AF
330
1F
100
AcDbEntity
  8
0
100
AcDbLine
 10
-46.47345513237852
 20
-7.989330376519065
 30
0.0
 11
-2.999999999999995
 21
-7.989330376519065
 31
0.0
  0
LINE
  5
1B0
330
1F
100
AcDbEntity
  8
0
100
AcDbLine
 10
27.73672756618925
 20
-13.98933037651905
 30
0.0
 11
52.4734551323785
 21
-13.98933037651905
 31
0.0
  0
LINE
  5
1B1
330
1F
100
AcDbEntity
  8
0
100
AcDbLine
 10
-52.44875398262589
 20
-37.98933037651901
 30
0.0
 11
-27.73560471505849
 21
-37.98933037651901
 31
0.0
  0
LINE
  5
1B2
330
1F
100
AcDbEntity
  8
0
100
AcDbLine
 10
27.73672756618925
 20
-33.98933037651901
 30
0.0
 11
52.4734551323785
 21
-33.98933037651901
 31
0.0
  0
LINE
  5
1B3
330
1F
100
AcDbEntity
  8
0
100
AcDbLine
 10
-21.73560376866543
 20
-37.98933037651901
 30
0.0
 11
21.73672756618926
 21
-37.98933037651901
 31
0.0
  0
LINE
  5
1B4
330
1F
100
AcDbEntity
  8
0
100
AcDbLine
 10
-52.44875398262589
 20
-9.98933037651906
 30
0.0
 11
-27.73560471505849
 21
-9.98933037651906
 31
0.0
  0
LINE
  5
1B5
330
1F
100
AcDbEntity
  8
0
100
AcDbLine
 10
-21.73560376866543
 20
-9.98933037651906
 30
0.0
 11
21.73672756618926
 21
-9.98933037651906
 31
0.0
  0
LINE
  5
1B6
330
1F
100
AcDbEntity
  8
0
100
AcDbLine
 10
27.73672756618925
 20
-9.98933037651906
 30
0.0
 11
52.4734551323785
 21
-9.98933037651906
 31
0.0
  0
LINE
  5
1B7
330
1F
100
AcDbEntity
  8
0
100
AcDbLine
 10
2.999999999999995
 20
-11.98933037651906
 30
0.0
 11
46.47345513237852
 21
-11.98933037651906
 31
0.0
  0
LINE
  5
1B8
330
1F
100
AcDbEntity
  8
0
100
AcDbLine
 10
2.999999999999995
 20
-7.989330376519065
 30
0.0
 11
46.47345513237852
 21
-7.989330376519065
 31
0.0
  0
LINE
  5
1B9
330
1F
100
AcDbEntity
  8
0
100
AcDbLine
 10
27.73672756618925
 20
-25.98933037651903
 30
0.0
 11
52.4734551323785
 21
-25.98933037651903
 31
0.0
  0
LINE
  5
1BA
330
1F
100
AcDbEntity
  8
0
100
AcDbLine
 10
-21.73560376866543
 20
-25.98933037651903
 30
0.0
 11
21.73672756618926
 21
-25.98933037651903
 31
0.0
  0
LINE
  5
1BB
330
1F
100
AcDbEntity
  8
0
100
AcDbLine
 10
-46.47345513237852
 20
-15.98933037651905
 30
0.0
 11
-2.999999999999995
 21
-15.98933037651905
 31
0.0
  0
LINE
  5
1BC
330
1F
100
AcDbEntity
  8
0
100
AcDbLine
 10
-52.44875398262589
 20
-17.98933037651905
 30
0.0
 11
-27.73560471505849
 21
-17.98933037651905
 31
0.0
  0
LINE
  5
1BD
330
1F
100
AcDbEntity
  8
0
100
AcDbLine
 10
27.73672756618925
 20
-29.98933037651902
 30
0.0
 11
52.4734551323785
 21
-29.98933037651902
 31
0.0
  0
LINE
  5
1BE
330
1F
100
AcDbEntity
  8
0
100
AcDbLine
 10
-46.47345513237852
 20
-35.98933037651901
 30
0.0
 11
-2.999999999999995
 21
-35.98933037651901
 31
0.0
  0
LINE
  5
1BF
330
1F
100
AcDbEntity
  8
0
100
AcDbLine
 10
-21.73560376866543
 20
-33.98933037651901
 30
0.0
 11
21.73672756618926
 21
-33.98933037651901
 31
0.0
  0
LINE
  5
1C0
330
1F
100
AcDbEntity
  8
0
100
AcDbLine
 10
-21.73560376866543
 20
-21.98933037651904
 30
0.0
 11
21.73672756618926
 21
-21.98933037651904
 31
0.0
  0
LINE
  5
1C1
330
1F
100
AcDbEntity
  8
0
100
AcDbLine
 10
-21.73560376866543
 20
-17.98933037651905
 30
0.0
 11
21.73672756618926
 21
-17.98933037651905
 31
0.0
  0
LINE
  5
1C2
330
1F
100
AcDbEntity
  8
0
100
AcDbLine
 10
-52.44875398262589
 20
-25.98933037651903
 30
0.0
 11
-27.73560471505849
 21
-25.98933037651903
 31
0.0
  0
LINE
  5
1C3
330
1F
100
AcDbEntity
  8
0
100
AcDbLine
 10
2.999999999999995
 20
-35.98933037651901
 30
0.0
 11
46.47345513237852
 21
-35.98933037651901
 31
0.0
  0
LINE
  5
1C4
330
1F
100
AcDbEntity
  8
0
100
AcDbLine
 10
27.73672756618925
 20
-41.989330376519
 30
0.0
 11
52.4734551323785
 21
-41.989330376519
 31
0.0
  0
LINE
  5
1C5
330
1F
100
AcDbEntity
  8
0
100
AcDbLine
 10
-46.47345513237852
 20
-19.98933037651904
 30
0.0
 11
-2.999999999999995
 21
-19.98933037651904
 31
0.0
  0
LINE
  5
1C6
330
1F
100
AcDbEntity
  8
0
100
AcDbLine
 10
-46.47345513237852
 20
-27.98933037651903
 30
0.0
 11
-2.999999999999995
 21
-27.98933037651903
 31
0.0
  0
LINE
  5
1C7
330
1F
100
AcDbEntity
  8
0
100
AcDbLine
 10
-46.47345513237852
 20
-23.98933037651904
 30
0.0
 11
-2.999999999999995
 21
-23.98933037651904
 31
0.0
  0
LINE
  5
1C8
330
1F
100
AcDbEntity
  8
0
100
AcDbLine
 10
2.999999999999995
 20
-27.98933037651903
 30
0.0
 11
46.47345513237852
 21
-27.98933037651903
 31
0.0
  0
LINE
  5
1C9
330
1F
100
AcDbEntity
  8
0
100
AcDbLine
 10
2.999999999999995
 20
-39.98933037651901
 30
0.0
 11
46.47345513237852
 21
-39.98933037651901
 31
0.0
  0
LINE
  5
1CA
330
1F
100
AcDbEntity
  8
0
100
AcDbLine
 10
2.999999999999995
 20
-15.98933037651905
 30
0.0
 11
46.47345513237852
 21
-15.98933037651905
 31
0.0
  0
LINE
  5
1CB
330
1F
100
AcDbEntity
  8
0
100
AcDbLine
 10
-21.73560376866543
 20
-29.98933037651902
 30
0.0
 11
21.73672756618926
 21
-29.98933037651902
 31
0.0
  0
LINE
  5
1CC
330
1F
100
AcDbEntity
  8
0
100
AcDbLine
 10
-52.44875398262589
 20
-29.98933037651902
 30
0.0
 11
-27.73560471505849
 21
-29.98933037651902
 31
0.0
  0
LINE
  5
1CD
330
1F
100
AcDbEntity
  8
0
100
AcDbLine
 10
-52.44875398262589
 20
-21.98933037651904
 30
0.0
 11
-27.73560471505849
 21
-21.98933037651904
 31
0.0
  0
LINE
  5
1CE
330
1F
100
AcDbEntity
  8
0
100
AcDbLine
 10
2.999999999999995
 20
-19.98933037651904
 30
0.0
 11
46.47345513237852
 21
-19.98933037651904
 31
0.0
  0
LINE
  5
1CF
330
1F
100
AcDbEntity
  8
0
100
AcDbLine
 10
27.73672756618925
 20
-21.98933037651904
 30
0.0
 11
52.4734551323785
 21
-21.98933037651904
 31
0.0
  0
LINE
  5
1D0
330
1F
100
AcDbEntity
  8
0
100
AcDbLine
 10
2.999999999999995
 20
-23.98933037651904
 30
0.0
 11
46.47345513237852
 21
-23.98933037651904
 31
0.0
  0
LINE
  5
1D1
330
1F
100
AcDbEntity
  8
0
100
AcDbLine
 10
-46.47345513237852
 20
-11.98933037651906
 30
0.0
 11
-2.999999999999995
 21
-11.98933037651906
 31
0.0
  0
LINE
  5
1D2
330
1F
100
AcDbEntity
  8
0
100
AcDbLine
 10
-21.73560376866543
 20
-13.98933037651905
 30
0.0
 11
21.73672756618926
 21
-13.98933037651905
 31
0.0
  0
LINE
  5
1D3
330
1F
100
AcDbEntity
  8
0
100
AcDbLine
 10
-52.44875398262589
 20
-13.98933037651905
 30
0.0
 11
-27.73560471505849
 21
-13.98933037651905
 31
0.0
  0
LINE
  5
1D4
330
1F
100
AcDbEntity
  8
0
100
AcDbLine
 10
27.73672756618925
 20
-17.98933037651905
 30
0.0
 11
52.4734551323785
 21
-17.98933037651905
 31
0.0
  0
LINE
  5
1D5
330
1F
100
AcDbEntity
  8
0
100
AcDbLine
 10
-21.73560376866543
 20
-53.98933037651898
 30
0.0
 11
21.73672756618926
 21
-53.98933037651898
 31
0.0
  0
LINE
  5
1D6
330
1F
100
AcDbEntity
  8
0
100
AcDbLine
 10
-46.47345513237852
 20
-39.98933037651901
 30
0.0
 11
-2.999999999999995
 21
-39.98933037651901
 31
0.0
  0
LINE
  5
1D7
330
1F
100
AcDbEntity
  8
0
100
AcDbLine
 10
-52.44875398262589
 20
-53.98933037651898
 30
0.0
 11
-27.73560471505849
 21
-53.98933037651898
 31
0.0
  0
LINE
  5
1D8
330
1F
100
AcDbEntity
  8
0
100
AcDbLine
 10
-52.44875398262589
 20
-41.989330376519
 30
0.0
 11
-27.73560471505849
 21
-41.989330376519
 31
0.0
  0
LINE
  5
1D9
330
1F
100
AcDbEntity
  8
0
100
AcDbLine
 10
-46.47345513237852
 20
-71.98933037651895
 30
0.0
 11
-2.999999999999995
 21
-71.98933037651895
 31
0.0
  0
LINE
  5
1DA
330
1F
100
AcDbEntity
  8
0
100
AcDbLine
 10
2.999999999999995
 20
-71.98933037651895
 30
0.0
 11
46.47345513237852
 21
-71.98933037651895
 31
0.0
  0
LINE
  5
1DB
330
1F
100
AcDbEntity
  8
0
100
AcDbLine
 10
-21.73560376866543
 20
-69.98933037651895
 30
0.0
 11
21.73672756618926
 21
-69.98933037651895
 31
0.0
  0
LINE
  5
1DC
330
1F
100
AcDbEntity
  8
0
100
AcDbLine
 10
-21.73560376866543
 20
-45.98933037651899
 30
0.0
 11
21.73672756618926
 21
-45.98933037651899
 31
0.0
  0
LINE
  5
1DD
330
1F
100
AcDbEntity
  8
0
100
AcDbLine
 10
-46.47345513237852
 20
-55.98933037651898
 30
0.0
 11
-2.999999999999995
 21
-55.98933037651898
 31
0.0
  0
LINE
  5
1DE
330
1F
100
AcDbEntity
  8
0
100
AcDbLine
 10
-46.47345513237852
 20
-63.98933037651896
 30
0.0
 11
-2.999999999999995
 21
-63.98933037651896
 31
0.0
  0
LINE
  5
1DF
330
1F
100
AcDbEntity
  8
0
100
AcDbLine
 10
-21.73560376866543
 20
-73.98933037651895
 30
0.0
 11
21.73672756618926
 21
-73.98933037651895
 31
0.0
  0
LINE
  5
1E0
330
1F
100
AcDbEntity
  8
0
100
AcDbLine
 10
-46.47345513237852
 20
-59.98933037651897
 30
0.0
 11
-2.999999999999995
 21
-59.98933037651897
 31
0.0
  0
LINE
  5
1E1
330
1F
100
AcDbEntity
  8
0
100
AcDbLine
 10
-46.47345513237852
 20
-43.989330376519
 30
0.0
 11
-2.999999999999995
 21
-43.989330376519
 31
0.0
  0
LINE
  5
1E2
330
1F
100
AcDbEntity
  8
0
100
AcDbLine
 10
2.999999999999995
 20
-47.98933037651899
 30
0.0
 11
46.47345513237852
 21
-47.98933037651899
 31
0.0
  0
LINE
  5
1E3
330
1F
100
AcDbEntity
  8
0
100
AcDbLine
 10
27.73672756618925
 20
-61.98933037651896
 30
0.0
 11
52.4734551323785
 21
-61.98933037651896
 31
0.0
  0
LINE
  5
1E4
330
1F
100
AcDbEntity
  8
0
100
AcDbLine
 10
27.73672756618925
 20
-69.98933037651895
 30
0.0
 11
52.4734551323785
 21
-69.98933037651895
 31
0.0
  0
LINE
  5
1E5
330
1F
100
AcDbEntity
  8
0
100
AcDbLine
 10
27.73672756618925
 20
-49.98933037651899
 30
0.0
 11
52.4734551323785
 21
-49.98933037651899
 31
0.0
  0
LINE
  5
1E6
330
1F
100
AcDbEntity
  8
0
100
AcDbLine
 10
-52.44875398262589
 20
-73.98933037651895
 30
0.0
 11
-27.73560471505849
 21
-73.98933037651895
 31
0.0
  0
LINE
  5
1E7
330
1F
100
AcDbEntity
  8
0
100
AcDbLine
 10
-21.73560376866543
 20
-61.98933037651896
 30
0.0
 11
21.73672756618926
 21
-61.98933037651896
 31
0.0
  0
LINE
  5
1E8
330
1F
100
AcDbEntity
  8
0
100
AcDbLine
 10
-46.47345513237852
 20
-31.98933037651902
 30
0.0
 11
-2.999999999999995
 21
-31.98933037651902
 31
0.0
  0
LINE
  5
1E9
330
1F
100
AcDbEntity
  8
0
100
AcDbLine
 10
27.73672756618925
 20
-45.98933037651899
 30
0.0
 11
52.4734551323785
 21
-45.98933037651899
 31
0.0
  0
LINE
  5
1EA
330
1F
100
AcDbEntity
  8
0
100
AcDbLine
 10
-46.47345513237852
 20
-51.98933037651899
 30
0.0
 11
-2.999999999999995
 21
-51.98933037651899
 31
0.0
  0
LINE
  5
1EB
330
1F
100
AcDbEntity
  8
0
100
AcDbLine
 10
27.73672756618925
 20
-37.98933037651901
 30
0.0
 11
52.4734551323785
 21
-37.98933037651901
 31
0.0
  0
LINE
  5
1EC
330
1F
100
AcDbEntity
  8
0
100
AcDbLine
 10
27.73672756618925
 20
-65.98933037651896
 30
0.0
 11
52.4734551323785
 21
-65.98933037651896
 31
0.0
  0
LINE
  5
1ED
330
1F
100
AcDbEntity
  8
0
100
AcDbLine
 10
2.999999999999995
 20
-31.98933037651902
 30
0.0
 11
46.47345513237852
 21
-31.98933037651902
 31
0.0
  0
LINE
  5
1EE
330
1F
100
AcDbEntity
  8
0
100
AcDbLine
 10
-21.73560376866543
 20
-57.98933037651897
 30
0.0
 11
21.73672756618926
 21
-57.98933037651897
 31
0.0
  0
LINE
  5
1EF
330
1F
100
AcDbEntity
  8
0
100
AcDbLine
 10
-52.44875398262589
 20
-45.98933037651899
 30
0.0
 11
-27.73560471505849
 21
-45.98933037651899
 31
0.0
  0
LINE
  5
1F0
330
1F
100
AcDbEntity
  8
0
100
AcDbLine
 10
-21.73560376866543
 20
-41.989330376519
 30
0.0
 11
21.73672756618926
 21
-41.989330376519
 31
0.0
  0
LINE
  5
1F1
330
1F
100
AcDbEntity
  8
0
100
AcDbLine
 10
2.999999999999995
 20
-43.989330376519
 30
0.0
 11
46.47345513237852
 21
-43.989330376519
 31
0.0
  0
LINE
  5
1F2
330
1F
100
AcDbEntity
  8
0
100
AcDbLine
 10
-52.44875398262589
 20
-33.98933037651901
 30
0.0
 11
-27.73560471505849
 21
-33.98933037651901
 31
0.0
  0
LINE
  5
1F3
330
1F
100
AcDbEntity
  8
0
100
AcDbLine
 10
-52.44875398262589
 20
-61.98933037651896
 30
0.0
 11
-27.73560471505849
 21
-61.98933037651896
 31
0.0
  0
LINE
  5
1F4
330
1F
100
AcDbEntity
  8
0
100
AcDbLine
 10
-52.44875398262589
 20
18.01066962348089
 30
0.0
 11
-52.44875398262589
 21
14.0106696234809
 31
0.0
  0
LINE
  5
1F5
330
1F
100
AcDbEntity
  8
0
100
AcDbLine
 10
2.999999999999995
 20
-63.98933037651896
 30
0.0
 11
46.47345513237852
 21
-63.98933037651896
 31
0.0
  0
LINE
  5
1F6
330
1F
100
AcDbEntity
  8
0
100
AcDbLine
 10
-21.73560376866543
 20
-49.98933037651899
 30
0.0
 11
21.73672756618926
 21
-49.98933037651899
 31
0.0
  0
LINE
  5
1F7
330
1F
100
AcDbEntity
  8
0
100
AcDbLine
 10
27.73672756618925
 20
-53.98933037651898
 30
0.0
 11
52.4734551323785
 21
-53.98933037651898
 31
0.0
  0
LINE
  5
1F8
330
1F
100
AcDbEntity
  8
0
100
AcDbLine
 10
2.999999999999995
 20
-67.98933037651895
 30
0.0
 11
46.47345513237852
 21
-67.98933037651895
 31
0.0
  0
LINE
  5
1F9
330
1F
100
AcDbEntity
  8
0
100
AcDbLine
 10
-52.44875398262589
 20
26.01066962348087
 30
0.0
 11
-52.44875398262589
 21
22.01066962348088
 31
0.0
  0
LINE
  5
1FA
330
1F
100
AcDbEntity
  8
0
100
AcDbLine
 10
-52.44875398262589
 20
22.01066962348088
 30
0.0
 11
-52.44875398262589
 21
18.01066962348089
 31
0.0
  0
LINE
  5
1FB
330
1F
100
AcDbEntity
  8
0
100
AcDbLine
 10
2.999999999999995
 20
-59.98933037651897
 30
0.0
 11
46.47345513237852
 21
-59.98933037651897
 31
0.0
  0
LINE
  5
1FC
330
1F
100
AcDbEntity
  8
0
100
AcDbLine
 10
-21.73560376866543
 20
-65.98933037651896
 30
0.0
 11
21.73672756618926
 21
-65.98933037651896
 31
0.0
  0
LINE
  5
1FD
330
1F
100
AcDbEntity
  8
0
100
AcDbLine
 10
-52.44875398262589
 20
-65.98933037651896
 30
0.0
 11
-27.73560471505849
 21
-65.98933037651896
 31
0.0
  0
LINE
  5
1FE
330
1F
100
AcDbEntity
  8
0
100
AcDbLine
 10
-52.44875398262589
 20
-57.98933037651897
 30
0.0
 11
-27.73560471505849
 21
-57.98933037651897
 31
0.0
  0
LINE
  5
1FF
330
1F
100
AcDbEntity
  8
0
100
AcDbLine
 10
2.999999999999995
 20
-51.98933037651899
 30
0.0
 11
46.47345513237852
 21
-51.98933037651899
 31
0.0
  0
LINE
  5
200
330
1F
100
AcDbEntity
  8
0
100
AcDbLine
 10
-46.47345513237852
 20
-47.98933037651899
 30
0.0
 11
-2.999999999999995
 21
-47.98933037651899
 31
0.0
  0
LINE
  5
201
330
1F
100
AcDbEntity
  8
0
100
AcDbLine
 10
-52.44875398262589
 20
-49.98933037651899
 30
0.0
 11
-27.73560471505849
 21
-49.98933037651899
 31
0.0
  0
LINE
  5
202
330
1F
100
AcDbEntity
  8
0
100
AcDbLine
 10
-46.47345513237852
 20
-67.98933037651895
 30
0.0
 11
-2.999999999999995
 21
-67.98933037651895
 31
0.0
  0
LINE
  5
203
330
1F
100
AcDbEntity
  8
0
100
AcDbLine
 10
27.73672756618925
 20
-73.98933037651895
 30
0.0
 11
52.4734551323785
 21
-73.98933037651895
 31
0.0
  0
LINE
  5
204
330
1F
100
AcDbEntity
  8
0
100
AcDbLine
 10
-52.44875398262589
 20
-69.98933037651895
 30
0.0
 11
-27.73560471505849
 21
-69.98933037651895
 31
0.0
  0
LINE
  5
205
330
1F
100
AcDbEntity
  8
0
100
AcDbLine
 10
-52.4734551323785
 20
73.98933037651895
 30
0.0
 11
-52.44875398262589
 21
30.01066962348087
 31
0.0
  0
LINE
  5
206
330
1F
100
AcDbEntity
  8
0
100
AcDbLine
 10
2.999999999999995
 20
-55.98933037651898
 30
0.0
 11
46.47345513237852
 21
-55.98933037651898
 31
0.0
  0
LINE
  5
207
330
1F
100
AcDbEntity
  8
0
100
AcDbLine
 10
27.73672756618925
 20
-57.98933037651897
 30
0.0
 11
52.4734551323785
 21
-57.98933037651897
 31
0.0
  0
LINE
  5
208
330
1F
100
AcDbEntity
  8
0
100
AcDbLine
 10
-52.44875398262589
 20
30.01066962348087
 30
0.0
 11
-52.44875398262589
 21
26.01066962348087
 31
0.0
  0
LINE
  5
209
330
1F
100
AcDbEntity
  8
0
100
AcDbLine
 10
-52.44875398262589
 20
-25.98933037651903
 30
0.0
 11
-52.44875398262589
 21
-29.98933037651902
 31
0.0
  0
LINE
  5
20A
330
1F
100
AcDbEntity
  8
0
100
AcDbLine
 10
-52.44875398262589
 20
6.01066962348091
 30
0.0
 11
-52.44875398262589
 21
2.010669623480917
 31
0.0
  0
LINE
  5
20B
330
1F
100
AcDbEntity
  8
0
100
AcDbLine
 10
-52.44875398262589
 20
10.0106696234809
 30
0.0
 11
-52.44875398262589
 21
6.01066962348091
 31
0.0
  0
LINE
  5
20C
330
1F
100
AcDbEntity
  8
0
100
AcDbLine
 10
-52.44875398262589
 20
14.0106696234809
 30
0.0
 11
-52.44875398262589
 21
10.0106696234809
 31
0.0
  0
LINE
  5
20D
330
1F
100
AcDbEntity
  8
0
100
AcDbLine
 10
-52.44875398262589
 20
2.010669623480917
 30
0.0
 11
-52.44875398262589
 21
-1.989330376519076
 31
0.0
  0
LINE
  5
20E
330
1F
100
AcDbEntity
  8
0
100
AcDbLine
 10
-52.44875398262589
 20
-41.989330376519
 30
0.0
 11
-52.44875398262589
 21
-45.98933037651899
 31
0.0
  0
LINE
  5
20F
330
1F
100
AcDbEntity
  8
0
100
AcDbLine
 10
-52.44875398262589
 20
-1.989330376519076
 30
0.0
 11
-52.44875398262589
 21
-5.989330376519068
 31
0.0
  0
LINE
  5
210
330
1F
100
AcDbEntity
  8
0
100
AcDbLine
 10
-52.44875398262589
 20
-37.98933037651901
 30
0.0
 11
-52.44875398262589
 21
-41.989330376519
 31
0.0
  0
LINE
  5
211
330
1F
100
AcDbEntity
  8
0
100
AcDbLine
 10
-52.44875398262589
 20
-9.98933037651906
 30
0.0
 11
-52.44875398262589
 21
-13.98933037651905
 31
0.0
  0
LINE
  5
212
330
1F
100
AcDbEntity
  8
0
100
AcDbLine
 10
-52.44875398262589
 20
-13.98933037651905
 30
0.0
 11
-52.44875398262589
 21
-17.98933037651905
 31
0.0
  0
LINE
  5
213
330
1F
100
AcDbEntity
  8
0
100
AcDbLine
 10
-52.44875398262589
 20
-53.98933037651898
 30
0.0
 11
-52.44875398262589
 21
-57.98933037651897
 31
0.0
  0
LINE
  5
214
330
1F
100
AcDbEntity
  8
0
100
AcDbLine
 10
-52.44875398262589
 20
-45.98933037651899
 30
0.0
 11
-52.44875398262589
 21
-49.98933037651899
 31
0.0
  0
LINE
  5
215
330
1F
100
AcDbEntity
  8
0
100
AcDbLine
 10
-52.44875398262589
 20
-5.989330376519068
 30
0.0
 11
-52.44875398262589
 21
-9.98933037651906
 31
0.0
  0
LINE
  5
216
330
1F
100
AcDbEntity
  8
0
100
AcDbLine
 10
-52.44875398262589
 20
-17.98933037651905
 30
0.0
 11
-52.44875398262589
 21
-21.98933037651904
 31
0.0
  0
LINE
  5
217
330
1F
100
AcDbEntity
  8
0
100
AcDbLine
 10
-52.44875398262589
 20
-21.98933037651904
 30
0.0
 11
-52.44875398262589
 21
-25.98933037651903
 31
0.0
  0
LINE
  5
218
330
1F
100
AcDbEntity
  8
0
100
AcDbLine
 10
-52.44875398262589
 20
-61.98933037651896
 30
0.0
 11
-52.44875398262589
 21
-65.98933037651896
 31
0.0
  0
LINE
  5
219
330
1F
100
AcDbEntity
  8
0
100
AcDbLine
 10
-52.44875398262589
 20
-57.98933037651897
 30
0.0
 11
-52.44875398262589
 21
-61.98933037651896
 31
0.0
  0
LINE
  5
21A
330
1F
100
AcDbEntity
  8
0
100
AcDbLine
 10
-52.44875398262589
 20
-49.98933037651899
 30
0.0
 11
-52.44875398262589
 21
-53.98933037651898
 31
0.0
  0
LINE
  5
21B
330
1F
100
AcDbEntity
  8
0
100
AcDbLine
 10
-52.44875398262589
 20
-29.98933037651902
 30
0.0
 11
-52.44875398262589
 21
-33.98933037651901
 31
0.0
  0
LINE
  5
21C
330
1F
100
AcDbEntity
  8
0
100
AcDbLine
 10
-52.44875398262589
 20
-65.98933037651896
 30
0.0
 11
-52.44875398262589
 21
-69.98933037651895
 31
0.0
  0
LINE
  5
21D
330
1F
100
AcDbEntity
  8
0
100
AcDbLine
 10
-52.44875398262589
 20
-33.98933037651901
 30
0.0
 11
-52.44875398262589
 21
-37.98933037651901
 31
0.0
  0
LINE
  5
21E
330
1F
100
AcDbEntity
  8
0
100
AcDbLine
 10
-46.47345513237852
 20
16.01066962348089
 30
0.0
 11
-2.999999999999995
 21
16.01066962348089
 31
0.0
  0
LINE
  5
21F
330
1F
100
AcDbEntity
  8
0
100
AcDbLine
 10
27.73672756618925
 20
10.0106696234809
 30
0.0
 11
52.4734551323785
 21
10.0106696234809
 31
0.0
  0
LINE
  5
220
330
1F
100
AcDbEntity
  8
0
100
AcDbLine
 10
-21.73560376866543
 20
6.01066962348091
 30
0.0
 11
21.73672756618926
 21
6.01066962348091
 31
0.0
  0
LINE
  5
221
330
1F
100
AcDbEntity
  8
0
100
AcDbLine
 10
2.999999999999995
 20
8.010669623480906
 30
0.0
 11
46.47345513237852
 21
8.010669623480906
 31
0.0
  0
LINE
  5
222
330
1F
100
AcDbEntity
  8
0
100
AcDbLine
 10
27.73672756618925
 20
6.01066962348091
 30
0.0
 11
52.4734551323785
 21
6.01066962348091
 31
0.0
  0
LINE
  5
223
330
1F
100
AcDbEntity
  8
0
100
AcDbLine
 10
-46.47345513237852
 20
8.010669623480906
 30
0.0
 11
-2.999999999999995
 21
8.010669623480906
 31
0.0
  0
LINE
  5
224
330
1F
100
AcDbEntity
  8
0
100
AcDbLine
 10
-52.44875398262589
 20
14.0106696234809
 30
0.0
 11
-27.73560471505849
 21
14.0106696234809
 31
0.0
  0
LINE
  5
225
330
1F
100
AcDbEntity
  8
0
100
AcDbLine
 10
-52.44875398262589
 20
6.01066962348091
 30
0.0
 11
-27.73560471505849
 21
6.01066962348091
 31
0.0
  0
LINE
  5
226
330
1F
100
AcDbEntity
  8
0
100
AcDbLine
 10
-46.47345513237852
 20
12.0106696234809
 30
0.0
 11
-2.999999999999995
 21
12.0106696234809
 31
0.0
  0
LINE
  5
227
330
1F
100
AcDbEntity
  8
0
100
AcDbLine
 10
2.999999999999995
 20
16.01066962348089
 30
0.0
 11
46.47345513237852
 21
16.01066962348089
 31
0.0
  0
LINE
  5
228
330
1F
100
AcDbEntity
  8
0
100
AcDbLine
 10
-21.73560376866543
 20
14.0106696234809
 30
0.0
 11
21.73672756618926
 21
14.0106696234809
 31
0.0
  0
LINE
  5
229
330
1F
100
AcDbEntity
  8
0
100
AcDbLine
 10
2.999999999999995
 20
12.0106696234809
 30
0.0
 11
46.47345513237852
 21
12.0106696234809
 31
0.0
  0
LINE
  5
22A
330
1F
100
AcDbEntity
  8
0
100
AcDbLine
 10
-52.44875398262589
 20
10.0106696234809
 30
0.0
 11
-27.73560471505849
 21
10.0106696234809
 31
0.0
  0
LINE
  5
22B
330
1F
100
AcDbEntity
  8
0
100
AcDbLine
 10
-21.73560376866543
 20
10.0106696234809
 30
0.0
 11
21.73672756618926
 21
10.0106696234809
 31
0.0
  0
LINE
  5
22C
330
1F
100
AcDbEntity
  8
0
100
AcDbLine
 10
27.73672756618925
 20
14.0106696234809
 30
0.0
 11
52.4734551323785
 21
14.0106696234809
 31
0.0
  0
LINE
  5
22D
330
1F
100
AcDbEntity
  8
0
100
AcDbLine
 10
-46.47345513237852
 20
0.0106696234809206
 30
0.0
 11
-2.999999999999995
 21
0.0106696234809206
 31
0.0
  0
LINE
  5
22E
330
1F
100
AcDbEntity
  8
0
100
AcDbLine
 10
-21.73560376866543
 20
2.010669623480917
 30
0.0
 11
21.73672756618926
 21
2.010669623480917
 31
0.0
  0
LINE
  5
22F
330
1F
100
AcDbEntity
  8
0
100
AcDbLine
 10
2.999999999999995
 20
0.0106696234809206
 30
0.0
 11
46.47345513237852
 21
0.0106696234809206
 31
0.0
  0
LINE
  5
230
330
1F
100
AcDbEntity
  8
0
100
AcDbLine
 10
27.73672756618925
 20
-5.989330376519068
 30
0.0
 11
52.4734551323785
 21
-5.989330376519068
 31
0.0
  0
LINE
  5
231
330
1F
100
AcDbEntity
  8
0
100
AcDbLine
 10
2.999999999999995
 20
-3.989330376519072
 30
0.0
 11
46.47345513237852
 21
-3.989330376519072
 31
0.0
  0
LINE
  5
232
330
1F
100
AcDbEntity
  8
0
100
AcDbLine
 10
2.999999999999995
 20
4.010669623480913
 30
0.0
 11
46.47345513237852
 21
4.010669623480913
 31
0.0
  0
LINE
  5
233
330
1F
100
AcDbEntity
  8
0
100
AcDbLine
 10
-46.47345513237852
 20
4.010669623480913
 30
0.0
 11
-2.999999999999995
 21
4.010669623480913
 31
0.0
  0
LINE
  5
234
330
1F
100
AcDbEntity
  8
0
100
AcDbLine
 10
27.73672756618925
 20
-1.989330376519076
 30
0.0
 11
52.4734551323785
 21
-1.989330376519076
 31
0.0
  0
LINE
  5
235
330
1F
100
AcDbEntity
  8
0
100
AcDbLine
 10
-21.73560376866543
 20
-5.989330376519068
 30
0.0
 11
21.73672756618926
 21
-5.989330376519068
 31
0.0
  0
LINE
  5
236
330
1F
100
AcDbEntity
  8
0
100
AcDbLine
 10
-46.47345513237852
 20
-3.989330376519072
 30
0.0
 11
-2.999999999999995
 21
-3.989330376519072
 31
0.0
  0
LINE
  5
237
330
1F
100
AcDbEntity
  8
0
100
AcDbLine
 10
-52.44875398262589
 20
2.010669623480917
 30
0.0
 11
-27.73560471505849
 21
2.010669623480917
 31
0.0
  0
LINE
  5
238
330
1F
100
AcDbEntity
  8
0
100
AcDbLine
 10
-52.44875398262589
 20
-5.989330376519068
 30
0.0
 11
-27.73560471505849
 21
-5.989330376519068
 31
0.0
  0
LINE
  5
239
330
1F
100
AcDbEntity
  8
0
100
AcDbLine
 10
52.4734551323785
 20
6.01066962348091
 30
0.0
 11
52.4734551323785
 21
2.010669623480917
 31
0.0
  0
LINE
  5
23A
330
1F
100
AcDbEntity
  8
0
100
AcDbLine
 10
52.4734551323785
 20
2.010669623480917
 30
0.0
 11
52.4734551323785
 21
-1.989330376519076
 31
0.0
  0
LINE
  5
23B
330
1F
100
AcDbEntity
  8
0
100
AcDbLine
 10
52.4734551323785
 20
-1.989330376519076
 30
0.0
 11
52.4734551323785
 21
-5.989330376519068
 31
0.0
  0
LINE
  5
23C
330
1F
100
AcDbEntity
  8
0
100
AcDbLine
 10
52.4734551323785
 20
14.0106696234809
 30
0.0
 11
52.4734551323785
 21
10.0106696234809
 31
0.0
  0
LINE
  5
23D
330
1F
100
AcDbEntity
  8
0
100
AcDbLine
 10
52.4734551323785
 20
-53.98933037651898
 30
0.0
 11
52.4734551323785
 21
-57.98933037651897
 31
0.0
  0
LINE
  5
23E
330
1F
100
AcDbEntity
  8
0
100
AcDbLine
 10
52.4734551323785
 20
-5.989330376519068
 30
0.0
 11
52.4734551323785
 21
-9.98933037651906
 31
0.0
  0
LINE
  5
23F
330
1F
100
AcDbEntity
  8
0
100
AcDbLine
 10
52.4734551323785
 20
18.01066962348089
 30
0.0
 11
52.4734551323785
 21
14.0106696234809
 31
0.0
  0
LINE
  5
240
330
1F
100
AcDbEntity
  8
0
100
AcDbLine
 10
52.4734551323785
 20
-9.98933037651906
 30
0.0
 11
52.4734551323785
 21
-13.98933037651905
 31
0.0
  0
LINE
  5
241
330
1F
100
AcDbEntity
  8
0
100
AcDbLine
 10
52.4734551323785
 20
10.0106696234809
 30
0.0
 11
52.4734551323785
 21
6.01066962348091
 31
0.0
  0
LINE
  5
242
330
1F
100
AcDbEntity
  8
0
100
AcDbLine
 10
52.4734551323785
 20
-13.98933037651905
 30
0.0
 11
52.4734551323785
 21
-17.98933037651905
 31
0.0
  0
LINE
  5
243
330
1F
100
AcDbEntity
  8
0
100
AcDbLine
 10
52.4734551323785
 20
30.01066962348087
 30
0.0
 11
52.4734551323785
 21
26.01066962348087
 31
0.0
  0
LINE
  5
244
330
1F
100
AcDbEntity
  8
0
100
AcDbLine
 10
52.4734551323785
 20
-69.98933037651895
 30
0.0
 11
52.4734551323785
 21
-73.98933037651895
 31
0.0
  0
LINE
  5
245
330
1F
100
AcDbEntity
  8
0
100
AcDbLine
 10
52.4734551323785
 20
-65.98933037651896
 30
0.0
 11
52.4734551323785
 21
-69.98933037651895
 31
0.0
  0
LINE
  5
246
330
1F
100
AcDbEntity
  8
0
100
AcDbLine
 10
52.4734551323785
 20
22.01066962348088
 30
0.0
 11
52.4734551323785
 21
18.01066962348089
 31
0.0
  0
LINE
  5
247
330
1F
100
AcDbEntity
  8
0
100
AcDbLine
 10
52.4734551323785
 20
26.01066962348087
 30
0.0
 11
52.4734551323785
 21
22.01066962348088
 31
0.0
  0
LINE
  5
248
330
1F
100
AcDbEntity
  8
0
100
AcDbLine
 10
52.4734551323785
 20
-29.98933037651902
 30
0.0
 11
52.4734551323785
 21
-33.98933037651901
 31
0.0
  0
LINE
  5
249
330
1F
100
AcDbEntity
  8
0
100
AcDbLine
 10
52.4734551323785
 20
-57.98933037651897
 30
0.0
 11
52.4734551323785
 21
-61.98933037651896
 31
0.0
  0
LINE
  5
24A
330
1F
100
AcDbEntity
  8
0
100
AcDbLine
 10
21.73672756618926
 20
-73.98933037651895
 30
0.0
 11
27.73672756618925
 21
-73.98933037651895
 31
0.0
  0
LINE
  5
24B
330
1F
100
AcDbEntity
  8
0
100
AcDbLine
 10
52.4734551323785
 20
-49.98933037651899
 30
0.0
 11
52.4734551323785
 21
-53.98933037651898
 31
0.0
  0
LINE
  5
24C
330
1F
100
AcDbEntity
  8
0
100
AcDbLine
 10
52.4734551323785
 20
-45.98933037651899
 30
0.0
 11
52.4734551323785
 21
-49.98933037651899
 31
0.0
  0
LINE
  5
24D
330
1F
100
AcDbEntity
  8
0
100
AcDbLine
 10
52.4734551323785
 20
-25.98933037651903
 30
0.0
 11
52.4734551323785
 21
-29.98933037651902
 31
0.0
  0
LINE
  5
24E
330
1F
100
AcDbEntity
  8
0
100
AcDbLine
 10
52.4734551323785
 20
-21.98933037651904
 30
0.0
 11
52.4734551323785
 21
-25.98933037651903
 31
0.0
  0
LINE
  5
24F
330
1F
100
AcDbEntity
  8
0
100
AcDbLine
 10
52.4734551323785
 20
-17.98933037651905
 30
0.0
 11
52.4734551323785
 21
-21.98933037651904
 31
0.0
  0
LINE
  5
250
330
1F
100
AcDbEntity
  8
0
100
AcDbLine
 10
52.4734551323785
 20
-33.98933037651901
 30
0.0
 11
52.4734551323785
 21
-37.98933037651901
 31
0.0
  0
LINE
  5
251
330
1F
100
AcDbEntity
  8
0
100
AcDbLine
 10
52.4734551323785
 20
-61.98933037651896
 30
0.0
 11
52.4734551323785
 21
-65.98933037651896
 31
0.0
  0
LINE
  5
252
330
1F
100
AcDbEntity
  8
0
100
AcDbLine
 10
52.4734551323785
 20
73.98933037651895
 30
0.0
 11
52.4734551323785
 21
30.01066962348087
 31
0.0
  0
LINE
  5
253
330
1F
100
AcDbEntity
  8
0
100
AcDbLine
 10
52.4734551323785
 20
-41.989330376519
 30
0.0
 11
52.4734551323785
 21
-45.98933037651899
 31
0.0
  0
LINE
  5
254
330
1F
100
AcDbEntity
  8
0
100
AcDbLine
 10
52.4734551323785
 20
-37.98933037651901
 30
0.0
 11
52.4734551323785
 21
-41.989330376519
 31
0.0
  0
LINE
  5
255
330
1F
100
AcDbEntity
  8
0
100
AcDbLine
 10
-27.73560471505849
 20
-73.98933037651895
 30
0.0
 11
-21.73560376866543
 21
-73.98933037651895
 31
0.0
  0
LINE
  5
256
330
1F
100
AcDbEntity
  8
0
100
AcDbLine
 10
-43.56865710047079
 20
45.67356893384287
 30
0.0
 11
-33.13529758010566
 21
45.67356893384287
 31
0.0
  0
LINE
  5
257
330
1F
100
AcDbEntity
  8
0
100
AcDbLine
 10
-43.56865710047079
 20
49.67356893384287
 30
0.0
 11
-33.13529758010566
 21
49.67356893384287
 31
0.0
  0
LINE
  5
258
330
1F
100
AcDbEntity
  8
0
100
AcDbLine
 10
-49.50574142776188
 20
47.67356893384287
 30
0.0
 11
-39.07211219599117
 21
47.67356893384287
 31
0.0
  0
LINE
  5
259
330
1F
100
AcDbEntity
  8
0
100
AcDbLine
 10
-37.63211219599116
 20
47.67356893384287
 30
0.0
 11
-27.19848296422023
 21
47.67356893384287
 31
0.0
  0
LINE
  5
25A
330
1F
100
AcDbEntity
  8
0
100
AcDbLine
 10
-45.89817297327952
 20
68.91040536251609
 30
0.0
 11
-46.26726110975888
 21
68.69945216631261
 31
0.0
  0
LINE
  5
25B
330
1F
100
AcDbEntity
  8
0
100
AcDbLine
 10
-45.09359705153097
 20
69.1796162571431
 30
0.0
 11
-45.50470751953595
 21
69.07137815583418
 31
0.0
  0
LINE
  5
25C
330
1F
100
AcDbEntity
  8
0
100
AcDbLine
 10
-42.02065747399939
 20
68.12153197276868
 30
0.0
 11
-42.31994965339283
 21
68.42344503116826
 31
0.0
  0
LINE
  5
25D
330
1F
100
AcDbEntity
  8
0
100
AcDbLine
 10
-44.24675948282515
 20
69.23141444120226
 30
0.0
 11
-44.67187578335347
 21
69.23326768252018
 31
0.0
  0
LINE
  5
25E
330
1F
100
AcDbEntity
  8
0
100
AcDbLine
 10
-46.26726110975888
 20
68.69945216631261
 30
0.0
 11
-46.60565672862826
 21
68.44212803489803
 31
0.0
  0
LINE
  5
25F
330
1F
100
AcDbEntity
  8
0
100
AcDbLine
 10
-47.54639470991009
 20
67.04741466089337
 30
0.0
 11
-47.65821299852169
 21
66.63726350118486
 31
0.0
  0
LINE
  5
260
330
1F
100
AcDbEntity
  8
0
100
AcDbLine
 10
-44.67187578335347
 20
69.23326768252018
 30
0.0
 11
-45.09359705153097
 21
69.1796162571431
 31
0.0
  0
LINE
  5
261
330
1F
100
AcDbEntity
  8
0
100
AcDbLine
 10
-47.16783446882231
 20
67.80669660030124
 30
0.0
 11
-47.38199757314711
 21
67.43946170513983
 31
0.0
  0
LINE
  5
262
330
1F
100
AcDbEntity
  8
0
100
AcDbLine
 10
-45.50470751953595
 20
69.07137815583418
 30
0.0
 11
-45.89817297327952
 21
68.91040536251609
 31
0.0
  0
LINE
  5
263
330
1F
100
AcDbEntity
  8
0
100
AcDbLine
 10
-41.28316925175435
 20
66.60947229567137
 30
0.0
 11
-41.39140735306327
 21
67.02058276367639
 31
0.0
  0
LINE
  5
264
330
1F
100
AcDbEntity
  8
0
100
AcDbLine
 10
-41.76333334258484
 20
67.78313635389928
 30
0.0
 11
-42.02065747399939
 21
68.12153197276868
 31
0.0
  0
LINE
  5
265
330
1F
100
AcDbEntity
  8
0
100
AcDbLine
 10
-41.55238014638136
 20
67.41404821741993
 30
0.0
 11
-41.76333334258484
 21
67.78313635389928
 31
0.0
  0
LINE
  5
266
330
1F
100
AcDbEntity
  8
0
100
AcDbLine
 10
-46.90756978702782
 20
68.1428358555046
 30
0.0
 11
-47.16783446882231
 21
67.80669660030124
 31
0.0
  0
LINE
  5
267
330
1F
100
AcDbEntity
  8
0
100
AcDbLine
 10
-46.60565672862826
 20
68.44212803489803
 30
0.0
 11
-46.90756978702782
 21
68.1428358555046
 31
0.0
  0
LINE
  5
268
330
1F
100
AcDbEntity
  8
0
100
AcDbLine
 10
-47.39453011837568
 20
64.56461253561794
 30
0.0
 11
-47.1835769221722
 21
64.19552439913859
 31
0.0
  0
LINE
  5
269
330
1F
100
AcDbEntity
  8
0
100
AcDbLine
 10
-43.82552200771262
 20
69.17408824266211
 30
0.0
 11
-44.24675948282515
 21
69.23141444120226
 31
0.0
  0
LINE
  5
26A
330
1F
100
AcDbEntity
  8
0
100
AcDbLine
 10
-42.31994965339283
 20
68.42344503116826
 30
0.0
 11
-42.65608890859622
 21
68.68370971296272
 31
0.0
  0
LINE
  5
26B
330
1F
100
AcDbEntity
  8
0
100
AcDbLine
 10
-43.41537084800409
 20
69.0622699540505
 30
0.0
 11
-43.82552200771262
 21
69.17408824266211
 31
0.0
  0
LINE
  5
26C
330
1F
100
AcDbEntity
  8
0
100
AcDbLine
 10
-44.27503448140361
 20
62.7453930705177
 30
0.0
 11
-43.85331321322607
 21
62.79904449589477
 31
0.0
  0
LINE
  5
26D
330
1F
100
AcDbEntity
  8
0
100
AcDbLine
 10
-42.65608890859622
 20
68.68370971296272
 30
0.0
 11
-43.0233238037576
 21
68.89787281728755
 31
0.0
  0
LINE
  5
26E
330
1F
100
AcDbEntity
  8
0
100
AcDbLine
 10
-47.38199757314711
 20
67.43946170513983
 30
0.0
 11
-47.54639470991009
 21
67.04741466089337
 31
0.0
  0
LINE
  5
26F
330
1F
100
AcDbEntity
  8
0
100
AcDbLine
 10
-41.23137106769517
 20
65.76263472696554
 30
0.0
 11
-41.22951782637728
 21
66.18775102749385
 31
0.0
  0
LINE
  5
270
330
1F
100
AcDbEntity
  8
0
100
AcDbLine
 10
-44.70015078193189
 20
62.74724631183561
 30
0.0
 11
-44.27503448140361
 21
62.7453930705177
 31
0.0
  0
LINE
  5
271
330
1F
100
AcDbEntity
  8
0
100
AcDbLine
 10
-42.03934047772922
 20
63.83582489753322
 30
0.0
 11
-41.77907579593473
 21
64.1719641527366
 31
0.0
  0
LINE
  5
272
330
1F
100
AcDbEntity
  8
0
100
AcDbLine
 10
-45.92358646099944
 20
63.08078793575032
 30
0.0
 11
-45.53153941675294
 21
62.91639079898736
 31
0.0
  0
LINE
  5
273
330
1F
100
AcDbEntity
  8
0
100
AcDbLine
 10
-41.39140735306327
 20
67.02058276367639
 30
0.0
 11
-41.55238014638136
 21
67.41404821741993
 31
0.0
  0
LINE
  5
274
330
1F
100
AcDbEntity
  8
0
100
AcDbLine
 10
-47.1835769221722
 20
64.19552439913859
 30
0.0
 11
-46.92625279075764
 21
63.85712878026919
 31
0.0
  0
LINE
  5
275
330
1F
100
AcDbEntity
  8
0
100
AcDbLine
 10
-43.0233238037576
 20
68.89787281728755
 30
0.0
 11
-43.41537084800409
 21
69.0622699540505
 31
0.0
  0
LINE
  5
276
330
1F
100
AcDbEntity
  8
0
100
AcDbLine
 10
-45.12138825704442
 20
62.80457251037579
 30
0.0
 11
-44.70015078193189
 21
62.74724631183561
 31
0.0
  0
LINE
  5
277
330
1F
100
AcDbEntity
  8
0
100
AcDbLine
 10
-47.71553919706187
 20
66.21602602607231
 30
0.0
 11
-47.71739243837976
 21
65.79090972554403
 31
0.0
  0
LINE
  5
278
330
1F
100
AcDbEntity
  8
0
100
AcDbLine
 10
-42.34125353612878
 20
63.53653271813983
 30
0.0
 11
-42.03934047772922
 21
63.83582489753322
 31
0.0
  0
LINE
  5
279
330
1F
100
AcDbEntity
  8
0
100
AcDbLine
 10
-41.77907579593473
 20
64.1719641527366
 30
0.0
 11
-41.56491269160993
 21
64.53919904789804
 31
0.0
  0
LINE
  5
27A
330
1F
100
AcDbEntity
  8
0
100
AcDbLine
 10
-47.66374101300269
 20
65.36918845736649
 30
0.0
 11
-47.55550291169376
 21
64.95807798936148
 31
0.0
  0
LINE
  5
27B
330
1F
100
AcDbEntity
  8
0
100
AcDbLine
 10
-41.56491269160993
 20
64.53919904789804
 30
0.0
 11
-41.40051555484695
 21
64.9312460921445
 31
0.0
  0
LINE
  5
27C
330
1F
100
AcDbEntity
  8
0
100
AcDbLine
 10
-46.62696061136421
 20
63.55521572186961
 30
0.0
 11
-46.29082135616082
 21
63.29495104007515
 31
0.0
  0
LINE
  5
27D
330
1F
100
AcDbEntity
  8
0
100
AcDbLine
 10
-46.92625279075764
 20
63.85712878026919
 30
0.0
 11
-46.62696061136421
 21
63.55521572186961
 31
0.0
  0
LINE
  5
27E
330
1F
100
AcDbEntity
  8
0
100
AcDbLine
 10
-41.22951782637728
 20
66.18775102749385
 30
0.0
 11
-41.28316925175435
 21
66.60947229567137
 31
0.0
  0
LINE
  5
27F
330
1F
100
AcDbEntity
  8
0
100
AcDbLine
 10
-41.40051555484695
 20
64.9312460921445
 30
0.0
 11
-41.2886972662354
 21
65.34139725185301
 31
0.0
  0
LINE
  5
280
330
1F
100
AcDbEntity
  8
0
100
AcDbLine
 10
-42.6796491549982
 20
63.27920858672523
 30
0.0
 11
-42.34125353612878
 21
63.53653271813983
 31
0.0
  0
LINE
  5
281
330
1F
100
AcDbEntity
  8
0
100
AcDbLine
 10
-47.65821299852169
 20
66.63726350118486
 30
0.0
 11
-47.71553919706187
 21
66.21602602607231
 31
0.0
  0
LINE
  5
282
330
1F
100
AcDbEntity
  8
0
100
AcDbLine
 10
-43.85331321322607
 20
62.79904449589477
 30
0.0
 11
-43.44220274522109
 21
62.90728259720369
 31
0.0
  0
LINE
  5
283
330
1F
100
AcDbEntity
  8
0
100
AcDbLine
 10
-41.2886972662354
 20
65.34139725185301
 30
0.0
 11
-41.23137106769517
 21
65.76263472696554
 31
0.0
  0
LINE
  5
284
330
1F
100
AcDbEntity
  8
0
100
AcDbLine
 10
-43.04873729147752
 20
63.06825539052178
 30
0.0
 11
-42.6796491549982
 21
63.27920858672523
 31
0.0
  0
LINE
  5
285
330
1F
100
AcDbEntity
  8
0
100
AcDbLine
 10
-47.55550291169376
 20
64.95807798936148
 30
0.0
 11
-47.39453011837568
 21
64.56461253561794
 31
0.0
  0
LINE
  5
286
330
1F
100
AcDbEntity
  8
0
100
AcDbLine
 10
-43.44220274522109
 20
62.90728259720369
 30
0.0
 11
-43.04873729147752
 21
63.06825539052178
 31
0.0
  0
LINE
  5
287
330
1F
100
AcDbEntity
  8
0
100
AcDbLine
 10
-47.71739243837976
 20
65.79090972554403
 30
0.0
 11
-47.66374101300269
 21
65.36918845736649
 31
0.0
  0
LINE
  5
288
330
1F
100
AcDbEntity
  8
0
100
AcDbLine
 10
-46.29082135616082
 20
63.29495104007515
 30
0.0
 11
-45.92358646099944
 21
63.08078793575032
 31
0.0
  0
LINE
  5
289
330
1F
100
AcDbEntity
  8
0
100
AcDbLine
 10
-45.53153941675294
 20
62.91639079898736
 30
0.0
 11
-45.12138825704442
 21
62.80457251037579
 31
0.0
  0
ENDSEC
  0
SECTION
  2
OBJECTS
  0
DICTIONARY
  5
C
330
0
100
AcDbDictionary
  3
ACAD_GROUP
350
D
  3
ACAD_LAYOUT
350
1A
  3
ACAD_MATERIAL
350
43
  3
ACAD_MLEADERSTYLE
350
2AC
  3
ACAD_MLINESTYLE
350
17
  3
ACAD_PLOTSETTINGS
350
19
  3
ACAD_SCALELIST
350
47
  3
ACAD_VISUALSTYLE
350
2A
  3
ACDBHEADERROUNDTRIPXREC
350
28A
  3
ACDBVARIABLEDICTIONARY
350
2AA
  0
DICTIONARY
  5
2B1
330
8
100
AcDbDictionary
280
     1
  3
ACAD_XREC_ROUNDTRIP
360
2B2
  0
DICTIONARY
  5
D
102
{ACAD_REACTORS
330
C
102
}
330
C
100
AcDbDictionary
  0
DICTIONARY
  5
1A
102
{ACAD_REACTORS
330
C
102
}
330
C
100
AcDbDictionary
  0
DICTIONARY
  5
43
102
{ACAD_REACTORS
330
C
102
}
330
C
100
AcDbDictionary
  3
BYBLOCK
350
45
  3
BYLAYER
350
44
  3
GLOBAL
350
46
  0
DICTIONARY
  5
2AC
102
{ACAD_REACTORS
330
C
102
}
330
C
100
AcDbDictionary
  0
DICTIONARY
  5
17
102
{ACAD_REACTORS
330
C
102
}
330
C
100
AcDbDictionary
  3
STANDARD
350
18
  0
DICTIONARY
  5
19
102
{ACAD_REACTORS
330
C
102
}
330
C
100
AcDbDictionary
  0
DICTIONARY
  5
47
102
{ACAD_REACTORS
330
C
102
}
330
C
100
AcDbDictionary
  3
A0
350
48
  3
A1
350
49
  3
A2
350
4A
  3
A3
350
4B
  3
A4
350
4C
  3
A5
350
4D
  3
A6
350
4E
  3
A7
350
4F
  3
A8
350
50
  3
A9
350
51
  3
B0
350
52
  3
B1
350
53
  3
B2
350
54
  3
B3
350
55
  3
B4
350
56
  3
B5
350
57
  3
B6
350
58
  3
B7
350
59
  3
B8
350
5A
  3
B9
350
5B
  3
C0
350
5C
  3
C1
350
5D
  3
C2
350
5E
  3
C3
350
5F
  3
C4
350
60
  3
C5
350
61
  3
C6
350
62
  3
C7
350
63
  3
C8
350
64
  3
C9
350
65
  3
D0
350
66
  3
D1
350
67
  3
D2
350
68
  0
DICTIONARY
  5
2A
102
{ACAD_REACTORS
330
C
102
}
330
C
100
AcDbDictionary
  3
2DWIREFRAME
350
2F
  3
BASIC
350
32
  3
BRIGHTEN
350
36
  3
COLORCHANGE
350
3A
  3
CONCEPTUAL
350
34
  3
DIM
350
35
  3
EDGECOLOROFF
350
3D
  3
FACEPATTERN
350
39
  3
FLAT
350
2B
  3
FLATWITHEDGES
350
2C
  3
GOURAUD
350
2D
  3
GOURAUDWITHEDGES
350
2E
  3
HIDDEN
350
31
  3
JITTEROFF
350
3B
  3
LINEPATTERN
350
38
  3
OVERHANGOFF
350
3C
  3
REALISTIC
350
33
  3
SHADED
350
42
  3
SHADED_WITH_EDGES
350
41
  3
SHADES_OF_GRAY
350
3E
  3
SKETCHY
350
3F
  3
THICKEN
350
37
  3
WIREFRAME
350
30
  3
X-RAY
350
40
  0
DICTIONARY
  5
28A
102
{ACAD_REACTORS
330
C
102
}
330
C
100
AcDbDictionary
  3
CEPSNTYPE
350
293
  3
DIMSTYLEDATA
350
2A9
  3
FINGERPRINTGUID
350
294
  3
HYPERLINKBASE
350
28D
  3
INSUNITS
350
292
  3
LAYOUTDICT
350
28F
  3
LWETCUNION
350
291
  3
PLOTSETDICT
350
290
  3
PSVPSCALE
350
296
  3
PUCSBASE
350
299
  3
PUCSORGBACK
350
29F
  3
PUCSORGBOTTOM
350
29B
  3
PUCSORGFRONT
350
29E
  3
PUCSORGLEFT
350
29C
  3
PUCSORGRIGHT
350
29D
  3
PUCSORGTOP
350
29A
  3
PUCSORTHOREF
350
297
  3
PUCSORTHOVIEW
350
298
  3
STYLESHEET
350
28E
  3
TSTACKALIGN
350
28B
  3
TSTACKSIZE
350
28C
  3
UCSBASE
350
2A2
  3
UCSORGBACK
350
2A8
  3
UCSORGBOTTOM
350
2A4
  3
UCSORGFRONT
350
2A7
  3
UCSORGLEFT
350
2A5
  3
UCSORGRIGHT
350
2A6
  3
UCSORGTOP
350
2A3
  3
UCSORTHOREF
350
2A0
  3
UCSORTHOVIEW
350
2A1
  3
VERSIONGUID
350
295
  0
DICTIONARY
  5
2AA
102
{ACAD_REACTORS
330
C
102
}
330
C
100
AcDbDictionary
  3
CANNOSCALE
350
2B3
  3
DIMASSOC
350
2AF
  3
HIDETEXT
350
2B0
  3
MSLTSCALE
350
2B4
  0
XRECORD
  5
2B2
102
{ACAD_REACTORS
330
2B1
102
}
330
2B1
100
AcDbXrecord
102
VTR_0.000_0.000_1.000_1.000_GRIDDISPLAY
 70
     3
102
VTR_0.000_0.000_1.000_1.000_GRIDMAJOR
 70
     5
102
VTR_0.000_0.000_1.000_1.000_DEFAULTLIGHTING
280
     1
102
VTR_0.000_0.000_1.000_1.000_DEFAULTLIGHTINGTYPE
 70
     1
102
VTR_0.000_0.000_1.000_1.000_BRIGHTNESS
141
0.0
102
VTR_0.000_0.000_1.000_1.000_CONTRAST
142
0.0
  0
MATERIAL
  5
45
102
{ACAD_REACTORS
330
43
102
}
102
{ACAD_XDICTIONARY
360
2B7
102
}
330
43
100
AcDbMaterial
  1
BYBLOCK
  0
MATERIAL
  5
44
102
{ACAD_REACTORS
330
43
102
}
102
{ACAD_XDICTIONARY
360
2B5
102
}
330
43
100
AcDbMaterial
  1
BYLAYER
  0
MATERIAL
  5
46
102
{ACAD_REACTORS
330
43
102
}
102
{ACAD_XDICTIONARY
360
2B9
102
}
330
43
100
AcDbMaterial
  1
GLOBAL
  0
MLINESTYLE
  5
18
102
{ACAD_REACTORS
330
17
102
}
330
17
100
AcDbMlineStyle
  2
Standard
 70
     0
  3

 62
   256
 51
90.0
 52
90.0
 71
     2
 49
0.5
 62
   256
  6
BYLAYER
 49
-0.5
 62
   256
  6
BYLAYER
  0
ACAD_PROXY_OBJECT
  5
48
102
{ACAD_REACTORS
330
47
102
}
330
47
100
AcDbProxyObject
 90
      499
 91
      503
 93
       41
310
903313A31580
  0
ACAD_PROXY_OBJECT
  5
49
102
{ACAD_REACTORS
330
47
102
}
330
47
100
AcDbProxyObject
 90
      499
 91
      503
 93
      105
310
903313A324000000000000004000
  0
ACAD_PROXY_OBJECT
  5
4A
102
{ACAD_REACTORS
330
47
102
}
330
47
100
AcDbProxyObject
 90
      499
 91
      503
 93
      105
310
903313A344000000000000104000
  0
ACAD_PROXY_OBJECT
  5
4B
102
{ACAD_REACTORS
330
47
102
}
330
47
100
AcDbProxyObject
 90
      499
 91
      503
 93
      105
310
903313A354000000000000144000
  0
ACAD_PROXY_OBJECT
  5
4C
102
{ACAD_REACTORS
330
47
102
}
330
47
100
AcDbProxyObject
 90
      499
 91
      503
 93
      105
310
903313A384000000000000204000
  0
ACAD_PROXY_OBJECT
  5
4D
102
{ACAD_REACTORS
330
47
102
}
330
47
100
AcDbProxyObject
 90
      499
 91
      503
 93
      113
310
904313A31304000000000000244000
  0
ACAD_PROXY_OBJECT
  5
4E
102
{ACAD_REACTORS
330
47
102
}
330
47
100
AcDbProxyObject
 90
      499
 91
      503
 93
      113
310
904313A31364000000000000304000
  0
ACAD_PROXY_OBJECT
  5
4F
102
{ACAD_REACTORS
330
47
102
}
330
47
100
AcDbProxyObject
 90
      499
 91
      503
 93
      113
310
904313A32304000000000000344000
  0
ACAD_PROXY_OBJECT
  5
50
102
{ACAD_REACTORS
330
47
102
}
330
47
100
AcDbProxyObject
 90
      499
 91
      503
 93
      113
310
904313A333040000000000003E4000
  0
ACAD_PROXY_OBJECT
  5
51
102
{ACAD_REACTORS
330
47
102
}
330
47
100
AcDbProxyObject
 90
      499
 91
      503
 93
      113
310
904313A34304000000000000444000
  0
ACAD_PROXY_OBJECT
  5
52
102
{ACAD_REACTORS
330
47
102
}
330
47
100
AcDbProxyObject
 90
      499
 91
      503
 93
      113
310
904313A35304000000000000494000
  0
ACAD_PROXY_OBJECT
  5
53
102
{ACAD_REACTORS
330
47
102
}
330
47
100
AcDbProxyObject
 90
      499
 91
      503
 93
      121
310
905313A3130304000000000000594000
  0
ACAD_PROXY_OBJECT
  5
54
102
{ACAD_REACTORS
330
47
102
}
330
47
100
AcDbProxyObject
 90
      499
 91
      503
 93
      105
310
903323A310000000000000010100
  0
ACAD_PROXY_OBJECT
  5
55
102
{ACAD_REACTORS
330
47
102
}
330
47
100
AcDbProxyObject
 90
      499
 91
      503
 93
      105
310
903343A310000000000000410100
  0
ACAD_PROXY_OBJECT
  5
56
102
{ACAD_REACTORS
330
47
102
}
330
47
100
AcDbProxyObject
 90
      499
 91
      503
 93
      105
310
903383A310000000000000810100
  0
ACAD_PROXY_OBJECT
  5
57
102
{ACAD_REACTORS
330
47
102
}
330
47
100
AcDbProxyObject
 90
      499
 91
      503
 93
      113
310
90431303A310000000000000910100
  0
ACAD_PROXY_OBJECT
  5
58
102
{ACAD_REACTORS
330
47
102
}
330
47
100
AcDbProxyObject
 90
      499
 91
      503
 93
      121
310
9053130303A310000000000001650100
  0
ACAD_PROXY_OBJECT
  5
59
102
{ACAD_REACTORS
330
47
102
}
330
47
100
AcDbProxyObject
 90
      499
 91
      503
 93
      257
310
90E312F31323822203D2031272D3022000000000000200FC000000000000284000
  0
ACAD_PROXY_OBJECT
  5
5A
102
{ACAD_REACTORS
330
47
102
}
330
47
100
AcDbProxyObject
 90
      499
 91
      503
 93
      249
310
90D312F363422203D2031272D3022000000000000240FC000000000000284000
  0
ACAD_PROXY_OBJECT
  5
5B
102
{ACAD_REACTORS
330
47
102
}
330
47
100
AcDbProxyObject
 90
      499
 91
      503
 93
      249
310
90D312F333222203D2031272D3022000000000000280FC000000000000284000
  0
ACAD_PROXY_OBJECT
  5
5C
102
{ACAD_REACTORS
330
47
102
}
330
47
100
AcDbProxyObject
 90
      499
 91
      503
 93
      249
310
90D312F313622203D2031272D30220000000000002C0FC000000000000284000
  0
ACAD_PROXY_OBJECT
  5
5D
102
{ACAD_REACTORS
330
47
102
}
330
47
100
AcDbProxyObject
 90
      499
 91
      503
 93
      249
310
90D332F333222203D2031272D30220000000000002E0FC000000000000284000
  0
ACAD_PROXY_OBJECT
  5
5E
102
{ACAD_REACTORS
330
47
102
}
330
47
100
AcDbProxyObject
 90
      499
 91
      503
 93
      241
310
90C312F3822203D2031272D3022000000000000300FC000000000000284000
  0
ACAD_PROXY_OBJECT
  5
5F
102
{ACAD_REACTORS
330
47
102
}
330
47
100
AcDbProxyObject
 90
      499
 91
      503
 93
      249
310
90D332F313622203D2031272D3022000000000000320FC000000000000284000
  0
ACAD_PROXY_OBJECT
  5
60
102
{ACAD_REACTORS
330
47
102
}
330
47
100
AcDbProxyObject
 90
      499
 91
      503
 93
      241
310
90C312F3422203D2031272D3022000000000000340FC000000000000284000
  0
ACAD_PROXY_OBJECT
  5
61
102
{ACAD_REACTORS
330
47
102
}
330
47
100
AcDbProxyObject
 90
      499
 91
      503
 93
      241
310
90C332F3822203D2031272D3022000000000000360FC000000000000284000
  0
ACAD_PROXY_OBJECT
  5
62
102
{ACAD_REACTORS
330
47
102
}
330
47
100
AcDbProxyObject
 90
      499
 91
      503
 93
      241
310
90C312F3222203D2031272D3022000000000000380FC000000000000284000
  0
ACAD_PROXY_OBJECT
  5
63
102
{ACAD_REACTORS
330
47
102
}
330
47
100
AcDbProxyObject
 90
      499
 91
      503
 93
      241
310
90C332F3422203D2031272D30220000000000003A0FC000000000000284000
  0
ACAD_PROXY_OBJECT
  5
64
102
{ACAD_REACTORS
330
47
102
}
330
47
100
AcDbProxyObject
 90
      499
 91
      503
 93
      161
310
90A3122203D2031272D30224000000000000284000
  0
ACAD_PROXY_OBJECT
  5
65
102
{ACAD_REACTORS
330
47
102
}
330
47
100
AcDbProxyObject
 90
      499
 91
      503
 93
      257
310
90E312D312F3222203D2031272D30220000000000003E0FC000000000000284000
  0
ACAD_PROXY_OBJECT
  5
66
102
{ACAD_REACTORS
330
47
102
}
330
47
100
AcDbProxyObject
 90
      499
 91
      503
 93
      225
310
90A3322203D2031272D302200000000000002100000000000000284000
  0
ACAD_PROXY_OBJECT
  5
67
102
{ACAD_REACTORS
330
47
102
}
330
47
100
AcDbProxyObject
 90
      499
 91
      503
 93
      225
310
90A3622203D2031272D302200000000000006100000000000000284000
  0
ACAD_PROXY_OBJECT
  5
68
102
{ACAD_REACTORS
330
47
102
}
330
47
100
AcDbProxyObject
 90
      499
 91
      503
 93
      249
310
90D31272D3022203D2031272D30220000000000000A100000000000000284000
  0
ACAD_PROXY_OBJECT
  5
2F
102
{ACAD_REACTORS
330
2A
102
}
330
2A
100
AcDbProxyObject
 90
      499
 91
      501
 93
      436
310
42CC9915DA5C99599C985B595049028333333333333E33F0000000000000F90107901411070040501600405405064090741402480A0340
1001
ACAD
1000
AcDbSavedByObjectVersion
1070
     0
  0
ACAD_PROXY_OBJECT
  5
32
102
{ACAD_REACTORS
330
2A
102
}
330
2A
100
AcDbProxyObject
 90
      499
 91
      501
 93
      388
310
4150985CDA58D07406404333333333333E33F0000000000000F90107A41107004050150841D405064090741402480A0350
1001
ACAD
1000
AcDbSavedByObjectVersion
1070
     0
  0
ACAD_PROXY_OBJECT
  5
36
102
{ACAD_REACTORS
330
2A
102
}
330
2A
100
AcDbProxyObject
 90
      499
 91
      501
 93
      428
310
42109C9A59DA1D195B90C409028333333333333E33F0000000000000F9010790141107004050150841D405064090741402480A029950
1001
ACAD
1000
AcDbSavedByObjectVersion
1070
     0
  0
ACAD_PROXY_OBJECT
  5
3A
102
{ACAD_REACTORS
330
2A
102
}
330
2A
100
AcDbProxyObject
 90
      499
 91
      501
 93
      452
310
42D0DBDB1BDC90DA185B99D95104090240C333333333333E33F0000000000000F90108901411070040501508421405064090741402480A0350
1001
ACAD
1000
AcDbSavedByObjectVersion
1070
     0
  0
ACAD_PROXY_OBJECT
  5
34
102
{ACAD_REACTORS
330
2A
102
}
330
2A
100
AcDbProxyObject
 90
      499
 91
      501
 93
      500
310
4290DBDB98D95C1D1D585B10940D028333333333333E33F0000000000000F90107902409070040501000000000018199010841D405064090740C02480A0340
1001
ACAD
1000
AcDbSavedByObjectVersion
1070
     0
  0
ACAD_PROXY_OBJECT
  5
35
102
{ACAD_REACTORS
330
2A
102
}
330
2A
100
AcDbProxyObject
 90
      499
 91
      501
 93
      412
310
40D11A5B50B409028333333333333E33F0000000000000F9010790141107004050150841D405064090741402480A02677FFFFFD0
1001
ACAD
1000
AcDbSavedByObjectVersion
1070
     0
  0
ACAD_PROXY_OBJECT
  5
3D
102
{ACAD_REACTORS
330
2A
102
}
330
2A
100
AcDbProxyObject
 90
      499
 91
      501
 93
      452
310
43115919D950DBDB1BDC93D999916409028333333333333E33F0000000000000F9010790141107004050150841D405064090741402480A0350
1001
ACAD
1000
AcDbSavedByObjectVersion
1070
     0
  0
ACAD_PROXY_OBJECT
  5
39
102
{ACAD_REACTORS
330
2A
102
}
330
2A
100
AcDbProxyObject
 90
      499
 91
      501
 93
      444
310
42D19858D95C185D1D195C9B90F409028333333333333E33F0000000000000F9010790141107004050150841D405064090741402480A0350
1001
ACAD
1000
AcDbSavedByObjectVersion
1070
     0
  0
ACAD_PROXY_OBJECT
  5
2B
102
{ACAD_REACTORS
330
2A
102
}
330
2A
100
AcDbProxyObject
 90
      499
 91
      501
 93
      380
310
41119B185D240901404333333333333E33F0000000000000F9010740A907004050150841D405064090741402480A1B50
1001
ACAD
1000
AcDbSavedByObjectVersion
1070
     0
  0
ACAD_PROXY_OBJECT
  5
2C
102
{ACAD_REACTORS
330
2A
102
}
330
2A
100
AcDbProxyObject
 90
      499
 91
      501
 93
      468
310
43519B185D15DA5D1A115919D95CD0140901404333333333333E33F0000000000000F90107409019070040501600405405064090741402480A1B50
1001
ACAD
1000
AcDbSavedByObjectVersion
1070
     0
  0
ACAD_PROXY_OBJECT
  5
2D
102
{ACAD_REACTORS
330
2A
102
}
330
2A
100
AcDbProxyObject
 90
      499
 91
      501
 93
      404
310
41D1DBDD5C985D5910240902404333333333333E33F0000000000000F9010740A9070040501641D405064090741402480A1B50
1001
ACAD
1000
AcDbSavedByObjectVersion
1070
     0
  0
ACAD_PROXY_OBJECT
  5
2E
102
{ACAD_REACTORS
330
2A
102
}
330
2A
100
AcDbProxyObject
 90
      499
 91
      501
 93
      492
310
4411DBDD5C985D5915DA5D1A115919D95CD0340902404333333333333E33F0000000000000F90107409019070040501600405405064090741402480A1B50
1001
ACAD
1000
AcDbSavedByObjectVersion
1070
     0
  0
ACAD_PROXY_OBJECT
  5
31
102
{ACAD_REACTORS
330
2A
102
}
330
2A
100
AcDbProxyObject
 90
      499
 91
      501
 93
      476
310
41921A5919195B90640502408333333333333E33F0000000000000F901079024090700405020000000000001110200405405064090740C02480A0340
1001
ACAD
1000
AcDbSavedByObjectVersion
1070
     0
  0
ACAD_PROXY_OBJECT
  5
3B
102
{ACAD_REACTORS
330
2A
102
}
330
2A
100
AcDbProxyObject
 90
      499
 91
      501
 93
      428
310
42529A5D1D195C93D999914409028333333333333E33F0000000000000F9010790141107004050150A41D405064090741402480A0350
1001
ACAD
1000
AcDbSavedByObjectVersion
1070
     0
  0
ACAD_PROXY_OBJECT
  5
38
102
{ACAD_REACTORS
330
2A
102
}
330
2A
100
AcDbProxyObject
 90
      499
 91
      501
 93
      444
310
42D31A5B995C185D1D195C9B90E409028333333333333E33F0000000000000F9010790141107004050750841D405064090741402483A0350
1001
ACAD
1000
AcDbSavedByObjectVersion
1070
     0
  0
ACAD_PROXY_OBJECT
  5
3C
102
{ACAD_REACTORS
330
2A
102
}
330
2A
100
AcDbProxyObject
 90
      499
 91
      501
 93
      444
310
42D3DD995C9A185B99D3D999915409028333333333333E33F0000000000000F9010790141107004050150941D405064090741402480A0350
1001
ACAD
1000
AcDbSavedByObjectVersion
1070
     0
  0
ACAD_PROXY_OBJECT
  5
33
102
{ACAD_REACTORS
330
2A
102
}
330
2A
100
AcDbProxyObject
 90
      499
 91
      501
 93
      428
310
425499585B1A5CDD1A58D08409038333333333333E33F0000000000000F9010740A907004050150800405405064090740C02480A1B40
1001
ACAD
1000
AcDbSavedByObjectVersion
1070
     0
  0
ACAD_PROXY_OBJECT
  5
42
102
{ACAD_REACTORS
330
2A
102
}
330
2A
100
AcDbProxyObject
 90
      499
 91
      501
 93
      420
310
4194DA1859195911B40902404333333333333E33F0000000000000F9010740A41107004050150800405405064090840C02480A0B40
1001
ACAD
1000
AcDbSavedByObjectVersion
1070
     0
  0
ACAD_PROXY_OBJECT
  5
41
102
{ACAD_REACTORS
330
2A
102
}
330
2A
100
AcDbProxyObject
 90
      499
 91
      501
 93
      516
310
4454DA18591959081DDA5D1A08195919D95CD1A40902404333333333333E33F0000000000000F901074090142907004050250800405405064090740C02480A0B40
1001
ACAD
1000
AcDbSavedByObjectVersion
1070
     0
  0
ACAD_PROXY_OBJECT
  5
3E
102
{ACAD_REACTORS
330
2A
102
}
330
2A
100
AcDbProxyObject
 90
      499
 91
      501
 93
      532
310
4394DA1859195CC81BD98811DC985E5174090240C333333333333E33F0000000000000F901079024090741D01000000000000111010841D405064090740C02480A0340
1001
ACAD
1000
AcDbSavedByObjectVersion
1070
     0
  0
ACAD_PROXY_OBJECT
  5
3F
102
{ACAD_REACTORS
330
2A
102
}
330
2A
100
AcDbProxyObject
 90
      499
 91
      501
 93
      476
310
41D4DAD95D18DA1E51840502408333333333333E33F0000000000000F901079024090741D01000000000000111010B41D405064090741802480A0340
1001
ACAD
1000
AcDbSavedByObjectVersion
1070
     0
  0
ACAD_PROXY_OBJECT
  5
37
102
{ACAD_REACTORS
330
2A
102
}
330
2A
100
AcDbProxyObject
 90
      499
 91
      501
 93
      412
310
41D51A1A58DAD95B90D409028333333333333E33F0000000000000F9010790141107004050150C41D405064090741402480A0350
1001
ACAD
1000
AcDbSavedByObjectVersion
1070
     0
  0
ACAD_PROXY_OBJECT
  5
30
102
{ACAD_REACTORS
330
2A
102
}
330
2A
100
AcDbProxyObject
 90
      499
 91
      501
 93
      420
310
4255DA5C99599C985B595059028333333333333E33F0000000000000F90107901411070040501600405405064090740C02480A0340
1001
ACAD
1000
AcDbSavedByObjectVersion
1070
     0
  0
ACAD_PROXY_OBJECT
  5
40
102
{ACAD_REACTORS
330
2A
102
}
330
2A
100
AcDbProxyObject
 90
      499
 91
      501
 93
      404
310
41560B54985E51940902404000000000000E03F0000000000000F9010740501907004050150841D405064090740C02480A1B40
1001
ACAD
1000
AcDbSavedByObjectVersion
1070
     0
  0
XRECORD
  5
293
102
{ACAD_REACTORS
330
28A
102
}
330
28A
100
AcDbXrecord
 90
        0
  0
XRECORD
  5
2A9
102
{ACAD_REACTORS
330
28A
102
}
330
28A
100
AcDbXrecord
1000
DSTYLE
1002
{
1070
   340
340
11
1002
}
  0
XRECORD
  5
294
102
{ACAD_REACTORS
330
28A
102
}
330
28A
100
AcDbXrecord
  1
{AC0FCFD4-DE6C-41B4-9EAC-561F613F2DC3}
  0
XRECORD
  5
28D
102
{ACAD_REACTORS
330
28A
102
}
330
28A
100
AcDbXrecord
  1

  0
XRECORD
  5
292
102
{ACAD_REACTORS
330
28A
102
}
330
28A
100
AcDbXrecord
 90
        1
  0
XRECORD
  5
28F
102
{ACAD_REACTORS
330
28A
102
}
330
28A
100
AcDbXrecord
340
1A
  0
XRECORD
  5
291
102
{ACAD_REACTORS
330
28A
102
}
330
28A
100
AcDbXrecord
 90
    10781
  0
XRECORD
  5
290
102
{ACAD_REACTORS
330
28A
102
}
330
28A
100
AcDbXrecord
340
19
  0
XRECORD
  5
296
102
{ACAD_REACTORS
330
28A
102
}
330
28A
100
AcDbXrecord
 40
0.0
  0
XRECORD
  5
299
102
{ACAD_REACTORS
330
28A
102
}
330
28A
100
AcDbXrecord
340
0
  0
XRECORD
  5
29F
102
{ACAD_REACTORS
330
28A
102
}
330
28A
100
AcDbXrecord
 10
0.0
 20
0.0
 30
0.0
  0
XRECORD
  5
29B
102
{ACAD_REACTORS
330
28A
102
}
330
28A
100
AcDbXrecord
 10
0.0
 20
0.0
 30
0.0
  0
XRECORD
  5
29E
102
{ACAD_REACTORS
330
28A
102
}
330
28A
100
AcDbXrecord
 10
0.0
 20
0.0
 30
0.0
  0
XRECORD
  5
29C
102
{ACAD_REACTORS
330
28A
102
}
330
28A
100
AcDbXrecord
 10
0.0
 20
0.0
 30
0.0
  0
XRECORD
  5
29D
102
{ACAD_REACTORS
330
28A
102
}
330
28A
100
AcDbXrecord
 10
0.0
 20
0.0
 30
0.0
  0
XRECORD
  5
29A
102
{ACAD_REACTORS
330
28A
102
}
330
28A
100
AcDbXrecord
 10
0.0
 20
0.0
 30
0.0
  0
XRECORD
  5
297
102
{ACAD_REACTORS
330
28A
102
}
330
28A
100
AcDbXrecord
340
0
  0
XRECORD
  5
298
102
{ACAD_REACTORS
330
28A
102
}
330
28A
100
AcDbXrecord
 70
     0
  0
XRECORD
  5
28E
102
{ACAD_REACTORS
330
28A
102
}
330
28A
100
AcDbXrecord
  1

  0
XRECORD
  5
28B
102
{ACAD_REACTORS
330
28A
102
}
330
28A
100
AcDbXrecord
 90
        1
  0
XRECORD
  5
28C
102
{ACAD_REACTORS
330
28A
102
}
330
28A
100
AcDbXrecord
 90
       70
  0
XRECORD
  5
2A2
102
{ACAD_REACTORS
330
28A
102
}
330
28A
100
AcDbXrecord
340
0
  0
XRECORD
  5
2A8
102
{ACAD_REACTORS
330
28A
102
}
330
28A
100
AcDbXrecord
 10
0.0
 20
0.0
 30
0.0
  0
XRECORD
  5
2A4
102
{ACAD_REACTORS
330
28A
102
}
330
28A
100
AcDbXrecord
 10
0.0
 20
0.0
 30
0.0
  0
XRECORD
  5
2A7
102
{ACAD_REACTORS
330
28A
102
}
330
28A
100
AcDbXrecord
 10
0.0
 20
0.0
 30
0.0
  0
XRECORD
  5
2A5
102
{ACAD_REACTORS
330
28A
102
}
330
28A
100
AcDbXrecord
 10
0.0
 20
0.0
 30
0.0
  0
XRECORD
  5
2A6
102
{ACAD_REACTORS
330
28A
102
}
330
28A
100
AcDbXrecord
 10
0.0
 20
0.0
 30
0.0
  0
XRECORD
  5
2A3
102
{ACAD_REACTORS
330
28A
102
}
330
28A
100
AcDbXrecord
 10
0.0
 20
0.0
 30
0.0
  0
XRECORD
  5
2A0
102
{ACAD_REACTORS
330
28A
102
}
330
28A
100
AcDbXrecord
340
0
  0
XRECORD
  5
2A1
102
{ACAD_REACTORS
330
28A
102
}
330
28A
100
AcDbXrecord
 70
     0
  0
XRECORD
  5
295
102
{ACAD_REACTORS
330
28A
102
}
330
28A
100
AcDbXrecord
  1
{FAEB1C32-E019-11D5-929B-00C0DF256EC4}
  0
DICTIONARYVAR
  5
2B3
102
{ACAD_REACTORS
330
2AA
102
}
330
2AA
100
DictionaryVariables
280
     0
  1
1:1
  0
DICTIONARYVAR
  5
2AF
102
{ACAD_REACTORS
330
2AA
102
}
330
2AA
100
DictionaryVariables
280
     0
  1
2
  0
DICTIONARYVAR
  5
2B0
102
{ACAD_REACTORS
330
2AA
102
}
330
2AA
100
DictionaryVariables
280
     0
  1
1
  0
DICTIONARYVAR
  5
2B4
102
{ACAD_REACTORS
330
2AA
102
}
330
2AA
100
DictionaryVariables
280
     0
  1
1
  0
DICTIONARY
  5
2B7
330
45
100
AcDbDictionary
280
     1
  3
ACAD_XREC_ROUNDTRIP
360
2B8
  0
DICTIONARY
  5
2B5
330
44
100
AcDbDictionary
280
     1
  3
ACAD_XREC_ROUNDTRIP
360
2B6
  0
DICTIONARY
  5
2B9
330
46
100
AcDbDictionary
280
     1
  3
ACAD_XREC_ROUNDTRIP
360
2BA
  0
XRECORD
  5
2B8
102
{ACAD_REACTORS
330
2B7
102
}
330
2B7
100
AcDbXrecord
102
MATERIAL
148
0.0
149
0.0
149
0.0
 93
        0
 94
      127
282
     0
 72
     1
 77
     1
171
     1
175
     1
179
     1
273
     0
  0
XRECORD
  5
2B6
102
{ACAD_REACTORS
330
2B5
102
}
330
2B5
100
AcDbXrecord
102
MATERIAL
148
0.0
149
0.0
149
0.0
 93
        0
 94
      127
282
     0
 72
     1
 77
     1
171
     1
175
     1
179
     1
273
     0
  0
XRECORD
  5
2BA
102
{ACAD_REACTORS
330
2B9
102
}
330
2B9
100
AcDbXrecord
102
MATERIAL
148
0.0
149
0.0
149
0.0
 93
        0
 94
      127
282
     0
 72
     1
 77
     1
171
     1
175
     1
179
     1
273
     0
  0
ENDSEC
  0
EOF
