  0
SECTION
  2
HEADER
  9
$ACADVER
  1
AC1014
  9
$ACADMAINTVER
 70
     9
  9
$DWGCODEPAGE
  3
ANSI_1252
  9
$INSBASE
 10
0.0
 20
0.0
 30
0.0
  9
$EXTMIN
 10
1.000000000000000E+20
 20
1.000000000000000E+20
 30
1.000000000000000E+20
  9
$EXTMAX
 10
-1.000000000000000E+20
 20
-1.000000000000000E+20
 30
-1.000000000000000E+20
  9
$LIMMIN
 10
0.0
 20
0.0
  9
$LIMMAX
 10
12.0
 20
9.0
  9
$ORTHOMODE
 70
     0
  9
$REGENMODE
 70
     1
  9
$FILLMODE
 70
     1
  9
$QTEXTMODE
 70
     0
  9
$MIRRTEXT
 70
     1
  9
$DRAGMODE
 70
     2
  9
$LTSCALE
 40
1.0
  9
$OSMODE
 70
    37
  9
$ATTMODE
 70
     1
  9
$TEXTSIZE
 40
0.2
  9
$TRACEWID
 40
0.05
  9
$TEXTSTYLE
  7
STANDARD
  9
$CLAYER
  8
0
  9
$CELTYPE
  6
BYLAYER
  9
$CECOLOR
 62
   256
  9
$CELTSCALE
 40
1.0
  9
$DELOBJ
 70
     1
  9
$DISPSILH
 70
     0
  9
$DIMSCALE
 40
1.0
  9
$DIMASZ
 40
0.18
  9
$DIMEXO
 40
0.0625
  9
$DIMDLI
 40
0.38
  9
$DIMRND
 40
0.0
  9
$DIMDLE
 40
0.0
  9
$DIMEXE
 40
0.18
  9
$DIMTP
 40
0.0
  9
$DIMTM
 40
0.0
  9
$DIMTXT
 40
0.18
  9
$DIMCEN
 40
0.09
  9
$DIMTSZ
 40
0.0
  9
$DIMTOL
 70
     0
  9
$DIMLIM
 70
     0
  9
$DIMTIH
 70
     1
  9
$DIMTOH
 70
     1
  9
$DIMSE1
 70
     0
  9
$DIMSE2
 70
     0
  9
$DIMTAD
 70
     0
  9
$DIMZIN
 70
     0
  9
$DIMBLK
  1

  9
$DIMASO
 70
     1
  9
$DIMSHO
 70
     1
  9
$DIMPOST
  1

  9
$DIMAPOST
  1

  9
$DIMALT
 70
     0
  9
$DIMALTD
 70
     2
  9
$DIMALTF
 40
25.4
  9
$DIMLFAC
 40
1.0
  9
$DIMTOFL
 70
     0
  9
$DIMTVP
 40
0.0
  9
$DIMTIX
 70
     0
  9
$DIMSOXD
 70
     0
  9
$DIMSAH
 70
     0
  9
$DIMBLK1
  1

  9
$DIMBLK2
  1

  9
$DIMSTYLE
  2
STANDARD
  9
$DIMCLRD
 70
     0
  9
$DIMCLRE
 70
     0
  9
$DIMCLRT
 70
     0
  9
$DIMTFAC
 40
1.0
  9
$DIMGAP
 40
0.09
  9
$DIMJUST
 70
     0
  9
$DIMSD1
 70
     0
  9
$DIMSD2
 70
     0
  9
$DIMTOLJ
 70
     1
  9
$DIMTZIN
 70
     0
  9
$DIMALTZ
 70
     0
  9
$DIMALTTZ
 70
     0
  9
$DIMFIT
 70
     3
  9
$DIMUPT
 70
     0
  9
$DIMUNIT
 70
     2
  9
$DIMDEC
 70
     4
  9
$DIMTDEC
 70
     4
  9
$DIMALTU
 70
     2
  9
$DIMALTTD
 70
     2
  9
$DIMTXSTY
  7
STANDARD
  9
$DIMAUNIT
 70
     0
  9
$LUNITS
 70
     2
  9
$LUPREC
 70
     4
  9
$SKETCHINC
 40
0.1
  9
$FILLETRAD
 40
0.5
  9
$AUNITS
 70
     0
  9
$AUPREC
 70
     0
  9
$MENU
  1
.
  9
$ELEVATION
 40
0.0
  9
$PELEVATION
 40
0.0
  9
$THICKNESS
 40
0.0
  9
$LIMCHECK
 70
     0
  9
$CHAMFERA
 40
0.0
  9
$CHAMFERB
 40
0.0
  9
$CHAMFERC
 40
0.0
  9
$CHAMFERD
 40
0.0
  9
$SKPOLY
 70
     0
  9
$TDCREATE
 40
2456913.674851724
  9
$TDUPDATE
 40
2456913.674851886
  9
$TDINDWG
 40
0.0000000116
  9
$TDUSRTIMER
 40
0.0000000116
  9
$USRTIMER
 70
     1
  9
$ANGBASE
 50
0.0
  9
$ANGDIR
 70
     0
  9
$PDMODE
 70
     0
  9
$PDSIZE
 40
0.0
  9
$PLINEWID
 40
0.0
  9
$COORDS
 70
     1
  9
$SPLFRAME
 70
     0
  9
$SPLINETYPE
 70
     6
  9
$SPLINESEGS
 70
     8
  9
$ATTDIA
 70
     0
  9
$ATTREQ
 70
     1
  9
$HANDLING
 70
     1
  9
$HANDSEED
  5
2E6
  9
$SURFTAB1
 70
     6
  9
$SURFTAB2
 70
     6
  9
$SURFTYPE
 70
     6
  9
$SURFU
 70
     6
  9
$SURFV
 70
     6
  9
$UCSNAME
  2

  9
$UCSORG
 10
0.0
 20
0.0
 30
0.0
  9
$UCSXDIR
 10
1.0
 20
0.0
 30
0.0
  9
$UCSYDIR
 10
0.0
 20
1.0
 30
0.0
  9
$PUCSNAME
  2

  9
$PUCSORG
 10
0.0
 20
0.0
 30
0.0
  9
$PUCSXDIR
 10
1.0
 20
0.0
 30
0.0
  9
$PUCSYDIR
 10
0.0
 20
1.0
 30
0.0
  9
$USERI1
 70
     0
  9
$USERI2
 70
     0
  9
$USERI3
 70
     0
  9
$USERI4
 70
     0
  9
$USERI5
 70
     0
  9
$USERR1
 40
0.0
  9
$USERR2
 40
0.0
  9
$USERR3
 40
0.0
  9
$USERR4
 40
0.0
  9
$USERR5
 40
0.0
  9
$WORLDVIEW
 70
     1
  9
$SHADEDGE
 70
     3
  9
$SHADEDIF
 70
    70
  9
$TILEMODE
 70
     1
  9
$MAXACTVP
 70
    64
  9
$PINSBASE
 10
0.0
 20
0.0
 30
0.0
  9
$PLIMCHECK
 70
     0
  9
$PEXTMIN
 10
1.000000000000000E+20
 20
1.000000000000000E+20
 30
1.000000000000000E+20
  9
$PEXTMAX
 10
-1.000000000000000E+20
 20
-1.000000000000000E+20
 30
-1.000000000000000E+20
  9
$PLIMMIN
 10
0.0
 20
0.0
  9
$PLIMMAX
 10
12.0
 20
9.0
  9
$UNITMODE
 70
     0
  9
$VISRETAIN
 70
     1
  9
$PLINEGEN
 70
     0
  9
$PSLTSCALE
 70
     1
  9
$TREEDEPTH
 70
  3020
  9
$PICKSTYLE
 70
     1
  9
$CMLSTYLE
  2
STANDARD
  9
$CMLJUST
 70
     0
  9
$CMLSCALE
 40
1.0
  9
$PROXYGRAPHICS
 70
     1
  9
$MEASUREMENT
 70
     0
  0
ENDSEC
  0
SECTION
  2
CLASSES
  0
CLASS
  1
ACDBDICTIONARYWDFLT
  2
AcDbDictionaryWithDefault
  3
ObjectDBX Classes
 90
        0
280
     0
281
     0
  0
CLASS
  1
VISUALSTYLE
  2
AcDbVisualStyle
  3
ObjectDBX Classes
 90
     4095
280
     0
281
     0
  0
CLASS
  1
MATERIAL
  2
AcDbMaterial
  3
ObjectDBX Classes
 90
     1153
280
     0
281
     0
  0
CLASS
  1
SCALE
  2
AcDbScale
  3
ObjectDBX Classes
 90
     1153
280
     0
281
     0
  0
CLASS
  1
SUN
  2
AcDbSun
  3
SCENEOE
 90
     1153
280
     0
281
     0
  0
CLASS
  1
DICTIONARYVAR
  2
AcDbDictionaryVar
  3
ObjectDBX Classes
 90
        0
280
     0
281
     0
  0
CLASS
  1
XRECORD
  2
AcDbXrecord
  3
ObjectDBX Classes
 90
        0
280
     0
281
     0
  0
CLASS
  1
LWPOLYLINE
  2
AcDbPolyline
  3
ObjectDBX Classes
 90
        0
280
     0
281
     1
  0
CLASS
  1
HATCH
  2
AcDbHatch
  3
ObjectDBX Classes
 90
        0
280
     0
281
     1
  0
CLASS
  1
ACDBPLACEHOLDER
  2
AcDbPlaceHolder
  3
ObjectDBX Classes
 90
        0
280
     0
281
     0
  0
CLASS
  1
LAYOUT
  2
AcDbLayout
  3
ObjectDBX Classes
 90
        0
280
     0
281
     0
  0
ENDSEC
  0
SECTION
  2
TABLES
  0
TABLE
  2
VPORT
  5
8
102
{ACAD_XDICTIONARY
360
2DC
102
}
330
0
100
AcDbSymbolTable
 70
     1
  0
VPORT
  5
29
330
8
100
AcDbSymbolTableRecord
100
AcDbViewportTableRecord
  2
*ACTIVE
 70
     0
 10
0.0
 20
0.0
 11
1.0
 21
1.0
 12
0.0
 22
0.0
 13
0.0
 23
0.0
 14
0.5
 24
0.5
 15
0.5
 25
0.5
 16
0.0
 26
0.0
 36
1.0
 17
0.0
 27
0.0
 37
-1000.0
 40
155.7670113189873
 41
2.199770378874856
 42
50.0
 43
286.8837968351015
 44
378.5757516873463
 50
0.0
 51
0.0
 71
     0
 72
   100
 73
     1
 74
     3
 75
     0
 76
     0
 77
     0
 78
     0
  0
ENDTAB
  0
TABLE
  2
LTYPE
  5
5
330
0
100
AcDbSymbolTable
 70
     1
  0
LTYPE
  5
14
330
5
100
AcDbSymbolTableRecord
100
AcDbLinetypeTableRecord
  2
BYBLOCK
 70
     0
  3

 72
    65
 73
     0
 40
0.0
  0
LTYPE
  5
15
330
5
100
AcDbSymbolTableRecord
100
AcDbLinetypeTableRecord
  2
BYLAYER
 70
     0
  3

 72
    65
 73
     0
 40
0.0
  0
LTYPE
  5
16
330
5
100
AcDbSymbolTableRecord
100
AcDbLinetypeTableRecord
  2
CONTINUOUS
 70
     0
  3
Solid line
 72
    65
 73
     0
 40
0.0
  0
ENDTAB
  0
TABLE
  2
LAYER
  5
2
330
0
100
AcDbSymbolTable
 70
     3
  0
LAYER
  5
10
330
2
100
AcDbSymbolTableRecord
100
AcDbLayerTableRecord
  2
0
 70
     0
 62
     7
  6
CONTINUOUS
  0
LAYER
  5
6A
330
2
100
AcDbSymbolTableRecord
100
AcDbLayerTableRecord
  2
PROFILEEDGES
 70
     0
 62
     7
  6
CONTINUOUS
  0
LAYER
  5
6B
330
2
100
AcDbSymbolTableRecord
100
AcDbLayerTableRecord
  2
SECTIONCUTEDGES
 70
     0
 62
     7
  6
CONTINUOUS
  0
ENDTAB
  0
TABLE
  2
STYLE
  5
3
330
0
100
AcDbSymbolTable
 70
     1
  0
STYLE
  5
11
330
3
100
AcDbSymbolTableRecord
100
AcDbTextStyleTableRecord
  2
STANDARD
 70
     0
 40
0.0
 41
1.0
 50
0.0
 71
     0
 42
0.2
  3
txt
  4

  0
ENDTAB
  0
TABLE
  2
VIEW
  5
6
330
0
100
AcDbSymbolTable
 70
     0
  0
ENDTAB
  0
TABLE
  2
UCS
  5
7
330
0
100
AcDbSymbolTable
 70
     0
  0
ENDTAB
  0
TABLE
  2
APPID
  5
9
330
0
100
AcDbSymbolTable
 70
     1
  0
APPID
  5
12
330
9
100
AcDbSymbolTableRecord
100
AcDbRegAppTableRecord
  2
ACAD
 70
     0
  0
ENDTAB
  0
TABLE
  2
DIMSTYLE
  5
A
330
0
100
AcDbSymbolTable
 70
     1
  0
DIMSTYLE
105
27
330
A
100
AcDbSymbolTableRecord
100
AcDbDimStyleTableRecord
  2
STANDARD
 70
     0
  3

  4

  5

  6

  7

 40
1.0
 41
0.18
 42
0.0625
 43
0.38
 44
0.18
 45
0.0
 46
0.0
 47
0.0
 48
0.0
140
0.18
141
0.09
142
0.0
143
25.4
144
1.0
145
0.0
146
1.0
147
0.09
 71
     0
 72
     0
 73
     1
 74
     1
 75
     0
 76
     0
 77
     0
 78
     0
170
     0
171
     2
172
     0
173
     0
174
     0
175
     0
176
     0
177
     0
178
     0
270
     2
271
     4
272
     4
273
     2
274
     2
340
11
275
     0
280
     0
281
     0
282
     0
283
     1
284
     0
285
     0
286
     0
287
     3
288
     0
  0
ENDTAB
  0
TABLE
  2
BLOCK_RECORD
  5
1
330
0
100
AcDbSymbolTable
 70
     1
  0
BLOCK_RECORD
  5
1F
330
1
100
AcDbSymbolTableRecord
100
AcDbBlockTableRecord
  2
*MODEL_SPACE
  0
BLOCK_RECORD
  5
1B
330
1
100
AcDbSymbolTableRecord
100
AcDbBlockTableRecord
  2
*PAPER_SPACE
  0
ENDTAB
  0
ENDSEC
  0
SECTION
  2
BLOCKS
  0
BLOCK
  5
20
330
1F
100
AcDbEntity
  8
0
100
AcDbBlockBegin
  2
*MODEL_SPACE
 70
     0
 10
0.0
 20
0.0
 30
0.0
  3
*MODEL_SPACE
  1

  0
ENDBLK
  5
21
330
1F
100
AcDbEntity
  8
0
100
AcDbBlockEnd
  0
BLOCK
  5
1C
330
1B
100
AcDbEntity
 67
     1
  8
0
100
AcDbBlockBegin
  2
*PAPER_SPACE
 70
     0
 10
0.0
 20
0.0
 30
0.0
  3
*PAPER_SPACE
  1

  0
ENDBLK
  5
1D
330
1B
100
AcDbEntity
 67
     1
  8
0
100
AcDbBlockEnd
  0
ENDSEC
  0
SECTION
  2
ENTITIES
  0
LINE
  5
6C
330
1F
100
AcDbEntity
  8
0
100
AcDbLine
 10
-52.4734551323785
 20
73.98933037651895
 30
0.0
 11
52.4734551323785
 21
73.98933037651895
 31
0.0
  0
LINE
  5
6D
330
1F
100
AcDbEntity
  8
0
100
AcDbLine
 10
-52.44875398262589
 20
28.01066962348087
 30
0.0
 11
-27.73560471505849
 21
28.01066962348087
 31
0.0
  0
LINE
  5
6E
330
1F
100
AcDbEntity
  8
0
100
AcDbLine
 10
-21.73560376866543
 20
28.01066962348087
 30
0.0
 11
21.73672756618926
 21
28.01066962348087
 31
0.0
  0
LINE
  5
6F
330
1F
100
AcDbEntity
  8
0
100
AcDbLine
 10
27.73672756618925
 20
28.01066962348087
 30
0.0
 11
52.4734551323785
 21
28.01066962348087
 31
0.0
  0
LINE
  5
70
330
1F
100
AcDbEntity
  8
0
100
AcDbLine
 10
2.999999999999995
 20
32.01066962348087
 30
0.0
 11
46.47345513237852
 21
32.01066962348087
 31
0.0
  0
LINE
  5
71
330
1F
100
AcDbEntity
  8
0
100
AcDbLine
 10
-46.47345513237852
 20
32.01066962348087
 30
0.0
 11
-2.999999999999995
 21
32.01066962348087
 31
0.0
  0
LINE
  5
72
330
1F
100
AcDbEntity
  8
0
100
AcDbLine
 10
-21.73560376866543
 20
-73.98933037651895
 30
0.0
 11
21.73672756618926
 21
-73.98933037651895
 31
0.0
  0
LINE
  5
73
330
1F
100
AcDbEntity
  8
0
100
AcDbLine
 10
-52.44875398262589
 20
-73.98933037651895
 30
0.0
 11
-27.73560471505849
 21
-73.98933037651895
 31
0.0
  0
LINE
  5
74
330
1F
100
AcDbEntity
  8
0
100
AcDbLine
 10
27.73672756618925
 20
-73.98933037651895
 30
0.0
 11
52.4734551323785
 21
-73.98933037651895
 31
0.0
  0
LINE
  5
75
330
1F
100
AcDbEntity
  8
0
100
AcDbLine
 10
-52.4734551323785
 20
73.98933037651895
 30
0.0
 11
-52.44875398262589
 21
28.01066962348087
 31
0.0
  0
LINE
  5
76
330
1F
100
AcDbEntity
  8
0
100
AcDbLine
 10
-52.44875398262589
 20
28.01066962348087
 30
0.0
 11
-52.44875398262589
 21
20.01066962348088
 31
0.0
  0
LINE
  5
77
330
1F
100
AcDbEntity
  8
0
100
AcDbLine
 10
52.4734551323785
 20
28.01066962348087
 30
0.0
 11
52.4734551323785
 21
20.01066962348088
 31
0.0
  0
LINE
  5
78
330
1F
100
AcDbEntity
  8
0
100
AcDbLine
 10
21.73672756618926
 20
-73.98933037651895
 30
0.0
 11
27.73672756618925
 21
-73.98933037651895
 31
0.0
  0
LINE
  5
79
330
1F
100
AcDbEntity
  8
0
100
AcDbLine
 10
52.4734551323785
 20
73.98933037651895
 30
0.0
 11
52.4734551323785
 21
28.01066962348087
 31
0.0
  0
LINE
  5
7A
330
1F
100
AcDbEntity
  8
0
100
AcDbLine
 10
-27.73560471505849
 20
-73.98933037651895
 30
0.0
 11
-21.73560376866543
 21
-73.98933037651895
 31
0.0
  0
LINE
  5
7B
330
1F
100
AcDbEntity
  8
0
100
AcDbLine
 10
-43.56865710047079
 20
45.67356893384287
 30
0.0
 11
-33.13529758010566
 21
45.67356893384287
 31
0.0
  0
LINE
  5
7C
330
1F
100
AcDbEntity
  8
0
100
AcDbLine
 10
-43.56865710047079
 20
49.67356893384287
 30
0.0
 11
-33.13529758010566
 21
49.67356893384287
 31
0.0
  0
LINE
  5
7D
330
1F
100
AcDbEntity
  8
0
100
AcDbLine
 10
-49.50574142776188
 20
47.67356893384287
 30
0.0
 11
-39.07211219599117
 21
47.67356893384287
 31
0.0
  0
LINE
  5
7E
330
1F
100
AcDbEntity
  8
0
100
AcDbLine
 10
-37.63211219599116
 20
47.67356893384287
 30
0.0
 11
-27.19848296422023
 21
47.67356893384287
 31
0.0
  0
LINE
  5
7F
330
1F
100
AcDbEntity
  8
0
100
AcDbLine
 10
-45.89817297327952
 20
68.91040536251609
 30
0.0
 11
-46.26726110975888
 21
68.69945216631261
 31
0.0
  0
LINE
  5
80
330
1F
100
AcDbEntity
  8
0
100
AcDbLine
 10
-45.09359705153097
 20
69.1796162571431
 30
0.0
 11
-45.50470751953595
 21
69.07137815583418
 31
0.0
  0
LINE
  5
81
330
1F
100
AcDbEntity
  8
0
100
AcDbLine
 10
-42.02065747399939
 20
68.12153197276868
 30
0.0
 11
-42.31994965339283
 21
68.42344503116826
 31
0.0
  0
LINE
  5
82
330
1F
100
AcDbEntity
  8
0
100
AcDbLine
 10
-44.24675948282515
 20
69.23141444120226
 30
0.0
 11
-44.67187578335347
 21
69.23326768252018
 31
0.0
  0
LINE
  5
83
330
1F
100
AcDbEntity
  8
0
100
AcDbLine
 10
-46.26726110975888
 20
68.69945216631261
 30
0.0
 11
-46.60565672862826
 21
68.44212803489803
 31
0.0
  0
LINE
  5
84
330
1F
100
AcDbEntity
  8
0
100
AcDbLine
 10
-47.54639470991009
 20
67.04741466089337
 30
0.0
 11
-47.65821299852169
 21
66.63726350118486
 31
0.0
  0
LINE
  5
85
330
1F
100
AcDbEntity
  8
0
100
AcDbLine
 10
-44.67187578335347
 20
69.23326768252018
 30
0.0
 11
-45.09359705153097
 21
69.1796162571431
 31
0.0
  0
LINE
  5
86
330
1F
100
AcDbEntity
  8
0
100
AcDbLine
 10
-47.16783446882231
 20
67.80669660030124
 30
0.0
 11
-47.38199757314711
 21
67.43946170513983
 31
0.0
  0
LINE
  5
87
330
1F
100
AcDbEntity
  8
0
100
AcDbLine
 10
-45.50470751953595
 20
69.07137815583418
 30
0.0
 11
-45.89817297327952
 21
68.91040536251609
 31
0.0
  0
LINE
  5
88
330
1F
100
AcDbEntity
  8
0
100
AcDbLine
 10
-41.28316925175435
 20
66.60947229567137
 30
0.0
 11
-41.39140735306327
 21
67.02058276367639
 31
0.0
  0
LINE
  5
89
330
1F
100
AcDbEntity
  8
0
100
AcDbLine
 10
-41.76333334258484
 20
67.78313635389928
 30
0.0
 11
-42.02065747399939
 21
68.12153197276868
 31
0.0
  0
LINE
  5
8A
330
1F
100
AcDbEntity
  8
0
100
AcDbLine
 10
-41.55238014638136
 20
67.41404821741993
 30
0.0
 11
-41.76333334258484
 21
67.78313635389928
 31
0.0
  0
LINE
  5
8B
330
1F
100
AcDbEntity
  8
0
100
AcDbLine
 10
-46.90756978702782
 20
68.1428358555046
 30
0.0
 11
-47.16783446882231
 21
67.80669660030124
 31
0.0
  0
LINE
  5
8C
330
1F
100
AcDbEntity
  8
0
100
AcDbLine
 10
-46.60565672862826
 20
68.44212803489803
 30
0.0
 11
-46.90756978702782
 21
68.1428358555046
 31
0.0
  0
LINE
  5
8D
330
1F
100
AcDbEntity
  8
0
100
AcDbLine
 10
-47.39453011837568
 20
64.56461253561794
 30
0.0
 11
-47.1835769221722
 21
64.19552439913859
 31
0.0
  0
LINE
  5
8E
330
1F
100
AcDbEntity
  8
0
100
AcDbLine
 10
-43.82552200771262
 20
69.17408824266211
 30
0.0
 11
-44.24675948282515
 21
69.23141444120226
 31
0.0
  0
LINE
  5
8F
330
1F
100
AcDbEntity
  8
0
100
AcDbLine
 10
-42.31994965339283
 20
68.42344503116826
 30
0.0
 11
-42.65608890859622
 21
68.68370971296272
 31
0.0
  0
LINE
  5
90
330
1F
100
AcDbEntity
  8
0
100
AcDbLine
 10
-43.41537084800409
 20
69.0622699540505
 30
0.0
 11
-43.82552200771262
 21
69.17408824266211
 31
0.0
  0
LINE
  5
91
330
1F
100
AcDbEntity
  8
0
100
AcDbLine
 10
-44.27503448140361
 20
62.7453930705177
 30
0.0
 11
-43.85331321322607
 21
62.79904449589477
 31
0.0
  0
LINE
  5
92
330
1F
100
AcDbEntity
  8
0
100
AcDbLine
 10
-42.65608890859622
 20
68.68370971296272
 30
0.0
 11
-43.0233238037576
 21
68.89787281728755
 31
0.0
  0
LINE
  5
93
330
1F
100
AcDbEntity
  8
0
100
AcDbLine
 10
-47.38199757314711
 20
67.43946170513983
 30
0.0
 11
-47.54639470991009
 21
67.04741466089337
 31
0.0
  0
LINE
  5
94
330
1F
100
AcDbEntity
  8
0
100
AcDbLine
 10
-41.23137106769517
 20
65.76263472696554
 30
0.0
 11
-41.22951782637728
 21
66.18775102749385
 31
0.0
  0
LINE
  5
95
330
1F
100
AcDbEntity
  8
0
100
AcDbLine
 10
-44.70015078193189
 20
62.74724631183561
 30
0.0
 11
-44.27503448140361
 21
62.7453930705177
 31
0.0
  0
LINE
  5
96
330
1F
100
AcDbEntity
  8
0
100
AcDbLine
 10
-42.03934047772922
 20
63.83582489753322
 30
0.0
 11
-41.77907579593473
 21
64.1719641527366
 31
0.0
  0
LINE
  5
97
330
1F
100
AcDbEntity
  8
0
100
AcDbLine
 10
-45.92358646099944
 20
63.08078793575032
 30
0.0
 11
-45.53153941675294
 21
62.91639079898736
 31
0.0
  0
LINE
  5
98
330
1F
100
AcDbEntity
  8
0
100
AcDbLine
 10
-41.39140735306327
 20
67.02058276367639
 30
0.0
 11
-41.55238014638136
 21
67.41404821741993
 31
0.0
  0
LINE
  5
99
330
1F
100
AcDbEntity
  8
0
100
AcDbLine
 10
-47.1835769221722
 20
64.19552439913859
 30
0.0
 11
-46.92625279075764
 21
63.85712878026919
 31
0.0
  0
LINE
  5
9A
330
1F
100
AcDbEntity
  8
0
100
AcDbLine
 10
-43.0233238037576
 20
68.89787281728755
 30
0.0
 11
-43.41537084800409
 21
69.0622699540505
 31
0.0
  0
LINE
  5
9B
330
1F
100
AcDbEntity
  8
0
100
AcDbLine
 10
-45.12138825704442
 20
62.80457251037579
 30
0.0
 11
-44.70015078193189
 21
62.74724631183561
 31
0.0
  0
LINE
  5
9C
330
1F
100
AcDbEntity
  8
0
100
AcDbLine
 10
-47.71553919706187
 20
66.21602602607231
 30
0.0
 11
-47.71739243837976
 21
65.79090972554403
 31
0.0
  0
LINE
  5
9D
330
1F
100
AcDbEntity
  8
0
100
AcDbLine
 10
-42.34125353612878
 20
63.53653271813983
 30
0.0
 11
-42.03934047772922
 21
63.83582489753322
 31
0.0
  0
LINE
  5
9E
330
1F
100
AcDbEntity
  8
0
100
AcDbLine
 10
-41.77907579593473
 20
64.1719641527366
 30
0.0
 11
-41.56491269160993
 21
64.53919904789804
 31
0.0
  0
LINE
  5
9F
330
1F
100
AcDbEntity
  8
0
100
AcDbLine
 10
-47.66374101300269
 20
65.36918845736649
 30
0.0
 11
-47.55550291169376
 21
64.95807798936148
 31
0.0
  0
LINE
  5
A0
330
1F
100
AcDbEntity
  8
0
100
AcDbLine
 10
-41.56491269160993
 20
64.53919904789804
 30
0.0
 11
-41.40051555484695
 21
64.9312460921445
 31
0.0
  0
LINE
  5
A1
330
1F
100
AcDbEntity
  8
0
100
AcDbLine
 10
-46.62696061136421
 20
63.55521572186961
 30
0.0
 11
-46.29082135616082
 21
63.29495104007515
 31
0.0
  0
LINE
  5
A2
330
1F
100
AcDbEntity
  8
0
100
AcDbLine
 10
-46.92625279075764
 20
63.85712878026919
 30
0.0
 11
-46.62696061136421
 21
63.55521572186961
 31
0.0
  0
LINE
  5
A3
330
1F
100
AcDbEntity
  8
0
100
AcDbLine
 10
-41.22951782637728
 20
66.18775102749385
 30
0.0
 11
-41.28316925175435
 21
66.60947229567137
 31
0.0
  0
LINE
  5
A4
330
1F
100
AcDbEntity
  8
0
100
AcDbLine
 10
-41.40051555484695
 20
64.9312460921445
 30
0.0
 11
-41.2886972662354
 21
65.34139725185301
 31
0.0
  0
LINE
  5
A5
330
1F
100
AcDbEntity
  8
0
100
AcDbLine
 10
-42.6796491549982
 20
63.27920858672523
 30
0.0
 11
-42.34125353612878
 21
63.53653271813983
 31
0.0
  0
LINE
  5
A6
330
1F
100
AcDbEntity
  8
0
100
AcDbLine
 10
-47.65821299852169
 20
66.63726350118486
 30
0.0
 11
-47.71553919706187
 21
66.21602602607231
 31
0.0
  0
LINE
  5
A7
330
1F
100
AcDbEntity
  8
0
100
AcDbLine
 10
-43.85331321322607
 20
62.79904449589477
 30
0.0
 11
-43.44220274522109
 21
62.90728259720369
 31
0.0
  0
LINE
  5
A8
330
1F
100
AcDbEntity
  8
0
100
AcDbLine
 10
-41.2886972662354
 20
65.34139725185301
 30
0.0
 11
-41.23137106769517
 21
65.76263472696554
 31
0.0
  0
LINE
  5
A9
330
1F
100
AcDbEntity
  8
0
100
AcDbLine
 10
-43.04873729147752
 20
63.06825539052178
 30
0.0
 11
-42.6796491549982
 21
63.27920858672523
 31
0.0
  0
LINE
  5
AA
330
1F
100
AcDbEntity
  8
0
100
AcDbLine
 10
-47.55550291169376
 20
64.95807798936148
 30
0.0
 11
-47.39453011837568
 21
64.56461253561794
 31
0.0
  0
LINE
  5
AB
330
1F
100
AcDbEntity
  8
0
100
AcDbLine
 10
-43.44220274522109
 20
62.90728259720369
 30
0.0
 11
-43.04873729147752
 21
63.06825539052178
 31
0.0
  0
LINE
  5
AC
330
1F
100
AcDbEntity
  8
0
100
AcDbLine
 10
-47.71739243837976
 20
65.79090972554403
 30
0.0
 11
-47.66374101300269
 21
65.36918845736649
 31
0.0
  0
LINE
  5
AD
330
1F
100
AcDbEntity
  8
0
100
AcDbLine
 10
-46.29082135616082
 20
63.29495104007515
 30
0.0
 11
-45.92358646099944
 21
63.08078793575032
 31
0.0
  0
LINE
  5
AE
330
1F
100
AcDbEntity
  8
0
100
AcDbLine
 10
-45.53153941675294
 20
62.91639079898736
 30
0.0
 11
-45.12138825704442
 21
62.80457251037579
 31
0.0
  0
LINE
  5
AF
330
1F
100
AcDbEntity
  8
0
100
AcDbLine
 10
50.65044666236096
 20
67.21636062352009
 30
0.0
 11
49.23711428615204
 21
68.51477758600197
 31
0.0
  0
LINE
  5
B0
330
1F
100
AcDbEntity
  8
0
100
AcDbLine
 10
49.23711428615204
 20
68.51477758600197
 30
0.0
 11
48.31906310268594
 21
68.81203111007117
 31
0.0
  0
LINE
  5
B1
330
1F
100
AcDbEntity
  8
0
100
AcDbLine
 10
41.71079075019816
 20
66.65280864992822
 30
0.0
 11
42.73772840566178
 21
66.06185539862466
 31
0.0
  0
LINE
  5
B2
330
1F
100
AcDbEntity
  8
0
100
AcDbLine
 10
48.95046181500972
 20
67.52124690569663
 30
0.0
 11
50.65044666236096
 21
67.21636062352009
 31
0.0
  0
LINE
  5
B3
330
1F
100
AcDbEntity
  8
0
100
AcDbLine
 10
42.5033254670103
 20
65.94635448288226
 30
0.0
 11
41.23289528425533
 21
59.79562357471787
 31
0.0
  0
LINE
  5
B4
330
1F
100
AcDbEntity
  8
0
100
AcDbLine
 10
42.68481549311823
 20
71.40971311926899
 30
0.0
 11
34.90109839210035
 21
71.92450024939735
 31
0.0
  0
LINE
  5
B5
330
1F
100
AcDbEntity
  8
0
100
AcDbLine
 10
44.37377524542555
 20
63.10908867753736
 30
0.0
 11
44.67145281161179
 21
63.29185082999641
 31
0.0
  0
LINE
  5
B6
330
1F
100
AcDbEntity
  8
0
100
AcDbLine
 10
42.5033254670103
 20
65.94635448288226
 30
0.0
 11
44.37377524542555
 21
63.10908867753736
 31
0.0
  0
LINE
  5
B7
330
1F
100
AcDbEntity
  8
0
100
AcDbLine
 10
45.32066129285275
 20
62.49804398683316
 30
0.0
 11
44.67145281161179
 21
63.29185082999641
 31
0.0
  0
LINE
  5
B8
330
1F
100
AcDbEntity
  8
0
100
AcDbLine
 10
48.33941712430553
 20
65.15381976607021
 30
0.0
 11
48.95046181500972
 21
67.52124690569663
 31
0.0
  0
LINE
  5
B9
330
1F
100
AcDbEntity
  8
0
100
AcDbLine
 10
44.94792827194431
 20
64.78999162962035
 30
0.0
 11
48.30040524953462
 21
65.43029522640269
 31
0.0
  0
LINE
  5
BA
330
1F
100
AcDbEntity
  8
0
100
AcDbLine
 10
48.31906310268594
 20
68.81203111007117
 30
0.0
 11
46.13509645469942
 21
67.73589209387771
 31
0.0
  0
LINE
  5
BB
330
1F
100
AcDbEntity
  8
0
100
AcDbLine
 10
41.23289528425533
 20
59.79562357471787
 30
0.0
 11
45.32066129285275
 21
62.49804398683316
 31
0.0
  0
LINE
  5
BC
330
1F
100
AcDbEntity
  8
0
100
AcDbLine
 10
42.68481549311823
 20
71.40971311926899
 30
0.0
 11
41.71079075019816
 21
66.65280864992822
 31
0.0
  0
LINE
  5
BD
330
1F
100
AcDbEntity
  8
0
100
AcDbLine
 10
34.84385270629519
 20
71.04588498281915
 30
0.0
 11
39.1834997324348
 21
68.60891493599252
 31
0.0
  0
LINE
  5
BE
330
1F
100
AcDbEntity
  8
0
100
AcDbLine
 10
49.23711428615204
 20
68.51477758600197
 30
0.0
 11
48.95046181500972
 21
67.52124690569663
 31
0.0
  0
LINE
  5
BF
330
1F
100
AcDbEntity
  8
0
100
AcDbLine
 10
48.30040524953462
 20
65.43029522640269
 30
0.0
 11
46.13509645469942
 21
67.73589209387771
 31
0.0
  0
LINE
  5
C0
330
1F
100
AcDbEntity
  8
0
100
AcDbLine
 10
36.03668318162543
 20
71.04588498281915
 30
0.0
 11
34.84385270629519
 21
71.04588498281915
 31
0.0
  0
LINE
  5
C1
330
1F
100
AcDbEntity
  8
0
100
AcDbLine
 10
34.90109839210035
 20
71.92450024939735
 30
0.0
 11
36.03668318162543
 21
71.04588498281915
 31
0.0
  0
LINE
  5
C2
330
1F
100
AcDbEntity
  8
0
100
AcDbLine
 10
36.03668318162543
 20
71.04588498281915
 30
0.0
 11
39.1834997324348
 21
68.60891493599252
 31
0.0
  0
LINE
  5
C3
330
1F
100
AcDbEntity
  8
0
100
AcDbLine
 10
44.67145281161179
 20
63.29185082999641
 30
0.0
 11
44.74735635056813
 21
63.33001462053314
 31
0.0
  0
LINE
  5
C4
330
1F
100
AcDbEntity
  8
0
100
AcDbLine
 10
42.73772840566178
 20
66.06185539862466
 30
0.0
 11
42.5033254670103
 21
65.94635448288226
 31
0.0
  0
LINE
  5
C5
330
1F
100
AcDbEntity
  8
0
100
AcDbLine
 10
46.13509645469942
 20
67.73589209387771
 30
0.0
 11
42.73772840566178
 21
66.06185539862466
 31
0.0
  0
LINE
  5
C6
330
1F
100
AcDbEntity
  8
0
100
AcDbLine
 10
46.13509645469942
 20
67.73589209387771
 30
0.0
 11
42.68481549311823
 21
71.40971311926899
 31
0.0
  0
LINE
  5
C7
330
1F
100
AcDbEntity
  8
0
100
AcDbLine
 10
44.74735635056813
 20
63.33001462053314
 30
0.0
 11
48.33941712430553
 21
65.15381976607021
 31
0.0
  0
LINE
  5
C8
330
1F
100
AcDbEntity
  8
0
100
AcDbLine
 10
39.1834997324348
 20
68.60891493599252
 30
0.0
 11
41.71079075019816
 21
66.65280864992822
 31
0.0
  0
LINE
  5
C9
330
1F
100
AcDbEntity
  8
0
100
AcDbLine
 10
42.73772840566178
 20
66.06185539862466
 30
0.0
 11
44.94792827194431
 21
64.78999162962035
 31
0.0
  0
LINE
  5
CA
330
1F
100
AcDbEntity
  8
0
100
AcDbLine
 10
-18.07921481343903
 20
67.98773239438697
 30
0.0
 11
-18.07921481343903
 21
62.53099195173104
 31
0.0
  0
LINE
  5
CB
330
1F
100
AcDbEntity
  8
0
100
AcDbLine
 10
-18.07921481343903
 20
62.53099195173104
 30
0.0
 11
-16.85386270076297
 21
62.53099195173104
 31
0.0
  0
LINE
  5
CC
330
1F
100
AcDbEntity
  8
0
100
AcDbLine
 10
-16.85386270076297
 20
62.53099195173104
 30
0.0
 11
-16.85386270076297
 21
60.81670623744532
 31
0.0
  0
LINE
  5
CD
330
1F
100
AcDbEntity
  8
0
100
AcDbLine
 10
-16.85386270076297
 20
60.81670623744532
 30
0.0
 11
-18.08525103074285
 21
60.81670623744532
 31
0.0
  0
LINE
  5
CE
330
1F
100
AcDbEntity
  8
0
100
AcDbLine
 10
-18.08525103074285
 20
60.81670623744532
 30
0.0
 11
-18.08525103074285
 21
59.33179678070488
 31
0.0
  0
LINE
  5
CF
330
1F
100
AcDbEntity
  8
0
100
AcDbLine
 10
-18.08525103074285
 20
59.33179678070488
 30
0.0
 11
-20.34883251967646
 21
59.33179678070488
 31
0.0
  0
LINE
  5
D0
330
1F
100
AcDbEntity
  8
0
100
AcDbLine
 10
-20.34883251967646
 20
59.33179678070488
 30
0.0
 11
-20.34883251967646
 21
60.81670623744532
 31
0.0
  0
LINE
  5
D1
330
1F
100
AcDbEntity
  8
0
100
AcDbLine
 10
-20.34883251967646
 20
60.81670623744532
 30
0.0
 11
-24.01281642309698
 21
60.81670623744532
 31
0.0
  0
LINE
  5
D2
330
1F
100
AcDbEntity
  8
0
100
AcDbLine
 10
-24.01281642309698
 20
60.81670623744532
 30
0.0
 11
-24.01281642309698
 21
62.59739034207308
 31
0.0
  0
LINE
  5
D3
330
1F
100
AcDbEntity
  8
0
100
AcDbLine
 10
-24.01281642309698
 20
62.59739034207308
 30
0.0
 11
-23.04928523597425
 21
63.7970885312079
 31
0.0
  0
LINE
  5
D4
330
1F
100
AcDbEntity
  8
0
100
AcDbLine
 10
-23.04928523597425
 20
63.7970885312079
 30
0.0
 11
-22.09028121182937
 21
65.17485513080547
 31
0.0
  0
LINE
  5
D5
330
1F
100
AcDbEntity
  8
0
100
AcDbLine
 10
-22.09028121182937
 20
65.17485513080547
 30
0.0
 11
-21.22332950156781
 21
66.61147484911535
 31
0.0
  0
LINE
  5
D6
330
1F
100
AcDbEntity
  8
0
100
AcDbLine
 10
-21.22332950156781
 20
66.61147484911535
 30
0.0
 11
-20.53595525609497
 21
67.98773239438697
 31
0.0
  0
LINE
  5
D7
330
1F
100
AcDbEntity
  8
0
100
AcDbLine
 10
-20.53595525609497
 20
67.98773239438697
 30
0.0
 11
-18.07921481343903
 21
67.98773239438697
 31
0.0
  0
LINE
  5
D8
330
1F
100
AcDbEntity
  8
0
100
AcDbLine
 10
-20.35486873698028
 20
62.53099195173104
 30
0.0
 11
-20.35486873698028
 21
65.06620321933667
 31
0.0
  0
LINE
  5
D9
330
1F
100
AcDbEntity
  8
0
100
AcDbLine
 10
-20.35486873698028
 20
65.06620321933667
 30
0.0
 11
-21.01432547742294
 21
63.81972434609723
 31
0.0
  0
LINE
  5
DA
330
1F
100
AcDbEntity
  8
0
100
AcDbLine
 10
-21.01432547742294
 20
63.81972434609723
 30
0.0
 11
-21.88203171484748
 21
62.53099195173104
 31
0.0
  0
LINE
  5
DB
330
1F
100
AcDbEntity
  8
0
100
AcDbLine
 10
-21.88203171484748
 20
62.53099195173104
 30
0.0
 11
-20.35486873698028
 21
62.53099195173104
 31
0.0
  0
LINE
  5
DC
330
1F
100
AcDbEntity
  8
0
100
AcDbLine
 10
-7.980623264143256
 20
59.33179678070488
 30
0.0
 11
-7.980623264143256
 21
62.89316498996042
 31
0.0
  0
LINE
  5
DD
330
1F
100
AcDbEntity
  8
0
100
AcDbLine
 10
-7.980623264143256
 20
62.89316498996042
 30
0.0
 11
-8.020613203781085
 21
63.28325553321996
 31
0.0
  0
LINE
  5
DE
330
1F
100
AcDbEntity
  8
0
100
AcDbLine
 10
-8.020613203781085
 20
63.28325553321996
 30
0.0
 11
-8.140583022694566
 21
63.56016700203284
 31
0.0
  0
LINE
  5
DF
330
1F
100
AcDbEntity
  8
0
100
AcDbLine
 10
-8.140583022694566
 20
63.56016700203284
 30
0.0
 11
-8.351096101165389
 21
63.725408450725
 31
0.0
  0
LINE
  5
E0
330
1F
100
AcDbEntity
  8
0
100
AcDbLine
 10
-8.351096101165389
 20
63.725408450725
 30
0.0
 11
-8.662715819475249
 21
63.78048893362239
 31
0.0
  0
LINE
  5
E1
330
1F
100
AcDbEntity
  8
0
100
AcDbLine
 10
-8.662715819475249
 20
63.78048893362239
 30
0.0
 11
-8.979617227925951
 21
63.71333601611736
 31
0.0
  0
LINE
  5
E2
330
1F
100
AcDbEntity
  8
0
100
AcDbLine
 10
-8.979617227925951
 20
63.71333601611736
 30
0.0
 11
-9.21804781142696
 21
63.51187726360227
 31
0.0
  0
LINE
  5
E3
330
1F
100
AcDbEntity
  8
0
100
AcDbLine
 10
-9.21804781142696
 20
63.51187726360227
 30
0.0
 11
-9.367444189696577
 21
63.19120321933667
 31
0.0
  0
LINE
  5
E4
330
1F
100
AcDbEntity
  8
0
100
AcDbLine
 10
-9.367444189696577
 20
63.19120321933667
 30
0.0
 11
-9.417242982453116
 21
62.76640442658012
 31
0.0
  0
LINE
  5
E5
330
1F
100
AcDbEntity
  8
0
100
AcDbLine
 10
-9.417242982453116
 20
62.76640442658012
 30
0.0
 11
-9.417242982453116
 21
59.33179678070488
 31
0.0
  0
LINE
  5
E6
330
1F
100
AcDbEntity
  8
0
100
AcDbLine
 10
-9.417242982453116
 20
59.33179678070488
 30
0.0
 11
-11.98867155388169
 21
59.33179678070488
 31
0.0
  0
LINE
  5
E7
330
1F
100
AcDbEntity
  8
0
100
AcDbLine
 10
-11.98867155388169
 20
59.33179678070488
 30
0.0
 11
-11.98867155388169
 21
62.83280281692218
 31
0.0
  0
LINE
  5
E8
330
1F
100
AcDbEntity
  8
0
100
AcDbLine
 10
-11.98867155388169
 20
62.83280281692218
 30
0.0
 11
-12.02903875710101
 21
63.24741549297852
 31
0.0
  0
LINE
  5
E9
330
1F
100
AcDbEntity
  8
0
100
AcDbLine
 10
-12.02903875710101
 20
63.24741549297852
 30
0.0
 11
-12.15014036675895
 21
63.54356740444733
 31
0.0
  0
LINE
  5
EA
330
1F
100
AcDbEntity
  8
0
100
AcDbLine
 10
-12.15014036675895
 20
63.54356740444733
 30
0.0
 11
-12.35197638285553
 21
63.72125855132862
 31
0.0
  0
LINE
  5
EB
330
1F
100
AcDbEntity
  8
0
100
AcDbLine
 10
-12.35197638285553
 20
63.72125855132862
 30
0.0
 11
-12.63454680539074
 21
63.78048893362239
 31
0.0
  0
LINE
  5
EC
330
1F
100
AcDbEntity
  8
0
100
AcDbLine
 10
-12.63454680539074
 20
63.78048893362239
 30
0.0
 11
-12.97861119170865
 21
63.7118269617914
 31
0.0
  0
LINE
  5
ED
330
1F
100
AcDbEntity
  8
0
100
AcDbLine
 10
-12.97861119170865
 20
63.7118269617914
 30
0.0
 11
-13.22609610116539
 21
63.50584104629844
 31
0.0
  0
LINE
  5
EE
330
1F
100
AcDbEntity
  8
0
100
AcDbLine
 10
-13.22609610116539
 20
63.50584104629844
 30
0.0
 11
-13.37549247943501
 21
63.17158551309925
 31
0.0
  0
LINE
  5
EF
330
1F
100
AcDbEntity
  8
0
100
AcDbLine
 10
-13.37549247943501
 20
63.17158551309925
 30
0.0
 11
-13.42529127219155
 21
62.71811468814955
 31
0.0
  0
LINE
  5
F0
330
1F
100
AcDbEntity
  8
0
100
AcDbLine
 10
-13.42529127219155
 20
62.71811468814955
 30
0.0
 11
-13.42529127219155
 21
59.33179678070488
 31
0.0
  0
LINE
  5
F1
330
1F
100
AcDbEntity
  8
0
100
AcDbLine
 10
-13.42529127219155
 20
59.33179678070488
 30
0.0
 11
-15.99671984362012
 21
59.33179678070488
 31
0.0
  0
LINE
  5
F2
330
1F
100
AcDbEntity
  8
0
100
AcDbLine
 10
-15.99671984362012
 20
59.33179678070488
 30
0.0
 11
-15.99671984362012
 21
65.51288329981956
 31
0.0
  0
LINE
  5
F3
330
1F
100
AcDbEntity
  8
0
100
AcDbLine
 10
-15.99671984362012
 20
65.51288329981956
 30
0.0
 11
-13.42529127219155
 21
65.51288329981956
 31
0.0
  0
LINE
  5
F4
330
1F
100
AcDbEntity
  8
0
100
AcDbLine
 10
-13.42529127219155
 20
65.51288329981956
 30
0.0
 11
-13.42529127219155
 21
64.53501609660024
 31
0.0
  0
LINE
  5
F5
330
1F
100
AcDbEntity
  8
0
100
AcDbLine
 10
-13.40114640297626
 20
64.53501609660024
 30
0.0
 11
-12.9393757792338
 21
65.06318511068476
 31
0.0
  0
LINE
  5
F6
330
1F
100
AcDbEntity
  8
0
100
AcDbLine
 10
-12.9393757792338
 20
65.06318511068476
 30
0.0
 11
-12.22408402873078
 21
65.49779275656002
 31
0.0
  0
LINE
  5
F7
330
1F
100
AcDbEntity
  8
0
100
AcDbLine
 10
-12.22408402873078
 20
65.49779275656002
 30
0.0
 11
-11.80909408909296
 21
65.62228973845136
 31
0.0
  0
LINE
  5
F8
330
1F
100
AcDbEntity
  8
0
100
AcDbLine
 10
-11.80909408909296
 20
65.62228973845136
 30
0.0
 11
-11.3609049542841
 21
65.66378873241514
 31
0.0
  0
LINE
  5
F9
330
1F
100
AcDbEntity
  8
0
100
AcDbLine
 10
-11.3609049542841
 20
65.66378873241514
 30
0.0
 11
-10.75501964241288
 21
65.59889939639903
 31
0.0
  0
LINE
  5
FA
330
1F
100
AcDbEntity
  8
0
100
AcDbLine
 10
-10.75501964241288
 20
65.59889939639903
 30
0.0
 11
-10.25325907903259
 21
65.40423138835075
 31
0.0
  0
LINE
  5
FB
330
1F
100
AcDbEntity
  8
0
100
AcDbLine
 10
-10.25325907903259
 20
65.40423138835075
 30
0.0
 11
-9.840532720883699
 21
65.06922132798859
 31
0.0
  0
LINE
  5
FC
330
1F
100
AcDbEntity
  8
0
100
AcDbLine
 10
-9.840532720883699
 20
65.06922132798859
 30
0.0
 11
-9.501750024706636
 21
64.58330583503083
 31
0.0
  0
LINE
  5
FD
330
1F
100
AcDbEntity
  8
0
100
AcDbLine
 10
-9.501750024706636
 20
64.58330583503083
 30
0.0
 11
-9.12146833456579
 21
65.04281287728436
 31
0.0
  0
LINE
  5
FE
330
1F
100
AcDbEntity
  8
0
100
AcDbLine
 10
-9.12146833456579
 20
65.04281287728436
 30
0.0
 11
-8.632534732956135
 21
65.38310462778736
 31
0.0
  0
LINE
  5
FF
330
1F
100
AcDbEntity
  8
0
100
AcDbLine
 10
-8.632534732956135
 20
65.38310462778736
 30
0.0
 11
-8.059094089092953
 21
65.5936177062582
 31
0.0
  0
LINE
  5
100
330
1F
100
AcDbEntity
  8
0
100
AcDbLine
 10
-8.059094089092953
 20
65.5936177062582
 30
0.0
 11
-7.425291272191545
 21
65.66378873241514
 31
0.0
  0
LINE
  5
101
330
1F
100
AcDbEntity
  8
0
100
AcDbLine
 10
-7.425291272191545
 20
65.66378873241514
 30
0.0
 11
-6.96767054784547
 21
65.62417605635879
 31
0.0
  0
LINE
  5
102
330
1F
100
AcDbEntity
  8
0
100
AcDbLine
 10
-6.96767054784547
 20
65.62417605635879
 30
0.0
 11
-6.566639360722731
 21
65.50533802818978
 31
0.0
  0
LINE
  5
103
330
1F
100
AcDbEntity
  8
0
100
AcDbLine
 10
-6.566639360722731
 20
65.50533802818978
 30
0.0
 11
-6.222197710823335
 21
65.3072746479081
 31
0.0
  0
LINE
  5
104
330
1F
100
AcDbEntity
  8
0
100
AcDbLine
 10
-6.222197710823335
 20
65.3072746479081
 30
0.0
 11
-5.934345598147281
 21
65.02998591551373
 31
0.0
  0
LINE
  5
105
330
1F
100
AcDbEntity
  8
0
100
AcDbLine
 10
-5.934345598147281
 20
65.02998591551373
 30
0.0
 11
-5.707232922090943
 21
64.67799899398456
 31
0.0
  0
LINE
  5
106
330
1F
100
AcDbEntity
  8
0
100
AcDbLine
 10
-5.707232922090943
 20
64.67799899398456
 30
0.0
 11
-5.545009582050703
 21
64.25584104629843
 31
0.0
  0
LINE
  5
107
330
1F
100
AcDbEntity
  8
0
100
AcDbLine
 10
-5.545009582050703
 20
64.25584104629843
 30
0.0
 11
-5.447675578026558
 21
63.76351207245538
 31
0.0
  0
LINE
  5
108
330
1F
100
AcDbEntity
  8
0
100
AcDbLine
 10
-5.447675578026558
 20
63.76351207245538
 30
0.0
 11
-5.41523091001851
 21
63.20101207245538
 31
0.0
  0
LINE
  5
109
330
1F
100
AcDbEntity
  8
0
100
AcDbLine
 10
-5.41523091001851
 20
63.20101207245538
 30
0.0
 11
-5.41523091001851
 21
59.33179678070488
 31
0.0
  0
LINE
  5
10A
330
1F
100
AcDbEntity
  8
0
100
AcDbLine
 10
-5.41523091001851
 20
59.33179678070488
 30
0.0
 11
-7.980623264143256
 21
59.33179678070488
 31
0.0
  0
LINE
  5
10B
330
1F
100
AcDbEntity
  8
0
100
AcDbLine
 10
3.765855609096179
 20
59.33179678070488
 30
0.0
 11
3.765855609096179
 21
62.89316498996042
 31
0.0
  0
LINE
  5
10C
330
1F
100
AcDbEntity
  8
0
100
AcDbLine
 10
3.765855609096179
 20
62.89316498996042
 30
0.0
 11
3.725865669458354
 21
63.28325553321996
 31
0.0
  0
LINE
  5
10D
330
1F
100
AcDbEntity
  8
0
100
AcDbLine
 10
3.725865669458354
 20
63.28325553321996
 30
0.0
 11
3.605895850544871
 21
63.56016700203284
 31
0.0
  0
LINE
  5
10E
330
1F
100
AcDbEntity
  8
0
100
AcDbLine
 10
3.605895850544871
 20
63.56016700203284
 30
0.0
 11
3.395382772074043
 21
63.725408450725
 31
0.0
  0
LINE
  5
10F
330
1F
100
AcDbEntity
  8
0
100
AcDbLine
 10
3.395382772074043
 20
63.725408450725
 30
0.0
 11
3.08376305376419
 21
63.78048893362239
 31
0.0
  0
LINE
  5
110
330
1F
100
AcDbEntity
  8
0
100
AcDbLine
 10
3.08376305376419
 20
63.78048893362239
 30
0.0
 11
2.766861645313482
 21
63.71333601611736
 31
0.0
  0
LINE
  5
111
330
1F
100
AcDbEntity
  8
0
100
AcDbLine
 10
2.766861645313482
 20
63.71333601611736
 30
0.0
 11
2.528431061812477
 21
63.51187726360227
 31
0.0
  0
LINE
  5
112
330
1F
100
AcDbEntity
  8
0
100
AcDbLine
 10
2.528431061812477
 20
63.51187726360227
 30
0.0
 11
2.379034683542861
 21
63.19120321933667
 31
0.0
  0
LINE
  5
113
330
1F
100
AcDbEntity
  8
0
100
AcDbLine
 10
2.379034683542861
 20
63.19120321933667
 30
0.0
 11
2.329235890786323
 21
62.76640442658012
 31
0.0
  0
LINE
  5
114
330
1F
100
AcDbEntity
  8
0
100
AcDbLine
 10
2.329235890786323
 20
62.76640442658012
 30
0.0
 11
2.329235890786323
 21
59.33179678070488
 31
0.0
  0
LINE
  5
115
330
1F
100
AcDbEntity
  8
0
100
AcDbLine
 10
2.329235890786323
 20
59.33179678070488
 30
0.0
 11
-0.2421926806422506
 21
59.33179678070488
 31
0.0
  0
LINE
  5
116
330
1F
100
AcDbEntity
  8
0
100
AcDbLine
 10
-0.2421926806422506
 20
59.33179678070488
 30
0.0
 11
-0.2421926806422506
 21
62.83280281692218
 31
0.0
  0
LINE
  5
117
330
1F
100
AcDbEntity
  8
0
100
AcDbLine
 10
-0.2421926806422506
 20
62.83280281692218
 30
0.0
 11
-0.2825598838615663
 21
63.24741549297852
 31
0.0
  0
LINE
  5
118
330
1F
100
AcDbEntity
  8
0
100
AcDbLine
 10
-0.2825598838615663
 20
63.24741549297852
 30
0.0
 11
-0.4036614935195136
 21
63.54356740444733
 31
0.0
  0
LINE
  5
119
330
1F
100
AcDbEntity
  8
0
100
AcDbLine
 10
-0.4036614935195136
 20
63.54356740444733
 30
0.0
 11
-0.6054975096160925
 21
63.72125855132862
 31
0.0
  0
LINE
  5
11A
330
1F
100
AcDbEntity
  8
0
100
AcDbLine
 10
-0.6054975096160925
 20
63.72125855132862
 30
0.0
 11
-0.8880679321513058
 21
63.78048893362239
 31
0.0
  0
LINE
  5
11B
330
1F
100
AcDbEntity
  8
0
100
AcDbLine
 10
-0.8880679321513058
 20
63.78048893362239
 30
0.0
 11
-1.232132318469212
 21
63.7118269617914
 31
0.0
  0
LINE
  5
11C
330
1F
100
AcDbEntity
  8
0
100
AcDbLine
 10
-1.232132318469212
 20
63.7118269617914
 30
0.0
 11
-1.479617227925953
 21
63.50584104629844
 31
0.0
  0
LINE
  5
11D
330
1F
100
AcDbEntity
  8
0
100
AcDbLine
 10
-1.479617227925953
 20
63.50584104629844
 30
0.0
 11
-1.629013606195572
 21
63.17158551309925
 31
0.0
  0
LINE
  5
11E
330
1F
100
AcDbEntity
  8
0
100
AcDbLine
 10
-1.629013606195572
 20
63.17158551309925
 30
0.0
 11
-1.67881239895211
 21
62.71811468814955
 31
0.0
  0
LINE
  5
11F
330
1F
100
AcDbEntity
  8
0
100
AcDbLine
 10
-1.67881239895211
 20
62.71811468814955
 30
0.0
 11
-1.67881239895211
 21
59.33179678070488
 31
0.0
  0
LINE
  5
120
330
1F
100
AcDbEntity
  8
0
100
AcDbLine
 10
-1.67881239895211
 20
59.33179678070488
 30
0.0
 11
-4.25024097038068
 21
59.33179678070488
 31
0.0
  0
LINE
  5
121
330
1F
100
AcDbEntity
  8
0
100
AcDbLine
 10
-4.25024097038068
 20
59.33179678070488
 30
0.0
 11
-4.25024097038068
 21
65.51288329981956
 31
0.0
  0
LINE
  5
122
330
1F
100
AcDbEntity
  8
0
100
AcDbLine
 10
-4.25024097038068
 20
65.51288329981956
 30
0.0
 11
-1.67881239895211
 21
65.51288329981956
 31
0.0
  0
LINE
  5
123
330
1F
100
AcDbEntity
  8
0
100
AcDbLine
 10
-1.67881239895211
 20
65.51288329981956
 30
0.0
 11
-1.67881239895211
 21
64.53501609660024
 31
0.0
  0
LINE
  5
124
330
1F
100
AcDbEntity
  8
0
100
AcDbLine
 10
-1.654667529736818
 20
64.53501609660024
 30
0.0
 11
-1.192896905994363
 21
65.06318511068476
 31
0.0
  0
LINE
  5
125
330
1F
100
AcDbEntity
  8
0
100
AcDbLine
 10
-1.192896905994363
 20
65.06318511068476
 30
0.0
 11
-0.4776051554913442
 21
65.49779275656002
 31
0.0
  0
LINE
  5
126
330
1F
100
AcDbEntity
  8
0
100
AcDbLine
 10
-0.4776051554913442
 20
65.49779275656002
 30
0.0
 11
-0.0626152158535163
 21
65.62228973845136
 31
0.0
  0
LINE
  5
127
330
1F
100
AcDbEntity
  8
0
100
AcDbLine
 10
-0.0626152158535163
 20
65.62228973845136
 30
0.0
 11
0.3855739189553334
 21
65.66378873241514
 31
0.0
  0
LINE
  5
128
330
1F
100
AcDbEntity
  8
0
100
AcDbLine
 10
0.3855739189553334
 20
65.66378873241514
 30
0.0
 11
0.9914592308265628
 21
65.59889939639903
 31
0.0
  0
LINE
  5
129
330
1F
100
AcDbEntity
  8
0
100
AcDbLine
 10
0.9914592308265628
 20
65.59889939639903
 30
0.0
 11
1.493219794206843
 21
65.40423138835075
 31
0.0
  0
LINE
  5
12A
330
1F
100
AcDbEntity
  8
0
100
AcDbLine
 10
1.493219794206843
 20
65.40423138835075
 30
0.0
 11
1.905946152355739
 21
65.06922132798859
 31
0.0
  0
LINE
  5
12B
330
1F
100
AcDbEntity
  8
0
100
AcDbLine
 10
1.905946152355739
 20
65.06922132798859
 30
0.0
 11
2.244728848532802
 21
64.58330583503083
 31
0.0
  0
LINE
  5
12C
330
1F
100
AcDbEntity
  8
0
100
AcDbLine
 10
2.244728848532802
 20
64.58330583503083
 30
0.0
 11
2.625010538673645
 21
65.04281287728436
 31
0.0
  0
LINE
  5
12D
330
1F
100
AcDbEntity
  8
0
100
AcDbLine
 10
2.625010538673645
 20
65.04281287728436
 30
0.0
 11
3.113944140283303
 21
65.38310462778736
 31
0.0
  0
LINE
  5
12E
330
1F
100
AcDbEntity
  8
0
100
AcDbLine
 10
3.113944140283303
 20
65.38310462778736
 30
0.0
 11
3.687384784146483
 21
65.5936177062582
 31
0.0
  0
LINE
  5
12F
330
1F
100
AcDbEntity
  8
0
100
AcDbLine
 10
3.687384784146483
 20
65.5936177062582
 30
0.0
 11
4.321187601047893
 21
65.66378873241514
 31
0.0
  0
LINE
  5
130
330
1F
100
AcDbEntity
  8
0
100
AcDbLine
 10
4.321187601047893
 20
65.66378873241514
 30
0.0
 11
4.778808325393968
 21
65.62417605635879
 31
0.0
  0
LINE
  5
131
330
1F
100
AcDbEntity
  8
0
100
AcDbLine
 10
4.778808325393968
 20
65.62417605635879
 30
0.0
 11
5.179839512516701
 21
65.50533802818978
 31
0.0
  0
LINE
  5
132
330
1F
100
AcDbEntity
  8
0
100
AcDbLine
 10
5.179839512516701
 20
65.50533802818978
 30
0.0
 11
5.524281162416098
 21
65.3072746479081
 31
0.0
  0
LINE
  5
133
330
1F
100
AcDbEntity
  8
0
100
AcDbLine
 10
5.524281162416098
 20
65.3072746479081
 30
0.0
 11
5.812133275092157
 21
65.02998591551373
 31
0.0
  0
LINE
  5
134
330
1F
100
AcDbEntity
  8
0
100
AcDbLine
 10
5.812133275092157
 20
65.02998591551373
 30
0.0
 11
6.039245951148495
 21
64.67799899398456
 31
0.0
  0
LINE
  5
135
330
1F
100
AcDbEntity
  8
0
100
AcDbLine
 10
6.039245951148495
 20
64.67799899398456
 30
0.0
 11
6.201469291188733
 21
64.25584104629843
 31
0.0
  0
LINE
  5
136
330
1F
100
AcDbEntity
  8
0
100
AcDbLine
 10
6.201469291188733
 20
64.25584104629843
 30
0.0
 11
6.298803295212881
 21
63.76351207245538
 31
0.0
  0
LINE
  5
137
330
1F
100
AcDbEntity
  8
0
100
AcDbLine
 10
6.298803295212881
 20
63.76351207245538
 30
0.0
 11
6.331247963220929
 21
63.20101207245538
 31
0.0
  0
LINE
  5
138
330
1F
100
AcDbEntity
  8
0
100
AcDbLine
 10
6.331247963220929
 20
63.20101207245538
 30
0.0
 11
6.331247963220929
 21
59.33179678070488
 31
0.0
  0
LINE
  5
139
330
1F
100
AcDbEntity
  8
0
100
AcDbLine
 10
6.331247963220929
 20
59.33179678070488
 30
0.0
 11
3.765855609096179
 21
59.33179678070488
 31
0.0
  0
LINE
  5
13A
330
1F
100
AcDbEntity
  8
0
100
AcDbLine
 10
-17.42126712732233
 20
44.64568008050367
 30
0.0
 11
-17.53670978325794
 21
43.83833601611735
 31
0.0
  0
LINE
  5
13B
330
1F
100
AcDbEntity
  8
0
100
AcDbLine
 10
-17.53670978325794
 20
43.83833601611735
 30
0.0
 11
-17.88303775106479
 21
43.14266197185176
 31
0.0
  0
LINE
  5
13C
330
1F
100
AcDbEntity
  8
0
100
AcDbLine
 10
-17.88303775106479
 20
43.14266197185176
 30
0.0
 11
-18.43761521585352
 21
42.58431187124814
 31
0.0
  0
LINE
  5
13D
330
1F
100
AcDbEntity
  8
0
100
AcDbLine
 10
-18.43761521585352
 20
42.58431187124814
 30
0.0
 11
-19.17780636273481
 21
42.18893963784773
 31
0.0
  0
LINE
  5
13E
330
1F
100
AcDbEntity
  8
0
100
AcDbLine
 10
-19.17780636273481
 20
42.18893963784773
 30
0.0
 11
-20.09531139291589
 21
41.95352716299864
 31
0.0
  0
LINE
  5
13F
330
1F
100
AcDbEntity
  8
0
100
AcDbLine
 10
-20.09531139291589
 20
41.95352716299864
 30
0.0
 11
-21.18183050760402
 21
41.87505633804894
 31
0.0
  0
LINE
  5
140
330
1F
100
AcDbEntity
  8
0
100
AcDbLine
 10
-21.18183050760402
 20
41.87505633804894
 30
0.0
 11
-22.48263533657786
 21
41.98974446682158
 31
0.0
  0
LINE
  5
141
330
1F
100
AcDbEntity
  8
0
100
AcDbLine
 10
-22.48263533657786
 20
41.98974446682158
 30
0.0
 11
-23.66875203677907
 21
42.33380885313949
 31
0.0
  0
LINE
  5
142
330
1F
100
AcDbEntity
  8
0
100
AcDbLine
 10
-23.66875203677907
 20
42.33380885313949
 30
0.0
 11
-23.66875203677907
 21
44.7060422535419
 31
0.0
  0
LINE
  5
143
330
1F
100
AcDbEntity
  8
0
100
AcDbLine
 10
-23.66875203677907
 20
44.7060422535419
 30
0.0
 11
-23.09682044724185
 21
44.34613279680146
 31
0.0
  0
LINE
  5
144
330
1F
100
AcDbEntity
  8
0
100
AcDbLine
 10
-23.09682044724185
 20
44.34613279680146
 30
0.0
 11
-22.46754479331831
 21
44.06318511068476
 31
0.0
  0
LINE
  5
145
330
1F
100
AcDbEntity
  8
0
100
AcDbLine
 10
-22.46754479331831
 20
44.06318511068476
 30
0.0
 11
-21.83223292209095
 21
43.87983501008114
 31
0.0
  0
LINE
  5
146
330
1F
100
AcDbEntity
  8
0
100
AcDbLine
 10
-21.83223292209095
 20
43.87983501008114
 30
0.0
 11
-21.24219268064225
 21
43.81871830987993
 31
0.0
  0
LINE
  5
147
330
1F
100
AcDbEntity
  8
0
100
AcDbLine
 10
-21.24219268064225
 20
43.81871830987993
 30
0.0
 11
-20.86191099050141
 21
43.8571991951918
 31
0.0
  0
LINE
  5
148
330
1F
100
AcDbEntity
  8
0
100
AcDbLine
 10
-20.86191099050141
 20
43.8571991951918
 30
0.0
 11
-20.57820877722173
 21
43.97264185112741
 31
0.0
  0
LINE
  5
149
330
1F
100
AcDbEntity
  8
0
100
AcDbLine
 10
-20.57820877722173
 20
43.97264185112741
 30
0.0
 11
-20.40164942108491
 21
44.16202816903485
 31
0.0
  0
LINE
  5
14A
330
1F
100
AcDbEntity
  8
0
100
AcDbLine
 10
-20.40164942108491
 20
44.16202816903485
 30
0.0
 11
-20.34279630237263
 21
44.42234004026222
 31
0.0
  0
LINE
  5
14B
330
1F
100
AcDbEntity
  8
0
100
AcDbLine
 10
-20.34279630237263
 20
44.42234004026222
 30
0.0
 11
-20.46050253979718
 21
44.79356740444733
 31
0.0
  0
LINE
  5
14C
330
1F
100
AcDbEntity
  8
0
100
AcDbLine
 10
-20.46050253979718
 20
44.79356740444733
 30
0.0
 11
-20.81663936072273
 21
45.09236016098657
 31
0.0
  0
LINE
  5
14D
330
1F
100
AcDbEntity
  8
0
100
AcDbLine
 10
-20.81663936072273
 20
45.09236016098657
 30
0.0
 11
-21.70094519573279
 21
45.47264185112741
 31
0.0
  0
LINE
  5
14E
330
1F
100
AcDbEntity
  8
0
100
AcDbLine
 10
-21.70094519573279
 20
45.47264185112741
 30
0.0
 11
-22.61467759009899
 21
45.93592152919582
 31
0.0
  0
LINE
  5
14F
330
1F
100
AcDbEntity
  8
0
100
AcDbLine
 10
-22.61467759009899
 20
45.93592152919582
 30
0.0
 11
-23.26734358607485
 21
46.52294366199261
 31
0.0
  0
LINE
  5
150
330
1F
100
AcDbEntity
  8
0
100
AcDbLine
 10
-23.26734358607485
 20
46.52294366199261
 30
0.0
 11
-23.4957766846664
 21
46.86285814891414
 31
0.0
  0
LINE
  5
151
330
1F
100
AcDbEntity
  8
0
100
AcDbLine
 10
-23.4957766846664
 20
46.86285814891414
 30
0.0
 11
-23.65894318366036
 21
47.23370824951775
 31
0.0
  0
LINE
  5
152
330
1F
100
AcDbEntity
  8
0
100
AcDbLine
 10
-23.65894318366036
 20
47.23370824951775
 30
0.0
 11
-23.75684308305674
 21
47.63549396380347
 31
0.0
  0
LINE
  5
153
330
1F
100
AcDbEntity
  8
0
100
AcDbLine
 10
-23.75684308305674
 20
47.63549396380347
 30
0.0
 11
-23.78947638285553
 21
48.06821529177127
 31
0.0
  0
LINE
  5
154
330
1F
100
AcDbEntity
  8
0
100
AcDbLine
 10
-23.78947638285553
 20
48.06821529177127
 30
0.0
 11
-23.72986873698028
 21
48.66448038231454
 31
0.0
  0
LINE
  5
155
330
1F
100
AcDbEntity
  8
0
100
AcDbLine
 10
-23.72986873698028
 20
48.66448038231454
 30
0.0
 11
-23.55104579935453
 21
49.19774245474914
 31
0.0
  0
LINE
  5
156
330
1F
100
AcDbEntity
  8
0
100
AcDbLine
 10
-23.55104579935453
 20
49.19774245474914
 30
0.0
 11
-23.25300756997827
 21
49.6680015090751
 31
0.0
  0
LINE
  5
157
330
1F
100
AcDbEntity
  8
0
100
AcDbLine
 10
-23.25300756997827
 20
49.6680015090751
 30
0.0
 11
-22.83575404885151
 21
50.0752575452924
 31
0.0
  0
LINE
  5
158
330
1F
100
AcDbEntity
  8
0
100
AcDbLine
 10
-22.83575404885151
 20
50.0752575452924
 30
0.0
 11
-22.31814841504869
 21
50.40404275656001
 31
0.0
  0
LINE
  5
159
330
1F
100
AcDbEntity
  8
0
100
AcDbLine
 10
-22.31814841504869
 20
50.40404275656001
 30
0.0
 11
-21.71905384764426
 21
50.63888933603688
 31
0.0
  0
LINE
  5
15A
330
1F
100
AcDbEntity
  8
0
100
AcDbLine
 10
-21.71905384764426
 20
50.63888933603688
 30
0.0
 11
-21.03847034663823
 21
50.77979728372299
 31
0.0
  0
LINE
  5
15B
330
1F
100
AcDbEntity
  8
0
100
AcDbLine
 10
-21.03847034663823
 20
50.77979728372299
 30
0.0
 11
-20.27639791203058
 21
50.82676659961836
 31
0.0
  0
LINE
  5
15C
330
1F
100
AcDbEntity
  8
0
100
AcDbLine
 10
-20.27639791203058
 20
50.82676659961836
 30
0.0
 11
-19.44339992410302
 21
50.79054929579542
 31
0.0
  0
LINE
  5
15D
330
1F
100
AcDbEntity
  8
0
100
AcDbLine
 10
-19.44339992410302
 20
50.79054929579542
 30
0.0
 11
-18.75225304281529
 21
50.70000603623808
 31
0.0
  0
LINE
  5
15E
330
1F
100
AcDbEntity
  8
0
100
AcDbLine
 10
-18.75225304281529
 20
50.70000603623808
 30
0.0
 11
-17.88001964241288
 21
50.49477464790809
 31
0.0
  0
LINE
  5
15F
330
1F
100
AcDbEntity
  8
0
100
AcDbLine
 10
-17.88001964241288
 20
50.49477464790809
 30
0.0
 11
-17.88001964241288
 21
48.29155533201273
 31
0.0
  0
LINE
  5
160
330
1F
100
AcDbEntity
  8
0
100
AcDbLine
 10
-17.88001964241288
 20
48.29155533201273
 30
0.0
 11
-18.96352064844909
 21
48.73974446682158
 31
0.0
  0
LINE
  5
161
330
1F
100
AcDbEntity
  8
0
100
AcDbLine
 10
-18.96352064844909
 20
48.73974446682158
 30
0.0
 11
-19.4984804070004
 21
48.85179175052379
 31
0.0
  0
LINE
  5
162
330
1F
100
AcDbEntity
  8
0
100
AcDbLine
 10
-19.4984804070004
 20
48.85179175052379
 30
0.0
 11
-20.02891300257384
 21
48.88914084509119
 31
0.0
  0
LINE
  5
163
330
1F
100
AcDbEntity
  8
0
100
AcDbLine
 10
-20.02891300257384
 20
48.88914084509119
 30
0.0
 11
-20.42126712732233
 21
48.8483963782904
 31
0.0
  0
LINE
  5
164
330
1F
100
AcDbEntity
  8
0
100
AcDbLine
 10
-20.42126712732233
 20
48.8483963782904
 30
0.0
 11
-20.7291142098173
 21
48.72616297788797
 31
0.0
  0
LINE
  5
165
330
1F
100
AcDbEntity
  8
0
100
AcDbLine
 10
-20.7291142098173
 20
48.72616297788797
 30
0.0
 11
-20.92830938084346
 21
48.53300402416564
 31
0.0
  0
LINE
  5
166
330
1F
100
AcDbEntity
  8
0
100
AcDbLine
 10
-20.92830938084346
 20
48.53300402416564
 30
0.0
 11
-20.99470777118551
 21
48.27948289740508
 31
0.0
  0
LINE
  5
167
330
1F
100
AcDbEntity
  8
0
100
AcDbLine
 10
-20.99470777118551
 20
48.27948289740508
 30
0.0
 11
-20.94113634261408
 21
48.03124346078536
 31
0.0
  0
LINE
  5
168
330
1F
100
AcDbEntity
  8
0
100
AcDbLine
 10
-20.94113634261408
 20
48.03124346078536
 30
0.0
 11
-20.7804220568998
 21
47.82978470827027
 31
0.0
  0
LINE
  5
169
330
1F
100
AcDbEntity
  8
0
100
AcDbLine
 10
-20.7804220568998
 20
47.82978470827027
 30
0.0
 11
-19.88404378728209
 21
47.36801408452781
 31
0.0
  0
LINE
  5
16A
330
1F
100
AcDbEntity
  8
0
100
AcDbLine
 10
-19.88404378728209
 20
47.36801408452781
 30
0.0
 11
-18.7348989180668
 21
46.79910060364251
 31
0.0
  0
LINE
  5
16B
330
1F
100
AcDbEntity
  8
0
100
AcDbLine
 10
-18.7348989180668
 20
46.79910060364251
 30
0.0
 11
-18.30802517561207
 21
46.49540342054392
 31
0.0
  0
LINE
  5
16C
330
1F
100
AcDbEntity
  8
0
100
AcDbLine
 10
-18.30802517561207
 20
46.49540342054392
 30
0.0
 11
-17.97961722792595
 21
46.1788792756747
 31
0.0
  0
LINE
  5
16D
330
1F
100
AcDbEntity
  8
0
100
AcDbLine
 10
-17.97961722792595
 20
46.1788792756747
 30
0.0
 11
-17.73533905891187
 21
45.84085110666061
 31
0.0
  0
LINE
  5
16E
330
1F
100
AcDbEntity
  8
0
100
AcDbLine
 10
-17.73533905891187
 20
45.84085110666061
 30
0.0
 11
-17.56085465247324
 21
45.47264185112741
 31
0.0
  0
LINE
  5
16F
330
1F
100
AcDbEntity
  8
0
100
AcDbLine
 10
-17.56085465247324
 20
45.47264185112741
 30
0.0
 11
-17.45616400861006
 21
45.0742515090751
 31
0.0
  0
LINE
  5
170
330
1F
100
AcDbEntity
  8
0
100
AcDbLine
 10
-17.45616400861006
 20
45.0742515090751
 30
0.0
 11
-17.42126712732233
 21
44.64568008050367
 31
0.0
  0
LINE
  5
171
330
1F
100
AcDbEntity
  8
0
100
AcDbLine
 10
-12.24822889794607
 20
42.11046881289803
 30
0.0
 11
-12.82166954180925
 21
41.95050905434672
 31
0.0
  0
LINE
  5
172
330
1F
100
AcDbEntity
  8
0
100
AcDbLine
 10
-12.82166954180925
 20
41.95050905434672
 30
0.0
 11
-13.7814280931171
 21
41.87505633804894
 31
0.0
  0
LINE
  5
173
330
1F
100
AcDbEntity
  8
0
100
AcDbLine
 10
-13.7814280931171
 20
41.87505633804894
 30
0.0
 11
-14.28941350559195
 21
41.91202816903485
 31
0.0
  0
LINE
  5
174
330
1F
100
AcDbEntity
  8
0
100
AcDbLine
 10
-14.28941350559195
 20
41.91202816903485
 30
0.0
 11
-14.73892306293601
 21
42.02294366199261
 31
0.0
  0
LINE
  5
175
330
1F
100
AcDbEntity
  8
0
100
AcDbLine
 10
-14.73892306293601
 20
42.02294366199261
 30
0.0
 11
-15.12995676514929
 21
42.20780281692218
 31
0.0
  0
LINE
  5
176
330
1F
100
AcDbEntity
  8
0
100
AcDbLine
 10
-15.12995676514929
 20
42.20780281692218
 30
0.0
 11
-15.46251461223179
 21
42.46660563382359
 31
0.0
  0
LINE
  5
177
330
1F
100
AcDbEntity
  8
0
100
AcDbLine
 10
-15.46251461223179
 20
42.46660563382359
 30
0.0
 11
-15.72791954180925
 21
42.79369315897449
 31
0.0
  0
LINE
  5
178
330
1F
100
AcDbEntity
  8
0
100
AcDbLine
 10
-15.72791954180925
 20
42.79369315897449
 30
0.0
 11
-15.91749449150744
 21
43.18340643865257
 31
0.0
  0
LINE
  5
179
330
1F
100
AcDbEntity
  8
0
100
AcDbLine
 10
-15.91749449150744
 20
43.18340643865257
 30
0.0
 11
-16.03123946132636
 21
43.6357454728578
 31
0.0
  0
LINE
  5
17A
330
1F
100
AcDbEntity
  8
0
100
AcDbLine
 10
-16.03123946132636
 20
43.6357454728578
 30
0.0
 11
-16.06915445126599
 21
44.15071026159019
 31
0.0
  0
LINE
  5
17B
330
1F
100
AcDbEntity
  8
0
100
AcDbLine
 10
-16.06915445126599
 20
44.15071026159019
 30
0.0
 11
-16.06915445126599
 21
46.42636418513143
 31
0.0
  0
LINE
  5
17C
330
1F
100
AcDbEntity
  8
0
100
AcDbLine
 10
-16.06915445126599
 20
46.42636418513143
 30
0.0
 11
-17.04098543718149
 21
46.42636418513143
 31
0.0
  0
LINE
  5
17D
330
1F
100
AcDbEntity
  8
0
100
AcDbLine
 10
-17.04098543718149
 20
46.42636418513143
 30
0.0
 11
-17.04098543718149
 21
48.20704828975921
 31
0.0
  0
LINE
  5
17E
330
1F
100
AcDbEntity
  8
0
100
AcDbLine
 10
-17.04098543718149
 20
48.20704828975921
 30
0.0
 11
-16.06915445126599
 21
48.20704828975921
 31
0.0
  0
LINE
  5
17F
330
1F
100
AcDbEntity
  8
0
100
AcDbLine
 10
-16.06915445126599
 20
48.20704828975921
 30
0.0
 11
-16.06915445126599
 21
49.42032796782761
 31
0.0
  0
LINE
  5
180
330
1F
100
AcDbEntity
  8
0
100
AcDbLine
 10
-16.06915445126599
 20
49.42032796782761
 30
0.0
 11
-13.53394318366036
 21
50.12052917507108
 31
0.0
  0
LINE
  5
181
330
1F
100
AcDbEntity
  8
0
100
AcDbLine
 10
-13.53394318366036
 20
50.12052917507108
 30
0.0
 11
-13.53394318366036
 21
48.20704828975921
 31
0.0
  0
LINE
  5
182
330
1F
100
AcDbEntity
  8
0
100
AcDbLine
 10
-13.53394318366036
 20
48.20704828975921
 30
0.0
 11
-12.24822889794607
 21
48.20704828975921
 31
0.0
  0
LINE
  5
183
330
1F
100
AcDbEntity
  8
0
100
AcDbLine
 10
-12.24822889794607
 20
48.20704828975921
 30
0.0
 11
-12.24822889794607
 21
46.42636418513143
 31
0.0
  0
LINE
  5
184
330
1F
100
AcDbEntity
  8
0
100
AcDbLine
 10
-12.24822889794607
 20
46.42636418513143
 30
0.0
 11
-13.53394318366036
 21
46.42636418513143
 31
0.0
  0
LINE
  5
185
330
1F
100
AcDbEntity
  8
0
100
AcDbLine
 10
-13.53394318366036
 20
46.42636418513143
 30
0.0
 11
-13.53394318366036
 21
44.57324547285779
 31
0.0
  0
LINE
  5
186
330
1F
100
AcDbEntity
  8
0
100
AcDbLine
 10
-13.53394318366036
 20
44.57324547285779
 30
0.0
 11
-13.49357598044104
 21
44.21673138835075
 31
0.0
  0
LINE
  5
187
330
1F
100
AcDbEntity
  8
0
100
AcDbLine
 10
-13.49357598044104
 20
44.21673138835075
 30
0.0
 11
-13.3724743707831
 21
43.96207847084573
 31
0.0
  0
LINE
  5
188
330
1F
100
AcDbEntity
  8
0
100
AcDbLine
 10
-13.3724743707831
 20
43.96207847084573
 30
0.0
 11
-13.17063835468652
 21
43.8092867203427
 31
0.0
  0
LINE
  5
189
330
1F
100
AcDbEntity
  8
0
100
AcDbLine
 10
-13.17063835468652
 20
43.8092867203427
 30
0.0
 11
-12.8880679321513
 21
43.7583561368417
 31
0.0
  0
LINE
  5
18A
330
1F
100
AcDbEntity
  8
0
100
AcDbLine
 10
-12.8880679321513
 20
43.7583561368417
 30
0.0
 11
-12.24822889794607
 21
43.8911529175258
 31
0.0
  0
LINE
  5
18B
330
1F
100
AcDbEntity
  8
0
100
AcDbLine
 10
-12.24822889794607
 20
43.8911529175258
 30
0.0
 11
-12.24822889794607
 21
42.11046881289803
 31
0.0
  0
LINE
  5
18C
330
1F
100
AcDbEntity
  8
0
100
AcDbLine
 10
-6.797524672593962
 20
46.00382897386383
 30
0.0
 11
-7.189878797342452
 21
46.12455331994029
 31
0.0
  0
LINE
  5
18D
330
1F
100
AcDbEntity
  8
0
100
AcDbLine
 10
-7.189878797342452
 20
46.12455331994029
 30
0.0
 11
-7.60034157400241
 21
46.1788792756747
 31
0.0
  0
LINE
  5
18E
330
1F
100
AcDbEntity
  8
0
100
AcDbLine
 10
-7.60034157400241
 20
46.1788792756747
 30
0.0
 11
-8.157559883861568
 21
46.0868269617914
 31
0.0
  0
LINE
  5
18F
330
1F
100
AcDbEntity
  8
0
100
AcDbLine
 10
-8.157559883861568
 20
46.0868269617914
 30
0.0
 11
-8.555572962332393
 21
45.81067002014149
 31
0.0
  0
LINE
  5
190
330
1F
100
AcDbEntity
  8
0
100
AcDbLine
 10
-8.555572962332393
 20
45.81067002014149
 30
0.0
 11
-8.79438080941489
 21
45.350408450725
 31
0.0
  0
LINE
  5
191
330
1F
100
AcDbEntity
  8
0
100
AcDbLine
 10
-8.79438080941489
 20
45.350408450725
 30
0.0
 11
-8.873983425109053
 21
44.7060422535419
 31
0.0
  0
LINE
  5
192
330
1F
100
AcDbEntity
  8
0
100
AcDbLine
 10
-8.873983425109053
 20
44.7060422535419
 30
0.0
 11
-8.873983425109053
 21
42.02596177064451
 31
0.0
  0
LINE
  5
193
330
1F
100
AcDbEntity
  8
0
100
AcDbLine
 10
-8.873983425109053
 20
42.02596177064451
 30
0.0
 11
-11.44541199653762
 21
42.02596177064451
 31
0.0
  0
LINE
  5
194
330
1F
100
AcDbEntity
  8
0
100
AcDbLine
 10
-11.44541199653762
 20
42.02596177064451
 30
0.0
 11
-11.44541199653762
 21
48.20704828975921
 31
0.0
  0
LINE
  5
195
330
1F
100
AcDbEntity
  8
0
100
AcDbLine
 10
-11.44541199653762
 20
48.20704828975921
 30
0.0
 11
-8.873983425109053
 21
48.20704828975921
 31
0.0
  0
LINE
  5
196
330
1F
100
AcDbEntity
  8
0
100
AcDbLine
 10
-8.873983425109053
 20
48.20704828975921
 30
0.0
 11
-8.873983425109053
 21
47.12052917507108
 31
0.0
  0
LINE
  5
197
330
1F
100
AcDbEntity
  8
0
100
AcDbLine
 10
-8.849838555893761
 20
47.12052917507108
 30
0.0
 11
-8.564627288288126
 21
47.63587122738496
 31
0.0
  0
LINE
  5
198
330
1F
100
AcDbEntity
  8
0
100
AcDbLine
 10
-8.564627288288126
 20
47.63587122738496
 30
0.0
 11
-8.179818435169414
 21
48.01087122738496
 31
0.0
  0
LINE
  5
199
330
1F
100
AcDbEntity
  8
0
100
AcDbLine
 10
-8.179818435169414
 20
48.01087122738496
 30
0.0
 11
-7.708993485471226
 21
48.23949295776725
 31
0.0
  0
LINE
  5
19A
330
1F
100
AcDbEntity
  8
0
100
AcDbLine
 10
-7.708993485471226
 20
48.23949295776725
 30
0.0
 11
-7.16573392812716
 21
48.31570020122801
 31
0.0
  0
LINE
  5
19B
330
1F
100
AcDbEntity
  8
0
100
AcDbLine
 10
-7.16573392812716
 20
48.31570020122801
 30
0.0
 11
-6.797524672593962
 21
48.24326559358214
 31
0.0
  0
LINE
  5
19C
330
1F
100
AcDbEntity
  8
0
100
AcDbLine
 10
-6.797524672593962
 20
48.24326559358214
 30
0.0
 11
-6.797524672593962
 21
46.00382897386383
 31
0.0
  0
LINE
  5
19D
330
1F
100
AcDbEntity
  8
0
100
AcDbLine
 10
-2.626498515652311
 20
42.02596177064451
 30
0.0
 11
-2.626498515652311
 21
42.9676116700409
 31
0.0
  0
LINE
  5
19E
330
1F
100
AcDbEntity
  8
0
100
AcDbLine
 10
-2.650643384867603
 20
42.9676116700409
 30
0.0
 11
-2.999234934163379
 21
42.48961871229442
 31
0.0
  0
LINE
  5
19F
330
1F
100
AcDbEntity
  8
0
100
AcDbLine
 10
-2.999234934163379
 20
42.48961871229442
 30
0.0
 11
-3.429315417060763
 21
42.14819517104693
 31
0.0
  0
LINE
  5
1A0
330
1F
100
AcDbEntity
  8
0
100
AcDbLine
 10
-3.429315417060763
 20
42.14819517104693
 30
0.0
 11
-3.940884833559756
 21
41.94334104629844
 31
0.0
  0
LINE
  5
1A1
330
1F
100
AcDbEntity
  8
0
100
AcDbLine
 10
-3.940884833559756
 20
41.94334104629844
 30
0.0
 11
-4.533943183660358
 21
41.87505633804894
 31
0.0
  0
LINE
  5
1A2
330
1F
100
AcDbEntity
  8
0
100
AcDbLine
 10
-4.533943183660358
 20
41.87505633804894
 30
0.0
 11
-4.947801332553719
 21
41.90750100605699
 31
0.0
  0
LINE
  5
1A3
330
1F
100
AcDbEntity
  8
0
100
AcDbLine
 10
-4.947801332553719
 20
41.90750100605699
 30
0.0
 11
-5.314124270179476
 21
42.00483501008114
 31
0.0
  0
LINE
  5
1A4
330
1F
100
AcDbEntity
  8
0
100
AcDbLine
 10
-5.314124270179476
 20
42.00483501008114
 30
0.0
 11
-5.632911996537625
 21
42.16705835012138
 31
0.0
  0
LINE
  5
1A5
330
1F
100
AcDbEntity
  8
0
100
AcDbLine
 10
-5.632911996537625
 20
42.16705835012138
 30
0.0
 11
-5.904164511628165
 21
42.39417102617772
 31
0.0
  0
LINE
  5
1A6
330
1F
100
AcDbEntity
  8
0
100
AcDbLine
 10
-5.904164511628165
 20
42.39417102617772
 30
0.0
 11
-6.120713807402813
 21
42.67560965796847
 31
0.0
  0
LINE
  5
1A7
330
1F
100
AcDbEntity
  8
0
100
AcDbLine
 10
-6.120713807402813
 20
42.67560965796847
 30
0.0
 11
-6.275391875813279
 21
43.00081086521192
 31
0.0
  0
LINE
  5
1A8
330
1F
100
AcDbEntity
  8
0
100
AcDbLine
 10
-6.275391875813279
 20
43.00081086521192
 30
0.0
 11
-6.368198716859554
 21
43.36977464790809
 31
0.0
  0
LINE
  5
1A9
330
1F
100
AcDbEntity
  8
0
100
AcDbLine
 10
-6.368198716859554
 20
43.36977464790809
 30
0.0
 11
-6.399134330541647
 21
43.78250100605699
 31
0.0
  0
LINE
  5
1AA
330
1F
100
AcDbEntity
  8
0
100
AcDbLine
 10
-6.399134330541647
 20
43.78250100605699
 30
0.0
 11
-6.364143133358549
 21
44.21427917507107
 31
0.0
  0
LINE
  5
1AB
330
1F
100
AcDbEntity
  8
0
100
AcDbLine
 10
-6.364143133358549
 20
44.21427917507107
 30
0.0
 11
-6.259169541809252
 21
44.59814486923607
 31
0.0
  0
LINE
  5
1AC
330
1F
100
AcDbEntity
  8
0
100
AcDbLine
 10
-6.259169541809252
 20
44.59814486923607
 30
0.0
 11
-6.084213555893758
 21
44.93409808855196
 31
0.0
  0
LINE
  5
1AD
330
1F
100
AcDbEntity
  8
0
100
AcDbLine
 10
-6.084213555893758
 20
44.93409808855196
 30
0.0
 11
-5.839275175612068
 21
45.22213883301876
 31
0.0
  0
LINE
  5
1AE
330
1F
100
AcDbEntity
  8
0
100
AcDbLine
 10
-5.839275175612068
 20
45.22213883301876
 30
0.0
 11
-5.524354400964181
 21
45.46226710263647
 31
0.0
  0
LINE
  5
1AF
330
1F
100
AcDbEntity
  8
0
100
AcDbLine
 10
-5.524354400964181
 20
45.46226710263647
 30
0.0
 11
-5.139451231950095
 21
45.65448289740508
 31
0.0
  0
LINE
  5
1B0
330
1F
100
AcDbEntity
  8
0
100
AcDbLine
 10
-5.139451231950095
 20
45.65448289740508
 30
0.0
 11
-4.159697710823336
 21
45.89517706239501
 31
0.0
  0
LINE
  5
1B1
330
1F
100
AcDbEntity
  8
0
100
AcDbLine
 10
-4.159697710823336
 20
45.89517706239501
 30
0.0
 11
-2.626498515652311
 21
46.09437223342118
 31
0.0
  0
LINE
  5
1B2
330
1F
100
AcDbEntity
  8
0
100
AcDbLine
 10
-2.626498515652311
 20
46.09437223342118
 30
0.0
 11
-2.694405960320318
 21
46.36902012074512
 31
0.0
  0
LINE
  5
1B3
330
1F
100
AcDbEntity
  8
0
100
AcDbLine
 10
-2.694405960320318
 20
46.36902012074512
 30
0.0
 11
-2.898128294324344
 21
46.58934205233466
 31
0.0
  0
LINE
  5
1B4
330
1F
100
AcDbEntity
  8
0
100
AcDbLine
 10
-2.898128294324344
 20
46.58934205233466
 30
0.0
 11
-3.216538757101004
 21
46.73421126762641
 31
0.0
  0
LINE
  5
1B5
330
1F
100
AcDbEntity
  8
0
100
AcDbLine
 10
-3.216538757101004
 20
46.73421126762641
 30
0.0
 11
-3.62851058808692
 21
46.78250100605699
 31
0.0
  0
LINE
  5
1B6
330
1F
100
AcDbEntity
  8
0
100
AcDbLine
 10
-3.62851058808692
 20
46.78250100605699
 30
0.0
 11
-4.154793284263983
 21
46.74552917507107
 31
0.0
  0
LINE
  5
1B7
330
1F
100
AcDbEntity
  8
0
100
AcDbLine
 10
-4.154793284263983
 20
46.74552917507107
 30
0.0
 11
-4.695411996537624
 21
46.63461368211333
 31
0.0
  0
LINE
  5
1B8
330
1F
100
AcDbEntity
  8
0
100
AcDbLine
 10
-4.695411996537624
 20
46.63461368211333
 30
0.0
 11
-5.819657469374644
 21
46.19095171028234
 31
0.0
  0
LINE
  5
1B9
330
1F
100
AcDbEntity
  8
0
100
AcDbLine
 10
-5.819657469374644
 20
46.19095171028234
 30
0.0
 11
-5.819657469374644
 21
47.8629839034413
 31
0.0
  0
LINE
  5
1BA
330
1F
100
AcDbEntity
  8
0
100
AcDbLine
 10
-5.819657469374644
 20
47.8629839034413
 30
0.0
 11
-5.255271151467201
 21
48.06067002014149
 31
0.0
  0
LINE
  5
1BB
330
1F
100
AcDbEntity
  8
0
100
AcDbLine
 10
-5.255271151467201
 20
48.06067002014149
 30
0.0
 11
-4.564124270179474
 21
48.21912072436685
 31
0.0
  0
LINE
  5
1BC
330
1F
100
AcDbEntity
  8
0
100
AcDbLine
 10
-4.564124270179474
 20
48.21912072436685
 30
0.0
 11
-3.272373767161366
 21
48.35795372235478
 31
0.0
  0
LINE
  5
1BD
330
1F
100
AcDbEntity
  8
0
100
AcDbLine
 10
-3.272373767161366
 20
48.35795372235478
 30
0.0
 11
-2.538784732956134
 21
48.31588883301876
 31
0.0
  0
LINE
  5
1BE
330
1F
100
AcDbEntity
  8
0
100
AcDbLine
 10
-2.538784732956134
 20
48.31588883301876
 30
0.0
 11
-1.913470346638227
 21
48.18969416501071
 31
0.0
  0
LINE
  5
1BF
330
1F
100
AcDbEntity
  8
0
100
AcDbLine
 10
-1.913470346638227
 20
48.18969416501071
 30
0.0
 11
-1.396430608207645
 21
47.97936971833063
 31
0.0
  0
LINE
  5
1C0
330
1F
100
AcDbEntity
  8
0
100
AcDbLine
 10
-1.396430608207645
 20
47.97936971833063
 30
0.0
 11
-0.9876655176643828
 21
47.68491549297852
 31
0.0
  0
LINE
  5
1C1
330
1F
100
AcDbEntity
  8
0
100
AcDbLine
 10
-0.9876655176643828
 20
47.68491549297852
 30
0.0
 11
-0.6773662218897335
 21
47.29199547285779
 31
0.0
  0
LINE
  5
1C2
330
1F
100
AcDbEntity
  8
0
100
AcDbLine
 10
-0.6773662218897335
 20
47.29199547285779
 30
0.0
 11
-0.455723867764984
 21
46.78627364187188
 31
0.0
  0
LINE
  5
1C3
330
1F
100
AcDbEntity
  8
0
100
AcDbLine
 10
-0.455723867764984
 20
46.78627364187188
 30
0.0
 11
-0.3227384552901371
 21
46.16775000002077
 31
0.0
  0
LINE
  5
1C4
330
1F
100
AcDbEntity
  8
0
100
AcDbLine
 10
-0.3227384552901371
 20
46.16775000002077
 30
0.0
 11
-0.2784099844651872
 21
45.43642454730448
 31
0.0
  0
LINE
  5
1C5
330
1F
100
AcDbEntity
  8
0
100
AcDbLine
 10
-0.2784099844651872
 20
45.43642454730448
 30
0.0
 11
-0.2784099844651872
 21
42.02596177064451
 31
0.0
  0
LINE
  5
1C6
330
1F
100
AcDbEntity
  8
0
100
AcDbLine
 10
-0.2784099844651872
 20
42.02596177064451
 30
0.0
 11
-2.626498515652311
 21
42.02596177064451
 31
0.0
  0
LINE
  5
1C7
330
1F
100
AcDbEntity
  8
0
100
AcDbLine
 10
-4.147625276215692
 20
44.1265653923749
 30
0.0
 11
-4.107635336577863
 21
43.89568008050367
 31
0.0
  0
LINE
  5
1C8
330
1F
100
AcDbEntity
  8
0
100
AcDbLine
 10
-4.107635336577863
 20
43.89568008050367
 30
0.0
 11
-3.987665517664383
 21
43.71006639841112
 31
0.0
  0
LINE
  5
1C9
330
1F
100
AcDbEntity
  8
0
100
AcDbLine
 10
-3.987665517664383
 20
43.71006639841112
 30
0.0
 11
-3.793752036779072
 21
43.5878329980087
 31
0.0
  0
LINE
  5
1CA
330
1F
100
AcDbEntity
  8
0
100
AcDbLine
 10
-3.793752036779072
 20
43.5878329980087
 30
0.0
 11
-3.531931111225752
 21
43.5470885312079
 31
0.0
  0
LINE
  5
1CB
330
1F
100
AcDbEntity
  8
0
100
AcDbLine
 10
-3.531931111225752
 20
43.5470885312079
 30
0.0
 11
-3.165985437181486
 21
43.62254124750569
 31
0.0
  0
LINE
  5
1CC
330
1F
100
AcDbEntity
  8
0
100
AcDbLine
 10
-3.165985437181486
 20
43.62254124750569
 30
0.0
 11
-2.877001533760964
 21
43.84889939639904
 31
0.0
  0
LINE
  5
1CD
330
1F
100
AcDbEntity
  8
0
100
AcDbLine
 10
-2.877001533760964
 20
43.84889939639904
 30
0.0
 11
-2.689124270179474
 21
44.19296378271695
 31
0.0
  0
LINE
  5
1CE
330
1F
100
AcDbEntity
  8
0
100
AcDbLine
 10
-2.689124270179474
 20
44.19296378271695
 30
0.0
 11
-2.626498515652311
 21
44.62153521128837
 31
0.0
  0
LINE
  5
1CF
330
1F
100
AcDbEntity
  8
0
100
AcDbLine
 10
-2.626498515652311
 20
44.62153521128837
 30
0.0
 11
-2.626498515652311
 21
44.85694768613747
 31
0.0
  0
LINE
  5
1D0
330
1F
100
AcDbEntity
  8
0
100
AcDbLine
 10
-2.626498515652311
 20
44.85694768613747
 30
0.0
 11
-3.495713807402816
 21
44.73622334006102
 31
0.0
  0
LINE
  5
1D1
330
1F
100
AcDbEntity
  8
0
100
AcDbLine
 10
-3.495713807402816
 20
44.73622334006102
 30
0.0
 11
-3.780925075008448
 21
44.65737525152983
 31
0.0
  0
LINE
  5
1D2
330
1F
100
AcDbEntity
  8
0
100
AcDbLine
 10
-3.780925075008448
 20
44.65737525152983
 30
0.0
 11
-3.984647409012474
 21
44.52948289740508
 31
0.0
  0
LINE
  5
1D3
330
1F
100
AcDbEntity
  8
0
100
AcDbLine
 10
-3.984647409012474
 20
44.52948289740508
 30
0.0
 11
-4.106880809414888
 21
44.35254627768677
 31
0.0
  0
LINE
  5
1D4
330
1F
100
AcDbEntity
  8
0
100
AcDbLine
 10
-4.106880809414888
 20
44.35254627768677
 30
0.0
 11
-4.147625276215692
 21
44.1265653923749
 31
0.0
  0
LINE
  5
1D5
330
1F
100
AcDbEntity
  8
0
100
AcDbLine
 10
3.602877741892962
 20
49.87304426561433
 30
0.0
 11
3.504034683542865
 21
49.38109255535277
 31
0.0
  0
LINE
  5
1D6
330
1F
100
AcDbEntity
  8
0
100
AcDbLine
 10
3.504034683542865
 20
49.38109255535277
 30
0.0
 11
3.207505508492557
 21
48.99175653925619
 31
0.0
  0
LINE
  5
1D7
330
1F
100
AcDbEntity
  8
0
100
AcDbLine
 10
3.207505508492557
 20
48.99175653925619
 30
0.0
 11
2.749507520564991
 21
48.73823541249562
 31
0.0
  0
LINE
  5
1D8
330
1F
100
AcDbEntity
  8
0
100
AcDbLine
 10
2.749507520564991
 20
48.73823541249562
 30
0.0
 11
2.166258023583099
 21
48.6537283702421
 31
0.0
  0
LINE
  5
1D9
330
1F
100
AcDbEntity
  8
0
100
AcDbLine
 10
2.166258023583099
 20
48.6537283702421
 30
0.0
 11
1.595080961208855
 21
48.74125352114753
 31
0.0
  0
LINE
  5
1DA
330
1F
100
AcDbEntity
  8
0
100
AcDbLine
 10
1.595080961208855
 20
48.74125352114753
 30
0.0
 11
1.137082973281289
 21
49.00382897386383
 31
0.0
  0
LINE
  5
1DB
330
1F
100
AcDbEntity
  8
0
100
AcDbLine
 10
1.137082973281289
 20
49.00382897386383
 30
0.0
 11
0.8360266352531235
 21
49.39618309861232
 31
0.0
  0
LINE
  5
1DC
330
1F
100
AcDbEntity
  8
0
100
AcDbLine
 10
0.8360266352531235
 20
49.39618309861232
 30
0.0
 11
0.7356745225770663
 21
49.87304426561433
 31
0.0
  0
LINE
  5
1DD
330
1F
100
AcDbEntity
  8
0
100
AcDbLine
 10
0.7356745225770663
 20
49.87304426561433
 30
0.0
 11
0.8330085266012088
 21
50.35367806843124
 31
0.0
  0
LINE
  5
1DE
330
1F
100
AcDbEntity
  8
0
100
AcDbLine
 10
0.8330085266012088
 20
50.35367806843124
 30
0.0
 11
1.125010538673642
 21
50.7332052314091
 31
0.0
  0
LINE
  5
1DF
330
1F
100
AcDbEntity
  8
0
100
AcDbLine
 10
1.125010538673642
 20
50.7332052314091
 30
0.0
 11
1.579990417949293
 21
50.97993561370286
 31
0.0
  0
LINE
  5
1E0
330
1F
100
AcDbEntity
  8
0
100
AcDbLine
 10
1.579990417949293
 20
50.97993561370286
 30
0.0
 11
2.166258023583099
 21
51.06217907446746
 31
0.0
  0
LINE
  5
1E1
330
1F
100
AcDbEntity
  8
0
100
AcDbLine
 10
2.166258023583099
 20
51.06217907446746
 30
0.0
 11
2.749507520564991
 21
50.97993561370286
 31
0.0
  0
LINE
  5
1E2
330
1F
100
AcDbEntity
  8
0
100
AcDbLine
 10
2.749507520564991
 20
50.97993561370286
 30
0.0
 11
3.207505508492557
 21
50.7332052314091
 31
0.0
  0
LINE
  5
1E3
330
1F
100
AcDbEntity
  8
0
100
AcDbLine
 10
3.207505508492557
 20
50.7332052314091
 30
0.0
 11
3.504034683542865
 21
50.35367806843124
 31
0.0
  0
LINE
  5
1E4
330
1F
100
AcDbEntity
  8
0
100
AcDbLine
 10
3.504034683542865
 20
50.35367806843124
 30
0.0
 11
3.602877741892962
 21
49.87304426561433
 31
0.0
  0
LINE
  5
1E5
330
1F
100
AcDbEntity
  8
0
100
AcDbLine
 10
0.8805437378688156
 20
42.02596177064451
 30
0.0
 11
0.8805437378688156
 21
48.20704828975921
 31
0.0
  0
LINE
  5
1E6
330
1F
100
AcDbEntity
  8
0
100
AcDbLine
 10
0.8805437378688156
 20
48.20704828975921
 30
0.0
 11
3.451972309297386
 21
48.20704828975921
 31
0.0
  0
LINE
  5
1E7
330
1F
100
AcDbEntity
  8
0
100
AcDbLine
 10
3.451972309297386
 20
48.20704828975921
 30
0.0
 11
3.451972309297386
 21
42.02596177064451
 31
0.0
  0
LINE
  5
1E8
330
1F
100
AcDbEntity
  8
0
100
AcDbLine
 10
3.451972309297386
 20
42.02596177064451
 30
0.0
 11
0.8805437378688156
 21
42.02596177064451
 31
0.0
  0
LINE
  5
1E9
330
1F
100
AcDbEntity
  8
0
100
AcDbLine
 10
11.38959806382455
 20
42.8891408450912
 30
0.0
 11
11.31961566945835
 21
42.04803169016161
 31
0.0
  0
LINE
  5
1EA
330
1F
100
AcDbEntity
  8
0
100
AcDbLine
 10
11.31961566945835
 20
42.04803169016161
 30
0.0
 11
11.10966848635976
 21
41.30538833000065
 31
0.0
  0
LINE
  5
1EB
330
1F
100
AcDbEntity
  8
0
100
AcDbLine
 10
11.10966848635976
 20
41.30538833000065
 30
0.0
 11
10.75975651452878
 21
40.6612107646083
 31
0.0
  0
LINE
  5
1EC
330
1F
100
AcDbEntity
  8
0
100
AcDbLine
 10
10.75975651452878
 20
40.6612107646083
 30
0.0
 11
10.26987975396539
 21
40.11549899398456
 31
0.0
  0
LINE
  5
1ED
330
1F
100
AcDbEntity
  8
0
100
AcDbLine
 10
10.26987975396539
 20
40.11549899398456
 30
0.0
 11
9.645697158391961
 21
39.68107997990005
 31
0.0
  0
LINE
  5
1EE
330
1F
100
AcDbEntity
  8
0
100
AcDbLine
 10
9.645697158391961
 20
39.68107997990005
 30
0.0
 11
8.89286768153079
 21
39.3707806841254
 31
0.0
  0
LINE
  5
1EF
330
1F
100
AcDbEntity
  8
0
100
AcDbLine
 10
8.89286768153079
 20
39.3707806841254
 30
0.0
 11
8.011391323381899
 21
39.18460110666061
 31
0.0
  0
LINE
  5
1F0
330
1F
100
AcDbEntity
  8
0
100
AcDbLine
 10
8.011391323381899
 20
39.18460110666061
 30
0.0
 11
7.001268083945276
 21
39.12254124750568
 31
0.0
  0
LINE
  5
1F1
330
1F
100
AcDbEntity
  8
0
100
AcDbLine
 10
7.001268083945276
 20
39.12254124750568
 30
0.0
 11
5.878531665434207
 21
39.21308450706303
 31
0.0
  0
LINE
  5
1F2
330
1F
100
AcDbEntity
  8
0
100
AcDbLine
 10
5.878531665434207
 20
39.21308450706303
 30
0.0
 11
5.09985963324105
 21
39.41831589539301
 31
0.0
  0
LINE
  5
1F3
330
1F
100
AcDbEntity
  8
0
100
AcDbLine
 10
5.09985963324105
 20
39.41831589539301
 30
0.0
 11
5.09985963324105
 21
41.43441247486987
 31
0.0
  0
LINE
  5
1F4
330
1F
100
AcDbEntity
  8
0
100
AcDbLine
 10
5.09985963324105
 20
41.43441247486987
 30
0.0
 11
5.519376735856744
 21
41.21710865193224
 31
0.0
  0
LINE
  5
1F5
330
1F
100
AcDbEntity
  8
0
100
AcDbLine
 10
5.519376735856744
 20
41.21710865193224
 30
0.0
 11
6.005292228814488
 21
41.0480945674252
 31
0.0
  0
LINE
  5
1F6
330
1F
100
AcDbEntity
  8
0
100
AcDbLine
 10
6.005292228814488
 20
41.0480945674252
 30
0.0
 11
6.928833476299397
 21
40.90322535213345
 31
0.0
  0
LINE
  5
1F7
330
1F
100
AcDbEntity
  8
0
100
AcDbLine
 10
6.928833476299397
 20
40.90322535213345
 30
0.0
 11
7.705996454166606
 21
41.0073501006244
 31
0.0
  0
LINE
  5
1F8
330
1F
100
AcDbEntity
  8
0
100
AcDbLine
 10
7.705996454166606
 20
41.0073501006244
 30
0.0
 11
8.311127238874851
 21
41.31972434609723
 31
0.0
  0
LINE
  5
1F9
330
1F
100
AcDbEntity
  8
0
100
AcDbLine
 10
8.311127238874851
 20
41.31972434609723
 30
0.0
 11
8.538239914931195
 21
41.54495070424613
 31
0.0
  0
LINE
  5
1FA
330
1F
100
AcDbEntity
  8
0
100
AcDbLine
 10
8.538239914931195
 20
41.54495070424613
 30
0.0
 11
8.700463254971433
 21
41.80413078472902
 31
0.0
  0
LINE
  5
1FB
330
1F
100
AcDbEntity
  8
0
100
AcDbLine
 10
8.700463254971433
 20
41.80413078472902
 30
0.0
 11
8.797797258995576
 21
42.09726458754592
 31
0.0
  0
LINE
  5
1FC
330
1F
100
AcDbEntity
  8
0
100
AcDbLine
 10
8.797797258995576
 20
42.09726458754592
 30
0.0
 11
8.830241927003623
 21
42.42435211269683
 31
0.0
  0
LINE
  5
1FD
330
1F
100
AcDbEntity
  8
0
100
AcDbLine
 10
8.830241927003623
 20
42.42435211269683
 30
0.0
 11
8.830241927003623
 21
42.80463380283767
 31
0.0
  0
LINE
  5
1FE
330
1F
100
AcDbEntity
  8
0
100
AcDbLine
 10
8.806097057788334
 20
42.80463380283767
 30
0.0
 11
8.47636868756701
 21
42.42435211269683
 31
0.0
  0
LINE
  5
1FF
330
1F
100
AcDbEntity
  8
0
100
AcDbLine
 10
8.47636868756701
 20
42.42435211269683
 30
0.0
 11
8.042515568854734
 21
42.12857746480951
 31
0.0
  0
LINE
  5
200
330
1F
100
AcDbEntity
  8
0
100
AcDbLine
 10
8.042515568854734
 20
42.12857746480951
 30
0.0
 11
7.539245951148493
 21
41.93843661973909
 31
0.0
  0
LINE
  5
201
330
1F
100
AcDbEntity
  8
0
100
AcDbLine
 10
7.539245951148493
 20
41.93843661973909
 30
0.0
 11
7.001268083945276
 21
41.87505633804894
 31
0.0
  0
LINE
  5
202
330
1F
100
AcDbEntity
  8
0
100
AcDbLine
 10
7.001268083945276
 20
41.87505633804894
 30
0.0
 11
6.43499544813039
 21
41.92693008050367
 31
0.0
  0
LINE
  5
203
330
1F
100
AcDbEntity
  8
0
100
AcDbLine
 10
6.43499544813039
 20
41.92693008050367
 30
0.0
 11
5.931348566842661
 21
42.08255130786786
 31
0.0
  0
LINE
  5
204
330
1F
100
AcDbEntity
  8
0
100
AcDbLine
 10
5.931348566842661
 20
42.08255130786786
 30
0.0
 11
5.490327440082101
 21
42.34192002014149
 31
0.0
  0
LINE
  5
205
330
1F
100
AcDbEntity
  8
0
100
AcDbLine
 10
5.490327440082101
 20
42.34192002014149
 30
0.0
 11
5.111932067848698
 21
42.7050362173246
 31
0.0
  0
LINE
  5
206
330
1F
100
AcDbEntity
  8
0
100
AcDbLine
 10
5.111932067848698
 20
42.7050362173246
 30
0.0
 11
4.808234884750107
 21
43.15945020122802
 31
0.0
  0
LINE
  5
207
330
1F
100
AcDbEntity
  8
0
100
AcDbLine
 10
4.808234884750107
 20
43.15945020122802
 30
0.0
 11
4.591308325393966
 21
43.69271227366262
 31
0.0
  0
LINE
  5
208
330
1F
100
AcDbEntity
  8
0
100
AcDbLine
 10
4.591308325393966
 20
43.69271227366262
 30
0.0
 11
4.461152389780286
 21
44.30482243462842
 31
0.0
  0
LINE
  5
209
330
1F
100
AcDbEntity
  8
0
100
AcDbLine
 10
4.461152389780286
 20
44.30482243462842
 30
0.0
 11
4.417767077909056
 21
44.9957806841254
 31
0.0
  0
LINE
  5
20A
330
1F
100
AcDbEntity
  8
0
100
AcDbLine
 10
4.417767077909056
 20
44.9957806841254
 30
0.0
 11
4.5083103374664
 21
45.93893963784774
 31
0.0
  0
LINE
  5
20B
330
1F
100
AcDbEntity
  8
0
100
AcDbLine
 10
4.5083103374664
 20
45.93893963784774
 30
0.0
 11
4.779940116138433
 21
46.76439235414552
 31
0.0
  0
LINE
  5
20C
330
1F
100
AcDbEntity
  8
0
100
AcDbLine
 10
4.779940116138433
 20
46.76439235414552
 30
0.0
 11
5.213038707687734
 21
47.44271227366262
 31
0.0
  0
LINE
  5
20D
330
1F
100
AcDbEntity
  8
0
100
AcDbLine
 10
5.213038707687734
 20
47.44271227366262
 30
0.0
 11
5.787988405876862
 21
47.94447283704291
 31
0.0
  0
LINE
  5
20E
330
1F
100
AcDbEntity
  8
0
100
AcDbLine
 10
5.787988405876862
 20
47.94447283704291
 30
0.0
 11
6.467062852556943
 21
48.25458350102681
 31
0.0
  0
LINE
  5
20F
330
1F
100
AcDbEntity
  8
0
100
AcDbLine
 10
6.467062852556943
 20
48.25458350102681
 30
0.0
 11
7.212535689579077
 21
48.35795372235478
 31
0.0
  0
LINE
  5
210
330
1F
100
AcDbEntity
  8
0
100
AcDbLine
 10
7.212535689579077
 20
48.35795372235478
 30
0.0
 11
7.712787198633404
 21
48.30853219317973
 31
0.0
  0
LINE
  5
211
330
1F
100
AcDbEntity
  8
0
100
AcDbLine
 10
7.712787198633404
 20
48.30853219317973
 30
0.0
 11
8.145131263019724
 21
48.16026760565458
 31
0.0
  0
LINE
  5
212
330
1F
100
AcDbEntity
  8
0
100
AcDbLine
 10
8.145131263019724
 20
48.16026760565458
 30
0.0
 11
8.50956788273803
 21
47.91315995977933
 31
0.0
  0
LINE
  5
213
330
1F
100
AcDbEntity
  8
0
100
AcDbLine
 10
8.50956788273803
 20
47.91315995977933
 30
0.0
 11
8.806097057788334
 21
47.56720925555398
 31
0.0
  0
LINE
  5
214
330
1F
100
AcDbEntity
  8
0
100
AcDbLine
 10
8.830241927003623
 20
47.56720925555398
 30
0.0
 11
8.830241927003623
 21
48.20704828975921
 31
0.0
  0
LINE
  5
215
330
1F
100
AcDbEntity
  8
0
100
AcDbLine
 10
8.830241927003623
 20
48.20704828975921
 30
0.0
 11
11.38959806382455
 21
48.20704828975921
 31
0.0
  0
LINE
  5
216
330
1F
100
AcDbEntity
  8
0
100
AcDbLine
 10
11.38959806382455
 20
48.20704828975921
 30
0.0
 11
11.38959806382455
 21
42.8891408450912
 31
0.0
  0
LINE
  5
217
330
1F
100
AcDbEntity
  8
0
100
AcDbLine
 10
8.872495448130383
 20
45.29155533201273
 30
0.0
 11
8.811378747929178
 21
45.77897987929643
 31
0.0
  0
LINE
  5
218
330
1F
100
AcDbEntity
  8
0
100
AcDbLine
 10
8.811378747929178
 20
45.77897987929643
 30
0.0
 11
8.628028647325554
 21
46.1547344064594
 31
0.0
  0
LINE
  5
219
330
1F
100
AcDbEntity
  8
0
100
AcDbLine
 10
8.628028647325554
 20
46.1547344064594
 30
0.0
 11
8.343571906882898
 21
46.39467404428637
 31
0.0
  0
LINE
  5
21A
330
1F
100
AcDbEntity
  8
0
100
AcDbLine
 10
8.343571906882898
 20
46.39467404428637
 30
0.0
 11
7.979135287164593
 21
46.47465392356202
 31
0.0
  0
LINE
  5
21B
330
1F
100
AcDbEntity
  8
0
100
AcDbLine
 10
7.979135287164593
 20
46.47465392356202
 30
0.0
 11
7.588290216742052
 21
46.37807444670086
 31
0.0
  0
LINE
  5
21C
330
1F
100
AcDbEntity
  8
0
100
AcDbLine
 10
7.588290216742052
 20
46.37807444670086
 30
0.0
 11
7.284970297224951
 21
46.08833601611735
 31
0.0
  0
LINE
  5
21D
330
1F
100
AcDbEntity
  8
0
100
AcDbLine
 10
7.284970297224951
 20
46.08833601611735
 30
0.0
 11
7.09030228917666
 21
45.63712877265659
 31
0.0
  0
LINE
  5
21E
330
1F
100
AcDbEntity
  8
0
100
AcDbLine
 10
7.09030228917666
 20
45.63712877265659
 30
0.0
 11
7.025412953160565
 21
45.05614285716363
 31
0.0
  0
LINE
  5
21F
330
1F
100
AcDbEntity
  8
0
100
AcDbLine
 10
7.025412953160565
 20
45.05614285716363
 30
0.0
 11
7.079738908894973
 21
44.52042857144934
 31
0.0
  0
LINE
  5
220
330
1F
100
AcDbEntity
  8
0
100
AcDbLine
 10
7.079738908894973
 20
44.52042857144934
 30
0.0
 11
7.242716776098191
 21
44.10845674046343
 31
0.0
  0
LINE
  5
221
330
1F
100
AcDbEntity
  8
0
100
AcDbLine
 10
7.242716776098191
 20
44.10845674046343
 30
0.0
 11
7.523400880725957
 21
43.84588128774713
 31
0.0
  0
LINE
  5
222
330
1F
100
AcDbEntity
  8
0
100
AcDbLine
 10
7.523400880725957
 20
43.84588128774713
 30
0.0
 11
7.930845548734009
 21
43.7583561368417
 31
0.0
  0
LINE
  5
223
330
1F
100
AcDbEntity
  8
0
100
AcDbLine
 10
7.930845548734009
 20
43.7583561368417
 30
0.0
 11
8.323954200645474
 21
43.84814486923607
 31
0.0
  0
LINE
  5
224
330
1F
100
AcDbEntity
  8
0
100
AcDbLine
 10
8.323954200645474
 20
43.84814486923607
 30
0.0
 11
8.621992430021736
 21
44.11751106641916
 31
0.0
  0
LINE
  5
225
330
1F
100
AcDbEntity
  8
0
100
AcDbLine
 10
8.621992430021736
 20
44.11751106641916
 30
0.0
 11
8.809869693603224
 21
44.53778269619784
 31
0.0
  0
LINE
  5
226
330
1F
100
AcDbEntity
  8
0
100
AcDbLine
 10
8.809869693603224
 20
44.53778269619784
 30
0.0
 11
8.872495448130383
 21
45.08028772637892
 31
0.0
  0
LINE
  5
227
330
1F
100
AcDbEntity
  8
0
100
AcDbLine
 10
8.872495448130383
 20
45.08028772637892
 30
0.0
 11
8.872495448130383
 21
45.29155533201273
 31
0.0
  0
LINE
  5
228
330
1F
100
AcDbEntity
  8
0
100
AcDbLine
 10
16.61092603163139
 20
42.02596177064451
 30
0.0
 11
16.61092603163139
 21
45.55111267607711
 31
0.0
  0
LINE
  5
229
330
1F
100
AcDbEntity
  8
0
100
AcDbLine
 10
16.61092603163139
 20
45.55111267607711
 30
0.0
 11
16.56678619259718
 21
45.95516197185176
 31
0.0
  0
LINE
  5
22A
330
1F
100
AcDbEntity
  8
0
100
AcDbLine
 10
16.56678619259718
 20
45.95516197185176
 30
0.0
 11
16.43436667549457
 21
46.24376861169079
 31
0.0
  0
LINE
  5
22B
330
1F
100
AcDbEntity
  8
0
100
AcDbLine
 10
16.43436667549457
 20
46.24376861169079
 30
0.0
 11
16.21366748032354
 21
46.41693259559421
 31
0.0
  0
LINE
  5
22C
330
1F
100
AcDbEntity
  8
0
100
AcDbLine
 10
16.21366748032354
 20
46.41693259559421
 30
0.0
 11
15.90468860708411
 21
46.47465392356202
 31
0.0
  0
LINE
  5
22D
330
1F
100
AcDbEntity
  8
0
100
AcDbLine
 10
15.90468860708411
 20
46.47465392356202
 30
0.0
 11
15.601368687567
 21
46.40901006038295
 31
0.0
  0
LINE
  5
22E
330
1F
100
AcDbEntity
  8
0
100
AcDbLine
 10
15.601368687567
 20
46.40901006038295
 30
0.0
 11
15.37953770165151
 21
46.21207847084573
 31
0.0
  0
LINE
  5
22F
330
1F
100
AcDbEntity
  8
0
100
AcDbLine
 10
15.37953770165151
 20
46.21207847084573
 30
0.0
 11
15.24372281231549
 21
45.91253118714351
 31
0.0
  0
LINE
  5
230
330
1F
100
AcDbEntity
  8
0
100
AcDbLine
 10
15.24372281231549
 20
45.91253118714351
 30
0.0
 11
15.19845118253683
 21
45.53904024146946
 31
0.0
  0
LINE
  5
231
330
1F
100
AcDbEntity
  8
0
100
AcDbLine
 10
15.19845118253683
 20
45.53904024146946
 30
0.0
 11
15.19845118253683
 21
42.02596177064451
 31
0.0
  0
LINE
  5
232
330
1F
100
AcDbEntity
  8
0
100
AcDbLine
 10
15.19845118253683
 20
42.02596177064451
 30
0.0
 11
12.62702261110825
 21
42.02596177064451
 31
0.0
  0
LINE
  5
233
330
1F
100
AcDbEntity
  8
0
100
AcDbLine
 10
12.62702261110825
 20
42.02596177064451
 30
0.0
 11
12.62702261110825
 21
51.17686720324009
 31
0.0
  0
LINE
  5
234
330
1F
100
AcDbEntity
  8
0
100
AcDbLine
 10
12.62702261110825
 20
51.17686720324009
 30
0.0
 11
15.19845118253683
 21
51.17686720324009
 31
0.0
  0
LINE
  5
235
330
1F
100
AcDbEntity
  8
0
100
AcDbLine
 10
15.19845118253683
 20
51.17686720324009
 30
0.0
 11
15.19845118253683
 21
47.36801408452781
 31
0.0
  0
LINE
  5
236
330
1F
100
AcDbEntity
  8
0
100
AcDbLine
 10
15.22259605175211
 20
47.36801408452781
 30
0.0
 11
15.59005078012233
 21
47.78979476863245
 31
0.0
  0
LINE
  5
237
330
1F
100
AcDbEntity
  8
0
100
AcDbLine
 10
15.59005078012233
 20
47.78979476863245
 30
0.0
 11
16.02843106181248
 21
48.1014144869423
 31
0.0
  0
LINE
  5
238
330
1F
100
AcDbEntity
  8
0
100
AcDbLine
 10
16.02843106181248
 20
48.1014144869423
 30
0.0
 11
16.51962824491107
 21
48.29381891350166
 31
0.0
  0
LINE
  5
239
330
1F
100
AcDbEntity
  8
0
100
AcDbLine
 10
16.51962824491107
 20
48.29381891350166
 30
0.0
 11
17.04553367750664
 21
48.35795372235478
 31
0.0
  0
LINE
  5
23A
330
1F
100
AcDbEntity
  8
0
100
AcDbLine
 10
17.04553367750664
 20
48.35795372235478
 30
0.0
 11
17.51673589078632
 21
48.31777515092621
 31
0.0
  0
LINE
  5
23B
330
1F
100
AcDbEntity
  8
0
100
AcDbLine
 10
17.51673589078632
 20
48.31777515092621
 30
0.0
 11
17.92833045819074
 21
48.19723943664049
 31
0.0
  0
LINE
  5
23C
330
1F
100
AcDbEntity
  8
0
100
AcDbLine
 10
17.92833045819074
 20
48.19723943664049
 30
0.0
 11
18.28031737971991
 21
47.99634657949763
 31
0.0
  0
LINE
  5
23D
330
1F
100
AcDbEntity
  8
0
100
AcDbLine
 10
18.28031737971991
 20
47.99634657949763
 30
0.0
 11
18.57269665537384
 21
47.71509657949763
 31
0.0
  0
LINE
  5
23E
330
1F
100
AcDbEntity
  8
0
100
AcDbLine
 10
18.57269665537384
 20
47.71509657949763
 30
0.0
 11
18.80245017650061
 21
47.35575301812943
 31
0.0
  0
LINE
  5
23F
330
1F
100
AcDbEntity
  8
0
100
AcDbLine
 10
18.80245017650061
 20
47.35575301812943
 30
0.0
 11
18.96655983444829
 21
46.92057947688194
 31
0.0
  0
LINE
  5
240
330
1F
100
AcDbEntity
  8
0
100
AcDbLine
 10
18.96655983444829
 20
46.92057947688194
 30
0.0
 11
19.06502562921691
 21
46.40957595575517
 31
0.0
  0
LINE
  5
241
330
1F
100
AcDbEntity
  8
0
100
AcDbLine
 10
19.06502562921691
 20
46.40957595575517
 30
0.0
 11
19.09784756080644
 21
45.82274245474915
 31
0.0
  0
LINE
  5
242
330
1F
100
AcDbEntity
  8
0
100
AcDbLine
 10
19.09784756080644
 20
45.82274245474915
 30
0.0
 11
19.09784756080644
 21
42.02596177064451
 31
0.0
  0
LINE
  5
243
330
1F
100
AcDbEntity
  8
0
100
AcDbLine
 10
19.09784756080644
 20
42.02596177064451
 30
0.0
 11
16.61092603163139
 21
42.02596177064451
 31
0.0
  0
LINE
  5
244
330
1F
100
AcDbEntity
  8
0
100
AcDbLine
 10
24.60891395919679
 20
42.11046881289803
 30
0.0
 11
24.03547331533361
 21
41.95050905434672
 31
0.0
  0
LINE
  5
245
330
1F
100
AcDbEntity
  8
0
100
AcDbLine
 10
24.03547331533361
 20
41.95050905434672
 30
0.0
 11
23.07571476402575
 21
41.87505633804894
 31
0.0
  0
LINE
  5
246
330
1F
100
AcDbEntity
  8
0
100
AcDbLine
 10
23.07571476402575
 20
41.87505633804894
 30
0.0
 11
22.56772935155091
 21
41.91202816903485
 31
0.0
  0
LINE
  5
247
330
1F
100
AcDbEntity
  8
0
100
AcDbLine
 10
22.56772935155091
 20
41.91202816903485
 30
0.0
 11
22.11821979420684
 21
42.02294366199261
 31
0.0
  0
LINE
  5
248
330
1F
100
AcDbEntity
  8
0
100
AcDbLine
 10
22.11821979420684
 20
42.02294366199261
 30
0.0
 11
21.72718609199357
 21
42.20780281692218
 31
0.0
  0
LINE
  5
249
330
1F
100
AcDbEntity
  8
0
100
AcDbLine
 10
21.72718609199357
 20
42.20780281692218
 30
0.0
 11
21.39462824491107
 21
42.46660563382359
 31
0.0
  0
LINE
  5
24A
330
1F
100
AcDbEntity
  8
0
100
AcDbLine
 10
21.39462824491107
 20
42.46660563382359
 30
0.0
 11
21.1292233153336
 21
42.79369315897449
 31
0.0
  0
LINE
  5
24B
330
1F
100
AcDbEntity
  8
0
100
AcDbLine
 10
21.1292233153336
 20
42.79369315897449
 30
0.0
 11
20.93964836563541
 21
43.18340643865257
 31
0.0
  0
LINE
  5
24C
330
1F
100
AcDbEntity
  8
0
100
AcDbLine
 10
20.93964836563541
 20
43.18340643865257
 30
0.0
 11
20.8259033958165
 21
43.6357454728578
 31
0.0
  0
LINE
  5
24D
330
1F
100
AcDbEntity
  8
0
100
AcDbLine
 10
20.8259033958165
 20
43.6357454728578
 30
0.0
 11
20.78798840587686
 21
44.15071026159019
 31
0.0
  0
LINE
  5
24E
330
1F
100
AcDbEntity
  8
0
100
AcDbLine
 10
20.78798840587686
 20
44.15071026159019
 30
0.0
 11
20.78798840587686
 21
46.42636418513143
 31
0.0
  0
LINE
  5
24F
330
1F
100
AcDbEntity
  8
0
100
AcDbLine
 10
20.78798840587686
 20
46.42636418513143
 30
0.0
 11
19.81615741996137
 21
46.42636418513143
 31
0.0
  0
LINE
  5
250
330
1F
100
AcDbEntity
  8
0
100
AcDbLine
 10
19.81615741996137
 20
46.42636418513143
 30
0.0
 11
19.81615741996137
 21
48.20704828975921
 31
0.0
  0
LINE
  5
251
330
1F
100
AcDbEntity
  8
0
100
AcDbLine
 10
19.81615741996137
 20
48.20704828975921
 30
0.0
 11
20.78798840587686
 21
48.20704828975921
 31
0.0
  0
LINE
  5
252
330
1F
100
AcDbEntity
  8
0
100
AcDbLine
 10
20.78798840587686
 20
48.20704828975921
 30
0.0
 11
20.78798840587686
 21
49.42032796782761
 31
0.0
  0
LINE
  5
253
330
1F
100
AcDbEntity
  8
0
100
AcDbLine
 10
20.78798840587686
 20
49.42032796782761
 30
0.0
 11
23.3231996734825
 21
50.12052917507108
 31
0.0
  0
LINE
  5
254
330
1F
100
AcDbEntity
  8
0
100
AcDbLine
 10
23.3231996734825
 20
50.12052917507108
 30
0.0
 11
23.3231996734825
 21
48.20704828975921
 31
0.0
  0
LINE
  5
255
330
1F
100
AcDbEntity
  8
0
100
AcDbLine
 10
23.3231996734825
 20
48.20704828975921
 30
0.0
 11
24.60891395919679
 21
48.20704828975921
 31
0.0
  0
LINE
  5
256
330
1F
100
AcDbEntity
  8
0
100
AcDbLine
 10
24.60891395919679
 20
48.20704828975921
 30
0.0
 11
24.60891395919679
 21
46.42636418513143
 31
0.0
  0
LINE
  5
257
330
1F
100
AcDbEntity
  8
0
100
AcDbLine
 10
24.60891395919679
 20
46.42636418513143
 30
0.0
 11
23.3231996734825
 21
46.42636418513143
 31
0.0
  0
LINE
  5
258
330
1F
100
AcDbEntity
  8
0
100
AcDbLine
 10
23.3231996734825
 20
46.42636418513143
 30
0.0
 11
23.3231996734825
 21
44.57324547285779
 31
0.0
  0
LINE
  5
259
330
1F
100
AcDbEntity
  8
0
100
AcDbLine
 10
23.3231996734825
 20
44.57324547285779
 30
0.0
 11
23.36356687670182
 21
44.21673138835075
 31
0.0
  0
LINE
  5
25A
330
1F
100
AcDbEntity
  8
0
100
AcDbLine
 10
23.36356687670182
 20
44.21673138835075
 30
0.0
 11
23.48466848635976
 21
43.96207847084573
 31
0.0
  0
LINE
  5
25B
330
1F
100
AcDbEntity
  8
0
100
AcDbLine
 10
23.48466848635976
 20
43.96207847084573
 30
0.0
 11
23.68650450245634
 21
43.8092867203427
 31
0.0
  0
LINE
  5
25C
330
1F
100
AcDbEntity
  8
0
100
AcDbLine
 10
23.68650450245634
 20
43.8092867203427
 30
0.0
 11
23.96907492499155
 21
43.7583561368417
 31
0.0
  0
LINE
  5
25D
330
1F
100
AcDbEntity
  8
0
100
AcDbLine
 10
23.96907492499155
 20
43.7583561368417
 30
0.0
 11
24.60891395919679
 21
43.8911529175258
 31
0.0
  0
LINE
  5
25E
330
1F
100
AcDbEntity
  8
0
100
AcDbLine
 10
24.60891395919679
 20
43.8911529175258
 30
0.0
 11
24.60891395919679
 21
42.11046881289803
 31
0.0
  0
LINE
  5
25F
330
1F
100
AcDbEntity
  8
0
100
AcDbLine
 10
-52.44875398262589
 20
20.01066962348088
 30
0.0
 11
-27.73560471505849
 21
20.01066962348088
 31
0.0
  0
LINE
  5
260
330
1F
100
AcDbEntity
  8
0
100
AcDbLine
 10
27.73672756618925
 20
20.01066962348088
 30
0.0
 11
52.4734551323785
 21
20.01066962348088
 31
0.0
  0
LINE
  5
261
330
1F
100
AcDbEntity
  8
0
100
AcDbLine
 10
-21.73560376866543
 20
20.01066962348088
 30
0.0
 11
21.73672756618926
 21
20.01066962348088
 31
0.0
  0
LINE
  5
262
330
1F
100
AcDbEntity
  8
0
100
AcDbLine
 10
-46.47345513237852
 20
24.01066962348088
 30
0.0
 11
-2.999999999999995
 21
24.01066962348088
 31
0.0
  0
LINE
  5
263
330
1F
100
AcDbEntity
  8
0
100
AcDbLine
 10
2.999999999999995
 20
24.01066962348088
 30
0.0
 11
46.47345513237852
 21
24.01066962348088
 31
0.0
  0
LINE
  5
264
330
1F
100
AcDbEntity
  8
0
100
AcDbLine
 10
-52.44875398262589
 20
20.01066962348088
 30
0.0
 11
-52.44875398262589
 21
12.0106696234809
 31
0.0
  0
LINE
  5
265
330
1F
100
AcDbEntity
  8
0
100
AcDbLine
 10
52.4734551323785
 20
20.01066962348088
 30
0.0
 11
52.4734551323785
 21
12.0106696234809
 31
0.0
  0
LINE
  5
266
330
1F
100
AcDbEntity
  8
0
100
AcDbLine
 10
-52.44875398262589
 20
12.0106696234809
 30
0.0
 11
-27.73560471505849
 21
12.0106696234809
 31
0.0
  0
LINE
  5
267
330
1F
100
AcDbEntity
  8
0
100
AcDbLine
 10
27.73672756618925
 20
12.0106696234809
 30
0.0
 11
52.4734551323785
 21
12.0106696234809
 31
0.0
  0
LINE
  5
268
330
1F
100
AcDbEntity
  8
0
100
AcDbLine
 10
2.999999999999995
 20
16.01066962348089
 30
0.0
 11
46.47345513237852
 21
16.01066962348089
 31
0.0
  0
LINE
  5
269
330
1F
100
AcDbEntity
  8
0
100
AcDbLine
 10
-21.73560376866543
 20
12.0106696234809
 30
0.0
 11
21.73672756618926
 21
12.0106696234809
 31
0.0
  0
LINE
  5
26A
330
1F
100
AcDbEntity
  8
0
100
AcDbLine
 10
-46.47345513237852
 20
16.01066962348089
 30
0.0
 11
-2.999999999999995
 21
16.01066962348089
 31
0.0
  0
LINE
  5
26B
330
1F
100
AcDbEntity
  8
0
100
AcDbLine
 10
-52.44875398262589
 20
12.0106696234809
 30
0.0
 11
-52.44875398262589
 21
4.010669623480913
 31
0.0
  0
LINE
  5
26C
330
1F
100
AcDbEntity
  8
0
100
AcDbLine
 10
52.4734551323785
 20
12.0106696234809
 30
0.0
 11
52.4734551323785
 21
4.010669623480913
 31
0.0
  0
LINE
  5
26D
330
1F
100
AcDbEntity
  8
0
100
AcDbLine
 10
27.73672756618925
 20
4.010669623480913
 30
0.0
 11
52.4734551323785
 21
4.010669623480913
 31
0.0
  0
LINE
  5
26E
330
1F
100
AcDbEntity
  8
0
100
AcDbLine
 10
2.999999999999995
 20
8.010669623480906
 30
0.0
 11
46.47345513237852
 21
8.010669623480906
 31
0.0
  0
LINE
  5
26F
330
1F
100
AcDbEntity
  8
0
100
AcDbLine
 10
-21.73560376866543
 20
4.010669623480913
 30
0.0
 11
21.73672756618926
 21
4.010669623480913
 31
0.0
  0
LINE
  5
270
330
1F
100
AcDbEntity
  8
0
100
AcDbLine
 10
-46.47345513237852
 20
8.010669623480906
 30
0.0
 11
-2.999999999999995
 21
8.010669623480906
 31
0.0
  0
LINE
  5
271
330
1F
100
AcDbEntity
  8
0
100
AcDbLine
 10
-52.44875398262589
 20
4.010669623480913
 30
0.0
 11
-27.73560471505849
 21
4.010669623480913
 31
0.0
  0
LINE
  5
272
330
1F
100
AcDbEntity
  8
0
100
AcDbLine
 10
-52.44875398262589
 20
4.010669623480913
 30
0.0
 11
-52.44875398262589
 21
-3.989330376519072
 31
0.0
  0
LINE
  5
273
330
1F
100
AcDbEntity
  8
0
100
AcDbLine
 10
52.4734551323785
 20
4.010669623480913
 30
0.0
 11
52.4734551323785
 21
-3.989330376519072
 31
0.0
  0
LINE
  5
274
330
1F
100
AcDbEntity
  8
0
100
AcDbLine
 10
-52.44875398262589
 20
-3.989330376519072
 30
0.0
 11
-27.73560471505849
 21
-3.989330376519072
 31
0.0
  0
LINE
  5
275
330
1F
100
AcDbEntity
  8
0
100
AcDbLine
 10
27.73672756618925
 20
-3.989330376519072
 30
0.0
 11
52.4734551323785
 21
-3.989330376519072
 31
0.0
  0
LINE
  5
276
330
1F
100
AcDbEntity
  8
0
100
AcDbLine
 10
2.999999999999995
 20
0.0106696234809206
 30
0.0
 11
46.47345513237852
 21
0.0106696234809206
 31
0.0
  0
LINE
  5
277
330
1F
100
AcDbEntity
  8
0
100
AcDbLine
 10
-21.73560376866543
 20
-3.989330376519072
 30
0.0
 11
21.73672756618926
 21
-3.989330376519072
 31
0.0
  0
LINE
  5
278
330
1F
100
AcDbEntity
  8
0
100
AcDbLine
 10
-46.47345513237852
 20
0.0106696234809206
 30
0.0
 11
-2.999999999999995
 21
0.0106696234809206
 31
0.0
  0
LINE
  5
279
330
1F
100
AcDbEntity
  8
0
100
AcDbLine
 10
-52.44875398262589
 20
-3.989330376519072
 30
0.0
 11
-52.44875398262589
 21
-11.98933037651906
 31
0.0
  0
LINE
  5
27A
330
1F
100
AcDbEntity
  8
0
100
AcDbLine
 10
52.4734551323785
 20
-3.989330376519072
 30
0.0
 11
52.4734551323785
 21
-11.98933037651906
 31
0.0
  0
LINE
  5
27B
330
1F
100
AcDbEntity
  8
0
100
AcDbLine
 10
-21.73560376866543
 20
-11.98933037651906
 30
0.0
 11
21.73672756618926
 21
-11.98933037651906
 31
0.0
  0
LINE
  5
27C
330
1F
100
AcDbEntity
  8
0
100
AcDbLine
 10
27.73672756618925
 20
-11.98933037651906
 30
0.0
 11
52.4734551323785
 21
-11.98933037651906
 31
0.0
  0
LINE
  5
27D
330
1F
100
AcDbEntity
  8
0
100
AcDbLine
 10
-46.47345513237852
 20
-7.989330376519065
 30
0.0
 11
-2.999999999999995
 21
-7.989330376519065
 31
0.0
  0
LINE
  5
27E
330
1F
100
AcDbEntity
  8
0
100
AcDbLine
 10
2.999999999999995
 20
-7.989330376519065
 30
0.0
 11
46.47345513237852
 21
-7.989330376519065
 31
0.0
  0
LINE
  5
27F
330
1F
100
AcDbEntity
  8
0
100
AcDbLine
 10
-52.44875398262589
 20
-11.98933037651906
 30
0.0
 11
-27.73560471505849
 21
-11.98933037651906
 31
0.0
  0
LINE
  5
280
330
1F
100
AcDbEntity
  8
0
100
AcDbLine
 10
-52.44875398262589
 20
-11.98933037651906
 30
0.0
 11
-52.44875398262589
 21
-19.98933037651904
 31
0.0
  0
LINE
  5
281
330
1F
100
AcDbEntity
  8
0
100
AcDbLine
 10
52.4734551323785
 20
-11.98933037651906
 30
0.0
 11
52.4734551323785
 21
-19.98933037651904
 31
0.0
  0
LINE
  5
282
330
1F
100
AcDbEntity
  8
0
100
AcDbLine
 10
-46.47345513237852
 20
-15.98933037651905
 30
0.0
 11
-2.999999999999995
 21
-15.98933037651905
 31
0.0
  0
LINE
  5
283
330
1F
100
AcDbEntity
  8
0
100
AcDbLine
 10
2.999999999999995
 20
-15.98933037651905
 30
0.0
 11
46.47345513237852
 21
-15.98933037651905
 31
0.0
  0
LINE
  5
284
330
1F
100
AcDbEntity
  8
0
100
AcDbLine
 10
-21.73560376866543
 20
-19.98933037651904
 30
0.0
 11
21.73672756618926
 21
-19.98933037651904
 31
0.0
  0
LINE
  5
285
330
1F
100
AcDbEntity
  8
0
100
AcDbLine
 10
27.73672756618925
 20
-19.98933037651904
 30
0.0
 11
52.4734551323785
 21
-19.98933037651904
 31
0.0
  0
LINE
  5
286
330
1F
100
AcDbEntity
  8
0
100
AcDbLine
 10
-52.44875398262589
 20
-19.98933037651904
 30
0.0
 11
-27.73560471505849
 21
-19.98933037651904
 31
0.0
  0
LINE
  5
287
330
1F
100
AcDbEntity
  8
0
100
AcDbLine
 10
-52.44875398262589
 20
-19.98933037651904
 30
0.0
 11
-52.44875398262589
 21
-27.98933037651903
 31
0.0
  0
LINE
  5
288
330
1F
100
AcDbEntity
  8
0
100
AcDbLine
 10
52.4734551323785
 20
-19.98933037651904
 30
0.0
 11
52.4734551323785
 21
-27.98933037651903
 31
0.0
  0
LINE
  5
289
330
1F
100
AcDbEntity
  8
0
100
AcDbLine
 10
-46.47345513237852
 20
-63.98933037651896
 30
0.0
 11
-2.999999999999995
 21
-63.98933037651896
 31
0.0
  0
LINE
  5
28A
330
1F
100
AcDbEntity
  8
0
100
AcDbLine
 10
-21.73560376866543
 20
-59.98933037651897
 30
0.0
 11
21.73672756618926
 21
-59.98933037651897
 31
0.0
  0
LINE
  5
28B
330
1F
100
AcDbEntity
  8
0
100
AcDbLine
 10
2.999999999999995
 20
-63.98933037651896
 30
0.0
 11
46.47345513237852
 21
-63.98933037651896
 31
0.0
  0
LINE
  5
28C
330
1F
100
AcDbEntity
  8
0
100
AcDbLine
 10
-46.47345513237852
 20
-55.98933037651898
 30
0.0
 11
-2.999999999999995
 21
-55.98933037651898
 31
0.0
  0
LINE
  5
28D
330
1F
100
AcDbEntity
  8
0
100
AcDbLine
 10
-21.73560376866543
 20
-67.98933037651895
 30
0.0
 11
21.73672756618926
 21
-67.98933037651895
 31
0.0
  0
LINE
  5
28E
330
1F
100
AcDbEntity
  8
0
100
AcDbLine
 10
2.999999999999995
 20
-55.98933037651898
 30
0.0
 11
46.47345513237852
 21
-55.98933037651898
 31
0.0
  0
LINE
  5
28F
330
1F
100
AcDbEntity
  8
0
100
AcDbLine
 10
27.73672756618925
 20
-59.98933037651897
 30
0.0
 11
52.4734551323785
 21
-59.98933037651897
 31
0.0
  0
LINE
  5
290
330
1F
100
AcDbEntity
  8
0
100
AcDbLine
 10
-52.44875398262589
 20
-67.98933037651895
 30
0.0
 11
-27.73560471505849
 21
-67.98933037651895
 31
0.0
  0
LINE
  5
291
330
1F
100
AcDbEntity
  8
0
100
AcDbLine
 10
27.73672756618925
 20
-27.98933037651903
 30
0.0
 11
52.4734551323785
 21
-27.98933037651903
 31
0.0
  0
LINE
  5
292
330
1F
100
AcDbEntity
  8
0
100
AcDbLine
 10
-21.73560376866543
 20
-27.98933037651903
 30
0.0
 11
21.73672756618926
 21
-27.98933037651903
 31
0.0
  0
LINE
  5
293
330
1F
100
AcDbEntity
  8
0
100
AcDbLine
 10
-52.44875398262589
 20
-59.98933037651897
 30
0.0
 11
-27.73560471505849
 21
-59.98933037651897
 31
0.0
  0
LINE
  5
294
330
1F
100
AcDbEntity
  8
0
100
AcDbLine
 10
-46.47345513237852
 20
-23.98933037651904
 30
0.0
 11
-2.999999999999995
 21
-23.98933037651904
 31
0.0
  0
LINE
  5
295
330
1F
100
AcDbEntity
  8
0
100
AcDbLine
 10
27.73672756618925
 20
-67.98933037651895
 30
0.0
 11
52.4734551323785
 21
-67.98933037651895
 31
0.0
  0
LINE
  5
296
330
1F
100
AcDbEntity
  8
0
100
AcDbLine
 10
-52.44875398262589
 20
-27.98933037651903
 30
0.0
 11
-27.73560471505849
 21
-27.98933037651903
 31
0.0
  0
LINE
  5
297
330
1F
100
AcDbEntity
  8
0
100
AcDbLine
 10
-52.44875398262589
 20
-51.98933037651899
 30
0.0
 11
-27.73560471505849
 21
-51.98933037651899
 31
0.0
  0
LINE
  5
298
330
1F
100
AcDbEntity
  8
0
100
AcDbLine
 10
-52.44875398262589
 20
-35.98933037651901
 30
0.0
 11
-27.73560471505849
 21
-35.98933037651901
 31
0.0
  0
LINE
  5
299
330
1F
100
AcDbEntity
  8
0
100
AcDbLine
 10
-46.47345513237852
 20
-47.98933037651899
 30
0.0
 11
-2.999999999999995
 21
-47.98933037651899
 31
0.0
  0
LINE
  5
29A
330
1F
100
AcDbEntity
  8
0
100
AcDbLine
 10
-52.44875398262589
 20
-43.989330376519
 30
0.0
 11
-27.73560471505849
 21
-43.989330376519
 31
0.0
  0
LINE
  5
29B
330
1F
100
AcDbEntity
  8
0
100
AcDbLine
 10
2.999999999999995
 20
-31.98933037651902
 30
0.0
 11
46.47345513237852
 21
-31.98933037651902
 31
0.0
  0
LINE
  5
29C
330
1F
100
AcDbEntity
  8
0
100
AcDbLine
 10
2.999999999999995
 20
-23.98933037651904
 30
0.0
 11
46.47345513237852
 21
-23.98933037651904
 31
0.0
  0
LINE
  5
29D
330
1F
100
AcDbEntity
  8
0
100
AcDbLine
 10
-21.73560376866543
 20
-51.98933037651899
 30
0.0
 11
21.73672756618926
 21
-51.98933037651899
 31
0.0
  0
LINE
  5
29E
330
1F
100
AcDbEntity
  8
0
100
AcDbLine
 10
27.73672756618925
 20
-43.989330376519
 30
0.0
 11
52.4734551323785
 21
-43.989330376519
 31
0.0
  0
LINE
  5
29F
330
1F
100
AcDbEntity
  8
0
100
AcDbLine
 10
2.999999999999995
 20
-39.98933037651901
 30
0.0
 11
46.47345513237852
 21
-39.98933037651901
 31
0.0
  0
LINE
  5
2A0
330
1F
100
AcDbEntity
  8
0
100
AcDbLine
 10
27.73672756618925
 20
-35.98933037651901
 30
0.0
 11
52.4734551323785
 21
-35.98933037651901
 31
0.0
  0
LINE
  5
2A1
330
1F
100
AcDbEntity
  8
0
100
AcDbLine
 10
-21.73560376866543
 20
-35.98933037651901
 30
0.0
 11
21.73672756618926
 21
-35.98933037651901
 31
0.0
  0
LINE
  5
2A2
330
1F
100
AcDbEntity
  8
0
100
AcDbLine
 10
27.73672756618925
 20
-51.98933037651899
 30
0.0
 11
52.4734551323785
 21
-51.98933037651899
 31
0.0
  0
LINE
  5
2A3
330
1F
100
AcDbEntity
  8
0
100
AcDbLine
 10
2.999999999999995
 20
-47.98933037651899
 30
0.0
 11
46.47345513237852
 21
-47.98933037651899
 31
0.0
  0
LINE
  5
2A4
330
1F
100
AcDbEntity
  8
0
100
AcDbLine
 10
-21.73560376866543
 20
-43.989330376519
 30
0.0
 11
21.73672756618926
 21
-43.989330376519
 31
0.0
  0
LINE
  5
2A5
330
1F
100
AcDbEntity
  8
0
100
AcDbLine
 10
-46.47345513237852
 20
-31.98933037651902
 30
0.0
 11
-2.999999999999995
 21
-31.98933037651902
 31
0.0
  0
LINE
  5
2A6
330
1F
100
AcDbEntity
  8
0
100
AcDbLine
 10
-46.47345513237852
 20
-39.98933037651901
 30
0.0
 11
-2.999999999999995
 21
-39.98933037651901
 31
0.0
  0
LINE
  5
2A7
330
1F
100
AcDbEntity
  8
0
100
AcDbLine
 10
-52.44875398262589
 20
-67.98933037651895
 30
0.0
 11
-52.44875398262589
 21
-73.98933037651895
 31
0.0
  0
LINE
  5
2A8
330
1F
100
AcDbEntity
  8
0
100
AcDbLine
 10
-52.44875398262589
 20
-59.98933037651897
 30
0.0
 11
-52.44875398262589
 21
-67.98933037651895
 31
0.0
  0
LINE
  5
2A9
330
1F
100
AcDbEntity
  8
0
100
AcDbLine
 10
-52.44875398262589
 20
-27.98933037651903
 30
0.0
 11
-52.44875398262589
 21
-35.98933037651901
 31
0.0
  0
LINE
  5
2AA
330
1F
100
AcDbEntity
  8
0
100
AcDbLine
 10
52.4734551323785
 20
-59.98933037651897
 30
0.0
 11
52.4734551323785
 21
-67.98933037651895
 31
0.0
  0
LINE
  5
2AB
330
1F
100
AcDbEntity
  8
0
100
AcDbLine
 10
52.4734551323785
 20
-27.98933037651903
 30
0.0
 11
52.4734551323785
 21
-35.98933037651901
 31
0.0
  0
LINE
  5
2AC
330
1F
100
AcDbEntity
  8
0
100
AcDbLine
 10
-52.44875398262589
 20
-51.98933037651899
 30
0.0
 11
-52.44875398262589
 21
-59.98933037651897
 31
0.0
  0
LINE
  5
2AD
330
1F
100
AcDbEntity
  8
0
100
AcDbLine
 10
-52.44875398262589
 20
-35.98933037651901
 30
0.0
 11
-52.44875398262589
 21
-43.989330376519
 31
0.0
  0
LINE
  5
2AE
330
1F
100
AcDbEntity
  8
0
100
AcDbLine
 10
52.4734551323785
 20
-67.98933037651895
 30
0.0
 11
52.4734551323785
 21
-73.98933037651895
 31
0.0
  0
LINE
  5
2AF
330
1F
100
AcDbEntity
  8
0
100
AcDbLine
 10
52.4734551323785
 20
-43.989330376519
 30
0.0
 11
52.4734551323785
 21
-51.98933037651899
 31
0.0
  0
LINE
  5
2B0
330
1F
100
AcDbEntity
  8
0
100
AcDbLine
 10
52.4734551323785
 20
-35.98933037651901
 30
0.0
 11
52.4734551323785
 21
-43.989330376519
 31
0.0
  0
LINE
  5
2B1
330
1F
100
AcDbEntity
  8
0
100
AcDbLine
 10
-52.44875398262589
 20
-43.989330376519
 30
0.0
 11
-52.44875398262589
 21
-51.98933037651899
 31
0.0
  0
LINE
  5
2B2
330
1F
100
AcDbEntity
  8
0
100
AcDbLine
 10
52.4734551323785
 20
-51.98933037651899
 30
0.0
 11
52.4734551323785
 21
-59.98933037651897
 31
0.0
  0
LINE
  5
2B3
330
1F
100
AcDbEntity
  8
0
100
AcDbLine
 10
-46.47345513237852
 20
-71.98933037651895
 30
0.0
 11
-2.999999999999995
 21
-71.98933037651895
 31
0.0
  0
LINE
  5
2B4
330
1F
100
AcDbEntity
  8
0
100
AcDbLine
 10
2.999999999999995
 20
-71.98933037651895
 30
0.0
 11
46.47345513237852
 21
-71.98933037651895
 31
0.0
  0
ENDSEC
  0
SECTION
  2
OBJECTS
  0
DICTIONARY
  5
C
330
0
100
AcDbDictionary
  3
ACAD_GROUP
350
D
  3
ACAD_LAYOUT
350
1A
  3
ACAD_MATERIAL
350
43
  3
ACAD_MLEADERSTYLE
350
2D7
  3
ACAD_MLINESTYLE
350
17
  3
ACAD_PLOTSETTINGS
350
19
  3
ACAD_SCALELIST
350
47
  3
ACAD_VISUALSTYLE
350
2A
  3
ACDBHEADERROUNDTRIPXREC
350
2B5
  3
ACDBVARIABLEDICTIONARY
350
2D5
  0
DICTIONARY
  5
2DC
330
8
100
AcDbDictionary
280
     1
  3
ACAD_XREC_ROUNDTRIP
360
2DD
  0
DICTIONARY
  5
D
102
{ACAD_REACTORS
330
C
102
}
330
C
100
AcDbDictionary
  0
DICTIONARY
  5
1A
102
{ACAD_REACTORS
330
C
102
}
330
C
100
AcDbDictionary
  0
DICTIONARY
  5
43
102
{ACAD_REACTORS
330
C
102
}
330
C
100
AcDbDictionary
  3
BYBLOCK
350
45
  3
BYLAYER
350
44
  3
GLOBAL
350
46
  0
DICTIONARY
  5
2D7
102
{ACAD_REACTORS
330
C
102
}
330
C
100
AcDbDictionary
  0
DICTIONARY
  5
17
102
{ACAD_REACTORS
330
C
102
}
330
C
100
AcDbDictionary
  3
STANDARD
350
18
  0
DICTIONARY
  5
19
102
{ACAD_REACTORS
330
C
102
}
330
C
100
AcDbDictionary
  0
DICTIONARY
  5
47
102
{ACAD_REACTORS
330
C
102
}
330
C
100
AcDbDictionary
  3
A0
350
48
  3
A1
350
49
  3
A2
350
4A
  3
A3
350
4B
  3
A4
350
4C
  3
A5
350
4D
  3
A6
350
4E
  3
A7
350
4F
  3
A8
350
50
  3
A9
350
51
  3
B0
350
52
  3
B1
350
53
  3
B2
350
54
  3
B3
350
55
  3
B4
350
56
  3
B5
350
57
  3
B6
350
58
  3
B7
350
59
  3
B8
350
5A
  3
B9
350
5B
  3
C0
350
5C
  3
C1
350
5D
  3
C2
350
5E
  3
C3
350
5F
  3
C4
350
60
  3
C5
350
61
  3
C6
350
62
  3
C7
350
63
  3
C8
350
64
  3
C9
350
65
  3
D0
350
66
  3
D1
350
67
  3
D2
350
68
  0
DICTIONARY
  5
2A
102
{ACAD_REACTORS
330
C
102
}
330
C
100
AcDbDictionary
  3
2DWIREFRAME
350
2F
  3
BASIC
350
32
  3
BRIGHTEN
350
36
  3
COLORCHANGE
350
3A
  3
CONCEPTUAL
350
34
  3
DIM
350
35
  3
EDGECOLOROFF
350
3D
  3
FACEPATTERN
350
39
  3
FLAT
350
2B
  3
FLATWITHEDGES
350
2C
  3
GOURAUD
350
2D
  3
GOURAUDWITHEDGES
350
2E
  3
HIDDEN
350
31
  3
JITTEROFF
350
3B
  3
LINEPATTERN
350
38
  3
OVERHANGOFF
350
3C
  3
REALISTIC
350
33
  3
SHADED
350
42
  3
SHADED_WITH_EDGES
350
41
  3
SHADES_OF_GRAY
350
3E
  3
SKETCHY
350
3F
  3
THICKEN
350
37
  3
WIREFRAME
350
30
  3
X-RAY
350
40
  0
DICTIONARY
  5
2B5
102
{ACAD_REACTORS
330
C
102
}
330
C
100
AcDbDictionary
  3
CEPSNTYPE
350
2BE
  3
DIMSTYLEDATA
350
2D4
  3
FINGERPRINTGUID
350
2BF
  3
HYPERLINKBASE
350
2B8
  3
INSUNITS
350
2BD
  3
LAYOUTDICT
350
2BA
  3
LWETCUNION
350
2BC
  3
PLOTSETDICT
350
2BB
  3
PSVPSCALE
350
2C1
  3
PUCSBASE
350
2C4
  3
PUCSORGBACK
350
2CA
  3
PUCSORGBOTTOM
350
2C6
  3
PUCSORGFRONT
350
2C9
  3
PUCSORGLEFT
350
2C7
  3
PUCSORGRIGHT
350
2C8
  3
PUCSORGTOP
350
2C5
  3
PUCSORTHOREF
350
2C2
  3
PUCSORTHOVIEW
350
2C3
  3
STYLESHEET
350
2B9
  3
TSTACKALIGN
350
2B6
  3
TSTACKSIZE
350
2B7
  3
UCSBASE
350
2CD
  3
UCSORGBACK
350
2D3
  3
UCSORGBOTTOM
350
2CF
  3
UCSORGFRONT
350
2D2
  3
UCSORGLEFT
350
2D0
  3
UCSORGRIGHT
350
2D1
  3
UCSORGTOP
350
2CE
  3
UCSORTHOREF
350
2CB
  3
UCSORTHOVIEW
350
2CC
  3
VERSIONGUID
350
2C0
  0
DICTIONARY
  5
2D5
102
{ACAD_REACTORS
330
C
102
}
330
C
100
AcDbDictionary
  3
CANNOSCALE
350
2DE
  3
DIMASSOC
350
2DA
  3
HIDETEXT
350
2DB
  3
MSLTSCALE
350
2DF
  0
XRECORD
  5
2DD
102
{ACAD_REACTORS
330
2DC
102
}
330
2DC
100
AcDbXrecord
102
VTR_0.000_0.000_1.000_1.000_GRIDDISPLAY
 70
     3
102
VTR_0.000_0.000_1.000_1.000_GRIDMAJOR
 70
     5
102
VTR_0.000_0.000_1.000_1.000_DEFAULTLIGHTING
280
     1
102
VTR_0.000_0.000_1.000_1.000_DEFAULTLIGHTINGTYPE
 70
     1
102
VTR_0.000_0.000_1.000_1.000_BRIGHTNESS
141
0.0
102
VTR_0.000_0.000_1.000_1.000_CONTRAST
142
0.0
  0
MATERIAL
  5
45
102
{ACAD_REACTORS
330
43
102
}
102
{ACAD_XDICTIONARY
360
2E2
102
}
330
43
100
AcDbMaterial
  1
BYBLOCK
  0
MATERIAL
  5
44
102
{ACAD_REACTORS
330
43
102
}
102
{ACAD_XDICTIONARY
360
2E0
102
}
330
43
100
AcDbMaterial
  1
BYLAYER
  0
MATERIAL
  5
46
102
{ACAD_REACTORS
330
43
102
}
102
{ACAD_XDICTIONARY
360
2E4
102
}
330
43
100
AcDbMaterial
  1
GLOBAL
  0
MLINESTYLE
  5
18
102
{ACAD_REACTORS
330
17
102
}
330
17
100
AcDbMlineStyle
  2
Standard
 70
     0
  3

 62
   256
 51
90.0
 52
90.0
 71
     2
 49
0.5
 62
   256
  6
BYLAYER
 49
-0.5
 62
   256
  6
BYLAYER
  0
ACAD_PROXY_OBJECT
  5
48
102
{ACAD_REACTORS
330
47
102
}
330
47
100
AcDbProxyObject
 90
      499
 91
      503
 93
       41
310
903313A31580
  0
ACAD_PROXY_OBJECT
  5
49
102
{ACAD_REACTORS
330
47
102
}
330
47
100
AcDbProxyObject
 90
      499
 91
      503
 93
      105
310
903313A324000000000000004000
  0
ACAD_PROXY_OBJECT
  5
4A
102
{ACAD_REACTORS
330
47
102
}
330
47
100
AcDbProxyObject
 90
      499
 91
      503
 93
      105
310
903313A344000000000000104000
  0
ACAD_PROXY_OBJECT
  5
4B
102
{ACAD_REACTORS
330
47
102
}
330
47
100
AcDbProxyObject
 90
      499
 91
      503
 93
      105
310
903313A354000000000000144000
  0
ACAD_PROXY_OBJECT
  5
4C
102
{ACAD_REACTORS
330
47
102
}
330
47
100
AcDbProxyObject
 90
      499
 91
      503
 93
      105
310
903313A384000000000000204000
  0
ACAD_PROXY_OBJECT
  5
4D
102
{ACAD_REACTORS
330
47
102
}
330
47
100
AcDbProxyObject
 90
      499
 91
      503
 93
      113
310
904313A31304000000000000244000
  0
ACAD_PROXY_OBJECT
  5
4E
102
{ACAD_REACTORS
330
47
102
}
330
47
100
AcDbProxyObject
 90
      499
 91
      503
 93
      113
310
904313A31364000000000000304000
  0
ACAD_PROXY_OBJECT
  5
4F
102
{ACAD_REACTORS
330
47
102
}
330
47
100
AcDbProxyObject
 90
      499
 91
      503
 93
      113
310
904313A32304000000000000344000
  0
ACAD_PROXY_OBJECT
  5
50
102
{ACAD_REACTORS
330
47
102
}
330
47
100
AcDbProxyObject
 90
      499
 91
      503
 93
      113
310
904313A333040000000000003E4000
  0
ACAD_PROXY_OBJECT
  5
51
102
{ACAD_REACTORS
330
47
102
}
330
47
100
AcDbProxyObject
 90
      499
 91
      503
 93
      113
310
904313A34304000000000000444000
  0
ACAD_PROXY_OBJECT
  5
52
102
{ACAD_REACTORS
330
47
102
}
330
47
100
AcDbProxyObject
 90
      499
 91
      503
 93
      113
310
904313A35304000000000000494000
  0
ACAD_PROXY_OBJECT
  5
53
102
{ACAD_REACTORS
330
47
102
}
330
47
100
AcDbProxyObject
 90
      499
 91
      503
 93
      121
310
905313A3130304000000000000594000
  0
ACAD_PROXY_OBJECT
  5
54
102
{ACAD_REACTORS
330
47
102
}
330
47
100
AcDbProxyObject
 90
      499
 91
      503
 93
      105
310
903323A310000000000000010100
  0
ACAD_PROXY_OBJECT
  5
55
102
{ACAD_REACTORS
330
47
102
}
330
47
100
AcDbProxyObject
 90
      499
 91
      503
 93
      105
310
903343A310000000000000410100
  0
ACAD_PROXY_OBJECT
  5
56
102
{ACAD_REACTORS
330
47
102
}
330
47
100
AcDbProxyObject
 90
      499
 91
      503
 93
      105
310
903383A310000000000000810100
  0
ACAD_PROXY_OBJECT
  5
57
102
{ACAD_REACTORS
330
47
102
}
330
47
100
AcDbProxyObject
 90
      499
 91
      503
 93
      113
310
90431303A310000000000000910100
  0
ACAD_PROXY_OBJECT
  5
58
102
{ACAD_REACTORS
330
47
102
}
330
47
100
AcDbProxyObject
 90
      499
 91
      503
 93
      121
310
9053130303A310000000000001650100
  0
ACAD_PROXY_OBJECT
  5
59
102
{ACAD_REACTORS
330
47
102
}
330
47
100
AcDbProxyObject
 90
      499
 91
      503
 93
      257
310
90E312F31323822203D2031272D3022000000000000200FC000000000000284000
  0
ACAD_PROXY_OBJECT
  5
5A
102
{ACAD_REACTORS
330
47
102
}
330
47
100
AcDbProxyObject
 90
      499
 91
      503
 93
      249
310
90D312F363422203D2031272D3022000000000000240FC000000000000284000
  0
ACAD_PROXY_OBJECT
  5
5B
102
{ACAD_REACTORS
330
47
102
}
330
47
100
AcDbProxyObject
 90
      499
 91
      503
 93
      249
310
90D312F333222203D2031272D3022000000000000280FC000000000000284000
  0
ACAD_PROXY_OBJECT
  5
5C
102
{ACAD_REACTORS
330
47
102
}
330
47
100
AcDbProxyObject
 90
      499
 91
      503
 93
      249
310
90D312F313622203D2031272D30220000000000002C0FC000000000000284000
  0
ACAD_PROXY_OBJECT
  5
5D
102
{ACAD_REACTORS
330
47
102
}
330
47
100
AcDbProxyObject
 90
      499
 91
      503
 93
      249
310
90D332F333222203D2031272D30220000000000002E0FC000000000000284000
  0
ACAD_PROXY_OBJECT
  5
5E
102
{ACAD_REACTORS
330
47
102
}
330
47
100
AcDbProxyObject
 90
      499
 91
      503
 93
      241
310
90C312F3822203D2031272D3022000000000000300FC000000000000284000
  0
ACAD_PROXY_OBJECT
  5
5F
102
{ACAD_REACTORS
330
47
102
}
330
47
100
AcDbProxyObject
 90
      499
 91
      503
 93
      249
310
90D332F313622203D2031272D3022000000000000320FC000000000000284000
  0
ACAD_PROXY_OBJECT
  5
60
102
{ACAD_REACTORS
330
47
102
}
330
47
100
AcDbProxyObject
 90
      499
 91
      503
 93
      241
310
90C312F3422203D2031272D3022000000000000340FC000000000000284000
  0
ACAD_PROXY_OBJECT
  5
61
102
{ACAD_REACTORS
330
47
102
}
330
47
100
AcDbProxyObject
 90
      499
 91
      503
 93
      241
310
90C332F3822203D2031272D3022000000000000360FC000000000000284000
  0
ACAD_PROXY_OBJECT
  5
62
102
{ACAD_REACTORS
330
47
102
}
330
47
100
AcDbProxyObject
 90
      499
 91
      503
 93
      241
310
90C312F3222203D2031272D3022000000000000380FC000000000000284000
  0
ACAD_PROXY_OBJECT
  5
63
102
{ACAD_REACTORS
330
47
102
}
330
47
100
AcDbProxyObject
 90
      499
 91
      503
 93
      241
310
90C332F3422203D2031272D30220000000000003A0FC000000000000284000
  0
ACAD_PROXY_OBJECT
  5
64
102
{ACAD_REACTORS
330
47
102
}
330
47
100
AcDbProxyObject
 90
      499
 91
      503
 93
      161
310
90A3122203D2031272D30224000000000000284000
  0
ACAD_PROXY_OBJECT
  5
65
102
{ACAD_REACTORS
330
47
102
}
330
47
100
AcDbProxyObject
 90
      499
 91
      503
 93
      257
310
90E312D312F3222203D2031272D30220000000000003E0FC000000000000284000
  0
ACAD_PROXY_OBJECT
  5
66
102
{ACAD_REACTORS
330
47
102
}
330
47
100
AcDbProxyObject
 90
      499
 91
      503
 93
      225
310
90A3322203D2031272D302200000000000002100000000000000284000
  0
ACAD_PROXY_OBJECT
  5
67
102
{ACAD_REACTORS
330
47
102
}
330
47
100
AcDbProxyObject
 90
      499
 91
      503
 93
      225
310
90A3622203D2031272D302200000000000006100000000000000284000
  0
ACAD_PROXY_OBJECT
  5
68
102
{ACAD_REACTORS
330
47
102
}
330
47
100
AcDbProxyObject
 90
      499
 91
      503
 93
      249
310
90D31272D3022203D2031272D30220000000000000A100000000000000284000
  0
ACAD_PROXY_OBJECT
  5
2F
102
{ACAD_REACTORS
330
2A
102
}
330
2A
100
AcDbProxyObject
 90
      499
 91
      501
 93
      436
310
42CC9915DA5C99599C985B595049028333333333333E33F0000000000000F90107901411070040501600405405064090741402480A0340
1001
ACAD
1000
AcDbSavedByObjectVersion
1070
     0
  0
ACAD_PROXY_OBJECT
  5
32
102
{ACAD_REACTORS
330
2A
102
}
330
2A
100
AcDbProxyObject
 90
      499
 91
      501
 93
      388
310
4150985CDA58D07406404333333333333E33F0000000000000F90107A41107004050150841D405064090741402480A0350
1001
ACAD
1000
AcDbSavedByObjectVersion
1070
     0
  0
ACAD_PROXY_OBJECT
  5
36
102
{ACAD_REACTORS
330
2A
102
}
330
2A
100
AcDbProxyObject
 90
      499
 91
      501
 93
      428
310
42109C9A59DA1D195B90C409028333333333333E33F0000000000000F9010790141107004050150841D405064090741402480A029950
1001
ACAD
1000
AcDbSavedByObjectVersion
1070
     0
  0
ACAD_PROXY_OBJECT
  5
3A
102
{ACAD_REACTORS
330
2A
102
}
330
2A
100
AcDbProxyObject
 90
      499
 91
      501
 93
      452
310
42D0DBDB1BDC90DA185B99D95104090240C333333333333E33F0000000000000F90108901411070040501508421405064090741402480A0350
1001
ACAD
1000
AcDbSavedByObjectVersion
1070
     0
  0
ACAD_PROXY_OBJECT
  5
34
102
{ACAD_REACTORS
330
2A
102
}
330
2A
100
AcDbProxyObject
 90
      499
 91
      501
 93
      500
310
4290DBDB98D95C1D1D585B10940D028333333333333E33F0000000000000F90107902409070040501000000000018199010841D405064090740C02480A0340
1001
ACAD
1000
AcDbSavedByObjectVersion
1070
     0
  0
ACAD_PROXY_OBJECT
  5
35
102
{ACAD_REACTORS
330
2A
102
}
330
2A
100
AcDbProxyObject
 90
      499
 91
      501
 93
      412
310
40D11A5B50B409028333333333333E33F0000000000000F9010790141107004050150841D405064090741402480A02677FFFFFD0
1001
ACAD
1000
AcDbSavedByObjectVersion
1070
     0
  0
ACAD_PROXY_OBJECT
  5
3D
102
{ACAD_REACTORS
330
2A
102
}
330
2A
100
AcDbProxyObject
 90
      499
 91
      501
 93
      452
310
43115919D950DBDB1BDC93D999916409028333333333333E33F0000000000000F9010790141107004050150841D405064090741402480A0350
1001
ACAD
1000
AcDbSavedByObjectVersion
1070
     0
  0
ACAD_PROXY_OBJECT
  5
39
102
{ACAD_REACTORS
330
2A
102
}
330
2A
100
AcDbProxyObject
 90
      499
 91
      501
 93
      444
310
42D19858D95C185D1D195C9B90F409028333333333333E33F0000000000000F9010790141107004050150841D405064090741402480A0350
1001
ACAD
1000
AcDbSavedByObjectVersion
1070
     0
  0
ACAD_PROXY_OBJECT
  5
2B
102
{ACAD_REACTORS
330
2A
102
}
330
2A
100
AcDbProxyObject
 90
      499
 91
      501
 93
      380
310
41119B185D240901404333333333333E33F0000000000000F9010740A907004050150841D405064090741402480A1B50
1001
ACAD
1000
AcDbSavedByObjectVersion
1070
     0
  0
ACAD_PROXY_OBJECT
  5
2C
102
{ACAD_REACTORS
330
2A
102
}
330
2A
100
AcDbProxyObject
 90
      499
 91
      501
 93
      468
310
43519B185D15DA5D1A115919D95CD0140901404333333333333E33F0000000000000F90107409019070040501600405405064090741402480A1B50
1001
ACAD
1000
AcDbSavedByObjectVersion
1070
     0
  0
ACAD_PROXY_OBJECT
  5
2D
102
{ACAD_REACTORS
330
2A
102
}
330
2A
100
AcDbProxyObject
 90
      499
 91
      501
 93
      404
310
41D1DBDD5C985D5910240902404333333333333E33F0000000000000F9010740A9070040501641D405064090741402480A1B50
1001
ACAD
1000
AcDbSavedByObjectVersion
1070
     0
  0
ACAD_PROXY_OBJECT
  5
2E
102
{ACAD_REACTORS
330
2A
102
}
330
2A
100
AcDbProxyObject
 90
      499
 91
      501
 93
      492
310
4411DBDD5C985D5915DA5D1A115919D95CD0340902404333333333333E33F0000000000000F90107409019070040501600405405064090741402480A1B50
1001
ACAD
1000
AcDbSavedByObjectVersion
1070
     0
  0
ACAD_PROXY_OBJECT
  5
31
102
{ACAD_REACTORS
330
2A
102
}
330
2A
100
AcDbProxyObject
 90
      499
 91
      501
 93
      476
310
41921A5919195B90640502408333333333333E33F0000000000000F901079024090700405020000000000001110200405405064090740C02480A0340
1001
ACAD
1000
AcDbSavedByObjectVersion
1070
     0
  0
ACAD_PROXY_OBJECT
  5
3B
102
{ACAD_REACTORS
330
2A
102
}
330
2A
100
AcDbProxyObject
 90
      499
 91
      501
 93
      428
310
42529A5D1D195C93D999914409028333333333333E33F0000000000000F9010790141107004050150A41D405064090741402480A0350
1001
ACAD
1000
AcDbSavedByObjectVersion
1070
     0
  0
ACAD_PROXY_OBJECT
  5
38
102
{ACAD_REACTORS
330
2A
102
}
330
2A
100
AcDbProxyObject
 90
      499
 91
      501
 93
      444
310
42D31A5B995C185D1D195C9B90E409028333333333333E33F0000000000000F9010790141107004050750841D405064090741402483A0350
1001
ACAD
1000
AcDbSavedByObjectVersion
1070
     0
  0
ACAD_PROXY_OBJECT
  5
3C
102
{ACAD_REACTORS
330
2A
102
}
330
2A
100
AcDbProxyObject
 90
      499
 91
      501
 93
      444
310
42D3DD995C9A185B99D3D999915409028333333333333E33F0000000000000F9010790141107004050150941D405064090741402480A0350
1001
ACAD
1000
AcDbSavedByObjectVersion
1070
     0
  0
ACAD_PROXY_OBJECT
  5
33
102
{ACAD_REACTORS
330
2A
102
}
330
2A
100
AcDbProxyObject
 90
      499
 91
      501
 93
      428
310
425499585B1A5CDD1A58D08409038333333333333E33F0000000000000F9010740A907004050150800405405064090740C02480A1B40
1001
ACAD
1000
AcDbSavedByObjectVersion
1070
     0
  0
ACAD_PROXY_OBJECT
  5
42
102
{ACAD_REACTORS
330
2A
102
}
330
2A
100
AcDbProxyObject
 90
      499
 91
      501
 93
      420
310
4194DA1859195911B40902404333333333333E33F0000000000000F9010740A41107004050150800405405064090840C02480A0B40
1001
ACAD
1000
AcDbSavedByObjectVersion
1070
     0
  0
ACAD_PROXY_OBJECT
  5
41
102
{ACAD_REACTORS
330
2A
102
}
330
2A
100
AcDbProxyObject
 90
      499
 91
      501
 93
      516
310
4454DA18591959081DDA5D1A08195919D95CD1A40902404333333333333E33F0000000000000F901074090142907004050250800405405064090740C02480A0B40
1001
ACAD
1000
AcDbSavedByObjectVersion
1070
     0
  0
ACAD_PROXY_OBJECT
  5
3E
102
{ACAD_REACTORS
330
2A
102
}
330
2A
100
AcDbProxyObject
 90
      499
 91
      501
 93
      532
310
4394DA1859195CC81BD98811DC985E5174090240C333333333333E33F0000000000000F901079024090741D01000000000000111010841D405064090740C02480A0340
1001
ACAD
1000
AcDbSavedByObjectVersion
1070
     0
  0
ACAD_PROXY_OBJECT
  5
3F
102
{ACAD_REACTORS
330
2A
102
}
330
2A
100
AcDbProxyObject
 90
      499
 91
      501
 93
      476
310
41D4DAD95D18DA1E51840502408333333333333E33F0000000000000F901079024090741D01000000000000111010B41D405064090741802480A0340
1001
ACAD
1000
AcDbSavedByObjectVersion
1070
     0
  0
ACAD_PROXY_OBJECT
  5
37
102
{ACAD_REACTORS
330
2A
102
}
330
2A
100
AcDbProxyObject
 90
      499
 91
      501
 93
      412
310
41D51A1A58DAD95B90D409028333333333333E33F0000000000000F9010790141107004050150C41D405064090741402480A0350
1001
ACAD
1000
AcDbSavedByObjectVersion
1070
     0
  0
ACAD_PROXY_OBJECT
  5
30
102
{ACAD_REACTORS
330
2A
102
}
330
2A
100
AcDbProxyObject
 90
      499
 91
      501
 93
      420
310
4255DA5C99599C985B595059028333333333333E33F0000000000000F90107901411070040501600405405064090740C02480A0340
1001
ACAD
1000
AcDbSavedByObjectVersion
1070
     0
  0
ACAD_PROXY_OBJECT
  5
40
102
{ACAD_REACTORS
330
2A
102
}
330
2A
100
AcDbProxyObject
 90
      499
 91
      501
 93
      404
310
41560B54985E51940902404000000000000E03F0000000000000F9010740501907004050150841D405064090740C02480A1B40
1001
ACAD
1000
AcDbSavedByObjectVersion
1070
     0
  0
XRECORD
  5
2BE
102
{ACAD_REACTORS
330
2B5
102
}
330
2B5
100
AcDbXrecord
 90
        0
  0
XRECORD
  5
2D4
102
{ACAD_REACTORS
330
2B5
102
}
330
2B5
100
AcDbXrecord
1000
DSTYLE
1002
{
1070
   340
340
11
1002
}
  0
XRECORD
  5
2BF
102
{ACAD_REACTORS
330
2B5
102
}
330
2B5
100
AcDbXrecord
  1
{9FE59A80-8300-4A68-94F0-9F58EF3C2C01}
  0
XRECORD
  5
2B8
102
{ACAD_REACTORS
330
2B5
102
}
330
2B5
100
AcDbXrecord
  1

  0
XRECORD
  5
2BD
102
{ACAD_REACTORS
330
2B5
102
}
330
2B5
100
AcDbXrecord
 90
        1
  0
XRECORD
  5
2BA
102
{ACAD_REACTORS
330
2B5
102
}
330
2B5
100
AcDbXrecord
340
1A
  0
XRECORD
  5
2BC
102
{ACAD_REACTORS
330
2B5
102
}
330
2B5
100
AcDbXrecord
 90
    10781
  0
XRECORD
  5
2BB
102
{ACAD_REACTORS
330
2B5
102
}
330
2B5
100
AcDbXrecord
340
19
  0
XRECORD
  5
2C1
102
{ACAD_REACTORS
330
2B5
102
}
330
2B5
100
AcDbXrecord
 40
0.0
  0
XRECORD
  5
2C4
102
{ACAD_REACTORS
330
2B5
102
}
330
2B5
100
AcDbXrecord
340
0
  0
XRECORD
  5
2CA
102
{ACAD_REACTORS
330
2B5
102
}
330
2B5
100
AcDbXrecord
 10
0.0
 20
0.0
 30
0.0
  0
XRECORD
  5
2C6
102
{ACAD_REACTORS
330
2B5
102
}
330
2B5
100
AcDbXrecord
 10
0.0
 20
0.0
 30
0.0
  0
XRECORD
  5
2C9
102
{ACAD_REACTORS
330
2B5
102
}
330
2B5
100
AcDbXrecord
 10
0.0
 20
0.0
 30
0.0
  0
XRECORD
  5
2C7
102
{ACAD_REACTORS
330
2B5
102
}
330
2B5
100
AcDbXrecord
 10
0.0
 20
0.0
 30
0.0
  0
XRECORD
  5
2C8
102
{ACAD_REACTORS
330
2B5
102
}
330
2B5
100
AcDbXrecord
 10
0.0
 20
0.0
 30
0.0
  0
XRECORD
  5
2C5
102
{ACAD_REACTORS
330
2B5
102
}
330
2B5
100
AcDbXrecord
 10
0.0
 20
0.0
 30
0.0
  0
XRECORD
  5
2C2
102
{ACAD_REACTORS
330
2B5
102
}
330
2B5
100
AcDbXrecord
340
0
  0
XRECORD
  5
2C3
102
{ACAD_REACTORS
330
2B5
102
}
330
2B5
100
AcDbXrecord
 70
     0
  0
XRECORD
  5
2B9
102
{ACAD_REACTORS
330
2B5
102
}
330
2B5
100
AcDbXrecord
  1

  0
XRECORD
  5
2B6
102
{ACAD_REACTORS
330
2B5
102
}
330
2B5
100
AcDbXrecord
 90
        1
  0
XRECORD
  5
2B7
102
{ACAD_REACTORS
330
2B5
102
}
330
2B5
100
AcDbXrecord
 90
       70
  0
XRECORD
  5
2CD
102
{ACAD_REACTORS
330
2B5
102
}
330
2B5
100
AcDbXrecord
340
0
  0
XRECORD
  5
2D3
102
{ACAD_REACTORS
330
2B5
102
}
330
2B5
100
AcDbXrecord
 10
0.0
 20
0.0
 30
0.0
  0
XRECORD
  5
2CF
102
{ACAD_REACTORS
330
2B5
102
}
330
2B5
100
AcDbXrecord
 10
0.0
 20
0.0
 30
0.0
  0
XRECORD
  5
2D2
102
{ACAD_REACTORS
330
2B5
102
}
330
2B5
100
AcDbXrecord
 10
0.0
 20
0.0
 30
0.0
  0
XRECORD
  5
2D0
102
{ACAD_REACTORS
330
2B5
102
}
330
2B5
100
AcDbXrecord
 10
0.0
 20
0.0
 30
0.0
  0
XRECORD
  5
2D1
102
{ACAD_REACTORS
330
2B5
102
}
330
2B5
100
AcDbXrecord
 10
0.0
 20
0.0
 30
0.0
  0
XRECORD
  5
2CE
102
{ACAD_REACTORS
330
2B5
102
}
330
2B5
100
AcDbXrecord
 10
0.0
 20
0.0
 30
0.0
  0
XRECORD
  5
2CB
102
{ACAD_REACTORS
330
2B5
102
}
330
2B5
100
AcDbXrecord
340
0
  0
XRECORD
  5
2CC
102
{ACAD_REACTORS
330
2B5
102
}
330
2B5
100
AcDbXrecord
 70
     0
  0
XRECORD
  5
2C0
102
{ACAD_REACTORS
330
2B5
102
}
330
2B5
100
AcDbXrecord
  1
{FAEB1C32-E019-11D5-929B-00C0DF256EC4}
  0
DICTIONARYVAR
  5
2DE
102
{ACAD_REACTORS
330
2D5
102
}
330
2D5
100
DictionaryVariables
280
     0
  1
1:1
  0
DICTIONARYVAR
  5
2DA
102
{ACAD_REACTORS
330
2D5
102
}
330
2D5
100
DictionaryVariables
280
     0
  1
2
  0
DICTIONARYVAR
  5
2DB
102
{ACAD_REACTORS
330
2D5
102
}
330
2D5
100
DictionaryVariables
280
     0
  1
1
  0
DICTIONARYVAR
  5
2DF
102
{ACAD_REACTORS
330
2D5
102
}
330
2D5
100
DictionaryVariables
280
     0
  1
1
  0
DICTIONARY
  5
2E2
330
45
100
AcDbDictionary
280
     1
  3
ACAD_XREC_ROUNDTRIP
360
2E3
  0
DICTIONARY
  5
2E0
330
44
100
AcDbDictionary
280
     1
  3
ACAD_XREC_ROUNDTRIP
360
2E1
  0
DICTIONARY
  5
2E4
330
46
100
AcDbDictionary
280
     1
  3
ACAD_XREC_ROUNDTRIP
360
2E5
  0
XRECORD
  5
2E3
102
{ACAD_REACTORS
330
2E2
102
}
330
2E2
100
AcDbXrecord
102
MATERIAL
148
0.0
149
0.0
149
0.0
 93
        0
 94
      127
282
     0
 72
     1
 77
     1
171
     1
175
     1
179
     1
273
     0
  0
XRECORD
  5
2E1
102
{ACAD_REACTORS
330
2E0
102
}
330
2E0
100
AcDbXrecord
102
MATERIAL
148
0.0
149
0.0
149
0.0
 93
        0
 94
      127
282
     0
 72
     1
 77
     1
171
     1
175
     1
179
     1
273
     0
  0
XRECORD
  5
2E5
102
{ACAD_REACTORS
330
2E4
102
}
330
2E4
100
AcDbXrecord
102
MATERIAL
148
0.0
149
0.0
149
0.0
 93
        0
 94
      127
282
     0
 72
     1
 77
     1
171
     1
175
     1
179
     1
273
     0
  0
ENDSEC
  0
EOF
